G04 #@! TF.GenerationSoftware,KiCad,Pcbnew,(5.1.5)-3*
G04 #@! TF.CreationDate,2021-06-17T22:22:24-07:00*
G04 #@! TF.ProjectId,Adapter,41646170-7465-4722-9e6b-696361645f70,rev?*
G04 #@! TF.SameCoordinates,Original*
G04 #@! TF.FileFunction,Copper,L1,Top*
G04 #@! TF.FilePolarity,Positive*
%FSLAX46Y46*%
G04 Gerber Fmt 4.6, Leading zero omitted, Abs format (unit mm)*
G04 Created by KiCad (PCBNEW (5.1.5)-3) date 2021-06-17 22:22:24*
%MOMM*%
%LPD*%
G04 APERTURE LIST*
%ADD10R,1.700000X1.700000*%
%ADD11O,1.700000X1.700000*%
%ADD12C,0.600000*%
%ADD13C,2.000000*%
%ADD14C,0.250000*%
%ADD15C,0.254000*%
G04 APERTURE END LIST*
D10*
X222250000Y-160655000D03*
D11*
X222250000Y-158115000D03*
X224790000Y-160655000D03*
X224790000Y-158115000D03*
X227330000Y-160655000D03*
X227330000Y-158115000D03*
X229870000Y-160655000D03*
X229870000Y-158115000D03*
X232410000Y-160655000D03*
X232410000Y-158115000D03*
X234950000Y-160655000D03*
X234950000Y-158115000D03*
X237490000Y-160655000D03*
X237490000Y-158115000D03*
X161290000Y-158115000D03*
X161290000Y-160655000D03*
X158750000Y-158115000D03*
X158750000Y-160655000D03*
X156210000Y-158115000D03*
X156210000Y-160655000D03*
X153670000Y-158115000D03*
X153670000Y-160655000D03*
X151130000Y-158115000D03*
X151130000Y-160655000D03*
X148590000Y-158115000D03*
X148590000Y-160655000D03*
X146050000Y-158115000D03*
D10*
X146050000Y-160655000D03*
D11*
X186690000Y-158115000D03*
X186690000Y-160655000D03*
X184150000Y-158115000D03*
X184150000Y-160655000D03*
X181610000Y-158115000D03*
X181610000Y-160655000D03*
X179070000Y-158115000D03*
X179070000Y-160655000D03*
X176530000Y-158115000D03*
X176530000Y-160655000D03*
X173990000Y-158115000D03*
X173990000Y-160655000D03*
X171450000Y-158115000D03*
D10*
X171450000Y-160655000D03*
X196850000Y-160655000D03*
D11*
X196850000Y-158115000D03*
X199390000Y-160655000D03*
X199390000Y-158115000D03*
X201930000Y-160655000D03*
X201930000Y-158115000D03*
X204470000Y-160655000D03*
X204470000Y-158115000D03*
X207010000Y-160655000D03*
X207010000Y-158115000D03*
X209550000Y-160655000D03*
X209550000Y-158115000D03*
X212090000Y-160655000D03*
X212090000Y-158115000D03*
D10*
X172720000Y-144145000D03*
D11*
X172720000Y-141605000D03*
X175260000Y-144145000D03*
X175260000Y-141605000D03*
X177800000Y-144145000D03*
X177800000Y-141605000D03*
X180340000Y-144145000D03*
X180340000Y-141605000D03*
X182880000Y-144145000D03*
X182880000Y-141605000D03*
X185420000Y-144145000D03*
X185420000Y-141605000D03*
X187960000Y-144145000D03*
X187960000Y-141605000D03*
X209550000Y-141605000D03*
X209550000Y-144145000D03*
X207010000Y-141605000D03*
X207010000Y-144145000D03*
X204470000Y-141605000D03*
X204470000Y-144145000D03*
X201930000Y-141605000D03*
X201930000Y-144145000D03*
X199390000Y-141605000D03*
X199390000Y-144145000D03*
X196850000Y-141605000D03*
X196850000Y-144145000D03*
X194310000Y-141605000D03*
D10*
X194310000Y-144145000D03*
D11*
X231140000Y-141605000D03*
X231140000Y-144145000D03*
X228600000Y-141605000D03*
X228600000Y-144145000D03*
X226060000Y-141605000D03*
X226060000Y-144145000D03*
X223520000Y-141605000D03*
X223520000Y-144145000D03*
X220980000Y-141605000D03*
X220980000Y-144145000D03*
X218440000Y-141605000D03*
X218440000Y-144145000D03*
X215900000Y-141605000D03*
D10*
X215900000Y-144145000D03*
X151130000Y-144145000D03*
D11*
X151130000Y-141605000D03*
X153670000Y-144145000D03*
X153670000Y-141605000D03*
X156210000Y-144145000D03*
X156210000Y-141605000D03*
X158750000Y-144145000D03*
X158750000Y-141605000D03*
X161290000Y-144145000D03*
X161290000Y-141605000D03*
X163830000Y-144145000D03*
X163830000Y-141605000D03*
X166370000Y-144145000D03*
X166370000Y-141605000D03*
D12*
X210058000Y-149352000D03*
X210058000Y-152654000D03*
X217678000Y-147828000D03*
X217678000Y-151130000D03*
X224790000Y-146558000D03*
X224790000Y-149860000D03*
X232410000Y-149606000D03*
X230124000Y-152908000D03*
X230124000Y-149606000D03*
X234950000Y-152908000D03*
X234950000Y-149606000D03*
X236474000Y-152908000D03*
X236474000Y-149606000D03*
X238760000Y-141478000D03*
X240538000Y-145034000D03*
X240538000Y-148336000D03*
X240792000Y-152654000D03*
X240792000Y-155956000D03*
X241046000Y-160528000D03*
X241046000Y-163830000D03*
X216916000Y-163322000D03*
X216916000Y-160020000D03*
X192532000Y-162814000D03*
X192532000Y-159512000D03*
X166878000Y-163068000D03*
X166878000Y-159766000D03*
X166878000Y-153924000D03*
X166878000Y-150622000D03*
X192278000Y-152654000D03*
X192278000Y-149352000D03*
X146304000Y-141986000D03*
X146304000Y-138684000D03*
X153924000Y-154940000D03*
X159258000Y-154686000D03*
X147828000Y-151384000D03*
X147828000Y-154686000D03*
X173228000Y-150368000D03*
X173228000Y-153670000D03*
X179070000Y-150114000D03*
X179070000Y-153416000D03*
X196596000Y-153416000D03*
X197866000Y-150368000D03*
X204978000Y-153670000D03*
X204978000Y-150368000D03*
X200025000Y-151130000D03*
X201676000Y-151130000D03*
X198120000Y-148082000D03*
X150495000Y-152146000D03*
X150749000Y-148844000D03*
X162814000Y-147828000D03*
X224028000Y-151892000D03*
X222250000Y-152908000D03*
X181864000Y-152908000D03*
X182372000Y-148082000D03*
X174625000Y-148082000D03*
X177292000Y-148336000D03*
X157226000Y-147066000D03*
X154178000Y-149606000D03*
X158242000Y-151130000D03*
X177292000Y-153670000D03*
X175897470Y-154024941D03*
D13*
X146050000Y-160655000D02*
X146050000Y-149860000D01*
X151130000Y-144780000D02*
X151130000Y-141605000D01*
X146050000Y-149860000D02*
X151130000Y-144780000D01*
X221996000Y-160655000D02*
X221996000Y-158115000D01*
X196596000Y-157226000D02*
X194310000Y-154940000D01*
X194310000Y-154940000D02*
X194310000Y-141605000D01*
X196850000Y-160655000D02*
X196596000Y-160401000D01*
X196596000Y-160401000D02*
X196596000Y-157226000D01*
X172720000Y-144272000D02*
X172720000Y-141605000D01*
X171450000Y-160655000D02*
X171450000Y-145542000D01*
X171450000Y-145542000D02*
X172720000Y-144272000D01*
X220345000Y-158115000D02*
X221996000Y-158115000D01*
X215900000Y-141605000D02*
X215900000Y-153670000D01*
X215900000Y-153670000D02*
X220345000Y-158115000D01*
X151130000Y-141605000D02*
X151130000Y-140208000D01*
X151130000Y-140208000D02*
X152146000Y-139192000D01*
D14*
X175006000Y-144399000D02*
X175260000Y-144145000D01*
X180340000Y-159385000D02*
X180340000Y-144145000D01*
X179070000Y-160655000D02*
X180340000Y-159385000D01*
X184150000Y-160655000D02*
X184785000Y-160655000D01*
X185420000Y-160020000D02*
X185420000Y-144145000D01*
X184785000Y-160655000D02*
X185420000Y-160020000D01*
X209550000Y-160655000D02*
X209550000Y-160020000D01*
X209550000Y-160020000D02*
X208280000Y-158750000D01*
X208280000Y-145415000D02*
X207010000Y-144145000D01*
X208280000Y-158750000D02*
X208280000Y-145415000D01*
X201930000Y-146050000D02*
X201930000Y-144145000D01*
X205740000Y-158750000D02*
X205740000Y-149860000D01*
X205740000Y-149860000D02*
X201930000Y-146050000D01*
X204470000Y-160655000D02*
X203835000Y-160655000D01*
X203835000Y-160655000D02*
X205740000Y-158750000D01*
X196850000Y-152146000D02*
X196850000Y-144145000D01*
X198120000Y-153416000D02*
X196850000Y-152146000D01*
X199390000Y-160655000D02*
X199390000Y-160020000D01*
X198120000Y-158750000D02*
X198120000Y-153416000D01*
X199390000Y-160020000D02*
X198120000Y-158750000D01*
X234950000Y-160655000D02*
X234950000Y-160020000D01*
X234950000Y-160020000D02*
X233680000Y-158750000D01*
X233680000Y-149225000D02*
X228600000Y-144145000D01*
X233680000Y-158750000D02*
X233680000Y-149225000D01*
X228600000Y-152146000D02*
X223520000Y-147066000D01*
X223520000Y-147066000D02*
X223520000Y-144145000D01*
X229870000Y-160655000D02*
X229235000Y-160655000D01*
X228600000Y-160020000D02*
X228600000Y-152146000D01*
X229235000Y-160655000D02*
X228600000Y-160020000D01*
X224790000Y-160655000D02*
X224790000Y-160020000D01*
X224790000Y-160020000D02*
X223520000Y-158750000D01*
X223520000Y-158750000D02*
X223520000Y-157480000D01*
X218440000Y-152400000D02*
X218440000Y-144145000D01*
X223520000Y-157480000D02*
X218440000Y-152400000D01*
X153670000Y-147066000D02*
X153670000Y-144145000D01*
X149860000Y-150876000D02*
X153670000Y-147066000D01*
X149860000Y-158750000D02*
X149860000Y-150876000D01*
X148590000Y-160655000D02*
X148590000Y-160020000D01*
X148590000Y-160020000D02*
X149860000Y-158750000D01*
X158750000Y-149606000D02*
X158750000Y-144145000D01*
X154940000Y-153416000D02*
X158750000Y-149606000D01*
X153670000Y-160655000D02*
X154940000Y-159385000D01*
X154940000Y-159385000D02*
X154940000Y-153416000D01*
X163830000Y-149098000D02*
X163830000Y-144145000D01*
X160020000Y-152908000D02*
X163830000Y-149098000D01*
X158750000Y-160655000D02*
X160020000Y-159385000D01*
X160020000Y-159385000D02*
X160020000Y-152908000D01*
X201930000Y-160655000D02*
X201295000Y-160655000D01*
X201295000Y-160655000D02*
X200660000Y-160020000D01*
X200660000Y-160020000D02*
X200660000Y-147320000D01*
X199390000Y-146050000D02*
X199390000Y-144145000D01*
X200660000Y-147320000D02*
X199390000Y-146050000D01*
X220980000Y-150368000D02*
X220980000Y-144145000D01*
X226060000Y-160020000D02*
X226060000Y-155448000D01*
X227330000Y-160655000D02*
X226695000Y-160655000D01*
X226060000Y-155448000D02*
X220980000Y-150368000D01*
X226695000Y-160655000D02*
X226060000Y-160020000D01*
X152400000Y-153352500D02*
X156210000Y-149542500D01*
X156210000Y-149542500D02*
X156210000Y-144145000D01*
X152400000Y-158750000D02*
X152400000Y-153352500D01*
X151130000Y-160655000D02*
X151130000Y-160020000D01*
X151130000Y-160020000D02*
X152400000Y-158750000D01*
X177800000Y-159385000D02*
X178308000Y-146812000D01*
X176530000Y-160655000D02*
X177800000Y-159385000D01*
X178308000Y-144653000D02*
X177800000Y-144145000D01*
X178308000Y-146812000D02*
X178308000Y-144653000D01*
D15*
G36*
X150030682Y-138995080D02*
G01*
X149968287Y-139046286D01*
X149763970Y-139295248D01*
X149612148Y-139579286D01*
X149573761Y-139705833D01*
X149518657Y-139887484D01*
X149498992Y-140087148D01*
X149487089Y-140208000D01*
X149495000Y-140288319D01*
X149495000Y-141685321D01*
X149495001Y-141685331D01*
X149495000Y-144102761D01*
X144950682Y-148647080D01*
X144888287Y-148698286D01*
X144804219Y-148800724D01*
X144683970Y-148947248D01*
X144532148Y-149231286D01*
X144438658Y-149539484D01*
X144407089Y-149860000D01*
X144415001Y-149940329D01*
X144415000Y-160735321D01*
X144438657Y-160975515D01*
X144532148Y-161283714D01*
X144561928Y-161339428D01*
X144561928Y-161505000D01*
X144574188Y-161629482D01*
X144610498Y-161749180D01*
X144669463Y-161859494D01*
X144748815Y-161956185D01*
X144845506Y-162035537D01*
X144955820Y-162094502D01*
X145075518Y-162130812D01*
X145200000Y-162143072D01*
X145365571Y-162143072D01*
X145421285Y-162172852D01*
X145729484Y-162266343D01*
X146050000Y-162297911D01*
X146370515Y-162266343D01*
X146678714Y-162172852D01*
X146734428Y-162143072D01*
X146900000Y-162143072D01*
X147024482Y-162130812D01*
X147144180Y-162094502D01*
X147254494Y-162035537D01*
X147351185Y-161956185D01*
X147430537Y-161859494D01*
X147489502Y-161749180D01*
X147511513Y-161676620D01*
X147643368Y-161808475D01*
X147886589Y-161970990D01*
X148156842Y-162082932D01*
X148443740Y-162140000D01*
X148736260Y-162140000D01*
X149023158Y-162082932D01*
X149293411Y-161970990D01*
X149536632Y-161808475D01*
X149743475Y-161601632D01*
X149860000Y-161427240D01*
X149976525Y-161601632D01*
X150183368Y-161808475D01*
X150426589Y-161970990D01*
X150696842Y-162082932D01*
X150983740Y-162140000D01*
X151276260Y-162140000D01*
X151563158Y-162082932D01*
X151833411Y-161970990D01*
X152076632Y-161808475D01*
X152283475Y-161601632D01*
X152400000Y-161427240D01*
X152516525Y-161601632D01*
X152723368Y-161808475D01*
X152966589Y-161970990D01*
X153236842Y-162082932D01*
X153523740Y-162140000D01*
X153816260Y-162140000D01*
X154103158Y-162082932D01*
X154373411Y-161970990D01*
X154616632Y-161808475D01*
X154823475Y-161601632D01*
X154945195Y-161419466D01*
X155014822Y-161536355D01*
X155209731Y-161752588D01*
X155443080Y-161926641D01*
X155705901Y-162051825D01*
X155853110Y-162096476D01*
X156083000Y-161975155D01*
X156083000Y-160782000D01*
X156063000Y-160782000D01*
X156063000Y-160528000D01*
X156083000Y-160528000D01*
X156083000Y-160508000D01*
X156337000Y-160508000D01*
X156337000Y-160528000D01*
X156357000Y-160528000D01*
X156357000Y-160782000D01*
X156337000Y-160782000D01*
X156337000Y-161975155D01*
X156566890Y-162096476D01*
X156714099Y-162051825D01*
X156976920Y-161926641D01*
X157210269Y-161752588D01*
X157405178Y-161536355D01*
X157474805Y-161419466D01*
X157596525Y-161601632D01*
X157803368Y-161808475D01*
X158046589Y-161970990D01*
X158316842Y-162082932D01*
X158603740Y-162140000D01*
X158896260Y-162140000D01*
X159183158Y-162082932D01*
X159453411Y-161970990D01*
X159696632Y-161808475D01*
X159903475Y-161601632D01*
X160025195Y-161419466D01*
X160094822Y-161536355D01*
X160289731Y-161752588D01*
X160523080Y-161926641D01*
X160785901Y-162051825D01*
X160933110Y-162096476D01*
X161163000Y-161975155D01*
X161163000Y-160782000D01*
X161417000Y-160782000D01*
X161417000Y-161975155D01*
X161646890Y-162096476D01*
X161794099Y-162051825D01*
X162056920Y-161926641D01*
X162290269Y-161752588D01*
X162485178Y-161536355D01*
X162634157Y-161286252D01*
X162731481Y-161011891D01*
X162610814Y-160782000D01*
X161417000Y-160782000D01*
X161163000Y-160782000D01*
X161143000Y-160782000D01*
X161143000Y-160528000D01*
X161163000Y-160528000D01*
X161163000Y-160508000D01*
X161417000Y-160508000D01*
X161417000Y-160528000D01*
X162610814Y-160528000D01*
X162731481Y-160298109D01*
X162634157Y-160023748D01*
X162485178Y-159773645D01*
X162290269Y-159557412D01*
X162060594Y-159386100D01*
X162236632Y-159268475D01*
X162443475Y-159061632D01*
X162605990Y-158818411D01*
X162717932Y-158548158D01*
X162775000Y-158261260D01*
X162775000Y-157968740D01*
X162717932Y-157681842D01*
X162605990Y-157411589D01*
X162443475Y-157168368D01*
X162236632Y-156961525D01*
X161993411Y-156799010D01*
X161723158Y-156687068D01*
X161436260Y-156630000D01*
X161143740Y-156630000D01*
X160856842Y-156687068D01*
X160780000Y-156718897D01*
X160780000Y-153222801D01*
X164341004Y-149661798D01*
X164370001Y-149638001D01*
X164464974Y-149522276D01*
X164535546Y-149390247D01*
X164579003Y-149246986D01*
X164590000Y-149135333D01*
X164590000Y-149135325D01*
X164593676Y-149098000D01*
X164590000Y-149060675D01*
X164590000Y-145423178D01*
X164776632Y-145298475D01*
X164983475Y-145091632D01*
X165105195Y-144909466D01*
X165174822Y-145026355D01*
X165369731Y-145242588D01*
X165603080Y-145416641D01*
X165865901Y-145541825D01*
X166013110Y-145586476D01*
X166243000Y-145465155D01*
X166243000Y-144272000D01*
X166497000Y-144272000D01*
X166497000Y-145465155D01*
X166726890Y-145586476D01*
X166873522Y-145542000D01*
X169807089Y-145542000D01*
X169815001Y-145622329D01*
X169815000Y-160735321D01*
X169838657Y-160975515D01*
X169932148Y-161283714D01*
X169961928Y-161339428D01*
X169961928Y-161505000D01*
X169974188Y-161629482D01*
X170010498Y-161749180D01*
X170069463Y-161859494D01*
X170148815Y-161956185D01*
X170245506Y-162035537D01*
X170355820Y-162094502D01*
X170475518Y-162130812D01*
X170600000Y-162143072D01*
X170765571Y-162143072D01*
X170821285Y-162172852D01*
X171129484Y-162266343D01*
X171450000Y-162297911D01*
X171770515Y-162266343D01*
X172078714Y-162172852D01*
X172134428Y-162143072D01*
X172300000Y-162143072D01*
X172424482Y-162130812D01*
X172544180Y-162094502D01*
X172654494Y-162035537D01*
X172751185Y-161956185D01*
X172830537Y-161859494D01*
X172889502Y-161749180D01*
X172911513Y-161676620D01*
X173043368Y-161808475D01*
X173286589Y-161970990D01*
X173556842Y-162082932D01*
X173843740Y-162140000D01*
X174136260Y-162140000D01*
X174423158Y-162082932D01*
X174693411Y-161970990D01*
X174936632Y-161808475D01*
X175143475Y-161601632D01*
X175260000Y-161427240D01*
X175376525Y-161601632D01*
X175583368Y-161808475D01*
X175826589Y-161970990D01*
X176096842Y-162082932D01*
X176383740Y-162140000D01*
X176676260Y-162140000D01*
X176963158Y-162082932D01*
X177233411Y-161970990D01*
X177476632Y-161808475D01*
X177683475Y-161601632D01*
X177800000Y-161427240D01*
X177916525Y-161601632D01*
X178123368Y-161808475D01*
X178366589Y-161970990D01*
X178636842Y-162082932D01*
X178923740Y-162140000D01*
X179216260Y-162140000D01*
X179503158Y-162082932D01*
X179773411Y-161970990D01*
X180016632Y-161808475D01*
X180223475Y-161601632D01*
X180345195Y-161419466D01*
X180414822Y-161536355D01*
X180609731Y-161752588D01*
X180843080Y-161926641D01*
X181105901Y-162051825D01*
X181253110Y-162096476D01*
X181483000Y-161975155D01*
X181483000Y-160782000D01*
X181463000Y-160782000D01*
X181463000Y-160528000D01*
X181483000Y-160528000D01*
X181483000Y-160508000D01*
X181737000Y-160508000D01*
X181737000Y-160528000D01*
X181757000Y-160528000D01*
X181757000Y-160782000D01*
X181737000Y-160782000D01*
X181737000Y-161975155D01*
X181966890Y-162096476D01*
X182114099Y-162051825D01*
X182376920Y-161926641D01*
X182610269Y-161752588D01*
X182805178Y-161536355D01*
X182874805Y-161419466D01*
X182996525Y-161601632D01*
X183203368Y-161808475D01*
X183446589Y-161970990D01*
X183716842Y-162082932D01*
X184003740Y-162140000D01*
X184296260Y-162140000D01*
X184583158Y-162082932D01*
X184853411Y-161970990D01*
X185096632Y-161808475D01*
X185303475Y-161601632D01*
X185425195Y-161419466D01*
X185494822Y-161536355D01*
X185689731Y-161752588D01*
X185923080Y-161926641D01*
X186185901Y-162051825D01*
X186333110Y-162096476D01*
X186563000Y-161975155D01*
X186563000Y-160782000D01*
X186817000Y-160782000D01*
X186817000Y-161975155D01*
X187046890Y-162096476D01*
X187194099Y-162051825D01*
X187456920Y-161926641D01*
X187690269Y-161752588D01*
X187885178Y-161536355D01*
X188034157Y-161286252D01*
X188131481Y-161011891D01*
X188010814Y-160782000D01*
X186817000Y-160782000D01*
X186563000Y-160782000D01*
X186543000Y-160782000D01*
X186543000Y-160528000D01*
X186563000Y-160528000D01*
X186563000Y-160508000D01*
X186817000Y-160508000D01*
X186817000Y-160528000D01*
X188010814Y-160528000D01*
X188131481Y-160298109D01*
X188034157Y-160023748D01*
X187885178Y-159773645D01*
X187690269Y-159557412D01*
X187460594Y-159386100D01*
X187636632Y-159268475D01*
X187843475Y-159061632D01*
X188005990Y-158818411D01*
X188117932Y-158548158D01*
X188175000Y-158261260D01*
X188175000Y-157968740D01*
X188117932Y-157681842D01*
X188005990Y-157411589D01*
X187843475Y-157168368D01*
X187636632Y-156961525D01*
X187393411Y-156799010D01*
X187123158Y-156687068D01*
X186836260Y-156630000D01*
X186543740Y-156630000D01*
X186256842Y-156687068D01*
X186180000Y-156718897D01*
X186180000Y-154940000D01*
X192667089Y-154940000D01*
X192675000Y-155020319D01*
X192675000Y-155020321D01*
X192698657Y-155260515D01*
X192792148Y-155568714D01*
X192943969Y-155852751D01*
X193148286Y-156101714D01*
X193210687Y-156152925D01*
X194961001Y-157903240D01*
X194961000Y-160320680D01*
X194953089Y-160401000D01*
X194961000Y-160481319D01*
X194961000Y-160481321D01*
X194984657Y-160721515D01*
X195078148Y-161029714D01*
X195229969Y-161313751D01*
X195361928Y-161474545D01*
X195361928Y-161505000D01*
X195374188Y-161629482D01*
X195410498Y-161749180D01*
X195469463Y-161859494D01*
X195548815Y-161956185D01*
X195645506Y-162035537D01*
X195755820Y-162094502D01*
X195875518Y-162130812D01*
X196000000Y-162143072D01*
X196165573Y-162143072D01*
X196221286Y-162172851D01*
X196529484Y-162266342D01*
X196849999Y-162297911D01*
X197170516Y-162266342D01*
X197478714Y-162172851D01*
X197534427Y-162143072D01*
X197700000Y-162143072D01*
X197824482Y-162130812D01*
X197944180Y-162094502D01*
X198054494Y-162035537D01*
X198151185Y-161956185D01*
X198230537Y-161859494D01*
X198289502Y-161749180D01*
X198311513Y-161676620D01*
X198443368Y-161808475D01*
X198686589Y-161970990D01*
X198956842Y-162082932D01*
X199243740Y-162140000D01*
X199536260Y-162140000D01*
X199823158Y-162082932D01*
X200093411Y-161970990D01*
X200336632Y-161808475D01*
X200543475Y-161601632D01*
X200660000Y-161427240D01*
X200776525Y-161601632D01*
X200983368Y-161808475D01*
X201226589Y-161970990D01*
X201496842Y-162082932D01*
X201783740Y-162140000D01*
X202076260Y-162140000D01*
X202363158Y-162082932D01*
X202633411Y-161970990D01*
X202876632Y-161808475D01*
X203083475Y-161601632D01*
X203200000Y-161427240D01*
X203316525Y-161601632D01*
X203523368Y-161808475D01*
X203766589Y-161970990D01*
X204036842Y-162082932D01*
X204323740Y-162140000D01*
X204616260Y-162140000D01*
X204903158Y-162082932D01*
X205173411Y-161970990D01*
X205416632Y-161808475D01*
X205623475Y-161601632D01*
X205745195Y-161419466D01*
X205814822Y-161536355D01*
X206009731Y-161752588D01*
X206243080Y-161926641D01*
X206505901Y-162051825D01*
X206653110Y-162096476D01*
X206883000Y-161975155D01*
X206883000Y-160782000D01*
X206863000Y-160782000D01*
X206863000Y-160528000D01*
X206883000Y-160528000D01*
X206883000Y-160508000D01*
X207137000Y-160508000D01*
X207137000Y-160528000D01*
X207157000Y-160528000D01*
X207157000Y-160782000D01*
X207137000Y-160782000D01*
X207137000Y-161975155D01*
X207366890Y-162096476D01*
X207514099Y-162051825D01*
X207776920Y-161926641D01*
X208010269Y-161752588D01*
X208205178Y-161536355D01*
X208274805Y-161419466D01*
X208396525Y-161601632D01*
X208603368Y-161808475D01*
X208846589Y-161970990D01*
X209116842Y-162082932D01*
X209403740Y-162140000D01*
X209696260Y-162140000D01*
X209983158Y-162082932D01*
X210253411Y-161970990D01*
X210496632Y-161808475D01*
X210703475Y-161601632D01*
X210825195Y-161419466D01*
X210894822Y-161536355D01*
X211089731Y-161752588D01*
X211323080Y-161926641D01*
X211585901Y-162051825D01*
X211733110Y-162096476D01*
X211963000Y-161975155D01*
X211963000Y-160782000D01*
X212217000Y-160782000D01*
X212217000Y-161975155D01*
X212446890Y-162096476D01*
X212594099Y-162051825D01*
X212856920Y-161926641D01*
X213090269Y-161752588D01*
X213285178Y-161536355D01*
X213434157Y-161286252D01*
X213531481Y-161011891D01*
X213410814Y-160782000D01*
X212217000Y-160782000D01*
X211963000Y-160782000D01*
X211943000Y-160782000D01*
X211943000Y-160528000D01*
X211963000Y-160528000D01*
X211963000Y-160508000D01*
X212217000Y-160508000D01*
X212217000Y-160528000D01*
X213410814Y-160528000D01*
X213531481Y-160298109D01*
X213434157Y-160023748D01*
X213285178Y-159773645D01*
X213090269Y-159557412D01*
X212860594Y-159386100D01*
X213036632Y-159268475D01*
X213243475Y-159061632D01*
X213405990Y-158818411D01*
X213517932Y-158548158D01*
X213575000Y-158261260D01*
X213575000Y-157968740D01*
X213517932Y-157681842D01*
X213405990Y-157411589D01*
X213243475Y-157168368D01*
X213036632Y-156961525D01*
X212793411Y-156799010D01*
X212523158Y-156687068D01*
X212236260Y-156630000D01*
X211943740Y-156630000D01*
X211656842Y-156687068D01*
X211386589Y-156799010D01*
X211143368Y-156961525D01*
X210936525Y-157168368D01*
X210814805Y-157350534D01*
X210745178Y-157233645D01*
X210550269Y-157017412D01*
X210316920Y-156843359D01*
X210054099Y-156718175D01*
X209906890Y-156673524D01*
X209677000Y-156794845D01*
X209677000Y-157988000D01*
X209697000Y-157988000D01*
X209697000Y-158242000D01*
X209677000Y-158242000D01*
X209677000Y-158262000D01*
X209423000Y-158262000D01*
X209423000Y-158242000D01*
X209403000Y-158242000D01*
X209403000Y-157988000D01*
X209423000Y-157988000D01*
X209423000Y-156794845D01*
X209193110Y-156673524D01*
X209045901Y-156718175D01*
X209040000Y-156720986D01*
X209040000Y-153670000D01*
X214257089Y-153670000D01*
X214288658Y-153990516D01*
X214382148Y-154298714D01*
X214382149Y-154298715D01*
X214533970Y-154582752D01*
X214738287Y-154831714D01*
X214800682Y-154882920D01*
X219132080Y-159214319D01*
X219183286Y-159276714D01*
X219432248Y-159481031D01*
X219716285Y-159632852D01*
X220024484Y-159726343D01*
X220264678Y-159750000D01*
X220264680Y-159750000D01*
X220344999Y-159757911D01*
X220361000Y-159756335D01*
X220361000Y-160735321D01*
X220384657Y-160975515D01*
X220478148Y-161283714D01*
X220629969Y-161567751D01*
X220834286Y-161816714D01*
X220856216Y-161834712D01*
X220869463Y-161859494D01*
X220948815Y-161956185D01*
X221045506Y-162035537D01*
X221155820Y-162094502D01*
X221275518Y-162130812D01*
X221291596Y-162132396D01*
X221367285Y-162172852D01*
X221675484Y-162266343D01*
X221996000Y-162297911D01*
X222316515Y-162266343D01*
X222624714Y-162172852D01*
X222680428Y-162143072D01*
X223100000Y-162143072D01*
X223224482Y-162130812D01*
X223344180Y-162094502D01*
X223454494Y-162035537D01*
X223551185Y-161956185D01*
X223630537Y-161859494D01*
X223689502Y-161749180D01*
X223711513Y-161676620D01*
X223843368Y-161808475D01*
X224086589Y-161970990D01*
X224356842Y-162082932D01*
X224643740Y-162140000D01*
X224936260Y-162140000D01*
X225223158Y-162082932D01*
X225493411Y-161970990D01*
X225736632Y-161808475D01*
X225943475Y-161601632D01*
X226060000Y-161427240D01*
X226176525Y-161601632D01*
X226383368Y-161808475D01*
X226626589Y-161970990D01*
X226896842Y-162082932D01*
X227183740Y-162140000D01*
X227476260Y-162140000D01*
X227763158Y-162082932D01*
X228033411Y-161970990D01*
X228276632Y-161808475D01*
X228483475Y-161601632D01*
X228600000Y-161427240D01*
X228716525Y-161601632D01*
X228923368Y-161808475D01*
X229166589Y-161970990D01*
X229436842Y-162082932D01*
X229723740Y-162140000D01*
X230016260Y-162140000D01*
X230303158Y-162082932D01*
X230573411Y-161970990D01*
X230816632Y-161808475D01*
X231023475Y-161601632D01*
X231145195Y-161419466D01*
X231214822Y-161536355D01*
X231409731Y-161752588D01*
X231643080Y-161926641D01*
X231905901Y-162051825D01*
X232053110Y-162096476D01*
X232283000Y-161975155D01*
X232283000Y-160782000D01*
X232263000Y-160782000D01*
X232263000Y-160528000D01*
X232283000Y-160528000D01*
X232283000Y-160508000D01*
X232537000Y-160508000D01*
X232537000Y-160528000D01*
X232557000Y-160528000D01*
X232557000Y-160782000D01*
X232537000Y-160782000D01*
X232537000Y-161975155D01*
X232766890Y-162096476D01*
X232914099Y-162051825D01*
X233176920Y-161926641D01*
X233410269Y-161752588D01*
X233605178Y-161536355D01*
X233674805Y-161419466D01*
X233796525Y-161601632D01*
X234003368Y-161808475D01*
X234246589Y-161970990D01*
X234516842Y-162082932D01*
X234803740Y-162140000D01*
X235096260Y-162140000D01*
X235383158Y-162082932D01*
X235653411Y-161970990D01*
X235896632Y-161808475D01*
X236103475Y-161601632D01*
X236225195Y-161419466D01*
X236294822Y-161536355D01*
X236489731Y-161752588D01*
X236723080Y-161926641D01*
X236985901Y-162051825D01*
X237133110Y-162096476D01*
X237363000Y-161975155D01*
X237363000Y-160782000D01*
X237617000Y-160782000D01*
X237617000Y-161975155D01*
X237846890Y-162096476D01*
X237994099Y-162051825D01*
X238256920Y-161926641D01*
X238490269Y-161752588D01*
X238685178Y-161536355D01*
X238834157Y-161286252D01*
X238931481Y-161011891D01*
X238810814Y-160782000D01*
X237617000Y-160782000D01*
X237363000Y-160782000D01*
X237343000Y-160782000D01*
X237343000Y-160528000D01*
X237363000Y-160528000D01*
X237363000Y-160508000D01*
X237617000Y-160508000D01*
X237617000Y-160528000D01*
X238810814Y-160528000D01*
X238931481Y-160298109D01*
X238834157Y-160023748D01*
X238685178Y-159773645D01*
X238490269Y-159557412D01*
X238260594Y-159386100D01*
X238436632Y-159268475D01*
X238643475Y-159061632D01*
X238805990Y-158818411D01*
X238917932Y-158548158D01*
X238975000Y-158261260D01*
X238975000Y-157968740D01*
X238917932Y-157681842D01*
X238805990Y-157411589D01*
X238643475Y-157168368D01*
X238436632Y-156961525D01*
X238193411Y-156799010D01*
X237923158Y-156687068D01*
X237636260Y-156630000D01*
X237343740Y-156630000D01*
X237056842Y-156687068D01*
X236786589Y-156799010D01*
X236543368Y-156961525D01*
X236336525Y-157168368D01*
X236214805Y-157350534D01*
X236145178Y-157233645D01*
X235950269Y-157017412D01*
X235716920Y-156843359D01*
X235454099Y-156718175D01*
X235306890Y-156673524D01*
X235077000Y-156794845D01*
X235077000Y-157988000D01*
X235097000Y-157988000D01*
X235097000Y-158242000D01*
X235077000Y-158242000D01*
X235077000Y-158262000D01*
X234823000Y-158262000D01*
X234823000Y-158242000D01*
X234803000Y-158242000D01*
X234803000Y-157988000D01*
X234823000Y-157988000D01*
X234823000Y-156794845D01*
X234593110Y-156673524D01*
X234445901Y-156718175D01*
X234440000Y-156720986D01*
X234440000Y-149262323D01*
X234443676Y-149225000D01*
X234440000Y-149187677D01*
X234440000Y-149187667D01*
X234429003Y-149076014D01*
X234385546Y-148932753D01*
X234317663Y-148805754D01*
X234314974Y-148800723D01*
X234243799Y-148713997D01*
X234220001Y-148684999D01*
X234191003Y-148661201D01*
X231159801Y-145630000D01*
X231267002Y-145630000D01*
X231267002Y-145465156D01*
X231496890Y-145586476D01*
X231644099Y-145541825D01*
X231906920Y-145416641D01*
X232140269Y-145242588D01*
X232335178Y-145026355D01*
X232484157Y-144776252D01*
X232581481Y-144501891D01*
X232460814Y-144272000D01*
X231267000Y-144272000D01*
X231267000Y-144292000D01*
X231013000Y-144292000D01*
X231013000Y-144272000D01*
X230993000Y-144272000D01*
X230993000Y-144018000D01*
X231013000Y-144018000D01*
X231013000Y-143998000D01*
X231267000Y-143998000D01*
X231267000Y-144018000D01*
X232460814Y-144018000D01*
X232581481Y-143788109D01*
X232484157Y-143513748D01*
X232335178Y-143263645D01*
X232140269Y-143047412D01*
X231910594Y-142876100D01*
X232086632Y-142758475D01*
X232293475Y-142551632D01*
X232455990Y-142308411D01*
X232567932Y-142038158D01*
X232625000Y-141751260D01*
X232625000Y-141458740D01*
X232567932Y-141171842D01*
X232455990Y-140901589D01*
X232293475Y-140658368D01*
X232086632Y-140451525D01*
X231843411Y-140289010D01*
X231573158Y-140177068D01*
X231286260Y-140120000D01*
X230993740Y-140120000D01*
X230706842Y-140177068D01*
X230436589Y-140289010D01*
X230193368Y-140451525D01*
X229986525Y-140658368D01*
X229864805Y-140840534D01*
X229795178Y-140723645D01*
X229600269Y-140507412D01*
X229366920Y-140333359D01*
X229104099Y-140208175D01*
X228956890Y-140163524D01*
X228727000Y-140284845D01*
X228727000Y-141478000D01*
X228747000Y-141478000D01*
X228747000Y-141732000D01*
X228727000Y-141732000D01*
X228727000Y-141752000D01*
X228473000Y-141752000D01*
X228473000Y-141732000D01*
X228453000Y-141732000D01*
X228453000Y-141478000D01*
X228473000Y-141478000D01*
X228473000Y-140284845D01*
X228243110Y-140163524D01*
X228095901Y-140208175D01*
X227833080Y-140333359D01*
X227599731Y-140507412D01*
X227404822Y-140723645D01*
X227335195Y-140840534D01*
X227213475Y-140658368D01*
X227006632Y-140451525D01*
X226763411Y-140289010D01*
X226493158Y-140177068D01*
X226206260Y-140120000D01*
X225913740Y-140120000D01*
X225626842Y-140177068D01*
X225356589Y-140289010D01*
X225113368Y-140451525D01*
X224906525Y-140658368D01*
X224784805Y-140840534D01*
X224715178Y-140723645D01*
X224520269Y-140507412D01*
X224286920Y-140333359D01*
X224024099Y-140208175D01*
X223876890Y-140163524D01*
X223647000Y-140284845D01*
X223647000Y-141478000D01*
X223667000Y-141478000D01*
X223667000Y-141732000D01*
X223647000Y-141732000D01*
X223647000Y-141752000D01*
X223393000Y-141752000D01*
X223393000Y-141732000D01*
X223373000Y-141732000D01*
X223373000Y-141478000D01*
X223393000Y-141478000D01*
X223393000Y-140284845D01*
X223163110Y-140163524D01*
X223015901Y-140208175D01*
X222753080Y-140333359D01*
X222519731Y-140507412D01*
X222324822Y-140723645D01*
X222255195Y-140840534D01*
X222133475Y-140658368D01*
X221926632Y-140451525D01*
X221683411Y-140289010D01*
X221413158Y-140177068D01*
X221126260Y-140120000D01*
X220833740Y-140120000D01*
X220546842Y-140177068D01*
X220276589Y-140289010D01*
X220033368Y-140451525D01*
X219826525Y-140658368D01*
X219710000Y-140832760D01*
X219593475Y-140658368D01*
X219386632Y-140451525D01*
X219143411Y-140289010D01*
X218873158Y-140177068D01*
X218586260Y-140120000D01*
X218293740Y-140120000D01*
X218006842Y-140177068D01*
X217736589Y-140289010D01*
X217493368Y-140451525D01*
X217286525Y-140658368D01*
X217264849Y-140690808D01*
X217061714Y-140443286D01*
X216812751Y-140238969D01*
X216528714Y-140087148D01*
X216220515Y-139993657D01*
X215900000Y-139962089D01*
X215579484Y-139993657D01*
X215271285Y-140087148D01*
X214987248Y-140238969D01*
X214738286Y-140443286D01*
X214533969Y-140692249D01*
X214382148Y-140976286D01*
X214288657Y-141284485D01*
X214265000Y-141524679D01*
X214265001Y-153589671D01*
X214257089Y-153670000D01*
X209040000Y-153670000D01*
X209040000Y-145539014D01*
X209045901Y-145541825D01*
X209193110Y-145586476D01*
X209423000Y-145465155D01*
X209423000Y-144272000D01*
X209677000Y-144272000D01*
X209677000Y-145465155D01*
X209906890Y-145586476D01*
X210054099Y-145541825D01*
X210316920Y-145416641D01*
X210550269Y-145242588D01*
X210745178Y-145026355D01*
X210894157Y-144776252D01*
X210991481Y-144501891D01*
X210870814Y-144272000D01*
X209677000Y-144272000D01*
X209423000Y-144272000D01*
X209403000Y-144272000D01*
X209403000Y-144018000D01*
X209423000Y-144018000D01*
X209423000Y-143998000D01*
X209677000Y-143998000D01*
X209677000Y-144018000D01*
X210870814Y-144018000D01*
X210991481Y-143788109D01*
X210894157Y-143513748D01*
X210745178Y-143263645D01*
X210550269Y-143047412D01*
X210320594Y-142876100D01*
X210496632Y-142758475D01*
X210703475Y-142551632D01*
X210865990Y-142308411D01*
X210977932Y-142038158D01*
X211035000Y-141751260D01*
X211035000Y-141458740D01*
X210977932Y-141171842D01*
X210865990Y-140901589D01*
X210703475Y-140658368D01*
X210496632Y-140451525D01*
X210253411Y-140289010D01*
X209983158Y-140177068D01*
X209696260Y-140120000D01*
X209403740Y-140120000D01*
X209116842Y-140177068D01*
X208846589Y-140289010D01*
X208603368Y-140451525D01*
X208396525Y-140658368D01*
X208274805Y-140840534D01*
X208205178Y-140723645D01*
X208010269Y-140507412D01*
X207776920Y-140333359D01*
X207514099Y-140208175D01*
X207366890Y-140163524D01*
X207137000Y-140284845D01*
X207137000Y-141478000D01*
X207157000Y-141478000D01*
X207157000Y-141732000D01*
X207137000Y-141732000D01*
X207137000Y-141752000D01*
X206883000Y-141752000D01*
X206883000Y-141732000D01*
X206863000Y-141732000D01*
X206863000Y-141478000D01*
X206883000Y-141478000D01*
X206883000Y-140284845D01*
X206653110Y-140163524D01*
X206505901Y-140208175D01*
X206243080Y-140333359D01*
X206009731Y-140507412D01*
X205814822Y-140723645D01*
X205745195Y-140840534D01*
X205623475Y-140658368D01*
X205416632Y-140451525D01*
X205173411Y-140289010D01*
X204903158Y-140177068D01*
X204616260Y-140120000D01*
X204323740Y-140120000D01*
X204036842Y-140177068D01*
X203766589Y-140289010D01*
X203523368Y-140451525D01*
X203316525Y-140658368D01*
X203194805Y-140840534D01*
X203125178Y-140723645D01*
X202930269Y-140507412D01*
X202696920Y-140333359D01*
X202434099Y-140208175D01*
X202286890Y-140163524D01*
X202057000Y-140284845D01*
X202057000Y-141478000D01*
X202077000Y-141478000D01*
X202077000Y-141732000D01*
X202057000Y-141732000D01*
X202057000Y-141752000D01*
X201803000Y-141752000D01*
X201803000Y-141732000D01*
X201783000Y-141732000D01*
X201783000Y-141478000D01*
X201803000Y-141478000D01*
X201803000Y-140284845D01*
X201573110Y-140163524D01*
X201425901Y-140208175D01*
X201163080Y-140333359D01*
X200929731Y-140507412D01*
X200734822Y-140723645D01*
X200665195Y-140840534D01*
X200543475Y-140658368D01*
X200336632Y-140451525D01*
X200093411Y-140289010D01*
X199823158Y-140177068D01*
X199536260Y-140120000D01*
X199243740Y-140120000D01*
X198956842Y-140177068D01*
X198686589Y-140289010D01*
X198443368Y-140451525D01*
X198236525Y-140658368D01*
X198120000Y-140832760D01*
X198003475Y-140658368D01*
X197796632Y-140451525D01*
X197553411Y-140289010D01*
X197283158Y-140177068D01*
X196996260Y-140120000D01*
X196703740Y-140120000D01*
X196416842Y-140177068D01*
X196146589Y-140289010D01*
X195903368Y-140451525D01*
X195696525Y-140658368D01*
X195674849Y-140690808D01*
X195471714Y-140443286D01*
X195222752Y-140238969D01*
X194938715Y-140087148D01*
X194630516Y-139993657D01*
X194310000Y-139962089D01*
X193989485Y-139993657D01*
X193681286Y-140087148D01*
X193397249Y-140238969D01*
X193148287Y-140443286D01*
X192943970Y-140692248D01*
X192792149Y-140976285D01*
X192698658Y-141284484D01*
X192675001Y-141524678D01*
X192675000Y-154859681D01*
X192667089Y-154940000D01*
X186180000Y-154940000D01*
X186180000Y-145423178D01*
X186366632Y-145298475D01*
X186573475Y-145091632D01*
X186695195Y-144909466D01*
X186764822Y-145026355D01*
X186959731Y-145242588D01*
X187193080Y-145416641D01*
X187455901Y-145541825D01*
X187603110Y-145586476D01*
X187833000Y-145465155D01*
X187833000Y-144272000D01*
X188087000Y-144272000D01*
X188087000Y-145465155D01*
X188316890Y-145586476D01*
X188464099Y-145541825D01*
X188726920Y-145416641D01*
X188960269Y-145242588D01*
X189155178Y-145026355D01*
X189304157Y-144776252D01*
X189401481Y-144501891D01*
X189280814Y-144272000D01*
X188087000Y-144272000D01*
X187833000Y-144272000D01*
X187813000Y-144272000D01*
X187813000Y-144018000D01*
X187833000Y-144018000D01*
X187833000Y-143998000D01*
X188087000Y-143998000D01*
X188087000Y-144018000D01*
X189280814Y-144018000D01*
X189401481Y-143788109D01*
X189304157Y-143513748D01*
X189155178Y-143263645D01*
X188960269Y-143047412D01*
X188730594Y-142876100D01*
X188906632Y-142758475D01*
X189113475Y-142551632D01*
X189275990Y-142308411D01*
X189387932Y-142038158D01*
X189445000Y-141751260D01*
X189445000Y-141458740D01*
X189387932Y-141171842D01*
X189275990Y-140901589D01*
X189113475Y-140658368D01*
X188906632Y-140451525D01*
X188663411Y-140289010D01*
X188393158Y-140177068D01*
X188106260Y-140120000D01*
X187813740Y-140120000D01*
X187526842Y-140177068D01*
X187256589Y-140289010D01*
X187013368Y-140451525D01*
X186806525Y-140658368D01*
X186684805Y-140840534D01*
X186615178Y-140723645D01*
X186420269Y-140507412D01*
X186186920Y-140333359D01*
X185924099Y-140208175D01*
X185776890Y-140163524D01*
X185547000Y-140284845D01*
X185547000Y-141478000D01*
X185567000Y-141478000D01*
X185567000Y-141732000D01*
X185547000Y-141732000D01*
X185547000Y-141752000D01*
X185293000Y-141752000D01*
X185293000Y-141732000D01*
X185273000Y-141732000D01*
X185273000Y-141478000D01*
X185293000Y-141478000D01*
X185293000Y-140284845D01*
X185063110Y-140163524D01*
X184915901Y-140208175D01*
X184653080Y-140333359D01*
X184419731Y-140507412D01*
X184224822Y-140723645D01*
X184155195Y-140840534D01*
X184033475Y-140658368D01*
X183826632Y-140451525D01*
X183583411Y-140289010D01*
X183313158Y-140177068D01*
X183026260Y-140120000D01*
X182733740Y-140120000D01*
X182446842Y-140177068D01*
X182176589Y-140289010D01*
X181933368Y-140451525D01*
X181726525Y-140658368D01*
X181604805Y-140840534D01*
X181535178Y-140723645D01*
X181340269Y-140507412D01*
X181106920Y-140333359D01*
X180844099Y-140208175D01*
X180696890Y-140163524D01*
X180467000Y-140284845D01*
X180467000Y-141478000D01*
X180487000Y-141478000D01*
X180487000Y-141732000D01*
X180467000Y-141732000D01*
X180467000Y-141752000D01*
X180213000Y-141752000D01*
X180213000Y-141732000D01*
X180193000Y-141732000D01*
X180193000Y-141478000D01*
X180213000Y-141478000D01*
X180213000Y-140284845D01*
X179983110Y-140163524D01*
X179835901Y-140208175D01*
X179573080Y-140333359D01*
X179339731Y-140507412D01*
X179144822Y-140723645D01*
X179075195Y-140840534D01*
X178953475Y-140658368D01*
X178746632Y-140451525D01*
X178503411Y-140289010D01*
X178233158Y-140177068D01*
X177946260Y-140120000D01*
X177653740Y-140120000D01*
X177366842Y-140177068D01*
X177096589Y-140289010D01*
X176853368Y-140451525D01*
X176646525Y-140658368D01*
X176530000Y-140832760D01*
X176413475Y-140658368D01*
X176206632Y-140451525D01*
X175963411Y-140289010D01*
X175693158Y-140177068D01*
X175406260Y-140120000D01*
X175113740Y-140120000D01*
X174826842Y-140177068D01*
X174556589Y-140289010D01*
X174313368Y-140451525D01*
X174106525Y-140658368D01*
X174084849Y-140690808D01*
X173881714Y-140443286D01*
X173632752Y-140238969D01*
X173348715Y-140087148D01*
X173040516Y-139993657D01*
X172720000Y-139962089D01*
X172399485Y-139993657D01*
X172091286Y-140087148D01*
X171807249Y-140238969D01*
X171558287Y-140443286D01*
X171353970Y-140692248D01*
X171202149Y-140976285D01*
X171108658Y-141284484D01*
X171085001Y-141524678D01*
X171085000Y-143594761D01*
X170350682Y-144329080D01*
X170288287Y-144380286D01*
X170114116Y-144592515D01*
X170083970Y-144629248D01*
X169932148Y-144913286D01*
X169838658Y-145221484D01*
X169807089Y-145542000D01*
X166873522Y-145542000D01*
X166874099Y-145541825D01*
X167136920Y-145416641D01*
X167370269Y-145242588D01*
X167565178Y-145026355D01*
X167714157Y-144776252D01*
X167811481Y-144501891D01*
X167690814Y-144272000D01*
X166497000Y-144272000D01*
X166243000Y-144272000D01*
X166223000Y-144272000D01*
X166223000Y-144018000D01*
X166243000Y-144018000D01*
X166243000Y-143998000D01*
X166497000Y-143998000D01*
X166497000Y-144018000D01*
X167690814Y-144018000D01*
X167811481Y-143788109D01*
X167714157Y-143513748D01*
X167565178Y-143263645D01*
X167370269Y-143047412D01*
X167140594Y-142876100D01*
X167316632Y-142758475D01*
X167523475Y-142551632D01*
X167685990Y-142308411D01*
X167797932Y-142038158D01*
X167855000Y-141751260D01*
X167855000Y-141458740D01*
X167797932Y-141171842D01*
X167685990Y-140901589D01*
X167523475Y-140658368D01*
X167316632Y-140451525D01*
X167073411Y-140289010D01*
X166803158Y-140177068D01*
X166516260Y-140120000D01*
X166223740Y-140120000D01*
X165936842Y-140177068D01*
X165666589Y-140289010D01*
X165423368Y-140451525D01*
X165216525Y-140658368D01*
X165094805Y-140840534D01*
X165025178Y-140723645D01*
X164830269Y-140507412D01*
X164596920Y-140333359D01*
X164334099Y-140208175D01*
X164186890Y-140163524D01*
X163957000Y-140284845D01*
X163957000Y-141478000D01*
X163977000Y-141478000D01*
X163977000Y-141732000D01*
X163957000Y-141732000D01*
X163957000Y-141752000D01*
X163703000Y-141752000D01*
X163703000Y-141732000D01*
X163683000Y-141732000D01*
X163683000Y-141478000D01*
X163703000Y-141478000D01*
X163703000Y-140284845D01*
X163473110Y-140163524D01*
X163325901Y-140208175D01*
X163063080Y-140333359D01*
X162829731Y-140507412D01*
X162634822Y-140723645D01*
X162565195Y-140840534D01*
X162443475Y-140658368D01*
X162236632Y-140451525D01*
X161993411Y-140289010D01*
X161723158Y-140177068D01*
X161436260Y-140120000D01*
X161143740Y-140120000D01*
X160856842Y-140177068D01*
X160586589Y-140289010D01*
X160343368Y-140451525D01*
X160136525Y-140658368D01*
X160014805Y-140840534D01*
X159945178Y-140723645D01*
X159750269Y-140507412D01*
X159516920Y-140333359D01*
X159254099Y-140208175D01*
X159106890Y-140163524D01*
X158877000Y-140284845D01*
X158877000Y-141478000D01*
X158897000Y-141478000D01*
X158897000Y-141732000D01*
X158877000Y-141732000D01*
X158877000Y-141752000D01*
X158623000Y-141752000D01*
X158623000Y-141732000D01*
X158603000Y-141732000D01*
X158603000Y-141478000D01*
X158623000Y-141478000D01*
X158623000Y-140284845D01*
X158393110Y-140163524D01*
X158245901Y-140208175D01*
X157983080Y-140333359D01*
X157749731Y-140507412D01*
X157554822Y-140723645D01*
X157485195Y-140840534D01*
X157363475Y-140658368D01*
X157156632Y-140451525D01*
X156913411Y-140289010D01*
X156643158Y-140177068D01*
X156356260Y-140120000D01*
X156063740Y-140120000D01*
X155776842Y-140177068D01*
X155506589Y-140289010D01*
X155263368Y-140451525D01*
X155056525Y-140658368D01*
X154940000Y-140832760D01*
X154823475Y-140658368D01*
X154616632Y-140451525D01*
X154373411Y-140289010D01*
X154103158Y-140177068D01*
X153816260Y-140120000D01*
X153523740Y-140120000D01*
X153494791Y-140125758D01*
X153512030Y-140104753D01*
X153663852Y-139820715D01*
X153757342Y-139512517D01*
X153788911Y-139192000D01*
X153757342Y-138871484D01*
X153663852Y-138563286D01*
X153538089Y-138328000D01*
X241910001Y-138328000D01*
X241910000Y-165132418D01*
X241910001Y-165132428D01*
X241910001Y-165710000D01*
X142900000Y-165710000D01*
X142900000Y-138328000D01*
X150697762Y-138328000D01*
X150030682Y-138995080D01*
G37*
X150030682Y-138995080D02*
X149968287Y-139046286D01*
X149763970Y-139295248D01*
X149612148Y-139579286D01*
X149573761Y-139705833D01*
X149518657Y-139887484D01*
X149498992Y-140087148D01*
X149487089Y-140208000D01*
X149495000Y-140288319D01*
X149495000Y-141685321D01*
X149495001Y-141685331D01*
X149495000Y-144102761D01*
X144950682Y-148647080D01*
X144888287Y-148698286D01*
X144804219Y-148800724D01*
X144683970Y-148947248D01*
X144532148Y-149231286D01*
X144438658Y-149539484D01*
X144407089Y-149860000D01*
X144415001Y-149940329D01*
X144415000Y-160735321D01*
X144438657Y-160975515D01*
X144532148Y-161283714D01*
X144561928Y-161339428D01*
X144561928Y-161505000D01*
X144574188Y-161629482D01*
X144610498Y-161749180D01*
X144669463Y-161859494D01*
X144748815Y-161956185D01*
X144845506Y-162035537D01*
X144955820Y-162094502D01*
X145075518Y-162130812D01*
X145200000Y-162143072D01*
X145365571Y-162143072D01*
X145421285Y-162172852D01*
X145729484Y-162266343D01*
X146050000Y-162297911D01*
X146370515Y-162266343D01*
X146678714Y-162172852D01*
X146734428Y-162143072D01*
X146900000Y-162143072D01*
X147024482Y-162130812D01*
X147144180Y-162094502D01*
X147254494Y-162035537D01*
X147351185Y-161956185D01*
X147430537Y-161859494D01*
X147489502Y-161749180D01*
X147511513Y-161676620D01*
X147643368Y-161808475D01*
X147886589Y-161970990D01*
X148156842Y-162082932D01*
X148443740Y-162140000D01*
X148736260Y-162140000D01*
X149023158Y-162082932D01*
X149293411Y-161970990D01*
X149536632Y-161808475D01*
X149743475Y-161601632D01*
X149860000Y-161427240D01*
X149976525Y-161601632D01*
X150183368Y-161808475D01*
X150426589Y-161970990D01*
X150696842Y-162082932D01*
X150983740Y-162140000D01*
X151276260Y-162140000D01*
X151563158Y-162082932D01*
X151833411Y-161970990D01*
X152076632Y-161808475D01*
X152283475Y-161601632D01*
X152400000Y-161427240D01*
X152516525Y-161601632D01*
X152723368Y-161808475D01*
X152966589Y-161970990D01*
X153236842Y-162082932D01*
X153523740Y-162140000D01*
X153816260Y-162140000D01*
X154103158Y-162082932D01*
X154373411Y-161970990D01*
X154616632Y-161808475D01*
X154823475Y-161601632D01*
X154945195Y-161419466D01*
X155014822Y-161536355D01*
X155209731Y-161752588D01*
X155443080Y-161926641D01*
X155705901Y-162051825D01*
X155853110Y-162096476D01*
X156083000Y-161975155D01*
X156083000Y-160782000D01*
X156063000Y-160782000D01*
X156063000Y-160528000D01*
X156083000Y-160528000D01*
X156083000Y-160508000D01*
X156337000Y-160508000D01*
X156337000Y-160528000D01*
X156357000Y-160528000D01*
X156357000Y-160782000D01*
X156337000Y-160782000D01*
X156337000Y-161975155D01*
X156566890Y-162096476D01*
X156714099Y-162051825D01*
X156976920Y-161926641D01*
X157210269Y-161752588D01*
X157405178Y-161536355D01*
X157474805Y-161419466D01*
X157596525Y-161601632D01*
X157803368Y-161808475D01*
X158046589Y-161970990D01*
X158316842Y-162082932D01*
X158603740Y-162140000D01*
X158896260Y-162140000D01*
X159183158Y-162082932D01*
X159453411Y-161970990D01*
X159696632Y-161808475D01*
X159903475Y-161601632D01*
X160025195Y-161419466D01*
X160094822Y-161536355D01*
X160289731Y-161752588D01*
X160523080Y-161926641D01*
X160785901Y-162051825D01*
X160933110Y-162096476D01*
X161163000Y-161975155D01*
X161163000Y-160782000D01*
X161417000Y-160782000D01*
X161417000Y-161975155D01*
X161646890Y-162096476D01*
X161794099Y-162051825D01*
X162056920Y-161926641D01*
X162290269Y-161752588D01*
X162485178Y-161536355D01*
X162634157Y-161286252D01*
X162731481Y-161011891D01*
X162610814Y-160782000D01*
X161417000Y-160782000D01*
X161163000Y-160782000D01*
X161143000Y-160782000D01*
X161143000Y-160528000D01*
X161163000Y-160528000D01*
X161163000Y-160508000D01*
X161417000Y-160508000D01*
X161417000Y-160528000D01*
X162610814Y-160528000D01*
X162731481Y-160298109D01*
X162634157Y-160023748D01*
X162485178Y-159773645D01*
X162290269Y-159557412D01*
X162060594Y-159386100D01*
X162236632Y-159268475D01*
X162443475Y-159061632D01*
X162605990Y-158818411D01*
X162717932Y-158548158D01*
X162775000Y-158261260D01*
X162775000Y-157968740D01*
X162717932Y-157681842D01*
X162605990Y-157411589D01*
X162443475Y-157168368D01*
X162236632Y-156961525D01*
X161993411Y-156799010D01*
X161723158Y-156687068D01*
X161436260Y-156630000D01*
X161143740Y-156630000D01*
X160856842Y-156687068D01*
X160780000Y-156718897D01*
X160780000Y-153222801D01*
X164341004Y-149661798D01*
X164370001Y-149638001D01*
X164464974Y-149522276D01*
X164535546Y-149390247D01*
X164579003Y-149246986D01*
X164590000Y-149135333D01*
X164590000Y-149135325D01*
X164593676Y-149098000D01*
X164590000Y-149060675D01*
X164590000Y-145423178D01*
X164776632Y-145298475D01*
X164983475Y-145091632D01*
X165105195Y-144909466D01*
X165174822Y-145026355D01*
X165369731Y-145242588D01*
X165603080Y-145416641D01*
X165865901Y-145541825D01*
X166013110Y-145586476D01*
X166243000Y-145465155D01*
X166243000Y-144272000D01*
X166497000Y-144272000D01*
X166497000Y-145465155D01*
X166726890Y-145586476D01*
X166873522Y-145542000D01*
X169807089Y-145542000D01*
X169815001Y-145622329D01*
X169815000Y-160735321D01*
X169838657Y-160975515D01*
X169932148Y-161283714D01*
X169961928Y-161339428D01*
X169961928Y-161505000D01*
X169974188Y-161629482D01*
X170010498Y-161749180D01*
X170069463Y-161859494D01*
X170148815Y-161956185D01*
X170245506Y-162035537D01*
X170355820Y-162094502D01*
X170475518Y-162130812D01*
X170600000Y-162143072D01*
X170765571Y-162143072D01*
X170821285Y-162172852D01*
X171129484Y-162266343D01*
X171450000Y-162297911D01*
X171770515Y-162266343D01*
X172078714Y-162172852D01*
X172134428Y-162143072D01*
X172300000Y-162143072D01*
X172424482Y-162130812D01*
X172544180Y-162094502D01*
X172654494Y-162035537D01*
X172751185Y-161956185D01*
X172830537Y-161859494D01*
X172889502Y-161749180D01*
X172911513Y-161676620D01*
X173043368Y-161808475D01*
X173286589Y-161970990D01*
X173556842Y-162082932D01*
X173843740Y-162140000D01*
X174136260Y-162140000D01*
X174423158Y-162082932D01*
X174693411Y-161970990D01*
X174936632Y-161808475D01*
X175143475Y-161601632D01*
X175260000Y-161427240D01*
X175376525Y-161601632D01*
X175583368Y-161808475D01*
X175826589Y-161970990D01*
X176096842Y-162082932D01*
X176383740Y-162140000D01*
X176676260Y-162140000D01*
X176963158Y-162082932D01*
X177233411Y-161970990D01*
X177476632Y-161808475D01*
X177683475Y-161601632D01*
X177800000Y-161427240D01*
X177916525Y-161601632D01*
X178123368Y-161808475D01*
X178366589Y-161970990D01*
X178636842Y-162082932D01*
X178923740Y-162140000D01*
X179216260Y-162140000D01*
X179503158Y-162082932D01*
X179773411Y-161970990D01*
X180016632Y-161808475D01*
X180223475Y-161601632D01*
X180345195Y-161419466D01*
X180414822Y-161536355D01*
X180609731Y-161752588D01*
X180843080Y-161926641D01*
X181105901Y-162051825D01*
X181253110Y-162096476D01*
X181483000Y-161975155D01*
X181483000Y-160782000D01*
X181463000Y-160782000D01*
X181463000Y-160528000D01*
X181483000Y-160528000D01*
X181483000Y-160508000D01*
X181737000Y-160508000D01*
X181737000Y-160528000D01*
X181757000Y-160528000D01*
X181757000Y-160782000D01*
X181737000Y-160782000D01*
X181737000Y-161975155D01*
X181966890Y-162096476D01*
X182114099Y-162051825D01*
X182376920Y-161926641D01*
X182610269Y-161752588D01*
X182805178Y-161536355D01*
X182874805Y-161419466D01*
X182996525Y-161601632D01*
X183203368Y-161808475D01*
X183446589Y-161970990D01*
X183716842Y-162082932D01*
X184003740Y-162140000D01*
X184296260Y-162140000D01*
X184583158Y-162082932D01*
X184853411Y-161970990D01*
X185096632Y-161808475D01*
X185303475Y-161601632D01*
X185425195Y-161419466D01*
X185494822Y-161536355D01*
X185689731Y-161752588D01*
X185923080Y-161926641D01*
X186185901Y-162051825D01*
X186333110Y-162096476D01*
X186563000Y-161975155D01*
X186563000Y-160782000D01*
X186817000Y-160782000D01*
X186817000Y-161975155D01*
X187046890Y-162096476D01*
X187194099Y-162051825D01*
X187456920Y-161926641D01*
X187690269Y-161752588D01*
X187885178Y-161536355D01*
X188034157Y-161286252D01*
X188131481Y-161011891D01*
X188010814Y-160782000D01*
X186817000Y-160782000D01*
X186563000Y-160782000D01*
X186543000Y-160782000D01*
X186543000Y-160528000D01*
X186563000Y-160528000D01*
X186563000Y-160508000D01*
X186817000Y-160508000D01*
X186817000Y-160528000D01*
X188010814Y-160528000D01*
X188131481Y-160298109D01*
X188034157Y-160023748D01*
X187885178Y-159773645D01*
X187690269Y-159557412D01*
X187460594Y-159386100D01*
X187636632Y-159268475D01*
X187843475Y-159061632D01*
X188005990Y-158818411D01*
X188117932Y-158548158D01*
X188175000Y-158261260D01*
X188175000Y-157968740D01*
X188117932Y-157681842D01*
X188005990Y-157411589D01*
X187843475Y-157168368D01*
X187636632Y-156961525D01*
X187393411Y-156799010D01*
X187123158Y-156687068D01*
X186836260Y-156630000D01*
X186543740Y-156630000D01*
X186256842Y-156687068D01*
X186180000Y-156718897D01*
X186180000Y-154940000D01*
X192667089Y-154940000D01*
X192675000Y-155020319D01*
X192675000Y-155020321D01*
X192698657Y-155260515D01*
X192792148Y-155568714D01*
X192943969Y-155852751D01*
X193148286Y-156101714D01*
X193210687Y-156152925D01*
X194961001Y-157903240D01*
X194961000Y-160320680D01*
X194953089Y-160401000D01*
X194961000Y-160481319D01*
X194961000Y-160481321D01*
X194984657Y-160721515D01*
X195078148Y-161029714D01*
X195229969Y-161313751D01*
X195361928Y-161474545D01*
X195361928Y-161505000D01*
X195374188Y-161629482D01*
X195410498Y-161749180D01*
X195469463Y-161859494D01*
X195548815Y-161956185D01*
X195645506Y-162035537D01*
X195755820Y-162094502D01*
X195875518Y-162130812D01*
X196000000Y-162143072D01*
X196165573Y-162143072D01*
X196221286Y-162172851D01*
X196529484Y-162266342D01*
X196849999Y-162297911D01*
X197170516Y-162266342D01*
X197478714Y-162172851D01*
X197534427Y-162143072D01*
X197700000Y-162143072D01*
X197824482Y-162130812D01*
X197944180Y-162094502D01*
X198054494Y-162035537D01*
X198151185Y-161956185D01*
X198230537Y-161859494D01*
X198289502Y-161749180D01*
X198311513Y-161676620D01*
X198443368Y-161808475D01*
X198686589Y-161970990D01*
X198956842Y-162082932D01*
X199243740Y-162140000D01*
X199536260Y-162140000D01*
X199823158Y-162082932D01*
X200093411Y-161970990D01*
X200336632Y-161808475D01*
X200543475Y-161601632D01*
X200660000Y-161427240D01*
X200776525Y-161601632D01*
X200983368Y-161808475D01*
X201226589Y-161970990D01*
X201496842Y-162082932D01*
X201783740Y-162140000D01*
X202076260Y-162140000D01*
X202363158Y-162082932D01*
X202633411Y-161970990D01*
X202876632Y-161808475D01*
X203083475Y-161601632D01*
X203200000Y-161427240D01*
X203316525Y-161601632D01*
X203523368Y-161808475D01*
X203766589Y-161970990D01*
X204036842Y-162082932D01*
X204323740Y-162140000D01*
X204616260Y-162140000D01*
X204903158Y-162082932D01*
X205173411Y-161970990D01*
X205416632Y-161808475D01*
X205623475Y-161601632D01*
X205745195Y-161419466D01*
X205814822Y-161536355D01*
X206009731Y-161752588D01*
X206243080Y-161926641D01*
X206505901Y-162051825D01*
X206653110Y-162096476D01*
X206883000Y-161975155D01*
X206883000Y-160782000D01*
X206863000Y-160782000D01*
X206863000Y-160528000D01*
X206883000Y-160528000D01*
X206883000Y-160508000D01*
X207137000Y-160508000D01*
X207137000Y-160528000D01*
X207157000Y-160528000D01*
X207157000Y-160782000D01*
X207137000Y-160782000D01*
X207137000Y-161975155D01*
X207366890Y-162096476D01*
X207514099Y-162051825D01*
X207776920Y-161926641D01*
X208010269Y-161752588D01*
X208205178Y-161536355D01*
X208274805Y-161419466D01*
X208396525Y-161601632D01*
X208603368Y-161808475D01*
X208846589Y-161970990D01*
X209116842Y-162082932D01*
X209403740Y-162140000D01*
X209696260Y-162140000D01*
X209983158Y-162082932D01*
X210253411Y-161970990D01*
X210496632Y-161808475D01*
X210703475Y-161601632D01*
X210825195Y-161419466D01*
X210894822Y-161536355D01*
X211089731Y-161752588D01*
X211323080Y-161926641D01*
X211585901Y-162051825D01*
X211733110Y-162096476D01*
X211963000Y-161975155D01*
X211963000Y-160782000D01*
X212217000Y-160782000D01*
X212217000Y-161975155D01*
X212446890Y-162096476D01*
X212594099Y-162051825D01*
X212856920Y-161926641D01*
X213090269Y-161752588D01*
X213285178Y-161536355D01*
X213434157Y-161286252D01*
X213531481Y-161011891D01*
X213410814Y-160782000D01*
X212217000Y-160782000D01*
X211963000Y-160782000D01*
X211943000Y-160782000D01*
X211943000Y-160528000D01*
X211963000Y-160528000D01*
X211963000Y-160508000D01*
X212217000Y-160508000D01*
X212217000Y-160528000D01*
X213410814Y-160528000D01*
X213531481Y-160298109D01*
X213434157Y-160023748D01*
X213285178Y-159773645D01*
X213090269Y-159557412D01*
X212860594Y-159386100D01*
X213036632Y-159268475D01*
X213243475Y-159061632D01*
X213405990Y-158818411D01*
X213517932Y-158548158D01*
X213575000Y-158261260D01*
X213575000Y-157968740D01*
X213517932Y-157681842D01*
X213405990Y-157411589D01*
X213243475Y-157168368D01*
X213036632Y-156961525D01*
X212793411Y-156799010D01*
X212523158Y-156687068D01*
X212236260Y-156630000D01*
X211943740Y-156630000D01*
X211656842Y-156687068D01*
X211386589Y-156799010D01*
X211143368Y-156961525D01*
X210936525Y-157168368D01*
X210814805Y-157350534D01*
X210745178Y-157233645D01*
X210550269Y-157017412D01*
X210316920Y-156843359D01*
X210054099Y-156718175D01*
X209906890Y-156673524D01*
X209677000Y-156794845D01*
X209677000Y-157988000D01*
X209697000Y-157988000D01*
X209697000Y-158242000D01*
X209677000Y-158242000D01*
X209677000Y-158262000D01*
X209423000Y-158262000D01*
X209423000Y-158242000D01*
X209403000Y-158242000D01*
X209403000Y-157988000D01*
X209423000Y-157988000D01*
X209423000Y-156794845D01*
X209193110Y-156673524D01*
X209045901Y-156718175D01*
X209040000Y-156720986D01*
X209040000Y-153670000D01*
X214257089Y-153670000D01*
X214288658Y-153990516D01*
X214382148Y-154298714D01*
X214382149Y-154298715D01*
X214533970Y-154582752D01*
X214738287Y-154831714D01*
X214800682Y-154882920D01*
X219132080Y-159214319D01*
X219183286Y-159276714D01*
X219432248Y-159481031D01*
X219716285Y-159632852D01*
X220024484Y-159726343D01*
X220264678Y-159750000D01*
X220264680Y-159750000D01*
X220344999Y-159757911D01*
X220361000Y-159756335D01*
X220361000Y-160735321D01*
X220384657Y-160975515D01*
X220478148Y-161283714D01*
X220629969Y-161567751D01*
X220834286Y-161816714D01*
X220856216Y-161834712D01*
X220869463Y-161859494D01*
X220948815Y-161956185D01*
X221045506Y-162035537D01*
X221155820Y-162094502D01*
X221275518Y-162130812D01*
X221291596Y-162132396D01*
X221367285Y-162172852D01*
X221675484Y-162266343D01*
X221996000Y-162297911D01*
X222316515Y-162266343D01*
X222624714Y-162172852D01*
X222680428Y-162143072D01*
X223100000Y-162143072D01*
X223224482Y-162130812D01*
X223344180Y-162094502D01*
X223454494Y-162035537D01*
X223551185Y-161956185D01*
X223630537Y-161859494D01*
X223689502Y-161749180D01*
X223711513Y-161676620D01*
X223843368Y-161808475D01*
X224086589Y-161970990D01*
X224356842Y-162082932D01*
X224643740Y-162140000D01*
X224936260Y-162140000D01*
X225223158Y-162082932D01*
X225493411Y-161970990D01*
X225736632Y-161808475D01*
X225943475Y-161601632D01*
X226060000Y-161427240D01*
X226176525Y-161601632D01*
X226383368Y-161808475D01*
X226626589Y-161970990D01*
X226896842Y-162082932D01*
X227183740Y-162140000D01*
X227476260Y-162140000D01*
X227763158Y-162082932D01*
X228033411Y-161970990D01*
X228276632Y-161808475D01*
X228483475Y-161601632D01*
X228600000Y-161427240D01*
X228716525Y-161601632D01*
X228923368Y-161808475D01*
X229166589Y-161970990D01*
X229436842Y-162082932D01*
X229723740Y-162140000D01*
X230016260Y-162140000D01*
X230303158Y-162082932D01*
X230573411Y-161970990D01*
X230816632Y-161808475D01*
X231023475Y-161601632D01*
X231145195Y-161419466D01*
X231214822Y-161536355D01*
X231409731Y-161752588D01*
X231643080Y-161926641D01*
X231905901Y-162051825D01*
X232053110Y-162096476D01*
X232283000Y-161975155D01*
X232283000Y-160782000D01*
X232263000Y-160782000D01*
X232263000Y-160528000D01*
X232283000Y-160528000D01*
X232283000Y-160508000D01*
X232537000Y-160508000D01*
X232537000Y-160528000D01*
X232557000Y-160528000D01*
X232557000Y-160782000D01*
X232537000Y-160782000D01*
X232537000Y-161975155D01*
X232766890Y-162096476D01*
X232914099Y-162051825D01*
X233176920Y-161926641D01*
X233410269Y-161752588D01*
X233605178Y-161536355D01*
X233674805Y-161419466D01*
X233796525Y-161601632D01*
X234003368Y-161808475D01*
X234246589Y-161970990D01*
X234516842Y-162082932D01*
X234803740Y-162140000D01*
X235096260Y-162140000D01*
X235383158Y-162082932D01*
X235653411Y-161970990D01*
X235896632Y-161808475D01*
X236103475Y-161601632D01*
X236225195Y-161419466D01*
X236294822Y-161536355D01*
X236489731Y-161752588D01*
X236723080Y-161926641D01*
X236985901Y-162051825D01*
X237133110Y-162096476D01*
X237363000Y-161975155D01*
X237363000Y-160782000D01*
X237617000Y-160782000D01*
X237617000Y-161975155D01*
X237846890Y-162096476D01*
X237994099Y-162051825D01*
X238256920Y-161926641D01*
X238490269Y-161752588D01*
X238685178Y-161536355D01*
X238834157Y-161286252D01*
X238931481Y-161011891D01*
X238810814Y-160782000D01*
X237617000Y-160782000D01*
X237363000Y-160782000D01*
X237343000Y-160782000D01*
X237343000Y-160528000D01*
X237363000Y-160528000D01*
X237363000Y-160508000D01*
X237617000Y-160508000D01*
X237617000Y-160528000D01*
X238810814Y-160528000D01*
X238931481Y-160298109D01*
X238834157Y-160023748D01*
X238685178Y-159773645D01*
X238490269Y-159557412D01*
X238260594Y-159386100D01*
X238436632Y-159268475D01*
X238643475Y-159061632D01*
X238805990Y-158818411D01*
X238917932Y-158548158D01*
X238975000Y-158261260D01*
X238975000Y-157968740D01*
X238917932Y-157681842D01*
X238805990Y-157411589D01*
X238643475Y-157168368D01*
X238436632Y-156961525D01*
X238193411Y-156799010D01*
X237923158Y-156687068D01*
X237636260Y-156630000D01*
X237343740Y-156630000D01*
X237056842Y-156687068D01*
X236786589Y-156799010D01*
X236543368Y-156961525D01*
X236336525Y-157168368D01*
X236214805Y-157350534D01*
X236145178Y-157233645D01*
X235950269Y-157017412D01*
X235716920Y-156843359D01*
X235454099Y-156718175D01*
X235306890Y-156673524D01*
X235077000Y-156794845D01*
X235077000Y-157988000D01*
X235097000Y-157988000D01*
X235097000Y-158242000D01*
X235077000Y-158242000D01*
X235077000Y-158262000D01*
X234823000Y-158262000D01*
X234823000Y-158242000D01*
X234803000Y-158242000D01*
X234803000Y-157988000D01*
X234823000Y-157988000D01*
X234823000Y-156794845D01*
X234593110Y-156673524D01*
X234445901Y-156718175D01*
X234440000Y-156720986D01*
X234440000Y-149262323D01*
X234443676Y-149225000D01*
X234440000Y-149187677D01*
X234440000Y-149187667D01*
X234429003Y-149076014D01*
X234385546Y-148932753D01*
X234317663Y-148805754D01*
X234314974Y-148800723D01*
X234243799Y-148713997D01*
X234220001Y-148684999D01*
X234191003Y-148661201D01*
X231159801Y-145630000D01*
X231267002Y-145630000D01*
X231267002Y-145465156D01*
X231496890Y-145586476D01*
X231644099Y-145541825D01*
X231906920Y-145416641D01*
X232140269Y-145242588D01*
X232335178Y-145026355D01*
X232484157Y-144776252D01*
X232581481Y-144501891D01*
X232460814Y-144272000D01*
X231267000Y-144272000D01*
X231267000Y-144292000D01*
X231013000Y-144292000D01*
X231013000Y-144272000D01*
X230993000Y-144272000D01*
X230993000Y-144018000D01*
X231013000Y-144018000D01*
X231013000Y-143998000D01*
X231267000Y-143998000D01*
X231267000Y-144018000D01*
X232460814Y-144018000D01*
X232581481Y-143788109D01*
X232484157Y-143513748D01*
X232335178Y-143263645D01*
X232140269Y-143047412D01*
X231910594Y-142876100D01*
X232086632Y-142758475D01*
X232293475Y-142551632D01*
X232455990Y-142308411D01*
X232567932Y-142038158D01*
X232625000Y-141751260D01*
X232625000Y-141458740D01*
X232567932Y-141171842D01*
X232455990Y-140901589D01*
X232293475Y-140658368D01*
X232086632Y-140451525D01*
X231843411Y-140289010D01*
X231573158Y-140177068D01*
X231286260Y-140120000D01*
X230993740Y-140120000D01*
X230706842Y-140177068D01*
X230436589Y-140289010D01*
X230193368Y-140451525D01*
X229986525Y-140658368D01*
X229864805Y-140840534D01*
X229795178Y-140723645D01*
X229600269Y-140507412D01*
X229366920Y-140333359D01*
X229104099Y-140208175D01*
X228956890Y-140163524D01*
X228727000Y-140284845D01*
X228727000Y-141478000D01*
X228747000Y-141478000D01*
X228747000Y-141732000D01*
X228727000Y-141732000D01*
X228727000Y-141752000D01*
X228473000Y-141752000D01*
X228473000Y-141732000D01*
X228453000Y-141732000D01*
X228453000Y-141478000D01*
X228473000Y-141478000D01*
X228473000Y-140284845D01*
X228243110Y-140163524D01*
X228095901Y-140208175D01*
X227833080Y-140333359D01*
X227599731Y-140507412D01*
X227404822Y-140723645D01*
X227335195Y-140840534D01*
X227213475Y-140658368D01*
X227006632Y-140451525D01*
X226763411Y-140289010D01*
X226493158Y-140177068D01*
X226206260Y-140120000D01*
X225913740Y-140120000D01*
X225626842Y-140177068D01*
X225356589Y-140289010D01*
X225113368Y-140451525D01*
X224906525Y-140658368D01*
X224784805Y-140840534D01*
X224715178Y-140723645D01*
X224520269Y-140507412D01*
X224286920Y-140333359D01*
X224024099Y-140208175D01*
X223876890Y-140163524D01*
X223647000Y-140284845D01*
X223647000Y-141478000D01*
X223667000Y-141478000D01*
X223667000Y-141732000D01*
X223647000Y-141732000D01*
X223647000Y-141752000D01*
X223393000Y-141752000D01*
X223393000Y-141732000D01*
X223373000Y-141732000D01*
X223373000Y-141478000D01*
X223393000Y-141478000D01*
X223393000Y-140284845D01*
X223163110Y-140163524D01*
X223015901Y-140208175D01*
X222753080Y-140333359D01*
X222519731Y-140507412D01*
X222324822Y-140723645D01*
X222255195Y-140840534D01*
X222133475Y-140658368D01*
X221926632Y-140451525D01*
X221683411Y-140289010D01*
X221413158Y-140177068D01*
X221126260Y-140120000D01*
X220833740Y-140120000D01*
X220546842Y-140177068D01*
X220276589Y-140289010D01*
X220033368Y-140451525D01*
X219826525Y-140658368D01*
X219710000Y-140832760D01*
X219593475Y-140658368D01*
X219386632Y-140451525D01*
X219143411Y-140289010D01*
X218873158Y-140177068D01*
X218586260Y-140120000D01*
X218293740Y-140120000D01*
X218006842Y-140177068D01*
X217736589Y-140289010D01*
X217493368Y-140451525D01*
X217286525Y-140658368D01*
X217264849Y-140690808D01*
X217061714Y-140443286D01*
X216812751Y-140238969D01*
X216528714Y-140087148D01*
X216220515Y-139993657D01*
X215900000Y-139962089D01*
X215579484Y-139993657D01*
X215271285Y-140087148D01*
X214987248Y-140238969D01*
X214738286Y-140443286D01*
X214533969Y-140692249D01*
X214382148Y-140976286D01*
X214288657Y-141284485D01*
X214265000Y-141524679D01*
X214265001Y-153589671D01*
X214257089Y-153670000D01*
X209040000Y-153670000D01*
X209040000Y-145539014D01*
X209045901Y-145541825D01*
X209193110Y-145586476D01*
X209423000Y-145465155D01*
X209423000Y-144272000D01*
X209677000Y-144272000D01*
X209677000Y-145465155D01*
X209906890Y-145586476D01*
X210054099Y-145541825D01*
X210316920Y-145416641D01*
X210550269Y-145242588D01*
X210745178Y-145026355D01*
X210894157Y-144776252D01*
X210991481Y-144501891D01*
X210870814Y-144272000D01*
X209677000Y-144272000D01*
X209423000Y-144272000D01*
X209403000Y-144272000D01*
X209403000Y-144018000D01*
X209423000Y-144018000D01*
X209423000Y-143998000D01*
X209677000Y-143998000D01*
X209677000Y-144018000D01*
X210870814Y-144018000D01*
X210991481Y-143788109D01*
X210894157Y-143513748D01*
X210745178Y-143263645D01*
X210550269Y-143047412D01*
X210320594Y-142876100D01*
X210496632Y-142758475D01*
X210703475Y-142551632D01*
X210865990Y-142308411D01*
X210977932Y-142038158D01*
X211035000Y-141751260D01*
X211035000Y-141458740D01*
X210977932Y-141171842D01*
X210865990Y-140901589D01*
X210703475Y-140658368D01*
X210496632Y-140451525D01*
X210253411Y-140289010D01*
X209983158Y-140177068D01*
X209696260Y-140120000D01*
X209403740Y-140120000D01*
X209116842Y-140177068D01*
X208846589Y-140289010D01*
X208603368Y-140451525D01*
X208396525Y-140658368D01*
X208274805Y-140840534D01*
X208205178Y-140723645D01*
X208010269Y-140507412D01*
X207776920Y-140333359D01*
X207514099Y-140208175D01*
X207366890Y-140163524D01*
X207137000Y-140284845D01*
X207137000Y-141478000D01*
X207157000Y-141478000D01*
X207157000Y-141732000D01*
X207137000Y-141732000D01*
X207137000Y-141752000D01*
X206883000Y-141752000D01*
X206883000Y-141732000D01*
X206863000Y-141732000D01*
X206863000Y-141478000D01*
X206883000Y-141478000D01*
X206883000Y-140284845D01*
X206653110Y-140163524D01*
X206505901Y-140208175D01*
X206243080Y-140333359D01*
X206009731Y-140507412D01*
X205814822Y-140723645D01*
X205745195Y-140840534D01*
X205623475Y-140658368D01*
X205416632Y-140451525D01*
X205173411Y-140289010D01*
X204903158Y-140177068D01*
X204616260Y-140120000D01*
X204323740Y-140120000D01*
X204036842Y-140177068D01*
X203766589Y-140289010D01*
X203523368Y-140451525D01*
X203316525Y-140658368D01*
X203194805Y-140840534D01*
X203125178Y-140723645D01*
X202930269Y-140507412D01*
X202696920Y-140333359D01*
X202434099Y-140208175D01*
X202286890Y-140163524D01*
X202057000Y-140284845D01*
X202057000Y-141478000D01*
X202077000Y-141478000D01*
X202077000Y-141732000D01*
X202057000Y-141732000D01*
X202057000Y-141752000D01*
X201803000Y-141752000D01*
X201803000Y-141732000D01*
X201783000Y-141732000D01*
X201783000Y-141478000D01*
X201803000Y-141478000D01*
X201803000Y-140284845D01*
X201573110Y-140163524D01*
X201425901Y-140208175D01*
X201163080Y-140333359D01*
X200929731Y-140507412D01*
X200734822Y-140723645D01*
X200665195Y-140840534D01*
X200543475Y-140658368D01*
X200336632Y-140451525D01*
X200093411Y-140289010D01*
X199823158Y-140177068D01*
X199536260Y-140120000D01*
X199243740Y-140120000D01*
X198956842Y-140177068D01*
X198686589Y-140289010D01*
X198443368Y-140451525D01*
X198236525Y-140658368D01*
X198120000Y-140832760D01*
X198003475Y-140658368D01*
X197796632Y-140451525D01*
X197553411Y-140289010D01*
X197283158Y-140177068D01*
X196996260Y-140120000D01*
X196703740Y-140120000D01*
X196416842Y-140177068D01*
X196146589Y-140289010D01*
X195903368Y-140451525D01*
X195696525Y-140658368D01*
X195674849Y-140690808D01*
X195471714Y-140443286D01*
X195222752Y-140238969D01*
X194938715Y-140087148D01*
X194630516Y-139993657D01*
X194310000Y-139962089D01*
X193989485Y-139993657D01*
X193681286Y-140087148D01*
X193397249Y-140238969D01*
X193148287Y-140443286D01*
X192943970Y-140692248D01*
X192792149Y-140976285D01*
X192698658Y-141284484D01*
X192675001Y-141524678D01*
X192675000Y-154859681D01*
X192667089Y-154940000D01*
X186180000Y-154940000D01*
X186180000Y-145423178D01*
X186366632Y-145298475D01*
X186573475Y-145091632D01*
X186695195Y-144909466D01*
X186764822Y-145026355D01*
X186959731Y-145242588D01*
X187193080Y-145416641D01*
X187455901Y-145541825D01*
X187603110Y-145586476D01*
X187833000Y-145465155D01*
X187833000Y-144272000D01*
X188087000Y-144272000D01*
X188087000Y-145465155D01*
X188316890Y-145586476D01*
X188464099Y-145541825D01*
X188726920Y-145416641D01*
X188960269Y-145242588D01*
X189155178Y-145026355D01*
X189304157Y-144776252D01*
X189401481Y-144501891D01*
X189280814Y-144272000D01*
X188087000Y-144272000D01*
X187833000Y-144272000D01*
X187813000Y-144272000D01*
X187813000Y-144018000D01*
X187833000Y-144018000D01*
X187833000Y-143998000D01*
X188087000Y-143998000D01*
X188087000Y-144018000D01*
X189280814Y-144018000D01*
X189401481Y-143788109D01*
X189304157Y-143513748D01*
X189155178Y-143263645D01*
X188960269Y-143047412D01*
X188730594Y-142876100D01*
X188906632Y-142758475D01*
X189113475Y-142551632D01*
X189275990Y-142308411D01*
X189387932Y-142038158D01*
X189445000Y-141751260D01*
X189445000Y-141458740D01*
X189387932Y-141171842D01*
X189275990Y-140901589D01*
X189113475Y-140658368D01*
X188906632Y-140451525D01*
X188663411Y-140289010D01*
X188393158Y-140177068D01*
X188106260Y-140120000D01*
X187813740Y-140120000D01*
X187526842Y-140177068D01*
X187256589Y-140289010D01*
X187013368Y-140451525D01*
X186806525Y-140658368D01*
X186684805Y-140840534D01*
X186615178Y-140723645D01*
X186420269Y-140507412D01*
X186186920Y-140333359D01*
X185924099Y-140208175D01*
X185776890Y-140163524D01*
X185547000Y-140284845D01*
X185547000Y-141478000D01*
X185567000Y-141478000D01*
X185567000Y-141732000D01*
X185547000Y-141732000D01*
X185547000Y-141752000D01*
X185293000Y-141752000D01*
X185293000Y-141732000D01*
X185273000Y-141732000D01*
X185273000Y-141478000D01*
X185293000Y-141478000D01*
X185293000Y-140284845D01*
X185063110Y-140163524D01*
X184915901Y-140208175D01*
X184653080Y-140333359D01*
X184419731Y-140507412D01*
X184224822Y-140723645D01*
X184155195Y-140840534D01*
X184033475Y-140658368D01*
X183826632Y-140451525D01*
X183583411Y-140289010D01*
X183313158Y-140177068D01*
X183026260Y-140120000D01*
X182733740Y-140120000D01*
X182446842Y-140177068D01*
X182176589Y-140289010D01*
X181933368Y-140451525D01*
X181726525Y-140658368D01*
X181604805Y-140840534D01*
X181535178Y-140723645D01*
X181340269Y-140507412D01*
X181106920Y-140333359D01*
X180844099Y-140208175D01*
X180696890Y-140163524D01*
X180467000Y-140284845D01*
X180467000Y-141478000D01*
X180487000Y-141478000D01*
X180487000Y-141732000D01*
X180467000Y-141732000D01*
X180467000Y-141752000D01*
X180213000Y-141752000D01*
X180213000Y-141732000D01*
X180193000Y-141732000D01*
X180193000Y-141478000D01*
X180213000Y-141478000D01*
X180213000Y-140284845D01*
X179983110Y-140163524D01*
X179835901Y-140208175D01*
X179573080Y-140333359D01*
X179339731Y-140507412D01*
X179144822Y-140723645D01*
X179075195Y-140840534D01*
X178953475Y-140658368D01*
X178746632Y-140451525D01*
X178503411Y-140289010D01*
X178233158Y-140177068D01*
X177946260Y-140120000D01*
X177653740Y-140120000D01*
X177366842Y-140177068D01*
X177096589Y-140289010D01*
X176853368Y-140451525D01*
X176646525Y-140658368D01*
X176530000Y-140832760D01*
X176413475Y-140658368D01*
X176206632Y-140451525D01*
X175963411Y-140289010D01*
X175693158Y-140177068D01*
X175406260Y-140120000D01*
X175113740Y-140120000D01*
X174826842Y-140177068D01*
X174556589Y-140289010D01*
X174313368Y-140451525D01*
X174106525Y-140658368D01*
X174084849Y-140690808D01*
X173881714Y-140443286D01*
X173632752Y-140238969D01*
X173348715Y-140087148D01*
X173040516Y-139993657D01*
X172720000Y-139962089D01*
X172399485Y-139993657D01*
X172091286Y-140087148D01*
X171807249Y-140238969D01*
X171558287Y-140443286D01*
X171353970Y-140692248D01*
X171202149Y-140976285D01*
X171108658Y-141284484D01*
X171085001Y-141524678D01*
X171085000Y-143594761D01*
X170350682Y-144329080D01*
X170288287Y-144380286D01*
X170114116Y-144592515D01*
X170083970Y-144629248D01*
X169932148Y-144913286D01*
X169838658Y-145221484D01*
X169807089Y-145542000D01*
X166873522Y-145542000D01*
X166874099Y-145541825D01*
X167136920Y-145416641D01*
X167370269Y-145242588D01*
X167565178Y-145026355D01*
X167714157Y-144776252D01*
X167811481Y-144501891D01*
X167690814Y-144272000D01*
X166497000Y-144272000D01*
X166243000Y-144272000D01*
X166223000Y-144272000D01*
X166223000Y-144018000D01*
X166243000Y-144018000D01*
X166243000Y-143998000D01*
X166497000Y-143998000D01*
X166497000Y-144018000D01*
X167690814Y-144018000D01*
X167811481Y-143788109D01*
X167714157Y-143513748D01*
X167565178Y-143263645D01*
X167370269Y-143047412D01*
X167140594Y-142876100D01*
X167316632Y-142758475D01*
X167523475Y-142551632D01*
X167685990Y-142308411D01*
X167797932Y-142038158D01*
X167855000Y-141751260D01*
X167855000Y-141458740D01*
X167797932Y-141171842D01*
X167685990Y-140901589D01*
X167523475Y-140658368D01*
X167316632Y-140451525D01*
X167073411Y-140289010D01*
X166803158Y-140177068D01*
X166516260Y-140120000D01*
X166223740Y-140120000D01*
X165936842Y-140177068D01*
X165666589Y-140289010D01*
X165423368Y-140451525D01*
X165216525Y-140658368D01*
X165094805Y-140840534D01*
X165025178Y-140723645D01*
X164830269Y-140507412D01*
X164596920Y-140333359D01*
X164334099Y-140208175D01*
X164186890Y-140163524D01*
X163957000Y-140284845D01*
X163957000Y-141478000D01*
X163977000Y-141478000D01*
X163977000Y-141732000D01*
X163957000Y-141732000D01*
X163957000Y-141752000D01*
X163703000Y-141752000D01*
X163703000Y-141732000D01*
X163683000Y-141732000D01*
X163683000Y-141478000D01*
X163703000Y-141478000D01*
X163703000Y-140284845D01*
X163473110Y-140163524D01*
X163325901Y-140208175D01*
X163063080Y-140333359D01*
X162829731Y-140507412D01*
X162634822Y-140723645D01*
X162565195Y-140840534D01*
X162443475Y-140658368D01*
X162236632Y-140451525D01*
X161993411Y-140289010D01*
X161723158Y-140177068D01*
X161436260Y-140120000D01*
X161143740Y-140120000D01*
X160856842Y-140177068D01*
X160586589Y-140289010D01*
X160343368Y-140451525D01*
X160136525Y-140658368D01*
X160014805Y-140840534D01*
X159945178Y-140723645D01*
X159750269Y-140507412D01*
X159516920Y-140333359D01*
X159254099Y-140208175D01*
X159106890Y-140163524D01*
X158877000Y-140284845D01*
X158877000Y-141478000D01*
X158897000Y-141478000D01*
X158897000Y-141732000D01*
X158877000Y-141732000D01*
X158877000Y-141752000D01*
X158623000Y-141752000D01*
X158623000Y-141732000D01*
X158603000Y-141732000D01*
X158603000Y-141478000D01*
X158623000Y-141478000D01*
X158623000Y-140284845D01*
X158393110Y-140163524D01*
X158245901Y-140208175D01*
X157983080Y-140333359D01*
X157749731Y-140507412D01*
X157554822Y-140723645D01*
X157485195Y-140840534D01*
X157363475Y-140658368D01*
X157156632Y-140451525D01*
X156913411Y-140289010D01*
X156643158Y-140177068D01*
X156356260Y-140120000D01*
X156063740Y-140120000D01*
X155776842Y-140177068D01*
X155506589Y-140289010D01*
X155263368Y-140451525D01*
X155056525Y-140658368D01*
X154940000Y-140832760D01*
X154823475Y-140658368D01*
X154616632Y-140451525D01*
X154373411Y-140289010D01*
X154103158Y-140177068D01*
X153816260Y-140120000D01*
X153523740Y-140120000D01*
X153494791Y-140125758D01*
X153512030Y-140104753D01*
X153663852Y-139820715D01*
X153757342Y-139512517D01*
X153788911Y-139192000D01*
X153757342Y-138871484D01*
X153663852Y-138563286D01*
X153538089Y-138328000D01*
X241910001Y-138328000D01*
X241910000Y-165132418D01*
X241910001Y-165132428D01*
X241910001Y-165710000D01*
X142900000Y-165710000D01*
X142900000Y-138328000D01*
X150697762Y-138328000D01*
X150030682Y-138995080D01*
G36*
X226187000Y-144018000D02*
G01*
X226207000Y-144018000D01*
X226207000Y-144272000D01*
X226187000Y-144272000D01*
X226187000Y-145465155D01*
X226416890Y-145586476D01*
X226564099Y-145541825D01*
X226826920Y-145416641D01*
X227060269Y-145242588D01*
X227255178Y-145026355D01*
X227324805Y-144909466D01*
X227446525Y-145091632D01*
X227653368Y-145298475D01*
X227896589Y-145460990D01*
X228166842Y-145572932D01*
X228453740Y-145630000D01*
X228746260Y-145630000D01*
X228966408Y-145586209D01*
X232920001Y-149539803D01*
X232920000Y-156718897D01*
X232843158Y-156687068D01*
X232556260Y-156630000D01*
X232263740Y-156630000D01*
X231976842Y-156687068D01*
X231706589Y-156799010D01*
X231463368Y-156961525D01*
X231256525Y-157168368D01*
X231134805Y-157350534D01*
X231065178Y-157233645D01*
X230870269Y-157017412D01*
X230636920Y-156843359D01*
X230374099Y-156718175D01*
X230226890Y-156673524D01*
X229997000Y-156794845D01*
X229997000Y-157988000D01*
X230017000Y-157988000D01*
X230017000Y-158242000D01*
X229997000Y-158242000D01*
X229997000Y-158262000D01*
X229743000Y-158262000D01*
X229743000Y-158242000D01*
X229723000Y-158242000D01*
X229723000Y-157988000D01*
X229743000Y-157988000D01*
X229743000Y-156794845D01*
X229513110Y-156673524D01*
X229365901Y-156718175D01*
X229360000Y-156720986D01*
X229360000Y-152183323D01*
X229363676Y-152146000D01*
X229360000Y-152108677D01*
X229360000Y-152108667D01*
X229349003Y-151997014D01*
X229305546Y-151853753D01*
X229258120Y-151765026D01*
X229234974Y-151721723D01*
X229163799Y-151634997D01*
X229140001Y-151605999D01*
X229111003Y-151582201D01*
X224280000Y-146751199D01*
X224280000Y-145423178D01*
X224466632Y-145298475D01*
X224673475Y-145091632D01*
X224795195Y-144909466D01*
X224864822Y-145026355D01*
X225059731Y-145242588D01*
X225293080Y-145416641D01*
X225555901Y-145541825D01*
X225703110Y-145586476D01*
X225933000Y-145465155D01*
X225933000Y-144272000D01*
X225913000Y-144272000D01*
X225913000Y-144018000D01*
X225933000Y-144018000D01*
X225933000Y-143998000D01*
X226187000Y-143998000D01*
X226187000Y-144018000D01*
G37*
X226187000Y-144018000D02*
X226207000Y-144018000D01*
X226207000Y-144272000D01*
X226187000Y-144272000D01*
X226187000Y-145465155D01*
X226416890Y-145586476D01*
X226564099Y-145541825D01*
X226826920Y-145416641D01*
X227060269Y-145242588D01*
X227255178Y-145026355D01*
X227324805Y-144909466D01*
X227446525Y-145091632D01*
X227653368Y-145298475D01*
X227896589Y-145460990D01*
X228166842Y-145572932D01*
X228453740Y-145630000D01*
X228746260Y-145630000D01*
X228966408Y-145586209D01*
X232920001Y-149539803D01*
X232920000Y-156718897D01*
X232843158Y-156687068D01*
X232556260Y-156630000D01*
X232263740Y-156630000D01*
X231976842Y-156687068D01*
X231706589Y-156799010D01*
X231463368Y-156961525D01*
X231256525Y-157168368D01*
X231134805Y-157350534D01*
X231065178Y-157233645D01*
X230870269Y-157017412D01*
X230636920Y-156843359D01*
X230374099Y-156718175D01*
X230226890Y-156673524D01*
X229997000Y-156794845D01*
X229997000Y-157988000D01*
X230017000Y-157988000D01*
X230017000Y-158242000D01*
X229997000Y-158242000D01*
X229997000Y-158262000D01*
X229743000Y-158262000D01*
X229743000Y-158242000D01*
X229723000Y-158242000D01*
X229723000Y-157988000D01*
X229743000Y-157988000D01*
X229743000Y-156794845D01*
X229513110Y-156673524D01*
X229365901Y-156718175D01*
X229360000Y-156720986D01*
X229360000Y-152183323D01*
X229363676Y-152146000D01*
X229360000Y-152108677D01*
X229360000Y-152108667D01*
X229349003Y-151997014D01*
X229305546Y-151853753D01*
X229258120Y-151765026D01*
X229234974Y-151721723D01*
X229163799Y-151634997D01*
X229140001Y-151605999D01*
X229111003Y-151582201D01*
X224280000Y-146751199D01*
X224280000Y-145423178D01*
X224466632Y-145298475D01*
X224673475Y-145091632D01*
X224795195Y-144909466D01*
X224864822Y-145026355D01*
X225059731Y-145242588D01*
X225293080Y-145416641D01*
X225555901Y-145541825D01*
X225703110Y-145586476D01*
X225933000Y-145465155D01*
X225933000Y-144272000D01*
X225913000Y-144272000D01*
X225913000Y-144018000D01*
X225933000Y-144018000D01*
X225933000Y-143998000D01*
X226187000Y-143998000D01*
X226187000Y-144018000D01*
G36*
X219826525Y-145091632D02*
G01*
X220033368Y-145298475D01*
X220220001Y-145423179D01*
X220220000Y-150330677D01*
X220216324Y-150368000D01*
X220220000Y-150405322D01*
X220220000Y-150405332D01*
X220230997Y-150516985D01*
X220245728Y-150565546D01*
X220274454Y-150660246D01*
X220345026Y-150792276D01*
X220383099Y-150838667D01*
X220439999Y-150908001D01*
X220469003Y-150931804D01*
X225300001Y-155762803D01*
X225300001Y-156718897D01*
X225223158Y-156687068D01*
X224936260Y-156630000D01*
X224643740Y-156630000D01*
X224356842Y-156687068D01*
X224086589Y-156799010D01*
X223983017Y-156868215D01*
X219200000Y-152085199D01*
X219200000Y-145423178D01*
X219386632Y-145298475D01*
X219593475Y-145091632D01*
X219710000Y-144917240D01*
X219826525Y-145091632D01*
G37*
X219826525Y-145091632D02*
X220033368Y-145298475D01*
X220220001Y-145423179D01*
X220220000Y-150330677D01*
X220216324Y-150368000D01*
X220220000Y-150405322D01*
X220220000Y-150405332D01*
X220230997Y-150516985D01*
X220245728Y-150565546D01*
X220274454Y-150660246D01*
X220345026Y-150792276D01*
X220383099Y-150838667D01*
X220439999Y-150908001D01*
X220469003Y-150931804D01*
X225300001Y-155762803D01*
X225300001Y-156718897D01*
X225223158Y-156687068D01*
X224936260Y-156630000D01*
X224643740Y-156630000D01*
X224356842Y-156687068D01*
X224086589Y-156799010D01*
X223983017Y-156868215D01*
X219200000Y-152085199D01*
X219200000Y-145423178D01*
X219386632Y-145298475D01*
X219593475Y-145091632D01*
X219710000Y-144917240D01*
X219826525Y-145091632D01*
G36*
X222366525Y-145091632D02*
G01*
X222573368Y-145298475D01*
X222760001Y-145423179D01*
X222760000Y-147028677D01*
X222756324Y-147066000D01*
X222760000Y-147103322D01*
X222760000Y-147103332D01*
X222770997Y-147214985D01*
X222791528Y-147282667D01*
X222814454Y-147358246D01*
X222885026Y-147490276D01*
X222924871Y-147538826D01*
X222979999Y-147606001D01*
X223009003Y-147629804D01*
X227840001Y-152460803D01*
X227840000Y-156718897D01*
X227763158Y-156687068D01*
X227476260Y-156630000D01*
X227183740Y-156630000D01*
X226896842Y-156687068D01*
X226820000Y-156718897D01*
X226820000Y-155485323D01*
X226823676Y-155448000D01*
X226820000Y-155410677D01*
X226820000Y-155410667D01*
X226809003Y-155299014D01*
X226765546Y-155155753D01*
X226694974Y-155023723D01*
X226623799Y-154936997D01*
X226600001Y-154907999D01*
X226571003Y-154884201D01*
X221740000Y-150053199D01*
X221740000Y-145423178D01*
X221926632Y-145298475D01*
X222133475Y-145091632D01*
X222250000Y-144917240D01*
X222366525Y-145091632D01*
G37*
X222366525Y-145091632D02*
X222573368Y-145298475D01*
X222760001Y-145423179D01*
X222760000Y-147028677D01*
X222756324Y-147066000D01*
X222760000Y-147103322D01*
X222760000Y-147103332D01*
X222770997Y-147214985D01*
X222791528Y-147282667D01*
X222814454Y-147358246D01*
X222885026Y-147490276D01*
X222924871Y-147538826D01*
X222979999Y-147606001D01*
X223009003Y-147629804D01*
X227840001Y-152460803D01*
X227840000Y-156718897D01*
X227763158Y-156687068D01*
X227476260Y-156630000D01*
X227183740Y-156630000D01*
X226896842Y-156687068D01*
X226820000Y-156718897D01*
X226820000Y-155485323D01*
X226823676Y-155448000D01*
X226820000Y-155410677D01*
X226820000Y-155410667D01*
X226809003Y-155299014D01*
X226765546Y-155155753D01*
X226694974Y-155023723D01*
X226623799Y-154936997D01*
X226600001Y-154907999D01*
X226571003Y-154884201D01*
X221740000Y-150053199D01*
X221740000Y-145423178D01*
X221926632Y-145298475D01*
X222133475Y-145091632D01*
X222250000Y-144917240D01*
X222366525Y-145091632D01*
G36*
X217680001Y-145423179D02*
G01*
X217680000Y-152362678D01*
X217676324Y-152400000D01*
X217680000Y-152437322D01*
X217680000Y-152437332D01*
X217690997Y-152548985D01*
X217703082Y-152588823D01*
X217734454Y-152692246D01*
X217805026Y-152824276D01*
X217843099Y-152870667D01*
X217899999Y-152940001D01*
X217929003Y-152963804D01*
X221445198Y-156480000D01*
X221022239Y-156480000D01*
X217535000Y-152992762D01*
X217535000Y-145326293D01*
X217680001Y-145423179D01*
G37*
X217680001Y-145423179D02*
X217680000Y-152362678D01*
X217676324Y-152400000D01*
X217680000Y-152437322D01*
X217680000Y-152437332D01*
X217690997Y-152548985D01*
X217703082Y-152588823D01*
X217734454Y-152692246D01*
X217805026Y-152824276D01*
X217843099Y-152870667D01*
X217899999Y-152940001D01*
X217929003Y-152963804D01*
X221445198Y-156480000D01*
X221022239Y-156480000D01*
X217535000Y-152992762D01*
X217535000Y-145326293D01*
X217680001Y-145423179D01*
G36*
X179186525Y-145091632D02*
G01*
X179393368Y-145298475D01*
X179580001Y-145423179D01*
X179580000Y-156720986D01*
X179574099Y-156718175D01*
X179426890Y-156673524D01*
X179197000Y-156794845D01*
X179197000Y-157988000D01*
X179217000Y-157988000D01*
X179217000Y-158242000D01*
X179197000Y-158242000D01*
X179197000Y-158262000D01*
X178943000Y-158262000D01*
X178943000Y-158242000D01*
X178923000Y-158242000D01*
X178923000Y-157988000D01*
X178943000Y-157988000D01*
X178943000Y-156794845D01*
X178713110Y-156673524D01*
X178669642Y-156686709D01*
X179066493Y-146864635D01*
X179068000Y-146849333D01*
X179068000Y-146827333D01*
X179068887Y-146805380D01*
X179068000Y-146790048D01*
X179068000Y-144920233D01*
X179070000Y-144917240D01*
X179186525Y-145091632D01*
G37*
X179186525Y-145091632D02*
X179393368Y-145298475D01*
X179580001Y-145423179D01*
X179580000Y-156720986D01*
X179574099Y-156718175D01*
X179426890Y-156673524D01*
X179197000Y-156794845D01*
X179197000Y-157988000D01*
X179217000Y-157988000D01*
X179217000Y-158242000D01*
X179197000Y-158242000D01*
X179197000Y-158262000D01*
X178943000Y-158262000D01*
X178943000Y-158242000D01*
X178923000Y-158242000D01*
X178923000Y-157988000D01*
X178943000Y-157988000D01*
X178943000Y-156794845D01*
X178713110Y-156673524D01*
X178669642Y-156686709D01*
X179066493Y-146864635D01*
X179068000Y-146849333D01*
X179068000Y-146827333D01*
X179068887Y-146805380D01*
X179068000Y-146790048D01*
X179068000Y-144920233D01*
X179070000Y-144917240D01*
X179186525Y-145091632D01*
G36*
X183007000Y-144018000D02*
G01*
X183027000Y-144018000D01*
X183027000Y-144272000D01*
X183007000Y-144272000D01*
X183007000Y-145465155D01*
X183236890Y-145586476D01*
X183384099Y-145541825D01*
X183646920Y-145416641D01*
X183880269Y-145242588D01*
X184075178Y-145026355D01*
X184144805Y-144909466D01*
X184266525Y-145091632D01*
X184473368Y-145298475D01*
X184660001Y-145423179D01*
X184660000Y-156720986D01*
X184654099Y-156718175D01*
X184506890Y-156673524D01*
X184277000Y-156794845D01*
X184277000Y-157988000D01*
X184297000Y-157988000D01*
X184297000Y-158242000D01*
X184277000Y-158242000D01*
X184277000Y-158262000D01*
X184023000Y-158262000D01*
X184023000Y-158242000D01*
X184003000Y-158242000D01*
X184003000Y-157988000D01*
X184023000Y-157988000D01*
X184023000Y-156794845D01*
X183793110Y-156673524D01*
X183645901Y-156718175D01*
X183383080Y-156843359D01*
X183149731Y-157017412D01*
X182954822Y-157233645D01*
X182885195Y-157350534D01*
X182763475Y-157168368D01*
X182556632Y-156961525D01*
X182313411Y-156799010D01*
X182043158Y-156687068D01*
X181756260Y-156630000D01*
X181463740Y-156630000D01*
X181176842Y-156687068D01*
X181100000Y-156718897D01*
X181100000Y-145423178D01*
X181286632Y-145298475D01*
X181493475Y-145091632D01*
X181615195Y-144909466D01*
X181684822Y-145026355D01*
X181879731Y-145242588D01*
X182113080Y-145416641D01*
X182375901Y-145541825D01*
X182523110Y-145586476D01*
X182753000Y-145465155D01*
X182753000Y-144272000D01*
X182733000Y-144272000D01*
X182733000Y-144018000D01*
X182753000Y-144018000D01*
X182753000Y-143998000D01*
X183007000Y-143998000D01*
X183007000Y-144018000D01*
G37*
X183007000Y-144018000D02*
X183027000Y-144018000D01*
X183027000Y-144272000D01*
X183007000Y-144272000D01*
X183007000Y-145465155D01*
X183236890Y-145586476D01*
X183384099Y-145541825D01*
X183646920Y-145416641D01*
X183880269Y-145242588D01*
X184075178Y-145026355D01*
X184144805Y-144909466D01*
X184266525Y-145091632D01*
X184473368Y-145298475D01*
X184660001Y-145423179D01*
X184660000Y-156720986D01*
X184654099Y-156718175D01*
X184506890Y-156673524D01*
X184277000Y-156794845D01*
X184277000Y-157988000D01*
X184297000Y-157988000D01*
X184297000Y-158242000D01*
X184277000Y-158242000D01*
X184277000Y-158262000D01*
X184023000Y-158262000D01*
X184023000Y-158242000D01*
X184003000Y-158242000D01*
X184003000Y-157988000D01*
X184023000Y-157988000D01*
X184023000Y-156794845D01*
X183793110Y-156673524D01*
X183645901Y-156718175D01*
X183383080Y-156843359D01*
X183149731Y-157017412D01*
X182954822Y-157233645D01*
X182885195Y-157350534D01*
X182763475Y-157168368D01*
X182556632Y-156961525D01*
X182313411Y-156799010D01*
X182043158Y-156687068D01*
X181756260Y-156630000D01*
X181463740Y-156630000D01*
X181176842Y-156687068D01*
X181100000Y-156718897D01*
X181100000Y-145423178D01*
X181286632Y-145298475D01*
X181493475Y-145091632D01*
X181615195Y-144909466D01*
X181684822Y-145026355D01*
X181879731Y-145242588D01*
X182113080Y-145416641D01*
X182375901Y-145541825D01*
X182523110Y-145586476D01*
X182753000Y-145465155D01*
X182753000Y-144272000D01*
X182733000Y-144272000D01*
X182733000Y-144018000D01*
X182753000Y-144018000D01*
X182753000Y-143998000D01*
X183007000Y-143998000D01*
X183007000Y-144018000D01*
G36*
X176646525Y-145091632D02*
G01*
X176853368Y-145298475D01*
X177096589Y-145460990D01*
X177366842Y-145572932D01*
X177548001Y-145608967D01*
X177548000Y-146796659D01*
X177145339Y-156762529D01*
X176963158Y-156687068D01*
X176676260Y-156630000D01*
X176383740Y-156630000D01*
X176096842Y-156687068D01*
X175826589Y-156799010D01*
X175583368Y-156961525D01*
X175376525Y-157168368D01*
X175260000Y-157342760D01*
X175143475Y-157168368D01*
X174936632Y-156961525D01*
X174693411Y-156799010D01*
X174423158Y-156687068D01*
X174136260Y-156630000D01*
X173843740Y-156630000D01*
X173556842Y-156687068D01*
X173286589Y-156799010D01*
X173085000Y-156933707D01*
X173085000Y-146219238D01*
X173682219Y-145622020D01*
X173694482Y-145620812D01*
X173814180Y-145584502D01*
X173924494Y-145525537D01*
X174021185Y-145446185D01*
X174100537Y-145349494D01*
X174159502Y-145239180D01*
X174181513Y-145166620D01*
X174313368Y-145298475D01*
X174556589Y-145460990D01*
X174826842Y-145572932D01*
X175113740Y-145630000D01*
X175406260Y-145630000D01*
X175693158Y-145572932D01*
X175963411Y-145460990D01*
X176206632Y-145298475D01*
X176413475Y-145091632D01*
X176530000Y-144917240D01*
X176646525Y-145091632D01*
G37*
X176646525Y-145091632D02*
X176853368Y-145298475D01*
X177096589Y-145460990D01*
X177366842Y-145572932D01*
X177548001Y-145608967D01*
X177548000Y-146796659D01*
X177145339Y-156762529D01*
X176963158Y-156687068D01*
X176676260Y-156630000D01*
X176383740Y-156630000D01*
X176096842Y-156687068D01*
X175826589Y-156799010D01*
X175583368Y-156961525D01*
X175376525Y-157168368D01*
X175260000Y-157342760D01*
X175143475Y-157168368D01*
X174936632Y-156961525D01*
X174693411Y-156799010D01*
X174423158Y-156687068D01*
X174136260Y-156630000D01*
X173843740Y-156630000D01*
X173556842Y-156687068D01*
X173286589Y-156799010D01*
X173085000Y-156933707D01*
X173085000Y-146219238D01*
X173682219Y-145622020D01*
X173694482Y-145620812D01*
X173814180Y-145584502D01*
X173924494Y-145525537D01*
X174021185Y-145446185D01*
X174100537Y-145349494D01*
X174159502Y-145239180D01*
X174181513Y-145166620D01*
X174313368Y-145298475D01*
X174556589Y-145460990D01*
X174826842Y-145572932D01*
X175113740Y-145630000D01*
X175406260Y-145630000D01*
X175693158Y-145572932D01*
X175963411Y-145460990D01*
X176206632Y-145298475D01*
X176413475Y-145091632D01*
X176530000Y-144917240D01*
X176646525Y-145091632D01*
G36*
X200776525Y-145091632D02*
G01*
X200983368Y-145298475D01*
X201170000Y-145423179D01*
X201170000Y-146012677D01*
X201166324Y-146050000D01*
X201170000Y-146087322D01*
X201170000Y-146087332D01*
X201180997Y-146198985D01*
X201212344Y-146302324D01*
X201224454Y-146342246D01*
X201295026Y-146474276D01*
X201309169Y-146491509D01*
X201389999Y-146590001D01*
X201419003Y-146613804D01*
X204980001Y-150174803D01*
X204980000Y-156720986D01*
X204974099Y-156718175D01*
X204826890Y-156673524D01*
X204597000Y-156794845D01*
X204597000Y-157988000D01*
X204617000Y-157988000D01*
X204617000Y-158242000D01*
X204597000Y-158242000D01*
X204597000Y-158262000D01*
X204343000Y-158262000D01*
X204343000Y-158242000D01*
X204323000Y-158242000D01*
X204323000Y-157988000D01*
X204343000Y-157988000D01*
X204343000Y-156794845D01*
X204113110Y-156673524D01*
X203965901Y-156718175D01*
X203703080Y-156843359D01*
X203469731Y-157017412D01*
X203274822Y-157233645D01*
X203205195Y-157350534D01*
X203083475Y-157168368D01*
X202876632Y-156961525D01*
X202633411Y-156799010D01*
X202363158Y-156687068D01*
X202076260Y-156630000D01*
X201783740Y-156630000D01*
X201496842Y-156687068D01*
X201420000Y-156718897D01*
X201420000Y-147357322D01*
X201423676Y-147319999D01*
X201420000Y-147282676D01*
X201420000Y-147282667D01*
X201409003Y-147171014D01*
X201365546Y-147027753D01*
X201294974Y-146895724D01*
X201200001Y-146779999D01*
X201171003Y-146756201D01*
X200150000Y-145735199D01*
X200150000Y-145423178D01*
X200336632Y-145298475D01*
X200543475Y-145091632D01*
X200660000Y-144917240D01*
X200776525Y-145091632D01*
G37*
X200776525Y-145091632D02*
X200983368Y-145298475D01*
X201170000Y-145423179D01*
X201170000Y-146012677D01*
X201166324Y-146050000D01*
X201170000Y-146087322D01*
X201170000Y-146087332D01*
X201180997Y-146198985D01*
X201212344Y-146302324D01*
X201224454Y-146342246D01*
X201295026Y-146474276D01*
X201309169Y-146491509D01*
X201389999Y-146590001D01*
X201419003Y-146613804D01*
X204980001Y-150174803D01*
X204980000Y-156720986D01*
X204974099Y-156718175D01*
X204826890Y-156673524D01*
X204597000Y-156794845D01*
X204597000Y-157988000D01*
X204617000Y-157988000D01*
X204617000Y-158242000D01*
X204597000Y-158242000D01*
X204597000Y-158262000D01*
X204343000Y-158262000D01*
X204343000Y-158242000D01*
X204323000Y-158242000D01*
X204323000Y-157988000D01*
X204343000Y-157988000D01*
X204343000Y-156794845D01*
X204113110Y-156673524D01*
X203965901Y-156718175D01*
X203703080Y-156843359D01*
X203469731Y-157017412D01*
X203274822Y-157233645D01*
X203205195Y-157350534D01*
X203083475Y-157168368D01*
X202876632Y-156961525D01*
X202633411Y-156799010D01*
X202363158Y-156687068D01*
X202076260Y-156630000D01*
X201783740Y-156630000D01*
X201496842Y-156687068D01*
X201420000Y-156718897D01*
X201420000Y-147357322D01*
X201423676Y-147319999D01*
X201420000Y-147282676D01*
X201420000Y-147282667D01*
X201409003Y-147171014D01*
X201365546Y-147027753D01*
X201294974Y-146895724D01*
X201200001Y-146779999D01*
X201171003Y-146756201D01*
X200150000Y-145735199D01*
X200150000Y-145423178D01*
X200336632Y-145298475D01*
X200543475Y-145091632D01*
X200660000Y-144917240D01*
X200776525Y-145091632D01*
G36*
X198236525Y-145091632D02*
G01*
X198443368Y-145298475D01*
X198630000Y-145423179D01*
X198630000Y-146012677D01*
X198626324Y-146050000D01*
X198630000Y-146087322D01*
X198630000Y-146087332D01*
X198640997Y-146198985D01*
X198672344Y-146302324D01*
X198684454Y-146342246D01*
X198755026Y-146474276D01*
X198769169Y-146491509D01*
X198849999Y-146590001D01*
X198879003Y-146613804D01*
X199900001Y-147634803D01*
X199900000Y-156718897D01*
X199823158Y-156687068D01*
X199536260Y-156630000D01*
X199243740Y-156630000D01*
X198956842Y-156687068D01*
X198880000Y-156718897D01*
X198880000Y-153453322D01*
X198883676Y-153415999D01*
X198880000Y-153378676D01*
X198880000Y-153378667D01*
X198869003Y-153267014D01*
X198825546Y-153123753D01*
X198754974Y-152991724D01*
X198660001Y-152875999D01*
X198631003Y-152852201D01*
X197610000Y-151831199D01*
X197610000Y-145423178D01*
X197796632Y-145298475D01*
X198003475Y-145091632D01*
X198120000Y-144917240D01*
X198236525Y-145091632D01*
G37*
X198236525Y-145091632D02*
X198443368Y-145298475D01*
X198630000Y-145423179D01*
X198630000Y-146012677D01*
X198626324Y-146050000D01*
X198630000Y-146087322D01*
X198630000Y-146087332D01*
X198640997Y-146198985D01*
X198672344Y-146302324D01*
X198684454Y-146342246D01*
X198755026Y-146474276D01*
X198769169Y-146491509D01*
X198849999Y-146590001D01*
X198879003Y-146613804D01*
X199900001Y-147634803D01*
X199900000Y-156718897D01*
X199823158Y-156687068D01*
X199536260Y-156630000D01*
X199243740Y-156630000D01*
X198956842Y-156687068D01*
X198880000Y-156718897D01*
X198880000Y-153453322D01*
X198883676Y-153415999D01*
X198880000Y-153378676D01*
X198880000Y-153378667D01*
X198869003Y-153267014D01*
X198825546Y-153123753D01*
X198754974Y-152991724D01*
X198660001Y-152875999D01*
X198631003Y-152852201D01*
X197610000Y-151831199D01*
X197610000Y-145423178D01*
X197796632Y-145298475D01*
X198003475Y-145091632D01*
X198120000Y-144917240D01*
X198236525Y-145091632D01*
G36*
X204597000Y-144018000D02*
G01*
X204617000Y-144018000D01*
X204617000Y-144272000D01*
X204597000Y-144272000D01*
X204597000Y-145465155D01*
X204826890Y-145586476D01*
X204974099Y-145541825D01*
X205236920Y-145416641D01*
X205470269Y-145242588D01*
X205665178Y-145026355D01*
X205734805Y-144909466D01*
X205856525Y-145091632D01*
X206063368Y-145298475D01*
X206306589Y-145460990D01*
X206576842Y-145572932D01*
X206863740Y-145630000D01*
X207156260Y-145630000D01*
X207376408Y-145586210D01*
X207520001Y-145729803D01*
X207520000Y-156718897D01*
X207443158Y-156687068D01*
X207156260Y-156630000D01*
X206863740Y-156630000D01*
X206576842Y-156687068D01*
X206500000Y-156718897D01*
X206500000Y-149897325D01*
X206503676Y-149860000D01*
X206500000Y-149822675D01*
X206500000Y-149822667D01*
X206489003Y-149711014D01*
X206445546Y-149567753D01*
X206374974Y-149435724D01*
X206280001Y-149319999D01*
X206251003Y-149296201D01*
X202690000Y-145735199D01*
X202690000Y-145423178D01*
X202876632Y-145298475D01*
X203083475Y-145091632D01*
X203205195Y-144909466D01*
X203274822Y-145026355D01*
X203469731Y-145242588D01*
X203703080Y-145416641D01*
X203965901Y-145541825D01*
X204113110Y-145586476D01*
X204343000Y-145465155D01*
X204343000Y-144272000D01*
X204323000Y-144272000D01*
X204323000Y-144018000D01*
X204343000Y-144018000D01*
X204343000Y-143998000D01*
X204597000Y-143998000D01*
X204597000Y-144018000D01*
G37*
X204597000Y-144018000D02*
X204617000Y-144018000D01*
X204617000Y-144272000D01*
X204597000Y-144272000D01*
X204597000Y-145465155D01*
X204826890Y-145586476D01*
X204974099Y-145541825D01*
X205236920Y-145416641D01*
X205470269Y-145242588D01*
X205665178Y-145026355D01*
X205734805Y-144909466D01*
X205856525Y-145091632D01*
X206063368Y-145298475D01*
X206306589Y-145460990D01*
X206576842Y-145572932D01*
X206863740Y-145630000D01*
X207156260Y-145630000D01*
X207376408Y-145586210D01*
X207520001Y-145729803D01*
X207520000Y-156718897D01*
X207443158Y-156687068D01*
X207156260Y-156630000D01*
X206863740Y-156630000D01*
X206576842Y-156687068D01*
X206500000Y-156718897D01*
X206500000Y-149897325D01*
X206503676Y-149860000D01*
X206500000Y-149822675D01*
X206500000Y-149822667D01*
X206489003Y-149711014D01*
X206445546Y-149567753D01*
X206374974Y-149435724D01*
X206280001Y-149319999D01*
X206251003Y-149296201D01*
X202690000Y-145735199D01*
X202690000Y-145423178D01*
X202876632Y-145298475D01*
X203083475Y-145091632D01*
X203205195Y-144909466D01*
X203274822Y-145026355D01*
X203469731Y-145242588D01*
X203703080Y-145416641D01*
X203965901Y-145541825D01*
X204113110Y-145586476D01*
X204343000Y-145465155D01*
X204343000Y-144272000D01*
X204323000Y-144272000D01*
X204323000Y-144018000D01*
X204343000Y-144018000D01*
X204343000Y-143998000D01*
X204597000Y-143998000D01*
X204597000Y-144018000D01*
G36*
X196090001Y-145423179D02*
G01*
X196090000Y-152108678D01*
X196086324Y-152146000D01*
X196090000Y-152183322D01*
X196090000Y-152183332D01*
X196100997Y-152294985D01*
X196144177Y-152437332D01*
X196144454Y-152438246D01*
X196215026Y-152570276D01*
X196242290Y-152603497D01*
X196309999Y-152686001D01*
X196339003Y-152709804D01*
X197360001Y-153730803D01*
X197360001Y-155677762D01*
X195945000Y-154262762D01*
X195945000Y-145326293D01*
X196090001Y-145423179D01*
G37*
X196090001Y-145423179D02*
X196090000Y-152108678D01*
X196086324Y-152146000D01*
X196090000Y-152183322D01*
X196090000Y-152183332D01*
X196100997Y-152294985D01*
X196144177Y-152437332D01*
X196144454Y-152438246D01*
X196215026Y-152570276D01*
X196242290Y-152603497D01*
X196309999Y-152686001D01*
X196339003Y-152709804D01*
X197360001Y-153730803D01*
X197360001Y-155677762D01*
X195945000Y-154262762D01*
X195945000Y-145326293D01*
X196090001Y-145423179D01*
G36*
X157596525Y-145091632D02*
G01*
X157803368Y-145298475D01*
X157990001Y-145423179D01*
X157990000Y-149291198D01*
X154428998Y-152852201D01*
X154400000Y-152875999D01*
X154376202Y-152904997D01*
X154376201Y-152904998D01*
X154305026Y-152991724D01*
X154234454Y-153123754D01*
X154210260Y-153203514D01*
X154190999Y-153267013D01*
X154190998Y-153267015D01*
X154176324Y-153416000D01*
X154180001Y-153453332D01*
X154180000Y-156720986D01*
X154174099Y-156718175D01*
X154026890Y-156673524D01*
X153797000Y-156794845D01*
X153797000Y-157988000D01*
X153817000Y-157988000D01*
X153817000Y-158242000D01*
X153797000Y-158242000D01*
X153797000Y-158262000D01*
X153543000Y-158262000D01*
X153543000Y-158242000D01*
X153523000Y-158242000D01*
X153523000Y-157988000D01*
X153543000Y-157988000D01*
X153543000Y-156794845D01*
X153313110Y-156673524D01*
X153165901Y-156718175D01*
X153160000Y-156720986D01*
X153160000Y-153667301D01*
X156721004Y-150106298D01*
X156750001Y-150082501D01*
X156844974Y-149966776D01*
X156915546Y-149834747D01*
X156959003Y-149691486D01*
X156970000Y-149579833D01*
X156970000Y-149579825D01*
X156973676Y-149542500D01*
X156970000Y-149505175D01*
X156970000Y-145423178D01*
X157156632Y-145298475D01*
X157363475Y-145091632D01*
X157480000Y-144917240D01*
X157596525Y-145091632D01*
G37*
X157596525Y-145091632D02*
X157803368Y-145298475D01*
X157990001Y-145423179D01*
X157990000Y-149291198D01*
X154428998Y-152852201D01*
X154400000Y-152875999D01*
X154376202Y-152904997D01*
X154376201Y-152904998D01*
X154305026Y-152991724D01*
X154234454Y-153123754D01*
X154210260Y-153203514D01*
X154190999Y-153267013D01*
X154190998Y-153267015D01*
X154176324Y-153416000D01*
X154180001Y-153453332D01*
X154180000Y-156720986D01*
X154174099Y-156718175D01*
X154026890Y-156673524D01*
X153797000Y-156794845D01*
X153797000Y-157988000D01*
X153817000Y-157988000D01*
X153817000Y-158242000D01*
X153797000Y-158242000D01*
X153797000Y-158262000D01*
X153543000Y-158262000D01*
X153543000Y-158242000D01*
X153523000Y-158242000D01*
X153523000Y-157988000D01*
X153543000Y-157988000D01*
X153543000Y-156794845D01*
X153313110Y-156673524D01*
X153165901Y-156718175D01*
X153160000Y-156720986D01*
X153160000Y-153667301D01*
X156721004Y-150106298D01*
X156750001Y-150082501D01*
X156844974Y-149966776D01*
X156915546Y-149834747D01*
X156959003Y-149691486D01*
X156970000Y-149579833D01*
X156970000Y-149579825D01*
X156973676Y-149542500D01*
X156970000Y-149505175D01*
X156970000Y-145423178D01*
X157156632Y-145298475D01*
X157363475Y-145091632D01*
X157480000Y-144917240D01*
X157596525Y-145091632D01*
G36*
X161417000Y-144018000D02*
G01*
X161437000Y-144018000D01*
X161437000Y-144272000D01*
X161417000Y-144272000D01*
X161417000Y-145465155D01*
X161646890Y-145586476D01*
X161794099Y-145541825D01*
X162056920Y-145416641D01*
X162290269Y-145242588D01*
X162485178Y-145026355D01*
X162554805Y-144909466D01*
X162676525Y-145091632D01*
X162883368Y-145298475D01*
X163070001Y-145423179D01*
X163070000Y-148783198D01*
X159508998Y-152344201D01*
X159480000Y-152367999D01*
X159456202Y-152396997D01*
X159456201Y-152396998D01*
X159385026Y-152483724D01*
X159314454Y-152615754D01*
X159270998Y-152759015D01*
X159256324Y-152908000D01*
X159260001Y-152945332D01*
X159260000Y-156720986D01*
X159254099Y-156718175D01*
X159106890Y-156673524D01*
X158877000Y-156794845D01*
X158877000Y-157988000D01*
X158897000Y-157988000D01*
X158897000Y-158242000D01*
X158877000Y-158242000D01*
X158877000Y-158262000D01*
X158623000Y-158262000D01*
X158623000Y-158242000D01*
X158603000Y-158242000D01*
X158603000Y-157988000D01*
X158623000Y-157988000D01*
X158623000Y-156794845D01*
X158393110Y-156673524D01*
X158245901Y-156718175D01*
X157983080Y-156843359D01*
X157749731Y-157017412D01*
X157554822Y-157233645D01*
X157485195Y-157350534D01*
X157363475Y-157168368D01*
X157156632Y-156961525D01*
X156913411Y-156799010D01*
X156643158Y-156687068D01*
X156356260Y-156630000D01*
X156063740Y-156630000D01*
X155776842Y-156687068D01*
X155700000Y-156718897D01*
X155700000Y-153730801D01*
X159261004Y-150169798D01*
X159290001Y-150146001D01*
X159384974Y-150030276D01*
X159455546Y-149898247D01*
X159499003Y-149754986D01*
X159510000Y-149643333D01*
X159510000Y-149643325D01*
X159513676Y-149606000D01*
X159510000Y-149568675D01*
X159510000Y-145423178D01*
X159696632Y-145298475D01*
X159903475Y-145091632D01*
X160025195Y-144909466D01*
X160094822Y-145026355D01*
X160289731Y-145242588D01*
X160523080Y-145416641D01*
X160785901Y-145541825D01*
X160933110Y-145586476D01*
X161163000Y-145465155D01*
X161163000Y-144272000D01*
X161143000Y-144272000D01*
X161143000Y-144018000D01*
X161163000Y-144018000D01*
X161163000Y-143998000D01*
X161417000Y-143998000D01*
X161417000Y-144018000D01*
G37*
X161417000Y-144018000D02*
X161437000Y-144018000D01*
X161437000Y-144272000D01*
X161417000Y-144272000D01*
X161417000Y-145465155D01*
X161646890Y-145586476D01*
X161794099Y-145541825D01*
X162056920Y-145416641D01*
X162290269Y-145242588D01*
X162485178Y-145026355D01*
X162554805Y-144909466D01*
X162676525Y-145091632D01*
X162883368Y-145298475D01*
X163070001Y-145423179D01*
X163070000Y-148783198D01*
X159508998Y-152344201D01*
X159480000Y-152367999D01*
X159456202Y-152396997D01*
X159456201Y-152396998D01*
X159385026Y-152483724D01*
X159314454Y-152615754D01*
X159270998Y-152759015D01*
X159256324Y-152908000D01*
X159260001Y-152945332D01*
X159260000Y-156720986D01*
X159254099Y-156718175D01*
X159106890Y-156673524D01*
X158877000Y-156794845D01*
X158877000Y-157988000D01*
X158897000Y-157988000D01*
X158897000Y-158242000D01*
X158877000Y-158242000D01*
X158877000Y-158262000D01*
X158623000Y-158262000D01*
X158623000Y-158242000D01*
X158603000Y-158242000D01*
X158603000Y-157988000D01*
X158623000Y-157988000D01*
X158623000Y-156794845D01*
X158393110Y-156673524D01*
X158245901Y-156718175D01*
X157983080Y-156843359D01*
X157749731Y-157017412D01*
X157554822Y-157233645D01*
X157485195Y-157350534D01*
X157363475Y-157168368D01*
X157156632Y-156961525D01*
X156913411Y-156799010D01*
X156643158Y-156687068D01*
X156356260Y-156630000D01*
X156063740Y-156630000D01*
X155776842Y-156687068D01*
X155700000Y-156718897D01*
X155700000Y-153730801D01*
X159261004Y-150169798D01*
X159290001Y-150146001D01*
X159384974Y-150030276D01*
X159455546Y-149898247D01*
X159499003Y-149754986D01*
X159510000Y-149643333D01*
X159510000Y-149643325D01*
X159513676Y-149606000D01*
X159510000Y-149568675D01*
X159510000Y-145423178D01*
X159696632Y-145298475D01*
X159903475Y-145091632D01*
X160025195Y-144909466D01*
X160094822Y-145026355D01*
X160289731Y-145242588D01*
X160523080Y-145416641D01*
X160785901Y-145541825D01*
X160933110Y-145586476D01*
X161163000Y-145465155D01*
X161163000Y-144272000D01*
X161143000Y-144272000D01*
X161143000Y-144018000D01*
X161163000Y-144018000D01*
X161163000Y-143998000D01*
X161417000Y-143998000D01*
X161417000Y-144018000D01*
G36*
X152723368Y-145298475D02*
G01*
X152910001Y-145423179D01*
X152910000Y-146751198D01*
X149348998Y-150312201D01*
X149320000Y-150335999D01*
X149296202Y-150364997D01*
X149296201Y-150364998D01*
X149225026Y-150451724D01*
X149154454Y-150583754D01*
X149110998Y-150727015D01*
X149096324Y-150876000D01*
X149100001Y-150913332D01*
X149100000Y-156718897D01*
X149023158Y-156687068D01*
X148736260Y-156630000D01*
X148443740Y-156630000D01*
X148156842Y-156687068D01*
X147886589Y-156799010D01*
X147685000Y-156933707D01*
X147685000Y-150537238D01*
X152229320Y-145992919D01*
X152291714Y-145941714D01*
X152496031Y-145692752D01*
X152647852Y-145408715D01*
X152691086Y-145266193D01*
X152723368Y-145298475D01*
G37*
X152723368Y-145298475D02*
X152910001Y-145423179D01*
X152910000Y-146751198D01*
X149348998Y-150312201D01*
X149320000Y-150335999D01*
X149296202Y-150364997D01*
X149296201Y-150364998D01*
X149225026Y-150451724D01*
X149154454Y-150583754D01*
X149110998Y-150727015D01*
X149096324Y-150876000D01*
X149100001Y-150913332D01*
X149100000Y-156718897D01*
X149023158Y-156687068D01*
X148736260Y-156630000D01*
X148443740Y-156630000D01*
X148156842Y-156687068D01*
X147886589Y-156799010D01*
X147685000Y-156933707D01*
X147685000Y-150537238D01*
X152229320Y-145992919D01*
X152291714Y-145941714D01*
X152496031Y-145692752D01*
X152647852Y-145408715D01*
X152691086Y-145266193D01*
X152723368Y-145298475D01*
G36*
X155056525Y-145091632D02*
G01*
X155263368Y-145298475D01*
X155450001Y-145423179D01*
X155450000Y-149227698D01*
X151888998Y-152788701D01*
X151860000Y-152812499D01*
X151836202Y-152841497D01*
X151836201Y-152841498D01*
X151765026Y-152928224D01*
X151694454Y-153060254D01*
X151667533Y-153149003D01*
X151651990Y-153200246D01*
X151650998Y-153203515D01*
X151636324Y-153352500D01*
X151640001Y-153389832D01*
X151640000Y-156718897D01*
X151563158Y-156687068D01*
X151276260Y-156630000D01*
X150983740Y-156630000D01*
X150696842Y-156687068D01*
X150620000Y-156718897D01*
X150620000Y-151190801D01*
X154181004Y-147629798D01*
X154210001Y-147606001D01*
X154304974Y-147490276D01*
X154375546Y-147358247D01*
X154419003Y-147214986D01*
X154430000Y-147103333D01*
X154430000Y-147103325D01*
X154433676Y-147066000D01*
X154430000Y-147028675D01*
X154430000Y-145423178D01*
X154616632Y-145298475D01*
X154823475Y-145091632D01*
X154940000Y-144917240D01*
X155056525Y-145091632D01*
G37*
X155056525Y-145091632D02*
X155263368Y-145298475D01*
X155450001Y-145423179D01*
X155450000Y-149227698D01*
X151888998Y-152788701D01*
X151860000Y-152812499D01*
X151836202Y-152841497D01*
X151836201Y-152841498D01*
X151765026Y-152928224D01*
X151694454Y-153060254D01*
X151667533Y-153149003D01*
X151651990Y-153200246D01*
X151650998Y-153203515D01*
X151636324Y-153352500D01*
X151640001Y-153389832D01*
X151640000Y-156718897D01*
X151563158Y-156687068D01*
X151276260Y-156630000D01*
X150983740Y-156630000D01*
X150696842Y-156687068D01*
X150620000Y-156718897D01*
X150620000Y-151190801D01*
X154181004Y-147629798D01*
X154210001Y-147606001D01*
X154304974Y-147490276D01*
X154375546Y-147358247D01*
X154419003Y-147214986D01*
X154430000Y-147103333D01*
X154430000Y-147103325D01*
X154433676Y-147066000D01*
X154430000Y-147028675D01*
X154430000Y-145423178D01*
X154616632Y-145298475D01*
X154823475Y-145091632D01*
X154940000Y-144917240D01*
X155056525Y-145091632D01*
M02*
