G04 #@! TF.GenerationSoftware,KiCad,Pcbnew,(5.1.5)-3*
G04 #@! TF.CreationDate,2021-06-17T22:22:24-07:00*
G04 #@! TF.ProjectId,Adapter,41646170-7465-4722-9e6b-696361645f70,rev?*
G04 #@! TF.SameCoordinates,Original*
G04 #@! TF.FileFunction,Legend,Top*
G04 #@! TF.FilePolarity,Positive*
%FSLAX46Y46*%
G04 Gerber Fmt 4.6, Leading zero omitted, Abs format (unit mm)*
G04 Created by KiCad (PCBNEW (5.1.5)-3) date 2021-06-17 22:22:24*
%MOMM*%
%LPD*%
G04 APERTURE LIST*
%ADD10C,0.125000*%
%ADD11C,0.250000*%
%ADD12C,0.120000*%
%ADD13C,0.150000*%
G04 APERTURE END LIST*
D10*
X171159285Y-156406607D02*
X171159285Y-156644702D01*
X171516428Y-156668511D01*
X171480714Y-156644702D01*
X171445000Y-156597083D01*
X171445000Y-156478035D01*
X171480714Y-156430416D01*
X171516428Y-156406607D01*
X171587857Y-156382797D01*
X171766428Y-156382797D01*
X171837857Y-156406607D01*
X171873571Y-156430416D01*
X171909285Y-156478035D01*
X171909285Y-156597083D01*
X171873571Y-156644702D01*
X171837857Y-156668511D01*
X171159285Y-156239940D02*
X171909285Y-156073273D01*
X171159285Y-155906607D01*
X174409285Y-156406607D02*
X174409285Y-156644702D01*
X173659285Y-156644702D01*
X174016428Y-156239940D02*
X174016428Y-156073273D01*
X174409285Y-156001845D02*
X174409285Y-156239940D01*
X173659285Y-156239940D01*
X173659285Y-156001845D01*
X174409285Y-155787559D02*
X173659285Y-155787559D01*
X173659285Y-155668511D01*
X173695000Y-155597083D01*
X173766428Y-155549464D01*
X173837857Y-155525654D01*
X173980714Y-155501845D01*
X174087857Y-155501845D01*
X174230714Y-155525654D01*
X174302142Y-155549464D01*
X174373571Y-155597083D01*
X174409285Y-155668511D01*
X174409285Y-155787559D01*
X173659285Y-155335178D02*
X173659285Y-155001845D01*
X174409285Y-155216130D01*
X176909285Y-156406607D02*
X176909285Y-156644702D01*
X176159285Y-156644702D01*
X176516428Y-156239940D02*
X176516428Y-156073273D01*
X176909285Y-156001845D02*
X176909285Y-156239940D01*
X176159285Y-156239940D01*
X176159285Y-156001845D01*
X176909285Y-155787559D02*
X176159285Y-155787559D01*
X176159285Y-155668511D01*
X176195000Y-155597083D01*
X176266428Y-155549464D01*
X176337857Y-155525654D01*
X176480714Y-155501845D01*
X176587857Y-155501845D01*
X176730714Y-155525654D01*
X176802142Y-155549464D01*
X176873571Y-155597083D01*
X176909285Y-155668511D01*
X176909285Y-155787559D01*
X176480714Y-155216130D02*
X176445000Y-155263750D01*
X176409285Y-155287559D01*
X176337857Y-155311369D01*
X176302142Y-155311369D01*
X176230714Y-155287559D01*
X176195000Y-155263750D01*
X176159285Y-155216130D01*
X176159285Y-155120892D01*
X176195000Y-155073273D01*
X176230714Y-155049464D01*
X176302142Y-155025654D01*
X176337857Y-155025654D01*
X176409285Y-155049464D01*
X176445000Y-155073273D01*
X176480714Y-155120892D01*
X176480714Y-155216130D01*
X176516428Y-155263750D01*
X176552142Y-155287559D01*
X176623571Y-155311369D01*
X176766428Y-155311369D01*
X176837857Y-155287559D01*
X176873571Y-155263750D01*
X176909285Y-155216130D01*
X176909285Y-155120892D01*
X176873571Y-155073273D01*
X176837857Y-155049464D01*
X176766428Y-155025654D01*
X176623571Y-155025654D01*
X176552142Y-155049464D01*
X176516428Y-155073273D01*
X176480714Y-155120892D01*
X178695000Y-156382797D02*
X178659285Y-156430416D01*
X178659285Y-156501845D01*
X178695000Y-156573273D01*
X178766428Y-156620892D01*
X178837857Y-156644702D01*
X178980714Y-156668511D01*
X179087857Y-156668511D01*
X179230714Y-156644702D01*
X179302142Y-156620892D01*
X179373571Y-156573273D01*
X179409285Y-156501845D01*
X179409285Y-156454226D01*
X179373571Y-156382797D01*
X179337857Y-156358988D01*
X179087857Y-156358988D01*
X179087857Y-156454226D01*
X179409285Y-156144702D02*
X178659285Y-156144702D01*
X179409285Y-155858988D01*
X178659285Y-155858988D01*
X179409285Y-155620892D02*
X178659285Y-155620892D01*
X178659285Y-155501845D01*
X178695000Y-155430416D01*
X178766428Y-155382797D01*
X178837857Y-155358988D01*
X178980714Y-155335178D01*
X179087857Y-155335178D01*
X179230714Y-155358988D01*
X179302142Y-155382797D01*
X179373571Y-155430416D01*
X179409285Y-155501845D01*
X179409285Y-155620892D01*
X181873571Y-156668511D02*
X181909285Y-156597083D01*
X181909285Y-156478035D01*
X181873571Y-156430416D01*
X181837857Y-156406607D01*
X181766428Y-156382797D01*
X181695000Y-156382797D01*
X181623571Y-156406607D01*
X181587857Y-156430416D01*
X181552142Y-156478035D01*
X181516428Y-156573273D01*
X181480714Y-156620892D01*
X181445000Y-156644702D01*
X181373571Y-156668511D01*
X181302142Y-156668511D01*
X181230714Y-156644702D01*
X181195000Y-156620892D01*
X181159285Y-156573273D01*
X181159285Y-156454226D01*
X181195000Y-156382797D01*
X181909285Y-156168511D02*
X181159285Y-156168511D01*
X181909285Y-155882797D01*
X181159285Y-155882797D01*
X181873571Y-155668511D02*
X181909285Y-155597083D01*
X181909285Y-155478035D01*
X181873571Y-155430416D01*
X181837857Y-155406607D01*
X181766428Y-155382797D01*
X181695000Y-155382797D01*
X181623571Y-155406607D01*
X181587857Y-155430416D01*
X181552142Y-155478035D01*
X181516428Y-155573273D01*
X181480714Y-155620892D01*
X181445000Y-155644702D01*
X181373571Y-155668511D01*
X181302142Y-155668511D01*
X181230714Y-155644702D01*
X181195000Y-155620892D01*
X181159285Y-155573273D01*
X181159285Y-155454226D01*
X181195000Y-155382797D01*
X181159285Y-155216130D02*
X181159285Y-154882797D01*
X181909285Y-155097083D01*
X183695000Y-156382797D02*
X183659285Y-156430416D01*
X183659285Y-156501845D01*
X183695000Y-156573273D01*
X183766428Y-156620892D01*
X183837857Y-156644702D01*
X183980714Y-156668511D01*
X184087857Y-156668511D01*
X184230714Y-156644702D01*
X184302142Y-156620892D01*
X184373571Y-156573273D01*
X184409285Y-156501845D01*
X184409285Y-156454226D01*
X184373571Y-156382797D01*
X184337857Y-156358988D01*
X184087857Y-156358988D01*
X184087857Y-156454226D01*
X184409285Y-156144702D02*
X183659285Y-156144702D01*
X184409285Y-155858988D01*
X183659285Y-155858988D01*
X184409285Y-155620892D02*
X183659285Y-155620892D01*
X183659285Y-155501845D01*
X183695000Y-155430416D01*
X183766428Y-155382797D01*
X183837857Y-155358988D01*
X183980714Y-155335178D01*
X184087857Y-155335178D01*
X184230714Y-155358988D01*
X184302142Y-155382797D01*
X184373571Y-155430416D01*
X184409285Y-155501845D01*
X184409285Y-155620892D01*
X186873571Y-156668511D02*
X186909285Y-156597083D01*
X186909285Y-156478035D01*
X186873571Y-156430416D01*
X186837857Y-156406607D01*
X186766428Y-156382797D01*
X186695000Y-156382797D01*
X186623571Y-156406607D01*
X186587857Y-156430416D01*
X186552142Y-156478035D01*
X186516428Y-156573273D01*
X186480714Y-156620892D01*
X186445000Y-156644702D01*
X186373571Y-156668511D01*
X186302142Y-156668511D01*
X186230714Y-156644702D01*
X186195000Y-156620892D01*
X186159285Y-156573273D01*
X186159285Y-156454226D01*
X186195000Y-156382797D01*
X186909285Y-156168511D02*
X186159285Y-156168511D01*
X186909285Y-155882797D01*
X186159285Y-155882797D01*
X186873571Y-155668511D02*
X186909285Y-155597083D01*
X186909285Y-155478035D01*
X186873571Y-155430416D01*
X186837857Y-155406607D01*
X186766428Y-155382797D01*
X186695000Y-155382797D01*
X186623571Y-155406607D01*
X186587857Y-155430416D01*
X186552142Y-155478035D01*
X186516428Y-155573273D01*
X186480714Y-155620892D01*
X186445000Y-155644702D01*
X186373571Y-155668511D01*
X186302142Y-155668511D01*
X186230714Y-155644702D01*
X186195000Y-155620892D01*
X186159285Y-155573273D01*
X186159285Y-155454226D01*
X186195000Y-155382797D01*
X186480714Y-155097083D02*
X186445000Y-155144702D01*
X186409285Y-155168511D01*
X186337857Y-155192321D01*
X186302142Y-155192321D01*
X186230714Y-155168511D01*
X186195000Y-155144702D01*
X186159285Y-155097083D01*
X186159285Y-155001845D01*
X186195000Y-154954226D01*
X186230714Y-154930416D01*
X186302142Y-154906607D01*
X186337857Y-154906607D01*
X186409285Y-154930416D01*
X186445000Y-154954226D01*
X186480714Y-155001845D01*
X186480714Y-155097083D01*
X186516428Y-155144702D01*
X186552142Y-155168511D01*
X186623571Y-155192321D01*
X186766428Y-155192321D01*
X186837857Y-155168511D01*
X186873571Y-155144702D01*
X186909285Y-155097083D01*
X186909285Y-155001845D01*
X186873571Y-154954226D01*
X186837857Y-154930416D01*
X186766428Y-154906607D01*
X186623571Y-154906607D01*
X186552142Y-154930416D01*
X186516428Y-154954226D01*
X186480714Y-155001845D01*
X145759285Y-156406607D02*
X145759285Y-156644702D01*
X146116428Y-156668511D01*
X146080714Y-156644702D01*
X146045000Y-156597083D01*
X146045000Y-156478035D01*
X146080714Y-156430416D01*
X146116428Y-156406607D01*
X146187857Y-156382797D01*
X146366428Y-156382797D01*
X146437857Y-156406607D01*
X146473571Y-156430416D01*
X146509285Y-156478035D01*
X146509285Y-156597083D01*
X146473571Y-156644702D01*
X146437857Y-156668511D01*
X145759285Y-156239940D02*
X146509285Y-156073273D01*
X145759285Y-155906607D01*
X149009285Y-156406607D02*
X149009285Y-156644702D01*
X148259285Y-156644702D01*
X148616428Y-156239940D02*
X148616428Y-156073273D01*
X149009285Y-156001845D02*
X149009285Y-156239940D01*
X148259285Y-156239940D01*
X148259285Y-156001845D01*
X149009285Y-155787559D02*
X148259285Y-155787559D01*
X148259285Y-155668511D01*
X148295000Y-155597083D01*
X148366428Y-155549464D01*
X148437857Y-155525654D01*
X148580714Y-155501845D01*
X148687857Y-155501845D01*
X148830714Y-155525654D01*
X148902142Y-155549464D01*
X148973571Y-155597083D01*
X149009285Y-155668511D01*
X149009285Y-155787559D01*
X148259285Y-155335178D02*
X148259285Y-155025654D01*
X148545000Y-155192321D01*
X148545000Y-155120892D01*
X148580714Y-155073273D01*
X148616428Y-155049464D01*
X148687857Y-155025654D01*
X148866428Y-155025654D01*
X148937857Y-155049464D01*
X148973571Y-155073273D01*
X149009285Y-155120892D01*
X149009285Y-155263750D01*
X148973571Y-155311369D01*
X148937857Y-155335178D01*
X151509285Y-156406607D02*
X151509285Y-156644702D01*
X150759285Y-156644702D01*
X151116428Y-156239940D02*
X151116428Y-156073273D01*
X151509285Y-156001845D02*
X151509285Y-156239940D01*
X150759285Y-156239940D01*
X150759285Y-156001845D01*
X151509285Y-155787559D02*
X150759285Y-155787559D01*
X150759285Y-155668511D01*
X150795000Y-155597083D01*
X150866428Y-155549464D01*
X150937857Y-155525654D01*
X151080714Y-155501845D01*
X151187857Y-155501845D01*
X151330714Y-155525654D01*
X151402142Y-155549464D01*
X151473571Y-155597083D01*
X151509285Y-155668511D01*
X151509285Y-155787559D01*
X151009285Y-155073273D02*
X151509285Y-155073273D01*
X150723571Y-155192321D02*
X151259285Y-155311369D01*
X151259285Y-155001845D01*
X153295000Y-156382797D02*
X153259285Y-156430416D01*
X153259285Y-156501845D01*
X153295000Y-156573273D01*
X153366428Y-156620892D01*
X153437857Y-156644702D01*
X153580714Y-156668511D01*
X153687857Y-156668511D01*
X153830714Y-156644702D01*
X153902142Y-156620892D01*
X153973571Y-156573273D01*
X154009285Y-156501845D01*
X154009285Y-156454226D01*
X153973571Y-156382797D01*
X153937857Y-156358988D01*
X153687857Y-156358988D01*
X153687857Y-156454226D01*
X154009285Y-156144702D02*
X153259285Y-156144702D01*
X154009285Y-155858988D01*
X153259285Y-155858988D01*
X154009285Y-155620892D02*
X153259285Y-155620892D01*
X153259285Y-155501845D01*
X153295000Y-155430416D01*
X153366428Y-155382797D01*
X153437857Y-155358988D01*
X153580714Y-155335178D01*
X153687857Y-155335178D01*
X153830714Y-155358988D01*
X153902142Y-155382797D01*
X153973571Y-155430416D01*
X154009285Y-155501845D01*
X154009285Y-155620892D01*
X156473571Y-156668511D02*
X156509285Y-156597083D01*
X156509285Y-156478035D01*
X156473571Y-156430416D01*
X156437857Y-156406607D01*
X156366428Y-156382797D01*
X156295000Y-156382797D01*
X156223571Y-156406607D01*
X156187857Y-156430416D01*
X156152142Y-156478035D01*
X156116428Y-156573273D01*
X156080714Y-156620892D01*
X156045000Y-156644702D01*
X155973571Y-156668511D01*
X155902142Y-156668511D01*
X155830714Y-156644702D01*
X155795000Y-156620892D01*
X155759285Y-156573273D01*
X155759285Y-156454226D01*
X155795000Y-156382797D01*
X156509285Y-156168511D02*
X155759285Y-156168511D01*
X156509285Y-155882797D01*
X155759285Y-155882797D01*
X156473571Y-155668511D02*
X156509285Y-155597083D01*
X156509285Y-155478035D01*
X156473571Y-155430416D01*
X156437857Y-155406607D01*
X156366428Y-155382797D01*
X156295000Y-155382797D01*
X156223571Y-155406607D01*
X156187857Y-155430416D01*
X156152142Y-155478035D01*
X156116428Y-155573273D01*
X156080714Y-155620892D01*
X156045000Y-155644702D01*
X155973571Y-155668511D01*
X155902142Y-155668511D01*
X155830714Y-155644702D01*
X155795000Y-155620892D01*
X155759285Y-155573273D01*
X155759285Y-155454226D01*
X155795000Y-155382797D01*
X155759285Y-155216130D02*
X155759285Y-154906607D01*
X156045000Y-155073273D01*
X156045000Y-155001845D01*
X156080714Y-154954226D01*
X156116428Y-154930416D01*
X156187857Y-154906607D01*
X156366428Y-154906607D01*
X156437857Y-154930416D01*
X156473571Y-154954226D01*
X156509285Y-155001845D01*
X156509285Y-155144702D01*
X156473571Y-155192321D01*
X156437857Y-155216130D01*
X158295000Y-156382797D02*
X158259285Y-156430416D01*
X158259285Y-156501845D01*
X158295000Y-156573273D01*
X158366428Y-156620892D01*
X158437857Y-156644702D01*
X158580714Y-156668511D01*
X158687857Y-156668511D01*
X158830714Y-156644702D01*
X158902142Y-156620892D01*
X158973571Y-156573273D01*
X159009285Y-156501845D01*
X159009285Y-156454226D01*
X158973571Y-156382797D01*
X158937857Y-156358988D01*
X158687857Y-156358988D01*
X158687857Y-156454226D01*
X159009285Y-156144702D02*
X158259285Y-156144702D01*
X159009285Y-155858988D01*
X158259285Y-155858988D01*
X159009285Y-155620892D02*
X158259285Y-155620892D01*
X158259285Y-155501845D01*
X158295000Y-155430416D01*
X158366428Y-155382797D01*
X158437857Y-155358988D01*
X158580714Y-155335178D01*
X158687857Y-155335178D01*
X158830714Y-155358988D01*
X158902142Y-155382797D01*
X158973571Y-155430416D01*
X159009285Y-155501845D01*
X159009285Y-155620892D01*
X161473571Y-156668511D02*
X161509285Y-156597083D01*
X161509285Y-156478035D01*
X161473571Y-156430416D01*
X161437857Y-156406607D01*
X161366428Y-156382797D01*
X161295000Y-156382797D01*
X161223571Y-156406607D01*
X161187857Y-156430416D01*
X161152142Y-156478035D01*
X161116428Y-156573273D01*
X161080714Y-156620892D01*
X161045000Y-156644702D01*
X160973571Y-156668511D01*
X160902142Y-156668511D01*
X160830714Y-156644702D01*
X160795000Y-156620892D01*
X160759285Y-156573273D01*
X160759285Y-156454226D01*
X160795000Y-156382797D01*
X161509285Y-156168511D02*
X160759285Y-156168511D01*
X161509285Y-155882797D01*
X160759285Y-155882797D01*
X161473571Y-155668511D02*
X161509285Y-155597083D01*
X161509285Y-155478035D01*
X161473571Y-155430416D01*
X161437857Y-155406607D01*
X161366428Y-155382797D01*
X161295000Y-155382797D01*
X161223571Y-155406607D01*
X161187857Y-155430416D01*
X161152142Y-155478035D01*
X161116428Y-155573273D01*
X161080714Y-155620892D01*
X161045000Y-155644702D01*
X160973571Y-155668511D01*
X160902142Y-155668511D01*
X160830714Y-155644702D01*
X160795000Y-155620892D01*
X160759285Y-155573273D01*
X160759285Y-155454226D01*
X160795000Y-155382797D01*
X161009285Y-154954226D02*
X161509285Y-154954226D01*
X160723571Y-155073273D02*
X161259285Y-155192321D01*
X161259285Y-154882797D01*
X171159285Y-162553869D02*
X171159285Y-162791964D01*
X171516428Y-162815773D01*
X171480714Y-162791964D01*
X171445000Y-162744345D01*
X171445000Y-162625297D01*
X171480714Y-162577678D01*
X171516428Y-162553869D01*
X171587857Y-162530059D01*
X171766428Y-162530059D01*
X171837857Y-162553869D01*
X171873571Y-162577678D01*
X171909285Y-162625297D01*
X171909285Y-162744345D01*
X171873571Y-162791964D01*
X171837857Y-162815773D01*
X171159285Y-162387202D02*
X171909285Y-162220535D01*
X171159285Y-162053869D01*
X174409285Y-163482440D02*
X174409285Y-163720535D01*
X173659285Y-163720535D01*
X174016428Y-163315773D02*
X174016428Y-163149107D01*
X174409285Y-163077678D02*
X174409285Y-163315773D01*
X173659285Y-163315773D01*
X173659285Y-163077678D01*
X174409285Y-162863392D02*
X173659285Y-162863392D01*
X173659285Y-162744345D01*
X173695000Y-162672916D01*
X173766428Y-162625297D01*
X173837857Y-162601488D01*
X173980714Y-162577678D01*
X174087857Y-162577678D01*
X174230714Y-162601488D01*
X174302142Y-162625297D01*
X174373571Y-162672916D01*
X174409285Y-162744345D01*
X174409285Y-162863392D01*
X173659285Y-162125297D02*
X173659285Y-162363392D01*
X174016428Y-162387202D01*
X173980714Y-162363392D01*
X173945000Y-162315773D01*
X173945000Y-162196726D01*
X173980714Y-162149107D01*
X174016428Y-162125297D01*
X174087857Y-162101488D01*
X174266428Y-162101488D01*
X174337857Y-162125297D01*
X174373571Y-162149107D01*
X174409285Y-162196726D01*
X174409285Y-162315773D01*
X174373571Y-162363392D01*
X174337857Y-162387202D01*
X176909285Y-163482440D02*
X176909285Y-163720535D01*
X176159285Y-163720535D01*
X176516428Y-163315773D02*
X176516428Y-163149107D01*
X176909285Y-163077678D02*
X176909285Y-163315773D01*
X176159285Y-163315773D01*
X176159285Y-163077678D01*
X176909285Y-162863392D02*
X176159285Y-162863392D01*
X176159285Y-162744345D01*
X176195000Y-162672916D01*
X176266428Y-162625297D01*
X176337857Y-162601488D01*
X176480714Y-162577678D01*
X176587857Y-162577678D01*
X176730714Y-162601488D01*
X176802142Y-162625297D01*
X176873571Y-162672916D01*
X176909285Y-162744345D01*
X176909285Y-162863392D01*
X176159285Y-162149107D02*
X176159285Y-162244345D01*
X176195000Y-162291964D01*
X176230714Y-162315773D01*
X176337857Y-162363392D01*
X176480714Y-162387202D01*
X176766428Y-162387202D01*
X176837857Y-162363392D01*
X176873571Y-162339583D01*
X176909285Y-162291964D01*
X176909285Y-162196726D01*
X176873571Y-162149107D01*
X176837857Y-162125297D01*
X176766428Y-162101488D01*
X176587857Y-162101488D01*
X176516428Y-162125297D01*
X176480714Y-162149107D01*
X176445000Y-162196726D01*
X176445000Y-162291964D01*
X176480714Y-162339583D01*
X176516428Y-162363392D01*
X176587857Y-162387202D01*
X179373571Y-163863392D02*
X179409285Y-163791964D01*
X179409285Y-163672916D01*
X179373571Y-163625297D01*
X179337857Y-163601488D01*
X179266428Y-163577678D01*
X179195000Y-163577678D01*
X179123571Y-163601488D01*
X179087857Y-163625297D01*
X179052142Y-163672916D01*
X179016428Y-163768154D01*
X178980714Y-163815773D01*
X178945000Y-163839583D01*
X178873571Y-163863392D01*
X178802142Y-163863392D01*
X178730714Y-163839583D01*
X178695000Y-163815773D01*
X178659285Y-163768154D01*
X178659285Y-163649107D01*
X178695000Y-163577678D01*
X179409285Y-163363392D02*
X178659285Y-163363392D01*
X179409285Y-163077678D01*
X178659285Y-163077678D01*
X179373571Y-162863392D02*
X179409285Y-162791964D01*
X179409285Y-162672916D01*
X179373571Y-162625297D01*
X179337857Y-162601488D01*
X179266428Y-162577678D01*
X179195000Y-162577678D01*
X179123571Y-162601488D01*
X179087857Y-162625297D01*
X179052142Y-162672916D01*
X179016428Y-162768154D01*
X178980714Y-162815773D01*
X178945000Y-162839583D01*
X178873571Y-162863392D01*
X178802142Y-162863392D01*
X178730714Y-162839583D01*
X178695000Y-162815773D01*
X178659285Y-162768154D01*
X178659285Y-162649107D01*
X178695000Y-162577678D01*
X178659285Y-162125297D02*
X178659285Y-162363392D01*
X179016428Y-162387202D01*
X178980714Y-162363392D01*
X178945000Y-162315773D01*
X178945000Y-162196726D01*
X178980714Y-162149107D01*
X179016428Y-162125297D01*
X179087857Y-162101488D01*
X179266428Y-162101488D01*
X179337857Y-162125297D01*
X179373571Y-162149107D01*
X179409285Y-162196726D01*
X179409285Y-162315773D01*
X179373571Y-162363392D01*
X179337857Y-162387202D01*
X181195000Y-163149107D02*
X181159285Y-163196726D01*
X181159285Y-163268154D01*
X181195000Y-163339583D01*
X181266428Y-163387202D01*
X181337857Y-163411011D01*
X181480714Y-163434821D01*
X181587857Y-163434821D01*
X181730714Y-163411011D01*
X181802142Y-163387202D01*
X181873571Y-163339583D01*
X181909285Y-163268154D01*
X181909285Y-163220535D01*
X181873571Y-163149107D01*
X181837857Y-163125297D01*
X181587857Y-163125297D01*
X181587857Y-163220535D01*
X181909285Y-162911011D02*
X181159285Y-162911011D01*
X181909285Y-162625297D01*
X181159285Y-162625297D01*
X181909285Y-162387202D02*
X181159285Y-162387202D01*
X181159285Y-162268154D01*
X181195000Y-162196726D01*
X181266428Y-162149107D01*
X181337857Y-162125297D01*
X181480714Y-162101488D01*
X181587857Y-162101488D01*
X181730714Y-162125297D01*
X181802142Y-162149107D01*
X181873571Y-162196726D01*
X181909285Y-162268154D01*
X181909285Y-162387202D01*
X184373571Y-163863392D02*
X184409285Y-163791964D01*
X184409285Y-163672916D01*
X184373571Y-163625297D01*
X184337857Y-163601488D01*
X184266428Y-163577678D01*
X184195000Y-163577678D01*
X184123571Y-163601488D01*
X184087857Y-163625297D01*
X184052142Y-163672916D01*
X184016428Y-163768154D01*
X183980714Y-163815773D01*
X183945000Y-163839583D01*
X183873571Y-163863392D01*
X183802142Y-163863392D01*
X183730714Y-163839583D01*
X183695000Y-163815773D01*
X183659285Y-163768154D01*
X183659285Y-163649107D01*
X183695000Y-163577678D01*
X184409285Y-163363392D02*
X183659285Y-163363392D01*
X184409285Y-163077678D01*
X183659285Y-163077678D01*
X184373571Y-162863392D02*
X184409285Y-162791964D01*
X184409285Y-162672916D01*
X184373571Y-162625297D01*
X184337857Y-162601488D01*
X184266428Y-162577678D01*
X184195000Y-162577678D01*
X184123571Y-162601488D01*
X184087857Y-162625297D01*
X184052142Y-162672916D01*
X184016428Y-162768154D01*
X183980714Y-162815773D01*
X183945000Y-162839583D01*
X183873571Y-162863392D01*
X183802142Y-162863392D01*
X183730714Y-162839583D01*
X183695000Y-162815773D01*
X183659285Y-162768154D01*
X183659285Y-162649107D01*
X183695000Y-162577678D01*
X183659285Y-162149107D02*
X183659285Y-162244345D01*
X183695000Y-162291964D01*
X183730714Y-162315773D01*
X183837857Y-162363392D01*
X183980714Y-162387202D01*
X184266428Y-162387202D01*
X184337857Y-162363392D01*
X184373571Y-162339583D01*
X184409285Y-162291964D01*
X184409285Y-162196726D01*
X184373571Y-162149107D01*
X184337857Y-162125297D01*
X184266428Y-162101488D01*
X184087857Y-162101488D01*
X184016428Y-162125297D01*
X183980714Y-162149107D01*
X183945000Y-162196726D01*
X183945000Y-162291964D01*
X183980714Y-162339583D01*
X184016428Y-162363392D01*
X184087857Y-162387202D01*
X186195000Y-163149107D02*
X186159285Y-163196726D01*
X186159285Y-163268154D01*
X186195000Y-163339583D01*
X186266428Y-163387202D01*
X186337857Y-163411011D01*
X186480714Y-163434821D01*
X186587857Y-163434821D01*
X186730714Y-163411011D01*
X186802142Y-163387202D01*
X186873571Y-163339583D01*
X186909285Y-163268154D01*
X186909285Y-163220535D01*
X186873571Y-163149107D01*
X186837857Y-163125297D01*
X186587857Y-163125297D01*
X186587857Y-163220535D01*
X186909285Y-162911011D02*
X186159285Y-162911011D01*
X186909285Y-162625297D01*
X186159285Y-162625297D01*
X186909285Y-162387202D02*
X186159285Y-162387202D01*
X186159285Y-162268154D01*
X186195000Y-162196726D01*
X186266428Y-162149107D01*
X186337857Y-162125297D01*
X186480714Y-162101488D01*
X186587857Y-162101488D01*
X186730714Y-162125297D01*
X186802142Y-162149107D01*
X186873571Y-162196726D01*
X186909285Y-162268154D01*
X186909285Y-162387202D01*
D11*
X175014523Y-165504761D02*
X175157380Y-165552380D01*
X175395476Y-165552380D01*
X175490714Y-165504761D01*
X175538333Y-165457142D01*
X175585952Y-165361904D01*
X175585952Y-165266666D01*
X175538333Y-165171428D01*
X175490714Y-165123809D01*
X175395476Y-165076190D01*
X175205000Y-165028571D01*
X175109761Y-164980952D01*
X175062142Y-164933333D01*
X175014523Y-164838095D01*
X175014523Y-164742857D01*
X175062142Y-164647619D01*
X175109761Y-164600000D01*
X175205000Y-164552380D01*
X175443095Y-164552380D01*
X175585952Y-164600000D01*
X176395476Y-165504761D02*
X176300238Y-165552380D01*
X176109761Y-165552380D01*
X176014523Y-165504761D01*
X175966904Y-165409523D01*
X175966904Y-165028571D01*
X176014523Y-164933333D01*
X176109761Y-164885714D01*
X176300238Y-164885714D01*
X176395476Y-164933333D01*
X176443095Y-165028571D01*
X176443095Y-165123809D01*
X175966904Y-165219047D01*
X176871666Y-164885714D02*
X176871666Y-165552380D01*
X176871666Y-164980952D02*
X176919285Y-164933333D01*
X177014523Y-164885714D01*
X177157380Y-164885714D01*
X177252619Y-164933333D01*
X177300238Y-165028571D01*
X177300238Y-165552380D01*
X177728809Y-165504761D02*
X177824047Y-165552380D01*
X178014523Y-165552380D01*
X178109761Y-165504761D01*
X178157380Y-165409523D01*
X178157380Y-165361904D01*
X178109761Y-165266666D01*
X178014523Y-165219047D01*
X177871666Y-165219047D01*
X177776428Y-165171428D01*
X177728809Y-165076190D01*
X177728809Y-165028571D01*
X177776428Y-164933333D01*
X177871666Y-164885714D01*
X178014523Y-164885714D01*
X178109761Y-164933333D01*
X178728809Y-165552380D02*
X178633571Y-165504761D01*
X178585952Y-165457142D01*
X178538333Y-165361904D01*
X178538333Y-165076190D01*
X178585952Y-164980952D01*
X178633571Y-164933333D01*
X178728809Y-164885714D01*
X178871666Y-164885714D01*
X178966904Y-164933333D01*
X179014523Y-164980952D01*
X179062142Y-165076190D01*
X179062142Y-165361904D01*
X179014523Y-165457142D01*
X178966904Y-165504761D01*
X178871666Y-165552380D01*
X178728809Y-165552380D01*
X179490714Y-165552380D02*
X179490714Y-164885714D01*
X179490714Y-165076190D02*
X179538333Y-164980952D01*
X179585952Y-164933333D01*
X179681190Y-164885714D01*
X179776428Y-164885714D01*
X180062142Y-165504761D02*
X180157380Y-165552380D01*
X180347857Y-165552380D01*
X180443095Y-165504761D01*
X180490714Y-165409523D01*
X180490714Y-165361904D01*
X180443095Y-165266666D01*
X180347857Y-165219047D01*
X180205000Y-165219047D01*
X180109761Y-165171428D01*
X180062142Y-165076190D01*
X180062142Y-165028571D01*
X180109761Y-164933333D01*
X180205000Y-164885714D01*
X180347857Y-164885714D01*
X180443095Y-164933333D01*
X182157380Y-164552380D02*
X181681190Y-164552380D01*
X181633571Y-165028571D01*
X181681190Y-164980952D01*
X181776428Y-164933333D01*
X182014523Y-164933333D01*
X182109761Y-164980952D01*
X182157380Y-165028571D01*
X182205000Y-165123809D01*
X182205000Y-165361904D01*
X182157380Y-165457142D01*
X182109761Y-165504761D01*
X182014523Y-165552380D01*
X181776428Y-165552380D01*
X181681190Y-165504761D01*
X181633571Y-165457142D01*
X182633571Y-165171428D02*
X183395476Y-165171428D01*
X184014523Y-164980952D02*
X183919285Y-164933333D01*
X183871666Y-164885714D01*
X183824047Y-164790476D01*
X183824047Y-164742857D01*
X183871666Y-164647619D01*
X183919285Y-164600000D01*
X184014523Y-164552380D01*
X184205000Y-164552380D01*
X184300238Y-164600000D01*
X184347857Y-164647619D01*
X184395476Y-164742857D01*
X184395476Y-164790476D01*
X184347857Y-164885714D01*
X184300238Y-164933333D01*
X184205000Y-164980952D01*
X184014523Y-164980952D01*
X183919285Y-165028571D01*
X183871666Y-165076190D01*
X183824047Y-165171428D01*
X183824047Y-165361904D01*
X183871666Y-165457142D01*
X183919285Y-165504761D01*
X184014523Y-165552380D01*
X184205000Y-165552380D01*
X184300238Y-165504761D01*
X184347857Y-165457142D01*
X184395476Y-165361904D01*
X184395476Y-165171428D01*
X184347857Y-165076190D01*
X184300238Y-165028571D01*
X184205000Y-164980952D01*
D10*
X221959285Y-162553869D02*
X221959285Y-162791964D01*
X222316428Y-162815773D01*
X222280714Y-162791964D01*
X222245000Y-162744345D01*
X222245000Y-162625297D01*
X222280714Y-162577678D01*
X222316428Y-162553869D01*
X222387857Y-162530059D01*
X222566428Y-162530059D01*
X222637857Y-162553869D01*
X222673571Y-162577678D01*
X222709285Y-162625297D01*
X222709285Y-162744345D01*
X222673571Y-162791964D01*
X222637857Y-162815773D01*
X221959285Y-162387202D02*
X222709285Y-162220535D01*
X221959285Y-162053869D01*
X225209285Y-163958630D02*
X225209285Y-164196726D01*
X224459285Y-164196726D01*
X224816428Y-163791964D02*
X224816428Y-163625297D01*
X225209285Y-163553869D02*
X225209285Y-163791964D01*
X224459285Y-163791964D01*
X224459285Y-163553869D01*
X225209285Y-163339583D02*
X224459285Y-163339583D01*
X224459285Y-163220535D01*
X224495000Y-163149107D01*
X224566428Y-163101488D01*
X224637857Y-163077678D01*
X224780714Y-163053869D01*
X224887857Y-163053869D01*
X225030714Y-163077678D01*
X225102142Y-163101488D01*
X225173571Y-163149107D01*
X225209285Y-163220535D01*
X225209285Y-163339583D01*
X225209285Y-162577678D02*
X225209285Y-162863392D01*
X225209285Y-162720535D02*
X224459285Y-162720535D01*
X224566428Y-162768154D01*
X224637857Y-162815773D01*
X224673571Y-162863392D01*
X224459285Y-162411011D02*
X224459285Y-162101488D01*
X224745000Y-162268154D01*
X224745000Y-162196726D01*
X224780714Y-162149107D01*
X224816428Y-162125297D01*
X224887857Y-162101488D01*
X225066428Y-162101488D01*
X225137857Y-162125297D01*
X225173571Y-162149107D01*
X225209285Y-162196726D01*
X225209285Y-162339583D01*
X225173571Y-162387202D01*
X225137857Y-162411011D01*
X227709285Y-163958630D02*
X227709285Y-164196726D01*
X226959285Y-164196726D01*
X227316428Y-163791964D02*
X227316428Y-163625297D01*
X227709285Y-163553869D02*
X227709285Y-163791964D01*
X226959285Y-163791964D01*
X226959285Y-163553869D01*
X227709285Y-163339583D02*
X226959285Y-163339583D01*
X226959285Y-163220535D01*
X226995000Y-163149107D01*
X227066428Y-163101488D01*
X227137857Y-163077678D01*
X227280714Y-163053869D01*
X227387857Y-163053869D01*
X227530714Y-163077678D01*
X227602142Y-163101488D01*
X227673571Y-163149107D01*
X227709285Y-163220535D01*
X227709285Y-163339583D01*
X227709285Y-162577678D02*
X227709285Y-162863392D01*
X227709285Y-162720535D02*
X226959285Y-162720535D01*
X227066428Y-162768154D01*
X227137857Y-162815773D01*
X227173571Y-162863392D01*
X227209285Y-162149107D02*
X227709285Y-162149107D01*
X226923571Y-162268154D02*
X227459285Y-162387202D01*
X227459285Y-162077678D01*
X230173571Y-164339583D02*
X230209285Y-164268154D01*
X230209285Y-164149107D01*
X230173571Y-164101488D01*
X230137857Y-164077678D01*
X230066428Y-164053869D01*
X229995000Y-164053869D01*
X229923571Y-164077678D01*
X229887857Y-164101488D01*
X229852142Y-164149107D01*
X229816428Y-164244345D01*
X229780714Y-164291964D01*
X229745000Y-164315773D01*
X229673571Y-164339583D01*
X229602142Y-164339583D01*
X229530714Y-164315773D01*
X229495000Y-164291964D01*
X229459285Y-164244345D01*
X229459285Y-164125297D01*
X229495000Y-164053869D01*
X230209285Y-163839583D02*
X229459285Y-163839583D01*
X230209285Y-163553869D01*
X229459285Y-163553869D01*
X230173571Y-163339583D02*
X230209285Y-163268154D01*
X230209285Y-163149107D01*
X230173571Y-163101488D01*
X230137857Y-163077678D01*
X230066428Y-163053869D01*
X229995000Y-163053869D01*
X229923571Y-163077678D01*
X229887857Y-163101488D01*
X229852142Y-163149107D01*
X229816428Y-163244345D01*
X229780714Y-163291964D01*
X229745000Y-163315773D01*
X229673571Y-163339583D01*
X229602142Y-163339583D01*
X229530714Y-163315773D01*
X229495000Y-163291964D01*
X229459285Y-163244345D01*
X229459285Y-163125297D01*
X229495000Y-163053869D01*
X230209285Y-162577678D02*
X230209285Y-162863392D01*
X230209285Y-162720535D02*
X229459285Y-162720535D01*
X229566428Y-162768154D01*
X229637857Y-162815773D01*
X229673571Y-162863392D01*
X229459285Y-162411011D02*
X229459285Y-162101488D01*
X229745000Y-162268154D01*
X229745000Y-162196726D01*
X229780714Y-162149107D01*
X229816428Y-162125297D01*
X229887857Y-162101488D01*
X230066428Y-162101488D01*
X230137857Y-162125297D01*
X230173571Y-162149107D01*
X230209285Y-162196726D01*
X230209285Y-162339583D01*
X230173571Y-162387202D01*
X230137857Y-162411011D01*
X231995000Y-163149107D02*
X231959285Y-163196726D01*
X231959285Y-163268154D01*
X231995000Y-163339583D01*
X232066428Y-163387202D01*
X232137857Y-163411011D01*
X232280714Y-163434821D01*
X232387857Y-163434821D01*
X232530714Y-163411011D01*
X232602142Y-163387202D01*
X232673571Y-163339583D01*
X232709285Y-163268154D01*
X232709285Y-163220535D01*
X232673571Y-163149107D01*
X232637857Y-163125297D01*
X232387857Y-163125297D01*
X232387857Y-163220535D01*
X232709285Y-162911011D02*
X231959285Y-162911011D01*
X232709285Y-162625297D01*
X231959285Y-162625297D01*
X232709285Y-162387202D02*
X231959285Y-162387202D01*
X231959285Y-162268154D01*
X231995000Y-162196726D01*
X232066428Y-162149107D01*
X232137857Y-162125297D01*
X232280714Y-162101488D01*
X232387857Y-162101488D01*
X232530714Y-162125297D01*
X232602142Y-162149107D01*
X232673571Y-162196726D01*
X232709285Y-162268154D01*
X232709285Y-162387202D01*
X235173571Y-164339583D02*
X235209285Y-164268154D01*
X235209285Y-164149107D01*
X235173571Y-164101488D01*
X235137857Y-164077678D01*
X235066428Y-164053869D01*
X234995000Y-164053869D01*
X234923571Y-164077678D01*
X234887857Y-164101488D01*
X234852142Y-164149107D01*
X234816428Y-164244345D01*
X234780714Y-164291964D01*
X234745000Y-164315773D01*
X234673571Y-164339583D01*
X234602142Y-164339583D01*
X234530714Y-164315773D01*
X234495000Y-164291964D01*
X234459285Y-164244345D01*
X234459285Y-164125297D01*
X234495000Y-164053869D01*
X235209285Y-163839583D02*
X234459285Y-163839583D01*
X235209285Y-163553869D01*
X234459285Y-163553869D01*
X235173571Y-163339583D02*
X235209285Y-163268154D01*
X235209285Y-163149107D01*
X235173571Y-163101488D01*
X235137857Y-163077678D01*
X235066428Y-163053869D01*
X234995000Y-163053869D01*
X234923571Y-163077678D01*
X234887857Y-163101488D01*
X234852142Y-163149107D01*
X234816428Y-163244345D01*
X234780714Y-163291964D01*
X234745000Y-163315773D01*
X234673571Y-163339583D01*
X234602142Y-163339583D01*
X234530714Y-163315773D01*
X234495000Y-163291964D01*
X234459285Y-163244345D01*
X234459285Y-163125297D01*
X234495000Y-163053869D01*
X235209285Y-162577678D02*
X235209285Y-162863392D01*
X235209285Y-162720535D02*
X234459285Y-162720535D01*
X234566428Y-162768154D01*
X234637857Y-162815773D01*
X234673571Y-162863392D01*
X234709285Y-162149107D02*
X235209285Y-162149107D01*
X234423571Y-162268154D02*
X234959285Y-162387202D01*
X234959285Y-162077678D01*
X236995000Y-163149107D02*
X236959285Y-163196726D01*
X236959285Y-163268154D01*
X236995000Y-163339583D01*
X237066428Y-163387202D01*
X237137857Y-163411011D01*
X237280714Y-163434821D01*
X237387857Y-163434821D01*
X237530714Y-163411011D01*
X237602142Y-163387202D01*
X237673571Y-163339583D01*
X237709285Y-163268154D01*
X237709285Y-163220535D01*
X237673571Y-163149107D01*
X237637857Y-163125297D01*
X237387857Y-163125297D01*
X237387857Y-163220535D01*
X237709285Y-162911011D02*
X236959285Y-162911011D01*
X237709285Y-162625297D01*
X236959285Y-162625297D01*
X237709285Y-162387202D02*
X236959285Y-162387202D01*
X236959285Y-162268154D01*
X236995000Y-162196726D01*
X237066428Y-162149107D01*
X237137857Y-162125297D01*
X237280714Y-162101488D01*
X237387857Y-162101488D01*
X237530714Y-162125297D01*
X237602142Y-162149107D01*
X237673571Y-162196726D01*
X237709285Y-162268154D01*
X237709285Y-162387202D01*
D11*
X148979523Y-165504761D02*
X149122380Y-165552380D01*
X149360476Y-165552380D01*
X149455714Y-165504761D01*
X149503333Y-165457142D01*
X149550952Y-165361904D01*
X149550952Y-165266666D01*
X149503333Y-165171428D01*
X149455714Y-165123809D01*
X149360476Y-165076190D01*
X149170000Y-165028571D01*
X149074761Y-164980952D01*
X149027142Y-164933333D01*
X148979523Y-164838095D01*
X148979523Y-164742857D01*
X149027142Y-164647619D01*
X149074761Y-164600000D01*
X149170000Y-164552380D01*
X149408095Y-164552380D01*
X149550952Y-164600000D01*
X150360476Y-165504761D02*
X150265238Y-165552380D01*
X150074761Y-165552380D01*
X149979523Y-165504761D01*
X149931904Y-165409523D01*
X149931904Y-165028571D01*
X149979523Y-164933333D01*
X150074761Y-164885714D01*
X150265238Y-164885714D01*
X150360476Y-164933333D01*
X150408095Y-165028571D01*
X150408095Y-165123809D01*
X149931904Y-165219047D01*
X150836666Y-164885714D02*
X150836666Y-165552380D01*
X150836666Y-164980952D02*
X150884285Y-164933333D01*
X150979523Y-164885714D01*
X151122380Y-164885714D01*
X151217619Y-164933333D01*
X151265238Y-165028571D01*
X151265238Y-165552380D01*
X151693809Y-165504761D02*
X151789047Y-165552380D01*
X151979523Y-165552380D01*
X152074761Y-165504761D01*
X152122380Y-165409523D01*
X152122380Y-165361904D01*
X152074761Y-165266666D01*
X151979523Y-165219047D01*
X151836666Y-165219047D01*
X151741428Y-165171428D01*
X151693809Y-165076190D01*
X151693809Y-165028571D01*
X151741428Y-164933333D01*
X151836666Y-164885714D01*
X151979523Y-164885714D01*
X152074761Y-164933333D01*
X152693809Y-165552380D02*
X152598571Y-165504761D01*
X152550952Y-165457142D01*
X152503333Y-165361904D01*
X152503333Y-165076190D01*
X152550952Y-164980952D01*
X152598571Y-164933333D01*
X152693809Y-164885714D01*
X152836666Y-164885714D01*
X152931904Y-164933333D01*
X152979523Y-164980952D01*
X153027142Y-165076190D01*
X153027142Y-165361904D01*
X152979523Y-165457142D01*
X152931904Y-165504761D01*
X152836666Y-165552380D01*
X152693809Y-165552380D01*
X153455714Y-165552380D02*
X153455714Y-164885714D01*
X153455714Y-165076190D02*
X153503333Y-164980952D01*
X153550952Y-164933333D01*
X153646190Y-164885714D01*
X153741428Y-164885714D01*
X154027142Y-165504761D02*
X154122380Y-165552380D01*
X154312857Y-165552380D01*
X154408095Y-165504761D01*
X154455714Y-165409523D01*
X154455714Y-165361904D01*
X154408095Y-165266666D01*
X154312857Y-165219047D01*
X154170000Y-165219047D01*
X154074761Y-165171428D01*
X154027142Y-165076190D01*
X154027142Y-165028571D01*
X154074761Y-164933333D01*
X154170000Y-164885714D01*
X154312857Y-164885714D01*
X154408095Y-164933333D01*
X156170000Y-165552380D02*
X155598571Y-165552380D01*
X155884285Y-165552380D02*
X155884285Y-164552380D01*
X155789047Y-164695238D01*
X155693809Y-164790476D01*
X155598571Y-164838095D01*
X156598571Y-165171428D02*
X157360476Y-165171428D01*
X158265238Y-164885714D02*
X158265238Y-165552380D01*
X158027142Y-164504761D02*
X157789047Y-165219047D01*
X158408095Y-165219047D01*
X224862142Y-165504761D02*
X225005000Y-165552380D01*
X225243095Y-165552380D01*
X225338333Y-165504761D01*
X225385952Y-165457142D01*
X225433571Y-165361904D01*
X225433571Y-165266666D01*
X225385952Y-165171428D01*
X225338333Y-165123809D01*
X225243095Y-165076190D01*
X225052619Y-165028571D01*
X224957380Y-164980952D01*
X224909761Y-164933333D01*
X224862142Y-164838095D01*
X224862142Y-164742857D01*
X224909761Y-164647619D01*
X224957380Y-164600000D01*
X225052619Y-164552380D01*
X225290714Y-164552380D01*
X225433571Y-164600000D01*
X226243095Y-165504761D02*
X226147857Y-165552380D01*
X225957380Y-165552380D01*
X225862142Y-165504761D01*
X225814523Y-165409523D01*
X225814523Y-165028571D01*
X225862142Y-164933333D01*
X225957380Y-164885714D01*
X226147857Y-164885714D01*
X226243095Y-164933333D01*
X226290714Y-165028571D01*
X226290714Y-165123809D01*
X225814523Y-165219047D01*
X226719285Y-164885714D02*
X226719285Y-165552380D01*
X226719285Y-164980952D02*
X226766904Y-164933333D01*
X226862142Y-164885714D01*
X227005000Y-164885714D01*
X227100238Y-164933333D01*
X227147857Y-165028571D01*
X227147857Y-165552380D01*
X227576428Y-165504761D02*
X227671666Y-165552380D01*
X227862142Y-165552380D01*
X227957380Y-165504761D01*
X228005000Y-165409523D01*
X228005000Y-165361904D01*
X227957380Y-165266666D01*
X227862142Y-165219047D01*
X227719285Y-165219047D01*
X227624047Y-165171428D01*
X227576428Y-165076190D01*
X227576428Y-165028571D01*
X227624047Y-164933333D01*
X227719285Y-164885714D01*
X227862142Y-164885714D01*
X227957380Y-164933333D01*
X228576428Y-165552380D02*
X228481190Y-165504761D01*
X228433571Y-165457142D01*
X228385952Y-165361904D01*
X228385952Y-165076190D01*
X228433571Y-164980952D01*
X228481190Y-164933333D01*
X228576428Y-164885714D01*
X228719285Y-164885714D01*
X228814523Y-164933333D01*
X228862142Y-164980952D01*
X228909761Y-165076190D01*
X228909761Y-165361904D01*
X228862142Y-165457142D01*
X228814523Y-165504761D01*
X228719285Y-165552380D01*
X228576428Y-165552380D01*
X229338333Y-165552380D02*
X229338333Y-164885714D01*
X229338333Y-165076190D02*
X229385952Y-164980952D01*
X229433571Y-164933333D01*
X229528809Y-164885714D01*
X229624047Y-164885714D01*
X229909761Y-165504761D02*
X230005000Y-165552380D01*
X230195476Y-165552380D01*
X230290714Y-165504761D01*
X230338333Y-165409523D01*
X230338333Y-165361904D01*
X230290714Y-165266666D01*
X230195476Y-165219047D01*
X230052619Y-165219047D01*
X229957380Y-165171428D01*
X229909761Y-165076190D01*
X229909761Y-165028571D01*
X229957380Y-164933333D01*
X230052619Y-164885714D01*
X230195476Y-164885714D01*
X230290714Y-164933333D01*
X232052619Y-165552380D02*
X231481190Y-165552380D01*
X231766904Y-165552380D02*
X231766904Y-164552380D01*
X231671666Y-164695238D01*
X231576428Y-164790476D01*
X231481190Y-164838095D01*
X232385952Y-164552380D02*
X233005000Y-164552380D01*
X232671666Y-164933333D01*
X232814523Y-164933333D01*
X232909761Y-164980952D01*
X232957380Y-165028571D01*
X233005000Y-165123809D01*
X233005000Y-165361904D01*
X232957380Y-165457142D01*
X232909761Y-165504761D01*
X232814523Y-165552380D01*
X232528809Y-165552380D01*
X232433571Y-165504761D01*
X232385952Y-165457142D01*
X233433571Y-165171428D02*
X234195476Y-165171428D01*
X235195476Y-165552380D02*
X234624047Y-165552380D01*
X234909761Y-165552380D02*
X234909761Y-164552380D01*
X234814523Y-164695238D01*
X234719285Y-164790476D01*
X234624047Y-164838095D01*
X236052619Y-164552380D02*
X235862142Y-164552380D01*
X235766904Y-164600000D01*
X235719285Y-164647619D01*
X235624047Y-164790476D01*
X235576428Y-164980952D01*
X235576428Y-165361904D01*
X235624047Y-165457142D01*
X235671666Y-165504761D01*
X235766904Y-165552380D01*
X235957380Y-165552380D01*
X236052619Y-165504761D01*
X236100238Y-165457142D01*
X236147857Y-165361904D01*
X236147857Y-165123809D01*
X236100238Y-165028571D01*
X236052619Y-164980952D01*
X235957380Y-164933333D01*
X235766904Y-164933333D01*
X235671666Y-164980952D01*
X235624047Y-165028571D01*
X235576428Y-165123809D01*
X199938333Y-165504761D02*
X200081190Y-165552380D01*
X200319285Y-165552380D01*
X200414523Y-165504761D01*
X200462142Y-165457142D01*
X200509761Y-165361904D01*
X200509761Y-165266666D01*
X200462142Y-165171428D01*
X200414523Y-165123809D01*
X200319285Y-165076190D01*
X200128809Y-165028571D01*
X200033571Y-164980952D01*
X199985952Y-164933333D01*
X199938333Y-164838095D01*
X199938333Y-164742857D01*
X199985952Y-164647619D01*
X200033571Y-164600000D01*
X200128809Y-164552380D01*
X200366904Y-164552380D01*
X200509761Y-164600000D01*
X201319285Y-165504761D02*
X201224047Y-165552380D01*
X201033571Y-165552380D01*
X200938333Y-165504761D01*
X200890714Y-165409523D01*
X200890714Y-165028571D01*
X200938333Y-164933333D01*
X201033571Y-164885714D01*
X201224047Y-164885714D01*
X201319285Y-164933333D01*
X201366904Y-165028571D01*
X201366904Y-165123809D01*
X200890714Y-165219047D01*
X201795476Y-164885714D02*
X201795476Y-165552380D01*
X201795476Y-164980952D02*
X201843095Y-164933333D01*
X201938333Y-164885714D01*
X202081190Y-164885714D01*
X202176428Y-164933333D01*
X202224047Y-165028571D01*
X202224047Y-165552380D01*
X202652619Y-165504761D02*
X202747857Y-165552380D01*
X202938333Y-165552380D01*
X203033571Y-165504761D01*
X203081190Y-165409523D01*
X203081190Y-165361904D01*
X203033571Y-165266666D01*
X202938333Y-165219047D01*
X202795476Y-165219047D01*
X202700238Y-165171428D01*
X202652619Y-165076190D01*
X202652619Y-165028571D01*
X202700238Y-164933333D01*
X202795476Y-164885714D01*
X202938333Y-164885714D01*
X203033571Y-164933333D01*
X203652619Y-165552380D02*
X203557380Y-165504761D01*
X203509761Y-165457142D01*
X203462142Y-165361904D01*
X203462142Y-165076190D01*
X203509761Y-164980952D01*
X203557380Y-164933333D01*
X203652619Y-164885714D01*
X203795476Y-164885714D01*
X203890714Y-164933333D01*
X203938333Y-164980952D01*
X203985952Y-165076190D01*
X203985952Y-165361904D01*
X203938333Y-165457142D01*
X203890714Y-165504761D01*
X203795476Y-165552380D01*
X203652619Y-165552380D01*
X204414523Y-165552380D02*
X204414523Y-164885714D01*
X204414523Y-165076190D02*
X204462142Y-164980952D01*
X204509761Y-164933333D01*
X204605000Y-164885714D01*
X204700238Y-164885714D01*
X204985952Y-165504761D02*
X205081190Y-165552380D01*
X205271666Y-165552380D01*
X205366904Y-165504761D01*
X205414523Y-165409523D01*
X205414523Y-165361904D01*
X205366904Y-165266666D01*
X205271666Y-165219047D01*
X205128809Y-165219047D01*
X205033571Y-165171428D01*
X204985952Y-165076190D01*
X204985952Y-165028571D01*
X205033571Y-164933333D01*
X205128809Y-164885714D01*
X205271666Y-164885714D01*
X205366904Y-164933333D01*
X206652619Y-165552380D02*
X206843095Y-165552380D01*
X206938333Y-165504761D01*
X206985952Y-165457142D01*
X207081190Y-165314285D01*
X207128809Y-165123809D01*
X207128809Y-164742857D01*
X207081190Y-164647619D01*
X207033571Y-164600000D01*
X206938333Y-164552380D01*
X206747857Y-164552380D01*
X206652619Y-164600000D01*
X206605000Y-164647619D01*
X206557380Y-164742857D01*
X206557380Y-164980952D01*
X206605000Y-165076190D01*
X206652619Y-165123809D01*
X206747857Y-165171428D01*
X206938333Y-165171428D01*
X207033571Y-165123809D01*
X207081190Y-165076190D01*
X207128809Y-164980952D01*
X207557380Y-165171428D02*
X208319285Y-165171428D01*
X209319285Y-165552380D02*
X208747857Y-165552380D01*
X209033571Y-165552380D02*
X209033571Y-164552380D01*
X208938333Y-164695238D01*
X208843095Y-164790476D01*
X208747857Y-164838095D01*
X209700238Y-164647619D02*
X209747857Y-164600000D01*
X209843095Y-164552380D01*
X210081190Y-164552380D01*
X210176428Y-164600000D01*
X210224047Y-164647619D01*
X210271666Y-164742857D01*
X210271666Y-164838095D01*
X210224047Y-164980952D01*
X209652619Y-165552380D01*
X210271666Y-165552380D01*
D10*
X221959285Y-156406607D02*
X221959285Y-156644702D01*
X222316428Y-156668511D01*
X222280714Y-156644702D01*
X222245000Y-156597083D01*
X222245000Y-156478035D01*
X222280714Y-156430416D01*
X222316428Y-156406607D01*
X222387857Y-156382797D01*
X222566428Y-156382797D01*
X222637857Y-156406607D01*
X222673571Y-156430416D01*
X222709285Y-156478035D01*
X222709285Y-156597083D01*
X222673571Y-156644702D01*
X222637857Y-156668511D01*
X221959285Y-156239940D02*
X222709285Y-156073273D01*
X221959285Y-155906607D01*
X225209285Y-156406607D02*
X225209285Y-156644702D01*
X224459285Y-156644702D01*
X224816428Y-156239940D02*
X224816428Y-156073273D01*
X225209285Y-156001845D02*
X225209285Y-156239940D01*
X224459285Y-156239940D01*
X224459285Y-156001845D01*
X225209285Y-155787559D02*
X224459285Y-155787559D01*
X224459285Y-155668511D01*
X224495000Y-155597083D01*
X224566428Y-155549464D01*
X224637857Y-155525654D01*
X224780714Y-155501845D01*
X224887857Y-155501845D01*
X225030714Y-155525654D01*
X225102142Y-155549464D01*
X225173571Y-155597083D01*
X225209285Y-155668511D01*
X225209285Y-155787559D01*
X225209285Y-155025654D02*
X225209285Y-155311369D01*
X225209285Y-155168511D02*
X224459285Y-155168511D01*
X224566428Y-155216130D01*
X224637857Y-155263750D01*
X224673571Y-155311369D01*
X224459285Y-154573273D02*
X224459285Y-154811369D01*
X224816428Y-154835178D01*
X224780714Y-154811369D01*
X224745000Y-154763750D01*
X224745000Y-154644702D01*
X224780714Y-154597083D01*
X224816428Y-154573273D01*
X224887857Y-154549464D01*
X225066428Y-154549464D01*
X225137857Y-154573273D01*
X225173571Y-154597083D01*
X225209285Y-154644702D01*
X225209285Y-154763750D01*
X225173571Y-154811369D01*
X225137857Y-154835178D01*
X227709285Y-156406607D02*
X227709285Y-156644702D01*
X226959285Y-156644702D01*
X227316428Y-156239940D02*
X227316428Y-156073273D01*
X227709285Y-156001845D02*
X227709285Y-156239940D01*
X226959285Y-156239940D01*
X226959285Y-156001845D01*
X227709285Y-155787559D02*
X226959285Y-155787559D01*
X226959285Y-155668511D01*
X226995000Y-155597083D01*
X227066428Y-155549464D01*
X227137857Y-155525654D01*
X227280714Y-155501845D01*
X227387857Y-155501845D01*
X227530714Y-155525654D01*
X227602142Y-155549464D01*
X227673571Y-155597083D01*
X227709285Y-155668511D01*
X227709285Y-155787559D01*
X227709285Y-155025654D02*
X227709285Y-155311369D01*
X227709285Y-155168511D02*
X226959285Y-155168511D01*
X227066428Y-155216130D01*
X227137857Y-155263750D01*
X227173571Y-155311369D01*
X226959285Y-154597083D02*
X226959285Y-154692321D01*
X226995000Y-154739940D01*
X227030714Y-154763750D01*
X227137857Y-154811369D01*
X227280714Y-154835178D01*
X227566428Y-154835178D01*
X227637857Y-154811369D01*
X227673571Y-154787559D01*
X227709285Y-154739940D01*
X227709285Y-154644702D01*
X227673571Y-154597083D01*
X227637857Y-154573273D01*
X227566428Y-154549464D01*
X227387857Y-154549464D01*
X227316428Y-154573273D01*
X227280714Y-154597083D01*
X227245000Y-154644702D01*
X227245000Y-154739940D01*
X227280714Y-154787559D01*
X227316428Y-154811369D01*
X227387857Y-154835178D01*
X229495000Y-156382797D02*
X229459285Y-156430416D01*
X229459285Y-156501845D01*
X229495000Y-156573273D01*
X229566428Y-156620892D01*
X229637857Y-156644702D01*
X229780714Y-156668511D01*
X229887857Y-156668511D01*
X230030714Y-156644702D01*
X230102142Y-156620892D01*
X230173571Y-156573273D01*
X230209285Y-156501845D01*
X230209285Y-156454226D01*
X230173571Y-156382797D01*
X230137857Y-156358988D01*
X229887857Y-156358988D01*
X229887857Y-156454226D01*
X230209285Y-156144702D02*
X229459285Y-156144702D01*
X230209285Y-155858988D01*
X229459285Y-155858988D01*
X230209285Y-155620892D02*
X229459285Y-155620892D01*
X229459285Y-155501845D01*
X229495000Y-155430416D01*
X229566428Y-155382797D01*
X229637857Y-155358988D01*
X229780714Y-155335178D01*
X229887857Y-155335178D01*
X230030714Y-155358988D01*
X230102142Y-155382797D01*
X230173571Y-155430416D01*
X230209285Y-155501845D01*
X230209285Y-155620892D01*
X232673571Y-156668511D02*
X232709285Y-156597083D01*
X232709285Y-156478035D01*
X232673571Y-156430416D01*
X232637857Y-156406607D01*
X232566428Y-156382797D01*
X232495000Y-156382797D01*
X232423571Y-156406607D01*
X232387857Y-156430416D01*
X232352142Y-156478035D01*
X232316428Y-156573273D01*
X232280714Y-156620892D01*
X232245000Y-156644702D01*
X232173571Y-156668511D01*
X232102142Y-156668511D01*
X232030714Y-156644702D01*
X231995000Y-156620892D01*
X231959285Y-156573273D01*
X231959285Y-156454226D01*
X231995000Y-156382797D01*
X232709285Y-156168511D02*
X231959285Y-156168511D01*
X232709285Y-155882797D01*
X231959285Y-155882797D01*
X232673571Y-155668511D02*
X232709285Y-155597083D01*
X232709285Y-155478035D01*
X232673571Y-155430416D01*
X232637857Y-155406607D01*
X232566428Y-155382797D01*
X232495000Y-155382797D01*
X232423571Y-155406607D01*
X232387857Y-155430416D01*
X232352142Y-155478035D01*
X232316428Y-155573273D01*
X232280714Y-155620892D01*
X232245000Y-155644702D01*
X232173571Y-155668511D01*
X232102142Y-155668511D01*
X232030714Y-155644702D01*
X231995000Y-155620892D01*
X231959285Y-155573273D01*
X231959285Y-155454226D01*
X231995000Y-155382797D01*
X232709285Y-154906607D02*
X232709285Y-155192321D01*
X232709285Y-155049464D02*
X231959285Y-155049464D01*
X232066428Y-155097083D01*
X232137857Y-155144702D01*
X232173571Y-155192321D01*
X231959285Y-154454226D02*
X231959285Y-154692321D01*
X232316428Y-154716130D01*
X232280714Y-154692321D01*
X232245000Y-154644702D01*
X232245000Y-154525654D01*
X232280714Y-154478035D01*
X232316428Y-154454226D01*
X232387857Y-154430416D01*
X232566428Y-154430416D01*
X232637857Y-154454226D01*
X232673571Y-154478035D01*
X232709285Y-154525654D01*
X232709285Y-154644702D01*
X232673571Y-154692321D01*
X232637857Y-154716130D01*
X234495000Y-156382797D02*
X234459285Y-156430416D01*
X234459285Y-156501845D01*
X234495000Y-156573273D01*
X234566428Y-156620892D01*
X234637857Y-156644702D01*
X234780714Y-156668511D01*
X234887857Y-156668511D01*
X235030714Y-156644702D01*
X235102142Y-156620892D01*
X235173571Y-156573273D01*
X235209285Y-156501845D01*
X235209285Y-156454226D01*
X235173571Y-156382797D01*
X235137857Y-156358988D01*
X234887857Y-156358988D01*
X234887857Y-156454226D01*
X235209285Y-156144702D02*
X234459285Y-156144702D01*
X235209285Y-155858988D01*
X234459285Y-155858988D01*
X235209285Y-155620892D02*
X234459285Y-155620892D01*
X234459285Y-155501845D01*
X234495000Y-155430416D01*
X234566428Y-155382797D01*
X234637857Y-155358988D01*
X234780714Y-155335178D01*
X234887857Y-155335178D01*
X235030714Y-155358988D01*
X235102142Y-155382797D01*
X235173571Y-155430416D01*
X235209285Y-155501845D01*
X235209285Y-155620892D01*
X237673571Y-156668511D02*
X237709285Y-156597083D01*
X237709285Y-156478035D01*
X237673571Y-156430416D01*
X237637857Y-156406607D01*
X237566428Y-156382797D01*
X237495000Y-156382797D01*
X237423571Y-156406607D01*
X237387857Y-156430416D01*
X237352142Y-156478035D01*
X237316428Y-156573273D01*
X237280714Y-156620892D01*
X237245000Y-156644702D01*
X237173571Y-156668511D01*
X237102142Y-156668511D01*
X237030714Y-156644702D01*
X236995000Y-156620892D01*
X236959285Y-156573273D01*
X236959285Y-156454226D01*
X236995000Y-156382797D01*
X237709285Y-156168511D02*
X236959285Y-156168511D01*
X237709285Y-155882797D01*
X236959285Y-155882797D01*
X237673571Y-155668511D02*
X237709285Y-155597083D01*
X237709285Y-155478035D01*
X237673571Y-155430416D01*
X237637857Y-155406607D01*
X237566428Y-155382797D01*
X237495000Y-155382797D01*
X237423571Y-155406607D01*
X237387857Y-155430416D01*
X237352142Y-155478035D01*
X237316428Y-155573273D01*
X237280714Y-155620892D01*
X237245000Y-155644702D01*
X237173571Y-155668511D01*
X237102142Y-155668511D01*
X237030714Y-155644702D01*
X236995000Y-155620892D01*
X236959285Y-155573273D01*
X236959285Y-155454226D01*
X236995000Y-155382797D01*
X237709285Y-154906607D02*
X237709285Y-155192321D01*
X237709285Y-155049464D02*
X236959285Y-155049464D01*
X237066428Y-155097083D01*
X237137857Y-155144702D01*
X237173571Y-155192321D01*
X236959285Y-154478035D02*
X236959285Y-154573273D01*
X236995000Y-154620892D01*
X237030714Y-154644702D01*
X237137857Y-154692321D01*
X237280714Y-154716130D01*
X237566428Y-154716130D01*
X237637857Y-154692321D01*
X237673571Y-154668511D01*
X237709285Y-154620892D01*
X237709285Y-154525654D01*
X237673571Y-154478035D01*
X237637857Y-154454226D01*
X237566428Y-154430416D01*
X237387857Y-154430416D01*
X237316428Y-154454226D01*
X237280714Y-154478035D01*
X237245000Y-154525654D01*
X237245000Y-154620892D01*
X237280714Y-154668511D01*
X237316428Y-154692321D01*
X237387857Y-154716130D01*
X196559285Y-162553869D02*
X196559285Y-162791964D01*
X196916428Y-162815773D01*
X196880714Y-162791964D01*
X196845000Y-162744345D01*
X196845000Y-162625297D01*
X196880714Y-162577678D01*
X196916428Y-162553869D01*
X196987857Y-162530059D01*
X197166428Y-162530059D01*
X197237857Y-162553869D01*
X197273571Y-162577678D01*
X197309285Y-162625297D01*
X197309285Y-162744345D01*
X197273571Y-162791964D01*
X197237857Y-162815773D01*
X196559285Y-162387202D02*
X197309285Y-162220535D01*
X196559285Y-162053869D01*
X199809285Y-163482440D02*
X199809285Y-163720535D01*
X199059285Y-163720535D01*
X199416428Y-163315773D02*
X199416428Y-163149107D01*
X199809285Y-163077678D02*
X199809285Y-163315773D01*
X199059285Y-163315773D01*
X199059285Y-163077678D01*
X199809285Y-162863392D02*
X199059285Y-162863392D01*
X199059285Y-162744345D01*
X199095000Y-162672916D01*
X199166428Y-162625297D01*
X199237857Y-162601488D01*
X199380714Y-162577678D01*
X199487857Y-162577678D01*
X199630714Y-162601488D01*
X199702142Y-162625297D01*
X199773571Y-162672916D01*
X199809285Y-162744345D01*
X199809285Y-162863392D01*
X199809285Y-162339583D02*
X199809285Y-162244345D01*
X199773571Y-162196726D01*
X199737857Y-162172916D01*
X199630714Y-162125297D01*
X199487857Y-162101488D01*
X199202142Y-162101488D01*
X199130714Y-162125297D01*
X199095000Y-162149107D01*
X199059285Y-162196726D01*
X199059285Y-162291964D01*
X199095000Y-162339583D01*
X199130714Y-162363392D01*
X199202142Y-162387202D01*
X199380714Y-162387202D01*
X199452142Y-162363392D01*
X199487857Y-162339583D01*
X199523571Y-162291964D01*
X199523571Y-162196726D01*
X199487857Y-162149107D01*
X199452142Y-162125297D01*
X199380714Y-162101488D01*
X202309285Y-163958630D02*
X202309285Y-164196726D01*
X201559285Y-164196726D01*
X201916428Y-163791964D02*
X201916428Y-163625297D01*
X202309285Y-163553869D02*
X202309285Y-163791964D01*
X201559285Y-163791964D01*
X201559285Y-163553869D01*
X202309285Y-163339583D02*
X201559285Y-163339583D01*
X201559285Y-163220535D01*
X201595000Y-163149107D01*
X201666428Y-163101488D01*
X201737857Y-163077678D01*
X201880714Y-163053869D01*
X201987857Y-163053869D01*
X202130714Y-163077678D01*
X202202142Y-163101488D01*
X202273571Y-163149107D01*
X202309285Y-163220535D01*
X202309285Y-163339583D01*
X202309285Y-162577678D02*
X202309285Y-162863392D01*
X202309285Y-162720535D02*
X201559285Y-162720535D01*
X201666428Y-162768154D01*
X201737857Y-162815773D01*
X201773571Y-162863392D01*
X201559285Y-162268154D02*
X201559285Y-162220535D01*
X201595000Y-162172916D01*
X201630714Y-162149107D01*
X201702142Y-162125297D01*
X201845000Y-162101488D01*
X202023571Y-162101488D01*
X202166428Y-162125297D01*
X202237857Y-162149107D01*
X202273571Y-162172916D01*
X202309285Y-162220535D01*
X202309285Y-162268154D01*
X202273571Y-162315773D01*
X202237857Y-162339583D01*
X202166428Y-162363392D01*
X202023571Y-162387202D01*
X201845000Y-162387202D01*
X201702142Y-162363392D01*
X201630714Y-162339583D01*
X201595000Y-162315773D01*
X201559285Y-162268154D01*
X204773571Y-163863392D02*
X204809285Y-163791964D01*
X204809285Y-163672916D01*
X204773571Y-163625297D01*
X204737857Y-163601488D01*
X204666428Y-163577678D01*
X204595000Y-163577678D01*
X204523571Y-163601488D01*
X204487857Y-163625297D01*
X204452142Y-163672916D01*
X204416428Y-163768154D01*
X204380714Y-163815773D01*
X204345000Y-163839583D01*
X204273571Y-163863392D01*
X204202142Y-163863392D01*
X204130714Y-163839583D01*
X204095000Y-163815773D01*
X204059285Y-163768154D01*
X204059285Y-163649107D01*
X204095000Y-163577678D01*
X204809285Y-163363392D02*
X204059285Y-163363392D01*
X204809285Y-163077678D01*
X204059285Y-163077678D01*
X204773571Y-162863392D02*
X204809285Y-162791964D01*
X204809285Y-162672916D01*
X204773571Y-162625297D01*
X204737857Y-162601488D01*
X204666428Y-162577678D01*
X204595000Y-162577678D01*
X204523571Y-162601488D01*
X204487857Y-162625297D01*
X204452142Y-162672916D01*
X204416428Y-162768154D01*
X204380714Y-162815773D01*
X204345000Y-162839583D01*
X204273571Y-162863392D01*
X204202142Y-162863392D01*
X204130714Y-162839583D01*
X204095000Y-162815773D01*
X204059285Y-162768154D01*
X204059285Y-162649107D01*
X204095000Y-162577678D01*
X204809285Y-162339583D02*
X204809285Y-162244345D01*
X204773571Y-162196726D01*
X204737857Y-162172916D01*
X204630714Y-162125297D01*
X204487857Y-162101488D01*
X204202142Y-162101488D01*
X204130714Y-162125297D01*
X204095000Y-162149107D01*
X204059285Y-162196726D01*
X204059285Y-162291964D01*
X204095000Y-162339583D01*
X204130714Y-162363392D01*
X204202142Y-162387202D01*
X204380714Y-162387202D01*
X204452142Y-162363392D01*
X204487857Y-162339583D01*
X204523571Y-162291964D01*
X204523571Y-162196726D01*
X204487857Y-162149107D01*
X204452142Y-162125297D01*
X204380714Y-162101488D01*
X206595000Y-163149107D02*
X206559285Y-163196726D01*
X206559285Y-163268154D01*
X206595000Y-163339583D01*
X206666428Y-163387202D01*
X206737857Y-163411011D01*
X206880714Y-163434821D01*
X206987857Y-163434821D01*
X207130714Y-163411011D01*
X207202142Y-163387202D01*
X207273571Y-163339583D01*
X207309285Y-163268154D01*
X207309285Y-163220535D01*
X207273571Y-163149107D01*
X207237857Y-163125297D01*
X206987857Y-163125297D01*
X206987857Y-163220535D01*
X207309285Y-162911011D02*
X206559285Y-162911011D01*
X207309285Y-162625297D01*
X206559285Y-162625297D01*
X207309285Y-162387202D02*
X206559285Y-162387202D01*
X206559285Y-162268154D01*
X206595000Y-162196726D01*
X206666428Y-162149107D01*
X206737857Y-162125297D01*
X206880714Y-162101488D01*
X206987857Y-162101488D01*
X207130714Y-162125297D01*
X207202142Y-162149107D01*
X207273571Y-162196726D01*
X207309285Y-162268154D01*
X207309285Y-162387202D01*
X209773571Y-164339583D02*
X209809285Y-164268154D01*
X209809285Y-164149107D01*
X209773571Y-164101488D01*
X209737857Y-164077678D01*
X209666428Y-164053869D01*
X209595000Y-164053869D01*
X209523571Y-164077678D01*
X209487857Y-164101488D01*
X209452142Y-164149107D01*
X209416428Y-164244345D01*
X209380714Y-164291964D01*
X209345000Y-164315773D01*
X209273571Y-164339583D01*
X209202142Y-164339583D01*
X209130714Y-164315773D01*
X209095000Y-164291964D01*
X209059285Y-164244345D01*
X209059285Y-164125297D01*
X209095000Y-164053869D01*
X209809285Y-163839583D02*
X209059285Y-163839583D01*
X209809285Y-163553869D01*
X209059285Y-163553869D01*
X209773571Y-163339583D02*
X209809285Y-163268154D01*
X209809285Y-163149107D01*
X209773571Y-163101488D01*
X209737857Y-163077678D01*
X209666428Y-163053869D01*
X209595000Y-163053869D01*
X209523571Y-163077678D01*
X209487857Y-163101488D01*
X209452142Y-163149107D01*
X209416428Y-163244345D01*
X209380714Y-163291964D01*
X209345000Y-163315773D01*
X209273571Y-163339583D01*
X209202142Y-163339583D01*
X209130714Y-163315773D01*
X209095000Y-163291964D01*
X209059285Y-163244345D01*
X209059285Y-163125297D01*
X209095000Y-163053869D01*
X209809285Y-162577678D02*
X209809285Y-162863392D01*
X209809285Y-162720535D02*
X209059285Y-162720535D01*
X209166428Y-162768154D01*
X209237857Y-162815773D01*
X209273571Y-162863392D01*
X209059285Y-162268154D02*
X209059285Y-162220535D01*
X209095000Y-162172916D01*
X209130714Y-162149107D01*
X209202142Y-162125297D01*
X209345000Y-162101488D01*
X209523571Y-162101488D01*
X209666428Y-162125297D01*
X209737857Y-162149107D01*
X209773571Y-162172916D01*
X209809285Y-162220535D01*
X209809285Y-162268154D01*
X209773571Y-162315773D01*
X209737857Y-162339583D01*
X209666428Y-162363392D01*
X209523571Y-162387202D01*
X209345000Y-162387202D01*
X209202142Y-162363392D01*
X209130714Y-162339583D01*
X209095000Y-162315773D01*
X209059285Y-162268154D01*
X211595000Y-163149107D02*
X211559285Y-163196726D01*
X211559285Y-163268154D01*
X211595000Y-163339583D01*
X211666428Y-163387202D01*
X211737857Y-163411011D01*
X211880714Y-163434821D01*
X211987857Y-163434821D01*
X212130714Y-163411011D01*
X212202142Y-163387202D01*
X212273571Y-163339583D01*
X212309285Y-163268154D01*
X212309285Y-163220535D01*
X212273571Y-163149107D01*
X212237857Y-163125297D01*
X211987857Y-163125297D01*
X211987857Y-163220535D01*
X212309285Y-162911011D02*
X211559285Y-162911011D01*
X212309285Y-162625297D01*
X211559285Y-162625297D01*
X212309285Y-162387202D02*
X211559285Y-162387202D01*
X211559285Y-162268154D01*
X211595000Y-162196726D01*
X211666428Y-162149107D01*
X211737857Y-162125297D01*
X211880714Y-162101488D01*
X211987857Y-162101488D01*
X212130714Y-162125297D01*
X212202142Y-162149107D01*
X212273571Y-162196726D01*
X212309285Y-162268154D01*
X212309285Y-162387202D01*
X196559285Y-156406607D02*
X196559285Y-156644702D01*
X196916428Y-156668511D01*
X196880714Y-156644702D01*
X196845000Y-156597083D01*
X196845000Y-156478035D01*
X196880714Y-156430416D01*
X196916428Y-156406607D01*
X196987857Y-156382797D01*
X197166428Y-156382797D01*
X197237857Y-156406607D01*
X197273571Y-156430416D01*
X197309285Y-156478035D01*
X197309285Y-156597083D01*
X197273571Y-156644702D01*
X197237857Y-156668511D01*
X196559285Y-156239940D02*
X197309285Y-156073273D01*
X196559285Y-155906607D01*
X199809285Y-156406607D02*
X199809285Y-156644702D01*
X199059285Y-156644702D01*
X199416428Y-156239940D02*
X199416428Y-156073273D01*
X199809285Y-156001845D02*
X199809285Y-156239940D01*
X199059285Y-156239940D01*
X199059285Y-156001845D01*
X199809285Y-155787559D02*
X199059285Y-155787559D01*
X199059285Y-155668511D01*
X199095000Y-155597083D01*
X199166428Y-155549464D01*
X199237857Y-155525654D01*
X199380714Y-155501845D01*
X199487857Y-155501845D01*
X199630714Y-155525654D01*
X199702142Y-155549464D01*
X199773571Y-155597083D01*
X199809285Y-155668511D01*
X199809285Y-155787559D01*
X199809285Y-155025654D02*
X199809285Y-155311369D01*
X199809285Y-155168511D02*
X199059285Y-155168511D01*
X199166428Y-155216130D01*
X199237857Y-155263750D01*
X199273571Y-155311369D01*
X199809285Y-154549464D02*
X199809285Y-154835178D01*
X199809285Y-154692321D02*
X199059285Y-154692321D01*
X199166428Y-154739940D01*
X199237857Y-154787559D01*
X199273571Y-154835178D01*
X202309285Y-156406607D02*
X202309285Y-156644702D01*
X201559285Y-156644702D01*
X201916428Y-156239940D02*
X201916428Y-156073273D01*
X202309285Y-156001845D02*
X202309285Y-156239940D01*
X201559285Y-156239940D01*
X201559285Y-156001845D01*
X202309285Y-155787559D02*
X201559285Y-155787559D01*
X201559285Y-155668511D01*
X201595000Y-155597083D01*
X201666428Y-155549464D01*
X201737857Y-155525654D01*
X201880714Y-155501845D01*
X201987857Y-155501845D01*
X202130714Y-155525654D01*
X202202142Y-155549464D01*
X202273571Y-155597083D01*
X202309285Y-155668511D01*
X202309285Y-155787559D01*
X202309285Y-155025654D02*
X202309285Y-155311369D01*
X202309285Y-155168511D02*
X201559285Y-155168511D01*
X201666428Y-155216130D01*
X201737857Y-155263750D01*
X201773571Y-155311369D01*
X201630714Y-154835178D02*
X201595000Y-154811369D01*
X201559285Y-154763750D01*
X201559285Y-154644702D01*
X201595000Y-154597083D01*
X201630714Y-154573273D01*
X201702142Y-154549464D01*
X201773571Y-154549464D01*
X201880714Y-154573273D01*
X202309285Y-154858988D01*
X202309285Y-154549464D01*
X204095000Y-156382797D02*
X204059285Y-156430416D01*
X204059285Y-156501845D01*
X204095000Y-156573273D01*
X204166428Y-156620892D01*
X204237857Y-156644702D01*
X204380714Y-156668511D01*
X204487857Y-156668511D01*
X204630714Y-156644702D01*
X204702142Y-156620892D01*
X204773571Y-156573273D01*
X204809285Y-156501845D01*
X204809285Y-156454226D01*
X204773571Y-156382797D01*
X204737857Y-156358988D01*
X204487857Y-156358988D01*
X204487857Y-156454226D01*
X204809285Y-156144702D02*
X204059285Y-156144702D01*
X204809285Y-155858988D01*
X204059285Y-155858988D01*
X204809285Y-155620892D02*
X204059285Y-155620892D01*
X204059285Y-155501845D01*
X204095000Y-155430416D01*
X204166428Y-155382797D01*
X204237857Y-155358988D01*
X204380714Y-155335178D01*
X204487857Y-155335178D01*
X204630714Y-155358988D01*
X204702142Y-155382797D01*
X204773571Y-155430416D01*
X204809285Y-155501845D01*
X204809285Y-155620892D01*
X207273571Y-156668511D02*
X207309285Y-156597083D01*
X207309285Y-156478035D01*
X207273571Y-156430416D01*
X207237857Y-156406607D01*
X207166428Y-156382797D01*
X207095000Y-156382797D01*
X207023571Y-156406607D01*
X206987857Y-156430416D01*
X206952142Y-156478035D01*
X206916428Y-156573273D01*
X206880714Y-156620892D01*
X206845000Y-156644702D01*
X206773571Y-156668511D01*
X206702142Y-156668511D01*
X206630714Y-156644702D01*
X206595000Y-156620892D01*
X206559285Y-156573273D01*
X206559285Y-156454226D01*
X206595000Y-156382797D01*
X207309285Y-156168511D02*
X206559285Y-156168511D01*
X207309285Y-155882797D01*
X206559285Y-155882797D01*
X207273571Y-155668511D02*
X207309285Y-155597083D01*
X207309285Y-155478035D01*
X207273571Y-155430416D01*
X207237857Y-155406607D01*
X207166428Y-155382797D01*
X207095000Y-155382797D01*
X207023571Y-155406607D01*
X206987857Y-155430416D01*
X206952142Y-155478035D01*
X206916428Y-155573273D01*
X206880714Y-155620892D01*
X206845000Y-155644702D01*
X206773571Y-155668511D01*
X206702142Y-155668511D01*
X206630714Y-155644702D01*
X206595000Y-155620892D01*
X206559285Y-155573273D01*
X206559285Y-155454226D01*
X206595000Y-155382797D01*
X207309285Y-154906607D02*
X207309285Y-155192321D01*
X207309285Y-155049464D02*
X206559285Y-155049464D01*
X206666428Y-155097083D01*
X206737857Y-155144702D01*
X206773571Y-155192321D01*
X207309285Y-154430416D02*
X207309285Y-154716130D01*
X207309285Y-154573273D02*
X206559285Y-154573273D01*
X206666428Y-154620892D01*
X206737857Y-154668511D01*
X206773571Y-154716130D01*
X209095000Y-156382797D02*
X209059285Y-156430416D01*
X209059285Y-156501845D01*
X209095000Y-156573273D01*
X209166428Y-156620892D01*
X209237857Y-156644702D01*
X209380714Y-156668511D01*
X209487857Y-156668511D01*
X209630714Y-156644702D01*
X209702142Y-156620892D01*
X209773571Y-156573273D01*
X209809285Y-156501845D01*
X209809285Y-156454226D01*
X209773571Y-156382797D01*
X209737857Y-156358988D01*
X209487857Y-156358988D01*
X209487857Y-156454226D01*
X209809285Y-156144702D02*
X209059285Y-156144702D01*
X209809285Y-155858988D01*
X209059285Y-155858988D01*
X209809285Y-155620892D02*
X209059285Y-155620892D01*
X209059285Y-155501845D01*
X209095000Y-155430416D01*
X209166428Y-155382797D01*
X209237857Y-155358988D01*
X209380714Y-155335178D01*
X209487857Y-155335178D01*
X209630714Y-155358988D01*
X209702142Y-155382797D01*
X209773571Y-155430416D01*
X209809285Y-155501845D01*
X209809285Y-155620892D01*
X212273571Y-156668511D02*
X212309285Y-156597083D01*
X212309285Y-156478035D01*
X212273571Y-156430416D01*
X212237857Y-156406607D01*
X212166428Y-156382797D01*
X212095000Y-156382797D01*
X212023571Y-156406607D01*
X211987857Y-156430416D01*
X211952142Y-156478035D01*
X211916428Y-156573273D01*
X211880714Y-156620892D01*
X211845000Y-156644702D01*
X211773571Y-156668511D01*
X211702142Y-156668511D01*
X211630714Y-156644702D01*
X211595000Y-156620892D01*
X211559285Y-156573273D01*
X211559285Y-156454226D01*
X211595000Y-156382797D01*
X212309285Y-156168511D02*
X211559285Y-156168511D01*
X212309285Y-155882797D01*
X211559285Y-155882797D01*
X212273571Y-155668511D02*
X212309285Y-155597083D01*
X212309285Y-155478035D01*
X212273571Y-155430416D01*
X212237857Y-155406607D01*
X212166428Y-155382797D01*
X212095000Y-155382797D01*
X212023571Y-155406607D01*
X211987857Y-155430416D01*
X211952142Y-155478035D01*
X211916428Y-155573273D01*
X211880714Y-155620892D01*
X211845000Y-155644702D01*
X211773571Y-155668511D01*
X211702142Y-155668511D01*
X211630714Y-155644702D01*
X211595000Y-155620892D01*
X211559285Y-155573273D01*
X211559285Y-155454226D01*
X211595000Y-155382797D01*
X212309285Y-154906607D02*
X212309285Y-155192321D01*
X212309285Y-155049464D02*
X211559285Y-155049464D01*
X211666428Y-155097083D01*
X211737857Y-155144702D01*
X211773571Y-155192321D01*
X211630714Y-154716130D02*
X211595000Y-154692321D01*
X211559285Y-154644702D01*
X211559285Y-154525654D01*
X211595000Y-154478035D01*
X211630714Y-154454226D01*
X211702142Y-154430416D01*
X211773571Y-154430416D01*
X211880714Y-154454226D01*
X212309285Y-154739940D01*
X212309285Y-154430416D01*
X145759285Y-162553869D02*
X145759285Y-162791964D01*
X146116428Y-162815773D01*
X146080714Y-162791964D01*
X146045000Y-162744345D01*
X146045000Y-162625297D01*
X146080714Y-162577678D01*
X146116428Y-162553869D01*
X146187857Y-162530059D01*
X146366428Y-162530059D01*
X146437857Y-162553869D01*
X146473571Y-162577678D01*
X146509285Y-162625297D01*
X146509285Y-162744345D01*
X146473571Y-162791964D01*
X146437857Y-162815773D01*
X145759285Y-162387202D02*
X146509285Y-162220535D01*
X145759285Y-162053869D01*
X149009285Y-163482440D02*
X149009285Y-163720535D01*
X148259285Y-163720535D01*
X148616428Y-163315773D02*
X148616428Y-163149107D01*
X149009285Y-163077678D02*
X149009285Y-163315773D01*
X148259285Y-163315773D01*
X148259285Y-163077678D01*
X149009285Y-162863392D02*
X148259285Y-162863392D01*
X148259285Y-162744345D01*
X148295000Y-162672916D01*
X148366428Y-162625297D01*
X148437857Y-162601488D01*
X148580714Y-162577678D01*
X148687857Y-162577678D01*
X148830714Y-162601488D01*
X148902142Y-162625297D01*
X148973571Y-162672916D01*
X149009285Y-162744345D01*
X149009285Y-162863392D01*
X149009285Y-162101488D02*
X149009285Y-162387202D01*
X149009285Y-162244345D02*
X148259285Y-162244345D01*
X148366428Y-162291964D01*
X148437857Y-162339583D01*
X148473571Y-162387202D01*
X151509285Y-163482440D02*
X151509285Y-163720535D01*
X150759285Y-163720535D01*
X151116428Y-163315773D02*
X151116428Y-163149107D01*
X151509285Y-163077678D02*
X151509285Y-163315773D01*
X150759285Y-163315773D01*
X150759285Y-163077678D01*
X151509285Y-162863392D02*
X150759285Y-162863392D01*
X150759285Y-162744345D01*
X150795000Y-162672916D01*
X150866428Y-162625297D01*
X150937857Y-162601488D01*
X151080714Y-162577678D01*
X151187857Y-162577678D01*
X151330714Y-162601488D01*
X151402142Y-162625297D01*
X151473571Y-162672916D01*
X151509285Y-162744345D01*
X151509285Y-162863392D01*
X150830714Y-162387202D02*
X150795000Y-162363392D01*
X150759285Y-162315773D01*
X150759285Y-162196726D01*
X150795000Y-162149107D01*
X150830714Y-162125297D01*
X150902142Y-162101488D01*
X150973571Y-162101488D01*
X151080714Y-162125297D01*
X151509285Y-162411011D01*
X151509285Y-162101488D01*
X153973571Y-163863392D02*
X154009285Y-163791964D01*
X154009285Y-163672916D01*
X153973571Y-163625297D01*
X153937857Y-163601488D01*
X153866428Y-163577678D01*
X153795000Y-163577678D01*
X153723571Y-163601488D01*
X153687857Y-163625297D01*
X153652142Y-163672916D01*
X153616428Y-163768154D01*
X153580714Y-163815773D01*
X153545000Y-163839583D01*
X153473571Y-163863392D01*
X153402142Y-163863392D01*
X153330714Y-163839583D01*
X153295000Y-163815773D01*
X153259285Y-163768154D01*
X153259285Y-163649107D01*
X153295000Y-163577678D01*
X154009285Y-163363392D02*
X153259285Y-163363392D01*
X154009285Y-163077678D01*
X153259285Y-163077678D01*
X153973571Y-162863392D02*
X154009285Y-162791964D01*
X154009285Y-162672916D01*
X153973571Y-162625297D01*
X153937857Y-162601488D01*
X153866428Y-162577678D01*
X153795000Y-162577678D01*
X153723571Y-162601488D01*
X153687857Y-162625297D01*
X153652142Y-162672916D01*
X153616428Y-162768154D01*
X153580714Y-162815773D01*
X153545000Y-162839583D01*
X153473571Y-162863392D01*
X153402142Y-162863392D01*
X153330714Y-162839583D01*
X153295000Y-162815773D01*
X153259285Y-162768154D01*
X153259285Y-162649107D01*
X153295000Y-162577678D01*
X154009285Y-162101488D02*
X154009285Y-162387202D01*
X154009285Y-162244345D02*
X153259285Y-162244345D01*
X153366428Y-162291964D01*
X153437857Y-162339583D01*
X153473571Y-162387202D01*
X155795000Y-163149107D02*
X155759285Y-163196726D01*
X155759285Y-163268154D01*
X155795000Y-163339583D01*
X155866428Y-163387202D01*
X155937857Y-163411011D01*
X156080714Y-163434821D01*
X156187857Y-163434821D01*
X156330714Y-163411011D01*
X156402142Y-163387202D01*
X156473571Y-163339583D01*
X156509285Y-163268154D01*
X156509285Y-163220535D01*
X156473571Y-163149107D01*
X156437857Y-163125297D01*
X156187857Y-163125297D01*
X156187857Y-163220535D01*
X156509285Y-162911011D02*
X155759285Y-162911011D01*
X156509285Y-162625297D01*
X155759285Y-162625297D01*
X156509285Y-162387202D02*
X155759285Y-162387202D01*
X155759285Y-162268154D01*
X155795000Y-162196726D01*
X155866428Y-162149107D01*
X155937857Y-162125297D01*
X156080714Y-162101488D01*
X156187857Y-162101488D01*
X156330714Y-162125297D01*
X156402142Y-162149107D01*
X156473571Y-162196726D01*
X156509285Y-162268154D01*
X156509285Y-162387202D01*
X158973571Y-163863392D02*
X159009285Y-163791964D01*
X159009285Y-163672916D01*
X158973571Y-163625297D01*
X158937857Y-163601488D01*
X158866428Y-163577678D01*
X158795000Y-163577678D01*
X158723571Y-163601488D01*
X158687857Y-163625297D01*
X158652142Y-163672916D01*
X158616428Y-163768154D01*
X158580714Y-163815773D01*
X158545000Y-163839583D01*
X158473571Y-163863392D01*
X158402142Y-163863392D01*
X158330714Y-163839583D01*
X158295000Y-163815773D01*
X158259285Y-163768154D01*
X158259285Y-163649107D01*
X158295000Y-163577678D01*
X159009285Y-163363392D02*
X158259285Y-163363392D01*
X159009285Y-163077678D01*
X158259285Y-163077678D01*
X158973571Y-162863392D02*
X159009285Y-162791964D01*
X159009285Y-162672916D01*
X158973571Y-162625297D01*
X158937857Y-162601488D01*
X158866428Y-162577678D01*
X158795000Y-162577678D01*
X158723571Y-162601488D01*
X158687857Y-162625297D01*
X158652142Y-162672916D01*
X158616428Y-162768154D01*
X158580714Y-162815773D01*
X158545000Y-162839583D01*
X158473571Y-162863392D01*
X158402142Y-162863392D01*
X158330714Y-162839583D01*
X158295000Y-162815773D01*
X158259285Y-162768154D01*
X158259285Y-162649107D01*
X158295000Y-162577678D01*
X158330714Y-162387202D02*
X158295000Y-162363392D01*
X158259285Y-162315773D01*
X158259285Y-162196726D01*
X158295000Y-162149107D01*
X158330714Y-162125297D01*
X158402142Y-162101488D01*
X158473571Y-162101488D01*
X158580714Y-162125297D01*
X159009285Y-162411011D01*
X159009285Y-162101488D01*
X160795000Y-163149107D02*
X160759285Y-163196726D01*
X160759285Y-163268154D01*
X160795000Y-163339583D01*
X160866428Y-163387202D01*
X160937857Y-163411011D01*
X161080714Y-163434821D01*
X161187857Y-163434821D01*
X161330714Y-163411011D01*
X161402142Y-163387202D01*
X161473571Y-163339583D01*
X161509285Y-163268154D01*
X161509285Y-163220535D01*
X161473571Y-163149107D01*
X161437857Y-163125297D01*
X161187857Y-163125297D01*
X161187857Y-163220535D01*
X161509285Y-162911011D02*
X160759285Y-162911011D01*
X161509285Y-162625297D01*
X160759285Y-162625297D01*
X161509285Y-162387202D02*
X160759285Y-162387202D01*
X160759285Y-162268154D01*
X160795000Y-162196726D01*
X160866428Y-162149107D01*
X160937857Y-162125297D01*
X161080714Y-162101488D01*
X161187857Y-162101488D01*
X161330714Y-162125297D01*
X161402142Y-162149107D01*
X161473571Y-162196726D01*
X161509285Y-162268154D01*
X161509285Y-162387202D01*
D12*
X152400000Y-162560000D02*
X154940000Y-162560000D01*
X154940000Y-162560000D02*
X154940000Y-161925000D01*
X177800000Y-161925000D02*
X177800000Y-162560000D01*
X180340000Y-162560000D02*
X180340000Y-161925000D01*
X177800000Y-162560000D02*
X180340000Y-162560000D01*
X203200000Y-162560000D02*
X205740000Y-162560000D01*
X152400000Y-161925000D02*
X152400000Y-162560000D01*
X203200000Y-161925000D02*
X203200000Y-162560000D01*
X205740000Y-162560000D02*
X205740000Y-161925000D01*
X228600000Y-161925000D02*
X228600000Y-162560000D01*
X228600000Y-162560000D02*
X231140000Y-162560000D01*
X231140000Y-162560000D02*
X231140000Y-161925000D01*
D10*
X194019285Y-146043869D02*
X194019285Y-146281964D01*
X194376428Y-146305773D01*
X194340714Y-146281964D01*
X194305000Y-146234345D01*
X194305000Y-146115297D01*
X194340714Y-146067678D01*
X194376428Y-146043869D01*
X194447857Y-146020059D01*
X194626428Y-146020059D01*
X194697857Y-146043869D01*
X194733571Y-146067678D01*
X194769285Y-146115297D01*
X194769285Y-146234345D01*
X194733571Y-146281964D01*
X194697857Y-146305773D01*
X194019285Y-145877202D02*
X194769285Y-145710535D01*
X194019285Y-145543869D01*
X197269285Y-146972440D02*
X197269285Y-147210535D01*
X196519285Y-147210535D01*
X196876428Y-146805773D02*
X196876428Y-146639107D01*
X197269285Y-146567678D02*
X197269285Y-146805773D01*
X196519285Y-146805773D01*
X196519285Y-146567678D01*
X197269285Y-146353392D02*
X196519285Y-146353392D01*
X196519285Y-146234345D01*
X196555000Y-146162916D01*
X196626428Y-146115297D01*
X196697857Y-146091488D01*
X196840714Y-146067678D01*
X196947857Y-146067678D01*
X197090714Y-146091488D01*
X197162142Y-146115297D01*
X197233571Y-146162916D01*
X197269285Y-146234345D01*
X197269285Y-146353392D01*
X197269285Y-145829583D02*
X197269285Y-145734345D01*
X197233571Y-145686726D01*
X197197857Y-145662916D01*
X197090714Y-145615297D01*
X196947857Y-145591488D01*
X196662142Y-145591488D01*
X196590714Y-145615297D01*
X196555000Y-145639107D01*
X196519285Y-145686726D01*
X196519285Y-145781964D01*
X196555000Y-145829583D01*
X196590714Y-145853392D01*
X196662142Y-145877202D01*
X196840714Y-145877202D01*
X196912142Y-145853392D01*
X196947857Y-145829583D01*
X196983571Y-145781964D01*
X196983571Y-145686726D01*
X196947857Y-145639107D01*
X196912142Y-145615297D01*
X196840714Y-145591488D01*
X199769285Y-147448630D02*
X199769285Y-147686726D01*
X199019285Y-147686726D01*
X199376428Y-147281964D02*
X199376428Y-147115297D01*
X199769285Y-147043869D02*
X199769285Y-147281964D01*
X199019285Y-147281964D01*
X199019285Y-147043869D01*
X199769285Y-146829583D02*
X199019285Y-146829583D01*
X199019285Y-146710535D01*
X199055000Y-146639107D01*
X199126428Y-146591488D01*
X199197857Y-146567678D01*
X199340714Y-146543869D01*
X199447857Y-146543869D01*
X199590714Y-146567678D01*
X199662142Y-146591488D01*
X199733571Y-146639107D01*
X199769285Y-146710535D01*
X199769285Y-146829583D01*
X199769285Y-146067678D02*
X199769285Y-146353392D01*
X199769285Y-146210535D02*
X199019285Y-146210535D01*
X199126428Y-146258154D01*
X199197857Y-146305773D01*
X199233571Y-146353392D01*
X199019285Y-145758154D02*
X199019285Y-145710535D01*
X199055000Y-145662916D01*
X199090714Y-145639107D01*
X199162142Y-145615297D01*
X199305000Y-145591488D01*
X199483571Y-145591488D01*
X199626428Y-145615297D01*
X199697857Y-145639107D01*
X199733571Y-145662916D01*
X199769285Y-145710535D01*
X199769285Y-145758154D01*
X199733571Y-145805773D01*
X199697857Y-145829583D01*
X199626428Y-145853392D01*
X199483571Y-145877202D01*
X199305000Y-145877202D01*
X199162142Y-145853392D01*
X199090714Y-145829583D01*
X199055000Y-145805773D01*
X199019285Y-145758154D01*
X202233571Y-147353392D02*
X202269285Y-147281964D01*
X202269285Y-147162916D01*
X202233571Y-147115297D01*
X202197857Y-147091488D01*
X202126428Y-147067678D01*
X202055000Y-147067678D01*
X201983571Y-147091488D01*
X201947857Y-147115297D01*
X201912142Y-147162916D01*
X201876428Y-147258154D01*
X201840714Y-147305773D01*
X201805000Y-147329583D01*
X201733571Y-147353392D01*
X201662142Y-147353392D01*
X201590714Y-147329583D01*
X201555000Y-147305773D01*
X201519285Y-147258154D01*
X201519285Y-147139107D01*
X201555000Y-147067678D01*
X202269285Y-146853392D02*
X201519285Y-146853392D01*
X202269285Y-146567678D01*
X201519285Y-146567678D01*
X202233571Y-146353392D02*
X202269285Y-146281964D01*
X202269285Y-146162916D01*
X202233571Y-146115297D01*
X202197857Y-146091488D01*
X202126428Y-146067678D01*
X202055000Y-146067678D01*
X201983571Y-146091488D01*
X201947857Y-146115297D01*
X201912142Y-146162916D01*
X201876428Y-146258154D01*
X201840714Y-146305773D01*
X201805000Y-146329583D01*
X201733571Y-146353392D01*
X201662142Y-146353392D01*
X201590714Y-146329583D01*
X201555000Y-146305773D01*
X201519285Y-146258154D01*
X201519285Y-146139107D01*
X201555000Y-146067678D01*
X202269285Y-145829583D02*
X202269285Y-145734345D01*
X202233571Y-145686726D01*
X202197857Y-145662916D01*
X202090714Y-145615297D01*
X201947857Y-145591488D01*
X201662142Y-145591488D01*
X201590714Y-145615297D01*
X201555000Y-145639107D01*
X201519285Y-145686726D01*
X201519285Y-145781964D01*
X201555000Y-145829583D01*
X201590714Y-145853392D01*
X201662142Y-145877202D01*
X201840714Y-145877202D01*
X201912142Y-145853392D01*
X201947857Y-145829583D01*
X201983571Y-145781964D01*
X201983571Y-145686726D01*
X201947857Y-145639107D01*
X201912142Y-145615297D01*
X201840714Y-145591488D01*
X204055000Y-146639107D02*
X204019285Y-146686726D01*
X204019285Y-146758154D01*
X204055000Y-146829583D01*
X204126428Y-146877202D01*
X204197857Y-146901011D01*
X204340714Y-146924821D01*
X204447857Y-146924821D01*
X204590714Y-146901011D01*
X204662142Y-146877202D01*
X204733571Y-146829583D01*
X204769285Y-146758154D01*
X204769285Y-146710535D01*
X204733571Y-146639107D01*
X204697857Y-146615297D01*
X204447857Y-146615297D01*
X204447857Y-146710535D01*
X204769285Y-146401011D02*
X204019285Y-146401011D01*
X204769285Y-146115297D01*
X204019285Y-146115297D01*
X204769285Y-145877202D02*
X204019285Y-145877202D01*
X204019285Y-145758154D01*
X204055000Y-145686726D01*
X204126428Y-145639107D01*
X204197857Y-145615297D01*
X204340714Y-145591488D01*
X204447857Y-145591488D01*
X204590714Y-145615297D01*
X204662142Y-145639107D01*
X204733571Y-145686726D01*
X204769285Y-145758154D01*
X204769285Y-145877202D01*
X207233571Y-147829583D02*
X207269285Y-147758154D01*
X207269285Y-147639107D01*
X207233571Y-147591488D01*
X207197857Y-147567678D01*
X207126428Y-147543869D01*
X207055000Y-147543869D01*
X206983571Y-147567678D01*
X206947857Y-147591488D01*
X206912142Y-147639107D01*
X206876428Y-147734345D01*
X206840714Y-147781964D01*
X206805000Y-147805773D01*
X206733571Y-147829583D01*
X206662142Y-147829583D01*
X206590714Y-147805773D01*
X206555000Y-147781964D01*
X206519285Y-147734345D01*
X206519285Y-147615297D01*
X206555000Y-147543869D01*
X207269285Y-147329583D02*
X206519285Y-147329583D01*
X207269285Y-147043869D01*
X206519285Y-147043869D01*
X207233571Y-146829583D02*
X207269285Y-146758154D01*
X207269285Y-146639107D01*
X207233571Y-146591488D01*
X207197857Y-146567678D01*
X207126428Y-146543869D01*
X207055000Y-146543869D01*
X206983571Y-146567678D01*
X206947857Y-146591488D01*
X206912142Y-146639107D01*
X206876428Y-146734345D01*
X206840714Y-146781964D01*
X206805000Y-146805773D01*
X206733571Y-146829583D01*
X206662142Y-146829583D01*
X206590714Y-146805773D01*
X206555000Y-146781964D01*
X206519285Y-146734345D01*
X206519285Y-146615297D01*
X206555000Y-146543869D01*
X207269285Y-146067678D02*
X207269285Y-146353392D01*
X207269285Y-146210535D02*
X206519285Y-146210535D01*
X206626428Y-146258154D01*
X206697857Y-146305773D01*
X206733571Y-146353392D01*
X206519285Y-145758154D02*
X206519285Y-145710535D01*
X206555000Y-145662916D01*
X206590714Y-145639107D01*
X206662142Y-145615297D01*
X206805000Y-145591488D01*
X206983571Y-145591488D01*
X207126428Y-145615297D01*
X207197857Y-145639107D01*
X207233571Y-145662916D01*
X207269285Y-145710535D01*
X207269285Y-145758154D01*
X207233571Y-145805773D01*
X207197857Y-145829583D01*
X207126428Y-145853392D01*
X206983571Y-145877202D01*
X206805000Y-145877202D01*
X206662142Y-145853392D01*
X206590714Y-145829583D01*
X206555000Y-145805773D01*
X206519285Y-145758154D01*
X209055000Y-146639107D02*
X209019285Y-146686726D01*
X209019285Y-146758154D01*
X209055000Y-146829583D01*
X209126428Y-146877202D01*
X209197857Y-146901011D01*
X209340714Y-146924821D01*
X209447857Y-146924821D01*
X209590714Y-146901011D01*
X209662142Y-146877202D01*
X209733571Y-146829583D01*
X209769285Y-146758154D01*
X209769285Y-146710535D01*
X209733571Y-146639107D01*
X209697857Y-146615297D01*
X209447857Y-146615297D01*
X209447857Y-146710535D01*
X209769285Y-146401011D02*
X209019285Y-146401011D01*
X209769285Y-146115297D01*
X209019285Y-146115297D01*
X209769285Y-145877202D02*
X209019285Y-145877202D01*
X209019285Y-145758154D01*
X209055000Y-145686726D01*
X209126428Y-145639107D01*
X209197857Y-145615297D01*
X209340714Y-145591488D01*
X209447857Y-145591488D01*
X209590714Y-145615297D01*
X209662142Y-145639107D01*
X209733571Y-145686726D01*
X209769285Y-145758154D01*
X209769285Y-145877202D01*
X172429285Y-146043869D02*
X172429285Y-146281964D01*
X172786428Y-146305773D01*
X172750714Y-146281964D01*
X172715000Y-146234345D01*
X172715000Y-146115297D01*
X172750714Y-146067678D01*
X172786428Y-146043869D01*
X172857857Y-146020059D01*
X173036428Y-146020059D01*
X173107857Y-146043869D01*
X173143571Y-146067678D01*
X173179285Y-146115297D01*
X173179285Y-146234345D01*
X173143571Y-146281964D01*
X173107857Y-146305773D01*
X172429285Y-145877202D02*
X173179285Y-145710535D01*
X172429285Y-145543869D01*
X175679285Y-146972440D02*
X175679285Y-147210535D01*
X174929285Y-147210535D01*
X175286428Y-146805773D02*
X175286428Y-146639107D01*
X175679285Y-146567678D02*
X175679285Y-146805773D01*
X174929285Y-146805773D01*
X174929285Y-146567678D01*
X175679285Y-146353392D02*
X174929285Y-146353392D01*
X174929285Y-146234345D01*
X174965000Y-146162916D01*
X175036428Y-146115297D01*
X175107857Y-146091488D01*
X175250714Y-146067678D01*
X175357857Y-146067678D01*
X175500714Y-146091488D01*
X175572142Y-146115297D01*
X175643571Y-146162916D01*
X175679285Y-146234345D01*
X175679285Y-146353392D01*
X174929285Y-145615297D02*
X174929285Y-145853392D01*
X175286428Y-145877202D01*
X175250714Y-145853392D01*
X175215000Y-145805773D01*
X175215000Y-145686726D01*
X175250714Y-145639107D01*
X175286428Y-145615297D01*
X175357857Y-145591488D01*
X175536428Y-145591488D01*
X175607857Y-145615297D01*
X175643571Y-145639107D01*
X175679285Y-145686726D01*
X175679285Y-145805773D01*
X175643571Y-145853392D01*
X175607857Y-145877202D01*
X178179285Y-146972440D02*
X178179285Y-147210535D01*
X177429285Y-147210535D01*
X177786428Y-146805773D02*
X177786428Y-146639107D01*
X178179285Y-146567678D02*
X178179285Y-146805773D01*
X177429285Y-146805773D01*
X177429285Y-146567678D01*
X178179285Y-146353392D02*
X177429285Y-146353392D01*
X177429285Y-146234345D01*
X177465000Y-146162916D01*
X177536428Y-146115297D01*
X177607857Y-146091488D01*
X177750714Y-146067678D01*
X177857857Y-146067678D01*
X178000714Y-146091488D01*
X178072142Y-146115297D01*
X178143571Y-146162916D01*
X178179285Y-146234345D01*
X178179285Y-146353392D01*
X177429285Y-145639107D02*
X177429285Y-145734345D01*
X177465000Y-145781964D01*
X177500714Y-145805773D01*
X177607857Y-145853392D01*
X177750714Y-145877202D01*
X178036428Y-145877202D01*
X178107857Y-145853392D01*
X178143571Y-145829583D01*
X178179285Y-145781964D01*
X178179285Y-145686726D01*
X178143571Y-145639107D01*
X178107857Y-145615297D01*
X178036428Y-145591488D01*
X177857857Y-145591488D01*
X177786428Y-145615297D01*
X177750714Y-145639107D01*
X177715000Y-145686726D01*
X177715000Y-145781964D01*
X177750714Y-145829583D01*
X177786428Y-145853392D01*
X177857857Y-145877202D01*
X180643571Y-147353392D02*
X180679285Y-147281964D01*
X180679285Y-147162916D01*
X180643571Y-147115297D01*
X180607857Y-147091488D01*
X180536428Y-147067678D01*
X180465000Y-147067678D01*
X180393571Y-147091488D01*
X180357857Y-147115297D01*
X180322142Y-147162916D01*
X180286428Y-147258154D01*
X180250714Y-147305773D01*
X180215000Y-147329583D01*
X180143571Y-147353392D01*
X180072142Y-147353392D01*
X180000714Y-147329583D01*
X179965000Y-147305773D01*
X179929285Y-147258154D01*
X179929285Y-147139107D01*
X179965000Y-147067678D01*
X180679285Y-146853392D02*
X179929285Y-146853392D01*
X180679285Y-146567678D01*
X179929285Y-146567678D01*
X180643571Y-146353392D02*
X180679285Y-146281964D01*
X180679285Y-146162916D01*
X180643571Y-146115297D01*
X180607857Y-146091488D01*
X180536428Y-146067678D01*
X180465000Y-146067678D01*
X180393571Y-146091488D01*
X180357857Y-146115297D01*
X180322142Y-146162916D01*
X180286428Y-146258154D01*
X180250714Y-146305773D01*
X180215000Y-146329583D01*
X180143571Y-146353392D01*
X180072142Y-146353392D01*
X180000714Y-146329583D01*
X179965000Y-146305773D01*
X179929285Y-146258154D01*
X179929285Y-146139107D01*
X179965000Y-146067678D01*
X179929285Y-145615297D02*
X179929285Y-145853392D01*
X180286428Y-145877202D01*
X180250714Y-145853392D01*
X180215000Y-145805773D01*
X180215000Y-145686726D01*
X180250714Y-145639107D01*
X180286428Y-145615297D01*
X180357857Y-145591488D01*
X180536428Y-145591488D01*
X180607857Y-145615297D01*
X180643571Y-145639107D01*
X180679285Y-145686726D01*
X180679285Y-145805773D01*
X180643571Y-145853392D01*
X180607857Y-145877202D01*
X182465000Y-146639107D02*
X182429285Y-146686726D01*
X182429285Y-146758154D01*
X182465000Y-146829583D01*
X182536428Y-146877202D01*
X182607857Y-146901011D01*
X182750714Y-146924821D01*
X182857857Y-146924821D01*
X183000714Y-146901011D01*
X183072142Y-146877202D01*
X183143571Y-146829583D01*
X183179285Y-146758154D01*
X183179285Y-146710535D01*
X183143571Y-146639107D01*
X183107857Y-146615297D01*
X182857857Y-146615297D01*
X182857857Y-146710535D01*
X183179285Y-146401011D02*
X182429285Y-146401011D01*
X183179285Y-146115297D01*
X182429285Y-146115297D01*
X183179285Y-145877202D02*
X182429285Y-145877202D01*
X182429285Y-145758154D01*
X182465000Y-145686726D01*
X182536428Y-145639107D01*
X182607857Y-145615297D01*
X182750714Y-145591488D01*
X182857857Y-145591488D01*
X183000714Y-145615297D01*
X183072142Y-145639107D01*
X183143571Y-145686726D01*
X183179285Y-145758154D01*
X183179285Y-145877202D01*
X185643571Y-147353392D02*
X185679285Y-147281964D01*
X185679285Y-147162916D01*
X185643571Y-147115297D01*
X185607857Y-147091488D01*
X185536428Y-147067678D01*
X185465000Y-147067678D01*
X185393571Y-147091488D01*
X185357857Y-147115297D01*
X185322142Y-147162916D01*
X185286428Y-147258154D01*
X185250714Y-147305773D01*
X185215000Y-147329583D01*
X185143571Y-147353392D01*
X185072142Y-147353392D01*
X185000714Y-147329583D01*
X184965000Y-147305773D01*
X184929285Y-147258154D01*
X184929285Y-147139107D01*
X184965000Y-147067678D01*
X185679285Y-146853392D02*
X184929285Y-146853392D01*
X185679285Y-146567678D01*
X184929285Y-146567678D01*
X185643571Y-146353392D02*
X185679285Y-146281964D01*
X185679285Y-146162916D01*
X185643571Y-146115297D01*
X185607857Y-146091488D01*
X185536428Y-146067678D01*
X185465000Y-146067678D01*
X185393571Y-146091488D01*
X185357857Y-146115297D01*
X185322142Y-146162916D01*
X185286428Y-146258154D01*
X185250714Y-146305773D01*
X185215000Y-146329583D01*
X185143571Y-146353392D01*
X185072142Y-146353392D01*
X185000714Y-146329583D01*
X184965000Y-146305773D01*
X184929285Y-146258154D01*
X184929285Y-146139107D01*
X184965000Y-146067678D01*
X184929285Y-145639107D02*
X184929285Y-145734345D01*
X184965000Y-145781964D01*
X185000714Y-145805773D01*
X185107857Y-145853392D01*
X185250714Y-145877202D01*
X185536428Y-145877202D01*
X185607857Y-145853392D01*
X185643571Y-145829583D01*
X185679285Y-145781964D01*
X185679285Y-145686726D01*
X185643571Y-145639107D01*
X185607857Y-145615297D01*
X185536428Y-145591488D01*
X185357857Y-145591488D01*
X185286428Y-145615297D01*
X185250714Y-145639107D01*
X185215000Y-145686726D01*
X185215000Y-145781964D01*
X185250714Y-145829583D01*
X185286428Y-145853392D01*
X185357857Y-145877202D01*
X187465000Y-146639107D02*
X187429285Y-146686726D01*
X187429285Y-146758154D01*
X187465000Y-146829583D01*
X187536428Y-146877202D01*
X187607857Y-146901011D01*
X187750714Y-146924821D01*
X187857857Y-146924821D01*
X188000714Y-146901011D01*
X188072142Y-146877202D01*
X188143571Y-146829583D01*
X188179285Y-146758154D01*
X188179285Y-146710535D01*
X188143571Y-146639107D01*
X188107857Y-146615297D01*
X187857857Y-146615297D01*
X187857857Y-146710535D01*
X188179285Y-146401011D02*
X187429285Y-146401011D01*
X188179285Y-146115297D01*
X187429285Y-146115297D01*
X188179285Y-145877202D02*
X187429285Y-145877202D01*
X187429285Y-145758154D01*
X187465000Y-145686726D01*
X187536428Y-145639107D01*
X187607857Y-145615297D01*
X187750714Y-145591488D01*
X187857857Y-145591488D01*
X188000714Y-145615297D01*
X188072142Y-145639107D01*
X188143571Y-145686726D01*
X188179285Y-145758154D01*
X188179285Y-145877202D01*
X215609285Y-146043869D02*
X215609285Y-146281964D01*
X215966428Y-146305773D01*
X215930714Y-146281964D01*
X215895000Y-146234345D01*
X215895000Y-146115297D01*
X215930714Y-146067678D01*
X215966428Y-146043869D01*
X216037857Y-146020059D01*
X216216428Y-146020059D01*
X216287857Y-146043869D01*
X216323571Y-146067678D01*
X216359285Y-146115297D01*
X216359285Y-146234345D01*
X216323571Y-146281964D01*
X216287857Y-146305773D01*
X215609285Y-145877202D02*
X216359285Y-145710535D01*
X215609285Y-145543869D01*
X218859285Y-147448630D02*
X218859285Y-147686726D01*
X218109285Y-147686726D01*
X218466428Y-147281964D02*
X218466428Y-147115297D01*
X218859285Y-147043869D02*
X218859285Y-147281964D01*
X218109285Y-147281964D01*
X218109285Y-147043869D01*
X218859285Y-146829583D02*
X218109285Y-146829583D01*
X218109285Y-146710535D01*
X218145000Y-146639107D01*
X218216428Y-146591488D01*
X218287857Y-146567678D01*
X218430714Y-146543869D01*
X218537857Y-146543869D01*
X218680714Y-146567678D01*
X218752142Y-146591488D01*
X218823571Y-146639107D01*
X218859285Y-146710535D01*
X218859285Y-146829583D01*
X218859285Y-146067678D02*
X218859285Y-146353392D01*
X218859285Y-146210535D02*
X218109285Y-146210535D01*
X218216428Y-146258154D01*
X218287857Y-146305773D01*
X218323571Y-146353392D01*
X218109285Y-145901011D02*
X218109285Y-145591488D01*
X218395000Y-145758154D01*
X218395000Y-145686726D01*
X218430714Y-145639107D01*
X218466428Y-145615297D01*
X218537857Y-145591488D01*
X218716428Y-145591488D01*
X218787857Y-145615297D01*
X218823571Y-145639107D01*
X218859285Y-145686726D01*
X218859285Y-145829583D01*
X218823571Y-145877202D01*
X218787857Y-145901011D01*
X221359285Y-147448630D02*
X221359285Y-147686726D01*
X220609285Y-147686726D01*
X220966428Y-147281964D02*
X220966428Y-147115297D01*
X221359285Y-147043869D02*
X221359285Y-147281964D01*
X220609285Y-147281964D01*
X220609285Y-147043869D01*
X221359285Y-146829583D02*
X220609285Y-146829583D01*
X220609285Y-146710535D01*
X220645000Y-146639107D01*
X220716428Y-146591488D01*
X220787857Y-146567678D01*
X220930714Y-146543869D01*
X221037857Y-146543869D01*
X221180714Y-146567678D01*
X221252142Y-146591488D01*
X221323571Y-146639107D01*
X221359285Y-146710535D01*
X221359285Y-146829583D01*
X221359285Y-146067678D02*
X221359285Y-146353392D01*
X221359285Y-146210535D02*
X220609285Y-146210535D01*
X220716428Y-146258154D01*
X220787857Y-146305773D01*
X220823571Y-146353392D01*
X220859285Y-145639107D02*
X221359285Y-145639107D01*
X220573571Y-145758154D02*
X221109285Y-145877202D01*
X221109285Y-145567678D01*
X223823571Y-147829583D02*
X223859285Y-147758154D01*
X223859285Y-147639107D01*
X223823571Y-147591488D01*
X223787857Y-147567678D01*
X223716428Y-147543869D01*
X223645000Y-147543869D01*
X223573571Y-147567678D01*
X223537857Y-147591488D01*
X223502142Y-147639107D01*
X223466428Y-147734345D01*
X223430714Y-147781964D01*
X223395000Y-147805773D01*
X223323571Y-147829583D01*
X223252142Y-147829583D01*
X223180714Y-147805773D01*
X223145000Y-147781964D01*
X223109285Y-147734345D01*
X223109285Y-147615297D01*
X223145000Y-147543869D01*
X223859285Y-147329583D02*
X223109285Y-147329583D01*
X223859285Y-147043869D01*
X223109285Y-147043869D01*
X223823571Y-146829583D02*
X223859285Y-146758154D01*
X223859285Y-146639107D01*
X223823571Y-146591488D01*
X223787857Y-146567678D01*
X223716428Y-146543869D01*
X223645000Y-146543869D01*
X223573571Y-146567678D01*
X223537857Y-146591488D01*
X223502142Y-146639107D01*
X223466428Y-146734345D01*
X223430714Y-146781964D01*
X223395000Y-146805773D01*
X223323571Y-146829583D01*
X223252142Y-146829583D01*
X223180714Y-146805773D01*
X223145000Y-146781964D01*
X223109285Y-146734345D01*
X223109285Y-146615297D01*
X223145000Y-146543869D01*
X223859285Y-146067678D02*
X223859285Y-146353392D01*
X223859285Y-146210535D02*
X223109285Y-146210535D01*
X223216428Y-146258154D01*
X223287857Y-146305773D01*
X223323571Y-146353392D01*
X223109285Y-145901011D02*
X223109285Y-145591488D01*
X223395000Y-145758154D01*
X223395000Y-145686726D01*
X223430714Y-145639107D01*
X223466428Y-145615297D01*
X223537857Y-145591488D01*
X223716428Y-145591488D01*
X223787857Y-145615297D01*
X223823571Y-145639107D01*
X223859285Y-145686726D01*
X223859285Y-145829583D01*
X223823571Y-145877202D01*
X223787857Y-145901011D01*
X225645000Y-146639107D02*
X225609285Y-146686726D01*
X225609285Y-146758154D01*
X225645000Y-146829583D01*
X225716428Y-146877202D01*
X225787857Y-146901011D01*
X225930714Y-146924821D01*
X226037857Y-146924821D01*
X226180714Y-146901011D01*
X226252142Y-146877202D01*
X226323571Y-146829583D01*
X226359285Y-146758154D01*
X226359285Y-146710535D01*
X226323571Y-146639107D01*
X226287857Y-146615297D01*
X226037857Y-146615297D01*
X226037857Y-146710535D01*
X226359285Y-146401011D02*
X225609285Y-146401011D01*
X226359285Y-146115297D01*
X225609285Y-146115297D01*
X226359285Y-145877202D02*
X225609285Y-145877202D01*
X225609285Y-145758154D01*
X225645000Y-145686726D01*
X225716428Y-145639107D01*
X225787857Y-145615297D01*
X225930714Y-145591488D01*
X226037857Y-145591488D01*
X226180714Y-145615297D01*
X226252142Y-145639107D01*
X226323571Y-145686726D01*
X226359285Y-145758154D01*
X226359285Y-145877202D01*
X228823571Y-147829583D02*
X228859285Y-147758154D01*
X228859285Y-147639107D01*
X228823571Y-147591488D01*
X228787857Y-147567678D01*
X228716428Y-147543869D01*
X228645000Y-147543869D01*
X228573571Y-147567678D01*
X228537857Y-147591488D01*
X228502142Y-147639107D01*
X228466428Y-147734345D01*
X228430714Y-147781964D01*
X228395000Y-147805773D01*
X228323571Y-147829583D01*
X228252142Y-147829583D01*
X228180714Y-147805773D01*
X228145000Y-147781964D01*
X228109285Y-147734345D01*
X228109285Y-147615297D01*
X228145000Y-147543869D01*
X228859285Y-147329583D02*
X228109285Y-147329583D01*
X228859285Y-147043869D01*
X228109285Y-147043869D01*
X228823571Y-146829583D02*
X228859285Y-146758154D01*
X228859285Y-146639107D01*
X228823571Y-146591488D01*
X228787857Y-146567678D01*
X228716428Y-146543869D01*
X228645000Y-146543869D01*
X228573571Y-146567678D01*
X228537857Y-146591488D01*
X228502142Y-146639107D01*
X228466428Y-146734345D01*
X228430714Y-146781964D01*
X228395000Y-146805773D01*
X228323571Y-146829583D01*
X228252142Y-146829583D01*
X228180714Y-146805773D01*
X228145000Y-146781964D01*
X228109285Y-146734345D01*
X228109285Y-146615297D01*
X228145000Y-146543869D01*
X228859285Y-146067678D02*
X228859285Y-146353392D01*
X228859285Y-146210535D02*
X228109285Y-146210535D01*
X228216428Y-146258154D01*
X228287857Y-146305773D01*
X228323571Y-146353392D01*
X228359285Y-145639107D02*
X228859285Y-145639107D01*
X228073571Y-145758154D02*
X228609285Y-145877202D01*
X228609285Y-145567678D01*
X230645000Y-146639107D02*
X230609285Y-146686726D01*
X230609285Y-146758154D01*
X230645000Y-146829583D01*
X230716428Y-146877202D01*
X230787857Y-146901011D01*
X230930714Y-146924821D01*
X231037857Y-146924821D01*
X231180714Y-146901011D01*
X231252142Y-146877202D01*
X231323571Y-146829583D01*
X231359285Y-146758154D01*
X231359285Y-146710535D01*
X231323571Y-146639107D01*
X231287857Y-146615297D01*
X231037857Y-146615297D01*
X231037857Y-146710535D01*
X231359285Y-146401011D02*
X230609285Y-146401011D01*
X231359285Y-146115297D01*
X230609285Y-146115297D01*
X231359285Y-145877202D02*
X230609285Y-145877202D01*
X230609285Y-145758154D01*
X230645000Y-145686726D01*
X230716428Y-145639107D01*
X230787857Y-145615297D01*
X230930714Y-145591488D01*
X231037857Y-145591488D01*
X231180714Y-145615297D01*
X231252142Y-145639107D01*
X231323571Y-145686726D01*
X231359285Y-145758154D01*
X231359285Y-145877202D01*
X150839285Y-146043869D02*
X150839285Y-146281964D01*
X151196428Y-146305773D01*
X151160714Y-146281964D01*
X151125000Y-146234345D01*
X151125000Y-146115297D01*
X151160714Y-146067678D01*
X151196428Y-146043869D01*
X151267857Y-146020059D01*
X151446428Y-146020059D01*
X151517857Y-146043869D01*
X151553571Y-146067678D01*
X151589285Y-146115297D01*
X151589285Y-146234345D01*
X151553571Y-146281964D01*
X151517857Y-146305773D01*
X150839285Y-145877202D02*
X151589285Y-145710535D01*
X150839285Y-145543869D01*
X154089285Y-146972440D02*
X154089285Y-147210535D01*
X153339285Y-147210535D01*
X153696428Y-146805773D02*
X153696428Y-146639107D01*
X154089285Y-146567678D02*
X154089285Y-146805773D01*
X153339285Y-146805773D01*
X153339285Y-146567678D01*
X154089285Y-146353392D02*
X153339285Y-146353392D01*
X153339285Y-146234345D01*
X153375000Y-146162916D01*
X153446428Y-146115297D01*
X153517857Y-146091488D01*
X153660714Y-146067678D01*
X153767857Y-146067678D01*
X153910714Y-146091488D01*
X153982142Y-146115297D01*
X154053571Y-146162916D01*
X154089285Y-146234345D01*
X154089285Y-146353392D01*
X154089285Y-145591488D02*
X154089285Y-145877202D01*
X154089285Y-145734345D02*
X153339285Y-145734345D01*
X153446428Y-145781964D01*
X153517857Y-145829583D01*
X153553571Y-145877202D01*
X156589285Y-146972440D02*
X156589285Y-147210535D01*
X155839285Y-147210535D01*
X156196428Y-146805773D02*
X156196428Y-146639107D01*
X156589285Y-146567678D02*
X156589285Y-146805773D01*
X155839285Y-146805773D01*
X155839285Y-146567678D01*
X156589285Y-146353392D02*
X155839285Y-146353392D01*
X155839285Y-146234345D01*
X155875000Y-146162916D01*
X155946428Y-146115297D01*
X156017857Y-146091488D01*
X156160714Y-146067678D01*
X156267857Y-146067678D01*
X156410714Y-146091488D01*
X156482142Y-146115297D01*
X156553571Y-146162916D01*
X156589285Y-146234345D01*
X156589285Y-146353392D01*
X155910714Y-145877202D02*
X155875000Y-145853392D01*
X155839285Y-145805773D01*
X155839285Y-145686726D01*
X155875000Y-145639107D01*
X155910714Y-145615297D01*
X155982142Y-145591488D01*
X156053571Y-145591488D01*
X156160714Y-145615297D01*
X156589285Y-145901011D01*
X156589285Y-145591488D01*
X159053571Y-147353392D02*
X159089285Y-147281964D01*
X159089285Y-147162916D01*
X159053571Y-147115297D01*
X159017857Y-147091488D01*
X158946428Y-147067678D01*
X158875000Y-147067678D01*
X158803571Y-147091488D01*
X158767857Y-147115297D01*
X158732142Y-147162916D01*
X158696428Y-147258154D01*
X158660714Y-147305773D01*
X158625000Y-147329583D01*
X158553571Y-147353392D01*
X158482142Y-147353392D01*
X158410714Y-147329583D01*
X158375000Y-147305773D01*
X158339285Y-147258154D01*
X158339285Y-147139107D01*
X158375000Y-147067678D01*
X159089285Y-146853392D02*
X158339285Y-146853392D01*
X159089285Y-146567678D01*
X158339285Y-146567678D01*
X159053571Y-146353392D02*
X159089285Y-146281964D01*
X159089285Y-146162916D01*
X159053571Y-146115297D01*
X159017857Y-146091488D01*
X158946428Y-146067678D01*
X158875000Y-146067678D01*
X158803571Y-146091488D01*
X158767857Y-146115297D01*
X158732142Y-146162916D01*
X158696428Y-146258154D01*
X158660714Y-146305773D01*
X158625000Y-146329583D01*
X158553571Y-146353392D01*
X158482142Y-146353392D01*
X158410714Y-146329583D01*
X158375000Y-146305773D01*
X158339285Y-146258154D01*
X158339285Y-146139107D01*
X158375000Y-146067678D01*
X159089285Y-145591488D02*
X159089285Y-145877202D01*
X159089285Y-145734345D02*
X158339285Y-145734345D01*
X158446428Y-145781964D01*
X158517857Y-145829583D01*
X158553571Y-145877202D01*
X160875000Y-146639107D02*
X160839285Y-146686726D01*
X160839285Y-146758154D01*
X160875000Y-146829583D01*
X160946428Y-146877202D01*
X161017857Y-146901011D01*
X161160714Y-146924821D01*
X161267857Y-146924821D01*
X161410714Y-146901011D01*
X161482142Y-146877202D01*
X161553571Y-146829583D01*
X161589285Y-146758154D01*
X161589285Y-146710535D01*
X161553571Y-146639107D01*
X161517857Y-146615297D01*
X161267857Y-146615297D01*
X161267857Y-146710535D01*
X161589285Y-146401011D02*
X160839285Y-146401011D01*
X161589285Y-146115297D01*
X160839285Y-146115297D01*
X161589285Y-145877202D02*
X160839285Y-145877202D01*
X160839285Y-145758154D01*
X160875000Y-145686726D01*
X160946428Y-145639107D01*
X161017857Y-145615297D01*
X161160714Y-145591488D01*
X161267857Y-145591488D01*
X161410714Y-145615297D01*
X161482142Y-145639107D01*
X161553571Y-145686726D01*
X161589285Y-145758154D01*
X161589285Y-145877202D01*
X164053571Y-147353392D02*
X164089285Y-147281964D01*
X164089285Y-147162916D01*
X164053571Y-147115297D01*
X164017857Y-147091488D01*
X163946428Y-147067678D01*
X163875000Y-147067678D01*
X163803571Y-147091488D01*
X163767857Y-147115297D01*
X163732142Y-147162916D01*
X163696428Y-147258154D01*
X163660714Y-147305773D01*
X163625000Y-147329583D01*
X163553571Y-147353392D01*
X163482142Y-147353392D01*
X163410714Y-147329583D01*
X163375000Y-147305773D01*
X163339285Y-147258154D01*
X163339285Y-147139107D01*
X163375000Y-147067678D01*
X164089285Y-146853392D02*
X163339285Y-146853392D01*
X164089285Y-146567678D01*
X163339285Y-146567678D01*
X164053571Y-146353392D02*
X164089285Y-146281964D01*
X164089285Y-146162916D01*
X164053571Y-146115297D01*
X164017857Y-146091488D01*
X163946428Y-146067678D01*
X163875000Y-146067678D01*
X163803571Y-146091488D01*
X163767857Y-146115297D01*
X163732142Y-146162916D01*
X163696428Y-146258154D01*
X163660714Y-146305773D01*
X163625000Y-146329583D01*
X163553571Y-146353392D01*
X163482142Y-146353392D01*
X163410714Y-146329583D01*
X163375000Y-146305773D01*
X163339285Y-146258154D01*
X163339285Y-146139107D01*
X163375000Y-146067678D01*
X163410714Y-145877202D02*
X163375000Y-145853392D01*
X163339285Y-145805773D01*
X163339285Y-145686726D01*
X163375000Y-145639107D01*
X163410714Y-145615297D01*
X163482142Y-145591488D01*
X163553571Y-145591488D01*
X163660714Y-145615297D01*
X164089285Y-145901011D01*
X164089285Y-145591488D01*
X165875000Y-146639107D02*
X165839285Y-146686726D01*
X165839285Y-146758154D01*
X165875000Y-146829583D01*
X165946428Y-146877202D01*
X166017857Y-146901011D01*
X166160714Y-146924821D01*
X166267857Y-146924821D01*
X166410714Y-146901011D01*
X166482142Y-146877202D01*
X166553571Y-146829583D01*
X166589285Y-146758154D01*
X166589285Y-146710535D01*
X166553571Y-146639107D01*
X166517857Y-146615297D01*
X166267857Y-146615297D01*
X166267857Y-146710535D01*
X166589285Y-146401011D02*
X165839285Y-146401011D01*
X166589285Y-146115297D01*
X165839285Y-146115297D01*
X166589285Y-145877202D02*
X165839285Y-145877202D01*
X165839285Y-145758154D01*
X165875000Y-145686726D01*
X165946428Y-145639107D01*
X166017857Y-145615297D01*
X166160714Y-145591488D01*
X166267857Y-145591488D01*
X166410714Y-145615297D01*
X166482142Y-145639107D01*
X166553571Y-145686726D01*
X166589285Y-145758154D01*
X166589285Y-145877202D01*
X215609285Y-139896607D02*
X215609285Y-140134702D01*
X215966428Y-140158511D01*
X215930714Y-140134702D01*
X215895000Y-140087083D01*
X215895000Y-139968035D01*
X215930714Y-139920416D01*
X215966428Y-139896607D01*
X216037857Y-139872797D01*
X216216428Y-139872797D01*
X216287857Y-139896607D01*
X216323571Y-139920416D01*
X216359285Y-139968035D01*
X216359285Y-140087083D01*
X216323571Y-140134702D01*
X216287857Y-140158511D01*
X215609285Y-139729940D02*
X216359285Y-139563273D01*
X215609285Y-139396607D01*
X218859285Y-139896607D02*
X218859285Y-140134702D01*
X218109285Y-140134702D01*
X218466428Y-139729940D02*
X218466428Y-139563273D01*
X218859285Y-139491845D02*
X218859285Y-139729940D01*
X218109285Y-139729940D01*
X218109285Y-139491845D01*
X218859285Y-139277559D02*
X218109285Y-139277559D01*
X218109285Y-139158511D01*
X218145000Y-139087083D01*
X218216428Y-139039464D01*
X218287857Y-139015654D01*
X218430714Y-138991845D01*
X218537857Y-138991845D01*
X218680714Y-139015654D01*
X218752142Y-139039464D01*
X218823571Y-139087083D01*
X218859285Y-139158511D01*
X218859285Y-139277559D01*
X218859285Y-138515654D02*
X218859285Y-138801369D01*
X218859285Y-138658511D02*
X218109285Y-138658511D01*
X218216428Y-138706130D01*
X218287857Y-138753750D01*
X218323571Y-138801369D01*
X218109285Y-138063273D02*
X218109285Y-138301369D01*
X218466428Y-138325178D01*
X218430714Y-138301369D01*
X218395000Y-138253750D01*
X218395000Y-138134702D01*
X218430714Y-138087083D01*
X218466428Y-138063273D01*
X218537857Y-138039464D01*
X218716428Y-138039464D01*
X218787857Y-138063273D01*
X218823571Y-138087083D01*
X218859285Y-138134702D01*
X218859285Y-138253750D01*
X218823571Y-138301369D01*
X218787857Y-138325178D01*
X221359285Y-139896607D02*
X221359285Y-140134702D01*
X220609285Y-140134702D01*
X220966428Y-139729940D02*
X220966428Y-139563273D01*
X221359285Y-139491845D02*
X221359285Y-139729940D01*
X220609285Y-139729940D01*
X220609285Y-139491845D01*
X221359285Y-139277559D02*
X220609285Y-139277559D01*
X220609285Y-139158511D01*
X220645000Y-139087083D01*
X220716428Y-139039464D01*
X220787857Y-139015654D01*
X220930714Y-138991845D01*
X221037857Y-138991845D01*
X221180714Y-139015654D01*
X221252142Y-139039464D01*
X221323571Y-139087083D01*
X221359285Y-139158511D01*
X221359285Y-139277559D01*
X221359285Y-138515654D02*
X221359285Y-138801369D01*
X221359285Y-138658511D02*
X220609285Y-138658511D01*
X220716428Y-138706130D01*
X220787857Y-138753750D01*
X220823571Y-138801369D01*
X220609285Y-138087083D02*
X220609285Y-138182321D01*
X220645000Y-138229940D01*
X220680714Y-138253750D01*
X220787857Y-138301369D01*
X220930714Y-138325178D01*
X221216428Y-138325178D01*
X221287857Y-138301369D01*
X221323571Y-138277559D01*
X221359285Y-138229940D01*
X221359285Y-138134702D01*
X221323571Y-138087083D01*
X221287857Y-138063273D01*
X221216428Y-138039464D01*
X221037857Y-138039464D01*
X220966428Y-138063273D01*
X220930714Y-138087083D01*
X220895000Y-138134702D01*
X220895000Y-138229940D01*
X220930714Y-138277559D01*
X220966428Y-138301369D01*
X221037857Y-138325178D01*
X223145000Y-139872797D02*
X223109285Y-139920416D01*
X223109285Y-139991845D01*
X223145000Y-140063273D01*
X223216428Y-140110892D01*
X223287857Y-140134702D01*
X223430714Y-140158511D01*
X223537857Y-140158511D01*
X223680714Y-140134702D01*
X223752142Y-140110892D01*
X223823571Y-140063273D01*
X223859285Y-139991845D01*
X223859285Y-139944226D01*
X223823571Y-139872797D01*
X223787857Y-139848988D01*
X223537857Y-139848988D01*
X223537857Y-139944226D01*
X223859285Y-139634702D02*
X223109285Y-139634702D01*
X223859285Y-139348988D01*
X223109285Y-139348988D01*
X223859285Y-139110892D02*
X223109285Y-139110892D01*
X223109285Y-138991845D01*
X223145000Y-138920416D01*
X223216428Y-138872797D01*
X223287857Y-138848988D01*
X223430714Y-138825178D01*
X223537857Y-138825178D01*
X223680714Y-138848988D01*
X223752142Y-138872797D01*
X223823571Y-138920416D01*
X223859285Y-138991845D01*
X223859285Y-139110892D01*
X226323571Y-140158511D02*
X226359285Y-140087083D01*
X226359285Y-139968035D01*
X226323571Y-139920416D01*
X226287857Y-139896607D01*
X226216428Y-139872797D01*
X226145000Y-139872797D01*
X226073571Y-139896607D01*
X226037857Y-139920416D01*
X226002142Y-139968035D01*
X225966428Y-140063273D01*
X225930714Y-140110892D01*
X225895000Y-140134702D01*
X225823571Y-140158511D01*
X225752142Y-140158511D01*
X225680714Y-140134702D01*
X225645000Y-140110892D01*
X225609285Y-140063273D01*
X225609285Y-139944226D01*
X225645000Y-139872797D01*
X226359285Y-139658511D02*
X225609285Y-139658511D01*
X226359285Y-139372797D01*
X225609285Y-139372797D01*
X226323571Y-139158511D02*
X226359285Y-139087083D01*
X226359285Y-138968035D01*
X226323571Y-138920416D01*
X226287857Y-138896607D01*
X226216428Y-138872797D01*
X226145000Y-138872797D01*
X226073571Y-138896607D01*
X226037857Y-138920416D01*
X226002142Y-138968035D01*
X225966428Y-139063273D01*
X225930714Y-139110892D01*
X225895000Y-139134702D01*
X225823571Y-139158511D01*
X225752142Y-139158511D01*
X225680714Y-139134702D01*
X225645000Y-139110892D01*
X225609285Y-139063273D01*
X225609285Y-138944226D01*
X225645000Y-138872797D01*
X226359285Y-138396607D02*
X226359285Y-138682321D01*
X226359285Y-138539464D02*
X225609285Y-138539464D01*
X225716428Y-138587083D01*
X225787857Y-138634702D01*
X225823571Y-138682321D01*
X225609285Y-137944226D02*
X225609285Y-138182321D01*
X225966428Y-138206130D01*
X225930714Y-138182321D01*
X225895000Y-138134702D01*
X225895000Y-138015654D01*
X225930714Y-137968035D01*
X225966428Y-137944226D01*
X226037857Y-137920416D01*
X226216428Y-137920416D01*
X226287857Y-137944226D01*
X226323571Y-137968035D01*
X226359285Y-138015654D01*
X226359285Y-138134702D01*
X226323571Y-138182321D01*
X226287857Y-138206130D01*
X228145000Y-139872797D02*
X228109285Y-139920416D01*
X228109285Y-139991845D01*
X228145000Y-140063273D01*
X228216428Y-140110892D01*
X228287857Y-140134702D01*
X228430714Y-140158511D01*
X228537857Y-140158511D01*
X228680714Y-140134702D01*
X228752142Y-140110892D01*
X228823571Y-140063273D01*
X228859285Y-139991845D01*
X228859285Y-139944226D01*
X228823571Y-139872797D01*
X228787857Y-139848988D01*
X228537857Y-139848988D01*
X228537857Y-139944226D01*
X228859285Y-139634702D02*
X228109285Y-139634702D01*
X228859285Y-139348988D01*
X228109285Y-139348988D01*
X228859285Y-139110892D02*
X228109285Y-139110892D01*
X228109285Y-138991845D01*
X228145000Y-138920416D01*
X228216428Y-138872797D01*
X228287857Y-138848988D01*
X228430714Y-138825178D01*
X228537857Y-138825178D01*
X228680714Y-138848988D01*
X228752142Y-138872797D01*
X228823571Y-138920416D01*
X228859285Y-138991845D01*
X228859285Y-139110892D01*
X231323571Y-140158511D02*
X231359285Y-140087083D01*
X231359285Y-139968035D01*
X231323571Y-139920416D01*
X231287857Y-139896607D01*
X231216428Y-139872797D01*
X231145000Y-139872797D01*
X231073571Y-139896607D01*
X231037857Y-139920416D01*
X231002142Y-139968035D01*
X230966428Y-140063273D01*
X230930714Y-140110892D01*
X230895000Y-140134702D01*
X230823571Y-140158511D01*
X230752142Y-140158511D01*
X230680714Y-140134702D01*
X230645000Y-140110892D01*
X230609285Y-140063273D01*
X230609285Y-139944226D01*
X230645000Y-139872797D01*
X231359285Y-139658511D02*
X230609285Y-139658511D01*
X231359285Y-139372797D01*
X230609285Y-139372797D01*
X231323571Y-139158511D02*
X231359285Y-139087083D01*
X231359285Y-138968035D01*
X231323571Y-138920416D01*
X231287857Y-138896607D01*
X231216428Y-138872797D01*
X231145000Y-138872797D01*
X231073571Y-138896607D01*
X231037857Y-138920416D01*
X231002142Y-138968035D01*
X230966428Y-139063273D01*
X230930714Y-139110892D01*
X230895000Y-139134702D01*
X230823571Y-139158511D01*
X230752142Y-139158511D01*
X230680714Y-139134702D01*
X230645000Y-139110892D01*
X230609285Y-139063273D01*
X230609285Y-138944226D01*
X230645000Y-138872797D01*
X231359285Y-138396607D02*
X231359285Y-138682321D01*
X231359285Y-138539464D02*
X230609285Y-138539464D01*
X230716428Y-138587083D01*
X230787857Y-138634702D01*
X230823571Y-138682321D01*
X230609285Y-137968035D02*
X230609285Y-138063273D01*
X230645000Y-138110892D01*
X230680714Y-138134702D01*
X230787857Y-138182321D01*
X230930714Y-138206130D01*
X231216428Y-138206130D01*
X231287857Y-138182321D01*
X231323571Y-138158511D01*
X231359285Y-138110892D01*
X231359285Y-138015654D01*
X231323571Y-137968035D01*
X231287857Y-137944226D01*
X231216428Y-137920416D01*
X231037857Y-137920416D01*
X230966428Y-137944226D01*
X230930714Y-137968035D01*
X230895000Y-138015654D01*
X230895000Y-138110892D01*
X230930714Y-138158511D01*
X230966428Y-138182321D01*
X231037857Y-138206130D01*
X194019285Y-139896607D02*
X194019285Y-140134702D01*
X194376428Y-140158511D01*
X194340714Y-140134702D01*
X194305000Y-140087083D01*
X194305000Y-139968035D01*
X194340714Y-139920416D01*
X194376428Y-139896607D01*
X194447857Y-139872797D01*
X194626428Y-139872797D01*
X194697857Y-139896607D01*
X194733571Y-139920416D01*
X194769285Y-139968035D01*
X194769285Y-140087083D01*
X194733571Y-140134702D01*
X194697857Y-140158511D01*
X194019285Y-139729940D02*
X194769285Y-139563273D01*
X194019285Y-139396607D01*
X197269285Y-139896607D02*
X197269285Y-140134702D01*
X196519285Y-140134702D01*
X196876428Y-139729940D02*
X196876428Y-139563273D01*
X197269285Y-139491845D02*
X197269285Y-139729940D01*
X196519285Y-139729940D01*
X196519285Y-139491845D01*
X197269285Y-139277559D02*
X196519285Y-139277559D01*
X196519285Y-139158511D01*
X196555000Y-139087083D01*
X196626428Y-139039464D01*
X196697857Y-139015654D01*
X196840714Y-138991845D01*
X196947857Y-138991845D01*
X197090714Y-139015654D01*
X197162142Y-139039464D01*
X197233571Y-139087083D01*
X197269285Y-139158511D01*
X197269285Y-139277559D01*
X197269285Y-138515654D02*
X197269285Y-138801369D01*
X197269285Y-138658511D02*
X196519285Y-138658511D01*
X196626428Y-138706130D01*
X196697857Y-138753750D01*
X196733571Y-138801369D01*
X197269285Y-138039464D02*
X197269285Y-138325178D01*
X197269285Y-138182321D02*
X196519285Y-138182321D01*
X196626428Y-138229940D01*
X196697857Y-138277559D01*
X196733571Y-138325178D01*
X199769285Y-139896607D02*
X199769285Y-140134702D01*
X199019285Y-140134702D01*
X199376428Y-139729940D02*
X199376428Y-139563273D01*
X199769285Y-139491845D02*
X199769285Y-139729940D01*
X199019285Y-139729940D01*
X199019285Y-139491845D01*
X199769285Y-139277559D02*
X199019285Y-139277559D01*
X199019285Y-139158511D01*
X199055000Y-139087083D01*
X199126428Y-139039464D01*
X199197857Y-139015654D01*
X199340714Y-138991845D01*
X199447857Y-138991845D01*
X199590714Y-139015654D01*
X199662142Y-139039464D01*
X199733571Y-139087083D01*
X199769285Y-139158511D01*
X199769285Y-139277559D01*
X199769285Y-138515654D02*
X199769285Y-138801369D01*
X199769285Y-138658511D02*
X199019285Y-138658511D01*
X199126428Y-138706130D01*
X199197857Y-138753750D01*
X199233571Y-138801369D01*
X199090714Y-138325178D02*
X199055000Y-138301369D01*
X199019285Y-138253750D01*
X199019285Y-138134702D01*
X199055000Y-138087083D01*
X199090714Y-138063273D01*
X199162142Y-138039464D01*
X199233571Y-138039464D01*
X199340714Y-138063273D01*
X199769285Y-138348988D01*
X199769285Y-138039464D01*
X201555000Y-139872797D02*
X201519285Y-139920416D01*
X201519285Y-139991845D01*
X201555000Y-140063273D01*
X201626428Y-140110892D01*
X201697857Y-140134702D01*
X201840714Y-140158511D01*
X201947857Y-140158511D01*
X202090714Y-140134702D01*
X202162142Y-140110892D01*
X202233571Y-140063273D01*
X202269285Y-139991845D01*
X202269285Y-139944226D01*
X202233571Y-139872797D01*
X202197857Y-139848988D01*
X201947857Y-139848988D01*
X201947857Y-139944226D01*
X202269285Y-139634702D02*
X201519285Y-139634702D01*
X202269285Y-139348988D01*
X201519285Y-139348988D01*
X202269285Y-139110892D02*
X201519285Y-139110892D01*
X201519285Y-138991845D01*
X201555000Y-138920416D01*
X201626428Y-138872797D01*
X201697857Y-138848988D01*
X201840714Y-138825178D01*
X201947857Y-138825178D01*
X202090714Y-138848988D01*
X202162142Y-138872797D01*
X202233571Y-138920416D01*
X202269285Y-138991845D01*
X202269285Y-139110892D01*
X204733571Y-140158511D02*
X204769285Y-140087083D01*
X204769285Y-139968035D01*
X204733571Y-139920416D01*
X204697857Y-139896607D01*
X204626428Y-139872797D01*
X204555000Y-139872797D01*
X204483571Y-139896607D01*
X204447857Y-139920416D01*
X204412142Y-139968035D01*
X204376428Y-140063273D01*
X204340714Y-140110892D01*
X204305000Y-140134702D01*
X204233571Y-140158511D01*
X204162142Y-140158511D01*
X204090714Y-140134702D01*
X204055000Y-140110892D01*
X204019285Y-140063273D01*
X204019285Y-139944226D01*
X204055000Y-139872797D01*
X204769285Y-139658511D02*
X204019285Y-139658511D01*
X204769285Y-139372797D01*
X204019285Y-139372797D01*
X204733571Y-139158511D02*
X204769285Y-139087083D01*
X204769285Y-138968035D01*
X204733571Y-138920416D01*
X204697857Y-138896607D01*
X204626428Y-138872797D01*
X204555000Y-138872797D01*
X204483571Y-138896607D01*
X204447857Y-138920416D01*
X204412142Y-138968035D01*
X204376428Y-139063273D01*
X204340714Y-139110892D01*
X204305000Y-139134702D01*
X204233571Y-139158511D01*
X204162142Y-139158511D01*
X204090714Y-139134702D01*
X204055000Y-139110892D01*
X204019285Y-139063273D01*
X204019285Y-138944226D01*
X204055000Y-138872797D01*
X204769285Y-138396607D02*
X204769285Y-138682321D01*
X204769285Y-138539464D02*
X204019285Y-138539464D01*
X204126428Y-138587083D01*
X204197857Y-138634702D01*
X204233571Y-138682321D01*
X204769285Y-137920416D02*
X204769285Y-138206130D01*
X204769285Y-138063273D02*
X204019285Y-138063273D01*
X204126428Y-138110892D01*
X204197857Y-138158511D01*
X204233571Y-138206130D01*
X206555000Y-139872797D02*
X206519285Y-139920416D01*
X206519285Y-139991845D01*
X206555000Y-140063273D01*
X206626428Y-140110892D01*
X206697857Y-140134702D01*
X206840714Y-140158511D01*
X206947857Y-140158511D01*
X207090714Y-140134702D01*
X207162142Y-140110892D01*
X207233571Y-140063273D01*
X207269285Y-139991845D01*
X207269285Y-139944226D01*
X207233571Y-139872797D01*
X207197857Y-139848988D01*
X206947857Y-139848988D01*
X206947857Y-139944226D01*
X207269285Y-139634702D02*
X206519285Y-139634702D01*
X207269285Y-139348988D01*
X206519285Y-139348988D01*
X207269285Y-139110892D02*
X206519285Y-139110892D01*
X206519285Y-138991845D01*
X206555000Y-138920416D01*
X206626428Y-138872797D01*
X206697857Y-138848988D01*
X206840714Y-138825178D01*
X206947857Y-138825178D01*
X207090714Y-138848988D01*
X207162142Y-138872797D01*
X207233571Y-138920416D01*
X207269285Y-138991845D01*
X207269285Y-139110892D01*
X209733571Y-140158511D02*
X209769285Y-140087083D01*
X209769285Y-139968035D01*
X209733571Y-139920416D01*
X209697857Y-139896607D01*
X209626428Y-139872797D01*
X209555000Y-139872797D01*
X209483571Y-139896607D01*
X209447857Y-139920416D01*
X209412142Y-139968035D01*
X209376428Y-140063273D01*
X209340714Y-140110892D01*
X209305000Y-140134702D01*
X209233571Y-140158511D01*
X209162142Y-140158511D01*
X209090714Y-140134702D01*
X209055000Y-140110892D01*
X209019285Y-140063273D01*
X209019285Y-139944226D01*
X209055000Y-139872797D01*
X209769285Y-139658511D02*
X209019285Y-139658511D01*
X209769285Y-139372797D01*
X209019285Y-139372797D01*
X209733571Y-139158511D02*
X209769285Y-139087083D01*
X209769285Y-138968035D01*
X209733571Y-138920416D01*
X209697857Y-138896607D01*
X209626428Y-138872797D01*
X209555000Y-138872797D01*
X209483571Y-138896607D01*
X209447857Y-138920416D01*
X209412142Y-138968035D01*
X209376428Y-139063273D01*
X209340714Y-139110892D01*
X209305000Y-139134702D01*
X209233571Y-139158511D01*
X209162142Y-139158511D01*
X209090714Y-139134702D01*
X209055000Y-139110892D01*
X209019285Y-139063273D01*
X209019285Y-138944226D01*
X209055000Y-138872797D01*
X209769285Y-138396607D02*
X209769285Y-138682321D01*
X209769285Y-138539464D02*
X209019285Y-138539464D01*
X209126428Y-138587083D01*
X209197857Y-138634702D01*
X209233571Y-138682321D01*
X209090714Y-138206130D02*
X209055000Y-138182321D01*
X209019285Y-138134702D01*
X209019285Y-138015654D01*
X209055000Y-137968035D01*
X209090714Y-137944226D01*
X209162142Y-137920416D01*
X209233571Y-137920416D01*
X209340714Y-137944226D01*
X209769285Y-138229940D01*
X209769285Y-137920416D01*
X172429285Y-139896607D02*
X172429285Y-140134702D01*
X172786428Y-140158511D01*
X172750714Y-140134702D01*
X172715000Y-140087083D01*
X172715000Y-139968035D01*
X172750714Y-139920416D01*
X172786428Y-139896607D01*
X172857857Y-139872797D01*
X173036428Y-139872797D01*
X173107857Y-139896607D01*
X173143571Y-139920416D01*
X173179285Y-139968035D01*
X173179285Y-140087083D01*
X173143571Y-140134702D01*
X173107857Y-140158511D01*
X172429285Y-139729940D02*
X173179285Y-139563273D01*
X172429285Y-139396607D01*
X175679285Y-139896607D02*
X175679285Y-140134702D01*
X174929285Y-140134702D01*
X175286428Y-139729940D02*
X175286428Y-139563273D01*
X175679285Y-139491845D02*
X175679285Y-139729940D01*
X174929285Y-139729940D01*
X174929285Y-139491845D01*
X175679285Y-139277559D02*
X174929285Y-139277559D01*
X174929285Y-139158511D01*
X174965000Y-139087083D01*
X175036428Y-139039464D01*
X175107857Y-139015654D01*
X175250714Y-138991845D01*
X175357857Y-138991845D01*
X175500714Y-139015654D01*
X175572142Y-139039464D01*
X175643571Y-139087083D01*
X175679285Y-139158511D01*
X175679285Y-139277559D01*
X174929285Y-138825178D02*
X174929285Y-138491845D01*
X175679285Y-138706130D01*
X178179285Y-139896607D02*
X178179285Y-140134702D01*
X177429285Y-140134702D01*
X177786428Y-139729940D02*
X177786428Y-139563273D01*
X178179285Y-139491845D02*
X178179285Y-139729940D01*
X177429285Y-139729940D01*
X177429285Y-139491845D01*
X178179285Y-139277559D02*
X177429285Y-139277559D01*
X177429285Y-139158511D01*
X177465000Y-139087083D01*
X177536428Y-139039464D01*
X177607857Y-139015654D01*
X177750714Y-138991845D01*
X177857857Y-138991845D01*
X178000714Y-139015654D01*
X178072142Y-139039464D01*
X178143571Y-139087083D01*
X178179285Y-139158511D01*
X178179285Y-139277559D01*
X177750714Y-138706130D02*
X177715000Y-138753750D01*
X177679285Y-138777559D01*
X177607857Y-138801369D01*
X177572142Y-138801369D01*
X177500714Y-138777559D01*
X177465000Y-138753750D01*
X177429285Y-138706130D01*
X177429285Y-138610892D01*
X177465000Y-138563273D01*
X177500714Y-138539464D01*
X177572142Y-138515654D01*
X177607857Y-138515654D01*
X177679285Y-138539464D01*
X177715000Y-138563273D01*
X177750714Y-138610892D01*
X177750714Y-138706130D01*
X177786428Y-138753750D01*
X177822142Y-138777559D01*
X177893571Y-138801369D01*
X178036428Y-138801369D01*
X178107857Y-138777559D01*
X178143571Y-138753750D01*
X178179285Y-138706130D01*
X178179285Y-138610892D01*
X178143571Y-138563273D01*
X178107857Y-138539464D01*
X178036428Y-138515654D01*
X177893571Y-138515654D01*
X177822142Y-138539464D01*
X177786428Y-138563273D01*
X177750714Y-138610892D01*
X179965000Y-139872797D02*
X179929285Y-139920416D01*
X179929285Y-139991845D01*
X179965000Y-140063273D01*
X180036428Y-140110892D01*
X180107857Y-140134702D01*
X180250714Y-140158511D01*
X180357857Y-140158511D01*
X180500714Y-140134702D01*
X180572142Y-140110892D01*
X180643571Y-140063273D01*
X180679285Y-139991845D01*
X180679285Y-139944226D01*
X180643571Y-139872797D01*
X180607857Y-139848988D01*
X180357857Y-139848988D01*
X180357857Y-139944226D01*
X180679285Y-139634702D02*
X179929285Y-139634702D01*
X180679285Y-139348988D01*
X179929285Y-139348988D01*
X180679285Y-139110892D02*
X179929285Y-139110892D01*
X179929285Y-138991845D01*
X179965000Y-138920416D01*
X180036428Y-138872797D01*
X180107857Y-138848988D01*
X180250714Y-138825178D01*
X180357857Y-138825178D01*
X180500714Y-138848988D01*
X180572142Y-138872797D01*
X180643571Y-138920416D01*
X180679285Y-138991845D01*
X180679285Y-139110892D01*
X183143571Y-140158511D02*
X183179285Y-140087083D01*
X183179285Y-139968035D01*
X183143571Y-139920416D01*
X183107857Y-139896607D01*
X183036428Y-139872797D01*
X182965000Y-139872797D01*
X182893571Y-139896607D01*
X182857857Y-139920416D01*
X182822142Y-139968035D01*
X182786428Y-140063273D01*
X182750714Y-140110892D01*
X182715000Y-140134702D01*
X182643571Y-140158511D01*
X182572142Y-140158511D01*
X182500714Y-140134702D01*
X182465000Y-140110892D01*
X182429285Y-140063273D01*
X182429285Y-139944226D01*
X182465000Y-139872797D01*
X183179285Y-139658511D02*
X182429285Y-139658511D01*
X183179285Y-139372797D01*
X182429285Y-139372797D01*
X183143571Y-139158511D02*
X183179285Y-139087083D01*
X183179285Y-138968035D01*
X183143571Y-138920416D01*
X183107857Y-138896607D01*
X183036428Y-138872797D01*
X182965000Y-138872797D01*
X182893571Y-138896607D01*
X182857857Y-138920416D01*
X182822142Y-138968035D01*
X182786428Y-139063273D01*
X182750714Y-139110892D01*
X182715000Y-139134702D01*
X182643571Y-139158511D01*
X182572142Y-139158511D01*
X182500714Y-139134702D01*
X182465000Y-139110892D01*
X182429285Y-139063273D01*
X182429285Y-138944226D01*
X182465000Y-138872797D01*
X182429285Y-138706130D02*
X182429285Y-138372797D01*
X183179285Y-138587083D01*
X184965000Y-139872797D02*
X184929285Y-139920416D01*
X184929285Y-139991845D01*
X184965000Y-140063273D01*
X185036428Y-140110892D01*
X185107857Y-140134702D01*
X185250714Y-140158511D01*
X185357857Y-140158511D01*
X185500714Y-140134702D01*
X185572142Y-140110892D01*
X185643571Y-140063273D01*
X185679285Y-139991845D01*
X185679285Y-139944226D01*
X185643571Y-139872797D01*
X185607857Y-139848988D01*
X185357857Y-139848988D01*
X185357857Y-139944226D01*
X185679285Y-139634702D02*
X184929285Y-139634702D01*
X185679285Y-139348988D01*
X184929285Y-139348988D01*
X185679285Y-139110892D02*
X184929285Y-139110892D01*
X184929285Y-138991845D01*
X184965000Y-138920416D01*
X185036428Y-138872797D01*
X185107857Y-138848988D01*
X185250714Y-138825178D01*
X185357857Y-138825178D01*
X185500714Y-138848988D01*
X185572142Y-138872797D01*
X185643571Y-138920416D01*
X185679285Y-138991845D01*
X185679285Y-139110892D01*
X188143571Y-140158511D02*
X188179285Y-140087083D01*
X188179285Y-139968035D01*
X188143571Y-139920416D01*
X188107857Y-139896607D01*
X188036428Y-139872797D01*
X187965000Y-139872797D01*
X187893571Y-139896607D01*
X187857857Y-139920416D01*
X187822142Y-139968035D01*
X187786428Y-140063273D01*
X187750714Y-140110892D01*
X187715000Y-140134702D01*
X187643571Y-140158511D01*
X187572142Y-140158511D01*
X187500714Y-140134702D01*
X187465000Y-140110892D01*
X187429285Y-140063273D01*
X187429285Y-139944226D01*
X187465000Y-139872797D01*
X188179285Y-139658511D02*
X187429285Y-139658511D01*
X188179285Y-139372797D01*
X187429285Y-139372797D01*
X188143571Y-139158511D02*
X188179285Y-139087083D01*
X188179285Y-138968035D01*
X188143571Y-138920416D01*
X188107857Y-138896607D01*
X188036428Y-138872797D01*
X187965000Y-138872797D01*
X187893571Y-138896607D01*
X187857857Y-138920416D01*
X187822142Y-138968035D01*
X187786428Y-139063273D01*
X187750714Y-139110892D01*
X187715000Y-139134702D01*
X187643571Y-139158511D01*
X187572142Y-139158511D01*
X187500714Y-139134702D01*
X187465000Y-139110892D01*
X187429285Y-139063273D01*
X187429285Y-138944226D01*
X187465000Y-138872797D01*
X187750714Y-138587083D02*
X187715000Y-138634702D01*
X187679285Y-138658511D01*
X187607857Y-138682321D01*
X187572142Y-138682321D01*
X187500714Y-138658511D01*
X187465000Y-138634702D01*
X187429285Y-138587083D01*
X187429285Y-138491845D01*
X187465000Y-138444226D01*
X187500714Y-138420416D01*
X187572142Y-138396607D01*
X187607857Y-138396607D01*
X187679285Y-138420416D01*
X187715000Y-138444226D01*
X187750714Y-138491845D01*
X187750714Y-138587083D01*
X187786428Y-138634702D01*
X187822142Y-138658511D01*
X187893571Y-138682321D01*
X188036428Y-138682321D01*
X188107857Y-138658511D01*
X188143571Y-138634702D01*
X188179285Y-138587083D01*
X188179285Y-138491845D01*
X188143571Y-138444226D01*
X188107857Y-138420416D01*
X188036428Y-138396607D01*
X187893571Y-138396607D01*
X187822142Y-138420416D01*
X187786428Y-138444226D01*
X187750714Y-138491845D01*
X150839285Y-139896607D02*
X150839285Y-140134702D01*
X151196428Y-140158511D01*
X151160714Y-140134702D01*
X151125000Y-140087083D01*
X151125000Y-139968035D01*
X151160714Y-139920416D01*
X151196428Y-139896607D01*
X151267857Y-139872797D01*
X151446428Y-139872797D01*
X151517857Y-139896607D01*
X151553571Y-139920416D01*
X151589285Y-139968035D01*
X151589285Y-140087083D01*
X151553571Y-140134702D01*
X151517857Y-140158511D01*
X150839285Y-139729940D02*
X151589285Y-139563273D01*
X150839285Y-139396607D01*
X154089285Y-139896607D02*
X154089285Y-140134702D01*
X153339285Y-140134702D01*
X153696428Y-139729940D02*
X153696428Y-139563273D01*
X154089285Y-139491845D02*
X154089285Y-139729940D01*
X153339285Y-139729940D01*
X153339285Y-139491845D01*
X154089285Y-139277559D02*
X153339285Y-139277559D01*
X153339285Y-139158511D01*
X153375000Y-139087083D01*
X153446428Y-139039464D01*
X153517857Y-139015654D01*
X153660714Y-138991845D01*
X153767857Y-138991845D01*
X153910714Y-139015654D01*
X153982142Y-139039464D01*
X154053571Y-139087083D01*
X154089285Y-139158511D01*
X154089285Y-139277559D01*
X153339285Y-138825178D02*
X153339285Y-138515654D01*
X153625000Y-138682321D01*
X153625000Y-138610892D01*
X153660714Y-138563273D01*
X153696428Y-138539464D01*
X153767857Y-138515654D01*
X153946428Y-138515654D01*
X154017857Y-138539464D01*
X154053571Y-138563273D01*
X154089285Y-138610892D01*
X154089285Y-138753750D01*
X154053571Y-138801369D01*
X154017857Y-138825178D01*
X156589285Y-139896607D02*
X156589285Y-140134702D01*
X155839285Y-140134702D01*
X156196428Y-139729940D02*
X156196428Y-139563273D01*
X156589285Y-139491845D02*
X156589285Y-139729940D01*
X155839285Y-139729940D01*
X155839285Y-139491845D01*
X156589285Y-139277559D02*
X155839285Y-139277559D01*
X155839285Y-139158511D01*
X155875000Y-139087083D01*
X155946428Y-139039464D01*
X156017857Y-139015654D01*
X156160714Y-138991845D01*
X156267857Y-138991845D01*
X156410714Y-139015654D01*
X156482142Y-139039464D01*
X156553571Y-139087083D01*
X156589285Y-139158511D01*
X156589285Y-139277559D01*
X156089285Y-138563273D02*
X156589285Y-138563273D01*
X155803571Y-138682321D02*
X156339285Y-138801369D01*
X156339285Y-138491845D01*
X158375000Y-139872797D02*
X158339285Y-139920416D01*
X158339285Y-139991845D01*
X158375000Y-140063273D01*
X158446428Y-140110892D01*
X158517857Y-140134702D01*
X158660714Y-140158511D01*
X158767857Y-140158511D01*
X158910714Y-140134702D01*
X158982142Y-140110892D01*
X159053571Y-140063273D01*
X159089285Y-139991845D01*
X159089285Y-139944226D01*
X159053571Y-139872797D01*
X159017857Y-139848988D01*
X158767857Y-139848988D01*
X158767857Y-139944226D01*
X159089285Y-139634702D02*
X158339285Y-139634702D01*
X159089285Y-139348988D01*
X158339285Y-139348988D01*
X159089285Y-139110892D02*
X158339285Y-139110892D01*
X158339285Y-138991845D01*
X158375000Y-138920416D01*
X158446428Y-138872797D01*
X158517857Y-138848988D01*
X158660714Y-138825178D01*
X158767857Y-138825178D01*
X158910714Y-138848988D01*
X158982142Y-138872797D01*
X159053571Y-138920416D01*
X159089285Y-138991845D01*
X159089285Y-139110892D01*
X161553571Y-140158511D02*
X161589285Y-140087083D01*
X161589285Y-139968035D01*
X161553571Y-139920416D01*
X161517857Y-139896607D01*
X161446428Y-139872797D01*
X161375000Y-139872797D01*
X161303571Y-139896607D01*
X161267857Y-139920416D01*
X161232142Y-139968035D01*
X161196428Y-140063273D01*
X161160714Y-140110892D01*
X161125000Y-140134702D01*
X161053571Y-140158511D01*
X160982142Y-140158511D01*
X160910714Y-140134702D01*
X160875000Y-140110892D01*
X160839285Y-140063273D01*
X160839285Y-139944226D01*
X160875000Y-139872797D01*
X161589285Y-139658511D02*
X160839285Y-139658511D01*
X161589285Y-139372797D01*
X160839285Y-139372797D01*
X161553571Y-139158511D02*
X161589285Y-139087083D01*
X161589285Y-138968035D01*
X161553571Y-138920416D01*
X161517857Y-138896607D01*
X161446428Y-138872797D01*
X161375000Y-138872797D01*
X161303571Y-138896607D01*
X161267857Y-138920416D01*
X161232142Y-138968035D01*
X161196428Y-139063273D01*
X161160714Y-139110892D01*
X161125000Y-139134702D01*
X161053571Y-139158511D01*
X160982142Y-139158511D01*
X160910714Y-139134702D01*
X160875000Y-139110892D01*
X160839285Y-139063273D01*
X160839285Y-138944226D01*
X160875000Y-138872797D01*
X160839285Y-138706130D02*
X160839285Y-138396607D01*
X161125000Y-138563273D01*
X161125000Y-138491845D01*
X161160714Y-138444226D01*
X161196428Y-138420416D01*
X161267857Y-138396607D01*
X161446428Y-138396607D01*
X161517857Y-138420416D01*
X161553571Y-138444226D01*
X161589285Y-138491845D01*
X161589285Y-138634702D01*
X161553571Y-138682321D01*
X161517857Y-138706130D01*
X163375000Y-139872797D02*
X163339285Y-139920416D01*
X163339285Y-139991845D01*
X163375000Y-140063273D01*
X163446428Y-140110892D01*
X163517857Y-140134702D01*
X163660714Y-140158511D01*
X163767857Y-140158511D01*
X163910714Y-140134702D01*
X163982142Y-140110892D01*
X164053571Y-140063273D01*
X164089285Y-139991845D01*
X164089285Y-139944226D01*
X164053571Y-139872797D01*
X164017857Y-139848988D01*
X163767857Y-139848988D01*
X163767857Y-139944226D01*
X164089285Y-139634702D02*
X163339285Y-139634702D01*
X164089285Y-139348988D01*
X163339285Y-139348988D01*
X164089285Y-139110892D02*
X163339285Y-139110892D01*
X163339285Y-138991845D01*
X163375000Y-138920416D01*
X163446428Y-138872797D01*
X163517857Y-138848988D01*
X163660714Y-138825178D01*
X163767857Y-138825178D01*
X163910714Y-138848988D01*
X163982142Y-138872797D01*
X164053571Y-138920416D01*
X164089285Y-138991845D01*
X164089285Y-139110892D01*
X166553571Y-140158511D02*
X166589285Y-140087083D01*
X166589285Y-139968035D01*
X166553571Y-139920416D01*
X166517857Y-139896607D01*
X166446428Y-139872797D01*
X166375000Y-139872797D01*
X166303571Y-139896607D01*
X166267857Y-139920416D01*
X166232142Y-139968035D01*
X166196428Y-140063273D01*
X166160714Y-140110892D01*
X166125000Y-140134702D01*
X166053571Y-140158511D01*
X165982142Y-140158511D01*
X165910714Y-140134702D01*
X165875000Y-140110892D01*
X165839285Y-140063273D01*
X165839285Y-139944226D01*
X165875000Y-139872797D01*
X166589285Y-139658511D02*
X165839285Y-139658511D01*
X166589285Y-139372797D01*
X165839285Y-139372797D01*
X166553571Y-139158511D02*
X166589285Y-139087083D01*
X166589285Y-138968035D01*
X166553571Y-138920416D01*
X166517857Y-138896607D01*
X166446428Y-138872797D01*
X166375000Y-138872797D01*
X166303571Y-138896607D01*
X166267857Y-138920416D01*
X166232142Y-138968035D01*
X166196428Y-139063273D01*
X166160714Y-139110892D01*
X166125000Y-139134702D01*
X166053571Y-139158511D01*
X165982142Y-139158511D01*
X165910714Y-139134702D01*
X165875000Y-139110892D01*
X165839285Y-139063273D01*
X165839285Y-138944226D01*
X165875000Y-138872797D01*
X166089285Y-138444226D02*
X166589285Y-138444226D01*
X165803571Y-138563273D02*
X166339285Y-138682321D01*
X166339285Y-138372797D01*
D11*
X218512142Y-148994761D02*
X218655000Y-149042380D01*
X218893095Y-149042380D01*
X218988333Y-148994761D01*
X219035952Y-148947142D01*
X219083571Y-148851904D01*
X219083571Y-148756666D01*
X219035952Y-148661428D01*
X218988333Y-148613809D01*
X218893095Y-148566190D01*
X218702619Y-148518571D01*
X218607380Y-148470952D01*
X218559761Y-148423333D01*
X218512142Y-148328095D01*
X218512142Y-148232857D01*
X218559761Y-148137619D01*
X218607380Y-148090000D01*
X218702619Y-148042380D01*
X218940714Y-148042380D01*
X219083571Y-148090000D01*
X219893095Y-148994761D02*
X219797857Y-149042380D01*
X219607380Y-149042380D01*
X219512142Y-148994761D01*
X219464523Y-148899523D01*
X219464523Y-148518571D01*
X219512142Y-148423333D01*
X219607380Y-148375714D01*
X219797857Y-148375714D01*
X219893095Y-148423333D01*
X219940714Y-148518571D01*
X219940714Y-148613809D01*
X219464523Y-148709047D01*
X220369285Y-148375714D02*
X220369285Y-149042380D01*
X220369285Y-148470952D02*
X220416904Y-148423333D01*
X220512142Y-148375714D01*
X220655000Y-148375714D01*
X220750238Y-148423333D01*
X220797857Y-148518571D01*
X220797857Y-149042380D01*
X221226428Y-148994761D02*
X221321666Y-149042380D01*
X221512142Y-149042380D01*
X221607380Y-148994761D01*
X221655000Y-148899523D01*
X221655000Y-148851904D01*
X221607380Y-148756666D01*
X221512142Y-148709047D01*
X221369285Y-148709047D01*
X221274047Y-148661428D01*
X221226428Y-148566190D01*
X221226428Y-148518571D01*
X221274047Y-148423333D01*
X221369285Y-148375714D01*
X221512142Y-148375714D01*
X221607380Y-148423333D01*
X222226428Y-149042380D02*
X222131190Y-148994761D01*
X222083571Y-148947142D01*
X222035952Y-148851904D01*
X222035952Y-148566190D01*
X222083571Y-148470952D01*
X222131190Y-148423333D01*
X222226428Y-148375714D01*
X222369285Y-148375714D01*
X222464523Y-148423333D01*
X222512142Y-148470952D01*
X222559761Y-148566190D01*
X222559761Y-148851904D01*
X222512142Y-148947142D01*
X222464523Y-148994761D01*
X222369285Y-149042380D01*
X222226428Y-149042380D01*
X222988333Y-149042380D02*
X222988333Y-148375714D01*
X222988333Y-148566190D02*
X223035952Y-148470952D01*
X223083571Y-148423333D01*
X223178809Y-148375714D01*
X223274047Y-148375714D01*
X223559761Y-148994761D02*
X223655000Y-149042380D01*
X223845476Y-149042380D01*
X223940714Y-148994761D01*
X223988333Y-148899523D01*
X223988333Y-148851904D01*
X223940714Y-148756666D01*
X223845476Y-148709047D01*
X223702619Y-148709047D01*
X223607380Y-148661428D01*
X223559761Y-148566190D01*
X223559761Y-148518571D01*
X223607380Y-148423333D01*
X223702619Y-148375714D01*
X223845476Y-148375714D01*
X223940714Y-148423333D01*
X225702619Y-149042380D02*
X225131190Y-149042380D01*
X225416904Y-149042380D02*
X225416904Y-148042380D01*
X225321666Y-148185238D01*
X225226428Y-148280476D01*
X225131190Y-148328095D01*
X226035952Y-148042380D02*
X226655000Y-148042380D01*
X226321666Y-148423333D01*
X226464523Y-148423333D01*
X226559761Y-148470952D01*
X226607380Y-148518571D01*
X226655000Y-148613809D01*
X226655000Y-148851904D01*
X226607380Y-148947142D01*
X226559761Y-148994761D01*
X226464523Y-149042380D01*
X226178809Y-149042380D01*
X226083571Y-148994761D01*
X226035952Y-148947142D01*
X227083571Y-148661428D02*
X227845476Y-148661428D01*
X228845476Y-149042380D02*
X228274047Y-149042380D01*
X228559761Y-149042380D02*
X228559761Y-148042380D01*
X228464523Y-148185238D01*
X228369285Y-148280476D01*
X228274047Y-148328095D01*
X229702619Y-148042380D02*
X229512142Y-148042380D01*
X229416904Y-148090000D01*
X229369285Y-148137619D01*
X229274047Y-148280476D01*
X229226428Y-148470952D01*
X229226428Y-148851904D01*
X229274047Y-148947142D01*
X229321666Y-148994761D01*
X229416904Y-149042380D01*
X229607380Y-149042380D01*
X229702619Y-148994761D01*
X229750238Y-148947142D01*
X229797857Y-148851904D01*
X229797857Y-148613809D01*
X229750238Y-148518571D01*
X229702619Y-148470952D01*
X229607380Y-148423333D01*
X229416904Y-148423333D01*
X229321666Y-148470952D01*
X229274047Y-148518571D01*
X229226428Y-148613809D01*
X197398333Y-148994761D02*
X197541190Y-149042380D01*
X197779285Y-149042380D01*
X197874523Y-148994761D01*
X197922142Y-148947142D01*
X197969761Y-148851904D01*
X197969761Y-148756666D01*
X197922142Y-148661428D01*
X197874523Y-148613809D01*
X197779285Y-148566190D01*
X197588809Y-148518571D01*
X197493571Y-148470952D01*
X197445952Y-148423333D01*
X197398333Y-148328095D01*
X197398333Y-148232857D01*
X197445952Y-148137619D01*
X197493571Y-148090000D01*
X197588809Y-148042380D01*
X197826904Y-148042380D01*
X197969761Y-148090000D01*
X198779285Y-148994761D02*
X198684047Y-149042380D01*
X198493571Y-149042380D01*
X198398333Y-148994761D01*
X198350714Y-148899523D01*
X198350714Y-148518571D01*
X198398333Y-148423333D01*
X198493571Y-148375714D01*
X198684047Y-148375714D01*
X198779285Y-148423333D01*
X198826904Y-148518571D01*
X198826904Y-148613809D01*
X198350714Y-148709047D01*
X199255476Y-148375714D02*
X199255476Y-149042380D01*
X199255476Y-148470952D02*
X199303095Y-148423333D01*
X199398333Y-148375714D01*
X199541190Y-148375714D01*
X199636428Y-148423333D01*
X199684047Y-148518571D01*
X199684047Y-149042380D01*
X200112619Y-148994761D02*
X200207857Y-149042380D01*
X200398333Y-149042380D01*
X200493571Y-148994761D01*
X200541190Y-148899523D01*
X200541190Y-148851904D01*
X200493571Y-148756666D01*
X200398333Y-148709047D01*
X200255476Y-148709047D01*
X200160238Y-148661428D01*
X200112619Y-148566190D01*
X200112619Y-148518571D01*
X200160238Y-148423333D01*
X200255476Y-148375714D01*
X200398333Y-148375714D01*
X200493571Y-148423333D01*
X201112619Y-149042380D02*
X201017380Y-148994761D01*
X200969761Y-148947142D01*
X200922142Y-148851904D01*
X200922142Y-148566190D01*
X200969761Y-148470952D01*
X201017380Y-148423333D01*
X201112619Y-148375714D01*
X201255476Y-148375714D01*
X201350714Y-148423333D01*
X201398333Y-148470952D01*
X201445952Y-148566190D01*
X201445952Y-148851904D01*
X201398333Y-148947142D01*
X201350714Y-148994761D01*
X201255476Y-149042380D01*
X201112619Y-149042380D01*
X201874523Y-149042380D02*
X201874523Y-148375714D01*
X201874523Y-148566190D02*
X201922142Y-148470952D01*
X201969761Y-148423333D01*
X202065000Y-148375714D01*
X202160238Y-148375714D01*
X202445952Y-148994761D02*
X202541190Y-149042380D01*
X202731666Y-149042380D01*
X202826904Y-148994761D01*
X202874523Y-148899523D01*
X202874523Y-148851904D01*
X202826904Y-148756666D01*
X202731666Y-148709047D01*
X202588809Y-148709047D01*
X202493571Y-148661428D01*
X202445952Y-148566190D01*
X202445952Y-148518571D01*
X202493571Y-148423333D01*
X202588809Y-148375714D01*
X202731666Y-148375714D01*
X202826904Y-148423333D01*
X204112619Y-149042380D02*
X204303095Y-149042380D01*
X204398333Y-148994761D01*
X204445952Y-148947142D01*
X204541190Y-148804285D01*
X204588809Y-148613809D01*
X204588809Y-148232857D01*
X204541190Y-148137619D01*
X204493571Y-148090000D01*
X204398333Y-148042380D01*
X204207857Y-148042380D01*
X204112619Y-148090000D01*
X204065000Y-148137619D01*
X204017380Y-148232857D01*
X204017380Y-148470952D01*
X204065000Y-148566190D01*
X204112619Y-148613809D01*
X204207857Y-148661428D01*
X204398333Y-148661428D01*
X204493571Y-148613809D01*
X204541190Y-148566190D01*
X204588809Y-148470952D01*
X205017380Y-148661428D02*
X205779285Y-148661428D01*
X206779285Y-149042380D02*
X206207857Y-149042380D01*
X206493571Y-149042380D02*
X206493571Y-148042380D01*
X206398333Y-148185238D01*
X206303095Y-148280476D01*
X206207857Y-148328095D01*
X207160238Y-148137619D02*
X207207857Y-148090000D01*
X207303095Y-148042380D01*
X207541190Y-148042380D01*
X207636428Y-148090000D01*
X207684047Y-148137619D01*
X207731666Y-148232857D01*
X207731666Y-148328095D01*
X207684047Y-148470952D01*
X207112619Y-149042380D01*
X207731666Y-149042380D01*
X176284523Y-148994761D02*
X176427380Y-149042380D01*
X176665476Y-149042380D01*
X176760714Y-148994761D01*
X176808333Y-148947142D01*
X176855952Y-148851904D01*
X176855952Y-148756666D01*
X176808333Y-148661428D01*
X176760714Y-148613809D01*
X176665476Y-148566190D01*
X176475000Y-148518571D01*
X176379761Y-148470952D01*
X176332142Y-148423333D01*
X176284523Y-148328095D01*
X176284523Y-148232857D01*
X176332142Y-148137619D01*
X176379761Y-148090000D01*
X176475000Y-148042380D01*
X176713095Y-148042380D01*
X176855952Y-148090000D01*
X177665476Y-148994761D02*
X177570238Y-149042380D01*
X177379761Y-149042380D01*
X177284523Y-148994761D01*
X177236904Y-148899523D01*
X177236904Y-148518571D01*
X177284523Y-148423333D01*
X177379761Y-148375714D01*
X177570238Y-148375714D01*
X177665476Y-148423333D01*
X177713095Y-148518571D01*
X177713095Y-148613809D01*
X177236904Y-148709047D01*
X178141666Y-148375714D02*
X178141666Y-149042380D01*
X178141666Y-148470952D02*
X178189285Y-148423333D01*
X178284523Y-148375714D01*
X178427380Y-148375714D01*
X178522619Y-148423333D01*
X178570238Y-148518571D01*
X178570238Y-149042380D01*
X178998809Y-148994761D02*
X179094047Y-149042380D01*
X179284523Y-149042380D01*
X179379761Y-148994761D01*
X179427380Y-148899523D01*
X179427380Y-148851904D01*
X179379761Y-148756666D01*
X179284523Y-148709047D01*
X179141666Y-148709047D01*
X179046428Y-148661428D01*
X178998809Y-148566190D01*
X178998809Y-148518571D01*
X179046428Y-148423333D01*
X179141666Y-148375714D01*
X179284523Y-148375714D01*
X179379761Y-148423333D01*
X179998809Y-149042380D02*
X179903571Y-148994761D01*
X179855952Y-148947142D01*
X179808333Y-148851904D01*
X179808333Y-148566190D01*
X179855952Y-148470952D01*
X179903571Y-148423333D01*
X179998809Y-148375714D01*
X180141666Y-148375714D01*
X180236904Y-148423333D01*
X180284523Y-148470952D01*
X180332142Y-148566190D01*
X180332142Y-148851904D01*
X180284523Y-148947142D01*
X180236904Y-148994761D01*
X180141666Y-149042380D01*
X179998809Y-149042380D01*
X180760714Y-149042380D02*
X180760714Y-148375714D01*
X180760714Y-148566190D02*
X180808333Y-148470952D01*
X180855952Y-148423333D01*
X180951190Y-148375714D01*
X181046428Y-148375714D01*
X181332142Y-148994761D02*
X181427380Y-149042380D01*
X181617857Y-149042380D01*
X181713095Y-148994761D01*
X181760714Y-148899523D01*
X181760714Y-148851904D01*
X181713095Y-148756666D01*
X181617857Y-148709047D01*
X181475000Y-148709047D01*
X181379761Y-148661428D01*
X181332142Y-148566190D01*
X181332142Y-148518571D01*
X181379761Y-148423333D01*
X181475000Y-148375714D01*
X181617857Y-148375714D01*
X181713095Y-148423333D01*
X183427380Y-148042380D02*
X182951190Y-148042380D01*
X182903571Y-148518571D01*
X182951190Y-148470952D01*
X183046428Y-148423333D01*
X183284523Y-148423333D01*
X183379761Y-148470952D01*
X183427380Y-148518571D01*
X183475000Y-148613809D01*
X183475000Y-148851904D01*
X183427380Y-148947142D01*
X183379761Y-148994761D01*
X183284523Y-149042380D01*
X183046428Y-149042380D01*
X182951190Y-148994761D01*
X182903571Y-148947142D01*
X183903571Y-148661428D02*
X184665476Y-148661428D01*
X185284523Y-148470952D02*
X185189285Y-148423333D01*
X185141666Y-148375714D01*
X185094047Y-148280476D01*
X185094047Y-148232857D01*
X185141666Y-148137619D01*
X185189285Y-148090000D01*
X185284523Y-148042380D01*
X185475000Y-148042380D01*
X185570238Y-148090000D01*
X185617857Y-148137619D01*
X185665476Y-148232857D01*
X185665476Y-148280476D01*
X185617857Y-148375714D01*
X185570238Y-148423333D01*
X185475000Y-148470952D01*
X185284523Y-148470952D01*
X185189285Y-148518571D01*
X185141666Y-148566190D01*
X185094047Y-148661428D01*
X185094047Y-148851904D01*
X185141666Y-148947142D01*
X185189285Y-148994761D01*
X185284523Y-149042380D01*
X185475000Y-149042380D01*
X185570238Y-148994761D01*
X185617857Y-148947142D01*
X185665476Y-148851904D01*
X185665476Y-148661428D01*
X185617857Y-148566190D01*
X185570238Y-148518571D01*
X185475000Y-148470952D01*
X154059523Y-148994761D02*
X154202380Y-149042380D01*
X154440476Y-149042380D01*
X154535714Y-148994761D01*
X154583333Y-148947142D01*
X154630952Y-148851904D01*
X154630952Y-148756666D01*
X154583333Y-148661428D01*
X154535714Y-148613809D01*
X154440476Y-148566190D01*
X154250000Y-148518571D01*
X154154761Y-148470952D01*
X154107142Y-148423333D01*
X154059523Y-148328095D01*
X154059523Y-148232857D01*
X154107142Y-148137619D01*
X154154761Y-148090000D01*
X154250000Y-148042380D01*
X154488095Y-148042380D01*
X154630952Y-148090000D01*
X155440476Y-148994761D02*
X155345238Y-149042380D01*
X155154761Y-149042380D01*
X155059523Y-148994761D01*
X155011904Y-148899523D01*
X155011904Y-148518571D01*
X155059523Y-148423333D01*
X155154761Y-148375714D01*
X155345238Y-148375714D01*
X155440476Y-148423333D01*
X155488095Y-148518571D01*
X155488095Y-148613809D01*
X155011904Y-148709047D01*
X155916666Y-148375714D02*
X155916666Y-149042380D01*
X155916666Y-148470952D02*
X155964285Y-148423333D01*
X156059523Y-148375714D01*
X156202380Y-148375714D01*
X156297619Y-148423333D01*
X156345238Y-148518571D01*
X156345238Y-149042380D01*
X156773809Y-148994761D02*
X156869047Y-149042380D01*
X157059523Y-149042380D01*
X157154761Y-148994761D01*
X157202380Y-148899523D01*
X157202380Y-148851904D01*
X157154761Y-148756666D01*
X157059523Y-148709047D01*
X156916666Y-148709047D01*
X156821428Y-148661428D01*
X156773809Y-148566190D01*
X156773809Y-148518571D01*
X156821428Y-148423333D01*
X156916666Y-148375714D01*
X157059523Y-148375714D01*
X157154761Y-148423333D01*
X157773809Y-149042380D02*
X157678571Y-148994761D01*
X157630952Y-148947142D01*
X157583333Y-148851904D01*
X157583333Y-148566190D01*
X157630952Y-148470952D01*
X157678571Y-148423333D01*
X157773809Y-148375714D01*
X157916666Y-148375714D01*
X158011904Y-148423333D01*
X158059523Y-148470952D01*
X158107142Y-148566190D01*
X158107142Y-148851904D01*
X158059523Y-148947142D01*
X158011904Y-148994761D01*
X157916666Y-149042380D01*
X157773809Y-149042380D01*
X158535714Y-149042380D02*
X158535714Y-148375714D01*
X158535714Y-148566190D02*
X158583333Y-148470952D01*
X158630952Y-148423333D01*
X158726190Y-148375714D01*
X158821428Y-148375714D01*
X159107142Y-148994761D02*
X159202380Y-149042380D01*
X159392857Y-149042380D01*
X159488095Y-148994761D01*
X159535714Y-148899523D01*
X159535714Y-148851904D01*
X159488095Y-148756666D01*
X159392857Y-148709047D01*
X159250000Y-148709047D01*
X159154761Y-148661428D01*
X159107142Y-148566190D01*
X159107142Y-148518571D01*
X159154761Y-148423333D01*
X159250000Y-148375714D01*
X159392857Y-148375714D01*
X159488095Y-148423333D01*
X161250000Y-149042380D02*
X160678571Y-149042380D01*
X160964285Y-149042380D02*
X160964285Y-148042380D01*
X160869047Y-148185238D01*
X160773809Y-148280476D01*
X160678571Y-148328095D01*
X161678571Y-148661428D02*
X162440476Y-148661428D01*
X163345238Y-148375714D02*
X163345238Y-149042380D01*
X163107142Y-147994761D02*
X162869047Y-148709047D01*
X163488095Y-148709047D01*
D12*
X224790000Y-146050000D02*
X224790000Y-145415000D01*
X222250000Y-146050000D02*
X224790000Y-146050000D01*
X222250000Y-145415000D02*
X222250000Y-146050000D01*
X203200000Y-146050000D02*
X203200000Y-145415000D01*
X200660000Y-146050000D02*
X203200000Y-146050000D01*
X200660000Y-145415000D02*
X200660000Y-146050000D01*
X181610000Y-146050000D02*
X181610000Y-145415000D01*
X179070000Y-146050000D02*
X181610000Y-146050000D01*
X179070000Y-145415000D02*
X179070000Y-146050000D01*
X160020000Y-146050000D02*
X160020000Y-145415000D01*
X157480000Y-146050000D02*
X160020000Y-146050000D01*
X157480000Y-145415000D02*
X157480000Y-146050000D01*
X238820000Y-161985000D02*
X238820000Y-156785000D01*
X223520000Y-161985000D02*
X238820000Y-161985000D01*
X220920000Y-156785000D02*
X238820000Y-156785000D01*
X223520000Y-161985000D02*
X223520000Y-159385000D01*
X223520000Y-159385000D02*
X220920000Y-159385000D01*
X220920000Y-159385000D02*
X220920000Y-156785000D01*
X222250000Y-161985000D02*
X220920000Y-161985000D01*
X220920000Y-161985000D02*
X220920000Y-160655000D01*
X144720000Y-161985000D02*
X144720000Y-160655000D01*
X146050000Y-161985000D02*
X144720000Y-161985000D01*
X144720000Y-159385000D02*
X144720000Y-156785000D01*
X147320000Y-159385000D02*
X144720000Y-159385000D01*
X147320000Y-161985000D02*
X147320000Y-159385000D01*
X144720000Y-156785000D02*
X162620000Y-156785000D01*
X147320000Y-161985000D02*
X162620000Y-161985000D01*
X162620000Y-161985000D02*
X162620000Y-156785000D01*
X170120000Y-161985000D02*
X170120000Y-160655000D01*
X171450000Y-161985000D02*
X170120000Y-161985000D01*
X170120000Y-159385000D02*
X170120000Y-156785000D01*
X172720000Y-159385000D02*
X170120000Y-159385000D01*
X172720000Y-161985000D02*
X172720000Y-159385000D01*
X170120000Y-156785000D02*
X188020000Y-156785000D01*
X172720000Y-161985000D02*
X188020000Y-161985000D01*
X188020000Y-161985000D02*
X188020000Y-156785000D01*
X213420000Y-161985000D02*
X213420000Y-156785000D01*
X198120000Y-161985000D02*
X213420000Y-161985000D01*
X195520000Y-156785000D02*
X213420000Y-156785000D01*
X198120000Y-161985000D02*
X198120000Y-159385000D01*
X198120000Y-159385000D02*
X195520000Y-159385000D01*
X195520000Y-159385000D02*
X195520000Y-156785000D01*
X196850000Y-161985000D02*
X195520000Y-161985000D01*
X195520000Y-161985000D02*
X195520000Y-160655000D01*
X189290000Y-145475000D02*
X189290000Y-140275000D01*
X173990000Y-145475000D02*
X189290000Y-145475000D01*
X171390000Y-140275000D02*
X189290000Y-140275000D01*
X173990000Y-145475000D02*
X173990000Y-142875000D01*
X173990000Y-142875000D02*
X171390000Y-142875000D01*
X171390000Y-142875000D02*
X171390000Y-140275000D01*
X172720000Y-145475000D02*
X171390000Y-145475000D01*
X171390000Y-145475000D02*
X171390000Y-144145000D01*
X192980000Y-145475000D02*
X192980000Y-144145000D01*
X194310000Y-145475000D02*
X192980000Y-145475000D01*
X192980000Y-142875000D02*
X192980000Y-140275000D01*
X195580000Y-142875000D02*
X192980000Y-142875000D01*
X195580000Y-145475000D02*
X195580000Y-142875000D01*
X192980000Y-140275000D02*
X210880000Y-140275000D01*
X195580000Y-145475000D02*
X210880000Y-145475000D01*
X210880000Y-145475000D02*
X210880000Y-140275000D01*
X214570000Y-145475000D02*
X214570000Y-144145000D01*
X215900000Y-145475000D02*
X214570000Y-145475000D01*
X214570000Y-142875000D02*
X214570000Y-140275000D01*
X217170000Y-142875000D02*
X214570000Y-142875000D01*
X217170000Y-145475000D02*
X217170000Y-142875000D01*
X214570000Y-140275000D02*
X232470000Y-140275000D01*
X217170000Y-145475000D02*
X232470000Y-145475000D01*
X232470000Y-145475000D02*
X232470000Y-140275000D01*
X167700000Y-145475000D02*
X167700000Y-140275000D01*
X152400000Y-145475000D02*
X167700000Y-145475000D01*
X149800000Y-140275000D02*
X167700000Y-140275000D01*
X152400000Y-145475000D02*
X152400000Y-142875000D01*
X152400000Y-142875000D02*
X149800000Y-142875000D01*
X149800000Y-142875000D02*
X149800000Y-140275000D01*
X151130000Y-145475000D02*
X149800000Y-145475000D01*
X149800000Y-145475000D02*
X149800000Y-144145000D01*
D13*
X219376666Y-155662380D02*
X219376666Y-156376666D01*
X219329047Y-156519523D01*
X219233809Y-156614761D01*
X219090952Y-156662380D01*
X218995714Y-156662380D01*
X220281428Y-155995714D02*
X220281428Y-156662380D01*
X220043333Y-155614761D02*
X219805238Y-156329047D01*
X220424285Y-156329047D01*
X143176666Y-155662380D02*
X143176666Y-156376666D01*
X143129047Y-156519523D01*
X143033809Y-156614761D01*
X142890952Y-156662380D01*
X142795714Y-156662380D01*
X144176666Y-156662380D02*
X143605238Y-156662380D01*
X143890952Y-156662380D02*
X143890952Y-155662380D01*
X143795714Y-155805238D01*
X143700476Y-155900476D01*
X143605238Y-155948095D01*
X168576666Y-155662380D02*
X168576666Y-156376666D01*
X168529047Y-156519523D01*
X168433809Y-156614761D01*
X168290952Y-156662380D01*
X168195714Y-156662380D01*
X169005238Y-155757619D02*
X169052857Y-155710000D01*
X169148095Y-155662380D01*
X169386190Y-155662380D01*
X169481428Y-155710000D01*
X169529047Y-155757619D01*
X169576666Y-155852857D01*
X169576666Y-155948095D01*
X169529047Y-156090952D01*
X168957619Y-156662380D01*
X169576666Y-156662380D01*
X193976666Y-155662380D02*
X193976666Y-156376666D01*
X193929047Y-156519523D01*
X193833809Y-156614761D01*
X193690952Y-156662380D01*
X193595714Y-156662380D01*
X194357619Y-155662380D02*
X194976666Y-155662380D01*
X194643333Y-156043333D01*
X194786190Y-156043333D01*
X194881428Y-156090952D01*
X194929047Y-156138571D01*
X194976666Y-156233809D01*
X194976666Y-156471904D01*
X194929047Y-156567142D01*
X194881428Y-156614761D01*
X194786190Y-156662380D01*
X194500476Y-156662380D01*
X194405238Y-156614761D01*
X194357619Y-156567142D01*
X169846666Y-139152380D02*
X169846666Y-139866666D01*
X169799047Y-140009523D01*
X169703809Y-140104761D01*
X169560952Y-140152380D01*
X169465714Y-140152380D01*
X170275238Y-139247619D02*
X170322857Y-139200000D01*
X170418095Y-139152380D01*
X170656190Y-139152380D01*
X170751428Y-139200000D01*
X170799047Y-139247619D01*
X170846666Y-139342857D01*
X170846666Y-139438095D01*
X170799047Y-139580952D01*
X170227619Y-140152380D01*
X170846666Y-140152380D01*
X191436666Y-139152380D02*
X191436666Y-139866666D01*
X191389047Y-140009523D01*
X191293809Y-140104761D01*
X191150952Y-140152380D01*
X191055714Y-140152380D01*
X191817619Y-139152380D02*
X192436666Y-139152380D01*
X192103333Y-139533333D01*
X192246190Y-139533333D01*
X192341428Y-139580952D01*
X192389047Y-139628571D01*
X192436666Y-139723809D01*
X192436666Y-139961904D01*
X192389047Y-140057142D01*
X192341428Y-140104761D01*
X192246190Y-140152380D01*
X191960476Y-140152380D01*
X191865238Y-140104761D01*
X191817619Y-140057142D01*
X213026666Y-139152380D02*
X213026666Y-139866666D01*
X212979047Y-140009523D01*
X212883809Y-140104761D01*
X212740952Y-140152380D01*
X212645714Y-140152380D01*
X213931428Y-139485714D02*
X213931428Y-140152380D01*
X213693333Y-139104761D02*
X213455238Y-139819047D01*
X214074285Y-139819047D01*
X148256666Y-139152380D02*
X148256666Y-139866666D01*
X148209047Y-140009523D01*
X148113809Y-140104761D01*
X147970952Y-140152380D01*
X147875714Y-140152380D01*
X149256666Y-140152380D02*
X148685238Y-140152380D01*
X148970952Y-140152380D02*
X148970952Y-139152380D01*
X148875714Y-139295238D01*
X148780476Y-139390476D01*
X148685238Y-139438095D01*
M02*
