M48
; DRILL file {KiCad (5.1.5)-3} date 6/17/2021 10:22:22 PM
; FORMAT={-:-/ absolute / inch / decimal}
; #@! TF.CreationDate,2021-06-17T22:22:22-07:00
; #@! TF.GenerationSoftware,Kicad,Pcbnew,(5.1.5)-3
FMAT,2
INCH
T1C0.0118
T2C0.0394
%
G90
G05
T1
X5.76Y-5.46
X5.76Y-5.59
X5.82Y-5.96
X5.82Y-6.09
X5.925Y-5.99
X5.935Y-5.86
X6.06Y-6.1
X6.07Y-5.89
X6.19Y-5.79
X6.23Y-5.95
X6.27Y-6.09
X6.41Y-5.82
X6.57Y-5.93
X6.57Y-6.06
X6.57Y-6.29
X6.57Y-6.42
X6.82Y-5.92
X6.82Y-6.05
X6.875Y-5.83
X6.9251Y-6.064
X6.98Y-5.84
X6.98Y-6.05
X7.05Y-5.91
X7.05Y-6.04
X7.16Y-6.02
X7.18Y-5.83
X7.57Y-5.88
X7.57Y-6.01
X7.58Y-6.28
X7.58Y-6.41
X7.74Y-6.04
X7.79Y-5.92
X7.8Y-5.83
X7.875Y-5.95
X7.94Y-5.95
X8.07Y-5.92
X8.07Y-6.05
X8.27Y-5.88
X8.27Y-6.01
X8.54Y-6.3
X8.54Y-6.43
X8.57Y-5.82
X8.57Y-5.95
X8.75Y-6.02
X8.82Y-5.98
X8.85Y-5.77
X8.85Y-5.9
X9.06Y-5.89
X9.06Y-6.02
X9.15Y-5.89
X9.25Y-5.89
X9.25Y-6.02
X9.31Y-5.89
X9.31Y-6.02
X9.4Y-5.57
X9.47Y-5.71
X9.47Y-5.84
X9.48Y-6.01
X9.48Y-6.14
X9.49Y-6.32
X9.49Y-6.45
T2
X6.8Y-5.575
X6.8Y-5.675
X6.9Y-5.575
X6.9Y-5.675
X7.0Y-5.575
X7.0Y-5.675
X7.1Y-5.575
X7.1Y-5.675
X7.2Y-5.575
X7.2Y-5.675
X7.3Y-5.575
X7.3Y-5.675
X7.4Y-5.575
X7.4Y-5.675
X8.75Y-6.225
X8.75Y-6.325
X8.85Y-6.225
X8.85Y-6.325
X8.95Y-6.225
X8.95Y-6.325
X9.05Y-6.225
X9.05Y-6.325
X9.15Y-6.225
X9.15Y-6.325
X9.25Y-6.225
X9.25Y-6.325
X9.35Y-6.225
X9.35Y-6.325
X8.5Y-5.575
X8.5Y-5.675
X8.6Y-5.575
X8.6Y-5.675
X8.7Y-5.575
X8.7Y-5.675
X8.8Y-5.575
X8.8Y-5.675
X8.9Y-5.575
X8.9Y-5.675
X9.0Y-5.575
X9.0Y-5.675
X9.1Y-5.575
X9.1Y-5.675
X5.75Y-6.225
X5.75Y-6.325
X5.85Y-6.225
X5.85Y-6.325
X5.95Y-6.225
X5.95Y-6.325
X6.05Y-6.225
X6.05Y-6.325
X6.15Y-6.225
X6.15Y-6.325
X6.25Y-6.225
X6.25Y-6.325
X6.35Y-6.225
X6.35Y-6.325
X6.75Y-6.225
X6.75Y-6.325
X6.85Y-6.225
X6.85Y-6.325
X6.95Y-6.225
X6.95Y-6.325
X7.05Y-6.225
X7.05Y-6.325
X7.15Y-6.225
X7.15Y-6.325
X7.25Y-6.225
X7.25Y-6.325
X7.35Y-6.225
X7.35Y-6.325
X7.75Y-6.225
X7.75Y-6.325
X7.85Y-6.225
X7.85Y-6.325
X7.95Y-6.225
X7.95Y-6.325
X8.05Y-6.225
X8.05Y-6.325
X8.15Y-6.225
X8.15Y-6.325
X8.25Y-6.225
X8.25Y-6.325
X8.35Y-6.225
X8.35Y-6.325
X7.65Y-5.575
X7.65Y-5.675
X7.75Y-5.575
X7.75Y-5.675
X7.85Y-5.575
X7.85Y-5.675
X7.95Y-5.575
X7.95Y-5.675
X8.05Y-5.575
X8.05Y-5.675
X8.15Y-5.575
X8.15Y-5.675
X8.25Y-5.575
X8.25Y-5.675
X5.95Y-5.575
X5.95Y-5.675
X6.05Y-5.575
X6.05Y-5.675
X6.15Y-5.575
X6.15Y-5.675
X6.25Y-5.575
X6.25Y-5.675
X6.35Y-5.575
X6.35Y-5.675
X6.45Y-5.575
X6.45Y-5.675
X6.55Y-5.575
X6.55Y-5.675
T0
M30
