G04 #@! TF.GenerationSoftware,KiCad,Pcbnew,(5.1.5)-3*
G04 #@! TF.CreationDate,2021-06-17T22:22:24-07:00*
G04 #@! TF.ProjectId,Adapter,41646170-7465-4722-9e6b-696361645f70,rev?*
G04 #@! TF.SameCoordinates,Original*
G04 #@! TF.FileFunction,Copper,L2,Bot*
G04 #@! TF.FilePolarity,Positive*
%FSLAX46Y46*%
G04 Gerber Fmt 4.6, Leading zero omitted, Abs format (unit mm)*
G04 Created by KiCad (PCBNEW (5.1.5)-3) date 2021-06-17 22:22:24*
%MOMM*%
%LPD*%
G04 APERTURE LIST*
%ADD10R,1.700000X1.700000*%
%ADD11O,1.700000X1.700000*%
%ADD12C,0.600000*%
%ADD13C,0.250000*%
%ADD14C,0.254000*%
G04 APERTURE END LIST*
D10*
X222250000Y-160655000D03*
D11*
X222250000Y-158115000D03*
X224790000Y-160655000D03*
X224790000Y-158115000D03*
X227330000Y-160655000D03*
X227330000Y-158115000D03*
X229870000Y-160655000D03*
X229870000Y-158115000D03*
X232410000Y-160655000D03*
X232410000Y-158115000D03*
X234950000Y-160655000D03*
X234950000Y-158115000D03*
X237490000Y-160655000D03*
X237490000Y-158115000D03*
X161290000Y-158115000D03*
X161290000Y-160655000D03*
X158750000Y-158115000D03*
X158750000Y-160655000D03*
X156210000Y-158115000D03*
X156210000Y-160655000D03*
X153670000Y-158115000D03*
X153670000Y-160655000D03*
X151130000Y-158115000D03*
X151130000Y-160655000D03*
X148590000Y-158115000D03*
X148590000Y-160655000D03*
X146050000Y-158115000D03*
D10*
X146050000Y-160655000D03*
D11*
X186690000Y-158115000D03*
X186690000Y-160655000D03*
X184150000Y-158115000D03*
X184150000Y-160655000D03*
X181610000Y-158115000D03*
X181610000Y-160655000D03*
X179070000Y-158115000D03*
X179070000Y-160655000D03*
X176530000Y-158115000D03*
X176530000Y-160655000D03*
X173990000Y-158115000D03*
X173990000Y-160655000D03*
X171450000Y-158115000D03*
D10*
X171450000Y-160655000D03*
X196850000Y-160655000D03*
D11*
X196850000Y-158115000D03*
X199390000Y-160655000D03*
X199390000Y-158115000D03*
X201930000Y-160655000D03*
X201930000Y-158115000D03*
X204470000Y-160655000D03*
X204470000Y-158115000D03*
X207010000Y-160655000D03*
X207010000Y-158115000D03*
X209550000Y-160655000D03*
X209550000Y-158115000D03*
X212090000Y-160655000D03*
X212090000Y-158115000D03*
D10*
X172720000Y-144145000D03*
D11*
X172720000Y-141605000D03*
X175260000Y-144145000D03*
X175260000Y-141605000D03*
X177800000Y-144145000D03*
X177800000Y-141605000D03*
X180340000Y-144145000D03*
X180340000Y-141605000D03*
X182880000Y-144145000D03*
X182880000Y-141605000D03*
X185420000Y-144145000D03*
X185420000Y-141605000D03*
X187960000Y-144145000D03*
X187960000Y-141605000D03*
X209550000Y-141605000D03*
X209550000Y-144145000D03*
X207010000Y-141605000D03*
X207010000Y-144145000D03*
X204470000Y-141605000D03*
X204470000Y-144145000D03*
X201930000Y-141605000D03*
X201930000Y-144145000D03*
X199390000Y-141605000D03*
X199390000Y-144145000D03*
X196850000Y-141605000D03*
X196850000Y-144145000D03*
X194310000Y-141605000D03*
D10*
X194310000Y-144145000D03*
D11*
X231140000Y-141605000D03*
X231140000Y-144145000D03*
X228600000Y-141605000D03*
X228600000Y-144145000D03*
X226060000Y-141605000D03*
X226060000Y-144145000D03*
X223520000Y-141605000D03*
X223520000Y-144145000D03*
X220980000Y-141605000D03*
X220980000Y-144145000D03*
X218440000Y-141605000D03*
X218440000Y-144145000D03*
X215900000Y-141605000D03*
D10*
X215900000Y-144145000D03*
X151130000Y-144145000D03*
D11*
X151130000Y-141605000D03*
X153670000Y-144145000D03*
X153670000Y-141605000D03*
X156210000Y-144145000D03*
X156210000Y-141605000D03*
X158750000Y-144145000D03*
X158750000Y-141605000D03*
X161290000Y-144145000D03*
X161290000Y-141605000D03*
X163830000Y-144145000D03*
X163830000Y-141605000D03*
X166370000Y-144145000D03*
X166370000Y-141605000D03*
D12*
X210058000Y-149352000D03*
X210058000Y-152654000D03*
X217678000Y-147828000D03*
X217678000Y-151130000D03*
X224790000Y-146558000D03*
X224790000Y-149860000D03*
X232410000Y-149606000D03*
X230124000Y-152908000D03*
X230124000Y-149606000D03*
X234950000Y-152908000D03*
X234950000Y-149606000D03*
X236474000Y-152908000D03*
X236474000Y-149606000D03*
X238760000Y-141478000D03*
X240538000Y-145034000D03*
X240538000Y-148336000D03*
X240792000Y-152654000D03*
X240792000Y-155956000D03*
X241046000Y-160528000D03*
X241046000Y-163830000D03*
X216916000Y-163322000D03*
X216916000Y-160020000D03*
X192532000Y-162814000D03*
X192532000Y-159512000D03*
X166878000Y-163068000D03*
X166878000Y-159766000D03*
X166878000Y-153924000D03*
X166878000Y-150622000D03*
X192278000Y-152654000D03*
X192278000Y-149352000D03*
X146304000Y-141986000D03*
X146304000Y-138684000D03*
X153924000Y-154940000D03*
X159258000Y-154686000D03*
X147828000Y-151384000D03*
X147828000Y-154686000D03*
X173228000Y-150368000D03*
X173228000Y-153670000D03*
X179070000Y-150114000D03*
X179070000Y-153416000D03*
X196596000Y-153416000D03*
X197866000Y-150368000D03*
X204978000Y-153670000D03*
X204978000Y-150368000D03*
X200025000Y-151130000D03*
X201676000Y-151130000D03*
X198120000Y-148082000D03*
X150495000Y-152146000D03*
X150749000Y-148844000D03*
X162814000Y-147828000D03*
X224028000Y-151892000D03*
X222250000Y-152908000D03*
X181864000Y-152908000D03*
X182372000Y-148082000D03*
X174625000Y-148082000D03*
X177292000Y-148336000D03*
X157226000Y-147066000D03*
X154178000Y-149606000D03*
X158242000Y-151130000D03*
X177292000Y-153670000D03*
X175897470Y-154024941D03*
D13*
X175006000Y-147066000D02*
X175006000Y-144399000D01*
X175260000Y-147320000D02*
X175006000Y-147066000D01*
X173990000Y-160655000D02*
X175260000Y-159385000D01*
X175260000Y-159385000D02*
X175260000Y-147320000D01*
X176530000Y-142875000D02*
X177800000Y-141605000D01*
X176530000Y-158115000D02*
X176530000Y-142875000D01*
X184150000Y-155448000D02*
X184150000Y-142875000D01*
X181610000Y-158115000D02*
X181610000Y-157988000D01*
X184150000Y-142875000D02*
X182880000Y-141605000D01*
X181610000Y-157988000D02*
X184150000Y-155448000D01*
X186690000Y-142875000D02*
X187960000Y-141605000D01*
X186690000Y-158115000D02*
X186690000Y-142875000D01*
X212090000Y-144145000D02*
X209550000Y-141605000D01*
X212090000Y-158115000D02*
X212090000Y-144145000D01*
X205740000Y-142875000D02*
X204470000Y-141605000D01*
X205740000Y-147066000D02*
X205740000Y-142875000D01*
X207010000Y-158115000D02*
X207010000Y-148336000D01*
X207010000Y-148336000D02*
X205740000Y-147066000D01*
X200660000Y-142875000D02*
X199390000Y-141605000D01*
X200660000Y-146304000D02*
X200660000Y-142875000D01*
X203200000Y-148844000D02*
X200660000Y-146304000D01*
X201930000Y-158115000D02*
X203200000Y-156845000D01*
X203200000Y-156845000D02*
X203200000Y-148844000D01*
X237490000Y-147955000D02*
X231140000Y-141605000D01*
X237490000Y-158115000D02*
X237490000Y-147955000D01*
X227330000Y-142875000D02*
X226060000Y-141605000D01*
X232410000Y-158115000D02*
X232410000Y-153035000D01*
X227330000Y-147955000D02*
X227330000Y-142875000D01*
X232410000Y-153035000D02*
X227330000Y-147955000D01*
X222250000Y-142875000D02*
X220980000Y-141605000D01*
X222250000Y-148590000D02*
X222250000Y-142875000D01*
X227330000Y-158115000D02*
X227330000Y-153670000D01*
X227330000Y-153670000D02*
X222250000Y-148590000D01*
X154940000Y-147828000D02*
X154940000Y-142875000D01*
X151130000Y-158115000D02*
X151130000Y-151638000D01*
X154940000Y-142875000D02*
X156210000Y-141605000D01*
X151130000Y-151638000D02*
X154940000Y-147828000D01*
X160020000Y-150622000D02*
X160020000Y-142875000D01*
X157480000Y-153162000D02*
X160020000Y-150622000D01*
X160020000Y-142875000D02*
X161290000Y-141605000D01*
X156210000Y-158115000D02*
X157480000Y-156845000D01*
X157480000Y-156845000D02*
X157480000Y-153162000D01*
X165100000Y-142875000D02*
X166370000Y-141605000D01*
X165100000Y-150368000D02*
X165100000Y-142875000D01*
X161290000Y-158115000D02*
X161290000Y-154178000D01*
X161290000Y-154178000D02*
X165100000Y-150368000D01*
X199390000Y-158115000D02*
X199390000Y-147320000D01*
X199390000Y-147320000D02*
X198120000Y-146050000D01*
X198120000Y-142875000D02*
X196850000Y-141605000D01*
X198120000Y-146050000D02*
X198120000Y-142875000D01*
X219710000Y-142875000D02*
X218440000Y-141605000D01*
X219710000Y-151638000D02*
X219710000Y-142875000D01*
X224790000Y-158115000D02*
X224790000Y-156718000D01*
X224790000Y-156718000D02*
X219710000Y-151638000D01*
X148590000Y-158115000D02*
X148590000Y-149860000D01*
X148590000Y-149860000D02*
X152400000Y-146050000D01*
X152400000Y-142875000D02*
X153670000Y-141605000D01*
X152400000Y-146050000D02*
X152400000Y-142875000D01*
X173990000Y-142875000D02*
X175260000Y-141605000D01*
X173990000Y-158115000D02*
X173990000Y-142875000D01*
D14*
G36*
X241910000Y-165132418D02*
G01*
X241910001Y-165132428D01*
X241910001Y-165710000D01*
X142900000Y-165710000D01*
X142900000Y-159805000D01*
X144561928Y-159805000D01*
X144561928Y-161505000D01*
X144574188Y-161629482D01*
X144610498Y-161749180D01*
X144669463Y-161859494D01*
X144748815Y-161956185D01*
X144845506Y-162035537D01*
X144955820Y-162094502D01*
X145075518Y-162130812D01*
X145200000Y-162143072D01*
X146900000Y-162143072D01*
X147024482Y-162130812D01*
X147144180Y-162094502D01*
X147254494Y-162035537D01*
X147351185Y-161956185D01*
X147430537Y-161859494D01*
X147489502Y-161749180D01*
X147511513Y-161676620D01*
X147643368Y-161808475D01*
X147886589Y-161970990D01*
X148156842Y-162082932D01*
X148443740Y-162140000D01*
X148736260Y-162140000D01*
X149023158Y-162082932D01*
X149293411Y-161970990D01*
X149536632Y-161808475D01*
X149743475Y-161601632D01*
X149860000Y-161427240D01*
X149976525Y-161601632D01*
X150183368Y-161808475D01*
X150426589Y-161970990D01*
X150696842Y-162082932D01*
X150983740Y-162140000D01*
X151276260Y-162140000D01*
X151563158Y-162082932D01*
X151833411Y-161970990D01*
X152076632Y-161808475D01*
X152283475Y-161601632D01*
X152400000Y-161427240D01*
X152516525Y-161601632D01*
X152723368Y-161808475D01*
X152966589Y-161970990D01*
X153236842Y-162082932D01*
X153523740Y-162140000D01*
X153816260Y-162140000D01*
X154103158Y-162082932D01*
X154373411Y-161970990D01*
X154616632Y-161808475D01*
X154823475Y-161601632D01*
X154945195Y-161419466D01*
X155014822Y-161536355D01*
X155209731Y-161752588D01*
X155443080Y-161926641D01*
X155705901Y-162051825D01*
X155853110Y-162096476D01*
X156083000Y-161975155D01*
X156083000Y-160782000D01*
X156063000Y-160782000D01*
X156063000Y-160528000D01*
X156083000Y-160528000D01*
X156083000Y-160508000D01*
X156337000Y-160508000D01*
X156337000Y-160528000D01*
X156357000Y-160528000D01*
X156357000Y-160782000D01*
X156337000Y-160782000D01*
X156337000Y-161975155D01*
X156566890Y-162096476D01*
X156714099Y-162051825D01*
X156976920Y-161926641D01*
X157210269Y-161752588D01*
X157405178Y-161536355D01*
X157474805Y-161419466D01*
X157596525Y-161601632D01*
X157803368Y-161808475D01*
X158046589Y-161970990D01*
X158316842Y-162082932D01*
X158603740Y-162140000D01*
X158896260Y-162140000D01*
X159183158Y-162082932D01*
X159453411Y-161970990D01*
X159696632Y-161808475D01*
X159903475Y-161601632D01*
X160025195Y-161419466D01*
X160094822Y-161536355D01*
X160289731Y-161752588D01*
X160523080Y-161926641D01*
X160785901Y-162051825D01*
X160933110Y-162096476D01*
X161163000Y-161975155D01*
X161163000Y-160782000D01*
X161417000Y-160782000D01*
X161417000Y-161975155D01*
X161646890Y-162096476D01*
X161794099Y-162051825D01*
X162056920Y-161926641D01*
X162290269Y-161752588D01*
X162485178Y-161536355D01*
X162634157Y-161286252D01*
X162731481Y-161011891D01*
X162610814Y-160782000D01*
X161417000Y-160782000D01*
X161163000Y-160782000D01*
X161143000Y-160782000D01*
X161143000Y-160528000D01*
X161163000Y-160528000D01*
X161163000Y-160508000D01*
X161417000Y-160508000D01*
X161417000Y-160528000D01*
X162610814Y-160528000D01*
X162731481Y-160298109D01*
X162634157Y-160023748D01*
X162503856Y-159805000D01*
X169961928Y-159805000D01*
X169961928Y-161505000D01*
X169974188Y-161629482D01*
X170010498Y-161749180D01*
X170069463Y-161859494D01*
X170148815Y-161956185D01*
X170245506Y-162035537D01*
X170355820Y-162094502D01*
X170475518Y-162130812D01*
X170600000Y-162143072D01*
X172300000Y-162143072D01*
X172424482Y-162130812D01*
X172544180Y-162094502D01*
X172654494Y-162035537D01*
X172751185Y-161956185D01*
X172830537Y-161859494D01*
X172889502Y-161749180D01*
X172911513Y-161676620D01*
X173043368Y-161808475D01*
X173286589Y-161970990D01*
X173556842Y-162082932D01*
X173843740Y-162140000D01*
X174136260Y-162140000D01*
X174423158Y-162082932D01*
X174693411Y-161970990D01*
X174936632Y-161808475D01*
X175143475Y-161601632D01*
X175260000Y-161427240D01*
X175376525Y-161601632D01*
X175583368Y-161808475D01*
X175826589Y-161970990D01*
X176096842Y-162082932D01*
X176383740Y-162140000D01*
X176676260Y-162140000D01*
X176963158Y-162082932D01*
X177233411Y-161970990D01*
X177476632Y-161808475D01*
X177683475Y-161601632D01*
X177800000Y-161427240D01*
X177916525Y-161601632D01*
X178123368Y-161808475D01*
X178366589Y-161970990D01*
X178636842Y-162082932D01*
X178923740Y-162140000D01*
X179216260Y-162140000D01*
X179503158Y-162082932D01*
X179773411Y-161970990D01*
X180016632Y-161808475D01*
X180223475Y-161601632D01*
X180345195Y-161419466D01*
X180414822Y-161536355D01*
X180609731Y-161752588D01*
X180843080Y-161926641D01*
X181105901Y-162051825D01*
X181253110Y-162096476D01*
X181483000Y-161975155D01*
X181483000Y-160782000D01*
X181463000Y-160782000D01*
X181463000Y-160528000D01*
X181483000Y-160528000D01*
X181483000Y-160508000D01*
X181737000Y-160508000D01*
X181737000Y-160528000D01*
X181757000Y-160528000D01*
X181757000Y-160782000D01*
X181737000Y-160782000D01*
X181737000Y-161975155D01*
X181966890Y-162096476D01*
X182114099Y-162051825D01*
X182376920Y-161926641D01*
X182610269Y-161752588D01*
X182805178Y-161536355D01*
X182874805Y-161419466D01*
X182996525Y-161601632D01*
X183203368Y-161808475D01*
X183446589Y-161970990D01*
X183716842Y-162082932D01*
X184003740Y-162140000D01*
X184296260Y-162140000D01*
X184583158Y-162082932D01*
X184853411Y-161970990D01*
X185096632Y-161808475D01*
X185303475Y-161601632D01*
X185425195Y-161419466D01*
X185494822Y-161536355D01*
X185689731Y-161752588D01*
X185923080Y-161926641D01*
X186185901Y-162051825D01*
X186333110Y-162096476D01*
X186563000Y-161975155D01*
X186563000Y-160782000D01*
X186817000Y-160782000D01*
X186817000Y-161975155D01*
X187046890Y-162096476D01*
X187194099Y-162051825D01*
X187456920Y-161926641D01*
X187690269Y-161752588D01*
X187885178Y-161536355D01*
X188034157Y-161286252D01*
X188131481Y-161011891D01*
X188010814Y-160782000D01*
X186817000Y-160782000D01*
X186563000Y-160782000D01*
X186543000Y-160782000D01*
X186543000Y-160528000D01*
X186563000Y-160528000D01*
X186563000Y-160508000D01*
X186817000Y-160508000D01*
X186817000Y-160528000D01*
X188010814Y-160528000D01*
X188131481Y-160298109D01*
X188034157Y-160023748D01*
X187885178Y-159773645D01*
X187690269Y-159557412D01*
X187460594Y-159386100D01*
X187636632Y-159268475D01*
X187843475Y-159061632D01*
X188005990Y-158818411D01*
X188117932Y-158548158D01*
X188175000Y-158261260D01*
X188175000Y-157968740D01*
X188117932Y-157681842D01*
X188005990Y-157411589D01*
X187843475Y-157168368D01*
X187636632Y-156961525D01*
X187450000Y-156836822D01*
X187450000Y-145539014D01*
X187455901Y-145541825D01*
X187603110Y-145586476D01*
X187833000Y-145465155D01*
X187833000Y-144272000D01*
X188087000Y-144272000D01*
X188087000Y-145465155D01*
X188316890Y-145586476D01*
X188464099Y-145541825D01*
X188726920Y-145416641D01*
X188960269Y-145242588D01*
X189155178Y-145026355D01*
X189304157Y-144776252D01*
X189401481Y-144501891D01*
X189280814Y-144272000D01*
X188087000Y-144272000D01*
X187833000Y-144272000D01*
X187813000Y-144272000D01*
X187813000Y-144018000D01*
X187833000Y-144018000D01*
X187833000Y-143998000D01*
X188087000Y-143998000D01*
X188087000Y-144018000D01*
X189280814Y-144018000D01*
X189401481Y-143788109D01*
X189304157Y-143513748D01*
X189173856Y-143295000D01*
X192821928Y-143295000D01*
X192821928Y-144995000D01*
X192834188Y-145119482D01*
X192870498Y-145239180D01*
X192929463Y-145349494D01*
X193008815Y-145446185D01*
X193105506Y-145525537D01*
X193215820Y-145584502D01*
X193335518Y-145620812D01*
X193460000Y-145633072D01*
X195160000Y-145633072D01*
X195284482Y-145620812D01*
X195404180Y-145584502D01*
X195514494Y-145525537D01*
X195611185Y-145446185D01*
X195690537Y-145349494D01*
X195749502Y-145239180D01*
X195771513Y-145166620D01*
X195903368Y-145298475D01*
X196146589Y-145460990D01*
X196416842Y-145572932D01*
X196703740Y-145630000D01*
X196996260Y-145630000D01*
X197283158Y-145572932D01*
X197360000Y-145541103D01*
X197360000Y-146012677D01*
X197356324Y-146050000D01*
X197360000Y-146087322D01*
X197360000Y-146087332D01*
X197370997Y-146198985D01*
X197406795Y-146316998D01*
X197414454Y-146342246D01*
X197485026Y-146474276D01*
X197507944Y-146502201D01*
X197579999Y-146590001D01*
X197609003Y-146613804D01*
X198630001Y-147634803D01*
X198630000Y-156836821D01*
X198443368Y-156961525D01*
X198236525Y-157168368D01*
X198120000Y-157342760D01*
X198003475Y-157168368D01*
X197796632Y-156961525D01*
X197553411Y-156799010D01*
X197283158Y-156687068D01*
X196996260Y-156630000D01*
X196703740Y-156630000D01*
X196416842Y-156687068D01*
X196146589Y-156799010D01*
X195903368Y-156961525D01*
X195696525Y-157168368D01*
X195534010Y-157411589D01*
X195422068Y-157681842D01*
X195365000Y-157968740D01*
X195365000Y-158261260D01*
X195422068Y-158548158D01*
X195534010Y-158818411D01*
X195696525Y-159061632D01*
X195828380Y-159193487D01*
X195755820Y-159215498D01*
X195645506Y-159274463D01*
X195548815Y-159353815D01*
X195469463Y-159450506D01*
X195410498Y-159560820D01*
X195374188Y-159680518D01*
X195361928Y-159805000D01*
X195361928Y-161505000D01*
X195374188Y-161629482D01*
X195410498Y-161749180D01*
X195469463Y-161859494D01*
X195548815Y-161956185D01*
X195645506Y-162035537D01*
X195755820Y-162094502D01*
X195875518Y-162130812D01*
X196000000Y-162143072D01*
X197700000Y-162143072D01*
X197824482Y-162130812D01*
X197944180Y-162094502D01*
X198054494Y-162035537D01*
X198151185Y-161956185D01*
X198230537Y-161859494D01*
X198289502Y-161749180D01*
X198311513Y-161676620D01*
X198443368Y-161808475D01*
X198686589Y-161970990D01*
X198956842Y-162082932D01*
X199243740Y-162140000D01*
X199536260Y-162140000D01*
X199823158Y-162082932D01*
X200093411Y-161970990D01*
X200336632Y-161808475D01*
X200543475Y-161601632D01*
X200660000Y-161427240D01*
X200776525Y-161601632D01*
X200983368Y-161808475D01*
X201226589Y-161970990D01*
X201496842Y-162082932D01*
X201783740Y-162140000D01*
X202076260Y-162140000D01*
X202363158Y-162082932D01*
X202633411Y-161970990D01*
X202876632Y-161808475D01*
X203083475Y-161601632D01*
X203200000Y-161427240D01*
X203316525Y-161601632D01*
X203523368Y-161808475D01*
X203766589Y-161970990D01*
X204036842Y-162082932D01*
X204323740Y-162140000D01*
X204616260Y-162140000D01*
X204903158Y-162082932D01*
X205173411Y-161970990D01*
X205416632Y-161808475D01*
X205623475Y-161601632D01*
X205745195Y-161419466D01*
X205814822Y-161536355D01*
X206009731Y-161752588D01*
X206243080Y-161926641D01*
X206505901Y-162051825D01*
X206653110Y-162096476D01*
X206883000Y-161975155D01*
X206883000Y-160782000D01*
X206863000Y-160782000D01*
X206863000Y-160528000D01*
X206883000Y-160528000D01*
X206883000Y-160508000D01*
X207137000Y-160508000D01*
X207137000Y-160528000D01*
X207157000Y-160528000D01*
X207157000Y-160782000D01*
X207137000Y-160782000D01*
X207137000Y-161975155D01*
X207366890Y-162096476D01*
X207514099Y-162051825D01*
X207776920Y-161926641D01*
X208010269Y-161752588D01*
X208205178Y-161536355D01*
X208274805Y-161419466D01*
X208396525Y-161601632D01*
X208603368Y-161808475D01*
X208846589Y-161970990D01*
X209116842Y-162082932D01*
X209403740Y-162140000D01*
X209696260Y-162140000D01*
X209983158Y-162082932D01*
X210253411Y-161970990D01*
X210496632Y-161808475D01*
X210703475Y-161601632D01*
X210825195Y-161419466D01*
X210894822Y-161536355D01*
X211089731Y-161752588D01*
X211323080Y-161926641D01*
X211585901Y-162051825D01*
X211733110Y-162096476D01*
X211963000Y-161975155D01*
X211963000Y-160782000D01*
X212217000Y-160782000D01*
X212217000Y-161975155D01*
X212446890Y-162096476D01*
X212594099Y-162051825D01*
X212856920Y-161926641D01*
X213090269Y-161752588D01*
X213285178Y-161536355D01*
X213434157Y-161286252D01*
X213531481Y-161011891D01*
X213410814Y-160782000D01*
X212217000Y-160782000D01*
X211963000Y-160782000D01*
X211943000Y-160782000D01*
X211943000Y-160528000D01*
X211963000Y-160528000D01*
X211963000Y-160508000D01*
X212217000Y-160508000D01*
X212217000Y-160528000D01*
X213410814Y-160528000D01*
X213531481Y-160298109D01*
X213434157Y-160023748D01*
X213285178Y-159773645D01*
X213090269Y-159557412D01*
X212860594Y-159386100D01*
X213036632Y-159268475D01*
X213243475Y-159061632D01*
X213405990Y-158818411D01*
X213517932Y-158548158D01*
X213575000Y-158261260D01*
X213575000Y-157968740D01*
X213517932Y-157681842D01*
X213405990Y-157411589D01*
X213243475Y-157168368D01*
X213036632Y-156961525D01*
X212850000Y-156836822D01*
X212850000Y-144182322D01*
X212853676Y-144144999D01*
X212850000Y-144107676D01*
X212850000Y-144107667D01*
X212839003Y-143996014D01*
X212795546Y-143852753D01*
X212724974Y-143720724D01*
X212666930Y-143649997D01*
X212653799Y-143633996D01*
X212653795Y-143633992D01*
X212630001Y-143604999D01*
X212601008Y-143581205D01*
X212314803Y-143295000D01*
X214411928Y-143295000D01*
X214411928Y-144995000D01*
X214424188Y-145119482D01*
X214460498Y-145239180D01*
X214519463Y-145349494D01*
X214598815Y-145446185D01*
X214695506Y-145525537D01*
X214805820Y-145584502D01*
X214925518Y-145620812D01*
X215050000Y-145633072D01*
X216750000Y-145633072D01*
X216874482Y-145620812D01*
X216994180Y-145584502D01*
X217104494Y-145525537D01*
X217201185Y-145446185D01*
X217280537Y-145349494D01*
X217339502Y-145239180D01*
X217361513Y-145166620D01*
X217493368Y-145298475D01*
X217736589Y-145460990D01*
X218006842Y-145572932D01*
X218293740Y-145630000D01*
X218586260Y-145630000D01*
X218873158Y-145572932D01*
X218950001Y-145541103D01*
X218950000Y-151600678D01*
X218946324Y-151638000D01*
X218950000Y-151675322D01*
X218950000Y-151675332D01*
X218960997Y-151786985D01*
X219004454Y-151930246D01*
X219075026Y-152062276D01*
X219114871Y-152110826D01*
X219169999Y-152178001D01*
X219199003Y-152201804D01*
X223912518Y-156915320D01*
X223843368Y-156961525D01*
X223636525Y-157168368D01*
X223520000Y-157342760D01*
X223403475Y-157168368D01*
X223196632Y-156961525D01*
X222953411Y-156799010D01*
X222683158Y-156687068D01*
X222396260Y-156630000D01*
X222103740Y-156630000D01*
X221816842Y-156687068D01*
X221546589Y-156799010D01*
X221303368Y-156961525D01*
X221096525Y-157168368D01*
X220934010Y-157411589D01*
X220822068Y-157681842D01*
X220765000Y-157968740D01*
X220765000Y-158261260D01*
X220822068Y-158548158D01*
X220934010Y-158818411D01*
X221096525Y-159061632D01*
X221228380Y-159193487D01*
X221155820Y-159215498D01*
X221045506Y-159274463D01*
X220948815Y-159353815D01*
X220869463Y-159450506D01*
X220810498Y-159560820D01*
X220774188Y-159680518D01*
X220761928Y-159805000D01*
X220761928Y-161505000D01*
X220774188Y-161629482D01*
X220810498Y-161749180D01*
X220869463Y-161859494D01*
X220948815Y-161956185D01*
X221045506Y-162035537D01*
X221155820Y-162094502D01*
X221275518Y-162130812D01*
X221400000Y-162143072D01*
X223100000Y-162143072D01*
X223224482Y-162130812D01*
X223344180Y-162094502D01*
X223454494Y-162035537D01*
X223551185Y-161956185D01*
X223630537Y-161859494D01*
X223689502Y-161749180D01*
X223711513Y-161676620D01*
X223843368Y-161808475D01*
X224086589Y-161970990D01*
X224356842Y-162082932D01*
X224643740Y-162140000D01*
X224936260Y-162140000D01*
X225223158Y-162082932D01*
X225493411Y-161970990D01*
X225736632Y-161808475D01*
X225943475Y-161601632D01*
X226060000Y-161427240D01*
X226176525Y-161601632D01*
X226383368Y-161808475D01*
X226626589Y-161970990D01*
X226896842Y-162082932D01*
X227183740Y-162140000D01*
X227476260Y-162140000D01*
X227763158Y-162082932D01*
X228033411Y-161970990D01*
X228276632Y-161808475D01*
X228483475Y-161601632D01*
X228600000Y-161427240D01*
X228716525Y-161601632D01*
X228923368Y-161808475D01*
X229166589Y-161970990D01*
X229436842Y-162082932D01*
X229723740Y-162140000D01*
X230016260Y-162140000D01*
X230303158Y-162082932D01*
X230573411Y-161970990D01*
X230816632Y-161808475D01*
X231023475Y-161601632D01*
X231145195Y-161419466D01*
X231214822Y-161536355D01*
X231409731Y-161752588D01*
X231643080Y-161926641D01*
X231905901Y-162051825D01*
X232053110Y-162096476D01*
X232283000Y-161975155D01*
X232283000Y-160782000D01*
X232263000Y-160782000D01*
X232263000Y-160528000D01*
X232283000Y-160528000D01*
X232283000Y-160508000D01*
X232537000Y-160508000D01*
X232537000Y-160528000D01*
X232557000Y-160528000D01*
X232557000Y-160782000D01*
X232537000Y-160782000D01*
X232537000Y-161975155D01*
X232766890Y-162096476D01*
X232914099Y-162051825D01*
X233176920Y-161926641D01*
X233410269Y-161752588D01*
X233605178Y-161536355D01*
X233674805Y-161419466D01*
X233796525Y-161601632D01*
X234003368Y-161808475D01*
X234246589Y-161970990D01*
X234516842Y-162082932D01*
X234803740Y-162140000D01*
X235096260Y-162140000D01*
X235383158Y-162082932D01*
X235653411Y-161970990D01*
X235896632Y-161808475D01*
X236103475Y-161601632D01*
X236225195Y-161419466D01*
X236294822Y-161536355D01*
X236489731Y-161752588D01*
X236723080Y-161926641D01*
X236985901Y-162051825D01*
X237133110Y-162096476D01*
X237363000Y-161975155D01*
X237363000Y-160782000D01*
X237617000Y-160782000D01*
X237617000Y-161975155D01*
X237846890Y-162096476D01*
X237994099Y-162051825D01*
X238256920Y-161926641D01*
X238490269Y-161752588D01*
X238685178Y-161536355D01*
X238834157Y-161286252D01*
X238931481Y-161011891D01*
X238810814Y-160782000D01*
X237617000Y-160782000D01*
X237363000Y-160782000D01*
X237343000Y-160782000D01*
X237343000Y-160528000D01*
X237363000Y-160528000D01*
X237363000Y-160508000D01*
X237617000Y-160508000D01*
X237617000Y-160528000D01*
X238810814Y-160528000D01*
X238931481Y-160298109D01*
X238834157Y-160023748D01*
X238685178Y-159773645D01*
X238490269Y-159557412D01*
X238260594Y-159386100D01*
X238436632Y-159268475D01*
X238643475Y-159061632D01*
X238805990Y-158818411D01*
X238917932Y-158548158D01*
X238975000Y-158261260D01*
X238975000Y-157968740D01*
X238917932Y-157681842D01*
X238805990Y-157411589D01*
X238643475Y-157168368D01*
X238436632Y-156961525D01*
X238250000Y-156836822D01*
X238250000Y-147992322D01*
X238253676Y-147954999D01*
X238250000Y-147917676D01*
X238250000Y-147917667D01*
X238239003Y-147806014D01*
X238195546Y-147662753D01*
X238155053Y-147586997D01*
X238124974Y-147530723D01*
X238053799Y-147443997D01*
X238030001Y-147414999D01*
X238001003Y-147391201D01*
X232581209Y-141971408D01*
X232625000Y-141751260D01*
X232625000Y-141458740D01*
X232567932Y-141171842D01*
X232455990Y-140901589D01*
X232293475Y-140658368D01*
X232086632Y-140451525D01*
X231843411Y-140289010D01*
X231573158Y-140177068D01*
X231286260Y-140120000D01*
X230993740Y-140120000D01*
X230706842Y-140177068D01*
X230436589Y-140289010D01*
X230193368Y-140451525D01*
X229986525Y-140658368D01*
X229864805Y-140840534D01*
X229795178Y-140723645D01*
X229600269Y-140507412D01*
X229366920Y-140333359D01*
X229104099Y-140208175D01*
X228956890Y-140163524D01*
X228727000Y-140284845D01*
X228727000Y-141478000D01*
X228747000Y-141478000D01*
X228747000Y-141732000D01*
X228727000Y-141732000D01*
X228727000Y-141752000D01*
X228473000Y-141752000D01*
X228473000Y-141732000D01*
X228453000Y-141732000D01*
X228453000Y-141478000D01*
X228473000Y-141478000D01*
X228473000Y-140284845D01*
X228243110Y-140163524D01*
X228095901Y-140208175D01*
X227833080Y-140333359D01*
X227599731Y-140507412D01*
X227404822Y-140723645D01*
X227335195Y-140840534D01*
X227213475Y-140658368D01*
X227006632Y-140451525D01*
X226763411Y-140289010D01*
X226493158Y-140177068D01*
X226206260Y-140120000D01*
X225913740Y-140120000D01*
X225626842Y-140177068D01*
X225356589Y-140289010D01*
X225113368Y-140451525D01*
X224906525Y-140658368D01*
X224784805Y-140840534D01*
X224715178Y-140723645D01*
X224520269Y-140507412D01*
X224286920Y-140333359D01*
X224024099Y-140208175D01*
X223876890Y-140163524D01*
X223647000Y-140284845D01*
X223647000Y-141478000D01*
X223667000Y-141478000D01*
X223667000Y-141732000D01*
X223647000Y-141732000D01*
X223647000Y-141752000D01*
X223393000Y-141752000D01*
X223393000Y-141732000D01*
X223373000Y-141732000D01*
X223373000Y-141478000D01*
X223393000Y-141478000D01*
X223393000Y-140284845D01*
X223163110Y-140163524D01*
X223015901Y-140208175D01*
X222753080Y-140333359D01*
X222519731Y-140507412D01*
X222324822Y-140723645D01*
X222255195Y-140840534D01*
X222133475Y-140658368D01*
X221926632Y-140451525D01*
X221683411Y-140289010D01*
X221413158Y-140177068D01*
X221126260Y-140120000D01*
X220833740Y-140120000D01*
X220546842Y-140177068D01*
X220276589Y-140289010D01*
X220033368Y-140451525D01*
X219826525Y-140658368D01*
X219710000Y-140832760D01*
X219593475Y-140658368D01*
X219386632Y-140451525D01*
X219143411Y-140289010D01*
X218873158Y-140177068D01*
X218586260Y-140120000D01*
X218293740Y-140120000D01*
X218006842Y-140177068D01*
X217736589Y-140289010D01*
X217493368Y-140451525D01*
X217286525Y-140658368D01*
X217170000Y-140832760D01*
X217053475Y-140658368D01*
X216846632Y-140451525D01*
X216603411Y-140289010D01*
X216333158Y-140177068D01*
X216046260Y-140120000D01*
X215753740Y-140120000D01*
X215466842Y-140177068D01*
X215196589Y-140289010D01*
X214953368Y-140451525D01*
X214746525Y-140658368D01*
X214584010Y-140901589D01*
X214472068Y-141171842D01*
X214415000Y-141458740D01*
X214415000Y-141751260D01*
X214472068Y-142038158D01*
X214584010Y-142308411D01*
X214746525Y-142551632D01*
X214878380Y-142683487D01*
X214805820Y-142705498D01*
X214695506Y-142764463D01*
X214598815Y-142843815D01*
X214519463Y-142940506D01*
X214460498Y-143050820D01*
X214424188Y-143170518D01*
X214411928Y-143295000D01*
X212314803Y-143295000D01*
X210991210Y-141971408D01*
X211035000Y-141751260D01*
X211035000Y-141458740D01*
X210977932Y-141171842D01*
X210865990Y-140901589D01*
X210703475Y-140658368D01*
X210496632Y-140451525D01*
X210253411Y-140289010D01*
X209983158Y-140177068D01*
X209696260Y-140120000D01*
X209403740Y-140120000D01*
X209116842Y-140177068D01*
X208846589Y-140289010D01*
X208603368Y-140451525D01*
X208396525Y-140658368D01*
X208274805Y-140840534D01*
X208205178Y-140723645D01*
X208010269Y-140507412D01*
X207776920Y-140333359D01*
X207514099Y-140208175D01*
X207366890Y-140163524D01*
X207137000Y-140284845D01*
X207137000Y-141478000D01*
X207157000Y-141478000D01*
X207157000Y-141732000D01*
X207137000Y-141732000D01*
X207137000Y-141752000D01*
X206883000Y-141752000D01*
X206883000Y-141732000D01*
X206863000Y-141732000D01*
X206863000Y-141478000D01*
X206883000Y-141478000D01*
X206883000Y-140284845D01*
X206653110Y-140163524D01*
X206505901Y-140208175D01*
X206243080Y-140333359D01*
X206009731Y-140507412D01*
X205814822Y-140723645D01*
X205745195Y-140840534D01*
X205623475Y-140658368D01*
X205416632Y-140451525D01*
X205173411Y-140289010D01*
X204903158Y-140177068D01*
X204616260Y-140120000D01*
X204323740Y-140120000D01*
X204036842Y-140177068D01*
X203766589Y-140289010D01*
X203523368Y-140451525D01*
X203316525Y-140658368D01*
X203194805Y-140840534D01*
X203125178Y-140723645D01*
X202930269Y-140507412D01*
X202696920Y-140333359D01*
X202434099Y-140208175D01*
X202286890Y-140163524D01*
X202057000Y-140284845D01*
X202057000Y-141478000D01*
X202077000Y-141478000D01*
X202077000Y-141732000D01*
X202057000Y-141732000D01*
X202057000Y-141752000D01*
X201803000Y-141752000D01*
X201803000Y-141732000D01*
X201783000Y-141732000D01*
X201783000Y-141478000D01*
X201803000Y-141478000D01*
X201803000Y-140284845D01*
X201573110Y-140163524D01*
X201425901Y-140208175D01*
X201163080Y-140333359D01*
X200929731Y-140507412D01*
X200734822Y-140723645D01*
X200665195Y-140840534D01*
X200543475Y-140658368D01*
X200336632Y-140451525D01*
X200093411Y-140289010D01*
X199823158Y-140177068D01*
X199536260Y-140120000D01*
X199243740Y-140120000D01*
X198956842Y-140177068D01*
X198686589Y-140289010D01*
X198443368Y-140451525D01*
X198236525Y-140658368D01*
X198120000Y-140832760D01*
X198003475Y-140658368D01*
X197796632Y-140451525D01*
X197553411Y-140289010D01*
X197283158Y-140177068D01*
X196996260Y-140120000D01*
X196703740Y-140120000D01*
X196416842Y-140177068D01*
X196146589Y-140289010D01*
X195903368Y-140451525D01*
X195696525Y-140658368D01*
X195580000Y-140832760D01*
X195463475Y-140658368D01*
X195256632Y-140451525D01*
X195013411Y-140289010D01*
X194743158Y-140177068D01*
X194456260Y-140120000D01*
X194163740Y-140120000D01*
X193876842Y-140177068D01*
X193606589Y-140289010D01*
X193363368Y-140451525D01*
X193156525Y-140658368D01*
X192994010Y-140901589D01*
X192882068Y-141171842D01*
X192825000Y-141458740D01*
X192825000Y-141751260D01*
X192882068Y-142038158D01*
X192994010Y-142308411D01*
X193156525Y-142551632D01*
X193288380Y-142683487D01*
X193215820Y-142705498D01*
X193105506Y-142764463D01*
X193008815Y-142843815D01*
X192929463Y-142940506D01*
X192870498Y-143050820D01*
X192834188Y-143170518D01*
X192821928Y-143295000D01*
X189173856Y-143295000D01*
X189155178Y-143263645D01*
X188960269Y-143047412D01*
X188730594Y-142876100D01*
X188906632Y-142758475D01*
X189113475Y-142551632D01*
X189275990Y-142308411D01*
X189387932Y-142038158D01*
X189445000Y-141751260D01*
X189445000Y-141458740D01*
X189387932Y-141171842D01*
X189275990Y-140901589D01*
X189113475Y-140658368D01*
X188906632Y-140451525D01*
X188663411Y-140289010D01*
X188393158Y-140177068D01*
X188106260Y-140120000D01*
X187813740Y-140120000D01*
X187526842Y-140177068D01*
X187256589Y-140289010D01*
X187013368Y-140451525D01*
X186806525Y-140658368D01*
X186684805Y-140840534D01*
X186615178Y-140723645D01*
X186420269Y-140507412D01*
X186186920Y-140333359D01*
X185924099Y-140208175D01*
X185776890Y-140163524D01*
X185547000Y-140284845D01*
X185547000Y-141478000D01*
X185567000Y-141478000D01*
X185567000Y-141732000D01*
X185547000Y-141732000D01*
X185547000Y-141752000D01*
X185293000Y-141752000D01*
X185293000Y-141732000D01*
X185273000Y-141732000D01*
X185273000Y-141478000D01*
X185293000Y-141478000D01*
X185293000Y-140284845D01*
X185063110Y-140163524D01*
X184915901Y-140208175D01*
X184653080Y-140333359D01*
X184419731Y-140507412D01*
X184224822Y-140723645D01*
X184155195Y-140840534D01*
X184033475Y-140658368D01*
X183826632Y-140451525D01*
X183583411Y-140289010D01*
X183313158Y-140177068D01*
X183026260Y-140120000D01*
X182733740Y-140120000D01*
X182446842Y-140177068D01*
X182176589Y-140289010D01*
X181933368Y-140451525D01*
X181726525Y-140658368D01*
X181604805Y-140840534D01*
X181535178Y-140723645D01*
X181340269Y-140507412D01*
X181106920Y-140333359D01*
X180844099Y-140208175D01*
X180696890Y-140163524D01*
X180467000Y-140284845D01*
X180467000Y-141478000D01*
X180487000Y-141478000D01*
X180487000Y-141732000D01*
X180467000Y-141732000D01*
X180467000Y-141752000D01*
X180213000Y-141752000D01*
X180213000Y-141732000D01*
X180193000Y-141732000D01*
X180193000Y-141478000D01*
X180213000Y-141478000D01*
X180213000Y-140284845D01*
X179983110Y-140163524D01*
X179835901Y-140208175D01*
X179573080Y-140333359D01*
X179339731Y-140507412D01*
X179144822Y-140723645D01*
X179075195Y-140840534D01*
X178953475Y-140658368D01*
X178746632Y-140451525D01*
X178503411Y-140289010D01*
X178233158Y-140177068D01*
X177946260Y-140120000D01*
X177653740Y-140120000D01*
X177366842Y-140177068D01*
X177096589Y-140289010D01*
X176853368Y-140451525D01*
X176646525Y-140658368D01*
X176530000Y-140832760D01*
X176413475Y-140658368D01*
X176206632Y-140451525D01*
X175963411Y-140289010D01*
X175693158Y-140177068D01*
X175406260Y-140120000D01*
X175113740Y-140120000D01*
X174826842Y-140177068D01*
X174556589Y-140289010D01*
X174313368Y-140451525D01*
X174106525Y-140658368D01*
X173990000Y-140832760D01*
X173873475Y-140658368D01*
X173666632Y-140451525D01*
X173423411Y-140289010D01*
X173153158Y-140177068D01*
X172866260Y-140120000D01*
X172573740Y-140120000D01*
X172286842Y-140177068D01*
X172016589Y-140289010D01*
X171773368Y-140451525D01*
X171566525Y-140658368D01*
X171404010Y-140901589D01*
X171292068Y-141171842D01*
X171235000Y-141458740D01*
X171235000Y-141751260D01*
X171292068Y-142038158D01*
X171404010Y-142308411D01*
X171566525Y-142551632D01*
X171698380Y-142683487D01*
X171625820Y-142705498D01*
X171515506Y-142764463D01*
X171418815Y-142843815D01*
X171339463Y-142940506D01*
X171280498Y-143050820D01*
X171244188Y-143170518D01*
X171231928Y-143295000D01*
X171231928Y-144995000D01*
X171244188Y-145119482D01*
X171280498Y-145239180D01*
X171339463Y-145349494D01*
X171418815Y-145446185D01*
X171515506Y-145525537D01*
X171625820Y-145584502D01*
X171745518Y-145620812D01*
X171870000Y-145633072D01*
X173230001Y-145633072D01*
X173230000Y-156836821D01*
X173043368Y-156961525D01*
X172836525Y-157168368D01*
X172720000Y-157342760D01*
X172603475Y-157168368D01*
X172396632Y-156961525D01*
X172153411Y-156799010D01*
X171883158Y-156687068D01*
X171596260Y-156630000D01*
X171303740Y-156630000D01*
X171016842Y-156687068D01*
X170746589Y-156799010D01*
X170503368Y-156961525D01*
X170296525Y-157168368D01*
X170134010Y-157411589D01*
X170022068Y-157681842D01*
X169965000Y-157968740D01*
X169965000Y-158261260D01*
X170022068Y-158548158D01*
X170134010Y-158818411D01*
X170296525Y-159061632D01*
X170428380Y-159193487D01*
X170355820Y-159215498D01*
X170245506Y-159274463D01*
X170148815Y-159353815D01*
X170069463Y-159450506D01*
X170010498Y-159560820D01*
X169974188Y-159680518D01*
X169961928Y-159805000D01*
X162503856Y-159805000D01*
X162485178Y-159773645D01*
X162290269Y-159557412D01*
X162060594Y-159386100D01*
X162236632Y-159268475D01*
X162443475Y-159061632D01*
X162605990Y-158818411D01*
X162717932Y-158548158D01*
X162775000Y-158261260D01*
X162775000Y-157968740D01*
X162717932Y-157681842D01*
X162605990Y-157411589D01*
X162443475Y-157168368D01*
X162236632Y-156961525D01*
X162050000Y-156836822D01*
X162050000Y-154492801D01*
X165611004Y-150931798D01*
X165640001Y-150908001D01*
X165734974Y-150792276D01*
X165805546Y-150660247D01*
X165849003Y-150516986D01*
X165860000Y-150405333D01*
X165860000Y-150405325D01*
X165863676Y-150368000D01*
X165860000Y-150330675D01*
X165860000Y-145539014D01*
X165865901Y-145541825D01*
X166013110Y-145586476D01*
X166243000Y-145465155D01*
X166243000Y-144272000D01*
X166497000Y-144272000D01*
X166497000Y-145465155D01*
X166726890Y-145586476D01*
X166874099Y-145541825D01*
X167136920Y-145416641D01*
X167370269Y-145242588D01*
X167565178Y-145026355D01*
X167714157Y-144776252D01*
X167811481Y-144501891D01*
X167690814Y-144272000D01*
X166497000Y-144272000D01*
X166243000Y-144272000D01*
X166223000Y-144272000D01*
X166223000Y-144018000D01*
X166243000Y-144018000D01*
X166243000Y-143998000D01*
X166497000Y-143998000D01*
X166497000Y-144018000D01*
X167690814Y-144018000D01*
X167811481Y-143788109D01*
X167714157Y-143513748D01*
X167565178Y-143263645D01*
X167370269Y-143047412D01*
X167140594Y-142876100D01*
X167316632Y-142758475D01*
X167523475Y-142551632D01*
X167685990Y-142308411D01*
X167797932Y-142038158D01*
X167855000Y-141751260D01*
X167855000Y-141458740D01*
X167797932Y-141171842D01*
X167685990Y-140901589D01*
X167523475Y-140658368D01*
X167316632Y-140451525D01*
X167073411Y-140289010D01*
X166803158Y-140177068D01*
X166516260Y-140120000D01*
X166223740Y-140120000D01*
X165936842Y-140177068D01*
X165666589Y-140289010D01*
X165423368Y-140451525D01*
X165216525Y-140658368D01*
X165094805Y-140840534D01*
X165025178Y-140723645D01*
X164830269Y-140507412D01*
X164596920Y-140333359D01*
X164334099Y-140208175D01*
X164186890Y-140163524D01*
X163957000Y-140284845D01*
X163957000Y-141478000D01*
X163977000Y-141478000D01*
X163977000Y-141732000D01*
X163957000Y-141732000D01*
X163957000Y-141752000D01*
X163703000Y-141752000D01*
X163703000Y-141732000D01*
X163683000Y-141732000D01*
X163683000Y-141478000D01*
X163703000Y-141478000D01*
X163703000Y-140284845D01*
X163473110Y-140163524D01*
X163325901Y-140208175D01*
X163063080Y-140333359D01*
X162829731Y-140507412D01*
X162634822Y-140723645D01*
X162565195Y-140840534D01*
X162443475Y-140658368D01*
X162236632Y-140451525D01*
X161993411Y-140289010D01*
X161723158Y-140177068D01*
X161436260Y-140120000D01*
X161143740Y-140120000D01*
X160856842Y-140177068D01*
X160586589Y-140289010D01*
X160343368Y-140451525D01*
X160136525Y-140658368D01*
X160014805Y-140840534D01*
X159945178Y-140723645D01*
X159750269Y-140507412D01*
X159516920Y-140333359D01*
X159254099Y-140208175D01*
X159106890Y-140163524D01*
X158877000Y-140284845D01*
X158877000Y-141478000D01*
X158897000Y-141478000D01*
X158897000Y-141732000D01*
X158877000Y-141732000D01*
X158877000Y-141752000D01*
X158623000Y-141752000D01*
X158623000Y-141732000D01*
X158603000Y-141732000D01*
X158603000Y-141478000D01*
X158623000Y-141478000D01*
X158623000Y-140284845D01*
X158393110Y-140163524D01*
X158245901Y-140208175D01*
X157983080Y-140333359D01*
X157749731Y-140507412D01*
X157554822Y-140723645D01*
X157485195Y-140840534D01*
X157363475Y-140658368D01*
X157156632Y-140451525D01*
X156913411Y-140289010D01*
X156643158Y-140177068D01*
X156356260Y-140120000D01*
X156063740Y-140120000D01*
X155776842Y-140177068D01*
X155506589Y-140289010D01*
X155263368Y-140451525D01*
X155056525Y-140658368D01*
X154940000Y-140832760D01*
X154823475Y-140658368D01*
X154616632Y-140451525D01*
X154373411Y-140289010D01*
X154103158Y-140177068D01*
X153816260Y-140120000D01*
X153523740Y-140120000D01*
X153236842Y-140177068D01*
X152966589Y-140289010D01*
X152723368Y-140451525D01*
X152516525Y-140658368D01*
X152400000Y-140832760D01*
X152283475Y-140658368D01*
X152076632Y-140451525D01*
X151833411Y-140289010D01*
X151563158Y-140177068D01*
X151276260Y-140120000D01*
X150983740Y-140120000D01*
X150696842Y-140177068D01*
X150426589Y-140289010D01*
X150183368Y-140451525D01*
X149976525Y-140658368D01*
X149814010Y-140901589D01*
X149702068Y-141171842D01*
X149645000Y-141458740D01*
X149645000Y-141751260D01*
X149702068Y-142038158D01*
X149814010Y-142308411D01*
X149976525Y-142551632D01*
X150108380Y-142683487D01*
X150035820Y-142705498D01*
X149925506Y-142764463D01*
X149828815Y-142843815D01*
X149749463Y-142940506D01*
X149690498Y-143050820D01*
X149654188Y-143170518D01*
X149641928Y-143295000D01*
X149641928Y-144995000D01*
X149654188Y-145119482D01*
X149690498Y-145239180D01*
X149749463Y-145349494D01*
X149828815Y-145446185D01*
X149925506Y-145525537D01*
X150035820Y-145584502D01*
X150155518Y-145620812D01*
X150280000Y-145633072D01*
X151640000Y-145633072D01*
X151640000Y-145735198D01*
X148078998Y-149296201D01*
X148050000Y-149319999D01*
X148026202Y-149348997D01*
X148026201Y-149348998D01*
X147955026Y-149435724D01*
X147884454Y-149567754D01*
X147840998Y-149711015D01*
X147826324Y-149860000D01*
X147830001Y-149897332D01*
X147830000Y-156836821D01*
X147643368Y-156961525D01*
X147436525Y-157168368D01*
X147320000Y-157342760D01*
X147203475Y-157168368D01*
X146996632Y-156961525D01*
X146753411Y-156799010D01*
X146483158Y-156687068D01*
X146196260Y-156630000D01*
X145903740Y-156630000D01*
X145616842Y-156687068D01*
X145346589Y-156799010D01*
X145103368Y-156961525D01*
X144896525Y-157168368D01*
X144734010Y-157411589D01*
X144622068Y-157681842D01*
X144565000Y-157968740D01*
X144565000Y-158261260D01*
X144622068Y-158548158D01*
X144734010Y-158818411D01*
X144896525Y-159061632D01*
X145028380Y-159193487D01*
X144955820Y-159215498D01*
X144845506Y-159274463D01*
X144748815Y-159353815D01*
X144669463Y-159450506D01*
X144610498Y-159560820D01*
X144574188Y-159680518D01*
X144561928Y-159805000D01*
X142900000Y-159805000D01*
X142900000Y-138328000D01*
X241910001Y-138328000D01*
X241910000Y-165132418D01*
G37*
X241910000Y-165132418D02*
X241910001Y-165132428D01*
X241910001Y-165710000D01*
X142900000Y-165710000D01*
X142900000Y-159805000D01*
X144561928Y-159805000D01*
X144561928Y-161505000D01*
X144574188Y-161629482D01*
X144610498Y-161749180D01*
X144669463Y-161859494D01*
X144748815Y-161956185D01*
X144845506Y-162035537D01*
X144955820Y-162094502D01*
X145075518Y-162130812D01*
X145200000Y-162143072D01*
X146900000Y-162143072D01*
X147024482Y-162130812D01*
X147144180Y-162094502D01*
X147254494Y-162035537D01*
X147351185Y-161956185D01*
X147430537Y-161859494D01*
X147489502Y-161749180D01*
X147511513Y-161676620D01*
X147643368Y-161808475D01*
X147886589Y-161970990D01*
X148156842Y-162082932D01*
X148443740Y-162140000D01*
X148736260Y-162140000D01*
X149023158Y-162082932D01*
X149293411Y-161970990D01*
X149536632Y-161808475D01*
X149743475Y-161601632D01*
X149860000Y-161427240D01*
X149976525Y-161601632D01*
X150183368Y-161808475D01*
X150426589Y-161970990D01*
X150696842Y-162082932D01*
X150983740Y-162140000D01*
X151276260Y-162140000D01*
X151563158Y-162082932D01*
X151833411Y-161970990D01*
X152076632Y-161808475D01*
X152283475Y-161601632D01*
X152400000Y-161427240D01*
X152516525Y-161601632D01*
X152723368Y-161808475D01*
X152966589Y-161970990D01*
X153236842Y-162082932D01*
X153523740Y-162140000D01*
X153816260Y-162140000D01*
X154103158Y-162082932D01*
X154373411Y-161970990D01*
X154616632Y-161808475D01*
X154823475Y-161601632D01*
X154945195Y-161419466D01*
X155014822Y-161536355D01*
X155209731Y-161752588D01*
X155443080Y-161926641D01*
X155705901Y-162051825D01*
X155853110Y-162096476D01*
X156083000Y-161975155D01*
X156083000Y-160782000D01*
X156063000Y-160782000D01*
X156063000Y-160528000D01*
X156083000Y-160528000D01*
X156083000Y-160508000D01*
X156337000Y-160508000D01*
X156337000Y-160528000D01*
X156357000Y-160528000D01*
X156357000Y-160782000D01*
X156337000Y-160782000D01*
X156337000Y-161975155D01*
X156566890Y-162096476D01*
X156714099Y-162051825D01*
X156976920Y-161926641D01*
X157210269Y-161752588D01*
X157405178Y-161536355D01*
X157474805Y-161419466D01*
X157596525Y-161601632D01*
X157803368Y-161808475D01*
X158046589Y-161970990D01*
X158316842Y-162082932D01*
X158603740Y-162140000D01*
X158896260Y-162140000D01*
X159183158Y-162082932D01*
X159453411Y-161970990D01*
X159696632Y-161808475D01*
X159903475Y-161601632D01*
X160025195Y-161419466D01*
X160094822Y-161536355D01*
X160289731Y-161752588D01*
X160523080Y-161926641D01*
X160785901Y-162051825D01*
X160933110Y-162096476D01*
X161163000Y-161975155D01*
X161163000Y-160782000D01*
X161417000Y-160782000D01*
X161417000Y-161975155D01*
X161646890Y-162096476D01*
X161794099Y-162051825D01*
X162056920Y-161926641D01*
X162290269Y-161752588D01*
X162485178Y-161536355D01*
X162634157Y-161286252D01*
X162731481Y-161011891D01*
X162610814Y-160782000D01*
X161417000Y-160782000D01*
X161163000Y-160782000D01*
X161143000Y-160782000D01*
X161143000Y-160528000D01*
X161163000Y-160528000D01*
X161163000Y-160508000D01*
X161417000Y-160508000D01*
X161417000Y-160528000D01*
X162610814Y-160528000D01*
X162731481Y-160298109D01*
X162634157Y-160023748D01*
X162503856Y-159805000D01*
X169961928Y-159805000D01*
X169961928Y-161505000D01*
X169974188Y-161629482D01*
X170010498Y-161749180D01*
X170069463Y-161859494D01*
X170148815Y-161956185D01*
X170245506Y-162035537D01*
X170355820Y-162094502D01*
X170475518Y-162130812D01*
X170600000Y-162143072D01*
X172300000Y-162143072D01*
X172424482Y-162130812D01*
X172544180Y-162094502D01*
X172654494Y-162035537D01*
X172751185Y-161956185D01*
X172830537Y-161859494D01*
X172889502Y-161749180D01*
X172911513Y-161676620D01*
X173043368Y-161808475D01*
X173286589Y-161970990D01*
X173556842Y-162082932D01*
X173843740Y-162140000D01*
X174136260Y-162140000D01*
X174423158Y-162082932D01*
X174693411Y-161970990D01*
X174936632Y-161808475D01*
X175143475Y-161601632D01*
X175260000Y-161427240D01*
X175376525Y-161601632D01*
X175583368Y-161808475D01*
X175826589Y-161970990D01*
X176096842Y-162082932D01*
X176383740Y-162140000D01*
X176676260Y-162140000D01*
X176963158Y-162082932D01*
X177233411Y-161970990D01*
X177476632Y-161808475D01*
X177683475Y-161601632D01*
X177800000Y-161427240D01*
X177916525Y-161601632D01*
X178123368Y-161808475D01*
X178366589Y-161970990D01*
X178636842Y-162082932D01*
X178923740Y-162140000D01*
X179216260Y-162140000D01*
X179503158Y-162082932D01*
X179773411Y-161970990D01*
X180016632Y-161808475D01*
X180223475Y-161601632D01*
X180345195Y-161419466D01*
X180414822Y-161536355D01*
X180609731Y-161752588D01*
X180843080Y-161926641D01*
X181105901Y-162051825D01*
X181253110Y-162096476D01*
X181483000Y-161975155D01*
X181483000Y-160782000D01*
X181463000Y-160782000D01*
X181463000Y-160528000D01*
X181483000Y-160528000D01*
X181483000Y-160508000D01*
X181737000Y-160508000D01*
X181737000Y-160528000D01*
X181757000Y-160528000D01*
X181757000Y-160782000D01*
X181737000Y-160782000D01*
X181737000Y-161975155D01*
X181966890Y-162096476D01*
X182114099Y-162051825D01*
X182376920Y-161926641D01*
X182610269Y-161752588D01*
X182805178Y-161536355D01*
X182874805Y-161419466D01*
X182996525Y-161601632D01*
X183203368Y-161808475D01*
X183446589Y-161970990D01*
X183716842Y-162082932D01*
X184003740Y-162140000D01*
X184296260Y-162140000D01*
X184583158Y-162082932D01*
X184853411Y-161970990D01*
X185096632Y-161808475D01*
X185303475Y-161601632D01*
X185425195Y-161419466D01*
X185494822Y-161536355D01*
X185689731Y-161752588D01*
X185923080Y-161926641D01*
X186185901Y-162051825D01*
X186333110Y-162096476D01*
X186563000Y-161975155D01*
X186563000Y-160782000D01*
X186817000Y-160782000D01*
X186817000Y-161975155D01*
X187046890Y-162096476D01*
X187194099Y-162051825D01*
X187456920Y-161926641D01*
X187690269Y-161752588D01*
X187885178Y-161536355D01*
X188034157Y-161286252D01*
X188131481Y-161011891D01*
X188010814Y-160782000D01*
X186817000Y-160782000D01*
X186563000Y-160782000D01*
X186543000Y-160782000D01*
X186543000Y-160528000D01*
X186563000Y-160528000D01*
X186563000Y-160508000D01*
X186817000Y-160508000D01*
X186817000Y-160528000D01*
X188010814Y-160528000D01*
X188131481Y-160298109D01*
X188034157Y-160023748D01*
X187885178Y-159773645D01*
X187690269Y-159557412D01*
X187460594Y-159386100D01*
X187636632Y-159268475D01*
X187843475Y-159061632D01*
X188005990Y-158818411D01*
X188117932Y-158548158D01*
X188175000Y-158261260D01*
X188175000Y-157968740D01*
X188117932Y-157681842D01*
X188005990Y-157411589D01*
X187843475Y-157168368D01*
X187636632Y-156961525D01*
X187450000Y-156836822D01*
X187450000Y-145539014D01*
X187455901Y-145541825D01*
X187603110Y-145586476D01*
X187833000Y-145465155D01*
X187833000Y-144272000D01*
X188087000Y-144272000D01*
X188087000Y-145465155D01*
X188316890Y-145586476D01*
X188464099Y-145541825D01*
X188726920Y-145416641D01*
X188960269Y-145242588D01*
X189155178Y-145026355D01*
X189304157Y-144776252D01*
X189401481Y-144501891D01*
X189280814Y-144272000D01*
X188087000Y-144272000D01*
X187833000Y-144272000D01*
X187813000Y-144272000D01*
X187813000Y-144018000D01*
X187833000Y-144018000D01*
X187833000Y-143998000D01*
X188087000Y-143998000D01*
X188087000Y-144018000D01*
X189280814Y-144018000D01*
X189401481Y-143788109D01*
X189304157Y-143513748D01*
X189173856Y-143295000D01*
X192821928Y-143295000D01*
X192821928Y-144995000D01*
X192834188Y-145119482D01*
X192870498Y-145239180D01*
X192929463Y-145349494D01*
X193008815Y-145446185D01*
X193105506Y-145525537D01*
X193215820Y-145584502D01*
X193335518Y-145620812D01*
X193460000Y-145633072D01*
X195160000Y-145633072D01*
X195284482Y-145620812D01*
X195404180Y-145584502D01*
X195514494Y-145525537D01*
X195611185Y-145446185D01*
X195690537Y-145349494D01*
X195749502Y-145239180D01*
X195771513Y-145166620D01*
X195903368Y-145298475D01*
X196146589Y-145460990D01*
X196416842Y-145572932D01*
X196703740Y-145630000D01*
X196996260Y-145630000D01*
X197283158Y-145572932D01*
X197360000Y-145541103D01*
X197360000Y-146012677D01*
X197356324Y-146050000D01*
X197360000Y-146087322D01*
X197360000Y-146087332D01*
X197370997Y-146198985D01*
X197406795Y-146316998D01*
X197414454Y-146342246D01*
X197485026Y-146474276D01*
X197507944Y-146502201D01*
X197579999Y-146590001D01*
X197609003Y-146613804D01*
X198630001Y-147634803D01*
X198630000Y-156836821D01*
X198443368Y-156961525D01*
X198236525Y-157168368D01*
X198120000Y-157342760D01*
X198003475Y-157168368D01*
X197796632Y-156961525D01*
X197553411Y-156799010D01*
X197283158Y-156687068D01*
X196996260Y-156630000D01*
X196703740Y-156630000D01*
X196416842Y-156687068D01*
X196146589Y-156799010D01*
X195903368Y-156961525D01*
X195696525Y-157168368D01*
X195534010Y-157411589D01*
X195422068Y-157681842D01*
X195365000Y-157968740D01*
X195365000Y-158261260D01*
X195422068Y-158548158D01*
X195534010Y-158818411D01*
X195696525Y-159061632D01*
X195828380Y-159193487D01*
X195755820Y-159215498D01*
X195645506Y-159274463D01*
X195548815Y-159353815D01*
X195469463Y-159450506D01*
X195410498Y-159560820D01*
X195374188Y-159680518D01*
X195361928Y-159805000D01*
X195361928Y-161505000D01*
X195374188Y-161629482D01*
X195410498Y-161749180D01*
X195469463Y-161859494D01*
X195548815Y-161956185D01*
X195645506Y-162035537D01*
X195755820Y-162094502D01*
X195875518Y-162130812D01*
X196000000Y-162143072D01*
X197700000Y-162143072D01*
X197824482Y-162130812D01*
X197944180Y-162094502D01*
X198054494Y-162035537D01*
X198151185Y-161956185D01*
X198230537Y-161859494D01*
X198289502Y-161749180D01*
X198311513Y-161676620D01*
X198443368Y-161808475D01*
X198686589Y-161970990D01*
X198956842Y-162082932D01*
X199243740Y-162140000D01*
X199536260Y-162140000D01*
X199823158Y-162082932D01*
X200093411Y-161970990D01*
X200336632Y-161808475D01*
X200543475Y-161601632D01*
X200660000Y-161427240D01*
X200776525Y-161601632D01*
X200983368Y-161808475D01*
X201226589Y-161970990D01*
X201496842Y-162082932D01*
X201783740Y-162140000D01*
X202076260Y-162140000D01*
X202363158Y-162082932D01*
X202633411Y-161970990D01*
X202876632Y-161808475D01*
X203083475Y-161601632D01*
X203200000Y-161427240D01*
X203316525Y-161601632D01*
X203523368Y-161808475D01*
X203766589Y-161970990D01*
X204036842Y-162082932D01*
X204323740Y-162140000D01*
X204616260Y-162140000D01*
X204903158Y-162082932D01*
X205173411Y-161970990D01*
X205416632Y-161808475D01*
X205623475Y-161601632D01*
X205745195Y-161419466D01*
X205814822Y-161536355D01*
X206009731Y-161752588D01*
X206243080Y-161926641D01*
X206505901Y-162051825D01*
X206653110Y-162096476D01*
X206883000Y-161975155D01*
X206883000Y-160782000D01*
X206863000Y-160782000D01*
X206863000Y-160528000D01*
X206883000Y-160528000D01*
X206883000Y-160508000D01*
X207137000Y-160508000D01*
X207137000Y-160528000D01*
X207157000Y-160528000D01*
X207157000Y-160782000D01*
X207137000Y-160782000D01*
X207137000Y-161975155D01*
X207366890Y-162096476D01*
X207514099Y-162051825D01*
X207776920Y-161926641D01*
X208010269Y-161752588D01*
X208205178Y-161536355D01*
X208274805Y-161419466D01*
X208396525Y-161601632D01*
X208603368Y-161808475D01*
X208846589Y-161970990D01*
X209116842Y-162082932D01*
X209403740Y-162140000D01*
X209696260Y-162140000D01*
X209983158Y-162082932D01*
X210253411Y-161970990D01*
X210496632Y-161808475D01*
X210703475Y-161601632D01*
X210825195Y-161419466D01*
X210894822Y-161536355D01*
X211089731Y-161752588D01*
X211323080Y-161926641D01*
X211585901Y-162051825D01*
X211733110Y-162096476D01*
X211963000Y-161975155D01*
X211963000Y-160782000D01*
X212217000Y-160782000D01*
X212217000Y-161975155D01*
X212446890Y-162096476D01*
X212594099Y-162051825D01*
X212856920Y-161926641D01*
X213090269Y-161752588D01*
X213285178Y-161536355D01*
X213434157Y-161286252D01*
X213531481Y-161011891D01*
X213410814Y-160782000D01*
X212217000Y-160782000D01*
X211963000Y-160782000D01*
X211943000Y-160782000D01*
X211943000Y-160528000D01*
X211963000Y-160528000D01*
X211963000Y-160508000D01*
X212217000Y-160508000D01*
X212217000Y-160528000D01*
X213410814Y-160528000D01*
X213531481Y-160298109D01*
X213434157Y-160023748D01*
X213285178Y-159773645D01*
X213090269Y-159557412D01*
X212860594Y-159386100D01*
X213036632Y-159268475D01*
X213243475Y-159061632D01*
X213405990Y-158818411D01*
X213517932Y-158548158D01*
X213575000Y-158261260D01*
X213575000Y-157968740D01*
X213517932Y-157681842D01*
X213405990Y-157411589D01*
X213243475Y-157168368D01*
X213036632Y-156961525D01*
X212850000Y-156836822D01*
X212850000Y-144182322D01*
X212853676Y-144144999D01*
X212850000Y-144107676D01*
X212850000Y-144107667D01*
X212839003Y-143996014D01*
X212795546Y-143852753D01*
X212724974Y-143720724D01*
X212666930Y-143649997D01*
X212653799Y-143633996D01*
X212653795Y-143633992D01*
X212630001Y-143604999D01*
X212601008Y-143581205D01*
X212314803Y-143295000D01*
X214411928Y-143295000D01*
X214411928Y-144995000D01*
X214424188Y-145119482D01*
X214460498Y-145239180D01*
X214519463Y-145349494D01*
X214598815Y-145446185D01*
X214695506Y-145525537D01*
X214805820Y-145584502D01*
X214925518Y-145620812D01*
X215050000Y-145633072D01*
X216750000Y-145633072D01*
X216874482Y-145620812D01*
X216994180Y-145584502D01*
X217104494Y-145525537D01*
X217201185Y-145446185D01*
X217280537Y-145349494D01*
X217339502Y-145239180D01*
X217361513Y-145166620D01*
X217493368Y-145298475D01*
X217736589Y-145460990D01*
X218006842Y-145572932D01*
X218293740Y-145630000D01*
X218586260Y-145630000D01*
X218873158Y-145572932D01*
X218950001Y-145541103D01*
X218950000Y-151600678D01*
X218946324Y-151638000D01*
X218950000Y-151675322D01*
X218950000Y-151675332D01*
X218960997Y-151786985D01*
X219004454Y-151930246D01*
X219075026Y-152062276D01*
X219114871Y-152110826D01*
X219169999Y-152178001D01*
X219199003Y-152201804D01*
X223912518Y-156915320D01*
X223843368Y-156961525D01*
X223636525Y-157168368D01*
X223520000Y-157342760D01*
X223403475Y-157168368D01*
X223196632Y-156961525D01*
X222953411Y-156799010D01*
X222683158Y-156687068D01*
X222396260Y-156630000D01*
X222103740Y-156630000D01*
X221816842Y-156687068D01*
X221546589Y-156799010D01*
X221303368Y-156961525D01*
X221096525Y-157168368D01*
X220934010Y-157411589D01*
X220822068Y-157681842D01*
X220765000Y-157968740D01*
X220765000Y-158261260D01*
X220822068Y-158548158D01*
X220934010Y-158818411D01*
X221096525Y-159061632D01*
X221228380Y-159193487D01*
X221155820Y-159215498D01*
X221045506Y-159274463D01*
X220948815Y-159353815D01*
X220869463Y-159450506D01*
X220810498Y-159560820D01*
X220774188Y-159680518D01*
X220761928Y-159805000D01*
X220761928Y-161505000D01*
X220774188Y-161629482D01*
X220810498Y-161749180D01*
X220869463Y-161859494D01*
X220948815Y-161956185D01*
X221045506Y-162035537D01*
X221155820Y-162094502D01*
X221275518Y-162130812D01*
X221400000Y-162143072D01*
X223100000Y-162143072D01*
X223224482Y-162130812D01*
X223344180Y-162094502D01*
X223454494Y-162035537D01*
X223551185Y-161956185D01*
X223630537Y-161859494D01*
X223689502Y-161749180D01*
X223711513Y-161676620D01*
X223843368Y-161808475D01*
X224086589Y-161970990D01*
X224356842Y-162082932D01*
X224643740Y-162140000D01*
X224936260Y-162140000D01*
X225223158Y-162082932D01*
X225493411Y-161970990D01*
X225736632Y-161808475D01*
X225943475Y-161601632D01*
X226060000Y-161427240D01*
X226176525Y-161601632D01*
X226383368Y-161808475D01*
X226626589Y-161970990D01*
X226896842Y-162082932D01*
X227183740Y-162140000D01*
X227476260Y-162140000D01*
X227763158Y-162082932D01*
X228033411Y-161970990D01*
X228276632Y-161808475D01*
X228483475Y-161601632D01*
X228600000Y-161427240D01*
X228716525Y-161601632D01*
X228923368Y-161808475D01*
X229166589Y-161970990D01*
X229436842Y-162082932D01*
X229723740Y-162140000D01*
X230016260Y-162140000D01*
X230303158Y-162082932D01*
X230573411Y-161970990D01*
X230816632Y-161808475D01*
X231023475Y-161601632D01*
X231145195Y-161419466D01*
X231214822Y-161536355D01*
X231409731Y-161752588D01*
X231643080Y-161926641D01*
X231905901Y-162051825D01*
X232053110Y-162096476D01*
X232283000Y-161975155D01*
X232283000Y-160782000D01*
X232263000Y-160782000D01*
X232263000Y-160528000D01*
X232283000Y-160528000D01*
X232283000Y-160508000D01*
X232537000Y-160508000D01*
X232537000Y-160528000D01*
X232557000Y-160528000D01*
X232557000Y-160782000D01*
X232537000Y-160782000D01*
X232537000Y-161975155D01*
X232766890Y-162096476D01*
X232914099Y-162051825D01*
X233176920Y-161926641D01*
X233410269Y-161752588D01*
X233605178Y-161536355D01*
X233674805Y-161419466D01*
X233796525Y-161601632D01*
X234003368Y-161808475D01*
X234246589Y-161970990D01*
X234516842Y-162082932D01*
X234803740Y-162140000D01*
X235096260Y-162140000D01*
X235383158Y-162082932D01*
X235653411Y-161970990D01*
X235896632Y-161808475D01*
X236103475Y-161601632D01*
X236225195Y-161419466D01*
X236294822Y-161536355D01*
X236489731Y-161752588D01*
X236723080Y-161926641D01*
X236985901Y-162051825D01*
X237133110Y-162096476D01*
X237363000Y-161975155D01*
X237363000Y-160782000D01*
X237617000Y-160782000D01*
X237617000Y-161975155D01*
X237846890Y-162096476D01*
X237994099Y-162051825D01*
X238256920Y-161926641D01*
X238490269Y-161752588D01*
X238685178Y-161536355D01*
X238834157Y-161286252D01*
X238931481Y-161011891D01*
X238810814Y-160782000D01*
X237617000Y-160782000D01*
X237363000Y-160782000D01*
X237343000Y-160782000D01*
X237343000Y-160528000D01*
X237363000Y-160528000D01*
X237363000Y-160508000D01*
X237617000Y-160508000D01*
X237617000Y-160528000D01*
X238810814Y-160528000D01*
X238931481Y-160298109D01*
X238834157Y-160023748D01*
X238685178Y-159773645D01*
X238490269Y-159557412D01*
X238260594Y-159386100D01*
X238436632Y-159268475D01*
X238643475Y-159061632D01*
X238805990Y-158818411D01*
X238917932Y-158548158D01*
X238975000Y-158261260D01*
X238975000Y-157968740D01*
X238917932Y-157681842D01*
X238805990Y-157411589D01*
X238643475Y-157168368D01*
X238436632Y-156961525D01*
X238250000Y-156836822D01*
X238250000Y-147992322D01*
X238253676Y-147954999D01*
X238250000Y-147917676D01*
X238250000Y-147917667D01*
X238239003Y-147806014D01*
X238195546Y-147662753D01*
X238155053Y-147586997D01*
X238124974Y-147530723D01*
X238053799Y-147443997D01*
X238030001Y-147414999D01*
X238001003Y-147391201D01*
X232581209Y-141971408D01*
X232625000Y-141751260D01*
X232625000Y-141458740D01*
X232567932Y-141171842D01*
X232455990Y-140901589D01*
X232293475Y-140658368D01*
X232086632Y-140451525D01*
X231843411Y-140289010D01*
X231573158Y-140177068D01*
X231286260Y-140120000D01*
X230993740Y-140120000D01*
X230706842Y-140177068D01*
X230436589Y-140289010D01*
X230193368Y-140451525D01*
X229986525Y-140658368D01*
X229864805Y-140840534D01*
X229795178Y-140723645D01*
X229600269Y-140507412D01*
X229366920Y-140333359D01*
X229104099Y-140208175D01*
X228956890Y-140163524D01*
X228727000Y-140284845D01*
X228727000Y-141478000D01*
X228747000Y-141478000D01*
X228747000Y-141732000D01*
X228727000Y-141732000D01*
X228727000Y-141752000D01*
X228473000Y-141752000D01*
X228473000Y-141732000D01*
X228453000Y-141732000D01*
X228453000Y-141478000D01*
X228473000Y-141478000D01*
X228473000Y-140284845D01*
X228243110Y-140163524D01*
X228095901Y-140208175D01*
X227833080Y-140333359D01*
X227599731Y-140507412D01*
X227404822Y-140723645D01*
X227335195Y-140840534D01*
X227213475Y-140658368D01*
X227006632Y-140451525D01*
X226763411Y-140289010D01*
X226493158Y-140177068D01*
X226206260Y-140120000D01*
X225913740Y-140120000D01*
X225626842Y-140177068D01*
X225356589Y-140289010D01*
X225113368Y-140451525D01*
X224906525Y-140658368D01*
X224784805Y-140840534D01*
X224715178Y-140723645D01*
X224520269Y-140507412D01*
X224286920Y-140333359D01*
X224024099Y-140208175D01*
X223876890Y-140163524D01*
X223647000Y-140284845D01*
X223647000Y-141478000D01*
X223667000Y-141478000D01*
X223667000Y-141732000D01*
X223647000Y-141732000D01*
X223647000Y-141752000D01*
X223393000Y-141752000D01*
X223393000Y-141732000D01*
X223373000Y-141732000D01*
X223373000Y-141478000D01*
X223393000Y-141478000D01*
X223393000Y-140284845D01*
X223163110Y-140163524D01*
X223015901Y-140208175D01*
X222753080Y-140333359D01*
X222519731Y-140507412D01*
X222324822Y-140723645D01*
X222255195Y-140840534D01*
X222133475Y-140658368D01*
X221926632Y-140451525D01*
X221683411Y-140289010D01*
X221413158Y-140177068D01*
X221126260Y-140120000D01*
X220833740Y-140120000D01*
X220546842Y-140177068D01*
X220276589Y-140289010D01*
X220033368Y-140451525D01*
X219826525Y-140658368D01*
X219710000Y-140832760D01*
X219593475Y-140658368D01*
X219386632Y-140451525D01*
X219143411Y-140289010D01*
X218873158Y-140177068D01*
X218586260Y-140120000D01*
X218293740Y-140120000D01*
X218006842Y-140177068D01*
X217736589Y-140289010D01*
X217493368Y-140451525D01*
X217286525Y-140658368D01*
X217170000Y-140832760D01*
X217053475Y-140658368D01*
X216846632Y-140451525D01*
X216603411Y-140289010D01*
X216333158Y-140177068D01*
X216046260Y-140120000D01*
X215753740Y-140120000D01*
X215466842Y-140177068D01*
X215196589Y-140289010D01*
X214953368Y-140451525D01*
X214746525Y-140658368D01*
X214584010Y-140901589D01*
X214472068Y-141171842D01*
X214415000Y-141458740D01*
X214415000Y-141751260D01*
X214472068Y-142038158D01*
X214584010Y-142308411D01*
X214746525Y-142551632D01*
X214878380Y-142683487D01*
X214805820Y-142705498D01*
X214695506Y-142764463D01*
X214598815Y-142843815D01*
X214519463Y-142940506D01*
X214460498Y-143050820D01*
X214424188Y-143170518D01*
X214411928Y-143295000D01*
X212314803Y-143295000D01*
X210991210Y-141971408D01*
X211035000Y-141751260D01*
X211035000Y-141458740D01*
X210977932Y-141171842D01*
X210865990Y-140901589D01*
X210703475Y-140658368D01*
X210496632Y-140451525D01*
X210253411Y-140289010D01*
X209983158Y-140177068D01*
X209696260Y-140120000D01*
X209403740Y-140120000D01*
X209116842Y-140177068D01*
X208846589Y-140289010D01*
X208603368Y-140451525D01*
X208396525Y-140658368D01*
X208274805Y-140840534D01*
X208205178Y-140723645D01*
X208010269Y-140507412D01*
X207776920Y-140333359D01*
X207514099Y-140208175D01*
X207366890Y-140163524D01*
X207137000Y-140284845D01*
X207137000Y-141478000D01*
X207157000Y-141478000D01*
X207157000Y-141732000D01*
X207137000Y-141732000D01*
X207137000Y-141752000D01*
X206883000Y-141752000D01*
X206883000Y-141732000D01*
X206863000Y-141732000D01*
X206863000Y-141478000D01*
X206883000Y-141478000D01*
X206883000Y-140284845D01*
X206653110Y-140163524D01*
X206505901Y-140208175D01*
X206243080Y-140333359D01*
X206009731Y-140507412D01*
X205814822Y-140723645D01*
X205745195Y-140840534D01*
X205623475Y-140658368D01*
X205416632Y-140451525D01*
X205173411Y-140289010D01*
X204903158Y-140177068D01*
X204616260Y-140120000D01*
X204323740Y-140120000D01*
X204036842Y-140177068D01*
X203766589Y-140289010D01*
X203523368Y-140451525D01*
X203316525Y-140658368D01*
X203194805Y-140840534D01*
X203125178Y-140723645D01*
X202930269Y-140507412D01*
X202696920Y-140333359D01*
X202434099Y-140208175D01*
X202286890Y-140163524D01*
X202057000Y-140284845D01*
X202057000Y-141478000D01*
X202077000Y-141478000D01*
X202077000Y-141732000D01*
X202057000Y-141732000D01*
X202057000Y-141752000D01*
X201803000Y-141752000D01*
X201803000Y-141732000D01*
X201783000Y-141732000D01*
X201783000Y-141478000D01*
X201803000Y-141478000D01*
X201803000Y-140284845D01*
X201573110Y-140163524D01*
X201425901Y-140208175D01*
X201163080Y-140333359D01*
X200929731Y-140507412D01*
X200734822Y-140723645D01*
X200665195Y-140840534D01*
X200543475Y-140658368D01*
X200336632Y-140451525D01*
X200093411Y-140289010D01*
X199823158Y-140177068D01*
X199536260Y-140120000D01*
X199243740Y-140120000D01*
X198956842Y-140177068D01*
X198686589Y-140289010D01*
X198443368Y-140451525D01*
X198236525Y-140658368D01*
X198120000Y-140832760D01*
X198003475Y-140658368D01*
X197796632Y-140451525D01*
X197553411Y-140289010D01*
X197283158Y-140177068D01*
X196996260Y-140120000D01*
X196703740Y-140120000D01*
X196416842Y-140177068D01*
X196146589Y-140289010D01*
X195903368Y-140451525D01*
X195696525Y-140658368D01*
X195580000Y-140832760D01*
X195463475Y-140658368D01*
X195256632Y-140451525D01*
X195013411Y-140289010D01*
X194743158Y-140177068D01*
X194456260Y-140120000D01*
X194163740Y-140120000D01*
X193876842Y-140177068D01*
X193606589Y-140289010D01*
X193363368Y-140451525D01*
X193156525Y-140658368D01*
X192994010Y-140901589D01*
X192882068Y-141171842D01*
X192825000Y-141458740D01*
X192825000Y-141751260D01*
X192882068Y-142038158D01*
X192994010Y-142308411D01*
X193156525Y-142551632D01*
X193288380Y-142683487D01*
X193215820Y-142705498D01*
X193105506Y-142764463D01*
X193008815Y-142843815D01*
X192929463Y-142940506D01*
X192870498Y-143050820D01*
X192834188Y-143170518D01*
X192821928Y-143295000D01*
X189173856Y-143295000D01*
X189155178Y-143263645D01*
X188960269Y-143047412D01*
X188730594Y-142876100D01*
X188906632Y-142758475D01*
X189113475Y-142551632D01*
X189275990Y-142308411D01*
X189387932Y-142038158D01*
X189445000Y-141751260D01*
X189445000Y-141458740D01*
X189387932Y-141171842D01*
X189275990Y-140901589D01*
X189113475Y-140658368D01*
X188906632Y-140451525D01*
X188663411Y-140289010D01*
X188393158Y-140177068D01*
X188106260Y-140120000D01*
X187813740Y-140120000D01*
X187526842Y-140177068D01*
X187256589Y-140289010D01*
X187013368Y-140451525D01*
X186806525Y-140658368D01*
X186684805Y-140840534D01*
X186615178Y-140723645D01*
X186420269Y-140507412D01*
X186186920Y-140333359D01*
X185924099Y-140208175D01*
X185776890Y-140163524D01*
X185547000Y-140284845D01*
X185547000Y-141478000D01*
X185567000Y-141478000D01*
X185567000Y-141732000D01*
X185547000Y-141732000D01*
X185547000Y-141752000D01*
X185293000Y-141752000D01*
X185293000Y-141732000D01*
X185273000Y-141732000D01*
X185273000Y-141478000D01*
X185293000Y-141478000D01*
X185293000Y-140284845D01*
X185063110Y-140163524D01*
X184915901Y-140208175D01*
X184653080Y-140333359D01*
X184419731Y-140507412D01*
X184224822Y-140723645D01*
X184155195Y-140840534D01*
X184033475Y-140658368D01*
X183826632Y-140451525D01*
X183583411Y-140289010D01*
X183313158Y-140177068D01*
X183026260Y-140120000D01*
X182733740Y-140120000D01*
X182446842Y-140177068D01*
X182176589Y-140289010D01*
X181933368Y-140451525D01*
X181726525Y-140658368D01*
X181604805Y-140840534D01*
X181535178Y-140723645D01*
X181340269Y-140507412D01*
X181106920Y-140333359D01*
X180844099Y-140208175D01*
X180696890Y-140163524D01*
X180467000Y-140284845D01*
X180467000Y-141478000D01*
X180487000Y-141478000D01*
X180487000Y-141732000D01*
X180467000Y-141732000D01*
X180467000Y-141752000D01*
X180213000Y-141752000D01*
X180213000Y-141732000D01*
X180193000Y-141732000D01*
X180193000Y-141478000D01*
X180213000Y-141478000D01*
X180213000Y-140284845D01*
X179983110Y-140163524D01*
X179835901Y-140208175D01*
X179573080Y-140333359D01*
X179339731Y-140507412D01*
X179144822Y-140723645D01*
X179075195Y-140840534D01*
X178953475Y-140658368D01*
X178746632Y-140451525D01*
X178503411Y-140289010D01*
X178233158Y-140177068D01*
X177946260Y-140120000D01*
X177653740Y-140120000D01*
X177366842Y-140177068D01*
X177096589Y-140289010D01*
X176853368Y-140451525D01*
X176646525Y-140658368D01*
X176530000Y-140832760D01*
X176413475Y-140658368D01*
X176206632Y-140451525D01*
X175963411Y-140289010D01*
X175693158Y-140177068D01*
X175406260Y-140120000D01*
X175113740Y-140120000D01*
X174826842Y-140177068D01*
X174556589Y-140289010D01*
X174313368Y-140451525D01*
X174106525Y-140658368D01*
X173990000Y-140832760D01*
X173873475Y-140658368D01*
X173666632Y-140451525D01*
X173423411Y-140289010D01*
X173153158Y-140177068D01*
X172866260Y-140120000D01*
X172573740Y-140120000D01*
X172286842Y-140177068D01*
X172016589Y-140289010D01*
X171773368Y-140451525D01*
X171566525Y-140658368D01*
X171404010Y-140901589D01*
X171292068Y-141171842D01*
X171235000Y-141458740D01*
X171235000Y-141751260D01*
X171292068Y-142038158D01*
X171404010Y-142308411D01*
X171566525Y-142551632D01*
X171698380Y-142683487D01*
X171625820Y-142705498D01*
X171515506Y-142764463D01*
X171418815Y-142843815D01*
X171339463Y-142940506D01*
X171280498Y-143050820D01*
X171244188Y-143170518D01*
X171231928Y-143295000D01*
X171231928Y-144995000D01*
X171244188Y-145119482D01*
X171280498Y-145239180D01*
X171339463Y-145349494D01*
X171418815Y-145446185D01*
X171515506Y-145525537D01*
X171625820Y-145584502D01*
X171745518Y-145620812D01*
X171870000Y-145633072D01*
X173230001Y-145633072D01*
X173230000Y-156836821D01*
X173043368Y-156961525D01*
X172836525Y-157168368D01*
X172720000Y-157342760D01*
X172603475Y-157168368D01*
X172396632Y-156961525D01*
X172153411Y-156799010D01*
X171883158Y-156687068D01*
X171596260Y-156630000D01*
X171303740Y-156630000D01*
X171016842Y-156687068D01*
X170746589Y-156799010D01*
X170503368Y-156961525D01*
X170296525Y-157168368D01*
X170134010Y-157411589D01*
X170022068Y-157681842D01*
X169965000Y-157968740D01*
X169965000Y-158261260D01*
X170022068Y-158548158D01*
X170134010Y-158818411D01*
X170296525Y-159061632D01*
X170428380Y-159193487D01*
X170355820Y-159215498D01*
X170245506Y-159274463D01*
X170148815Y-159353815D01*
X170069463Y-159450506D01*
X170010498Y-159560820D01*
X169974188Y-159680518D01*
X169961928Y-159805000D01*
X162503856Y-159805000D01*
X162485178Y-159773645D01*
X162290269Y-159557412D01*
X162060594Y-159386100D01*
X162236632Y-159268475D01*
X162443475Y-159061632D01*
X162605990Y-158818411D01*
X162717932Y-158548158D01*
X162775000Y-158261260D01*
X162775000Y-157968740D01*
X162717932Y-157681842D01*
X162605990Y-157411589D01*
X162443475Y-157168368D01*
X162236632Y-156961525D01*
X162050000Y-156836822D01*
X162050000Y-154492801D01*
X165611004Y-150931798D01*
X165640001Y-150908001D01*
X165734974Y-150792276D01*
X165805546Y-150660247D01*
X165849003Y-150516986D01*
X165860000Y-150405333D01*
X165860000Y-150405325D01*
X165863676Y-150368000D01*
X165860000Y-150330675D01*
X165860000Y-145539014D01*
X165865901Y-145541825D01*
X166013110Y-145586476D01*
X166243000Y-145465155D01*
X166243000Y-144272000D01*
X166497000Y-144272000D01*
X166497000Y-145465155D01*
X166726890Y-145586476D01*
X166874099Y-145541825D01*
X167136920Y-145416641D01*
X167370269Y-145242588D01*
X167565178Y-145026355D01*
X167714157Y-144776252D01*
X167811481Y-144501891D01*
X167690814Y-144272000D01*
X166497000Y-144272000D01*
X166243000Y-144272000D01*
X166223000Y-144272000D01*
X166223000Y-144018000D01*
X166243000Y-144018000D01*
X166243000Y-143998000D01*
X166497000Y-143998000D01*
X166497000Y-144018000D01*
X167690814Y-144018000D01*
X167811481Y-143788109D01*
X167714157Y-143513748D01*
X167565178Y-143263645D01*
X167370269Y-143047412D01*
X167140594Y-142876100D01*
X167316632Y-142758475D01*
X167523475Y-142551632D01*
X167685990Y-142308411D01*
X167797932Y-142038158D01*
X167855000Y-141751260D01*
X167855000Y-141458740D01*
X167797932Y-141171842D01*
X167685990Y-140901589D01*
X167523475Y-140658368D01*
X167316632Y-140451525D01*
X167073411Y-140289010D01*
X166803158Y-140177068D01*
X166516260Y-140120000D01*
X166223740Y-140120000D01*
X165936842Y-140177068D01*
X165666589Y-140289010D01*
X165423368Y-140451525D01*
X165216525Y-140658368D01*
X165094805Y-140840534D01*
X165025178Y-140723645D01*
X164830269Y-140507412D01*
X164596920Y-140333359D01*
X164334099Y-140208175D01*
X164186890Y-140163524D01*
X163957000Y-140284845D01*
X163957000Y-141478000D01*
X163977000Y-141478000D01*
X163977000Y-141732000D01*
X163957000Y-141732000D01*
X163957000Y-141752000D01*
X163703000Y-141752000D01*
X163703000Y-141732000D01*
X163683000Y-141732000D01*
X163683000Y-141478000D01*
X163703000Y-141478000D01*
X163703000Y-140284845D01*
X163473110Y-140163524D01*
X163325901Y-140208175D01*
X163063080Y-140333359D01*
X162829731Y-140507412D01*
X162634822Y-140723645D01*
X162565195Y-140840534D01*
X162443475Y-140658368D01*
X162236632Y-140451525D01*
X161993411Y-140289010D01*
X161723158Y-140177068D01*
X161436260Y-140120000D01*
X161143740Y-140120000D01*
X160856842Y-140177068D01*
X160586589Y-140289010D01*
X160343368Y-140451525D01*
X160136525Y-140658368D01*
X160014805Y-140840534D01*
X159945178Y-140723645D01*
X159750269Y-140507412D01*
X159516920Y-140333359D01*
X159254099Y-140208175D01*
X159106890Y-140163524D01*
X158877000Y-140284845D01*
X158877000Y-141478000D01*
X158897000Y-141478000D01*
X158897000Y-141732000D01*
X158877000Y-141732000D01*
X158877000Y-141752000D01*
X158623000Y-141752000D01*
X158623000Y-141732000D01*
X158603000Y-141732000D01*
X158603000Y-141478000D01*
X158623000Y-141478000D01*
X158623000Y-140284845D01*
X158393110Y-140163524D01*
X158245901Y-140208175D01*
X157983080Y-140333359D01*
X157749731Y-140507412D01*
X157554822Y-140723645D01*
X157485195Y-140840534D01*
X157363475Y-140658368D01*
X157156632Y-140451525D01*
X156913411Y-140289010D01*
X156643158Y-140177068D01*
X156356260Y-140120000D01*
X156063740Y-140120000D01*
X155776842Y-140177068D01*
X155506589Y-140289010D01*
X155263368Y-140451525D01*
X155056525Y-140658368D01*
X154940000Y-140832760D01*
X154823475Y-140658368D01*
X154616632Y-140451525D01*
X154373411Y-140289010D01*
X154103158Y-140177068D01*
X153816260Y-140120000D01*
X153523740Y-140120000D01*
X153236842Y-140177068D01*
X152966589Y-140289010D01*
X152723368Y-140451525D01*
X152516525Y-140658368D01*
X152400000Y-140832760D01*
X152283475Y-140658368D01*
X152076632Y-140451525D01*
X151833411Y-140289010D01*
X151563158Y-140177068D01*
X151276260Y-140120000D01*
X150983740Y-140120000D01*
X150696842Y-140177068D01*
X150426589Y-140289010D01*
X150183368Y-140451525D01*
X149976525Y-140658368D01*
X149814010Y-140901589D01*
X149702068Y-141171842D01*
X149645000Y-141458740D01*
X149645000Y-141751260D01*
X149702068Y-142038158D01*
X149814010Y-142308411D01*
X149976525Y-142551632D01*
X150108380Y-142683487D01*
X150035820Y-142705498D01*
X149925506Y-142764463D01*
X149828815Y-142843815D01*
X149749463Y-142940506D01*
X149690498Y-143050820D01*
X149654188Y-143170518D01*
X149641928Y-143295000D01*
X149641928Y-144995000D01*
X149654188Y-145119482D01*
X149690498Y-145239180D01*
X149749463Y-145349494D01*
X149828815Y-145446185D01*
X149925506Y-145525537D01*
X150035820Y-145584502D01*
X150155518Y-145620812D01*
X150280000Y-145633072D01*
X151640000Y-145633072D01*
X151640000Y-145735198D01*
X148078998Y-149296201D01*
X148050000Y-149319999D01*
X148026202Y-149348997D01*
X148026201Y-149348998D01*
X147955026Y-149435724D01*
X147884454Y-149567754D01*
X147840998Y-149711015D01*
X147826324Y-149860000D01*
X147830001Y-149897332D01*
X147830000Y-156836821D01*
X147643368Y-156961525D01*
X147436525Y-157168368D01*
X147320000Y-157342760D01*
X147203475Y-157168368D01*
X146996632Y-156961525D01*
X146753411Y-156799010D01*
X146483158Y-156687068D01*
X146196260Y-156630000D01*
X145903740Y-156630000D01*
X145616842Y-156687068D01*
X145346589Y-156799010D01*
X145103368Y-156961525D01*
X144896525Y-157168368D01*
X144734010Y-157411589D01*
X144622068Y-157681842D01*
X144565000Y-157968740D01*
X144565000Y-158261260D01*
X144622068Y-158548158D01*
X144734010Y-158818411D01*
X144896525Y-159061632D01*
X145028380Y-159193487D01*
X144955820Y-159215498D01*
X144845506Y-159274463D01*
X144748815Y-159353815D01*
X144669463Y-159450506D01*
X144610498Y-159560820D01*
X144574188Y-159680518D01*
X144561928Y-159805000D01*
X142900000Y-159805000D01*
X142900000Y-138328000D01*
X241910001Y-138328000D01*
X241910000Y-165132418D01*
G36*
X157596525Y-145091632D02*
G01*
X157803368Y-145298475D01*
X158046589Y-145460990D01*
X158316842Y-145572932D01*
X158603740Y-145630000D01*
X158896260Y-145630000D01*
X159183158Y-145572932D01*
X159260001Y-145541103D01*
X159260000Y-150307197D01*
X156968998Y-152598201D01*
X156940000Y-152621999D01*
X156916202Y-152650997D01*
X156916201Y-152650998D01*
X156845026Y-152737724D01*
X156774454Y-152869754D01*
X156745728Y-152964454D01*
X156735654Y-152997667D01*
X156730998Y-153013015D01*
X156716324Y-153162000D01*
X156720001Y-153199332D01*
X156720000Y-156530198D01*
X156576408Y-156673790D01*
X156356260Y-156630000D01*
X156063740Y-156630000D01*
X155776842Y-156687068D01*
X155506589Y-156799010D01*
X155263368Y-156961525D01*
X155056525Y-157168368D01*
X154934805Y-157350534D01*
X154865178Y-157233645D01*
X154670269Y-157017412D01*
X154436920Y-156843359D01*
X154174099Y-156718175D01*
X154026890Y-156673524D01*
X153797000Y-156794845D01*
X153797000Y-157988000D01*
X153817000Y-157988000D01*
X153817000Y-158242000D01*
X153797000Y-158242000D01*
X153797000Y-158262000D01*
X153543000Y-158262000D01*
X153543000Y-158242000D01*
X153523000Y-158242000D01*
X153523000Y-157988000D01*
X153543000Y-157988000D01*
X153543000Y-156794845D01*
X153313110Y-156673524D01*
X153165901Y-156718175D01*
X152903080Y-156843359D01*
X152669731Y-157017412D01*
X152474822Y-157233645D01*
X152405195Y-157350534D01*
X152283475Y-157168368D01*
X152076632Y-156961525D01*
X151890000Y-156836822D01*
X151890000Y-151952801D01*
X155451004Y-148391798D01*
X155480001Y-148368001D01*
X155574974Y-148252276D01*
X155645546Y-148120247D01*
X155689003Y-147976986D01*
X155700000Y-147865333D01*
X155700000Y-147865325D01*
X155703676Y-147828000D01*
X155700000Y-147790675D01*
X155700000Y-145541103D01*
X155776842Y-145572932D01*
X156063740Y-145630000D01*
X156356260Y-145630000D01*
X156643158Y-145572932D01*
X156913411Y-145460990D01*
X157156632Y-145298475D01*
X157363475Y-145091632D01*
X157480000Y-144917240D01*
X157596525Y-145091632D01*
G37*
X157596525Y-145091632D02*
X157803368Y-145298475D01*
X158046589Y-145460990D01*
X158316842Y-145572932D01*
X158603740Y-145630000D01*
X158896260Y-145630000D01*
X159183158Y-145572932D01*
X159260001Y-145541103D01*
X159260000Y-150307197D01*
X156968998Y-152598201D01*
X156940000Y-152621999D01*
X156916202Y-152650997D01*
X156916201Y-152650998D01*
X156845026Y-152737724D01*
X156774454Y-152869754D01*
X156745728Y-152964454D01*
X156735654Y-152997667D01*
X156730998Y-153013015D01*
X156716324Y-153162000D01*
X156720001Y-153199332D01*
X156720000Y-156530198D01*
X156576408Y-156673790D01*
X156356260Y-156630000D01*
X156063740Y-156630000D01*
X155776842Y-156687068D01*
X155506589Y-156799010D01*
X155263368Y-156961525D01*
X155056525Y-157168368D01*
X154934805Y-157350534D01*
X154865178Y-157233645D01*
X154670269Y-157017412D01*
X154436920Y-156843359D01*
X154174099Y-156718175D01*
X154026890Y-156673524D01*
X153797000Y-156794845D01*
X153797000Y-157988000D01*
X153817000Y-157988000D01*
X153817000Y-158242000D01*
X153797000Y-158242000D01*
X153797000Y-158262000D01*
X153543000Y-158262000D01*
X153543000Y-158242000D01*
X153523000Y-158242000D01*
X153523000Y-157988000D01*
X153543000Y-157988000D01*
X153543000Y-156794845D01*
X153313110Y-156673524D01*
X153165901Y-156718175D01*
X152903080Y-156843359D01*
X152669731Y-157017412D01*
X152474822Y-157233645D01*
X152405195Y-157350534D01*
X152283475Y-157168368D01*
X152076632Y-156961525D01*
X151890000Y-156836822D01*
X151890000Y-151952801D01*
X155451004Y-148391798D01*
X155480001Y-148368001D01*
X155574974Y-148252276D01*
X155645546Y-148120247D01*
X155689003Y-147976986D01*
X155700000Y-147865333D01*
X155700000Y-147865325D01*
X155703676Y-147828000D01*
X155700000Y-147790675D01*
X155700000Y-145541103D01*
X155776842Y-145572932D01*
X156063740Y-145630000D01*
X156356260Y-145630000D01*
X156643158Y-145572932D01*
X156913411Y-145460990D01*
X157156632Y-145298475D01*
X157363475Y-145091632D01*
X157480000Y-144917240D01*
X157596525Y-145091632D01*
G36*
X161417000Y-144018000D02*
G01*
X161437000Y-144018000D01*
X161437000Y-144272000D01*
X161417000Y-144272000D01*
X161417000Y-145465155D01*
X161646890Y-145586476D01*
X161794099Y-145541825D01*
X162056920Y-145416641D01*
X162290269Y-145242588D01*
X162485178Y-145026355D01*
X162554805Y-144909466D01*
X162676525Y-145091632D01*
X162883368Y-145298475D01*
X163126589Y-145460990D01*
X163396842Y-145572932D01*
X163683740Y-145630000D01*
X163976260Y-145630000D01*
X164263158Y-145572932D01*
X164340001Y-145541103D01*
X164340000Y-150053198D01*
X160778998Y-153614201D01*
X160750000Y-153637999D01*
X160726202Y-153666997D01*
X160726201Y-153666998D01*
X160655026Y-153753724D01*
X160584454Y-153885754D01*
X160540998Y-154029015D01*
X160526324Y-154178000D01*
X160530001Y-154215332D01*
X160530000Y-156836821D01*
X160343368Y-156961525D01*
X160136525Y-157168368D01*
X160014805Y-157350534D01*
X159945178Y-157233645D01*
X159750269Y-157017412D01*
X159516920Y-156843359D01*
X159254099Y-156718175D01*
X159106890Y-156673524D01*
X158877000Y-156794845D01*
X158877000Y-157988000D01*
X158897000Y-157988000D01*
X158897000Y-158242000D01*
X158877000Y-158242000D01*
X158877000Y-158262000D01*
X158623000Y-158262000D01*
X158623000Y-158242000D01*
X158603000Y-158242000D01*
X158603000Y-157988000D01*
X158623000Y-157988000D01*
X158623000Y-156794845D01*
X158393110Y-156673524D01*
X158245901Y-156718175D01*
X158240000Y-156720986D01*
X158240000Y-153476801D01*
X160531009Y-151185794D01*
X160560001Y-151162001D01*
X160583795Y-151133008D01*
X160583799Y-151133004D01*
X160654973Y-151046277D01*
X160654974Y-151046276D01*
X160725546Y-150914247D01*
X160769003Y-150770986D01*
X160780000Y-150659333D01*
X160780000Y-150659324D01*
X160783676Y-150622001D01*
X160780000Y-150584678D01*
X160780000Y-145539014D01*
X160785901Y-145541825D01*
X160933110Y-145586476D01*
X161163000Y-145465155D01*
X161163000Y-144272000D01*
X161143000Y-144272000D01*
X161143000Y-144018000D01*
X161163000Y-144018000D01*
X161163000Y-143998000D01*
X161417000Y-143998000D01*
X161417000Y-144018000D01*
G37*
X161417000Y-144018000D02*
X161437000Y-144018000D01*
X161437000Y-144272000D01*
X161417000Y-144272000D01*
X161417000Y-145465155D01*
X161646890Y-145586476D01*
X161794099Y-145541825D01*
X162056920Y-145416641D01*
X162290269Y-145242588D01*
X162485178Y-145026355D01*
X162554805Y-144909466D01*
X162676525Y-145091632D01*
X162883368Y-145298475D01*
X163126589Y-145460990D01*
X163396842Y-145572932D01*
X163683740Y-145630000D01*
X163976260Y-145630000D01*
X164263158Y-145572932D01*
X164340001Y-145541103D01*
X164340000Y-150053198D01*
X160778998Y-153614201D01*
X160750000Y-153637999D01*
X160726202Y-153666997D01*
X160726201Y-153666998D01*
X160655026Y-153753724D01*
X160584454Y-153885754D01*
X160540998Y-154029015D01*
X160526324Y-154178000D01*
X160530001Y-154215332D01*
X160530000Y-156836821D01*
X160343368Y-156961525D01*
X160136525Y-157168368D01*
X160014805Y-157350534D01*
X159945178Y-157233645D01*
X159750269Y-157017412D01*
X159516920Y-156843359D01*
X159254099Y-156718175D01*
X159106890Y-156673524D01*
X158877000Y-156794845D01*
X158877000Y-157988000D01*
X158897000Y-157988000D01*
X158897000Y-158242000D01*
X158877000Y-158242000D01*
X158877000Y-158262000D01*
X158623000Y-158262000D01*
X158623000Y-158242000D01*
X158603000Y-158242000D01*
X158603000Y-157988000D01*
X158623000Y-157988000D01*
X158623000Y-156794845D01*
X158393110Y-156673524D01*
X158245901Y-156718175D01*
X158240000Y-156720986D01*
X158240000Y-153476801D01*
X160531009Y-151185794D01*
X160560001Y-151162001D01*
X160583795Y-151133008D01*
X160583799Y-151133004D01*
X160654973Y-151046277D01*
X160654974Y-151046276D01*
X160725546Y-150914247D01*
X160769003Y-150770986D01*
X160780000Y-150659333D01*
X160780000Y-150659324D01*
X160783676Y-150622001D01*
X160780000Y-150584678D01*
X160780000Y-145539014D01*
X160785901Y-145541825D01*
X160933110Y-145586476D01*
X161163000Y-145465155D01*
X161163000Y-144272000D01*
X161143000Y-144272000D01*
X161143000Y-144018000D01*
X161163000Y-144018000D01*
X161163000Y-143998000D01*
X161417000Y-143998000D01*
X161417000Y-144018000D01*
G36*
X154180000Y-147513198D02*
G01*
X150618998Y-151074201D01*
X150590000Y-151097999D01*
X150566202Y-151126997D01*
X150566201Y-151126998D01*
X150495026Y-151213724D01*
X150424454Y-151345754D01*
X150380998Y-151489015D01*
X150366324Y-151638000D01*
X150370001Y-151675332D01*
X150370000Y-156836821D01*
X150183368Y-156961525D01*
X149976525Y-157168368D01*
X149860000Y-157342760D01*
X149743475Y-157168368D01*
X149536632Y-156961525D01*
X149350000Y-156836822D01*
X149350000Y-150174801D01*
X152911004Y-146613798D01*
X152940001Y-146590001D01*
X153034974Y-146474276D01*
X153105546Y-146342247D01*
X153149003Y-146198986D01*
X153160000Y-146087333D01*
X153160000Y-146087325D01*
X153163676Y-146050000D01*
X153160000Y-146012675D01*
X153160000Y-145541103D01*
X153236842Y-145572932D01*
X153523740Y-145630000D01*
X153816260Y-145630000D01*
X154103158Y-145572932D01*
X154180000Y-145541103D01*
X154180000Y-147513198D01*
G37*
X154180000Y-147513198D02*
X150618998Y-151074201D01*
X150590000Y-151097999D01*
X150566202Y-151126997D01*
X150566201Y-151126998D01*
X150495026Y-151213724D01*
X150424454Y-151345754D01*
X150380998Y-151489015D01*
X150366324Y-151638000D01*
X150370001Y-151675332D01*
X150370000Y-156836821D01*
X150183368Y-156961525D01*
X149976525Y-157168368D01*
X149860000Y-157342760D01*
X149743475Y-157168368D01*
X149536632Y-156961525D01*
X149350000Y-156836822D01*
X149350000Y-150174801D01*
X152911004Y-146613798D01*
X152940001Y-146590001D01*
X153034974Y-146474276D01*
X153105546Y-146342247D01*
X153149003Y-146198986D01*
X153160000Y-146087333D01*
X153160000Y-146087325D01*
X153163676Y-146050000D01*
X153160000Y-146012675D01*
X153160000Y-145541103D01*
X153236842Y-145572932D01*
X153523740Y-145630000D01*
X153816260Y-145630000D01*
X154103158Y-145572932D01*
X154180000Y-145541103D01*
X154180000Y-147513198D01*
G36*
X185930000Y-156836821D02*
G01*
X185743368Y-156961525D01*
X185536525Y-157168368D01*
X185414805Y-157350534D01*
X185345178Y-157233645D01*
X185150269Y-157017412D01*
X184916920Y-156843359D01*
X184654099Y-156718175D01*
X184506890Y-156673524D01*
X184277000Y-156794845D01*
X184277000Y-157988000D01*
X184297000Y-157988000D01*
X184297000Y-158242000D01*
X184277000Y-158242000D01*
X184277000Y-158262000D01*
X184023000Y-158262000D01*
X184023000Y-158242000D01*
X184003000Y-158242000D01*
X184003000Y-157988000D01*
X184023000Y-157988000D01*
X184023000Y-156794845D01*
X183928060Y-156744742D01*
X184661009Y-156011794D01*
X184690001Y-155988001D01*
X184713795Y-155959008D01*
X184713799Y-155959004D01*
X184784973Y-155872277D01*
X184784974Y-155872276D01*
X184855546Y-155740247D01*
X184899003Y-155596986D01*
X184910000Y-155485333D01*
X184910000Y-155485324D01*
X184913676Y-155448001D01*
X184910000Y-155410678D01*
X184910000Y-145541103D01*
X184986842Y-145572932D01*
X185273740Y-145630000D01*
X185566260Y-145630000D01*
X185853158Y-145572932D01*
X185930001Y-145541103D01*
X185930000Y-156836821D01*
G37*
X185930000Y-156836821D02*
X185743368Y-156961525D01*
X185536525Y-157168368D01*
X185414805Y-157350534D01*
X185345178Y-157233645D01*
X185150269Y-157017412D01*
X184916920Y-156843359D01*
X184654099Y-156718175D01*
X184506890Y-156673524D01*
X184277000Y-156794845D01*
X184277000Y-157988000D01*
X184297000Y-157988000D01*
X184297000Y-158242000D01*
X184277000Y-158242000D01*
X184277000Y-158262000D01*
X184023000Y-158262000D01*
X184023000Y-158242000D01*
X184003000Y-158242000D01*
X184003000Y-157988000D01*
X184023000Y-157988000D01*
X184023000Y-156794845D01*
X183928060Y-156744742D01*
X184661009Y-156011794D01*
X184690001Y-155988001D01*
X184713795Y-155959008D01*
X184713799Y-155959004D01*
X184784973Y-155872277D01*
X184784974Y-155872276D01*
X184855546Y-155740247D01*
X184899003Y-155596986D01*
X184910000Y-155485333D01*
X184910000Y-155485324D01*
X184913676Y-155448001D01*
X184910000Y-155410678D01*
X184910000Y-145541103D01*
X184986842Y-145572932D01*
X185273740Y-145630000D01*
X185566260Y-145630000D01*
X185853158Y-145572932D01*
X185930001Y-145541103D01*
X185930000Y-156836821D01*
G36*
X183007000Y-144018000D02*
G01*
X183027000Y-144018000D01*
X183027000Y-144272000D01*
X183007000Y-144272000D01*
X183007000Y-145465155D01*
X183236890Y-145586476D01*
X183384099Y-145541825D01*
X183390001Y-145539014D01*
X183390000Y-155133197D01*
X181870479Y-156652720D01*
X181756260Y-156630000D01*
X181463740Y-156630000D01*
X181176842Y-156687068D01*
X180906589Y-156799010D01*
X180663368Y-156961525D01*
X180456525Y-157168368D01*
X180334805Y-157350534D01*
X180265178Y-157233645D01*
X180070269Y-157017412D01*
X179836920Y-156843359D01*
X179574099Y-156718175D01*
X179426890Y-156673524D01*
X179197000Y-156794845D01*
X179197000Y-157988000D01*
X179217000Y-157988000D01*
X179217000Y-158242000D01*
X179197000Y-158242000D01*
X179197000Y-158262000D01*
X178943000Y-158262000D01*
X178943000Y-158242000D01*
X178923000Y-158242000D01*
X178923000Y-157988000D01*
X178943000Y-157988000D01*
X178943000Y-156794845D01*
X178713110Y-156673524D01*
X178565901Y-156718175D01*
X178303080Y-156843359D01*
X178069731Y-157017412D01*
X177874822Y-157233645D01*
X177805195Y-157350534D01*
X177683475Y-157168368D01*
X177476632Y-156961525D01*
X177290000Y-156836822D01*
X177290000Y-145541103D01*
X177366842Y-145572932D01*
X177653740Y-145630000D01*
X177946260Y-145630000D01*
X178233158Y-145572932D01*
X178503411Y-145460990D01*
X178746632Y-145298475D01*
X178953475Y-145091632D01*
X179070000Y-144917240D01*
X179186525Y-145091632D01*
X179393368Y-145298475D01*
X179636589Y-145460990D01*
X179906842Y-145572932D01*
X180193740Y-145630000D01*
X180486260Y-145630000D01*
X180773158Y-145572932D01*
X181043411Y-145460990D01*
X181286632Y-145298475D01*
X181493475Y-145091632D01*
X181615195Y-144909466D01*
X181684822Y-145026355D01*
X181879731Y-145242588D01*
X182113080Y-145416641D01*
X182375901Y-145541825D01*
X182523110Y-145586476D01*
X182753000Y-145465155D01*
X182753000Y-144272000D01*
X182733000Y-144272000D01*
X182733000Y-144018000D01*
X182753000Y-144018000D01*
X182753000Y-143998000D01*
X183007000Y-143998000D01*
X183007000Y-144018000D01*
G37*
X183007000Y-144018000D02*
X183027000Y-144018000D01*
X183027000Y-144272000D01*
X183007000Y-144272000D01*
X183007000Y-145465155D01*
X183236890Y-145586476D01*
X183384099Y-145541825D01*
X183390001Y-145539014D01*
X183390000Y-155133197D01*
X181870479Y-156652720D01*
X181756260Y-156630000D01*
X181463740Y-156630000D01*
X181176842Y-156687068D01*
X180906589Y-156799010D01*
X180663368Y-156961525D01*
X180456525Y-157168368D01*
X180334805Y-157350534D01*
X180265178Y-157233645D01*
X180070269Y-157017412D01*
X179836920Y-156843359D01*
X179574099Y-156718175D01*
X179426890Y-156673524D01*
X179197000Y-156794845D01*
X179197000Y-157988000D01*
X179217000Y-157988000D01*
X179217000Y-158242000D01*
X179197000Y-158242000D01*
X179197000Y-158262000D01*
X178943000Y-158262000D01*
X178943000Y-158242000D01*
X178923000Y-158242000D01*
X178923000Y-157988000D01*
X178943000Y-157988000D01*
X178943000Y-156794845D01*
X178713110Y-156673524D01*
X178565901Y-156718175D01*
X178303080Y-156843359D01*
X178069731Y-157017412D01*
X177874822Y-157233645D01*
X177805195Y-157350534D01*
X177683475Y-157168368D01*
X177476632Y-156961525D01*
X177290000Y-156836822D01*
X177290000Y-145541103D01*
X177366842Y-145572932D01*
X177653740Y-145630000D01*
X177946260Y-145630000D01*
X178233158Y-145572932D01*
X178503411Y-145460990D01*
X178746632Y-145298475D01*
X178953475Y-145091632D01*
X179070000Y-144917240D01*
X179186525Y-145091632D01*
X179393368Y-145298475D01*
X179636589Y-145460990D01*
X179906842Y-145572932D01*
X180193740Y-145630000D01*
X180486260Y-145630000D01*
X180773158Y-145572932D01*
X181043411Y-145460990D01*
X181286632Y-145298475D01*
X181493475Y-145091632D01*
X181615195Y-144909466D01*
X181684822Y-145026355D01*
X181879731Y-145242588D01*
X182113080Y-145416641D01*
X182375901Y-145541825D01*
X182523110Y-145586476D01*
X182753000Y-145465155D01*
X182753000Y-144272000D01*
X182733000Y-144272000D01*
X182733000Y-144018000D01*
X182753000Y-144018000D01*
X182753000Y-143998000D01*
X183007000Y-143998000D01*
X183007000Y-144018000D01*
G36*
X204597000Y-144018000D02*
G01*
X204617000Y-144018000D01*
X204617000Y-144272000D01*
X204597000Y-144272000D01*
X204597000Y-145465155D01*
X204826890Y-145586476D01*
X204974099Y-145541825D01*
X204980000Y-145539014D01*
X204980000Y-147028677D01*
X204976324Y-147066000D01*
X204980000Y-147103322D01*
X204980000Y-147103332D01*
X204990997Y-147214985D01*
X205034454Y-147358246D01*
X205105026Y-147490276D01*
X205138221Y-147530724D01*
X205199999Y-147606001D01*
X205229003Y-147629804D01*
X206250001Y-148650803D01*
X206250000Y-156836821D01*
X206063368Y-156961525D01*
X205856525Y-157168368D01*
X205734805Y-157350534D01*
X205665178Y-157233645D01*
X205470269Y-157017412D01*
X205236920Y-156843359D01*
X204974099Y-156718175D01*
X204826890Y-156673524D01*
X204597000Y-156794845D01*
X204597000Y-157988000D01*
X204617000Y-157988000D01*
X204617000Y-158242000D01*
X204597000Y-158242000D01*
X204597000Y-158262000D01*
X204343000Y-158262000D01*
X204343000Y-158242000D01*
X204323000Y-158242000D01*
X204323000Y-157988000D01*
X204343000Y-157988000D01*
X204343000Y-156794845D01*
X204113110Y-156673524D01*
X203965901Y-156718175D01*
X203960000Y-156720986D01*
X203960000Y-148881322D01*
X203963676Y-148843999D01*
X203960000Y-148806676D01*
X203960000Y-148806667D01*
X203949003Y-148695014D01*
X203905546Y-148551753D01*
X203834974Y-148419724D01*
X203801779Y-148379276D01*
X203763799Y-148332996D01*
X203763795Y-148332992D01*
X203740001Y-148303999D01*
X203711008Y-148280205D01*
X201420000Y-145989199D01*
X201420000Y-145541103D01*
X201496842Y-145572932D01*
X201783740Y-145630000D01*
X202076260Y-145630000D01*
X202363158Y-145572932D01*
X202633411Y-145460990D01*
X202876632Y-145298475D01*
X203083475Y-145091632D01*
X203205195Y-144909466D01*
X203274822Y-145026355D01*
X203469731Y-145242588D01*
X203703080Y-145416641D01*
X203965901Y-145541825D01*
X204113110Y-145586476D01*
X204343000Y-145465155D01*
X204343000Y-144272000D01*
X204323000Y-144272000D01*
X204323000Y-144018000D01*
X204343000Y-144018000D01*
X204343000Y-143998000D01*
X204597000Y-143998000D01*
X204597000Y-144018000D01*
G37*
X204597000Y-144018000D02*
X204617000Y-144018000D01*
X204617000Y-144272000D01*
X204597000Y-144272000D01*
X204597000Y-145465155D01*
X204826890Y-145586476D01*
X204974099Y-145541825D01*
X204980000Y-145539014D01*
X204980000Y-147028677D01*
X204976324Y-147066000D01*
X204980000Y-147103322D01*
X204980000Y-147103332D01*
X204990997Y-147214985D01*
X205034454Y-147358246D01*
X205105026Y-147490276D01*
X205138221Y-147530724D01*
X205199999Y-147606001D01*
X205229003Y-147629804D01*
X206250001Y-148650803D01*
X206250000Y-156836821D01*
X206063368Y-156961525D01*
X205856525Y-157168368D01*
X205734805Y-157350534D01*
X205665178Y-157233645D01*
X205470269Y-157017412D01*
X205236920Y-156843359D01*
X204974099Y-156718175D01*
X204826890Y-156673524D01*
X204597000Y-156794845D01*
X204597000Y-157988000D01*
X204617000Y-157988000D01*
X204617000Y-158242000D01*
X204597000Y-158242000D01*
X204597000Y-158262000D01*
X204343000Y-158262000D01*
X204343000Y-158242000D01*
X204323000Y-158242000D01*
X204323000Y-157988000D01*
X204343000Y-157988000D01*
X204343000Y-156794845D01*
X204113110Y-156673524D01*
X203965901Y-156718175D01*
X203960000Y-156720986D01*
X203960000Y-148881322D01*
X203963676Y-148843999D01*
X203960000Y-148806676D01*
X203960000Y-148806667D01*
X203949003Y-148695014D01*
X203905546Y-148551753D01*
X203834974Y-148419724D01*
X203801779Y-148379276D01*
X203763799Y-148332996D01*
X203763795Y-148332992D01*
X203740001Y-148303999D01*
X203711008Y-148280205D01*
X201420000Y-145989199D01*
X201420000Y-145541103D01*
X201496842Y-145572932D01*
X201783740Y-145630000D01*
X202076260Y-145630000D01*
X202363158Y-145572932D01*
X202633411Y-145460990D01*
X202876632Y-145298475D01*
X203083475Y-145091632D01*
X203205195Y-144909466D01*
X203274822Y-145026355D01*
X203469731Y-145242588D01*
X203703080Y-145416641D01*
X203965901Y-145541825D01*
X204113110Y-145586476D01*
X204343000Y-145465155D01*
X204343000Y-144272000D01*
X204323000Y-144272000D01*
X204323000Y-144018000D01*
X204343000Y-144018000D01*
X204343000Y-143998000D01*
X204597000Y-143998000D01*
X204597000Y-144018000D01*
G36*
X209677000Y-144018000D02*
G01*
X209697000Y-144018000D01*
X209697000Y-144272000D01*
X209677000Y-144272000D01*
X209677000Y-145465155D01*
X209906890Y-145586476D01*
X210054099Y-145541825D01*
X210316920Y-145416641D01*
X210550269Y-145242588D01*
X210745178Y-145026355D01*
X210894157Y-144776252D01*
X210991481Y-144501891D01*
X210870815Y-144272002D01*
X211035000Y-144272002D01*
X211035000Y-144164802D01*
X211330001Y-144459804D01*
X211330000Y-156836821D01*
X211143368Y-156961525D01*
X210936525Y-157168368D01*
X210814805Y-157350534D01*
X210745178Y-157233645D01*
X210550269Y-157017412D01*
X210316920Y-156843359D01*
X210054099Y-156718175D01*
X209906890Y-156673524D01*
X209677000Y-156794845D01*
X209677000Y-157988000D01*
X209697000Y-157988000D01*
X209697000Y-158242000D01*
X209677000Y-158242000D01*
X209677000Y-158262000D01*
X209423000Y-158262000D01*
X209423000Y-158242000D01*
X209403000Y-158242000D01*
X209403000Y-157988000D01*
X209423000Y-157988000D01*
X209423000Y-156794845D01*
X209193110Y-156673524D01*
X209045901Y-156718175D01*
X208783080Y-156843359D01*
X208549731Y-157017412D01*
X208354822Y-157233645D01*
X208285195Y-157350534D01*
X208163475Y-157168368D01*
X207956632Y-156961525D01*
X207770000Y-156836822D01*
X207770000Y-148373322D01*
X207773676Y-148335999D01*
X207770000Y-148298676D01*
X207770000Y-148298667D01*
X207759003Y-148187014D01*
X207715546Y-148043753D01*
X207644974Y-147911724D01*
X207550001Y-147795999D01*
X207521003Y-147772201D01*
X206500000Y-146751199D01*
X206500000Y-145541103D01*
X206576842Y-145572932D01*
X206863740Y-145630000D01*
X207156260Y-145630000D01*
X207443158Y-145572932D01*
X207713411Y-145460990D01*
X207956632Y-145298475D01*
X208163475Y-145091632D01*
X208285195Y-144909466D01*
X208354822Y-145026355D01*
X208549731Y-145242588D01*
X208783080Y-145416641D01*
X209045901Y-145541825D01*
X209193110Y-145586476D01*
X209423000Y-145465155D01*
X209423000Y-144272000D01*
X209403000Y-144272000D01*
X209403000Y-144018000D01*
X209423000Y-144018000D01*
X209423000Y-143998000D01*
X209677000Y-143998000D01*
X209677000Y-144018000D01*
G37*
X209677000Y-144018000D02*
X209697000Y-144018000D01*
X209697000Y-144272000D01*
X209677000Y-144272000D01*
X209677000Y-145465155D01*
X209906890Y-145586476D01*
X210054099Y-145541825D01*
X210316920Y-145416641D01*
X210550269Y-145242588D01*
X210745178Y-145026355D01*
X210894157Y-144776252D01*
X210991481Y-144501891D01*
X210870815Y-144272002D01*
X211035000Y-144272002D01*
X211035000Y-144164802D01*
X211330001Y-144459804D01*
X211330000Y-156836821D01*
X211143368Y-156961525D01*
X210936525Y-157168368D01*
X210814805Y-157350534D01*
X210745178Y-157233645D01*
X210550269Y-157017412D01*
X210316920Y-156843359D01*
X210054099Y-156718175D01*
X209906890Y-156673524D01*
X209677000Y-156794845D01*
X209677000Y-157988000D01*
X209697000Y-157988000D01*
X209697000Y-158242000D01*
X209677000Y-158242000D01*
X209677000Y-158262000D01*
X209423000Y-158262000D01*
X209423000Y-158242000D01*
X209403000Y-158242000D01*
X209403000Y-157988000D01*
X209423000Y-157988000D01*
X209423000Y-156794845D01*
X209193110Y-156673524D01*
X209045901Y-156718175D01*
X208783080Y-156843359D01*
X208549731Y-157017412D01*
X208354822Y-157233645D01*
X208285195Y-157350534D01*
X208163475Y-157168368D01*
X207956632Y-156961525D01*
X207770000Y-156836822D01*
X207770000Y-148373322D01*
X207773676Y-148335999D01*
X207770000Y-148298676D01*
X207770000Y-148298667D01*
X207759003Y-148187014D01*
X207715546Y-148043753D01*
X207644974Y-147911724D01*
X207550001Y-147795999D01*
X207521003Y-147772201D01*
X206500000Y-146751199D01*
X206500000Y-145541103D01*
X206576842Y-145572932D01*
X206863740Y-145630000D01*
X207156260Y-145630000D01*
X207443158Y-145572932D01*
X207713411Y-145460990D01*
X207956632Y-145298475D01*
X208163475Y-145091632D01*
X208285195Y-144909466D01*
X208354822Y-145026355D01*
X208549731Y-145242588D01*
X208783080Y-145416641D01*
X209045901Y-145541825D01*
X209193110Y-145586476D01*
X209423000Y-145465155D01*
X209423000Y-144272000D01*
X209403000Y-144272000D01*
X209403000Y-144018000D01*
X209423000Y-144018000D01*
X209423000Y-143998000D01*
X209677000Y-143998000D01*
X209677000Y-144018000D01*
G36*
X199900000Y-146266677D02*
G01*
X199896324Y-146304000D01*
X199900000Y-146341322D01*
X199900000Y-146341332D01*
X199910997Y-146452985D01*
X199946795Y-146570997D01*
X199954454Y-146596246D01*
X200025026Y-146728276D01*
X200062349Y-146773754D01*
X200119999Y-146844001D01*
X200149003Y-146867804D01*
X202440001Y-149158804D01*
X202440000Y-156530198D01*
X202296408Y-156673790D01*
X202076260Y-156630000D01*
X201783740Y-156630000D01*
X201496842Y-156687068D01*
X201226589Y-156799010D01*
X200983368Y-156961525D01*
X200776525Y-157168368D01*
X200660000Y-157342760D01*
X200543475Y-157168368D01*
X200336632Y-156961525D01*
X200150000Y-156836822D01*
X200150000Y-147357322D01*
X200153676Y-147319999D01*
X200150000Y-147282676D01*
X200150000Y-147282667D01*
X200139003Y-147171014D01*
X200095546Y-147027753D01*
X200024974Y-146895724D01*
X199930001Y-146779999D01*
X199901003Y-146756201D01*
X198880000Y-145735199D01*
X198880000Y-145541103D01*
X198956842Y-145572932D01*
X199243740Y-145630000D01*
X199536260Y-145630000D01*
X199823158Y-145572932D01*
X199900000Y-145541103D01*
X199900000Y-146266677D01*
G37*
X199900000Y-146266677D02*
X199896324Y-146304000D01*
X199900000Y-146341322D01*
X199900000Y-146341332D01*
X199910997Y-146452985D01*
X199946795Y-146570997D01*
X199954454Y-146596246D01*
X200025026Y-146728276D01*
X200062349Y-146773754D01*
X200119999Y-146844001D01*
X200149003Y-146867804D01*
X202440001Y-149158804D01*
X202440000Y-156530198D01*
X202296408Y-156673790D01*
X202076260Y-156630000D01*
X201783740Y-156630000D01*
X201496842Y-156687068D01*
X201226589Y-156799010D01*
X200983368Y-156961525D01*
X200776525Y-157168368D01*
X200660000Y-157342760D01*
X200543475Y-157168368D01*
X200336632Y-156961525D01*
X200150000Y-156836822D01*
X200150000Y-147357322D01*
X200153676Y-147319999D01*
X200150000Y-147282676D01*
X200150000Y-147282667D01*
X200139003Y-147171014D01*
X200095546Y-147027753D01*
X200024974Y-146895724D01*
X199930001Y-146779999D01*
X199901003Y-146756201D01*
X198880000Y-145735199D01*
X198880000Y-145541103D01*
X198956842Y-145572932D01*
X199243740Y-145630000D01*
X199536260Y-145630000D01*
X199823158Y-145572932D01*
X199900000Y-145541103D01*
X199900000Y-146266677D01*
G36*
X226187000Y-144018000D02*
G01*
X226207000Y-144018000D01*
X226207000Y-144272000D01*
X226187000Y-144272000D01*
X226187000Y-145465155D01*
X226416890Y-145586476D01*
X226564099Y-145541825D01*
X226570000Y-145539014D01*
X226570000Y-147917677D01*
X226566324Y-147955000D01*
X226570000Y-147992322D01*
X226570000Y-147992332D01*
X226580997Y-148103985D01*
X226624454Y-148247246D01*
X226695026Y-148379276D01*
X226728221Y-148419724D01*
X226789999Y-148495001D01*
X226819003Y-148518804D01*
X231650001Y-153349803D01*
X231650000Y-156836821D01*
X231463368Y-156961525D01*
X231256525Y-157168368D01*
X231134805Y-157350534D01*
X231065178Y-157233645D01*
X230870269Y-157017412D01*
X230636920Y-156843359D01*
X230374099Y-156718175D01*
X230226890Y-156673524D01*
X229997000Y-156794845D01*
X229997000Y-157988000D01*
X230017000Y-157988000D01*
X230017000Y-158242000D01*
X229997000Y-158242000D01*
X229997000Y-158262000D01*
X229743000Y-158262000D01*
X229743000Y-158242000D01*
X229723000Y-158242000D01*
X229723000Y-157988000D01*
X229743000Y-157988000D01*
X229743000Y-156794845D01*
X229513110Y-156673524D01*
X229365901Y-156718175D01*
X229103080Y-156843359D01*
X228869731Y-157017412D01*
X228674822Y-157233645D01*
X228605195Y-157350534D01*
X228483475Y-157168368D01*
X228276632Y-156961525D01*
X228090000Y-156836822D01*
X228090000Y-153707323D01*
X228093676Y-153670000D01*
X228090000Y-153632677D01*
X228090000Y-153632667D01*
X228079003Y-153521014D01*
X228035546Y-153377753D01*
X228008549Y-153327246D01*
X227964974Y-153245723D01*
X227893799Y-153158997D01*
X227870001Y-153129999D01*
X227841003Y-153106201D01*
X223010000Y-148275199D01*
X223010000Y-145541103D01*
X223086842Y-145572932D01*
X223373740Y-145630000D01*
X223666260Y-145630000D01*
X223953158Y-145572932D01*
X224223411Y-145460990D01*
X224466632Y-145298475D01*
X224673475Y-145091632D01*
X224795195Y-144909466D01*
X224864822Y-145026355D01*
X225059731Y-145242588D01*
X225293080Y-145416641D01*
X225555901Y-145541825D01*
X225703110Y-145586476D01*
X225933000Y-145465155D01*
X225933000Y-144272000D01*
X225913000Y-144272000D01*
X225913000Y-144018000D01*
X225933000Y-144018000D01*
X225933000Y-143998000D01*
X226187000Y-143998000D01*
X226187000Y-144018000D01*
G37*
X226187000Y-144018000D02*
X226207000Y-144018000D01*
X226207000Y-144272000D01*
X226187000Y-144272000D01*
X226187000Y-145465155D01*
X226416890Y-145586476D01*
X226564099Y-145541825D01*
X226570000Y-145539014D01*
X226570000Y-147917677D01*
X226566324Y-147955000D01*
X226570000Y-147992322D01*
X226570000Y-147992332D01*
X226580997Y-148103985D01*
X226624454Y-148247246D01*
X226695026Y-148379276D01*
X226728221Y-148419724D01*
X226789999Y-148495001D01*
X226819003Y-148518804D01*
X231650001Y-153349803D01*
X231650000Y-156836821D01*
X231463368Y-156961525D01*
X231256525Y-157168368D01*
X231134805Y-157350534D01*
X231065178Y-157233645D01*
X230870269Y-157017412D01*
X230636920Y-156843359D01*
X230374099Y-156718175D01*
X230226890Y-156673524D01*
X229997000Y-156794845D01*
X229997000Y-157988000D01*
X230017000Y-157988000D01*
X230017000Y-158242000D01*
X229997000Y-158242000D01*
X229997000Y-158262000D01*
X229743000Y-158262000D01*
X229743000Y-158242000D01*
X229723000Y-158242000D01*
X229723000Y-157988000D01*
X229743000Y-157988000D01*
X229743000Y-156794845D01*
X229513110Y-156673524D01*
X229365901Y-156718175D01*
X229103080Y-156843359D01*
X228869731Y-157017412D01*
X228674822Y-157233645D01*
X228605195Y-157350534D01*
X228483475Y-157168368D01*
X228276632Y-156961525D01*
X228090000Y-156836822D01*
X228090000Y-153707323D01*
X228093676Y-153670000D01*
X228090000Y-153632677D01*
X228090000Y-153632667D01*
X228079003Y-153521014D01*
X228035546Y-153377753D01*
X228008549Y-153327246D01*
X227964974Y-153245723D01*
X227893799Y-153158997D01*
X227870001Y-153129999D01*
X227841003Y-153106201D01*
X223010000Y-148275199D01*
X223010000Y-145541103D01*
X223086842Y-145572932D01*
X223373740Y-145630000D01*
X223666260Y-145630000D01*
X223953158Y-145572932D01*
X224223411Y-145460990D01*
X224466632Y-145298475D01*
X224673475Y-145091632D01*
X224795195Y-144909466D01*
X224864822Y-145026355D01*
X225059731Y-145242588D01*
X225293080Y-145416641D01*
X225555901Y-145541825D01*
X225703110Y-145586476D01*
X225933000Y-145465155D01*
X225933000Y-144272000D01*
X225913000Y-144272000D01*
X225913000Y-144018000D01*
X225933000Y-144018000D01*
X225933000Y-143998000D01*
X226187000Y-143998000D01*
X226187000Y-144018000D01*
G36*
X231267000Y-144018000D02*
G01*
X231287000Y-144018000D01*
X231287000Y-144272000D01*
X231267000Y-144272000D01*
X231267000Y-145465155D01*
X231496890Y-145586476D01*
X231644099Y-145541825D01*
X231906920Y-145416641D01*
X232140269Y-145242588D01*
X232335178Y-145026355D01*
X232484157Y-144776252D01*
X232581481Y-144501891D01*
X232460815Y-144272002D01*
X232625000Y-144272002D01*
X232625000Y-144164801D01*
X236730001Y-148269803D01*
X236730000Y-156836821D01*
X236543368Y-156961525D01*
X236336525Y-157168368D01*
X236214805Y-157350534D01*
X236145178Y-157233645D01*
X235950269Y-157017412D01*
X235716920Y-156843359D01*
X235454099Y-156718175D01*
X235306890Y-156673524D01*
X235077000Y-156794845D01*
X235077000Y-157988000D01*
X235097000Y-157988000D01*
X235097000Y-158242000D01*
X235077000Y-158242000D01*
X235077000Y-158262000D01*
X234823000Y-158262000D01*
X234823000Y-158242000D01*
X234803000Y-158242000D01*
X234803000Y-157988000D01*
X234823000Y-157988000D01*
X234823000Y-156794845D01*
X234593110Y-156673524D01*
X234445901Y-156718175D01*
X234183080Y-156843359D01*
X233949731Y-157017412D01*
X233754822Y-157233645D01*
X233685195Y-157350534D01*
X233563475Y-157168368D01*
X233356632Y-156961525D01*
X233170000Y-156836822D01*
X233170000Y-153072323D01*
X233173676Y-153035000D01*
X233170000Y-152997677D01*
X233170000Y-152997667D01*
X233159003Y-152886014D01*
X233115546Y-152742753D01*
X233112858Y-152737724D01*
X233044974Y-152610723D01*
X232973799Y-152523997D01*
X232950001Y-152494999D01*
X232921003Y-152471201D01*
X228090000Y-147640199D01*
X228090000Y-145541103D01*
X228166842Y-145572932D01*
X228453740Y-145630000D01*
X228746260Y-145630000D01*
X229033158Y-145572932D01*
X229303411Y-145460990D01*
X229546632Y-145298475D01*
X229753475Y-145091632D01*
X229875195Y-144909466D01*
X229944822Y-145026355D01*
X230139731Y-145242588D01*
X230373080Y-145416641D01*
X230635901Y-145541825D01*
X230783110Y-145586476D01*
X231013000Y-145465155D01*
X231013000Y-144272000D01*
X230993000Y-144272000D01*
X230993000Y-144018000D01*
X231013000Y-144018000D01*
X231013000Y-143998000D01*
X231267000Y-143998000D01*
X231267000Y-144018000D01*
G37*
X231267000Y-144018000D02*
X231287000Y-144018000D01*
X231287000Y-144272000D01*
X231267000Y-144272000D01*
X231267000Y-145465155D01*
X231496890Y-145586476D01*
X231644099Y-145541825D01*
X231906920Y-145416641D01*
X232140269Y-145242588D01*
X232335178Y-145026355D01*
X232484157Y-144776252D01*
X232581481Y-144501891D01*
X232460815Y-144272002D01*
X232625000Y-144272002D01*
X232625000Y-144164801D01*
X236730001Y-148269803D01*
X236730000Y-156836821D01*
X236543368Y-156961525D01*
X236336525Y-157168368D01*
X236214805Y-157350534D01*
X236145178Y-157233645D01*
X235950269Y-157017412D01*
X235716920Y-156843359D01*
X235454099Y-156718175D01*
X235306890Y-156673524D01*
X235077000Y-156794845D01*
X235077000Y-157988000D01*
X235097000Y-157988000D01*
X235097000Y-158242000D01*
X235077000Y-158242000D01*
X235077000Y-158262000D01*
X234823000Y-158262000D01*
X234823000Y-158242000D01*
X234803000Y-158242000D01*
X234803000Y-157988000D01*
X234823000Y-157988000D01*
X234823000Y-156794845D01*
X234593110Y-156673524D01*
X234445901Y-156718175D01*
X234183080Y-156843359D01*
X233949731Y-157017412D01*
X233754822Y-157233645D01*
X233685195Y-157350534D01*
X233563475Y-157168368D01*
X233356632Y-156961525D01*
X233170000Y-156836822D01*
X233170000Y-153072323D01*
X233173676Y-153035000D01*
X233170000Y-152997677D01*
X233170000Y-152997667D01*
X233159003Y-152886014D01*
X233115546Y-152742753D01*
X233112858Y-152737724D01*
X233044974Y-152610723D01*
X232973799Y-152523997D01*
X232950001Y-152494999D01*
X232921003Y-152471201D01*
X228090000Y-147640199D01*
X228090000Y-145541103D01*
X228166842Y-145572932D01*
X228453740Y-145630000D01*
X228746260Y-145630000D01*
X229033158Y-145572932D01*
X229303411Y-145460990D01*
X229546632Y-145298475D01*
X229753475Y-145091632D01*
X229875195Y-144909466D01*
X229944822Y-145026355D01*
X230139731Y-145242588D01*
X230373080Y-145416641D01*
X230635901Y-145541825D01*
X230783110Y-145586476D01*
X231013000Y-145465155D01*
X231013000Y-144272000D01*
X230993000Y-144272000D01*
X230993000Y-144018000D01*
X231013000Y-144018000D01*
X231013000Y-143998000D01*
X231267000Y-143998000D01*
X231267000Y-144018000D01*
G36*
X221490000Y-148552677D02*
G01*
X221486324Y-148590000D01*
X221490000Y-148627322D01*
X221490000Y-148627332D01*
X221500997Y-148738985D01*
X221521528Y-148806667D01*
X221544454Y-148882246D01*
X221615026Y-149014276D01*
X221654871Y-149062826D01*
X221709999Y-149130001D01*
X221739003Y-149153804D01*
X226570001Y-153984803D01*
X226570000Y-156836821D01*
X226383368Y-156961525D01*
X226176525Y-157168368D01*
X226060000Y-157342760D01*
X225943475Y-157168368D01*
X225736632Y-156961525D01*
X225550000Y-156836822D01*
X225550000Y-156755323D01*
X225553676Y-156718000D01*
X225550000Y-156680677D01*
X225550000Y-156680667D01*
X225539003Y-156569014D01*
X225495546Y-156425753D01*
X225431001Y-156304999D01*
X225424974Y-156293723D01*
X225353799Y-156206997D01*
X225330001Y-156177999D01*
X225301003Y-156154201D01*
X220470000Y-151323199D01*
X220470000Y-145541103D01*
X220546842Y-145572932D01*
X220833740Y-145630000D01*
X221126260Y-145630000D01*
X221413158Y-145572932D01*
X221490001Y-145541103D01*
X221490000Y-148552677D01*
G37*
X221490000Y-148552677D02*
X221486324Y-148590000D01*
X221490000Y-148627322D01*
X221490000Y-148627332D01*
X221500997Y-148738985D01*
X221521528Y-148806667D01*
X221544454Y-148882246D01*
X221615026Y-149014276D01*
X221654871Y-149062826D01*
X221709999Y-149130001D01*
X221739003Y-149153804D01*
X226570001Y-153984803D01*
X226570000Y-156836821D01*
X226383368Y-156961525D01*
X226176525Y-157168368D01*
X226060000Y-157342760D01*
X225943475Y-157168368D01*
X225736632Y-156961525D01*
X225550000Y-156836822D01*
X225550000Y-156755323D01*
X225553676Y-156718000D01*
X225550000Y-156680677D01*
X225550000Y-156680667D01*
X225539003Y-156569014D01*
X225495546Y-156425753D01*
X225431001Y-156304999D01*
X225424974Y-156293723D01*
X225353799Y-156206997D01*
X225330001Y-156177999D01*
X225301003Y-156154201D01*
X220470000Y-151323199D01*
X220470000Y-145541103D01*
X220546842Y-145572932D01*
X220833740Y-145630000D01*
X221126260Y-145630000D01*
X221413158Y-145572932D01*
X221490001Y-145541103D01*
X221490000Y-148552677D01*
M02*
