%TF.GenerationSoftware,KiCad,Pcbnew,6.0.8-f2edbf62ab~116~ubuntu20.04.1*%
%TF.CreationDate,2022-10-25T18:56:43-07:00*%
%TF.ProjectId,Control_Board,436f6e74-726f-46c5-9f42-6f6172642e6b,rev?*%
%TF.SameCoordinates,Original*%
%TF.FileFunction,Legend,Top*%
%TF.FilePolarity,Positive*%
%FSLAX46Y46*%
G04 Gerber Fmt 4.6, Leading zero omitted, Abs format (unit mm)*
G04 Created by KiCad (PCBNEW 6.0.8-f2edbf62ab~116~ubuntu20.04.1) date 2022-10-25 18:56:43*
%MOMM*%
%LPD*%
G01*
G04 APERTURE LIST*
%ADD10C,0.250000*%
%ADD11C,0.300000*%
%ADD12C,0.125000*%
%ADD13C,0.150000*%
%ADD14C,0.254000*%
%ADD15C,0.200000*%
%ADD16C,0.120000*%
%ADD17C,0.100000*%
G04 APERTURE END LIST*
D10*
X68135523Y-102195380D02*
X67659333Y-102195380D01*
X67611714Y-102671571D01*
X67659333Y-102623952D01*
X67754571Y-102576333D01*
X67992666Y-102576333D01*
X68087904Y-102623952D01*
X68135523Y-102671571D01*
X68183142Y-102766809D01*
X68183142Y-103004904D01*
X68135523Y-103100142D01*
X68087904Y-103147761D01*
X67992666Y-103195380D01*
X67754571Y-103195380D01*
X67659333Y-103147761D01*
X67611714Y-103100142D01*
X68468857Y-102195380D02*
X68802190Y-103195380D01*
X69135523Y-102195380D01*
X68135523Y-92035380D02*
X67659333Y-92035380D01*
X67611714Y-92511571D01*
X67659333Y-92463952D01*
X67754571Y-92416333D01*
X67992666Y-92416333D01*
X68087904Y-92463952D01*
X68135523Y-92511571D01*
X68183142Y-92606809D01*
X68183142Y-92844904D01*
X68135523Y-92940142D01*
X68087904Y-92987761D01*
X67992666Y-93035380D01*
X67754571Y-93035380D01*
X67659333Y-92987761D01*
X67611714Y-92940142D01*
X68468857Y-92035380D02*
X68802190Y-93035380D01*
X69135523Y-92035380D01*
D11*
X69789523Y-151009047D02*
X70636190Y-153549047D01*
X71482857Y-151009047D01*
X73297142Y-153428095D02*
X73055238Y-153549047D01*
X72571428Y-153549047D01*
X72329523Y-153428095D01*
X72208571Y-153186190D01*
X72208571Y-152218571D01*
X72329523Y-151976666D01*
X72571428Y-151855714D01*
X73055238Y-151855714D01*
X73297142Y-151976666D01*
X73418095Y-152218571D01*
X73418095Y-152460476D01*
X72208571Y-152702380D01*
X74506666Y-153549047D02*
X74506666Y-151855714D01*
X74506666Y-152339523D02*
X74627619Y-152097619D01*
X74748571Y-151976666D01*
X74990476Y-151855714D01*
X75232380Y-151855714D01*
X75716190Y-151855714D02*
X76683809Y-151855714D01*
X76079047Y-151009047D02*
X76079047Y-153186190D01*
X76200000Y-153428095D01*
X76441904Y-153549047D01*
X76683809Y-153549047D01*
X77530476Y-153549047D02*
X77530476Y-151855714D01*
X77530476Y-151009047D02*
X77409523Y-151130000D01*
X77530476Y-151250952D01*
X77651428Y-151130000D01*
X77530476Y-151009047D01*
X77530476Y-151250952D01*
X79828571Y-153428095D02*
X79586666Y-153549047D01*
X79102857Y-153549047D01*
X78860952Y-153428095D01*
X78740000Y-153307142D01*
X78619047Y-153065238D01*
X78619047Y-152339523D01*
X78740000Y-152097619D01*
X78860952Y-151976666D01*
X79102857Y-151855714D01*
X79586666Y-151855714D01*
X79828571Y-151976666D01*
X82005714Y-153549047D02*
X82005714Y-152218571D01*
X81884761Y-151976666D01*
X81642857Y-151855714D01*
X81159047Y-151855714D01*
X80917142Y-151976666D01*
X82005714Y-153428095D02*
X81763809Y-153549047D01*
X81159047Y-153549047D01*
X80917142Y-153428095D01*
X80796190Y-153186190D01*
X80796190Y-152944285D01*
X80917142Y-152702380D01*
X81159047Y-152581428D01*
X81763809Y-152581428D01*
X82005714Y-152460476D01*
X83578095Y-153549047D02*
X83336190Y-153428095D01*
X83215238Y-153186190D01*
X83215238Y-151009047D01*
X87327619Y-152218571D02*
X86480952Y-152218571D01*
X86480952Y-153549047D02*
X86480952Y-151009047D01*
X87690476Y-151009047D01*
X89746666Y-153549047D02*
X89746666Y-152218571D01*
X89625714Y-151976666D01*
X89383809Y-151855714D01*
X88900000Y-151855714D01*
X88658095Y-151976666D01*
X89746666Y-153428095D02*
X89504761Y-153549047D01*
X88900000Y-153549047D01*
X88658095Y-153428095D01*
X88537142Y-153186190D01*
X88537142Y-152944285D01*
X88658095Y-152702380D01*
X88900000Y-152581428D01*
X89504761Y-152581428D01*
X89746666Y-152460476D01*
X90956190Y-153549047D02*
X90956190Y-151855714D01*
X90956190Y-152339523D02*
X91077142Y-152097619D01*
X91198095Y-151976666D01*
X91440000Y-151855714D01*
X91681904Y-151855714D01*
X92528571Y-153549047D02*
X92528571Y-151855714D01*
X92528571Y-152097619D02*
X92649523Y-151976666D01*
X92891428Y-151855714D01*
X93254285Y-151855714D01*
X93496190Y-151976666D01*
X93617142Y-152218571D01*
X93617142Y-153549047D01*
X93617142Y-152218571D02*
X93738095Y-151976666D01*
X93980000Y-151855714D01*
X94342857Y-151855714D01*
X94584761Y-151976666D01*
X94705714Y-152218571D01*
X94705714Y-153549047D01*
X99301904Y-153307142D02*
X99180952Y-153428095D01*
X98818095Y-153549047D01*
X98576190Y-153549047D01*
X98213333Y-153428095D01*
X97971428Y-153186190D01*
X97850476Y-152944285D01*
X97729523Y-152460476D01*
X97729523Y-152097619D01*
X97850476Y-151613809D01*
X97971428Y-151371904D01*
X98213333Y-151130000D01*
X98576190Y-151009047D01*
X98818095Y-151009047D01*
X99180952Y-151130000D01*
X99301904Y-151250952D01*
X100753333Y-153549047D02*
X100511428Y-153428095D01*
X100390476Y-153307142D01*
X100269523Y-153065238D01*
X100269523Y-152339523D01*
X100390476Y-152097619D01*
X100511428Y-151976666D01*
X100753333Y-151855714D01*
X101116190Y-151855714D01*
X101358095Y-151976666D01*
X101479047Y-152097619D01*
X101600000Y-152339523D01*
X101600000Y-153065238D01*
X101479047Y-153307142D01*
X101358095Y-153428095D01*
X101116190Y-153549047D01*
X100753333Y-153549047D01*
X102688571Y-151855714D02*
X102688571Y-153549047D01*
X102688571Y-152097619D02*
X102809523Y-151976666D01*
X103051428Y-151855714D01*
X103414285Y-151855714D01*
X103656190Y-151976666D01*
X103777142Y-152218571D01*
X103777142Y-153549047D01*
X104623809Y-151855714D02*
X105591428Y-151855714D01*
X104986666Y-151009047D02*
X104986666Y-153186190D01*
X105107619Y-153428095D01*
X105349523Y-153549047D01*
X105591428Y-153549047D01*
X106438095Y-153549047D02*
X106438095Y-151855714D01*
X106438095Y-152339523D02*
X106559047Y-152097619D01*
X106680000Y-151976666D01*
X106921904Y-151855714D01*
X107163809Y-151855714D01*
X108373333Y-153549047D02*
X108131428Y-153428095D01*
X108010476Y-153307142D01*
X107889523Y-153065238D01*
X107889523Y-152339523D01*
X108010476Y-152097619D01*
X108131428Y-151976666D01*
X108373333Y-151855714D01*
X108736190Y-151855714D01*
X108978095Y-151976666D01*
X109099047Y-152097619D01*
X109220000Y-152339523D01*
X109220000Y-153065238D01*
X109099047Y-153307142D01*
X108978095Y-153428095D01*
X108736190Y-153549047D01*
X108373333Y-153549047D01*
X110671428Y-153549047D02*
X110429523Y-153428095D01*
X110308571Y-153186190D01*
X110308571Y-151009047D01*
X112001904Y-153549047D02*
X111760000Y-153428095D01*
X111639047Y-153186190D01*
X111639047Y-151009047D01*
X113937142Y-153428095D02*
X113695238Y-153549047D01*
X113211428Y-153549047D01*
X112969523Y-153428095D01*
X112848571Y-153186190D01*
X112848571Y-152218571D01*
X112969523Y-151976666D01*
X113211428Y-151855714D01*
X113695238Y-151855714D01*
X113937142Y-151976666D01*
X114058095Y-152218571D01*
X114058095Y-152460476D01*
X112848571Y-152702380D01*
X115146666Y-153549047D02*
X115146666Y-151855714D01*
X115146666Y-152339523D02*
X115267619Y-152097619D01*
X115388571Y-151976666D01*
X115630476Y-151855714D01*
X115872380Y-151855714D01*
X118412380Y-151855714D02*
X119017142Y-153549047D01*
X119621904Y-151855714D01*
X121073333Y-151009047D02*
X121315238Y-151009047D01*
X121557142Y-151130000D01*
X121678095Y-151250952D01*
X121799047Y-151492857D01*
X121920000Y-151976666D01*
X121920000Y-152581428D01*
X121799047Y-153065238D01*
X121678095Y-153307142D01*
X121557142Y-153428095D01*
X121315238Y-153549047D01*
X121073333Y-153549047D01*
X120831428Y-153428095D01*
X120710476Y-153307142D01*
X120589523Y-153065238D01*
X120468571Y-152581428D01*
X120468571Y-151976666D01*
X120589523Y-151492857D01*
X120710476Y-151250952D01*
X120831428Y-151130000D01*
X121073333Y-151009047D01*
X123008571Y-153307142D02*
X123129523Y-153428095D01*
X123008571Y-153549047D01*
X122887619Y-153428095D01*
X123008571Y-153307142D01*
X123008571Y-153549047D01*
X125548571Y-153549047D02*
X124097142Y-153549047D01*
X124822857Y-153549047D02*
X124822857Y-151009047D01*
X124580952Y-151371904D01*
X124339047Y-151613809D01*
X124097142Y-151734761D01*
D12*
X76987447Y-66806000D02*
X76939828Y-66782190D01*
X76868400Y-66782190D01*
X76796971Y-66806000D01*
X76749352Y-66853619D01*
X76725542Y-66901238D01*
X76701733Y-66996476D01*
X76701733Y-67067904D01*
X76725542Y-67163142D01*
X76749352Y-67210761D01*
X76796971Y-67258380D01*
X76868400Y-67282190D01*
X76916019Y-67282190D01*
X76987447Y-67258380D01*
X77011257Y-67234571D01*
X77011257Y-67067904D01*
X76916019Y-67067904D01*
X77225542Y-67282190D02*
X77225542Y-66782190D01*
X77511257Y-67282190D01*
X77511257Y-66782190D01*
X77749352Y-67282190D02*
X77749352Y-66782190D01*
X77868400Y-66782190D01*
X77939828Y-66806000D01*
X77987447Y-66853619D01*
X78011257Y-66901238D01*
X78035066Y-66996476D01*
X78035066Y-67067904D01*
X78011257Y-67163142D01*
X77987447Y-67210761D01*
X77939828Y-67258380D01*
X77868400Y-67282190D01*
X77749352Y-67282190D01*
D10*
X70707285Y-103147761D02*
X70850142Y-103195380D01*
X71088238Y-103195380D01*
X71183476Y-103147761D01*
X71231095Y-103100142D01*
X71278714Y-103004904D01*
X71278714Y-102909666D01*
X71231095Y-102814428D01*
X71183476Y-102766809D01*
X71088238Y-102719190D01*
X70897761Y-102671571D01*
X70802523Y-102623952D01*
X70754904Y-102576333D01*
X70707285Y-102481095D01*
X70707285Y-102385857D01*
X70754904Y-102290619D01*
X70802523Y-102243000D01*
X70897761Y-102195380D01*
X71135857Y-102195380D01*
X71278714Y-102243000D01*
X70707285Y-92987761D02*
X70850142Y-93035380D01*
X71088238Y-93035380D01*
X71183476Y-92987761D01*
X71231095Y-92940142D01*
X71278714Y-92844904D01*
X71278714Y-92749666D01*
X71231095Y-92654428D01*
X71183476Y-92606809D01*
X71088238Y-92559190D01*
X70897761Y-92511571D01*
X70802523Y-92463952D01*
X70754904Y-92416333D01*
X70707285Y-92321095D01*
X70707285Y-92225857D01*
X70754904Y-92130619D01*
X70802523Y-92083000D01*
X70897761Y-92035380D01*
X71135857Y-92035380D01*
X71278714Y-92083000D01*
X72898095Y-107450000D02*
X72802857Y-107402380D01*
X72660000Y-107402380D01*
X72517142Y-107450000D01*
X72421904Y-107545238D01*
X72374285Y-107640476D01*
X72326666Y-107830952D01*
X72326666Y-107973809D01*
X72374285Y-108164285D01*
X72421904Y-108259523D01*
X72517142Y-108354761D01*
X72660000Y-108402380D01*
X72755238Y-108402380D01*
X72898095Y-108354761D01*
X72945714Y-108307142D01*
X72945714Y-107973809D01*
X72755238Y-107973809D01*
X73374285Y-108402380D02*
X73374285Y-107402380D01*
X73945714Y-108402380D01*
X73945714Y-107402380D01*
X74421904Y-108402380D02*
X74421904Y-107402380D01*
X74660000Y-107402380D01*
X74802857Y-107450000D01*
X74898095Y-107545238D01*
X74945714Y-107640476D01*
X74993333Y-107830952D01*
X74993333Y-107973809D01*
X74945714Y-108164285D01*
X74898095Y-108259523D01*
X74802857Y-108354761D01*
X74660000Y-108402380D01*
X74421904Y-108402380D01*
X72898095Y-92210000D02*
X72802857Y-92162380D01*
X72660000Y-92162380D01*
X72517142Y-92210000D01*
X72421904Y-92305238D01*
X72374285Y-92400476D01*
X72326666Y-92590952D01*
X72326666Y-92733809D01*
X72374285Y-92924285D01*
X72421904Y-93019523D01*
X72517142Y-93114761D01*
X72660000Y-93162380D01*
X72755238Y-93162380D01*
X72898095Y-93114761D01*
X72945714Y-93067142D01*
X72945714Y-92733809D01*
X72755238Y-92733809D01*
X73374285Y-93162380D02*
X73374285Y-92162380D01*
X73945714Y-93162380D01*
X73945714Y-92162380D01*
X74421904Y-93162380D02*
X74421904Y-92162380D01*
X74660000Y-92162380D01*
X74802857Y-92210000D01*
X74898095Y-92305238D01*
X74945714Y-92400476D01*
X74993333Y-92590952D01*
X74993333Y-92733809D01*
X74945714Y-92924285D01*
X74898095Y-93019523D01*
X74802857Y-93114761D01*
X74660000Y-93162380D01*
X74421904Y-93162380D01*
X70707285Y-108227761D02*
X70850142Y-108275380D01*
X71088238Y-108275380D01*
X71183476Y-108227761D01*
X71231095Y-108180142D01*
X71278714Y-108084904D01*
X71278714Y-107989666D01*
X71231095Y-107894428D01*
X71183476Y-107846809D01*
X71088238Y-107799190D01*
X70897761Y-107751571D01*
X70802523Y-107703952D01*
X70754904Y-107656333D01*
X70707285Y-107561095D01*
X70707285Y-107465857D01*
X70754904Y-107370619D01*
X70802523Y-107323000D01*
X70897761Y-107275380D01*
X71135857Y-107275380D01*
X71278714Y-107323000D01*
X72898095Y-97290000D02*
X72802857Y-97242380D01*
X72660000Y-97242380D01*
X72517142Y-97290000D01*
X72421904Y-97385238D01*
X72374285Y-97480476D01*
X72326666Y-97670952D01*
X72326666Y-97813809D01*
X72374285Y-98004285D01*
X72421904Y-98099523D01*
X72517142Y-98194761D01*
X72660000Y-98242380D01*
X72755238Y-98242380D01*
X72898095Y-98194761D01*
X72945714Y-98147142D01*
X72945714Y-97813809D01*
X72755238Y-97813809D01*
X73374285Y-98242380D02*
X73374285Y-97242380D01*
X73945714Y-98242380D01*
X73945714Y-97242380D01*
X74421904Y-98242380D02*
X74421904Y-97242380D01*
X74660000Y-97242380D01*
X74802857Y-97290000D01*
X74898095Y-97385238D01*
X74945714Y-97480476D01*
X74993333Y-97670952D01*
X74993333Y-97813809D01*
X74945714Y-98004285D01*
X74898095Y-98099523D01*
X74802857Y-98194761D01*
X74660000Y-98242380D01*
X74421904Y-98242380D01*
X68135523Y-97115380D02*
X67659333Y-97115380D01*
X67611714Y-97591571D01*
X67659333Y-97543952D01*
X67754571Y-97496333D01*
X67992666Y-97496333D01*
X68087904Y-97543952D01*
X68135523Y-97591571D01*
X68183142Y-97686809D01*
X68183142Y-97924904D01*
X68135523Y-98020142D01*
X68087904Y-98067761D01*
X67992666Y-98115380D01*
X67754571Y-98115380D01*
X67659333Y-98067761D01*
X67611714Y-98020142D01*
X68468857Y-97115380D02*
X68802190Y-98115380D01*
X69135523Y-97115380D01*
X72898095Y-102370000D02*
X72802857Y-102322380D01*
X72660000Y-102322380D01*
X72517142Y-102370000D01*
X72421904Y-102465238D01*
X72374285Y-102560476D01*
X72326666Y-102750952D01*
X72326666Y-102893809D01*
X72374285Y-103084285D01*
X72421904Y-103179523D01*
X72517142Y-103274761D01*
X72660000Y-103322380D01*
X72755238Y-103322380D01*
X72898095Y-103274761D01*
X72945714Y-103227142D01*
X72945714Y-102893809D01*
X72755238Y-102893809D01*
X73374285Y-103322380D02*
X73374285Y-102322380D01*
X73945714Y-103322380D01*
X73945714Y-102322380D01*
X74421904Y-103322380D02*
X74421904Y-102322380D01*
X74660000Y-102322380D01*
X74802857Y-102370000D01*
X74898095Y-102465238D01*
X74945714Y-102560476D01*
X74993333Y-102750952D01*
X74993333Y-102893809D01*
X74945714Y-103084285D01*
X74898095Y-103179523D01*
X74802857Y-103274761D01*
X74660000Y-103322380D01*
X74421904Y-103322380D01*
D13*
X155857380Y-140541238D02*
X155857380Y-141112666D01*
X155857380Y-140826952D02*
X154857380Y-140826952D01*
X155000238Y-140922190D01*
X155095476Y-141017428D01*
X155143095Y-141112666D01*
X154952619Y-140160285D02*
X154905000Y-140112666D01*
X154857380Y-140017428D01*
X154857380Y-139779333D01*
X154905000Y-139684095D01*
X154952619Y-139636476D01*
X155047857Y-139588857D01*
X155143095Y-139588857D01*
X155285952Y-139636476D01*
X155857380Y-140207904D01*
X155857380Y-139588857D01*
X154857380Y-138969809D02*
X154857380Y-138874571D01*
X154905000Y-138779333D01*
X154952619Y-138731714D01*
X155047857Y-138684095D01*
X155238333Y-138636476D01*
X155476428Y-138636476D01*
X155666904Y-138684095D01*
X155762142Y-138731714D01*
X155809761Y-138779333D01*
X155857380Y-138874571D01*
X155857380Y-138969809D01*
X155809761Y-139065047D01*
X155762142Y-139112666D01*
X155666904Y-139160285D01*
X155476428Y-139207904D01*
X155238333Y-139207904D01*
X155047857Y-139160285D01*
X154952619Y-139112666D01*
X154905000Y-139065047D01*
X154857380Y-138969809D01*
X154857380Y-138350761D02*
X155857380Y-138017428D01*
X154857380Y-137684095D01*
X157467380Y-140469809D02*
X156467380Y-140469809D01*
X156943571Y-140469809D02*
X156943571Y-139898380D01*
X157467380Y-139898380D02*
X156467380Y-139898380D01*
X157467380Y-139279333D02*
X157419761Y-139374571D01*
X157372142Y-139422190D01*
X157276904Y-139469809D01*
X156991190Y-139469809D01*
X156895952Y-139422190D01*
X156848333Y-139374571D01*
X156800714Y-139279333D01*
X156800714Y-139136476D01*
X156848333Y-139041238D01*
X156895952Y-138993619D01*
X156991190Y-138946000D01*
X157276904Y-138946000D01*
X157372142Y-138993619D01*
X157419761Y-139041238D01*
X157467380Y-139136476D01*
X157467380Y-139279333D01*
X156800714Y-138660285D02*
X156800714Y-138279333D01*
X156467380Y-138517428D02*
X157324523Y-138517428D01*
X157419761Y-138469809D01*
X157467380Y-138374571D01*
X157467380Y-138279333D01*
D10*
X68135523Y-107275380D02*
X67659333Y-107275380D01*
X67611714Y-107751571D01*
X67659333Y-107703952D01*
X67754571Y-107656333D01*
X67992666Y-107656333D01*
X68087904Y-107703952D01*
X68135523Y-107751571D01*
X68183142Y-107846809D01*
X68183142Y-108084904D01*
X68135523Y-108180142D01*
X68087904Y-108227761D01*
X67992666Y-108275380D01*
X67754571Y-108275380D01*
X67659333Y-108227761D01*
X67611714Y-108180142D01*
X68468857Y-107275380D02*
X68802190Y-108275380D01*
X69135523Y-107275380D01*
X70707285Y-98067761D02*
X70850142Y-98115380D01*
X71088238Y-98115380D01*
X71183476Y-98067761D01*
X71231095Y-98020142D01*
X71278714Y-97924904D01*
X71278714Y-97829666D01*
X71231095Y-97734428D01*
X71183476Y-97686809D01*
X71088238Y-97639190D01*
X70897761Y-97591571D01*
X70802523Y-97543952D01*
X70754904Y-97496333D01*
X70707285Y-97401095D01*
X70707285Y-97305857D01*
X70754904Y-97210619D01*
X70802523Y-97163000D01*
X70897761Y-97115380D01*
X71135857Y-97115380D01*
X71278714Y-97163000D01*
D12*
X73836304Y-66806000D02*
X73788685Y-66782190D01*
X73717257Y-66782190D01*
X73645828Y-66806000D01*
X73598209Y-66853619D01*
X73574400Y-66901238D01*
X73550590Y-66996476D01*
X73550590Y-67067904D01*
X73574400Y-67163142D01*
X73598209Y-67210761D01*
X73645828Y-67258380D01*
X73717257Y-67282190D01*
X73764876Y-67282190D01*
X73836304Y-67258380D01*
X73860114Y-67234571D01*
X73860114Y-67067904D01*
X73764876Y-67067904D01*
X74074400Y-67282190D02*
X74074400Y-66782190D01*
X74264876Y-66782190D01*
X74312495Y-66806000D01*
X74336304Y-66829809D01*
X74360114Y-66877428D01*
X74360114Y-66948857D01*
X74336304Y-66996476D01*
X74312495Y-67020285D01*
X74264876Y-67044095D01*
X74074400Y-67044095D01*
X74574400Y-67282190D02*
X74574400Y-66782190D01*
X74907733Y-66782190D02*
X75002971Y-66782190D01*
X75050590Y-66806000D01*
X75098209Y-66853619D01*
X75122019Y-66948857D01*
X75122019Y-67115523D01*
X75098209Y-67210761D01*
X75050590Y-67258380D01*
X75002971Y-67282190D01*
X74907733Y-67282190D01*
X74860114Y-67258380D01*
X74812495Y-67210761D01*
X74788685Y-67115523D01*
X74788685Y-66948857D01*
X74812495Y-66853619D01*
X74860114Y-66806000D01*
X74907733Y-66782190D01*
X75550590Y-66948857D02*
X75550590Y-67282190D01*
X75431542Y-66758380D02*
X75312495Y-67115523D01*
X75622019Y-67115523D01*
D10*
X70707285Y-113307761D02*
X70850142Y-113355380D01*
X71088238Y-113355380D01*
X71183476Y-113307761D01*
X71231095Y-113260142D01*
X71278714Y-113164904D01*
X71278714Y-113069666D01*
X71231095Y-112974428D01*
X71183476Y-112926809D01*
X71088238Y-112879190D01*
X70897761Y-112831571D01*
X70802523Y-112783952D01*
X70754904Y-112736333D01*
X70707285Y-112641095D01*
X70707285Y-112545857D01*
X70754904Y-112450619D01*
X70802523Y-112403000D01*
X70897761Y-112355380D01*
X71135857Y-112355380D01*
X71278714Y-112403000D01*
X68135523Y-112355380D02*
X67659333Y-112355380D01*
X67611714Y-112831571D01*
X67659333Y-112783952D01*
X67754571Y-112736333D01*
X67992666Y-112736333D01*
X68087904Y-112783952D01*
X68135523Y-112831571D01*
X68183142Y-112926809D01*
X68183142Y-113164904D01*
X68135523Y-113260142D01*
X68087904Y-113307761D01*
X67992666Y-113355380D01*
X67754571Y-113355380D01*
X67659333Y-113307761D01*
X67611714Y-113260142D01*
X68468857Y-112355380D02*
X68802190Y-113355380D01*
X69135523Y-112355380D01*
D12*
X71837561Y-66782190D02*
X71599466Y-66782190D01*
X71575657Y-67020285D01*
X71599466Y-66996476D01*
X71647085Y-66972666D01*
X71766133Y-66972666D01*
X71813752Y-66996476D01*
X71837561Y-67020285D01*
X71861371Y-67067904D01*
X71861371Y-67186952D01*
X71837561Y-67234571D01*
X71813752Y-67258380D01*
X71766133Y-67282190D01*
X71647085Y-67282190D01*
X71599466Y-67258380D01*
X71575657Y-67234571D01*
X72004228Y-66782190D02*
X72170895Y-67282190D01*
X72337561Y-66782190D01*
D10*
X72898095Y-112530000D02*
X72802857Y-112482380D01*
X72660000Y-112482380D01*
X72517142Y-112530000D01*
X72421904Y-112625238D01*
X72374285Y-112720476D01*
X72326666Y-112910952D01*
X72326666Y-113053809D01*
X72374285Y-113244285D01*
X72421904Y-113339523D01*
X72517142Y-113434761D01*
X72660000Y-113482380D01*
X72755238Y-113482380D01*
X72898095Y-113434761D01*
X72945714Y-113387142D01*
X72945714Y-113053809D01*
X72755238Y-113053809D01*
X73374285Y-113482380D02*
X73374285Y-112482380D01*
X73945714Y-113482380D01*
X73945714Y-112482380D01*
X74421904Y-113482380D02*
X74421904Y-112482380D01*
X74660000Y-112482380D01*
X74802857Y-112530000D01*
X74898095Y-112625238D01*
X74945714Y-112720476D01*
X74993333Y-112910952D01*
X74993333Y-113053809D01*
X74945714Y-113244285D01*
X74898095Y-113339523D01*
X74802857Y-113434761D01*
X74660000Y-113482380D01*
X74421904Y-113482380D01*
D13*
X43815047Y-35885428D02*
X44576952Y-35885428D01*
X44196000Y-36266380D02*
X44196000Y-35504476D01*
X43815047Y-48077428D02*
X44576952Y-48077428D01*
D14*
%TO.C,A4*%
X75978657Y-90457866D02*
X76583419Y-90457866D01*
X75857704Y-90820723D02*
X76281038Y-89550723D01*
X76704371Y-90820723D01*
X77671990Y-89974057D02*
X77671990Y-90820723D01*
X77369609Y-89490247D02*
X77067228Y-90397390D01*
X77853419Y-90397390D01*
D13*
%TO.C,A1*%
X53905714Y-73826666D02*
X54381904Y-73826666D01*
X53810476Y-74112380D02*
X54143809Y-73112380D01*
X54477142Y-74112380D01*
X55334285Y-74112380D02*
X54762857Y-74112380D01*
X55048571Y-74112380D02*
X55048571Y-73112380D01*
X54953333Y-73255238D01*
X54858095Y-73350476D01*
X54762857Y-73398095D01*
%TO.C,L1*%
X68081333Y-54173380D02*
X67605142Y-54173380D01*
X67605142Y-53173380D01*
X68938476Y-54173380D02*
X68367047Y-54173380D01*
X68652761Y-54173380D02*
X68652761Y-53173380D01*
X68557523Y-53316238D01*
X68462285Y-53411476D01*
X68367047Y-53459095D01*
%TO.C,C2*%
X68683142Y-39536666D02*
X68730761Y-39584285D01*
X68778380Y-39727142D01*
X68778380Y-39822380D01*
X68730761Y-39965238D01*
X68635523Y-40060476D01*
X68540285Y-40108095D01*
X68349809Y-40155714D01*
X68206952Y-40155714D01*
X68016476Y-40108095D01*
X67921238Y-40060476D01*
X67826000Y-39965238D01*
X67778380Y-39822380D01*
X67778380Y-39727142D01*
X67826000Y-39584285D01*
X67873619Y-39536666D01*
X67873619Y-39155714D02*
X67826000Y-39108095D01*
X67778380Y-39012857D01*
X67778380Y-38774761D01*
X67826000Y-38679523D01*
X67873619Y-38631904D01*
X67968857Y-38584285D01*
X68064095Y-38584285D01*
X68206952Y-38631904D01*
X68778380Y-39203333D01*
X68778380Y-38584285D01*
%TO.C,R6*%
X53886333Y-52141380D02*
X53553000Y-51665190D01*
X53314904Y-52141380D02*
X53314904Y-51141380D01*
X53695857Y-51141380D01*
X53791095Y-51189000D01*
X53838714Y-51236619D01*
X53886333Y-51331857D01*
X53886333Y-51474714D01*
X53838714Y-51569952D01*
X53791095Y-51617571D01*
X53695857Y-51665190D01*
X53314904Y-51665190D01*
X54743476Y-51141380D02*
X54553000Y-51141380D01*
X54457761Y-51189000D01*
X54410142Y-51236619D01*
X54314904Y-51379476D01*
X54267285Y-51569952D01*
X54267285Y-51950904D01*
X54314904Y-52046142D01*
X54362523Y-52093761D01*
X54457761Y-52141380D01*
X54648238Y-52141380D01*
X54743476Y-52093761D01*
X54791095Y-52046142D01*
X54838714Y-51950904D01*
X54838714Y-51712809D01*
X54791095Y-51617571D01*
X54743476Y-51569952D01*
X54648238Y-51522333D01*
X54457761Y-51522333D01*
X54362523Y-51569952D01*
X54314904Y-51617571D01*
X54267285Y-51712809D01*
D14*
%TO.C,K2*%
X133682619Y-99634523D02*
X133682619Y-98364523D01*
X134408333Y-99634523D02*
X133864047Y-98908809D01*
X134408333Y-98364523D02*
X133682619Y-99090238D01*
X134892142Y-98485476D02*
X134952619Y-98425000D01*
X135073571Y-98364523D01*
X135375952Y-98364523D01*
X135496904Y-98425000D01*
X135557380Y-98485476D01*
X135617857Y-98606428D01*
X135617857Y-98727380D01*
X135557380Y-98908809D01*
X134831666Y-99634523D01*
X135617857Y-99634523D01*
%TO.C,A0*%
X75978657Y-110777866D02*
X76583419Y-110777866D01*
X75857704Y-111140723D02*
X76281038Y-109870723D01*
X76704371Y-111140723D01*
X77369609Y-109870723D02*
X77490561Y-109870723D01*
X77611514Y-109931200D01*
X77671990Y-109991676D01*
X77732466Y-110112628D01*
X77792942Y-110354533D01*
X77792942Y-110656914D01*
X77732466Y-110898819D01*
X77671990Y-111019771D01*
X77611514Y-111080247D01*
X77490561Y-111140723D01*
X77369609Y-111140723D01*
X77248657Y-111080247D01*
X77188180Y-111019771D01*
X77127704Y-110898819D01*
X77067228Y-110656914D01*
X77067228Y-110354533D01*
X77127704Y-110112628D01*
X77188180Y-109991676D01*
X77248657Y-109931200D01*
X77369609Y-109870723D01*
D13*
%TO.C,R2*%
X43775333Y-80362380D02*
X43442000Y-79886190D01*
X43203904Y-80362380D02*
X43203904Y-79362380D01*
X43584857Y-79362380D01*
X43680095Y-79410000D01*
X43727714Y-79457619D01*
X43775333Y-79552857D01*
X43775333Y-79695714D01*
X43727714Y-79790952D01*
X43680095Y-79838571D01*
X43584857Y-79886190D01*
X43203904Y-79886190D01*
X44156285Y-79457619D02*
X44203904Y-79410000D01*
X44299142Y-79362380D01*
X44537238Y-79362380D01*
X44632476Y-79410000D01*
X44680095Y-79457619D01*
X44727714Y-79552857D01*
X44727714Y-79648095D01*
X44680095Y-79790952D01*
X44108666Y-80362380D01*
X44727714Y-80362380D01*
%TO.C,D2*%
X50647904Y-50236380D02*
X50647904Y-49236380D01*
X50886000Y-49236380D01*
X51028857Y-49284000D01*
X51124095Y-49379238D01*
X51171714Y-49474476D01*
X51219333Y-49664952D01*
X51219333Y-49807809D01*
X51171714Y-49998285D01*
X51124095Y-50093523D01*
X51028857Y-50188761D01*
X50886000Y-50236380D01*
X50647904Y-50236380D01*
X51600285Y-49331619D02*
X51647904Y-49284000D01*
X51743142Y-49236380D01*
X51981238Y-49236380D01*
X52076476Y-49284000D01*
X52124095Y-49331619D01*
X52171714Y-49426857D01*
X52171714Y-49522095D01*
X52124095Y-49664952D01*
X51552666Y-50236380D01*
X52171714Y-50236380D01*
%TO.C,C5*%
X59396333Y-50395142D02*
X59348714Y-50442761D01*
X59205857Y-50490380D01*
X59110619Y-50490380D01*
X58967761Y-50442761D01*
X58872523Y-50347523D01*
X58824904Y-50252285D01*
X58777285Y-50061809D01*
X58777285Y-49918952D01*
X58824904Y-49728476D01*
X58872523Y-49633238D01*
X58967761Y-49538000D01*
X59110619Y-49490380D01*
X59205857Y-49490380D01*
X59348714Y-49538000D01*
X59396333Y-49585619D01*
X60301095Y-49490380D02*
X59824904Y-49490380D01*
X59777285Y-49966571D01*
X59824904Y-49918952D01*
X59920142Y-49871333D01*
X60158238Y-49871333D01*
X60253476Y-49918952D01*
X60301095Y-49966571D01*
X60348714Y-50061809D01*
X60348714Y-50299904D01*
X60301095Y-50395142D01*
X60253476Y-50442761D01*
X60158238Y-50490380D01*
X59920142Y-50490380D01*
X59824904Y-50442761D01*
X59777285Y-50395142D01*
%TO.C,Q2*%
X56038761Y-48680619D02*
X55943523Y-48633000D01*
X55848285Y-48537761D01*
X55705428Y-48394904D01*
X55610190Y-48347285D01*
X55514952Y-48347285D01*
X55562571Y-48585380D02*
X55467333Y-48537761D01*
X55372095Y-48442523D01*
X55324476Y-48252047D01*
X55324476Y-47918714D01*
X55372095Y-47728238D01*
X55467333Y-47633000D01*
X55562571Y-47585380D01*
X55753047Y-47585380D01*
X55848285Y-47633000D01*
X55943523Y-47728238D01*
X55991142Y-47918714D01*
X55991142Y-48252047D01*
X55943523Y-48442523D01*
X55848285Y-48537761D01*
X55753047Y-48585380D01*
X55562571Y-48585380D01*
X56372095Y-47680619D02*
X56419714Y-47633000D01*
X56514952Y-47585380D01*
X56753047Y-47585380D01*
X56848285Y-47633000D01*
X56895904Y-47680619D01*
X56943523Y-47775857D01*
X56943523Y-47871095D01*
X56895904Y-48013952D01*
X56324476Y-48585380D01*
X56943523Y-48585380D01*
%TO.C,R7*%
X53886333Y-50744380D02*
X53553000Y-50268190D01*
X53314904Y-50744380D02*
X53314904Y-49744380D01*
X53695857Y-49744380D01*
X53791095Y-49792000D01*
X53838714Y-49839619D01*
X53886333Y-49934857D01*
X53886333Y-50077714D01*
X53838714Y-50172952D01*
X53791095Y-50220571D01*
X53695857Y-50268190D01*
X53314904Y-50268190D01*
X54219666Y-49744380D02*
X54886333Y-49744380D01*
X54457761Y-50744380D01*
%TO.C,R4*%
X58380333Y-47823380D02*
X58047000Y-47347190D01*
X57808904Y-47823380D02*
X57808904Y-46823380D01*
X58189857Y-46823380D01*
X58285095Y-46871000D01*
X58332714Y-46918619D01*
X58380333Y-47013857D01*
X58380333Y-47156714D01*
X58332714Y-47251952D01*
X58285095Y-47299571D01*
X58189857Y-47347190D01*
X57808904Y-47347190D01*
X59237476Y-47156714D02*
X59237476Y-47823380D01*
X58999380Y-46775761D02*
X58761285Y-47490047D01*
X59380333Y-47490047D01*
D14*
%TO.C,J1*%
X88458523Y-75607333D02*
X89365666Y-75607333D01*
X89547095Y-75667809D01*
X89668047Y-75788761D01*
X89728523Y-75970190D01*
X89728523Y-76091142D01*
X89728523Y-74337333D02*
X89728523Y-75063047D01*
X89728523Y-74700190D02*
X88458523Y-74700190D01*
X88639952Y-74821142D01*
X88760904Y-74942095D01*
X88821380Y-75063047D01*
%TO.C,K3*%
X133682619Y-112334523D02*
X133682619Y-111064523D01*
X134408333Y-112334523D02*
X133864047Y-111608809D01*
X134408333Y-111064523D02*
X133682619Y-111790238D01*
X134831666Y-111064523D02*
X135617857Y-111064523D01*
X135194523Y-111548333D01*
X135375952Y-111548333D01*
X135496904Y-111608809D01*
X135557380Y-111669285D01*
X135617857Y-111790238D01*
X135617857Y-112092619D01*
X135557380Y-112213571D01*
X135496904Y-112274047D01*
X135375952Y-112334523D01*
X135013095Y-112334523D01*
X134892142Y-112274047D01*
X134831666Y-112213571D01*
D13*
%TO.C,D1*%
X51663904Y-34615380D02*
X51663904Y-33615380D01*
X51902000Y-33615380D01*
X52044857Y-33663000D01*
X52140095Y-33758238D01*
X52187714Y-33853476D01*
X52235333Y-34043952D01*
X52235333Y-34186809D01*
X52187714Y-34377285D01*
X52140095Y-34472523D01*
X52044857Y-34567761D01*
X51902000Y-34615380D01*
X51663904Y-34615380D01*
X53187714Y-34615380D02*
X52616285Y-34615380D01*
X52902000Y-34615380D02*
X52902000Y-33615380D01*
X52806761Y-33758238D01*
X52711523Y-33853476D01*
X52616285Y-33901095D01*
%TO.C,R5*%
X60539333Y-47823380D02*
X60206000Y-47347190D01*
X59967904Y-47823380D02*
X59967904Y-46823380D01*
X60348857Y-46823380D01*
X60444095Y-46871000D01*
X60491714Y-46918619D01*
X60539333Y-47013857D01*
X60539333Y-47156714D01*
X60491714Y-47251952D01*
X60444095Y-47299571D01*
X60348857Y-47347190D01*
X59967904Y-47347190D01*
X61444095Y-46823380D02*
X60967904Y-46823380D01*
X60920285Y-47299571D01*
X60967904Y-47251952D01*
X61063142Y-47204333D01*
X61301238Y-47204333D01*
X61396476Y-47251952D01*
X61444095Y-47299571D01*
X61491714Y-47394809D01*
X61491714Y-47632904D01*
X61444095Y-47728142D01*
X61396476Y-47775761D01*
X61301238Y-47823380D01*
X61063142Y-47823380D01*
X60967904Y-47775761D01*
X60920285Y-47728142D01*
D14*
%TO.C,A3*%
X75978657Y-95537866D02*
X76583419Y-95537866D01*
X75857704Y-95900723D02*
X76281038Y-94630723D01*
X76704371Y-95900723D01*
X77006752Y-94630723D02*
X77792942Y-94630723D01*
X77369609Y-95114533D01*
X77551038Y-95114533D01*
X77671990Y-95175009D01*
X77732466Y-95235485D01*
X77792942Y-95356438D01*
X77792942Y-95658819D01*
X77732466Y-95779771D01*
X77671990Y-95840247D01*
X77551038Y-95900723D01*
X77188180Y-95900723D01*
X77067228Y-95840247D01*
X77006752Y-95779771D01*
D13*
%TO.C,U3*%
X61087095Y-36028380D02*
X61087095Y-36837904D01*
X61134714Y-36933142D01*
X61182333Y-36980761D01*
X61277571Y-37028380D01*
X61468047Y-37028380D01*
X61563285Y-36980761D01*
X61610904Y-36933142D01*
X61658523Y-36837904D01*
X61658523Y-36028380D01*
X62039476Y-36028380D02*
X62658523Y-36028380D01*
X62325190Y-36409333D01*
X62468047Y-36409333D01*
X62563285Y-36456952D01*
X62610904Y-36504571D01*
X62658523Y-36599809D01*
X62658523Y-36837904D01*
X62610904Y-36933142D01*
X62563285Y-36980761D01*
X62468047Y-37028380D01*
X62182333Y-37028380D01*
X62087095Y-36980761D01*
X62039476Y-36933142D01*
%TO.C,U2*%
X117348095Y-59592380D02*
X117348095Y-60401904D01*
X117395714Y-60497142D01*
X117443333Y-60544761D01*
X117538571Y-60592380D01*
X117729047Y-60592380D01*
X117824285Y-60544761D01*
X117871904Y-60497142D01*
X117919523Y-60401904D01*
X117919523Y-59592380D01*
X118348095Y-59687619D02*
X118395714Y-59640000D01*
X118490952Y-59592380D01*
X118729047Y-59592380D01*
X118824285Y-59640000D01*
X118871904Y-59687619D01*
X118919523Y-59782857D01*
X118919523Y-59878095D01*
X118871904Y-60020952D01*
X118300476Y-60592380D01*
X118919523Y-60592380D01*
%TO.C,C4*%
X59396333Y-49125142D02*
X59348714Y-49172761D01*
X59205857Y-49220380D01*
X59110619Y-49220380D01*
X58967761Y-49172761D01*
X58872523Y-49077523D01*
X58824904Y-48982285D01*
X58777285Y-48791809D01*
X58777285Y-48648952D01*
X58824904Y-48458476D01*
X58872523Y-48363238D01*
X58967761Y-48268000D01*
X59110619Y-48220380D01*
X59205857Y-48220380D01*
X59348714Y-48268000D01*
X59396333Y-48315619D01*
X60253476Y-48553714D02*
X60253476Y-49220380D01*
X60015380Y-48172761D02*
X59777285Y-48887047D01*
X60396333Y-48887047D01*
D14*
%TO.C,A2*%
X75978657Y-100617866D02*
X76583419Y-100617866D01*
X75857704Y-100980723D02*
X76281038Y-99710723D01*
X76704371Y-100980723D01*
X77067228Y-99831676D02*
X77127704Y-99771200D01*
X77248657Y-99710723D01*
X77551038Y-99710723D01*
X77671990Y-99771200D01*
X77732466Y-99831676D01*
X77792942Y-99952628D01*
X77792942Y-100073580D01*
X77732466Y-100255009D01*
X77006752Y-100980723D01*
X77792942Y-100980723D01*
%TO.C,K4*%
X133682619Y-125034523D02*
X133682619Y-123764523D01*
X134408333Y-125034523D02*
X133864047Y-124308809D01*
X134408333Y-123764523D02*
X133682619Y-124490238D01*
X135496904Y-124187857D02*
X135496904Y-125034523D01*
X135194523Y-123704047D02*
X134892142Y-124611190D01*
X135678333Y-124611190D01*
D13*
%TO.C,R1*%
X43886380Y-77039166D02*
X43410190Y-77372500D01*
X43886380Y-77610595D02*
X42886380Y-77610595D01*
X42886380Y-77229642D01*
X42934000Y-77134404D01*
X42981619Y-77086785D01*
X43076857Y-77039166D01*
X43219714Y-77039166D01*
X43314952Y-77086785D01*
X43362571Y-77134404D01*
X43410190Y-77229642D01*
X43410190Y-77610595D01*
X43886380Y-76086785D02*
X43886380Y-76658214D01*
X43886380Y-76372500D02*
X42886380Y-76372500D01*
X43029238Y-76467738D01*
X43124476Y-76562976D01*
X43172095Y-76658214D01*
D14*
%TO.C,A1*%
X75978657Y-105697866D02*
X76583419Y-105697866D01*
X75857704Y-106060723D02*
X76281038Y-104790723D01*
X76704371Y-106060723D01*
X77792942Y-106060723D02*
X77067228Y-106060723D01*
X77430085Y-106060723D02*
X77430085Y-104790723D01*
X77309133Y-104972152D01*
X77188180Y-105093104D01*
X77067228Y-105153580D01*
D13*
%TO.C,C1*%
X67413142Y-39536666D02*
X67460761Y-39584285D01*
X67508380Y-39727142D01*
X67508380Y-39822380D01*
X67460761Y-39965238D01*
X67365523Y-40060476D01*
X67270285Y-40108095D01*
X67079809Y-40155714D01*
X66936952Y-40155714D01*
X66746476Y-40108095D01*
X66651238Y-40060476D01*
X66556000Y-39965238D01*
X66508380Y-39822380D01*
X66508380Y-39727142D01*
X66556000Y-39584285D01*
X66603619Y-39536666D01*
X67508380Y-38584285D02*
X67508380Y-39155714D01*
X67508380Y-38870000D02*
X66508380Y-38870000D01*
X66651238Y-38965238D01*
X66746476Y-39060476D01*
X66794095Y-39155714D01*
D14*
%TO.C,K1*%
X133682619Y-86934523D02*
X133682619Y-85664523D01*
X134408333Y-86934523D02*
X133864047Y-86208809D01*
X134408333Y-85664523D02*
X133682619Y-86390238D01*
X135617857Y-86934523D02*
X134892142Y-86934523D01*
X135255000Y-86934523D02*
X135255000Y-85664523D01*
X135134047Y-85845952D01*
X135013095Y-85966904D01*
X134892142Y-86027380D01*
D10*
%TO.C,T/H*%
X66484666Y-64273180D02*
X67056095Y-64273180D01*
X66770380Y-65273180D02*
X66770380Y-64273180D01*
X68103714Y-64225561D02*
X67246571Y-65511276D01*
X68437047Y-65273180D02*
X68437047Y-64273180D01*
X68437047Y-64749371D02*
X69008476Y-64749371D01*
X69008476Y-65273180D02*
X69008476Y-64273180D01*
D13*
%TO.C,Q1*%
X56927761Y-36107619D02*
X56832523Y-36060000D01*
X56737285Y-35964761D01*
X56594428Y-35821904D01*
X56499190Y-35774285D01*
X56403952Y-35774285D01*
X56451571Y-36012380D02*
X56356333Y-35964761D01*
X56261095Y-35869523D01*
X56213476Y-35679047D01*
X56213476Y-35345714D01*
X56261095Y-35155238D01*
X56356333Y-35060000D01*
X56451571Y-35012380D01*
X56642047Y-35012380D01*
X56737285Y-35060000D01*
X56832523Y-35155238D01*
X56880142Y-35345714D01*
X56880142Y-35679047D01*
X56832523Y-35869523D01*
X56737285Y-35964761D01*
X56642047Y-36012380D01*
X56451571Y-36012380D01*
X57832523Y-36012380D02*
X57261095Y-36012380D01*
X57546809Y-36012380D02*
X57546809Y-35012380D01*
X57451571Y-35155238D01*
X57356333Y-35250476D01*
X57261095Y-35298095D01*
%TO.C,C3*%
X59220333Y-35409142D02*
X59172714Y-35456761D01*
X59029857Y-35504380D01*
X58934619Y-35504380D01*
X58791761Y-35456761D01*
X58696523Y-35361523D01*
X58648904Y-35266285D01*
X58601285Y-35075809D01*
X58601285Y-34932952D01*
X58648904Y-34742476D01*
X58696523Y-34647238D01*
X58791761Y-34552000D01*
X58934619Y-34504380D01*
X59029857Y-34504380D01*
X59172714Y-34552000D01*
X59220333Y-34599619D01*
X59553666Y-34504380D02*
X60172714Y-34504380D01*
X59839380Y-34885333D01*
X59982238Y-34885333D01*
X60077476Y-34932952D01*
X60125095Y-34980571D01*
X60172714Y-35075809D01*
X60172714Y-35313904D01*
X60125095Y-35409142D01*
X60077476Y-35456761D01*
X59982238Y-35504380D01*
X59696523Y-35504380D01*
X59601285Y-35456761D01*
X59553666Y-35409142D01*
%TO.C,R3*%
X54748692Y-34869380D02*
X54415359Y-34393190D01*
X54177263Y-34869380D02*
X54177263Y-33869380D01*
X54558216Y-33869380D01*
X54653454Y-33917000D01*
X54701073Y-33964619D01*
X54748692Y-34059857D01*
X54748692Y-34202714D01*
X54701073Y-34297952D01*
X54653454Y-34345571D01*
X54558216Y-34393190D01*
X54177263Y-34393190D01*
X55082025Y-33869380D02*
X55701073Y-33869380D01*
X55367739Y-34250333D01*
X55510597Y-34250333D01*
X55605835Y-34297952D01*
X55653454Y-34345571D01*
X55701073Y-34440809D01*
X55701073Y-34678904D01*
X55653454Y-34774142D01*
X55605835Y-34821761D01*
X55510597Y-34869380D01*
X55224882Y-34869380D01*
X55129644Y-34821761D01*
X55082025Y-34774142D01*
%TO.C,U1*%
X116078095Y-96422380D02*
X116078095Y-97231904D01*
X116125714Y-97327142D01*
X116173333Y-97374761D01*
X116268571Y-97422380D01*
X116459047Y-97422380D01*
X116554285Y-97374761D01*
X116601904Y-97327142D01*
X116649523Y-97231904D01*
X116649523Y-96422380D01*
X117649523Y-97422380D02*
X117078095Y-97422380D01*
X117363809Y-97422380D02*
X117363809Y-96422380D01*
X117268571Y-96565238D01*
X117173333Y-96660476D01*
X117078095Y-96708095D01*
D15*
%TO.C,A4*%
X67310000Y-91440000D02*
X74930000Y-91440000D01*
X67310000Y-90170000D02*
X67310000Y-91440000D01*
X74930000Y-91440000D02*
X74930000Y-88900000D01*
X74930000Y-88900000D02*
X68580000Y-88900000D01*
D16*
%TO.C,A1*%
X48270000Y-80010000D02*
X48270000Y-77470000D01*
X60970000Y-77470000D02*
X63640000Y-77470000D01*
X45600000Y-80010000D02*
X45600000Y-118240000D01*
X60970000Y-77470000D02*
X60970000Y-115570000D01*
X63640000Y-74800000D02*
X45600000Y-74800000D01*
X48270000Y-77470000D02*
X45600000Y-77470000D01*
X48270000Y-115570000D02*
X45600000Y-115570000D01*
X63640000Y-118240000D02*
X63640000Y-74800000D01*
X45600000Y-74800000D02*
X45600000Y-77470000D01*
X48270000Y-80010000D02*
X48270000Y-115570000D01*
X48270000Y-80010000D02*
X45600000Y-80010000D01*
X60970000Y-115570000D02*
X63640000Y-115570000D01*
X45600000Y-118240000D02*
X63640000Y-118240000D01*
%TO.C,L1*%
X62948000Y-45271000D02*
X62948000Y-42071000D01*
X62948000Y-52671000D02*
X62948000Y-49471000D01*
X62948000Y-42071000D02*
X73548000Y-42071000D01*
X73548000Y-42071000D02*
X73548000Y-45271000D01*
X73548000Y-49471000D02*
X73548000Y-52671000D01*
X73548000Y-52671000D02*
X62948000Y-52671000D01*
%TO.C,C2*%
X66139000Y-38785748D02*
X66139000Y-40208252D01*
X64319000Y-38785748D02*
X64319000Y-40208252D01*
D15*
%TO.C,J112*%
X152930000Y-128270000D02*
X152930000Y-128270000D01*
X152830000Y-128270000D02*
X152830000Y-128270000D01*
X152930000Y-128270000D02*
X152930000Y-128270000D01*
X151535000Y-126480000D02*
X151535000Y-124980000D01*
X150725000Y-126480000D02*
X150725000Y-124980000D01*
X152930000Y-128270000D02*
G75*
G03*
X152830000Y-128270000I-50000J0D01*
G01*
X152930000Y-128270000D02*
G75*
G03*
X152830000Y-128270000I-50000J0D01*
G01*
X152830000Y-128270000D02*
G75*
G03*
X152930000Y-128270000I50000J0D01*
G01*
D16*
%TO.C,R6*%
X54206641Y-49402000D02*
X53899359Y-49402000D01*
X54206641Y-48642000D02*
X53899359Y-48642000D01*
D17*
%TO.C,K2*%
X124980000Y-97270000D02*
X124980000Y-101520000D01*
X145280000Y-93910000D02*
X145280000Y-93910000D01*
D15*
X124060000Y-103120000D02*
X124060000Y-103120000D01*
D17*
X124980000Y-101520000D02*
X124980000Y-101520000D01*
X124980000Y-97270000D02*
X124980000Y-97270000D01*
X145280000Y-101520000D02*
X145280000Y-93910000D01*
X145280000Y-93910000D02*
X124980000Y-93910000D01*
X145280000Y-93910000D02*
X145280000Y-101520000D01*
X124980000Y-101520000D02*
X124980000Y-97270000D01*
X145280000Y-93910000D02*
X145280000Y-93910000D01*
X124980000Y-93910000D02*
X145280000Y-93910000D01*
D15*
X123960000Y-103120000D02*
X123960000Y-103120000D01*
D17*
X145280000Y-101520000D02*
X145280000Y-101520000D01*
D15*
X123960000Y-103120000D02*
X123960000Y-103120000D01*
D17*
X124980000Y-93910000D02*
X124980000Y-93910000D01*
D15*
X123960000Y-103120000D02*
G75*
G03*
X124060000Y-103120000I50000J0D01*
G01*
X124060000Y-103120000D02*
G75*
G03*
X123960000Y-103120000I-50000J0D01*
G01*
X123960000Y-103120000D02*
G75*
G03*
X124060000Y-103120000I50000J0D01*
G01*
%TO.C,A0*%
X74930000Y-111760000D02*
X74930000Y-109220000D01*
X67310000Y-110490000D02*
X67310000Y-111760000D01*
X74930000Y-109220000D02*
X68580000Y-109220000D01*
X67310000Y-111760000D02*
X74930000Y-111760000D01*
D16*
%TO.C,R2*%
X44109621Y-78360000D02*
X43774379Y-78360000D01*
X44109621Y-79120000D02*
X43774379Y-79120000D01*
D15*
%TO.C,J\u002A\u002A*%
X137910000Y-64365000D02*
X136410000Y-64365000D01*
X139700000Y-62970000D02*
X139700000Y-62970000D01*
X139700000Y-63070000D02*
X139700000Y-63070000D01*
X139700000Y-62970000D02*
X139700000Y-62970000D01*
X137910000Y-65175000D02*
X136410000Y-65175000D01*
X139700000Y-62970000D02*
G75*
G03*
X139700000Y-63070000I0J-50000D01*
G01*
X139700000Y-62970000D02*
G75*
G03*
X139700000Y-63070000I0J-50000D01*
G01*
X139700000Y-63070000D02*
G75*
G03*
X139700000Y-62970000I0J50000D01*
G01*
%TO.C,J2*%
X40640000Y-41235000D02*
X40640000Y-41235000D01*
X42430000Y-39840000D02*
X43930000Y-39840000D01*
X42430000Y-39030000D02*
X43930000Y-39030000D01*
X40640000Y-41235000D02*
X40640000Y-41235000D01*
X40640000Y-41135000D02*
X40640000Y-41135000D01*
X40640000Y-41135000D02*
G75*
G03*
X40640000Y-41235000I0J-50000D01*
G01*
X40640000Y-41235000D02*
G75*
G03*
X40640000Y-41135000I0J50000D01*
G01*
X40640000Y-41235000D02*
G75*
G03*
X40640000Y-41135000I0J50000D01*
G01*
D16*
%TO.C,D2*%
X52871000Y-48995000D02*
X52871000Y-47525000D01*
X52871000Y-47525000D02*
X50586000Y-47525000D01*
X50586000Y-48995000D02*
X52871000Y-48995000D01*
%TO.C,C5*%
X59281748Y-44556000D02*
X60704252Y-44556000D01*
X59281748Y-46376000D02*
X60704252Y-46376000D01*
%TO.C,Q2*%
X53545000Y-42144000D02*
X55495000Y-42144000D01*
X53545000Y-42144000D02*
X50095000Y-42144000D01*
X53545000Y-47264000D02*
X51595000Y-47264000D01*
X53545000Y-47264000D02*
X55495000Y-47264000D01*
%TO.C,R7*%
X54206641Y-47626000D02*
X53899359Y-47626000D01*
X54206641Y-48386000D02*
X53899359Y-48386000D01*
D15*
%TO.C,J\u002A\u002A*%
X152146000Y-56620000D02*
X152146000Y-56620000D01*
X150356000Y-58825000D02*
X148856000Y-58825000D01*
X152146000Y-56720000D02*
X152146000Y-56720000D01*
X152146000Y-56620000D02*
X152146000Y-56620000D01*
X150356000Y-58015000D02*
X148856000Y-58015000D01*
X152146000Y-56620000D02*
G75*
G03*
X152146000Y-56720000I0J-50000D01*
G01*
X152146000Y-56720000D02*
G75*
G03*
X152146000Y-56620000I0J50000D01*
G01*
X152146000Y-56620000D02*
G75*
G03*
X152146000Y-56720000I0J-50000D01*
G01*
X139700000Y-50270000D02*
X139700000Y-50270000D01*
X137910000Y-52475000D02*
X136410000Y-52475000D01*
X139700000Y-50370000D02*
X139700000Y-50370000D01*
X139700000Y-50270000D02*
X139700000Y-50270000D01*
X137910000Y-51665000D02*
X136410000Y-51665000D01*
X139700000Y-50270000D02*
G75*
G03*
X139700000Y-50370000I0J-50000D01*
G01*
X139700000Y-50270000D02*
G75*
G03*
X139700000Y-50370000I0J-50000D01*
G01*
X139700000Y-50370000D02*
G75*
G03*
X139700000Y-50270000I0J50000D01*
G01*
%TO.C,J5*%
X152830000Y-101600000D02*
X152830000Y-101600000D01*
X150725000Y-99810000D02*
X150725000Y-98310000D01*
X151535000Y-99810000D02*
X151535000Y-98310000D01*
X152930000Y-101600000D02*
X152930000Y-101600000D01*
X152930000Y-101600000D02*
X152930000Y-101600000D01*
X152830000Y-101600000D02*
G75*
G03*
X152930000Y-101600000I50000J0D01*
G01*
X152930000Y-101600000D02*
G75*
G03*
X152830000Y-101600000I-50000J0D01*
G01*
X152930000Y-101600000D02*
G75*
G03*
X152830000Y-101600000I-50000J0D01*
G01*
%TO.C,J4*%
X152170000Y-87745000D02*
X152170000Y-86245000D01*
X153465000Y-89535000D02*
X153465000Y-89535000D01*
X151360000Y-87745000D02*
X151360000Y-86245000D01*
X153565000Y-89535000D02*
X153565000Y-89535000D01*
X153565000Y-89535000D02*
X153565000Y-89535000D01*
X153565000Y-89535000D02*
G75*
G03*
X153465000Y-89535000I-50000J0D01*
G01*
X153465000Y-89535000D02*
G75*
G03*
X153565000Y-89535000I50000J0D01*
G01*
X153565000Y-89535000D02*
G75*
G03*
X153465000Y-89535000I-50000J0D01*
G01*
D16*
%TO.C,R4*%
X58524641Y-40895000D02*
X58217359Y-40895000D01*
X58524641Y-41655000D02*
X58217359Y-41655000D01*
D15*
%TO.C,J1*%
X87874000Y-124914000D02*
X92974000Y-124914000D01*
X89154000Y-73714000D02*
X87874000Y-73714000D01*
X87874000Y-73714000D02*
X87874000Y-124914000D01*
X92974000Y-124914000D02*
X92974000Y-75184000D01*
%TO.C,K3*%
X124060000Y-115820000D02*
X124060000Y-115820000D01*
D17*
X124980000Y-114220000D02*
X124980000Y-109970000D01*
X124980000Y-109970000D02*
X124980000Y-114220000D01*
X145280000Y-114220000D02*
X145280000Y-106610000D01*
X124980000Y-106610000D02*
X145280000Y-106610000D01*
X145280000Y-106610000D02*
X145280000Y-114220000D01*
X124980000Y-106610000D02*
X124980000Y-106610000D01*
X145280000Y-106610000D02*
X145280000Y-106610000D01*
X124980000Y-114220000D02*
X124980000Y-114220000D01*
D15*
X123960000Y-115820000D02*
X123960000Y-115820000D01*
D17*
X145280000Y-106610000D02*
X124980000Y-106610000D01*
D15*
X123960000Y-115820000D02*
X123960000Y-115820000D01*
D17*
X145280000Y-114220000D02*
X145280000Y-114220000D01*
X145280000Y-106610000D02*
X145280000Y-106610000D01*
X124980000Y-109970000D02*
X124980000Y-109970000D01*
D15*
X124060000Y-115820000D02*
G75*
G03*
X123960000Y-115820000I-50000J0D01*
G01*
X123960000Y-115820000D02*
G75*
G03*
X124060000Y-115820000I50000J0D01*
G01*
X123960000Y-115820000D02*
G75*
G03*
X124060000Y-115820000I50000J0D01*
G01*
D16*
%TO.C,D1*%
X53887000Y-36295000D02*
X53887000Y-34825000D01*
X53887000Y-34825000D02*
X51602000Y-34825000D01*
X51602000Y-36295000D02*
X53887000Y-36295000D01*
%TO.C,R5*%
X60556641Y-41655000D02*
X60249359Y-41655000D01*
X60556641Y-40895000D02*
X60249359Y-40895000D01*
D15*
%TO.C,A3*%
X74930000Y-96520000D02*
X74930000Y-93980000D01*
X67310000Y-95250000D02*
X67310000Y-96520000D01*
X67310000Y-96520000D02*
X74930000Y-96520000D01*
X74930000Y-93980000D02*
X68580000Y-93980000D01*
D16*
%TO.C,U3*%
X59387000Y-37429000D02*
X60187000Y-37429000D01*
X59387000Y-40549000D02*
X58587000Y-40549000D01*
X59387000Y-37429000D02*
X57587000Y-37429000D01*
X59387000Y-40549000D02*
X60187000Y-40549000D01*
%TO.C,U2*%
X118110000Y-60980000D02*
X120060000Y-60980000D01*
X118110000Y-60980000D02*
X114660000Y-60980000D01*
X118110000Y-71100000D02*
X120060000Y-71100000D01*
X118110000Y-71100000D02*
X116160000Y-71100000D01*
%TO.C,C4*%
X59281748Y-42143000D02*
X60704252Y-42143000D01*
X59281748Y-43963000D02*
X60704252Y-43963000D01*
D15*
%TO.C,A2*%
X74930000Y-101600000D02*
X74930000Y-99060000D01*
X67310000Y-101600000D02*
X74930000Y-101600000D01*
X67310000Y-100330000D02*
X67310000Y-101600000D01*
X74930000Y-99060000D02*
X68580000Y-99060000D01*
D17*
%TO.C,K4*%
X124980000Y-119310000D02*
X124980000Y-119310000D01*
D15*
X124060000Y-128520000D02*
X124060000Y-128520000D01*
D17*
X124980000Y-126920000D02*
X124980000Y-126920000D01*
D15*
X123960000Y-128520000D02*
X123960000Y-128520000D01*
D17*
X145280000Y-119310000D02*
X145280000Y-126920000D01*
X145280000Y-119310000D02*
X145280000Y-119310000D01*
X145280000Y-126920000D02*
X145280000Y-126920000D01*
X124980000Y-126920000D02*
X124980000Y-122670000D01*
X145280000Y-126920000D02*
X145280000Y-119310000D01*
D15*
X123960000Y-128520000D02*
X123960000Y-128520000D01*
D17*
X124980000Y-122670000D02*
X124980000Y-126920000D01*
X145280000Y-119310000D02*
X124980000Y-119310000D01*
X124980000Y-122670000D02*
X124980000Y-122670000D01*
X145280000Y-119310000D02*
X145280000Y-119310000D01*
X124980000Y-119310000D02*
X145280000Y-119310000D01*
D15*
X123960000Y-128520000D02*
G75*
G03*
X124060000Y-128520000I50000J0D01*
G01*
X123960000Y-128520000D02*
G75*
G03*
X124060000Y-128520000I50000J0D01*
G01*
X124060000Y-128520000D02*
G75*
G03*
X123960000Y-128520000I-50000J0D01*
G01*
D16*
%TO.C,R1*%
X44324000Y-76704879D02*
X44324000Y-77040121D01*
X45084000Y-76704879D02*
X45084000Y-77040121D01*
D15*
%TO.C,A1*%
X74930000Y-104140000D02*
X68580000Y-104140000D01*
X67310000Y-106680000D02*
X74930000Y-106680000D01*
X74930000Y-106680000D02*
X74930000Y-104140000D01*
X67310000Y-105410000D02*
X67310000Y-106680000D01*
%TO.C,J3*%
X40640000Y-46885000D02*
X40640000Y-46885000D01*
X42430000Y-45490000D02*
X43930000Y-45490000D01*
X42430000Y-44680000D02*
X43930000Y-44680000D01*
X40640000Y-46885000D02*
X40640000Y-46885000D01*
X40640000Y-46785000D02*
X40640000Y-46785000D01*
X40640000Y-46885000D02*
G75*
G03*
X40640000Y-46785000I0J50000D01*
G01*
X40640000Y-46785000D02*
G75*
G03*
X40640000Y-46885000I0J-50000D01*
G01*
X40640000Y-46885000D02*
G75*
G03*
X40640000Y-46785000I0J50000D01*
G01*
D16*
%TO.C,C1*%
X61779000Y-38785748D02*
X61779000Y-40208252D01*
X63599000Y-38785748D02*
X63599000Y-40208252D01*
D15*
%TO.C,J\u002A\u002A*%
X152146000Y-69320000D02*
X152146000Y-69320000D01*
X152146000Y-69320000D02*
X152146000Y-69320000D01*
X152146000Y-69420000D02*
X152146000Y-69420000D01*
X150356000Y-71525000D02*
X148856000Y-71525000D01*
X150356000Y-70715000D02*
X148856000Y-70715000D01*
X152146000Y-69320000D02*
G75*
G03*
X152146000Y-69420000I0J-50000D01*
G01*
X152146000Y-69420000D02*
G75*
G03*
X152146000Y-69320000I0J50000D01*
G01*
X152146000Y-69320000D02*
G75*
G03*
X152146000Y-69420000I0J-50000D01*
G01*
%TO.C,J6*%
X152930000Y-114935000D02*
X152930000Y-114935000D01*
X152830000Y-114935000D02*
X152830000Y-114935000D01*
X152930000Y-114935000D02*
X152930000Y-114935000D01*
X150725000Y-113145000D02*
X150725000Y-111645000D01*
X151535000Y-113145000D02*
X151535000Y-111645000D01*
X152830000Y-114935000D02*
G75*
G03*
X152930000Y-114935000I50000J0D01*
G01*
X152930000Y-114935000D02*
G75*
G03*
X152830000Y-114935000I-50000J0D01*
G01*
X152930000Y-114935000D02*
G75*
G03*
X152830000Y-114935000I-50000J0D01*
G01*
D17*
%TO.C,K1*%
X145280000Y-81210000D02*
X124980000Y-81210000D01*
X145280000Y-88820000D02*
X145280000Y-81210000D01*
X124980000Y-84570000D02*
X124980000Y-88820000D01*
X124980000Y-88820000D02*
X124980000Y-84570000D01*
D15*
X123960000Y-90420000D02*
X123960000Y-90420000D01*
D17*
X145280000Y-88820000D02*
X145280000Y-88820000D01*
X124980000Y-81210000D02*
X124980000Y-81210000D01*
D15*
X124060000Y-90420000D02*
X124060000Y-90420000D01*
D17*
X145280000Y-81210000D02*
X145280000Y-81210000D01*
D15*
X123960000Y-90420000D02*
X123960000Y-90420000D01*
D17*
X124980000Y-81210000D02*
X145280000Y-81210000D01*
X145280000Y-81210000D02*
X145280000Y-81210000D01*
X145280000Y-81210000D02*
X145280000Y-88820000D01*
X124980000Y-88820000D02*
X124980000Y-88820000D01*
X124980000Y-84570000D02*
X124980000Y-84570000D01*
D15*
X124060000Y-90420000D02*
G75*
G03*
X123960000Y-90420000I-50000J0D01*
G01*
X123960000Y-90420000D02*
G75*
G03*
X124060000Y-90420000I50000J0D01*
G01*
X123960000Y-90420000D02*
G75*
G03*
X124060000Y-90420000I50000J0D01*
G01*
%TO.C,J\u002A\u002A*%
X152146000Y-62970000D02*
X152146000Y-62970000D01*
X150356000Y-64365000D02*
X148856000Y-64365000D01*
X152146000Y-63070000D02*
X152146000Y-63070000D01*
X152146000Y-62970000D02*
X152146000Y-62970000D01*
X150356000Y-65175000D02*
X148856000Y-65175000D01*
X152146000Y-63070000D02*
G75*
G03*
X152146000Y-62970000I0J50000D01*
G01*
X152146000Y-62970000D02*
G75*
G03*
X152146000Y-63070000I0J-50000D01*
G01*
X152146000Y-62970000D02*
G75*
G03*
X152146000Y-63070000I0J-50000D01*
G01*
%TO.C,T/H*%
X78486000Y-63500000D02*
X72136000Y-63500000D01*
X70866000Y-66040000D02*
X78486000Y-66040000D01*
X70866000Y-64770000D02*
X70866000Y-66040000D01*
X78486000Y-66040000D02*
X78486000Y-63500000D01*
D16*
%TO.C,Q1*%
X53545000Y-36556000D02*
X51595000Y-36556000D01*
X53545000Y-41676000D02*
X51595000Y-41676000D01*
X53545000Y-41676000D02*
X56995000Y-41676000D01*
X53545000Y-36556000D02*
X55495000Y-36556000D01*
D15*
%TO.C,J\u002A\u002A*%
X139700000Y-56620000D02*
X139700000Y-56620000D01*
X139700000Y-56720000D02*
X139700000Y-56720000D01*
X139700000Y-56620000D02*
X139700000Y-56620000D01*
X137910000Y-58015000D02*
X136410000Y-58015000D01*
X137910000Y-58825000D02*
X136410000Y-58825000D01*
X139700000Y-56620000D02*
G75*
G03*
X139700000Y-56720000I0J-50000D01*
G01*
X139700000Y-56620000D02*
G75*
G03*
X139700000Y-56720000I0J-50000D01*
G01*
X139700000Y-56720000D02*
G75*
G03*
X139700000Y-56620000I0J50000D01*
G01*
%TO.C,J8*%
X152930000Y-141605000D02*
X152930000Y-141605000D01*
X151535000Y-139815000D02*
X151535000Y-138315000D01*
X152830000Y-141605000D02*
X152830000Y-141605000D01*
X152930000Y-141605000D02*
X152930000Y-141605000D01*
X150725000Y-139815000D02*
X150725000Y-138315000D01*
X152930000Y-141605000D02*
G75*
G03*
X152830000Y-141605000I-50000J0D01*
G01*
X152830000Y-141605000D02*
G75*
G03*
X152930000Y-141605000I50000J0D01*
G01*
X152930000Y-141605000D02*
G75*
G03*
X152830000Y-141605000I-50000J0D01*
G01*
D16*
%TO.C,C3*%
X59246420Y-35939000D02*
X59527580Y-35939000D01*
X59246420Y-36959000D02*
X59527580Y-36959000D01*
%TO.C,R3*%
X55222641Y-35180000D02*
X54915359Y-35180000D01*
X55222641Y-35940000D02*
X54915359Y-35940000D01*
%TO.C,U1*%
X116840000Y-97810000D02*
X113390000Y-97810000D01*
X116840000Y-97810000D02*
X118790000Y-97810000D01*
X116840000Y-107930000D02*
X118790000Y-107930000D01*
X116840000Y-107930000D02*
X114890000Y-107930000D01*
D15*
%TO.C,J\u002A\u002A*%
X152146000Y-50270000D02*
X152146000Y-50270000D01*
X152146000Y-50270000D02*
X152146000Y-50270000D01*
X150356000Y-51665000D02*
X148856000Y-51665000D01*
X152146000Y-50370000D02*
X152146000Y-50370000D01*
X150356000Y-52475000D02*
X148856000Y-52475000D01*
X152146000Y-50270000D02*
G75*
G03*
X152146000Y-50370000I0J-50000D01*
G01*
X152146000Y-50370000D02*
G75*
G03*
X152146000Y-50270000I0J50000D01*
G01*
X152146000Y-50270000D02*
G75*
G03*
X152146000Y-50370000I0J-50000D01*
G01*
X139700000Y-69320000D02*
X139700000Y-69320000D01*
X137910000Y-71525000D02*
X136410000Y-71525000D01*
X139700000Y-69320000D02*
X139700000Y-69320000D01*
X139700000Y-69420000D02*
X139700000Y-69420000D01*
X137910000Y-70715000D02*
X136410000Y-70715000D01*
X139700000Y-69320000D02*
G75*
G03*
X139700000Y-69420000I0J-50000D01*
G01*
X139700000Y-69320000D02*
G75*
G03*
X139700000Y-69420000I0J-50000D01*
G01*
X139700000Y-69420000D02*
G75*
G03*
X139700000Y-69320000I0J50000D01*
G01*
%TD*%
M02*
