%TF.GenerationSoftware,KiCad,Pcbnew,6.0.8-f2edbf62ab~116~ubuntu20.04.1*%
%TF.CreationDate,2022-10-25T18:56:44-07:00*%
%TF.ProjectId,Control_Board,436f6e74-726f-46c5-9f42-6f6172642e6b,rev?*%
%TF.SameCoordinates,Original*%
%TF.FileFunction,Profile,NP*%
%FSLAX46Y46*%
G04 Gerber Fmt 4.6, Leading zero omitted, Abs format (unit mm)*
G04 Created by KiCad (PCBNEW 6.0.8-f2edbf62ab~116~ubuntu20.04.1) date 2022-10-25 18:56:44*
%MOMM*%
%LPD*%
G01*
G04 APERTURE LIST*
%TA.AperFunction,Profile*%
%ADD10C,0.100000*%
%TD*%
%TA.AperFunction,Profile*%
%ADD11C,0.500000*%
%TD*%
G04 APERTURE END LIST*
D10*
X162007550Y-82282757D02*
X163912550Y-82282757D01*
D11*
X156800550Y-154926757D02*
G75*
G03*
X146640550Y-154926757I-5080000J0D01*
G01*
D10*
X163912550Y-143877843D02*
G75*
G03*
X163912550Y-143115757I50J381043D01*
G01*
X162007550Y-44055757D02*
X163912550Y-44055757D01*
X157343550Y-145782757D02*
X143500550Y-145782757D01*
X163912550Y-96252843D02*
G75*
G03*
X163912550Y-95490757I50J381043D01*
G01*
X163912550Y-124192843D02*
G75*
G03*
X163912550Y-123430757I50J381043D01*
G01*
X162007550Y-128510757D02*
X163912550Y-128510757D01*
X131553524Y-119239757D02*
X131553523Y-134784557D01*
X162007550Y-128510843D02*
G75*
G03*
X162007550Y-129272757I50J-380957D01*
G01*
X162007550Y-40372757D02*
X163912550Y-40372757D01*
X162007550Y-148957757D02*
X163912550Y-148957757D01*
X162007550Y-39610757D02*
X163912550Y-39610757D01*
X162007550Y-143115757D02*
X163912550Y-143115757D01*
X162007550Y-129272757D02*
X163912550Y-129272757D01*
X162007550Y-49135757D02*
X163912550Y-49135757D01*
X162007550Y-123430757D02*
X163912550Y-123430757D01*
X162007550Y-28942757D02*
X163912550Y-28942757D01*
X162007550Y-39610843D02*
G75*
G03*
X162007550Y-40372757I50J-380957D01*
G01*
X163912550Y-68312843D02*
G75*
G03*
X163912550Y-67550757I50J381043D01*
G01*
X163912550Y-129272843D02*
G75*
G03*
X163912550Y-128510757I50J381043D01*
G01*
X162007550Y-35292843D02*
G75*
G03*
X162007550Y-36054757I50J-380957D01*
G01*
X141986000Y-132359400D02*
X140716000Y-131470400D01*
X162007550Y-71995757D02*
X163912550Y-71995757D01*
D11*
X146640550Y-154926757D02*
X40595550Y-154926757D01*
D10*
X162007550Y-120382757D02*
X163912550Y-120382757D01*
X163912550Y-58787843D02*
G75*
G03*
X163912550Y-58025757I50J381043D01*
G01*
X162007550Y-35292757D02*
X163912550Y-35292757D01*
X163912550Y-148957843D02*
G75*
G03*
X163912550Y-148195757I50J381043D01*
G01*
X162007550Y-49135843D02*
G75*
G03*
X162007550Y-49897757I50J-380957D01*
G01*
X162007550Y-96252757D02*
X163912550Y-96252757D01*
X139954000Y-79248000D02*
X139954000Y-131724400D01*
X162007550Y-54342757D02*
X163912550Y-54342757D01*
X162007550Y-85965843D02*
G75*
G03*
X162007550Y-86727757I50J-380957D01*
G01*
X162007550Y-77075757D02*
X163912550Y-77075757D01*
X45524550Y-146394854D02*
G75*
G03*
X45524550Y-146394854I-1500000J0D01*
G01*
X130800550Y-135089357D02*
X130791525Y-119239757D01*
X163912550Y-40372843D02*
G75*
G03*
X163912550Y-39610757I50J381043D01*
G01*
X163912550Y-106412843D02*
G75*
G03*
X163912550Y-105650757I50J381043D01*
G01*
X163912550Y-114667843D02*
G75*
G03*
X163912550Y-113905757I50J381043D01*
G01*
X163912550Y-110222843D02*
G75*
G03*
X163912550Y-109460757I50J381043D01*
G01*
X162007550Y-53580757D02*
X163912550Y-53580757D01*
X141604999Y-132994400D02*
X139954000Y-131724400D01*
X162007550Y-95490843D02*
G75*
G03*
X162007550Y-96252757I50J-380957D01*
G01*
X162007550Y-91807757D02*
X163912550Y-91807757D01*
X163912550Y-44817843D02*
G75*
G03*
X163912550Y-44055757I50J381043D01*
G01*
X162007550Y-133590843D02*
G75*
G03*
X162007550Y-134352757I50J-380957D01*
G01*
X162007550Y-95490757D02*
X163912550Y-95490757D01*
D11*
X146601017Y-24116757D02*
X40635083Y-24116757D01*
D10*
X162007550Y-138035757D02*
X163912550Y-138035757D01*
X162007550Y-81520843D02*
G75*
G03*
X162007550Y-82282757I50J-380957D01*
G01*
X162745550Y-146290757D02*
G75*
G03*
X162745550Y-146290757I-1500000J0D01*
G01*
D11*
X165055550Y-154926757D02*
X156800550Y-154926757D01*
D10*
X131553524Y-119239757D02*
X131553524Y-117334757D01*
X162007550Y-63105757D02*
X163912550Y-63105757D01*
X162007550Y-44817757D02*
X163912550Y-44817757D01*
X163912550Y-49897843D02*
G75*
G03*
X163912550Y-49135757I50J381043D01*
G01*
X162007550Y-148195757D02*
X163912550Y-148195757D01*
X162007550Y-148195843D02*
G75*
G03*
X162007550Y-148957757I50J-380957D01*
G01*
X162007550Y-109460757D02*
X163912550Y-109460757D01*
X130791525Y-119239757D02*
X130810000Y-78740000D01*
X163912550Y-86727843D02*
G75*
G03*
X163912550Y-85965757I50J381043D01*
G01*
X162007550Y-71995843D02*
G75*
G03*
X162007550Y-72757757I50J-380957D01*
G01*
X162007550Y-119620757D02*
X163912550Y-119620757D01*
X162007550Y-77075843D02*
G75*
G03*
X162007550Y-77837757I50J-380957D01*
G01*
X162007550Y-86727757D02*
X163912550Y-86727757D01*
X162007550Y-99935757D02*
X163912550Y-99935757D01*
X162007550Y-99935843D02*
G75*
G03*
X162007550Y-100697757I50J-380957D01*
G01*
X131553524Y-78740000D02*
X131553523Y-121462800D01*
X163912550Y-63867843D02*
G75*
G03*
X163912550Y-63105757I50J381043D01*
G01*
X163912550Y-82282843D02*
G75*
G03*
X163912550Y-81520757I50J381043D01*
G01*
X162007550Y-143877757D02*
X163912550Y-143877757D01*
X162007550Y-123430843D02*
G75*
G03*
X162007550Y-124192757I50J-380957D01*
G01*
X162007550Y-109460843D02*
G75*
G03*
X162007550Y-110222757I50J-380957D01*
G01*
X162007550Y-63867757D02*
X163912550Y-63867757D01*
D11*
X156840083Y-24116757D02*
X165055550Y-24116757D01*
D10*
X157353000Y-132359402D02*
X141986000Y-132359400D01*
X162007550Y-133590757D02*
X163912550Y-133590757D01*
X162007550Y-67550843D02*
G75*
G03*
X162007550Y-68312757I50J-380957D01*
G01*
X162007550Y-44055843D02*
G75*
G03*
X162007550Y-44817757I50J-380957D01*
G01*
X163912550Y-36054843D02*
G75*
G03*
X163912550Y-35292757I50J381043D01*
G01*
D11*
X165055550Y-149846757D02*
X165055550Y-154926757D01*
D10*
X163912550Y-138797843D02*
G75*
G03*
X163912550Y-138035757I50J381043D01*
G01*
X162007550Y-119620843D02*
G75*
G03*
X162007550Y-120382757I50J-380957D01*
G01*
X157352999Y-132994400D02*
X141604999Y-132994400D01*
X163912550Y-77837843D02*
G75*
G03*
X163912550Y-77075757I50J381043D01*
G01*
X157343550Y-145020759D02*
X143779950Y-145020757D01*
X162007550Y-77837757D02*
X163912550Y-77837757D01*
X162007550Y-105650757D02*
X163912550Y-105650757D01*
X162007550Y-85965757D02*
X163912550Y-85965757D01*
X162007550Y-134352757D02*
X163912550Y-134352757D01*
X162007550Y-67550757D02*
X163912550Y-67550757D01*
X162007550Y-58025843D02*
G75*
G03*
X162007550Y-58787757I50J-380957D01*
G01*
X162007550Y-58787757D02*
X163912550Y-58787757D01*
D11*
X35515550Y-29236293D02*
G75*
G03*
X40635083Y-24116757I0J5119533D01*
G01*
X146601017Y-24116757D02*
G75*
G03*
X156840083Y-24116757I5119533J0D01*
G01*
D10*
X163912550Y-72757843D02*
G75*
G03*
X163912550Y-71995757I50J381043D01*
G01*
X163912550Y-29704843D02*
G75*
G03*
X163912550Y-28942757I50J381043D01*
G01*
X162007550Y-58025757D02*
X163912550Y-58025757D01*
X131553524Y-78740000D02*
X130810000Y-78740000D01*
X162007550Y-143115843D02*
G75*
G03*
X162007550Y-143877757I50J-380957D01*
G01*
X162007550Y-124192757D02*
X163912550Y-124192757D01*
X163912550Y-91807843D02*
G75*
G03*
X163912550Y-91045757I50J381043D01*
G01*
X162007550Y-114667757D02*
X163912550Y-114667757D01*
X162007550Y-36054757D02*
X163912550Y-36054757D01*
X162007550Y-91045757D02*
X163912550Y-91045757D01*
X130800550Y-135089357D02*
X143500550Y-145782757D01*
X162007550Y-91045843D02*
G75*
G03*
X162007550Y-91807757I50J-380957D01*
G01*
X162007550Y-100697757D02*
X163912550Y-100697757D01*
D11*
X35515550Y-149846757D02*
X35515550Y-29236290D01*
D10*
X163912550Y-134352843D02*
G75*
G03*
X163912550Y-133590757I50J381043D01*
G01*
X157343550Y-145020759D02*
X157343550Y-145782757D01*
X162007550Y-63105843D02*
G75*
G03*
X162007550Y-63867757I50J-380957D01*
G01*
X140716000Y-79248000D02*
X140716000Y-131470400D01*
D11*
X165055550Y-24116757D02*
X165055550Y-29236290D01*
D10*
X163912550Y-120382843D02*
G75*
G03*
X163912550Y-119620757I50J381043D01*
G01*
X162007550Y-53580843D02*
G75*
G03*
X162007550Y-54342757I50J-380957D01*
G01*
X131553523Y-134784557D02*
X143779950Y-145020757D01*
X162007550Y-49897757D02*
X163912550Y-49897757D01*
X162007550Y-113905757D02*
X163912550Y-113905757D01*
X157353000Y-132359402D02*
X157352999Y-132994400D01*
X162007550Y-29704757D02*
X163912550Y-29704757D01*
X162007550Y-113905843D02*
G75*
G03*
X162007550Y-114667757I50J-380957D01*
G01*
X162007550Y-110222757D02*
X163912550Y-110222757D01*
X162007550Y-105650843D02*
G75*
G03*
X162007550Y-106412757I50J-380957D01*
G01*
X163912550Y-54342843D02*
G75*
G03*
X163912550Y-53580757I50J381043D01*
G01*
X162007550Y-81520757D02*
X163912550Y-81520757D01*
X162007550Y-68312757D02*
X163912550Y-68312757D01*
X162007550Y-28942843D02*
G75*
G03*
X162007550Y-29704757I50J-380957D01*
G01*
D11*
X165055550Y-149846757D02*
X165055550Y-29236290D01*
D10*
X140716000Y-79248000D02*
X139954000Y-79248000D01*
X45524550Y-32625757D02*
G75*
G03*
X45524550Y-32625757I-1500000J0D01*
G01*
X162007550Y-72757757D02*
X163912550Y-72757757D01*
D11*
X40595553Y-154926757D02*
G75*
G03*
X35515550Y-149846757I-5080003J-3D01*
G01*
D10*
X163912550Y-100697843D02*
G75*
G03*
X163912550Y-99935757I50J381043D01*
G01*
X162007550Y-138797757D02*
X163912550Y-138797757D01*
X162007550Y-138035843D02*
G75*
G03*
X162007550Y-138797757I50J-380957D01*
G01*
X162007550Y-106412757D02*
X163912550Y-106412757D01*
M02*
