M48
; DRILL file {KiCad 6.0.8-f2edbf62ab~116~ubuntu20.04.1} date Tue 25 Oct 2022 06:56:45 PM PDT
; FORMAT={-:-/ absolute / inch / decimal}
; #@! TF.CreationDate,2022-10-25T18:56:45-07:00
; #@! TF.GenerationSoftware,Kicad,Pcbnew,6.0.8-f2edbf62ab~116~ubuntu20.04.1
; #@! TF.FileFunction,Plated,1,2,PTH
FMAT,2
INCH
; #@! TA.AperFunction,Plated,PTH,ViaDrill
T1C0.0157
; #@! TA.AperFunction,Plated,PTH,ComponentDrill
T2C0.0394
; #@! TA.AperFunction,Plated,PTH,ComponentDrill
T3C0.0433
; #@! TA.AperFunction,Plated,PTH,ComponentDrill
T4C0.0551
; #@! TA.AperFunction,Plated,PTH,ComponentDrill
T5C0.0669
%
G90
G05
T1
X1.67Y-3.1
X1.76Y-2.96
X2.06Y-1.685
X2.08Y-1.795
X2.115Y-1.56
X2.115Y-1.635
X2.15Y-1.855
X2.365Y-1.755
X2.475Y-1.71
X2.475Y-1.7705
X2.48Y-1.665
X2.57Y-1.665
X3.715Y-3.52
X3.74Y-3.82
X4.37Y-3.83
X4.42Y-3.87
X4.42Y-3.93
X4.42Y-3.98
X4.43Y-4.225
X4.475Y-2.775
X4.575Y-4.225
X4.625Y-2.775
T2
X1.8504Y-3.1
X1.8504Y-3.2
X1.8504Y-3.3
X1.8504Y-3.4
X1.8504Y-3.5
X1.8504Y-3.6
X1.8504Y-3.7
X1.8504Y-3.8
X1.8504Y-3.9
X1.8504Y-4.0
X1.8504Y-4.1
X1.8504Y-4.2
X1.8504Y-4.3
X1.8504Y-4.4
X1.8504Y-4.5
X2.4504Y-3.1
X2.4504Y-3.2
X2.4504Y-3.3
X2.4504Y-3.4
X2.4504Y-3.5
X2.4504Y-3.6
X2.4504Y-3.7
X2.4504Y-3.8
X2.4504Y-3.9
X2.4504Y-4.0
X2.4504Y-4.1
X2.4504Y-4.2
X2.4504Y-4.3
X2.4504Y-4.4
X2.4504Y-4.5
T3
X2.7Y-3.55
X2.7Y-3.75
X2.7Y-3.95
X2.7Y-4.15
X2.7Y-4.35
X2.8Y-3.55
X2.8Y-3.75
X2.8Y-3.95
X2.8Y-4.15
X2.8Y-4.35
X2.84Y-2.55
X2.9Y-3.55
X2.9Y-3.75
X2.9Y-3.95
X2.9Y-4.15
X2.9Y-4.35
X2.94Y-2.55
X3.04Y-2.55
X3.51Y-2.96
X3.51Y-3.06
X3.51Y-3.16
X3.51Y-3.26
X3.51Y-3.36
X3.51Y-3.46
X3.51Y-3.56
X3.51Y-3.66
X3.51Y-3.76
X3.51Y-3.86
X3.51Y-3.96
X3.51Y-4.06
X3.51Y-4.16
X3.51Y-4.26
X3.51Y-4.36
X3.51Y-4.46
X3.51Y-4.56
X3.51Y-4.66
X3.51Y-4.76
X3.51Y-4.86
X3.61Y-2.96
X3.61Y-3.06
X3.61Y-3.16
X3.61Y-3.26
X3.61Y-3.36
X3.61Y-3.46
X3.61Y-3.56
X3.61Y-3.66
X3.61Y-3.76
X3.61Y-3.86
X3.61Y-3.96
X3.61Y-4.06
X3.61Y-4.16
X3.61Y-4.26
X3.61Y-4.36
X3.61Y-4.46
X3.61Y-4.56
X3.61Y-4.66
X3.61Y-4.76
X3.61Y-4.86
T4
X4.9669Y-3.2559
X4.9669Y-3.5559
X4.9669Y-3.7559
X4.9669Y-4.0559
X4.9669Y-4.2559
X4.9669Y-4.5559
X4.9669Y-4.7559
X4.9669Y-5.0559
X5.3669Y-3.5559
X5.3669Y-4.0559
X5.3669Y-4.5559
X5.3669Y-5.0559
X5.6669Y-3.5559
X5.6669Y-4.0559
X5.6669Y-4.5559
X5.6669Y-5.0559
T5
X1.6Y-1.5526
X1.6Y-1.775
X1.8Y-1.5526
X1.8Y-1.775
X5.3Y-2.05
X5.3Y-2.3
X5.3Y-2.55
X5.3Y-2.8
X5.5Y-2.05
X5.5Y-2.3
X5.5Y-2.55
X5.5Y-2.8
X5.79Y-2.05
X5.79Y-2.3
X5.79Y-2.55
X5.79Y-2.8
X5.95Y-3.8
X5.95Y-4.0
X5.95Y-4.325
X5.95Y-4.525
X5.95Y-4.85
X5.95Y-5.05
X5.95Y-5.375
X5.95Y-5.575
X5.975Y-3.325
X5.975Y-3.525
X5.99Y-2.05
X5.99Y-2.3
X5.99Y-2.55
X5.99Y-2.8
T0
M30
