%TF.GenerationSoftware,KiCad,Pcbnew,6.0.8-f2edbf62ab~116~ubuntu20.04.1*%
%TF.CreationDate,2022-10-25T18:56:43-07:00*%
%TF.ProjectId,Control_Board,436f6e74-726f-46c5-9f42-6f6172642e6b,rev?*%
%TF.SameCoordinates,Original*%
%TF.FileFunction,Paste,Top*%
%TF.FilePolarity,Positive*%
%FSLAX46Y46*%
G04 Gerber Fmt 4.6, Leading zero omitted, Abs format (unit mm)*
G04 Created by KiCad (PCBNEW 6.0.8-f2edbf62ab~116~ubuntu20.04.1) date 2022-10-25 18:56:43*
%MOMM*%
%LPD*%
G01*
G04 APERTURE LIST*
G04 Aperture macros list*
%AMRoundRect*
0 Rectangle with rounded corners*
0 $1 Rounding radius*
0 $2 $3 $4 $5 $6 $7 $8 $9 X,Y pos of 4 corners*
0 Add a 4 corners polygon primitive as box body*
4,1,4,$2,$3,$4,$5,$6,$7,$8,$9,$2,$3,0*
0 Add four circle primitives for the rounded corners*
1,1,$1+$1,$2,$3*
1,1,$1+$1,$4,$5*
1,1,$1+$1,$6,$7*
1,1,$1+$1,$8,$9*
0 Add four rect primitives between the rounded corners*
20,1,$1+$1,$2,$3,$4,$5,0*
20,1,$1+$1,$4,$5,$6,$7,0*
20,1,$1+$1,$6,$7,$8,$9,0*
20,1,$1+$1,$8,$9,$2,$3,0*%
G04 Aperture macros list end*
%ADD10R,2.700000X3.600000*%
%ADD11RoundRect,0.250000X-0.650000X0.325000X-0.650000X-0.325000X0.650000X-0.325000X0.650000X0.325000X0*%
%ADD12RoundRect,0.135000X0.135000X0.185000X-0.135000X0.185000X-0.135000X-0.185000X0.135000X-0.185000X0*%
%ADD13RoundRect,0.160000X0.197500X0.160000X-0.197500X0.160000X-0.197500X-0.160000X0.197500X-0.160000X0*%
%ADD14RoundRect,0.218750X0.218750X0.256250X-0.218750X0.256250X-0.218750X-0.256250X0.218750X-0.256250X0*%
%ADD15RoundRect,0.250000X-0.325000X-0.650000X0.325000X-0.650000X0.325000X0.650000X-0.325000X0.650000X0*%
%ADD16RoundRect,0.150000X-0.675000X-0.150000X0.675000X-0.150000X0.675000X0.150000X-0.675000X0.150000X0*%
%ADD17RoundRect,0.150000X-0.512500X-0.150000X0.512500X-0.150000X0.512500X0.150000X-0.512500X0.150000X0*%
%ADD18RoundRect,0.150000X-0.825000X-0.150000X0.825000X-0.150000X0.825000X0.150000X-0.825000X0.150000X0*%
%ADD19RoundRect,0.160000X-0.160000X0.197500X-0.160000X-0.197500X0.160000X-0.197500X0.160000X0.197500X0*%
%ADD20RoundRect,0.150000X0.825000X0.150000X-0.825000X0.150000X-0.825000X-0.150000X0.825000X-0.150000X0*%
%ADD21RoundRect,0.225000X-0.225000X-0.250000X0.225000X-0.250000X0.225000X0.250000X-0.225000X0.250000X0*%
G04 APERTURE END LIST*
D10*
%TO.C,L1*%
X72398000Y-47371000D03*
X64098000Y-47371000D03*
%TD*%
D11*
%TO.C,C2*%
X65229000Y-38022000D03*
X65229000Y-40972000D03*
%TD*%
D12*
%TO.C,R6*%
X54563000Y-49022000D03*
X53543000Y-49022000D03*
%TD*%
D13*
%TO.C,R2*%
X44539500Y-78740000D03*
X43344500Y-78740000D03*
%TD*%
D14*
%TO.C,D2*%
X52173500Y-48260000D03*
X50598500Y-48260000D03*
%TD*%
D15*
%TO.C,C5*%
X58518000Y-45466000D03*
X61468000Y-45466000D03*
%TD*%
D16*
%TO.C,Q2*%
X50920000Y-42799000D03*
X50920000Y-44069000D03*
X50920000Y-45339000D03*
X50920000Y-46609000D03*
X56170000Y-46609000D03*
X56170000Y-45339000D03*
X56170000Y-44069000D03*
X56170000Y-42799000D03*
%TD*%
D12*
%TO.C,R7*%
X54563000Y-48006000D03*
X53543000Y-48006000D03*
%TD*%
%TO.C,R4*%
X58881000Y-41275000D03*
X57861000Y-41275000D03*
%TD*%
D14*
%TO.C,D1*%
X53189500Y-35560000D03*
X51614500Y-35560000D03*
%TD*%
D12*
%TO.C,R5*%
X60913000Y-41275000D03*
X59893000Y-41275000D03*
%TD*%
D17*
%TO.C,U3*%
X58249500Y-38039000D03*
X58249500Y-38989000D03*
X58249500Y-39939000D03*
X60524500Y-39939000D03*
X60524500Y-38989000D03*
X60524500Y-38039000D03*
%TD*%
D18*
%TO.C,U2*%
X115635000Y-61595000D03*
X115635000Y-62865000D03*
X115635000Y-64135000D03*
X115635000Y-65405000D03*
X115635000Y-66675000D03*
X115635000Y-67945000D03*
X115635000Y-69215000D03*
X115635000Y-70485000D03*
X120585000Y-70485000D03*
X120585000Y-69215000D03*
X120585000Y-67945000D03*
X120585000Y-66675000D03*
X120585000Y-65405000D03*
X120585000Y-64135000D03*
X120585000Y-62865000D03*
X120585000Y-61595000D03*
%TD*%
D15*
%TO.C,C4*%
X58518000Y-43053000D03*
X61468000Y-43053000D03*
%TD*%
D19*
%TO.C,R1*%
X44704000Y-76275000D03*
X44704000Y-77470000D03*
%TD*%
D11*
%TO.C,C1*%
X62689000Y-38022000D03*
X62689000Y-40972000D03*
%TD*%
D20*
%TO.C,Q1*%
X56020000Y-41021000D03*
X56020000Y-39751000D03*
X56020000Y-38481000D03*
X56020000Y-37211000D03*
X51070000Y-37211000D03*
X51070000Y-38481000D03*
X51070000Y-39751000D03*
X51070000Y-41021000D03*
%TD*%
D21*
%TO.C,C3*%
X58612000Y-36449000D03*
X60162000Y-36449000D03*
%TD*%
D12*
%TO.C,R3*%
X55579000Y-35560000D03*
X54559000Y-35560000D03*
%TD*%
D18*
%TO.C,U1*%
X114365000Y-98425000D03*
X114365000Y-99695000D03*
X114365000Y-100965000D03*
X114365000Y-102235000D03*
X114365000Y-103505000D03*
X114365000Y-104775000D03*
X114365000Y-106045000D03*
X114365000Y-107315000D03*
X119315000Y-107315000D03*
X119315000Y-106045000D03*
X119315000Y-104775000D03*
X119315000Y-103505000D03*
X119315000Y-102235000D03*
X119315000Y-100965000D03*
X119315000Y-99695000D03*
X119315000Y-98425000D03*
%TD*%
M02*
