G04 #@! TF.GenerationSoftware,KiCad,Pcbnew,(5.1.5)-3*
G04 #@! TF.CreationDate,2021-09-14T22:43:20-07:00*
G04 #@! TF.ProjectId,_autosave-Adapter,5f617574-6f73-4617-9665-2d4164617074,rev?*
G04 #@! TF.SameCoordinates,Original*
G04 #@! TF.FileFunction,Soldermask,Bot*
G04 #@! TF.FilePolarity,Negative*
%FSLAX46Y46*%
G04 Gerber Fmt 4.6, Leading zero omitted, Abs format (unit mm)*
G04 Created by KiCad (PCBNEW (5.1.5)-3) date 2021-09-14 22:43:20*
%MOMM*%
%LPD*%
G04 APERTURE LIST*
%ADD10C,0.100000*%
G04 APERTURE END LIST*
D10*
G36*
X138823000Y-75196000D02*
G01*
X137021000Y-75196000D01*
X137021000Y-73394000D01*
X138823000Y-73394000D01*
X138823000Y-75196000D01*
G37*
G36*
X102475512Y-73398927D02*
G01*
X102624812Y-73428624D01*
X102788784Y-73496544D01*
X102936354Y-73595147D01*
X103061853Y-73720646D01*
X103160456Y-73868216D01*
X103228376Y-74032188D01*
X103263000Y-74206259D01*
X103263000Y-74383741D01*
X103228376Y-74557812D01*
X103160456Y-74721784D01*
X103061853Y-74869354D01*
X102936354Y-74994853D01*
X102788784Y-75093456D01*
X102624812Y-75161376D01*
X102475512Y-75191073D01*
X102450742Y-75196000D01*
X102273258Y-75196000D01*
X102248488Y-75191073D01*
X102099188Y-75161376D01*
X101935216Y-75093456D01*
X101787646Y-74994853D01*
X101662147Y-74869354D01*
X101563544Y-74721784D01*
X101495624Y-74557812D01*
X101461000Y-74383741D01*
X101461000Y-74206259D01*
X101495624Y-74032188D01*
X101563544Y-73868216D01*
X101662147Y-73720646D01*
X101787646Y-73595147D01*
X101935216Y-73496544D01*
X102099188Y-73428624D01*
X102248488Y-73398927D01*
X102273258Y-73394000D01*
X102450742Y-73394000D01*
X102475512Y-73398927D01*
G37*
G36*
X127875512Y-73398927D02*
G01*
X128024812Y-73428624D01*
X128188784Y-73496544D01*
X128336354Y-73595147D01*
X128461853Y-73720646D01*
X128560456Y-73868216D01*
X128628376Y-74032188D01*
X128663000Y-74206259D01*
X128663000Y-74383741D01*
X128628376Y-74557812D01*
X128560456Y-74721784D01*
X128461853Y-74869354D01*
X128336354Y-74994853D01*
X128188784Y-75093456D01*
X128024812Y-75161376D01*
X127875512Y-75191073D01*
X127850742Y-75196000D01*
X127673258Y-75196000D01*
X127648488Y-75191073D01*
X127499188Y-75161376D01*
X127335216Y-75093456D01*
X127187646Y-74994853D01*
X127062147Y-74869354D01*
X126963544Y-74721784D01*
X126895624Y-74557812D01*
X126861000Y-74383741D01*
X126861000Y-74206259D01*
X126895624Y-74032188D01*
X126963544Y-73868216D01*
X127062147Y-73720646D01*
X127187646Y-73595147D01*
X127335216Y-73496544D01*
X127499188Y-73428624D01*
X127648488Y-73398927D01*
X127673258Y-73394000D01*
X127850742Y-73394000D01*
X127875512Y-73398927D01*
G37*
G36*
X125335512Y-73398927D02*
G01*
X125484812Y-73428624D01*
X125648784Y-73496544D01*
X125796354Y-73595147D01*
X125921853Y-73720646D01*
X126020456Y-73868216D01*
X126088376Y-74032188D01*
X126123000Y-74206259D01*
X126123000Y-74383741D01*
X126088376Y-74557812D01*
X126020456Y-74721784D01*
X125921853Y-74869354D01*
X125796354Y-74994853D01*
X125648784Y-75093456D01*
X125484812Y-75161376D01*
X125335512Y-75191073D01*
X125310742Y-75196000D01*
X125133258Y-75196000D01*
X125108488Y-75191073D01*
X124959188Y-75161376D01*
X124795216Y-75093456D01*
X124647646Y-74994853D01*
X124522147Y-74869354D01*
X124423544Y-74721784D01*
X124355624Y-74557812D01*
X124321000Y-74383741D01*
X124321000Y-74206259D01*
X124355624Y-74032188D01*
X124423544Y-73868216D01*
X124522147Y-73720646D01*
X124647646Y-73595147D01*
X124795216Y-73496544D01*
X124959188Y-73428624D01*
X125108488Y-73398927D01*
X125133258Y-73394000D01*
X125310742Y-73394000D01*
X125335512Y-73398927D01*
G37*
G36*
X122795512Y-73398927D02*
G01*
X122944812Y-73428624D01*
X123108784Y-73496544D01*
X123256354Y-73595147D01*
X123381853Y-73720646D01*
X123480456Y-73868216D01*
X123548376Y-74032188D01*
X123583000Y-74206259D01*
X123583000Y-74383741D01*
X123548376Y-74557812D01*
X123480456Y-74721784D01*
X123381853Y-74869354D01*
X123256354Y-74994853D01*
X123108784Y-75093456D01*
X122944812Y-75161376D01*
X122795512Y-75191073D01*
X122770742Y-75196000D01*
X122593258Y-75196000D01*
X122568488Y-75191073D01*
X122419188Y-75161376D01*
X122255216Y-75093456D01*
X122107646Y-74994853D01*
X121982147Y-74869354D01*
X121883544Y-74721784D01*
X121815624Y-74557812D01*
X121781000Y-74383741D01*
X121781000Y-74206259D01*
X121815624Y-74032188D01*
X121883544Y-73868216D01*
X121982147Y-73720646D01*
X122107646Y-73595147D01*
X122255216Y-73496544D01*
X122419188Y-73428624D01*
X122568488Y-73398927D01*
X122593258Y-73394000D01*
X122770742Y-73394000D01*
X122795512Y-73398927D01*
G37*
G36*
X120255512Y-73398927D02*
G01*
X120404812Y-73428624D01*
X120568784Y-73496544D01*
X120716354Y-73595147D01*
X120841853Y-73720646D01*
X120940456Y-73868216D01*
X121008376Y-74032188D01*
X121043000Y-74206259D01*
X121043000Y-74383741D01*
X121008376Y-74557812D01*
X120940456Y-74721784D01*
X120841853Y-74869354D01*
X120716354Y-74994853D01*
X120568784Y-75093456D01*
X120404812Y-75161376D01*
X120255512Y-75191073D01*
X120230742Y-75196000D01*
X120053258Y-75196000D01*
X120028488Y-75191073D01*
X119879188Y-75161376D01*
X119715216Y-75093456D01*
X119567646Y-74994853D01*
X119442147Y-74869354D01*
X119343544Y-74721784D01*
X119275624Y-74557812D01*
X119241000Y-74383741D01*
X119241000Y-74206259D01*
X119275624Y-74032188D01*
X119343544Y-73868216D01*
X119442147Y-73720646D01*
X119567646Y-73595147D01*
X119715216Y-73496544D01*
X119879188Y-73428624D01*
X120028488Y-73398927D01*
X120053258Y-73394000D01*
X120230742Y-73394000D01*
X120255512Y-73398927D01*
G37*
G36*
X117715512Y-73398927D02*
G01*
X117864812Y-73428624D01*
X118028784Y-73496544D01*
X118176354Y-73595147D01*
X118301853Y-73720646D01*
X118400456Y-73868216D01*
X118468376Y-74032188D01*
X118503000Y-74206259D01*
X118503000Y-74383741D01*
X118468376Y-74557812D01*
X118400456Y-74721784D01*
X118301853Y-74869354D01*
X118176354Y-74994853D01*
X118028784Y-75093456D01*
X117864812Y-75161376D01*
X117715512Y-75191073D01*
X117690742Y-75196000D01*
X117513258Y-75196000D01*
X117488488Y-75191073D01*
X117339188Y-75161376D01*
X117175216Y-75093456D01*
X117027646Y-74994853D01*
X116902147Y-74869354D01*
X116803544Y-74721784D01*
X116735624Y-74557812D01*
X116701000Y-74383741D01*
X116701000Y-74206259D01*
X116735624Y-74032188D01*
X116803544Y-73868216D01*
X116902147Y-73720646D01*
X117027646Y-73595147D01*
X117175216Y-73496544D01*
X117339188Y-73428624D01*
X117488488Y-73398927D01*
X117513258Y-73394000D01*
X117690742Y-73394000D01*
X117715512Y-73398927D01*
G37*
G36*
X115175512Y-73398927D02*
G01*
X115324812Y-73428624D01*
X115488784Y-73496544D01*
X115636354Y-73595147D01*
X115761853Y-73720646D01*
X115860456Y-73868216D01*
X115928376Y-74032188D01*
X115963000Y-74206259D01*
X115963000Y-74383741D01*
X115928376Y-74557812D01*
X115860456Y-74721784D01*
X115761853Y-74869354D01*
X115636354Y-74994853D01*
X115488784Y-75093456D01*
X115324812Y-75161376D01*
X115175512Y-75191073D01*
X115150742Y-75196000D01*
X114973258Y-75196000D01*
X114948488Y-75191073D01*
X114799188Y-75161376D01*
X114635216Y-75093456D01*
X114487646Y-74994853D01*
X114362147Y-74869354D01*
X114263544Y-74721784D01*
X114195624Y-74557812D01*
X114161000Y-74383741D01*
X114161000Y-74206259D01*
X114195624Y-74032188D01*
X114263544Y-73868216D01*
X114362147Y-73720646D01*
X114487646Y-73595147D01*
X114635216Y-73496544D01*
X114799188Y-73428624D01*
X114948488Y-73398927D01*
X114973258Y-73394000D01*
X115150742Y-73394000D01*
X115175512Y-73398927D01*
G37*
G36*
X113423000Y-75196000D02*
G01*
X111621000Y-75196000D01*
X111621000Y-73394000D01*
X113423000Y-73394000D01*
X113423000Y-75196000D01*
G37*
G36*
X88023000Y-75196000D02*
G01*
X86221000Y-75196000D01*
X86221000Y-73394000D01*
X88023000Y-73394000D01*
X88023000Y-75196000D01*
G37*
G36*
X89775512Y-73398927D02*
G01*
X89924812Y-73428624D01*
X90088784Y-73496544D01*
X90236354Y-73595147D01*
X90361853Y-73720646D01*
X90460456Y-73868216D01*
X90528376Y-74032188D01*
X90563000Y-74206259D01*
X90563000Y-74383741D01*
X90528376Y-74557812D01*
X90460456Y-74721784D01*
X90361853Y-74869354D01*
X90236354Y-74994853D01*
X90088784Y-75093456D01*
X89924812Y-75161376D01*
X89775512Y-75191073D01*
X89750742Y-75196000D01*
X89573258Y-75196000D01*
X89548488Y-75191073D01*
X89399188Y-75161376D01*
X89235216Y-75093456D01*
X89087646Y-74994853D01*
X88962147Y-74869354D01*
X88863544Y-74721784D01*
X88795624Y-74557812D01*
X88761000Y-74383741D01*
X88761000Y-74206259D01*
X88795624Y-74032188D01*
X88863544Y-73868216D01*
X88962147Y-73720646D01*
X89087646Y-73595147D01*
X89235216Y-73496544D01*
X89399188Y-73428624D01*
X89548488Y-73398927D01*
X89573258Y-73394000D01*
X89750742Y-73394000D01*
X89775512Y-73398927D01*
G37*
G36*
X92315512Y-73398927D02*
G01*
X92464812Y-73428624D01*
X92628784Y-73496544D01*
X92776354Y-73595147D01*
X92901853Y-73720646D01*
X93000456Y-73868216D01*
X93068376Y-74032188D01*
X93103000Y-74206259D01*
X93103000Y-74383741D01*
X93068376Y-74557812D01*
X93000456Y-74721784D01*
X92901853Y-74869354D01*
X92776354Y-74994853D01*
X92628784Y-75093456D01*
X92464812Y-75161376D01*
X92315512Y-75191073D01*
X92290742Y-75196000D01*
X92113258Y-75196000D01*
X92088488Y-75191073D01*
X91939188Y-75161376D01*
X91775216Y-75093456D01*
X91627646Y-74994853D01*
X91502147Y-74869354D01*
X91403544Y-74721784D01*
X91335624Y-74557812D01*
X91301000Y-74383741D01*
X91301000Y-74206259D01*
X91335624Y-74032188D01*
X91403544Y-73868216D01*
X91502147Y-73720646D01*
X91627646Y-73595147D01*
X91775216Y-73496544D01*
X91939188Y-73428624D01*
X92088488Y-73398927D01*
X92113258Y-73394000D01*
X92290742Y-73394000D01*
X92315512Y-73398927D01*
G37*
G36*
X94855512Y-73398927D02*
G01*
X95004812Y-73428624D01*
X95168784Y-73496544D01*
X95316354Y-73595147D01*
X95441853Y-73720646D01*
X95540456Y-73868216D01*
X95608376Y-74032188D01*
X95643000Y-74206259D01*
X95643000Y-74383741D01*
X95608376Y-74557812D01*
X95540456Y-74721784D01*
X95441853Y-74869354D01*
X95316354Y-74994853D01*
X95168784Y-75093456D01*
X95004812Y-75161376D01*
X94855512Y-75191073D01*
X94830742Y-75196000D01*
X94653258Y-75196000D01*
X94628488Y-75191073D01*
X94479188Y-75161376D01*
X94315216Y-75093456D01*
X94167646Y-74994853D01*
X94042147Y-74869354D01*
X93943544Y-74721784D01*
X93875624Y-74557812D01*
X93841000Y-74383741D01*
X93841000Y-74206259D01*
X93875624Y-74032188D01*
X93943544Y-73868216D01*
X94042147Y-73720646D01*
X94167646Y-73595147D01*
X94315216Y-73496544D01*
X94479188Y-73428624D01*
X94628488Y-73398927D01*
X94653258Y-73394000D01*
X94830742Y-73394000D01*
X94855512Y-73398927D01*
G37*
G36*
X97395512Y-73398927D02*
G01*
X97544812Y-73428624D01*
X97708784Y-73496544D01*
X97856354Y-73595147D01*
X97981853Y-73720646D01*
X98080456Y-73868216D01*
X98148376Y-74032188D01*
X98183000Y-74206259D01*
X98183000Y-74383741D01*
X98148376Y-74557812D01*
X98080456Y-74721784D01*
X97981853Y-74869354D01*
X97856354Y-74994853D01*
X97708784Y-75093456D01*
X97544812Y-75161376D01*
X97395512Y-75191073D01*
X97370742Y-75196000D01*
X97193258Y-75196000D01*
X97168488Y-75191073D01*
X97019188Y-75161376D01*
X96855216Y-75093456D01*
X96707646Y-74994853D01*
X96582147Y-74869354D01*
X96483544Y-74721784D01*
X96415624Y-74557812D01*
X96381000Y-74383741D01*
X96381000Y-74206259D01*
X96415624Y-74032188D01*
X96483544Y-73868216D01*
X96582147Y-73720646D01*
X96707646Y-73595147D01*
X96855216Y-73496544D01*
X97019188Y-73428624D01*
X97168488Y-73398927D01*
X97193258Y-73394000D01*
X97370742Y-73394000D01*
X97395512Y-73398927D01*
G37*
G36*
X99935512Y-73398927D02*
G01*
X100084812Y-73428624D01*
X100248784Y-73496544D01*
X100396354Y-73595147D01*
X100521853Y-73720646D01*
X100620456Y-73868216D01*
X100688376Y-74032188D01*
X100723000Y-74206259D01*
X100723000Y-74383741D01*
X100688376Y-74557812D01*
X100620456Y-74721784D01*
X100521853Y-74869354D01*
X100396354Y-74994853D01*
X100248784Y-75093456D01*
X100084812Y-75161376D01*
X99935512Y-75191073D01*
X99910742Y-75196000D01*
X99733258Y-75196000D01*
X99708488Y-75191073D01*
X99559188Y-75161376D01*
X99395216Y-75093456D01*
X99247646Y-74994853D01*
X99122147Y-74869354D01*
X99023544Y-74721784D01*
X98955624Y-74557812D01*
X98921000Y-74383741D01*
X98921000Y-74206259D01*
X98955624Y-74032188D01*
X99023544Y-73868216D01*
X99122147Y-73720646D01*
X99247646Y-73595147D01*
X99395216Y-73496544D01*
X99559188Y-73428624D01*
X99708488Y-73398927D01*
X99733258Y-73394000D01*
X99910742Y-73394000D01*
X99935512Y-73398927D01*
G37*
G36*
X64375512Y-73398927D02*
G01*
X64524812Y-73428624D01*
X64688784Y-73496544D01*
X64836354Y-73595147D01*
X64961853Y-73720646D01*
X65060456Y-73868216D01*
X65128376Y-74032188D01*
X65163000Y-74206259D01*
X65163000Y-74383741D01*
X65128376Y-74557812D01*
X65060456Y-74721784D01*
X64961853Y-74869354D01*
X64836354Y-74994853D01*
X64688784Y-75093456D01*
X64524812Y-75161376D01*
X64375512Y-75191073D01*
X64350742Y-75196000D01*
X64173258Y-75196000D01*
X64148488Y-75191073D01*
X63999188Y-75161376D01*
X63835216Y-75093456D01*
X63687646Y-74994853D01*
X63562147Y-74869354D01*
X63463544Y-74721784D01*
X63395624Y-74557812D01*
X63361000Y-74383741D01*
X63361000Y-74206259D01*
X63395624Y-74032188D01*
X63463544Y-73868216D01*
X63562147Y-73720646D01*
X63687646Y-73595147D01*
X63835216Y-73496544D01*
X63999188Y-73428624D01*
X64148488Y-73398927D01*
X64173258Y-73394000D01*
X64350742Y-73394000D01*
X64375512Y-73398927D01*
G37*
G36*
X62623000Y-75196000D02*
G01*
X60821000Y-75196000D01*
X60821000Y-73394000D01*
X62623000Y-73394000D01*
X62623000Y-75196000D01*
G37*
G36*
X140575512Y-73398927D02*
G01*
X140724812Y-73428624D01*
X140888784Y-73496544D01*
X141036354Y-73595147D01*
X141161853Y-73720646D01*
X141260456Y-73868216D01*
X141328376Y-74032188D01*
X141363000Y-74206259D01*
X141363000Y-74383741D01*
X141328376Y-74557812D01*
X141260456Y-74721784D01*
X141161853Y-74869354D01*
X141036354Y-74994853D01*
X140888784Y-75093456D01*
X140724812Y-75161376D01*
X140575512Y-75191073D01*
X140550742Y-75196000D01*
X140373258Y-75196000D01*
X140348488Y-75191073D01*
X140199188Y-75161376D01*
X140035216Y-75093456D01*
X139887646Y-74994853D01*
X139762147Y-74869354D01*
X139663544Y-74721784D01*
X139595624Y-74557812D01*
X139561000Y-74383741D01*
X139561000Y-74206259D01*
X139595624Y-74032188D01*
X139663544Y-73868216D01*
X139762147Y-73720646D01*
X139887646Y-73595147D01*
X140035216Y-73496544D01*
X140199188Y-73428624D01*
X140348488Y-73398927D01*
X140373258Y-73394000D01*
X140550742Y-73394000D01*
X140575512Y-73398927D01*
G37*
G36*
X143115512Y-73398927D02*
G01*
X143264812Y-73428624D01*
X143428784Y-73496544D01*
X143576354Y-73595147D01*
X143701853Y-73720646D01*
X143800456Y-73868216D01*
X143868376Y-74032188D01*
X143903000Y-74206259D01*
X143903000Y-74383741D01*
X143868376Y-74557812D01*
X143800456Y-74721784D01*
X143701853Y-74869354D01*
X143576354Y-74994853D01*
X143428784Y-75093456D01*
X143264812Y-75161376D01*
X143115512Y-75191073D01*
X143090742Y-75196000D01*
X142913258Y-75196000D01*
X142888488Y-75191073D01*
X142739188Y-75161376D01*
X142575216Y-75093456D01*
X142427646Y-74994853D01*
X142302147Y-74869354D01*
X142203544Y-74721784D01*
X142135624Y-74557812D01*
X142101000Y-74383741D01*
X142101000Y-74206259D01*
X142135624Y-74032188D01*
X142203544Y-73868216D01*
X142302147Y-73720646D01*
X142427646Y-73595147D01*
X142575216Y-73496544D01*
X142739188Y-73428624D01*
X142888488Y-73398927D01*
X142913258Y-73394000D01*
X143090742Y-73394000D01*
X143115512Y-73398927D01*
G37*
G36*
X145655512Y-73398927D02*
G01*
X145804812Y-73428624D01*
X145968784Y-73496544D01*
X146116354Y-73595147D01*
X146241853Y-73720646D01*
X146340456Y-73868216D01*
X146408376Y-74032188D01*
X146443000Y-74206259D01*
X146443000Y-74383741D01*
X146408376Y-74557812D01*
X146340456Y-74721784D01*
X146241853Y-74869354D01*
X146116354Y-74994853D01*
X145968784Y-75093456D01*
X145804812Y-75161376D01*
X145655512Y-75191073D01*
X145630742Y-75196000D01*
X145453258Y-75196000D01*
X145428488Y-75191073D01*
X145279188Y-75161376D01*
X145115216Y-75093456D01*
X144967646Y-74994853D01*
X144842147Y-74869354D01*
X144743544Y-74721784D01*
X144675624Y-74557812D01*
X144641000Y-74383741D01*
X144641000Y-74206259D01*
X144675624Y-74032188D01*
X144743544Y-73868216D01*
X144842147Y-73720646D01*
X144967646Y-73595147D01*
X145115216Y-73496544D01*
X145279188Y-73428624D01*
X145428488Y-73398927D01*
X145453258Y-73394000D01*
X145630742Y-73394000D01*
X145655512Y-73398927D01*
G37*
G36*
X148195512Y-73398927D02*
G01*
X148344812Y-73428624D01*
X148508784Y-73496544D01*
X148656354Y-73595147D01*
X148781853Y-73720646D01*
X148880456Y-73868216D01*
X148948376Y-74032188D01*
X148983000Y-74206259D01*
X148983000Y-74383741D01*
X148948376Y-74557812D01*
X148880456Y-74721784D01*
X148781853Y-74869354D01*
X148656354Y-74994853D01*
X148508784Y-75093456D01*
X148344812Y-75161376D01*
X148195512Y-75191073D01*
X148170742Y-75196000D01*
X147993258Y-75196000D01*
X147968488Y-75191073D01*
X147819188Y-75161376D01*
X147655216Y-75093456D01*
X147507646Y-74994853D01*
X147382147Y-74869354D01*
X147283544Y-74721784D01*
X147215624Y-74557812D01*
X147181000Y-74383741D01*
X147181000Y-74206259D01*
X147215624Y-74032188D01*
X147283544Y-73868216D01*
X147382147Y-73720646D01*
X147507646Y-73595147D01*
X147655216Y-73496544D01*
X147819188Y-73428624D01*
X147968488Y-73398927D01*
X147993258Y-73394000D01*
X148170742Y-73394000D01*
X148195512Y-73398927D01*
G37*
G36*
X150735512Y-73398927D02*
G01*
X150884812Y-73428624D01*
X151048784Y-73496544D01*
X151196354Y-73595147D01*
X151321853Y-73720646D01*
X151420456Y-73868216D01*
X151488376Y-74032188D01*
X151523000Y-74206259D01*
X151523000Y-74383741D01*
X151488376Y-74557812D01*
X151420456Y-74721784D01*
X151321853Y-74869354D01*
X151196354Y-74994853D01*
X151048784Y-75093456D01*
X150884812Y-75161376D01*
X150735512Y-75191073D01*
X150710742Y-75196000D01*
X150533258Y-75196000D01*
X150508488Y-75191073D01*
X150359188Y-75161376D01*
X150195216Y-75093456D01*
X150047646Y-74994853D01*
X149922147Y-74869354D01*
X149823544Y-74721784D01*
X149755624Y-74557812D01*
X149721000Y-74383741D01*
X149721000Y-74206259D01*
X149755624Y-74032188D01*
X149823544Y-73868216D01*
X149922147Y-73720646D01*
X150047646Y-73595147D01*
X150195216Y-73496544D01*
X150359188Y-73428624D01*
X150508488Y-73398927D01*
X150533258Y-73394000D01*
X150710742Y-73394000D01*
X150735512Y-73398927D01*
G37*
G36*
X153275512Y-73398927D02*
G01*
X153424812Y-73428624D01*
X153588784Y-73496544D01*
X153736354Y-73595147D01*
X153861853Y-73720646D01*
X153960456Y-73868216D01*
X154028376Y-74032188D01*
X154063000Y-74206259D01*
X154063000Y-74383741D01*
X154028376Y-74557812D01*
X153960456Y-74721784D01*
X153861853Y-74869354D01*
X153736354Y-74994853D01*
X153588784Y-75093456D01*
X153424812Y-75161376D01*
X153275512Y-75191073D01*
X153250742Y-75196000D01*
X153073258Y-75196000D01*
X153048488Y-75191073D01*
X152899188Y-75161376D01*
X152735216Y-75093456D01*
X152587646Y-74994853D01*
X152462147Y-74869354D01*
X152363544Y-74721784D01*
X152295624Y-74557812D01*
X152261000Y-74383741D01*
X152261000Y-74206259D01*
X152295624Y-74032188D01*
X152363544Y-73868216D01*
X152462147Y-73720646D01*
X152587646Y-73595147D01*
X152735216Y-73496544D01*
X152899188Y-73428624D01*
X153048488Y-73398927D01*
X153073258Y-73394000D01*
X153250742Y-73394000D01*
X153275512Y-73398927D01*
G37*
G36*
X77075512Y-73398927D02*
G01*
X77224812Y-73428624D01*
X77388784Y-73496544D01*
X77536354Y-73595147D01*
X77661853Y-73720646D01*
X77760456Y-73868216D01*
X77828376Y-74032188D01*
X77863000Y-74206259D01*
X77863000Y-74383741D01*
X77828376Y-74557812D01*
X77760456Y-74721784D01*
X77661853Y-74869354D01*
X77536354Y-74994853D01*
X77388784Y-75093456D01*
X77224812Y-75161376D01*
X77075512Y-75191073D01*
X77050742Y-75196000D01*
X76873258Y-75196000D01*
X76848488Y-75191073D01*
X76699188Y-75161376D01*
X76535216Y-75093456D01*
X76387646Y-74994853D01*
X76262147Y-74869354D01*
X76163544Y-74721784D01*
X76095624Y-74557812D01*
X76061000Y-74383741D01*
X76061000Y-74206259D01*
X76095624Y-74032188D01*
X76163544Y-73868216D01*
X76262147Y-73720646D01*
X76387646Y-73595147D01*
X76535216Y-73496544D01*
X76699188Y-73428624D01*
X76848488Y-73398927D01*
X76873258Y-73394000D01*
X77050742Y-73394000D01*
X77075512Y-73398927D01*
G37*
G36*
X74535512Y-73398927D02*
G01*
X74684812Y-73428624D01*
X74848784Y-73496544D01*
X74996354Y-73595147D01*
X75121853Y-73720646D01*
X75220456Y-73868216D01*
X75288376Y-74032188D01*
X75323000Y-74206259D01*
X75323000Y-74383741D01*
X75288376Y-74557812D01*
X75220456Y-74721784D01*
X75121853Y-74869354D01*
X74996354Y-74994853D01*
X74848784Y-75093456D01*
X74684812Y-75161376D01*
X74535512Y-75191073D01*
X74510742Y-75196000D01*
X74333258Y-75196000D01*
X74308488Y-75191073D01*
X74159188Y-75161376D01*
X73995216Y-75093456D01*
X73847646Y-74994853D01*
X73722147Y-74869354D01*
X73623544Y-74721784D01*
X73555624Y-74557812D01*
X73521000Y-74383741D01*
X73521000Y-74206259D01*
X73555624Y-74032188D01*
X73623544Y-73868216D01*
X73722147Y-73720646D01*
X73847646Y-73595147D01*
X73995216Y-73496544D01*
X74159188Y-73428624D01*
X74308488Y-73398927D01*
X74333258Y-73394000D01*
X74510742Y-73394000D01*
X74535512Y-73398927D01*
G37*
G36*
X71995512Y-73398927D02*
G01*
X72144812Y-73428624D01*
X72308784Y-73496544D01*
X72456354Y-73595147D01*
X72581853Y-73720646D01*
X72680456Y-73868216D01*
X72748376Y-74032188D01*
X72783000Y-74206259D01*
X72783000Y-74383741D01*
X72748376Y-74557812D01*
X72680456Y-74721784D01*
X72581853Y-74869354D01*
X72456354Y-74994853D01*
X72308784Y-75093456D01*
X72144812Y-75161376D01*
X71995512Y-75191073D01*
X71970742Y-75196000D01*
X71793258Y-75196000D01*
X71768488Y-75191073D01*
X71619188Y-75161376D01*
X71455216Y-75093456D01*
X71307646Y-74994853D01*
X71182147Y-74869354D01*
X71083544Y-74721784D01*
X71015624Y-74557812D01*
X70981000Y-74383741D01*
X70981000Y-74206259D01*
X71015624Y-74032188D01*
X71083544Y-73868216D01*
X71182147Y-73720646D01*
X71307646Y-73595147D01*
X71455216Y-73496544D01*
X71619188Y-73428624D01*
X71768488Y-73398927D01*
X71793258Y-73394000D01*
X71970742Y-73394000D01*
X71995512Y-73398927D01*
G37*
G36*
X69455512Y-73398927D02*
G01*
X69604812Y-73428624D01*
X69768784Y-73496544D01*
X69916354Y-73595147D01*
X70041853Y-73720646D01*
X70140456Y-73868216D01*
X70208376Y-74032188D01*
X70243000Y-74206259D01*
X70243000Y-74383741D01*
X70208376Y-74557812D01*
X70140456Y-74721784D01*
X70041853Y-74869354D01*
X69916354Y-74994853D01*
X69768784Y-75093456D01*
X69604812Y-75161376D01*
X69455512Y-75191073D01*
X69430742Y-75196000D01*
X69253258Y-75196000D01*
X69228488Y-75191073D01*
X69079188Y-75161376D01*
X68915216Y-75093456D01*
X68767646Y-74994853D01*
X68642147Y-74869354D01*
X68543544Y-74721784D01*
X68475624Y-74557812D01*
X68441000Y-74383741D01*
X68441000Y-74206259D01*
X68475624Y-74032188D01*
X68543544Y-73868216D01*
X68642147Y-73720646D01*
X68767646Y-73595147D01*
X68915216Y-73496544D01*
X69079188Y-73428624D01*
X69228488Y-73398927D01*
X69253258Y-73394000D01*
X69430742Y-73394000D01*
X69455512Y-73398927D01*
G37*
G36*
X66915512Y-73398927D02*
G01*
X67064812Y-73428624D01*
X67228784Y-73496544D01*
X67376354Y-73595147D01*
X67501853Y-73720646D01*
X67600456Y-73868216D01*
X67668376Y-74032188D01*
X67703000Y-74206259D01*
X67703000Y-74383741D01*
X67668376Y-74557812D01*
X67600456Y-74721784D01*
X67501853Y-74869354D01*
X67376354Y-74994853D01*
X67228784Y-75093456D01*
X67064812Y-75161376D01*
X66915512Y-75191073D01*
X66890742Y-75196000D01*
X66713258Y-75196000D01*
X66688488Y-75191073D01*
X66539188Y-75161376D01*
X66375216Y-75093456D01*
X66227646Y-74994853D01*
X66102147Y-74869354D01*
X66003544Y-74721784D01*
X65935624Y-74557812D01*
X65901000Y-74383741D01*
X65901000Y-74206259D01*
X65935624Y-74032188D01*
X66003544Y-73868216D01*
X66102147Y-73720646D01*
X66227646Y-73595147D01*
X66375216Y-73496544D01*
X66539188Y-73428624D01*
X66688488Y-73398927D01*
X66713258Y-73394000D01*
X66890742Y-73394000D01*
X66915512Y-73398927D01*
G37*
G36*
X97395512Y-70858927D02*
G01*
X97544812Y-70888624D01*
X97708784Y-70956544D01*
X97856354Y-71055147D01*
X97981853Y-71180646D01*
X98080456Y-71328216D01*
X98148376Y-71492188D01*
X98183000Y-71666259D01*
X98183000Y-71843741D01*
X98148376Y-72017812D01*
X98080456Y-72181784D01*
X97981853Y-72329354D01*
X97856354Y-72454853D01*
X97708784Y-72553456D01*
X97544812Y-72621376D01*
X97395512Y-72651073D01*
X97370742Y-72656000D01*
X97193258Y-72656000D01*
X97168488Y-72651073D01*
X97019188Y-72621376D01*
X96855216Y-72553456D01*
X96707646Y-72454853D01*
X96582147Y-72329354D01*
X96483544Y-72181784D01*
X96415624Y-72017812D01*
X96381000Y-71843741D01*
X96381000Y-71666259D01*
X96415624Y-71492188D01*
X96483544Y-71328216D01*
X96582147Y-71180646D01*
X96707646Y-71055147D01*
X96855216Y-70956544D01*
X97019188Y-70888624D01*
X97168488Y-70858927D01*
X97193258Y-70854000D01*
X97370742Y-70854000D01*
X97395512Y-70858927D01*
G37*
G36*
X77075512Y-70858927D02*
G01*
X77224812Y-70888624D01*
X77388784Y-70956544D01*
X77536354Y-71055147D01*
X77661853Y-71180646D01*
X77760456Y-71328216D01*
X77828376Y-71492188D01*
X77863000Y-71666259D01*
X77863000Y-71843741D01*
X77828376Y-72017812D01*
X77760456Y-72181784D01*
X77661853Y-72329354D01*
X77536354Y-72454853D01*
X77388784Y-72553456D01*
X77224812Y-72621376D01*
X77075512Y-72651073D01*
X77050742Y-72656000D01*
X76873258Y-72656000D01*
X76848488Y-72651073D01*
X76699188Y-72621376D01*
X76535216Y-72553456D01*
X76387646Y-72454853D01*
X76262147Y-72329354D01*
X76163544Y-72181784D01*
X76095624Y-72017812D01*
X76061000Y-71843741D01*
X76061000Y-71666259D01*
X76095624Y-71492188D01*
X76163544Y-71328216D01*
X76262147Y-71180646D01*
X76387646Y-71055147D01*
X76535216Y-70956544D01*
X76699188Y-70888624D01*
X76848488Y-70858927D01*
X76873258Y-70854000D01*
X77050742Y-70854000D01*
X77075512Y-70858927D01*
G37*
G36*
X94855512Y-70858927D02*
G01*
X95004812Y-70888624D01*
X95168784Y-70956544D01*
X95316354Y-71055147D01*
X95441853Y-71180646D01*
X95540456Y-71328216D01*
X95608376Y-71492188D01*
X95643000Y-71666259D01*
X95643000Y-71843741D01*
X95608376Y-72017812D01*
X95540456Y-72181784D01*
X95441853Y-72329354D01*
X95316354Y-72454853D01*
X95168784Y-72553456D01*
X95004812Y-72621376D01*
X94855512Y-72651073D01*
X94830742Y-72656000D01*
X94653258Y-72656000D01*
X94628488Y-72651073D01*
X94479188Y-72621376D01*
X94315216Y-72553456D01*
X94167646Y-72454853D01*
X94042147Y-72329354D01*
X93943544Y-72181784D01*
X93875624Y-72017812D01*
X93841000Y-71843741D01*
X93841000Y-71666259D01*
X93875624Y-71492188D01*
X93943544Y-71328216D01*
X94042147Y-71180646D01*
X94167646Y-71055147D01*
X94315216Y-70956544D01*
X94479188Y-70888624D01*
X94628488Y-70858927D01*
X94653258Y-70854000D01*
X94830742Y-70854000D01*
X94855512Y-70858927D01*
G37*
G36*
X87235512Y-70858927D02*
G01*
X87384812Y-70888624D01*
X87548784Y-70956544D01*
X87696354Y-71055147D01*
X87821853Y-71180646D01*
X87920456Y-71328216D01*
X87988376Y-71492188D01*
X88023000Y-71666259D01*
X88023000Y-71843741D01*
X87988376Y-72017812D01*
X87920456Y-72181784D01*
X87821853Y-72329354D01*
X87696354Y-72454853D01*
X87548784Y-72553456D01*
X87384812Y-72621376D01*
X87235512Y-72651073D01*
X87210742Y-72656000D01*
X87033258Y-72656000D01*
X87008488Y-72651073D01*
X86859188Y-72621376D01*
X86695216Y-72553456D01*
X86547646Y-72454853D01*
X86422147Y-72329354D01*
X86323544Y-72181784D01*
X86255624Y-72017812D01*
X86221000Y-71843741D01*
X86221000Y-71666259D01*
X86255624Y-71492188D01*
X86323544Y-71328216D01*
X86422147Y-71180646D01*
X86547646Y-71055147D01*
X86695216Y-70956544D01*
X86859188Y-70888624D01*
X87008488Y-70858927D01*
X87033258Y-70854000D01*
X87210742Y-70854000D01*
X87235512Y-70858927D01*
G37*
G36*
X92315512Y-70858927D02*
G01*
X92464812Y-70888624D01*
X92628784Y-70956544D01*
X92776354Y-71055147D01*
X92901853Y-71180646D01*
X93000456Y-71328216D01*
X93068376Y-71492188D01*
X93103000Y-71666259D01*
X93103000Y-71843741D01*
X93068376Y-72017812D01*
X93000456Y-72181784D01*
X92901853Y-72329354D01*
X92776354Y-72454853D01*
X92628784Y-72553456D01*
X92464812Y-72621376D01*
X92315512Y-72651073D01*
X92290742Y-72656000D01*
X92113258Y-72656000D01*
X92088488Y-72651073D01*
X91939188Y-72621376D01*
X91775216Y-72553456D01*
X91627646Y-72454853D01*
X91502147Y-72329354D01*
X91403544Y-72181784D01*
X91335624Y-72017812D01*
X91301000Y-71843741D01*
X91301000Y-71666259D01*
X91335624Y-71492188D01*
X91403544Y-71328216D01*
X91502147Y-71180646D01*
X91627646Y-71055147D01*
X91775216Y-70956544D01*
X91939188Y-70888624D01*
X92088488Y-70858927D01*
X92113258Y-70854000D01*
X92290742Y-70854000D01*
X92315512Y-70858927D01*
G37*
G36*
X138035512Y-70858927D02*
G01*
X138184812Y-70888624D01*
X138348784Y-70956544D01*
X138496354Y-71055147D01*
X138621853Y-71180646D01*
X138720456Y-71328216D01*
X138788376Y-71492188D01*
X138823000Y-71666259D01*
X138823000Y-71843741D01*
X138788376Y-72017812D01*
X138720456Y-72181784D01*
X138621853Y-72329354D01*
X138496354Y-72454853D01*
X138348784Y-72553456D01*
X138184812Y-72621376D01*
X138035512Y-72651073D01*
X138010742Y-72656000D01*
X137833258Y-72656000D01*
X137808488Y-72651073D01*
X137659188Y-72621376D01*
X137495216Y-72553456D01*
X137347646Y-72454853D01*
X137222147Y-72329354D01*
X137123544Y-72181784D01*
X137055624Y-72017812D01*
X137021000Y-71843741D01*
X137021000Y-71666259D01*
X137055624Y-71492188D01*
X137123544Y-71328216D01*
X137222147Y-71180646D01*
X137347646Y-71055147D01*
X137495216Y-70956544D01*
X137659188Y-70888624D01*
X137808488Y-70858927D01*
X137833258Y-70854000D01*
X138010742Y-70854000D01*
X138035512Y-70858927D01*
G37*
G36*
X140575512Y-70858927D02*
G01*
X140724812Y-70888624D01*
X140888784Y-70956544D01*
X141036354Y-71055147D01*
X141161853Y-71180646D01*
X141260456Y-71328216D01*
X141328376Y-71492188D01*
X141363000Y-71666259D01*
X141363000Y-71843741D01*
X141328376Y-72017812D01*
X141260456Y-72181784D01*
X141161853Y-72329354D01*
X141036354Y-72454853D01*
X140888784Y-72553456D01*
X140724812Y-72621376D01*
X140575512Y-72651073D01*
X140550742Y-72656000D01*
X140373258Y-72656000D01*
X140348488Y-72651073D01*
X140199188Y-72621376D01*
X140035216Y-72553456D01*
X139887646Y-72454853D01*
X139762147Y-72329354D01*
X139663544Y-72181784D01*
X139595624Y-72017812D01*
X139561000Y-71843741D01*
X139561000Y-71666259D01*
X139595624Y-71492188D01*
X139663544Y-71328216D01*
X139762147Y-71180646D01*
X139887646Y-71055147D01*
X140035216Y-70956544D01*
X140199188Y-70888624D01*
X140348488Y-70858927D01*
X140373258Y-70854000D01*
X140550742Y-70854000D01*
X140575512Y-70858927D01*
G37*
G36*
X143115512Y-70858927D02*
G01*
X143264812Y-70888624D01*
X143428784Y-70956544D01*
X143576354Y-71055147D01*
X143701853Y-71180646D01*
X143800456Y-71328216D01*
X143868376Y-71492188D01*
X143903000Y-71666259D01*
X143903000Y-71843741D01*
X143868376Y-72017812D01*
X143800456Y-72181784D01*
X143701853Y-72329354D01*
X143576354Y-72454853D01*
X143428784Y-72553456D01*
X143264812Y-72621376D01*
X143115512Y-72651073D01*
X143090742Y-72656000D01*
X142913258Y-72656000D01*
X142888488Y-72651073D01*
X142739188Y-72621376D01*
X142575216Y-72553456D01*
X142427646Y-72454853D01*
X142302147Y-72329354D01*
X142203544Y-72181784D01*
X142135624Y-72017812D01*
X142101000Y-71843741D01*
X142101000Y-71666259D01*
X142135624Y-71492188D01*
X142203544Y-71328216D01*
X142302147Y-71180646D01*
X142427646Y-71055147D01*
X142575216Y-70956544D01*
X142739188Y-70888624D01*
X142888488Y-70858927D01*
X142913258Y-70854000D01*
X143090742Y-70854000D01*
X143115512Y-70858927D01*
G37*
G36*
X145655512Y-70858927D02*
G01*
X145804812Y-70888624D01*
X145968784Y-70956544D01*
X146116354Y-71055147D01*
X146241853Y-71180646D01*
X146340456Y-71328216D01*
X146408376Y-71492188D01*
X146443000Y-71666259D01*
X146443000Y-71843741D01*
X146408376Y-72017812D01*
X146340456Y-72181784D01*
X146241853Y-72329354D01*
X146116354Y-72454853D01*
X145968784Y-72553456D01*
X145804812Y-72621376D01*
X145655512Y-72651073D01*
X145630742Y-72656000D01*
X145453258Y-72656000D01*
X145428488Y-72651073D01*
X145279188Y-72621376D01*
X145115216Y-72553456D01*
X144967646Y-72454853D01*
X144842147Y-72329354D01*
X144743544Y-72181784D01*
X144675624Y-72017812D01*
X144641000Y-71843741D01*
X144641000Y-71666259D01*
X144675624Y-71492188D01*
X144743544Y-71328216D01*
X144842147Y-71180646D01*
X144967646Y-71055147D01*
X145115216Y-70956544D01*
X145279188Y-70888624D01*
X145428488Y-70858927D01*
X145453258Y-70854000D01*
X145630742Y-70854000D01*
X145655512Y-70858927D01*
G37*
G36*
X148195512Y-70858927D02*
G01*
X148344812Y-70888624D01*
X148508784Y-70956544D01*
X148656354Y-71055147D01*
X148781853Y-71180646D01*
X148880456Y-71328216D01*
X148948376Y-71492188D01*
X148983000Y-71666259D01*
X148983000Y-71843741D01*
X148948376Y-72017812D01*
X148880456Y-72181784D01*
X148781853Y-72329354D01*
X148656354Y-72454853D01*
X148508784Y-72553456D01*
X148344812Y-72621376D01*
X148195512Y-72651073D01*
X148170742Y-72656000D01*
X147993258Y-72656000D01*
X147968488Y-72651073D01*
X147819188Y-72621376D01*
X147655216Y-72553456D01*
X147507646Y-72454853D01*
X147382147Y-72329354D01*
X147283544Y-72181784D01*
X147215624Y-72017812D01*
X147181000Y-71843741D01*
X147181000Y-71666259D01*
X147215624Y-71492188D01*
X147283544Y-71328216D01*
X147382147Y-71180646D01*
X147507646Y-71055147D01*
X147655216Y-70956544D01*
X147819188Y-70888624D01*
X147968488Y-70858927D01*
X147993258Y-70854000D01*
X148170742Y-70854000D01*
X148195512Y-70858927D01*
G37*
G36*
X74535512Y-70858927D02*
G01*
X74684812Y-70888624D01*
X74848784Y-70956544D01*
X74996354Y-71055147D01*
X75121853Y-71180646D01*
X75220456Y-71328216D01*
X75288376Y-71492188D01*
X75323000Y-71666259D01*
X75323000Y-71843741D01*
X75288376Y-72017812D01*
X75220456Y-72181784D01*
X75121853Y-72329354D01*
X74996354Y-72454853D01*
X74848784Y-72553456D01*
X74684812Y-72621376D01*
X74535512Y-72651073D01*
X74510742Y-72656000D01*
X74333258Y-72656000D01*
X74308488Y-72651073D01*
X74159188Y-72621376D01*
X73995216Y-72553456D01*
X73847646Y-72454853D01*
X73722147Y-72329354D01*
X73623544Y-72181784D01*
X73555624Y-72017812D01*
X73521000Y-71843741D01*
X73521000Y-71666259D01*
X73555624Y-71492188D01*
X73623544Y-71328216D01*
X73722147Y-71180646D01*
X73847646Y-71055147D01*
X73995216Y-70956544D01*
X74159188Y-70888624D01*
X74308488Y-70858927D01*
X74333258Y-70854000D01*
X74510742Y-70854000D01*
X74535512Y-70858927D01*
G37*
G36*
X150735512Y-70858927D02*
G01*
X150884812Y-70888624D01*
X151048784Y-70956544D01*
X151196354Y-71055147D01*
X151321853Y-71180646D01*
X151420456Y-71328216D01*
X151488376Y-71492188D01*
X151523000Y-71666259D01*
X151523000Y-71843741D01*
X151488376Y-72017812D01*
X151420456Y-72181784D01*
X151321853Y-72329354D01*
X151196354Y-72454853D01*
X151048784Y-72553456D01*
X150884812Y-72621376D01*
X150735512Y-72651073D01*
X150710742Y-72656000D01*
X150533258Y-72656000D01*
X150508488Y-72651073D01*
X150359188Y-72621376D01*
X150195216Y-72553456D01*
X150047646Y-72454853D01*
X149922147Y-72329354D01*
X149823544Y-72181784D01*
X149755624Y-72017812D01*
X149721000Y-71843741D01*
X149721000Y-71666259D01*
X149755624Y-71492188D01*
X149823544Y-71328216D01*
X149922147Y-71180646D01*
X150047646Y-71055147D01*
X150195216Y-70956544D01*
X150359188Y-70888624D01*
X150508488Y-70858927D01*
X150533258Y-70854000D01*
X150710742Y-70854000D01*
X150735512Y-70858927D01*
G37*
G36*
X153275512Y-70858927D02*
G01*
X153424812Y-70888624D01*
X153588784Y-70956544D01*
X153736354Y-71055147D01*
X153861853Y-71180646D01*
X153960456Y-71328216D01*
X154028376Y-71492188D01*
X154063000Y-71666259D01*
X154063000Y-71843741D01*
X154028376Y-72017812D01*
X153960456Y-72181784D01*
X153861853Y-72329354D01*
X153736354Y-72454853D01*
X153588784Y-72553456D01*
X153424812Y-72621376D01*
X153275512Y-72651073D01*
X153250742Y-72656000D01*
X153073258Y-72656000D01*
X153048488Y-72651073D01*
X152899188Y-72621376D01*
X152735216Y-72553456D01*
X152587646Y-72454853D01*
X152462147Y-72329354D01*
X152363544Y-72181784D01*
X152295624Y-72017812D01*
X152261000Y-71843741D01*
X152261000Y-71666259D01*
X152295624Y-71492188D01*
X152363544Y-71328216D01*
X152462147Y-71180646D01*
X152587646Y-71055147D01*
X152735216Y-70956544D01*
X152899188Y-70888624D01*
X153048488Y-70858927D01*
X153073258Y-70854000D01*
X153250742Y-70854000D01*
X153275512Y-70858927D01*
G37*
G36*
X71995512Y-70858927D02*
G01*
X72144812Y-70888624D01*
X72308784Y-70956544D01*
X72456354Y-71055147D01*
X72581853Y-71180646D01*
X72680456Y-71328216D01*
X72748376Y-71492188D01*
X72783000Y-71666259D01*
X72783000Y-71843741D01*
X72748376Y-72017812D01*
X72680456Y-72181784D01*
X72581853Y-72329354D01*
X72456354Y-72454853D01*
X72308784Y-72553456D01*
X72144812Y-72621376D01*
X71995512Y-72651073D01*
X71970742Y-72656000D01*
X71793258Y-72656000D01*
X71768488Y-72651073D01*
X71619188Y-72621376D01*
X71455216Y-72553456D01*
X71307646Y-72454853D01*
X71182147Y-72329354D01*
X71083544Y-72181784D01*
X71015624Y-72017812D01*
X70981000Y-71843741D01*
X70981000Y-71666259D01*
X71015624Y-71492188D01*
X71083544Y-71328216D01*
X71182147Y-71180646D01*
X71307646Y-71055147D01*
X71455216Y-70956544D01*
X71619188Y-70888624D01*
X71768488Y-70858927D01*
X71793258Y-70854000D01*
X71970742Y-70854000D01*
X71995512Y-70858927D01*
G37*
G36*
X99935512Y-70858927D02*
G01*
X100084812Y-70888624D01*
X100248784Y-70956544D01*
X100396354Y-71055147D01*
X100521853Y-71180646D01*
X100620456Y-71328216D01*
X100688376Y-71492188D01*
X100723000Y-71666259D01*
X100723000Y-71843741D01*
X100688376Y-72017812D01*
X100620456Y-72181784D01*
X100521853Y-72329354D01*
X100396354Y-72454853D01*
X100248784Y-72553456D01*
X100084812Y-72621376D01*
X99935512Y-72651073D01*
X99910742Y-72656000D01*
X99733258Y-72656000D01*
X99708488Y-72651073D01*
X99559188Y-72621376D01*
X99395216Y-72553456D01*
X99247646Y-72454853D01*
X99122147Y-72329354D01*
X99023544Y-72181784D01*
X98955624Y-72017812D01*
X98921000Y-71843741D01*
X98921000Y-71666259D01*
X98955624Y-71492188D01*
X99023544Y-71328216D01*
X99122147Y-71180646D01*
X99247646Y-71055147D01*
X99395216Y-70956544D01*
X99559188Y-70888624D01*
X99708488Y-70858927D01*
X99733258Y-70854000D01*
X99910742Y-70854000D01*
X99935512Y-70858927D01*
G37*
G36*
X102475512Y-70858927D02*
G01*
X102624812Y-70888624D01*
X102788784Y-70956544D01*
X102936354Y-71055147D01*
X103061853Y-71180646D01*
X103160456Y-71328216D01*
X103228376Y-71492188D01*
X103263000Y-71666259D01*
X103263000Y-71843741D01*
X103228376Y-72017812D01*
X103160456Y-72181784D01*
X103061853Y-72329354D01*
X102936354Y-72454853D01*
X102788784Y-72553456D01*
X102624812Y-72621376D01*
X102475512Y-72651073D01*
X102450742Y-72656000D01*
X102273258Y-72656000D01*
X102248488Y-72651073D01*
X102099188Y-72621376D01*
X101935216Y-72553456D01*
X101787646Y-72454853D01*
X101662147Y-72329354D01*
X101563544Y-72181784D01*
X101495624Y-72017812D01*
X101461000Y-71843741D01*
X101461000Y-71666259D01*
X101495624Y-71492188D01*
X101563544Y-71328216D01*
X101662147Y-71180646D01*
X101787646Y-71055147D01*
X101935216Y-70956544D01*
X102099188Y-70888624D01*
X102248488Y-70858927D01*
X102273258Y-70854000D01*
X102450742Y-70854000D01*
X102475512Y-70858927D01*
G37*
G36*
X112635512Y-70858927D02*
G01*
X112784812Y-70888624D01*
X112948784Y-70956544D01*
X113096354Y-71055147D01*
X113221853Y-71180646D01*
X113320456Y-71328216D01*
X113388376Y-71492188D01*
X113423000Y-71666259D01*
X113423000Y-71843741D01*
X113388376Y-72017812D01*
X113320456Y-72181784D01*
X113221853Y-72329354D01*
X113096354Y-72454853D01*
X112948784Y-72553456D01*
X112784812Y-72621376D01*
X112635512Y-72651073D01*
X112610742Y-72656000D01*
X112433258Y-72656000D01*
X112408488Y-72651073D01*
X112259188Y-72621376D01*
X112095216Y-72553456D01*
X111947646Y-72454853D01*
X111822147Y-72329354D01*
X111723544Y-72181784D01*
X111655624Y-72017812D01*
X111621000Y-71843741D01*
X111621000Y-71666259D01*
X111655624Y-71492188D01*
X111723544Y-71328216D01*
X111822147Y-71180646D01*
X111947646Y-71055147D01*
X112095216Y-70956544D01*
X112259188Y-70888624D01*
X112408488Y-70858927D01*
X112433258Y-70854000D01*
X112610742Y-70854000D01*
X112635512Y-70858927D01*
G37*
G36*
X115175512Y-70858927D02*
G01*
X115324812Y-70888624D01*
X115488784Y-70956544D01*
X115636354Y-71055147D01*
X115761853Y-71180646D01*
X115860456Y-71328216D01*
X115928376Y-71492188D01*
X115963000Y-71666259D01*
X115963000Y-71843741D01*
X115928376Y-72017812D01*
X115860456Y-72181784D01*
X115761853Y-72329354D01*
X115636354Y-72454853D01*
X115488784Y-72553456D01*
X115324812Y-72621376D01*
X115175512Y-72651073D01*
X115150742Y-72656000D01*
X114973258Y-72656000D01*
X114948488Y-72651073D01*
X114799188Y-72621376D01*
X114635216Y-72553456D01*
X114487646Y-72454853D01*
X114362147Y-72329354D01*
X114263544Y-72181784D01*
X114195624Y-72017812D01*
X114161000Y-71843741D01*
X114161000Y-71666259D01*
X114195624Y-71492188D01*
X114263544Y-71328216D01*
X114362147Y-71180646D01*
X114487646Y-71055147D01*
X114635216Y-70956544D01*
X114799188Y-70888624D01*
X114948488Y-70858927D01*
X114973258Y-70854000D01*
X115150742Y-70854000D01*
X115175512Y-70858927D01*
G37*
G36*
X61835512Y-70858927D02*
G01*
X61984812Y-70888624D01*
X62148784Y-70956544D01*
X62296354Y-71055147D01*
X62421853Y-71180646D01*
X62520456Y-71328216D01*
X62588376Y-71492188D01*
X62623000Y-71666259D01*
X62623000Y-71843741D01*
X62588376Y-72017812D01*
X62520456Y-72181784D01*
X62421853Y-72329354D01*
X62296354Y-72454853D01*
X62148784Y-72553456D01*
X61984812Y-72621376D01*
X61835512Y-72651073D01*
X61810742Y-72656000D01*
X61633258Y-72656000D01*
X61608488Y-72651073D01*
X61459188Y-72621376D01*
X61295216Y-72553456D01*
X61147646Y-72454853D01*
X61022147Y-72329354D01*
X60923544Y-72181784D01*
X60855624Y-72017812D01*
X60821000Y-71843741D01*
X60821000Y-71666259D01*
X60855624Y-71492188D01*
X60923544Y-71328216D01*
X61022147Y-71180646D01*
X61147646Y-71055147D01*
X61295216Y-70956544D01*
X61459188Y-70888624D01*
X61608488Y-70858927D01*
X61633258Y-70854000D01*
X61810742Y-70854000D01*
X61835512Y-70858927D01*
G37*
G36*
X117715512Y-70858927D02*
G01*
X117864812Y-70888624D01*
X118028784Y-70956544D01*
X118176354Y-71055147D01*
X118301853Y-71180646D01*
X118400456Y-71328216D01*
X118468376Y-71492188D01*
X118503000Y-71666259D01*
X118503000Y-71843741D01*
X118468376Y-72017812D01*
X118400456Y-72181784D01*
X118301853Y-72329354D01*
X118176354Y-72454853D01*
X118028784Y-72553456D01*
X117864812Y-72621376D01*
X117715512Y-72651073D01*
X117690742Y-72656000D01*
X117513258Y-72656000D01*
X117488488Y-72651073D01*
X117339188Y-72621376D01*
X117175216Y-72553456D01*
X117027646Y-72454853D01*
X116902147Y-72329354D01*
X116803544Y-72181784D01*
X116735624Y-72017812D01*
X116701000Y-71843741D01*
X116701000Y-71666259D01*
X116735624Y-71492188D01*
X116803544Y-71328216D01*
X116902147Y-71180646D01*
X117027646Y-71055147D01*
X117175216Y-70956544D01*
X117339188Y-70888624D01*
X117488488Y-70858927D01*
X117513258Y-70854000D01*
X117690742Y-70854000D01*
X117715512Y-70858927D01*
G37*
G36*
X127875512Y-70858927D02*
G01*
X128024812Y-70888624D01*
X128188784Y-70956544D01*
X128336354Y-71055147D01*
X128461853Y-71180646D01*
X128560456Y-71328216D01*
X128628376Y-71492188D01*
X128663000Y-71666259D01*
X128663000Y-71843741D01*
X128628376Y-72017812D01*
X128560456Y-72181784D01*
X128461853Y-72329354D01*
X128336354Y-72454853D01*
X128188784Y-72553456D01*
X128024812Y-72621376D01*
X127875512Y-72651073D01*
X127850742Y-72656000D01*
X127673258Y-72656000D01*
X127648488Y-72651073D01*
X127499188Y-72621376D01*
X127335216Y-72553456D01*
X127187646Y-72454853D01*
X127062147Y-72329354D01*
X126963544Y-72181784D01*
X126895624Y-72017812D01*
X126861000Y-71843741D01*
X126861000Y-71666259D01*
X126895624Y-71492188D01*
X126963544Y-71328216D01*
X127062147Y-71180646D01*
X127187646Y-71055147D01*
X127335216Y-70956544D01*
X127499188Y-70888624D01*
X127648488Y-70858927D01*
X127673258Y-70854000D01*
X127850742Y-70854000D01*
X127875512Y-70858927D01*
G37*
G36*
X89775512Y-70858927D02*
G01*
X89924812Y-70888624D01*
X90088784Y-70956544D01*
X90236354Y-71055147D01*
X90361853Y-71180646D01*
X90460456Y-71328216D01*
X90528376Y-71492188D01*
X90563000Y-71666259D01*
X90563000Y-71843741D01*
X90528376Y-72017812D01*
X90460456Y-72181784D01*
X90361853Y-72329354D01*
X90236354Y-72454853D01*
X90088784Y-72553456D01*
X89924812Y-72621376D01*
X89775512Y-72651073D01*
X89750742Y-72656000D01*
X89573258Y-72656000D01*
X89548488Y-72651073D01*
X89399188Y-72621376D01*
X89235216Y-72553456D01*
X89087646Y-72454853D01*
X88962147Y-72329354D01*
X88863544Y-72181784D01*
X88795624Y-72017812D01*
X88761000Y-71843741D01*
X88761000Y-71666259D01*
X88795624Y-71492188D01*
X88863544Y-71328216D01*
X88962147Y-71180646D01*
X89087646Y-71055147D01*
X89235216Y-70956544D01*
X89399188Y-70888624D01*
X89548488Y-70858927D01*
X89573258Y-70854000D01*
X89750742Y-70854000D01*
X89775512Y-70858927D01*
G37*
G36*
X64375512Y-70858927D02*
G01*
X64524812Y-70888624D01*
X64688784Y-70956544D01*
X64836354Y-71055147D01*
X64961853Y-71180646D01*
X65060456Y-71328216D01*
X65128376Y-71492188D01*
X65163000Y-71666259D01*
X65163000Y-71843741D01*
X65128376Y-72017812D01*
X65060456Y-72181784D01*
X64961853Y-72329354D01*
X64836354Y-72454853D01*
X64688784Y-72553456D01*
X64524812Y-72621376D01*
X64375512Y-72651073D01*
X64350742Y-72656000D01*
X64173258Y-72656000D01*
X64148488Y-72651073D01*
X63999188Y-72621376D01*
X63835216Y-72553456D01*
X63687646Y-72454853D01*
X63562147Y-72329354D01*
X63463544Y-72181784D01*
X63395624Y-72017812D01*
X63361000Y-71843741D01*
X63361000Y-71666259D01*
X63395624Y-71492188D01*
X63463544Y-71328216D01*
X63562147Y-71180646D01*
X63687646Y-71055147D01*
X63835216Y-70956544D01*
X63999188Y-70888624D01*
X64148488Y-70858927D01*
X64173258Y-70854000D01*
X64350742Y-70854000D01*
X64375512Y-70858927D01*
G37*
G36*
X120255512Y-70858927D02*
G01*
X120404812Y-70888624D01*
X120568784Y-70956544D01*
X120716354Y-71055147D01*
X120841853Y-71180646D01*
X120940456Y-71328216D01*
X121008376Y-71492188D01*
X121043000Y-71666259D01*
X121043000Y-71843741D01*
X121008376Y-72017812D01*
X120940456Y-72181784D01*
X120841853Y-72329354D01*
X120716354Y-72454853D01*
X120568784Y-72553456D01*
X120404812Y-72621376D01*
X120255512Y-72651073D01*
X120230742Y-72656000D01*
X120053258Y-72656000D01*
X120028488Y-72651073D01*
X119879188Y-72621376D01*
X119715216Y-72553456D01*
X119567646Y-72454853D01*
X119442147Y-72329354D01*
X119343544Y-72181784D01*
X119275624Y-72017812D01*
X119241000Y-71843741D01*
X119241000Y-71666259D01*
X119275624Y-71492188D01*
X119343544Y-71328216D01*
X119442147Y-71180646D01*
X119567646Y-71055147D01*
X119715216Y-70956544D01*
X119879188Y-70888624D01*
X120028488Y-70858927D01*
X120053258Y-70854000D01*
X120230742Y-70854000D01*
X120255512Y-70858927D01*
G37*
G36*
X69455512Y-70858927D02*
G01*
X69604812Y-70888624D01*
X69768784Y-70956544D01*
X69916354Y-71055147D01*
X70041853Y-71180646D01*
X70140456Y-71328216D01*
X70208376Y-71492188D01*
X70243000Y-71666259D01*
X70243000Y-71843741D01*
X70208376Y-72017812D01*
X70140456Y-72181784D01*
X70041853Y-72329354D01*
X69916354Y-72454853D01*
X69768784Y-72553456D01*
X69604812Y-72621376D01*
X69455512Y-72651073D01*
X69430742Y-72656000D01*
X69253258Y-72656000D01*
X69228488Y-72651073D01*
X69079188Y-72621376D01*
X68915216Y-72553456D01*
X68767646Y-72454853D01*
X68642147Y-72329354D01*
X68543544Y-72181784D01*
X68475624Y-72017812D01*
X68441000Y-71843741D01*
X68441000Y-71666259D01*
X68475624Y-71492188D01*
X68543544Y-71328216D01*
X68642147Y-71180646D01*
X68767646Y-71055147D01*
X68915216Y-70956544D01*
X69079188Y-70888624D01*
X69228488Y-70858927D01*
X69253258Y-70854000D01*
X69430742Y-70854000D01*
X69455512Y-70858927D01*
G37*
G36*
X122795512Y-70858927D02*
G01*
X122944812Y-70888624D01*
X123108784Y-70956544D01*
X123256354Y-71055147D01*
X123381853Y-71180646D01*
X123480456Y-71328216D01*
X123548376Y-71492188D01*
X123583000Y-71666259D01*
X123583000Y-71843741D01*
X123548376Y-72017812D01*
X123480456Y-72181784D01*
X123381853Y-72329354D01*
X123256354Y-72454853D01*
X123108784Y-72553456D01*
X122944812Y-72621376D01*
X122795512Y-72651073D01*
X122770742Y-72656000D01*
X122593258Y-72656000D01*
X122568488Y-72651073D01*
X122419188Y-72621376D01*
X122255216Y-72553456D01*
X122107646Y-72454853D01*
X121982147Y-72329354D01*
X121883544Y-72181784D01*
X121815624Y-72017812D01*
X121781000Y-71843741D01*
X121781000Y-71666259D01*
X121815624Y-71492188D01*
X121883544Y-71328216D01*
X121982147Y-71180646D01*
X122107646Y-71055147D01*
X122255216Y-70956544D01*
X122419188Y-70888624D01*
X122568488Y-70858927D01*
X122593258Y-70854000D01*
X122770742Y-70854000D01*
X122795512Y-70858927D01*
G37*
G36*
X125335512Y-70858927D02*
G01*
X125484812Y-70888624D01*
X125648784Y-70956544D01*
X125796354Y-71055147D01*
X125921853Y-71180646D01*
X126020456Y-71328216D01*
X126088376Y-71492188D01*
X126123000Y-71666259D01*
X126123000Y-71843741D01*
X126088376Y-72017812D01*
X126020456Y-72181784D01*
X125921853Y-72329354D01*
X125796354Y-72454853D01*
X125648784Y-72553456D01*
X125484812Y-72621376D01*
X125335512Y-72651073D01*
X125310742Y-72656000D01*
X125133258Y-72656000D01*
X125108488Y-72651073D01*
X124959188Y-72621376D01*
X124795216Y-72553456D01*
X124647646Y-72454853D01*
X124522147Y-72329354D01*
X124423544Y-72181784D01*
X124355624Y-72017812D01*
X124321000Y-71843741D01*
X124321000Y-71666259D01*
X124355624Y-71492188D01*
X124423544Y-71328216D01*
X124522147Y-71180646D01*
X124647646Y-71055147D01*
X124795216Y-70956544D01*
X124959188Y-70888624D01*
X125108488Y-70858927D01*
X125133258Y-70854000D01*
X125310742Y-70854000D01*
X125335512Y-70858927D01*
G37*
G36*
X66915512Y-70858927D02*
G01*
X67064812Y-70888624D01*
X67228784Y-70956544D01*
X67376354Y-71055147D01*
X67501853Y-71180646D01*
X67600456Y-71328216D01*
X67668376Y-71492188D01*
X67703000Y-71666259D01*
X67703000Y-71843741D01*
X67668376Y-72017812D01*
X67600456Y-72181784D01*
X67501853Y-72329354D01*
X67376354Y-72454853D01*
X67228784Y-72553456D01*
X67064812Y-72621376D01*
X66915512Y-72651073D01*
X66890742Y-72656000D01*
X66713258Y-72656000D01*
X66688488Y-72651073D01*
X66539188Y-72621376D01*
X66375216Y-72553456D01*
X66227646Y-72454853D01*
X66102147Y-72329354D01*
X66003544Y-72181784D01*
X65935624Y-72017812D01*
X65901000Y-71843741D01*
X65901000Y-71666259D01*
X65935624Y-71492188D01*
X66003544Y-71328216D01*
X66102147Y-71180646D01*
X66227646Y-71055147D01*
X66375216Y-70956544D01*
X66539188Y-70888624D01*
X66688488Y-70858927D01*
X66713258Y-70854000D01*
X66890742Y-70854000D01*
X66915512Y-70858927D01*
G37*
M02*
