G04 #@! TF.GenerationSoftware,KiCad,Pcbnew,(5.1.5)-3*
G04 #@! TF.CreationDate,2021-09-14T22:43:20-07:00*
G04 #@! TF.ProjectId,_autosave-Adapter,5f617574-6f73-4617-9665-2d4164617074,rev?*
G04 #@! TF.SameCoordinates,Original*
G04 #@! TF.FileFunction,Paste,Top*
G04 #@! TF.FilePolarity,Positive*
%FSLAX46Y46*%
G04 Gerber Fmt 4.6, Leading zero omitted, Abs format (unit mm)*
G04 Created by KiCad (PCBNEW (5.1.5)-3) date 2021-09-14 22:43:20*
%MOMM*%
%LPD*%
G04 APERTURE LIST*
%ADD10C,0.100000*%
G04 APERTURE END LIST*
D10*
G36*
X61999691Y-87727053D02*
G01*
X62020926Y-87730203D01*
X62041750Y-87735419D01*
X62061962Y-87742651D01*
X62081368Y-87751830D01*
X62099781Y-87762866D01*
X62117024Y-87775654D01*
X62132930Y-87790070D01*
X62147346Y-87805976D01*
X62160134Y-87823219D01*
X62171170Y-87841632D01*
X62180349Y-87861038D01*
X62187581Y-87881250D01*
X62192797Y-87902074D01*
X62195947Y-87923309D01*
X62197000Y-87944750D01*
X62197000Y-88382250D01*
X62195947Y-88403691D01*
X62192797Y-88424926D01*
X62187581Y-88445750D01*
X62180349Y-88465962D01*
X62171170Y-88485368D01*
X62160134Y-88503781D01*
X62147346Y-88521024D01*
X62132930Y-88536930D01*
X62117024Y-88551346D01*
X62099781Y-88564134D01*
X62081368Y-88575170D01*
X62061962Y-88584349D01*
X62041750Y-88591581D01*
X62020926Y-88596797D01*
X61999691Y-88599947D01*
X61978250Y-88601000D01*
X61465750Y-88601000D01*
X61444309Y-88599947D01*
X61423074Y-88596797D01*
X61402250Y-88591581D01*
X61382038Y-88584349D01*
X61362632Y-88575170D01*
X61344219Y-88564134D01*
X61326976Y-88551346D01*
X61311070Y-88536930D01*
X61296654Y-88521024D01*
X61283866Y-88503781D01*
X61272830Y-88485368D01*
X61263651Y-88465962D01*
X61256419Y-88445750D01*
X61251203Y-88424926D01*
X61248053Y-88403691D01*
X61247000Y-88382250D01*
X61247000Y-87944750D01*
X61248053Y-87923309D01*
X61251203Y-87902074D01*
X61256419Y-87881250D01*
X61263651Y-87861038D01*
X61272830Y-87841632D01*
X61283866Y-87823219D01*
X61296654Y-87805976D01*
X61311070Y-87790070D01*
X61326976Y-87775654D01*
X61344219Y-87762866D01*
X61362632Y-87751830D01*
X61382038Y-87742651D01*
X61402250Y-87735419D01*
X61423074Y-87730203D01*
X61444309Y-87727053D01*
X61465750Y-87726000D01*
X61978250Y-87726000D01*
X61999691Y-87727053D01*
G37*
G36*
X61999691Y-86152053D02*
G01*
X62020926Y-86155203D01*
X62041750Y-86160419D01*
X62061962Y-86167651D01*
X62081368Y-86176830D01*
X62099781Y-86187866D01*
X62117024Y-86200654D01*
X62132930Y-86215070D01*
X62147346Y-86230976D01*
X62160134Y-86248219D01*
X62171170Y-86266632D01*
X62180349Y-86286038D01*
X62187581Y-86306250D01*
X62192797Y-86327074D01*
X62195947Y-86348309D01*
X62197000Y-86369750D01*
X62197000Y-86807250D01*
X62195947Y-86828691D01*
X62192797Y-86849926D01*
X62187581Y-86870750D01*
X62180349Y-86890962D01*
X62171170Y-86910368D01*
X62160134Y-86928781D01*
X62147346Y-86946024D01*
X62132930Y-86961930D01*
X62117024Y-86976346D01*
X62099781Y-86989134D01*
X62081368Y-87000170D01*
X62061962Y-87009349D01*
X62041750Y-87016581D01*
X62020926Y-87021797D01*
X61999691Y-87024947D01*
X61978250Y-87026000D01*
X61465750Y-87026000D01*
X61444309Y-87024947D01*
X61423074Y-87021797D01*
X61402250Y-87016581D01*
X61382038Y-87009349D01*
X61362632Y-87000170D01*
X61344219Y-86989134D01*
X61326976Y-86976346D01*
X61311070Y-86961930D01*
X61296654Y-86946024D01*
X61283866Y-86928781D01*
X61272830Y-86910368D01*
X61263651Y-86890962D01*
X61256419Y-86870750D01*
X61251203Y-86849926D01*
X61248053Y-86828691D01*
X61247000Y-86807250D01*
X61247000Y-86369750D01*
X61248053Y-86348309D01*
X61251203Y-86327074D01*
X61256419Y-86306250D01*
X61263651Y-86286038D01*
X61272830Y-86266632D01*
X61283866Y-86248219D01*
X61296654Y-86230976D01*
X61311070Y-86215070D01*
X61326976Y-86200654D01*
X61344219Y-86187866D01*
X61362632Y-86176830D01*
X61382038Y-86167651D01*
X61402250Y-86160419D01*
X61423074Y-86155203D01*
X61444309Y-86152053D01*
X61465750Y-86151000D01*
X61978250Y-86151000D01*
X61999691Y-86152053D01*
G37*
G36*
X87907691Y-87727053D02*
G01*
X87928926Y-87730203D01*
X87949750Y-87735419D01*
X87969962Y-87742651D01*
X87989368Y-87751830D01*
X88007781Y-87762866D01*
X88025024Y-87775654D01*
X88040930Y-87790070D01*
X88055346Y-87805976D01*
X88068134Y-87823219D01*
X88079170Y-87841632D01*
X88088349Y-87861038D01*
X88095581Y-87881250D01*
X88100797Y-87902074D01*
X88103947Y-87923309D01*
X88105000Y-87944750D01*
X88105000Y-88382250D01*
X88103947Y-88403691D01*
X88100797Y-88424926D01*
X88095581Y-88445750D01*
X88088349Y-88465962D01*
X88079170Y-88485368D01*
X88068134Y-88503781D01*
X88055346Y-88521024D01*
X88040930Y-88536930D01*
X88025024Y-88551346D01*
X88007781Y-88564134D01*
X87989368Y-88575170D01*
X87969962Y-88584349D01*
X87949750Y-88591581D01*
X87928926Y-88596797D01*
X87907691Y-88599947D01*
X87886250Y-88601000D01*
X87373750Y-88601000D01*
X87352309Y-88599947D01*
X87331074Y-88596797D01*
X87310250Y-88591581D01*
X87290038Y-88584349D01*
X87270632Y-88575170D01*
X87252219Y-88564134D01*
X87234976Y-88551346D01*
X87219070Y-88536930D01*
X87204654Y-88521024D01*
X87191866Y-88503781D01*
X87180830Y-88485368D01*
X87171651Y-88465962D01*
X87164419Y-88445750D01*
X87159203Y-88424926D01*
X87156053Y-88403691D01*
X87155000Y-88382250D01*
X87155000Y-87944750D01*
X87156053Y-87923309D01*
X87159203Y-87902074D01*
X87164419Y-87881250D01*
X87171651Y-87861038D01*
X87180830Y-87841632D01*
X87191866Y-87823219D01*
X87204654Y-87805976D01*
X87219070Y-87790070D01*
X87234976Y-87775654D01*
X87252219Y-87762866D01*
X87270632Y-87751830D01*
X87290038Y-87742651D01*
X87310250Y-87735419D01*
X87331074Y-87730203D01*
X87352309Y-87727053D01*
X87373750Y-87726000D01*
X87886250Y-87726000D01*
X87907691Y-87727053D01*
G37*
G36*
X87907691Y-86152053D02*
G01*
X87928926Y-86155203D01*
X87949750Y-86160419D01*
X87969962Y-86167651D01*
X87989368Y-86176830D01*
X88007781Y-86187866D01*
X88025024Y-86200654D01*
X88040930Y-86215070D01*
X88055346Y-86230976D01*
X88068134Y-86248219D01*
X88079170Y-86266632D01*
X88088349Y-86286038D01*
X88095581Y-86306250D01*
X88100797Y-86327074D01*
X88103947Y-86348309D01*
X88105000Y-86369750D01*
X88105000Y-86807250D01*
X88103947Y-86828691D01*
X88100797Y-86849926D01*
X88095581Y-86870750D01*
X88088349Y-86890962D01*
X88079170Y-86910368D01*
X88068134Y-86928781D01*
X88055346Y-86946024D01*
X88040930Y-86961930D01*
X88025024Y-86976346D01*
X88007781Y-86989134D01*
X87989368Y-87000170D01*
X87969962Y-87009349D01*
X87949750Y-87016581D01*
X87928926Y-87021797D01*
X87907691Y-87024947D01*
X87886250Y-87026000D01*
X87373750Y-87026000D01*
X87352309Y-87024947D01*
X87331074Y-87021797D01*
X87310250Y-87016581D01*
X87290038Y-87009349D01*
X87270632Y-87000170D01*
X87252219Y-86989134D01*
X87234976Y-86976346D01*
X87219070Y-86961930D01*
X87204654Y-86946024D01*
X87191866Y-86928781D01*
X87180830Y-86910368D01*
X87171651Y-86890962D01*
X87164419Y-86870750D01*
X87159203Y-86849926D01*
X87156053Y-86828691D01*
X87155000Y-86807250D01*
X87155000Y-86369750D01*
X87156053Y-86348309D01*
X87159203Y-86327074D01*
X87164419Y-86306250D01*
X87171651Y-86286038D01*
X87180830Y-86266632D01*
X87191866Y-86248219D01*
X87204654Y-86230976D01*
X87219070Y-86215070D01*
X87234976Y-86200654D01*
X87252219Y-86187866D01*
X87270632Y-86176830D01*
X87290038Y-86167651D01*
X87310250Y-86160419D01*
X87331074Y-86155203D01*
X87352309Y-86152053D01*
X87373750Y-86151000D01*
X87886250Y-86151000D01*
X87907691Y-86152053D01*
G37*
G36*
X112291691Y-86152053D02*
G01*
X112312926Y-86155203D01*
X112333750Y-86160419D01*
X112353962Y-86167651D01*
X112373368Y-86176830D01*
X112391781Y-86187866D01*
X112409024Y-86200654D01*
X112424930Y-86215070D01*
X112439346Y-86230976D01*
X112452134Y-86248219D01*
X112463170Y-86266632D01*
X112472349Y-86286038D01*
X112479581Y-86306250D01*
X112484797Y-86327074D01*
X112487947Y-86348309D01*
X112489000Y-86369750D01*
X112489000Y-86807250D01*
X112487947Y-86828691D01*
X112484797Y-86849926D01*
X112479581Y-86870750D01*
X112472349Y-86890962D01*
X112463170Y-86910368D01*
X112452134Y-86928781D01*
X112439346Y-86946024D01*
X112424930Y-86961930D01*
X112409024Y-86976346D01*
X112391781Y-86989134D01*
X112373368Y-87000170D01*
X112353962Y-87009349D01*
X112333750Y-87016581D01*
X112312926Y-87021797D01*
X112291691Y-87024947D01*
X112270250Y-87026000D01*
X111757750Y-87026000D01*
X111736309Y-87024947D01*
X111715074Y-87021797D01*
X111694250Y-87016581D01*
X111674038Y-87009349D01*
X111654632Y-87000170D01*
X111636219Y-86989134D01*
X111618976Y-86976346D01*
X111603070Y-86961930D01*
X111588654Y-86946024D01*
X111575866Y-86928781D01*
X111564830Y-86910368D01*
X111555651Y-86890962D01*
X111548419Y-86870750D01*
X111543203Y-86849926D01*
X111540053Y-86828691D01*
X111539000Y-86807250D01*
X111539000Y-86369750D01*
X111540053Y-86348309D01*
X111543203Y-86327074D01*
X111548419Y-86306250D01*
X111555651Y-86286038D01*
X111564830Y-86266632D01*
X111575866Y-86248219D01*
X111588654Y-86230976D01*
X111603070Y-86215070D01*
X111618976Y-86200654D01*
X111636219Y-86187866D01*
X111654632Y-86176830D01*
X111674038Y-86167651D01*
X111694250Y-86160419D01*
X111715074Y-86155203D01*
X111736309Y-86152053D01*
X111757750Y-86151000D01*
X112270250Y-86151000D01*
X112291691Y-86152053D01*
G37*
G36*
X112291691Y-87727053D02*
G01*
X112312926Y-87730203D01*
X112333750Y-87735419D01*
X112353962Y-87742651D01*
X112373368Y-87751830D01*
X112391781Y-87762866D01*
X112409024Y-87775654D01*
X112424930Y-87790070D01*
X112439346Y-87805976D01*
X112452134Y-87823219D01*
X112463170Y-87841632D01*
X112472349Y-87861038D01*
X112479581Y-87881250D01*
X112484797Y-87902074D01*
X112487947Y-87923309D01*
X112489000Y-87944750D01*
X112489000Y-88382250D01*
X112487947Y-88403691D01*
X112484797Y-88424926D01*
X112479581Y-88445750D01*
X112472349Y-88465962D01*
X112463170Y-88485368D01*
X112452134Y-88503781D01*
X112439346Y-88521024D01*
X112424930Y-88536930D01*
X112409024Y-88551346D01*
X112391781Y-88564134D01*
X112373368Y-88575170D01*
X112353962Y-88584349D01*
X112333750Y-88591581D01*
X112312926Y-88596797D01*
X112291691Y-88599947D01*
X112270250Y-88601000D01*
X111757750Y-88601000D01*
X111736309Y-88599947D01*
X111715074Y-88596797D01*
X111694250Y-88591581D01*
X111674038Y-88584349D01*
X111654632Y-88575170D01*
X111636219Y-88564134D01*
X111618976Y-88551346D01*
X111603070Y-88536930D01*
X111588654Y-88521024D01*
X111575866Y-88503781D01*
X111564830Y-88485368D01*
X111555651Y-88465962D01*
X111548419Y-88445750D01*
X111543203Y-88424926D01*
X111540053Y-88403691D01*
X111539000Y-88382250D01*
X111539000Y-87944750D01*
X111540053Y-87923309D01*
X111543203Y-87902074D01*
X111548419Y-87881250D01*
X111555651Y-87861038D01*
X111564830Y-87841632D01*
X111575866Y-87823219D01*
X111588654Y-87805976D01*
X111603070Y-87790070D01*
X111618976Y-87775654D01*
X111636219Y-87762866D01*
X111654632Y-87751830D01*
X111674038Y-87742651D01*
X111694250Y-87735419D01*
X111715074Y-87730203D01*
X111736309Y-87727053D01*
X111757750Y-87726000D01*
X112270250Y-87726000D01*
X112291691Y-87727053D01*
G37*
G36*
X138199691Y-86152053D02*
G01*
X138220926Y-86155203D01*
X138241750Y-86160419D01*
X138261962Y-86167651D01*
X138281368Y-86176830D01*
X138299781Y-86187866D01*
X138317024Y-86200654D01*
X138332930Y-86215070D01*
X138347346Y-86230976D01*
X138360134Y-86248219D01*
X138371170Y-86266632D01*
X138380349Y-86286038D01*
X138387581Y-86306250D01*
X138392797Y-86327074D01*
X138395947Y-86348309D01*
X138397000Y-86369750D01*
X138397000Y-86807250D01*
X138395947Y-86828691D01*
X138392797Y-86849926D01*
X138387581Y-86870750D01*
X138380349Y-86890962D01*
X138371170Y-86910368D01*
X138360134Y-86928781D01*
X138347346Y-86946024D01*
X138332930Y-86961930D01*
X138317024Y-86976346D01*
X138299781Y-86989134D01*
X138281368Y-87000170D01*
X138261962Y-87009349D01*
X138241750Y-87016581D01*
X138220926Y-87021797D01*
X138199691Y-87024947D01*
X138178250Y-87026000D01*
X137665750Y-87026000D01*
X137644309Y-87024947D01*
X137623074Y-87021797D01*
X137602250Y-87016581D01*
X137582038Y-87009349D01*
X137562632Y-87000170D01*
X137544219Y-86989134D01*
X137526976Y-86976346D01*
X137511070Y-86961930D01*
X137496654Y-86946024D01*
X137483866Y-86928781D01*
X137472830Y-86910368D01*
X137463651Y-86890962D01*
X137456419Y-86870750D01*
X137451203Y-86849926D01*
X137448053Y-86828691D01*
X137447000Y-86807250D01*
X137447000Y-86369750D01*
X137448053Y-86348309D01*
X137451203Y-86327074D01*
X137456419Y-86306250D01*
X137463651Y-86286038D01*
X137472830Y-86266632D01*
X137483866Y-86248219D01*
X137496654Y-86230976D01*
X137511070Y-86215070D01*
X137526976Y-86200654D01*
X137544219Y-86187866D01*
X137562632Y-86176830D01*
X137582038Y-86167651D01*
X137602250Y-86160419D01*
X137623074Y-86155203D01*
X137644309Y-86152053D01*
X137665750Y-86151000D01*
X138178250Y-86151000D01*
X138199691Y-86152053D01*
G37*
G36*
X138199691Y-87727053D02*
G01*
X138220926Y-87730203D01*
X138241750Y-87735419D01*
X138261962Y-87742651D01*
X138281368Y-87751830D01*
X138299781Y-87762866D01*
X138317024Y-87775654D01*
X138332930Y-87790070D01*
X138347346Y-87805976D01*
X138360134Y-87823219D01*
X138371170Y-87841632D01*
X138380349Y-87861038D01*
X138387581Y-87881250D01*
X138392797Y-87902074D01*
X138395947Y-87923309D01*
X138397000Y-87944750D01*
X138397000Y-88382250D01*
X138395947Y-88403691D01*
X138392797Y-88424926D01*
X138387581Y-88445750D01*
X138380349Y-88465962D01*
X138371170Y-88485368D01*
X138360134Y-88503781D01*
X138347346Y-88521024D01*
X138332930Y-88536930D01*
X138317024Y-88551346D01*
X138299781Y-88564134D01*
X138281368Y-88575170D01*
X138261962Y-88584349D01*
X138241750Y-88591581D01*
X138220926Y-88596797D01*
X138199691Y-88599947D01*
X138178250Y-88601000D01*
X137665750Y-88601000D01*
X137644309Y-88599947D01*
X137623074Y-88596797D01*
X137602250Y-88591581D01*
X137582038Y-88584349D01*
X137562632Y-88575170D01*
X137544219Y-88564134D01*
X137526976Y-88551346D01*
X137511070Y-88536930D01*
X137496654Y-88521024D01*
X137483866Y-88503781D01*
X137472830Y-88485368D01*
X137463651Y-88465962D01*
X137456419Y-88445750D01*
X137451203Y-88424926D01*
X137448053Y-88403691D01*
X137447000Y-88382250D01*
X137447000Y-87944750D01*
X137448053Y-87923309D01*
X137451203Y-87902074D01*
X137456419Y-87881250D01*
X137463651Y-87861038D01*
X137472830Y-87841632D01*
X137483866Y-87823219D01*
X137496654Y-87805976D01*
X137511070Y-87790070D01*
X137526976Y-87775654D01*
X137544219Y-87762866D01*
X137562632Y-87751830D01*
X137582038Y-87742651D01*
X137602250Y-87735419D01*
X137623074Y-87730203D01*
X137644309Y-87727053D01*
X137665750Y-87726000D01*
X138178250Y-87726000D01*
X138199691Y-87727053D01*
G37*
G36*
X67587691Y-87727053D02*
G01*
X67608926Y-87730203D01*
X67629750Y-87735419D01*
X67649962Y-87742651D01*
X67669368Y-87751830D01*
X67687781Y-87762866D01*
X67705024Y-87775654D01*
X67720930Y-87790070D01*
X67735346Y-87805976D01*
X67748134Y-87823219D01*
X67759170Y-87841632D01*
X67768349Y-87861038D01*
X67775581Y-87881250D01*
X67780797Y-87902074D01*
X67783947Y-87923309D01*
X67785000Y-87944750D01*
X67785000Y-88382250D01*
X67783947Y-88403691D01*
X67780797Y-88424926D01*
X67775581Y-88445750D01*
X67768349Y-88465962D01*
X67759170Y-88485368D01*
X67748134Y-88503781D01*
X67735346Y-88521024D01*
X67720930Y-88536930D01*
X67705024Y-88551346D01*
X67687781Y-88564134D01*
X67669368Y-88575170D01*
X67649962Y-88584349D01*
X67629750Y-88591581D01*
X67608926Y-88596797D01*
X67587691Y-88599947D01*
X67566250Y-88601000D01*
X67053750Y-88601000D01*
X67032309Y-88599947D01*
X67011074Y-88596797D01*
X66990250Y-88591581D01*
X66970038Y-88584349D01*
X66950632Y-88575170D01*
X66932219Y-88564134D01*
X66914976Y-88551346D01*
X66899070Y-88536930D01*
X66884654Y-88521024D01*
X66871866Y-88503781D01*
X66860830Y-88485368D01*
X66851651Y-88465962D01*
X66844419Y-88445750D01*
X66839203Y-88424926D01*
X66836053Y-88403691D01*
X66835000Y-88382250D01*
X66835000Y-87944750D01*
X66836053Y-87923309D01*
X66839203Y-87902074D01*
X66844419Y-87881250D01*
X66851651Y-87861038D01*
X66860830Y-87841632D01*
X66871866Y-87823219D01*
X66884654Y-87805976D01*
X66899070Y-87790070D01*
X66914976Y-87775654D01*
X66932219Y-87762866D01*
X66950632Y-87751830D01*
X66970038Y-87742651D01*
X66990250Y-87735419D01*
X67011074Y-87730203D01*
X67032309Y-87727053D01*
X67053750Y-87726000D01*
X67566250Y-87726000D01*
X67587691Y-87727053D01*
G37*
G36*
X67587691Y-86152053D02*
G01*
X67608926Y-86155203D01*
X67629750Y-86160419D01*
X67649962Y-86167651D01*
X67669368Y-86176830D01*
X67687781Y-86187866D01*
X67705024Y-86200654D01*
X67720930Y-86215070D01*
X67735346Y-86230976D01*
X67748134Y-86248219D01*
X67759170Y-86266632D01*
X67768349Y-86286038D01*
X67775581Y-86306250D01*
X67780797Y-86327074D01*
X67783947Y-86348309D01*
X67785000Y-86369750D01*
X67785000Y-86807250D01*
X67783947Y-86828691D01*
X67780797Y-86849926D01*
X67775581Y-86870750D01*
X67768349Y-86890962D01*
X67759170Y-86910368D01*
X67748134Y-86928781D01*
X67735346Y-86946024D01*
X67720930Y-86961930D01*
X67705024Y-86976346D01*
X67687781Y-86989134D01*
X67669368Y-87000170D01*
X67649962Y-87009349D01*
X67629750Y-87016581D01*
X67608926Y-87021797D01*
X67587691Y-87024947D01*
X67566250Y-87026000D01*
X67053750Y-87026000D01*
X67032309Y-87024947D01*
X67011074Y-87021797D01*
X66990250Y-87016581D01*
X66970038Y-87009349D01*
X66950632Y-87000170D01*
X66932219Y-86989134D01*
X66914976Y-86976346D01*
X66899070Y-86961930D01*
X66884654Y-86946024D01*
X66871866Y-86928781D01*
X66860830Y-86910368D01*
X66851651Y-86890962D01*
X66844419Y-86870750D01*
X66839203Y-86849926D01*
X66836053Y-86828691D01*
X66835000Y-86807250D01*
X66835000Y-86369750D01*
X66836053Y-86348309D01*
X66839203Y-86327074D01*
X66844419Y-86306250D01*
X66851651Y-86286038D01*
X66860830Y-86266632D01*
X66871866Y-86248219D01*
X66884654Y-86230976D01*
X66899070Y-86215070D01*
X66914976Y-86200654D01*
X66932219Y-86187866D01*
X66950632Y-86176830D01*
X66970038Y-86167651D01*
X66990250Y-86160419D01*
X67011074Y-86155203D01*
X67032309Y-86152053D01*
X67053750Y-86151000D01*
X67566250Y-86151000D01*
X67587691Y-86152053D01*
G37*
G36*
X92987691Y-87727053D02*
G01*
X93008926Y-87730203D01*
X93029750Y-87735419D01*
X93049962Y-87742651D01*
X93069368Y-87751830D01*
X93087781Y-87762866D01*
X93105024Y-87775654D01*
X93120930Y-87790070D01*
X93135346Y-87805976D01*
X93148134Y-87823219D01*
X93159170Y-87841632D01*
X93168349Y-87861038D01*
X93175581Y-87881250D01*
X93180797Y-87902074D01*
X93183947Y-87923309D01*
X93185000Y-87944750D01*
X93185000Y-88382250D01*
X93183947Y-88403691D01*
X93180797Y-88424926D01*
X93175581Y-88445750D01*
X93168349Y-88465962D01*
X93159170Y-88485368D01*
X93148134Y-88503781D01*
X93135346Y-88521024D01*
X93120930Y-88536930D01*
X93105024Y-88551346D01*
X93087781Y-88564134D01*
X93069368Y-88575170D01*
X93049962Y-88584349D01*
X93029750Y-88591581D01*
X93008926Y-88596797D01*
X92987691Y-88599947D01*
X92966250Y-88601000D01*
X92453750Y-88601000D01*
X92432309Y-88599947D01*
X92411074Y-88596797D01*
X92390250Y-88591581D01*
X92370038Y-88584349D01*
X92350632Y-88575170D01*
X92332219Y-88564134D01*
X92314976Y-88551346D01*
X92299070Y-88536930D01*
X92284654Y-88521024D01*
X92271866Y-88503781D01*
X92260830Y-88485368D01*
X92251651Y-88465962D01*
X92244419Y-88445750D01*
X92239203Y-88424926D01*
X92236053Y-88403691D01*
X92235000Y-88382250D01*
X92235000Y-87944750D01*
X92236053Y-87923309D01*
X92239203Y-87902074D01*
X92244419Y-87881250D01*
X92251651Y-87861038D01*
X92260830Y-87841632D01*
X92271866Y-87823219D01*
X92284654Y-87805976D01*
X92299070Y-87790070D01*
X92314976Y-87775654D01*
X92332219Y-87762866D01*
X92350632Y-87751830D01*
X92370038Y-87742651D01*
X92390250Y-87735419D01*
X92411074Y-87730203D01*
X92432309Y-87727053D01*
X92453750Y-87726000D01*
X92966250Y-87726000D01*
X92987691Y-87727053D01*
G37*
G36*
X92987691Y-86152053D02*
G01*
X93008926Y-86155203D01*
X93029750Y-86160419D01*
X93049962Y-86167651D01*
X93069368Y-86176830D01*
X93087781Y-86187866D01*
X93105024Y-86200654D01*
X93120930Y-86215070D01*
X93135346Y-86230976D01*
X93148134Y-86248219D01*
X93159170Y-86266632D01*
X93168349Y-86286038D01*
X93175581Y-86306250D01*
X93180797Y-86327074D01*
X93183947Y-86348309D01*
X93185000Y-86369750D01*
X93185000Y-86807250D01*
X93183947Y-86828691D01*
X93180797Y-86849926D01*
X93175581Y-86870750D01*
X93168349Y-86890962D01*
X93159170Y-86910368D01*
X93148134Y-86928781D01*
X93135346Y-86946024D01*
X93120930Y-86961930D01*
X93105024Y-86976346D01*
X93087781Y-86989134D01*
X93069368Y-87000170D01*
X93049962Y-87009349D01*
X93029750Y-87016581D01*
X93008926Y-87021797D01*
X92987691Y-87024947D01*
X92966250Y-87026000D01*
X92453750Y-87026000D01*
X92432309Y-87024947D01*
X92411074Y-87021797D01*
X92390250Y-87016581D01*
X92370038Y-87009349D01*
X92350632Y-87000170D01*
X92332219Y-86989134D01*
X92314976Y-86976346D01*
X92299070Y-86961930D01*
X92284654Y-86946024D01*
X92271866Y-86928781D01*
X92260830Y-86910368D01*
X92251651Y-86890962D01*
X92244419Y-86870750D01*
X92239203Y-86849926D01*
X92236053Y-86828691D01*
X92235000Y-86807250D01*
X92235000Y-86369750D01*
X92236053Y-86348309D01*
X92239203Y-86327074D01*
X92244419Y-86306250D01*
X92251651Y-86286038D01*
X92260830Y-86266632D01*
X92271866Y-86248219D01*
X92284654Y-86230976D01*
X92299070Y-86215070D01*
X92314976Y-86200654D01*
X92332219Y-86187866D01*
X92350632Y-86176830D01*
X92370038Y-86167651D01*
X92390250Y-86160419D01*
X92411074Y-86155203D01*
X92432309Y-86152053D01*
X92453750Y-86151000D01*
X92966250Y-86151000D01*
X92987691Y-86152053D01*
G37*
G36*
X117371691Y-87727053D02*
G01*
X117392926Y-87730203D01*
X117413750Y-87735419D01*
X117433962Y-87742651D01*
X117453368Y-87751830D01*
X117471781Y-87762866D01*
X117489024Y-87775654D01*
X117504930Y-87790070D01*
X117519346Y-87805976D01*
X117532134Y-87823219D01*
X117543170Y-87841632D01*
X117552349Y-87861038D01*
X117559581Y-87881250D01*
X117564797Y-87902074D01*
X117567947Y-87923309D01*
X117569000Y-87944750D01*
X117569000Y-88382250D01*
X117567947Y-88403691D01*
X117564797Y-88424926D01*
X117559581Y-88445750D01*
X117552349Y-88465962D01*
X117543170Y-88485368D01*
X117532134Y-88503781D01*
X117519346Y-88521024D01*
X117504930Y-88536930D01*
X117489024Y-88551346D01*
X117471781Y-88564134D01*
X117453368Y-88575170D01*
X117433962Y-88584349D01*
X117413750Y-88591581D01*
X117392926Y-88596797D01*
X117371691Y-88599947D01*
X117350250Y-88601000D01*
X116837750Y-88601000D01*
X116816309Y-88599947D01*
X116795074Y-88596797D01*
X116774250Y-88591581D01*
X116754038Y-88584349D01*
X116734632Y-88575170D01*
X116716219Y-88564134D01*
X116698976Y-88551346D01*
X116683070Y-88536930D01*
X116668654Y-88521024D01*
X116655866Y-88503781D01*
X116644830Y-88485368D01*
X116635651Y-88465962D01*
X116628419Y-88445750D01*
X116623203Y-88424926D01*
X116620053Y-88403691D01*
X116619000Y-88382250D01*
X116619000Y-87944750D01*
X116620053Y-87923309D01*
X116623203Y-87902074D01*
X116628419Y-87881250D01*
X116635651Y-87861038D01*
X116644830Y-87841632D01*
X116655866Y-87823219D01*
X116668654Y-87805976D01*
X116683070Y-87790070D01*
X116698976Y-87775654D01*
X116716219Y-87762866D01*
X116734632Y-87751830D01*
X116754038Y-87742651D01*
X116774250Y-87735419D01*
X116795074Y-87730203D01*
X116816309Y-87727053D01*
X116837750Y-87726000D01*
X117350250Y-87726000D01*
X117371691Y-87727053D01*
G37*
G36*
X117371691Y-86152053D02*
G01*
X117392926Y-86155203D01*
X117413750Y-86160419D01*
X117433962Y-86167651D01*
X117453368Y-86176830D01*
X117471781Y-86187866D01*
X117489024Y-86200654D01*
X117504930Y-86215070D01*
X117519346Y-86230976D01*
X117532134Y-86248219D01*
X117543170Y-86266632D01*
X117552349Y-86286038D01*
X117559581Y-86306250D01*
X117564797Y-86327074D01*
X117567947Y-86348309D01*
X117569000Y-86369750D01*
X117569000Y-86807250D01*
X117567947Y-86828691D01*
X117564797Y-86849926D01*
X117559581Y-86870750D01*
X117552349Y-86890962D01*
X117543170Y-86910368D01*
X117532134Y-86928781D01*
X117519346Y-86946024D01*
X117504930Y-86961930D01*
X117489024Y-86976346D01*
X117471781Y-86989134D01*
X117453368Y-87000170D01*
X117433962Y-87009349D01*
X117413750Y-87016581D01*
X117392926Y-87021797D01*
X117371691Y-87024947D01*
X117350250Y-87026000D01*
X116837750Y-87026000D01*
X116816309Y-87024947D01*
X116795074Y-87021797D01*
X116774250Y-87016581D01*
X116754038Y-87009349D01*
X116734632Y-87000170D01*
X116716219Y-86989134D01*
X116698976Y-86976346D01*
X116683070Y-86961930D01*
X116668654Y-86946024D01*
X116655866Y-86928781D01*
X116644830Y-86910368D01*
X116635651Y-86890962D01*
X116628419Y-86870750D01*
X116623203Y-86849926D01*
X116620053Y-86828691D01*
X116619000Y-86807250D01*
X116619000Y-86369750D01*
X116620053Y-86348309D01*
X116623203Y-86327074D01*
X116628419Y-86306250D01*
X116635651Y-86286038D01*
X116644830Y-86266632D01*
X116655866Y-86248219D01*
X116668654Y-86230976D01*
X116683070Y-86215070D01*
X116698976Y-86200654D01*
X116716219Y-86187866D01*
X116734632Y-86176830D01*
X116754038Y-86167651D01*
X116774250Y-86160419D01*
X116795074Y-86155203D01*
X116816309Y-86152053D01*
X116837750Y-86151000D01*
X117350250Y-86151000D01*
X117371691Y-86152053D01*
G37*
G36*
X143279691Y-87727053D02*
G01*
X143300926Y-87730203D01*
X143321750Y-87735419D01*
X143341962Y-87742651D01*
X143361368Y-87751830D01*
X143379781Y-87762866D01*
X143397024Y-87775654D01*
X143412930Y-87790070D01*
X143427346Y-87805976D01*
X143440134Y-87823219D01*
X143451170Y-87841632D01*
X143460349Y-87861038D01*
X143467581Y-87881250D01*
X143472797Y-87902074D01*
X143475947Y-87923309D01*
X143477000Y-87944750D01*
X143477000Y-88382250D01*
X143475947Y-88403691D01*
X143472797Y-88424926D01*
X143467581Y-88445750D01*
X143460349Y-88465962D01*
X143451170Y-88485368D01*
X143440134Y-88503781D01*
X143427346Y-88521024D01*
X143412930Y-88536930D01*
X143397024Y-88551346D01*
X143379781Y-88564134D01*
X143361368Y-88575170D01*
X143341962Y-88584349D01*
X143321750Y-88591581D01*
X143300926Y-88596797D01*
X143279691Y-88599947D01*
X143258250Y-88601000D01*
X142745750Y-88601000D01*
X142724309Y-88599947D01*
X142703074Y-88596797D01*
X142682250Y-88591581D01*
X142662038Y-88584349D01*
X142642632Y-88575170D01*
X142624219Y-88564134D01*
X142606976Y-88551346D01*
X142591070Y-88536930D01*
X142576654Y-88521024D01*
X142563866Y-88503781D01*
X142552830Y-88485368D01*
X142543651Y-88465962D01*
X142536419Y-88445750D01*
X142531203Y-88424926D01*
X142528053Y-88403691D01*
X142527000Y-88382250D01*
X142527000Y-87944750D01*
X142528053Y-87923309D01*
X142531203Y-87902074D01*
X142536419Y-87881250D01*
X142543651Y-87861038D01*
X142552830Y-87841632D01*
X142563866Y-87823219D01*
X142576654Y-87805976D01*
X142591070Y-87790070D01*
X142606976Y-87775654D01*
X142624219Y-87762866D01*
X142642632Y-87751830D01*
X142662038Y-87742651D01*
X142682250Y-87735419D01*
X142703074Y-87730203D01*
X142724309Y-87727053D01*
X142745750Y-87726000D01*
X143258250Y-87726000D01*
X143279691Y-87727053D01*
G37*
G36*
X143279691Y-86152053D02*
G01*
X143300926Y-86155203D01*
X143321750Y-86160419D01*
X143341962Y-86167651D01*
X143361368Y-86176830D01*
X143379781Y-86187866D01*
X143397024Y-86200654D01*
X143412930Y-86215070D01*
X143427346Y-86230976D01*
X143440134Y-86248219D01*
X143451170Y-86266632D01*
X143460349Y-86286038D01*
X143467581Y-86306250D01*
X143472797Y-86327074D01*
X143475947Y-86348309D01*
X143477000Y-86369750D01*
X143477000Y-86807250D01*
X143475947Y-86828691D01*
X143472797Y-86849926D01*
X143467581Y-86870750D01*
X143460349Y-86890962D01*
X143451170Y-86910368D01*
X143440134Y-86928781D01*
X143427346Y-86946024D01*
X143412930Y-86961930D01*
X143397024Y-86976346D01*
X143379781Y-86989134D01*
X143361368Y-87000170D01*
X143341962Y-87009349D01*
X143321750Y-87016581D01*
X143300926Y-87021797D01*
X143279691Y-87024947D01*
X143258250Y-87026000D01*
X142745750Y-87026000D01*
X142724309Y-87024947D01*
X142703074Y-87021797D01*
X142682250Y-87016581D01*
X142662038Y-87009349D01*
X142642632Y-87000170D01*
X142624219Y-86989134D01*
X142606976Y-86976346D01*
X142591070Y-86961930D01*
X142576654Y-86946024D01*
X142563866Y-86928781D01*
X142552830Y-86910368D01*
X142543651Y-86890962D01*
X142536419Y-86870750D01*
X142531203Y-86849926D01*
X142528053Y-86828691D01*
X142527000Y-86807250D01*
X142527000Y-86369750D01*
X142528053Y-86348309D01*
X142531203Y-86327074D01*
X142536419Y-86306250D01*
X142543651Y-86286038D01*
X142552830Y-86266632D01*
X142563866Y-86248219D01*
X142576654Y-86230976D01*
X142591070Y-86215070D01*
X142606976Y-86200654D01*
X142624219Y-86187866D01*
X142642632Y-86176830D01*
X142662038Y-86167651D01*
X142682250Y-86160419D01*
X142703074Y-86155203D01*
X142724309Y-86152053D01*
X142745750Y-86151000D01*
X143258250Y-86151000D01*
X143279691Y-86152053D01*
G37*
G36*
X72667691Y-86152053D02*
G01*
X72688926Y-86155203D01*
X72709750Y-86160419D01*
X72729962Y-86167651D01*
X72749368Y-86176830D01*
X72767781Y-86187866D01*
X72785024Y-86200654D01*
X72800930Y-86215070D01*
X72815346Y-86230976D01*
X72828134Y-86248219D01*
X72839170Y-86266632D01*
X72848349Y-86286038D01*
X72855581Y-86306250D01*
X72860797Y-86327074D01*
X72863947Y-86348309D01*
X72865000Y-86369750D01*
X72865000Y-86807250D01*
X72863947Y-86828691D01*
X72860797Y-86849926D01*
X72855581Y-86870750D01*
X72848349Y-86890962D01*
X72839170Y-86910368D01*
X72828134Y-86928781D01*
X72815346Y-86946024D01*
X72800930Y-86961930D01*
X72785024Y-86976346D01*
X72767781Y-86989134D01*
X72749368Y-87000170D01*
X72729962Y-87009349D01*
X72709750Y-87016581D01*
X72688926Y-87021797D01*
X72667691Y-87024947D01*
X72646250Y-87026000D01*
X72133750Y-87026000D01*
X72112309Y-87024947D01*
X72091074Y-87021797D01*
X72070250Y-87016581D01*
X72050038Y-87009349D01*
X72030632Y-87000170D01*
X72012219Y-86989134D01*
X71994976Y-86976346D01*
X71979070Y-86961930D01*
X71964654Y-86946024D01*
X71951866Y-86928781D01*
X71940830Y-86910368D01*
X71931651Y-86890962D01*
X71924419Y-86870750D01*
X71919203Y-86849926D01*
X71916053Y-86828691D01*
X71915000Y-86807250D01*
X71915000Y-86369750D01*
X71916053Y-86348309D01*
X71919203Y-86327074D01*
X71924419Y-86306250D01*
X71931651Y-86286038D01*
X71940830Y-86266632D01*
X71951866Y-86248219D01*
X71964654Y-86230976D01*
X71979070Y-86215070D01*
X71994976Y-86200654D01*
X72012219Y-86187866D01*
X72030632Y-86176830D01*
X72050038Y-86167651D01*
X72070250Y-86160419D01*
X72091074Y-86155203D01*
X72112309Y-86152053D01*
X72133750Y-86151000D01*
X72646250Y-86151000D01*
X72667691Y-86152053D01*
G37*
G36*
X72667691Y-87727053D02*
G01*
X72688926Y-87730203D01*
X72709750Y-87735419D01*
X72729962Y-87742651D01*
X72749368Y-87751830D01*
X72767781Y-87762866D01*
X72785024Y-87775654D01*
X72800930Y-87790070D01*
X72815346Y-87805976D01*
X72828134Y-87823219D01*
X72839170Y-87841632D01*
X72848349Y-87861038D01*
X72855581Y-87881250D01*
X72860797Y-87902074D01*
X72863947Y-87923309D01*
X72865000Y-87944750D01*
X72865000Y-88382250D01*
X72863947Y-88403691D01*
X72860797Y-88424926D01*
X72855581Y-88445750D01*
X72848349Y-88465962D01*
X72839170Y-88485368D01*
X72828134Y-88503781D01*
X72815346Y-88521024D01*
X72800930Y-88536930D01*
X72785024Y-88551346D01*
X72767781Y-88564134D01*
X72749368Y-88575170D01*
X72729962Y-88584349D01*
X72709750Y-88591581D01*
X72688926Y-88596797D01*
X72667691Y-88599947D01*
X72646250Y-88601000D01*
X72133750Y-88601000D01*
X72112309Y-88599947D01*
X72091074Y-88596797D01*
X72070250Y-88591581D01*
X72050038Y-88584349D01*
X72030632Y-88575170D01*
X72012219Y-88564134D01*
X71994976Y-88551346D01*
X71979070Y-88536930D01*
X71964654Y-88521024D01*
X71951866Y-88503781D01*
X71940830Y-88485368D01*
X71931651Y-88465962D01*
X71924419Y-88445750D01*
X71919203Y-88424926D01*
X71916053Y-88403691D01*
X71915000Y-88382250D01*
X71915000Y-87944750D01*
X71916053Y-87923309D01*
X71919203Y-87902074D01*
X71924419Y-87881250D01*
X71931651Y-87861038D01*
X71940830Y-87841632D01*
X71951866Y-87823219D01*
X71964654Y-87805976D01*
X71979070Y-87790070D01*
X71994976Y-87775654D01*
X72012219Y-87762866D01*
X72030632Y-87751830D01*
X72050038Y-87742651D01*
X72070250Y-87735419D01*
X72091074Y-87730203D01*
X72112309Y-87727053D01*
X72133750Y-87726000D01*
X72646250Y-87726000D01*
X72667691Y-87727053D01*
G37*
G36*
X97559691Y-86152053D02*
G01*
X97580926Y-86155203D01*
X97601750Y-86160419D01*
X97621962Y-86167651D01*
X97641368Y-86176830D01*
X97659781Y-86187866D01*
X97677024Y-86200654D01*
X97692930Y-86215070D01*
X97707346Y-86230976D01*
X97720134Y-86248219D01*
X97731170Y-86266632D01*
X97740349Y-86286038D01*
X97747581Y-86306250D01*
X97752797Y-86327074D01*
X97755947Y-86348309D01*
X97757000Y-86369750D01*
X97757000Y-86807250D01*
X97755947Y-86828691D01*
X97752797Y-86849926D01*
X97747581Y-86870750D01*
X97740349Y-86890962D01*
X97731170Y-86910368D01*
X97720134Y-86928781D01*
X97707346Y-86946024D01*
X97692930Y-86961930D01*
X97677024Y-86976346D01*
X97659781Y-86989134D01*
X97641368Y-87000170D01*
X97621962Y-87009349D01*
X97601750Y-87016581D01*
X97580926Y-87021797D01*
X97559691Y-87024947D01*
X97538250Y-87026000D01*
X97025750Y-87026000D01*
X97004309Y-87024947D01*
X96983074Y-87021797D01*
X96962250Y-87016581D01*
X96942038Y-87009349D01*
X96922632Y-87000170D01*
X96904219Y-86989134D01*
X96886976Y-86976346D01*
X96871070Y-86961930D01*
X96856654Y-86946024D01*
X96843866Y-86928781D01*
X96832830Y-86910368D01*
X96823651Y-86890962D01*
X96816419Y-86870750D01*
X96811203Y-86849926D01*
X96808053Y-86828691D01*
X96807000Y-86807250D01*
X96807000Y-86369750D01*
X96808053Y-86348309D01*
X96811203Y-86327074D01*
X96816419Y-86306250D01*
X96823651Y-86286038D01*
X96832830Y-86266632D01*
X96843866Y-86248219D01*
X96856654Y-86230976D01*
X96871070Y-86215070D01*
X96886976Y-86200654D01*
X96904219Y-86187866D01*
X96922632Y-86176830D01*
X96942038Y-86167651D01*
X96962250Y-86160419D01*
X96983074Y-86155203D01*
X97004309Y-86152053D01*
X97025750Y-86151000D01*
X97538250Y-86151000D01*
X97559691Y-86152053D01*
G37*
G36*
X97559691Y-87727053D02*
G01*
X97580926Y-87730203D01*
X97601750Y-87735419D01*
X97621962Y-87742651D01*
X97641368Y-87751830D01*
X97659781Y-87762866D01*
X97677024Y-87775654D01*
X97692930Y-87790070D01*
X97707346Y-87805976D01*
X97720134Y-87823219D01*
X97731170Y-87841632D01*
X97740349Y-87861038D01*
X97747581Y-87881250D01*
X97752797Y-87902074D01*
X97755947Y-87923309D01*
X97757000Y-87944750D01*
X97757000Y-88382250D01*
X97755947Y-88403691D01*
X97752797Y-88424926D01*
X97747581Y-88445750D01*
X97740349Y-88465962D01*
X97731170Y-88485368D01*
X97720134Y-88503781D01*
X97707346Y-88521024D01*
X97692930Y-88536930D01*
X97677024Y-88551346D01*
X97659781Y-88564134D01*
X97641368Y-88575170D01*
X97621962Y-88584349D01*
X97601750Y-88591581D01*
X97580926Y-88596797D01*
X97559691Y-88599947D01*
X97538250Y-88601000D01*
X97025750Y-88601000D01*
X97004309Y-88599947D01*
X96983074Y-88596797D01*
X96962250Y-88591581D01*
X96942038Y-88584349D01*
X96922632Y-88575170D01*
X96904219Y-88564134D01*
X96886976Y-88551346D01*
X96871070Y-88536930D01*
X96856654Y-88521024D01*
X96843866Y-88503781D01*
X96832830Y-88485368D01*
X96823651Y-88465962D01*
X96816419Y-88445750D01*
X96811203Y-88424926D01*
X96808053Y-88403691D01*
X96807000Y-88382250D01*
X96807000Y-87944750D01*
X96808053Y-87923309D01*
X96811203Y-87902074D01*
X96816419Y-87881250D01*
X96823651Y-87861038D01*
X96832830Y-87841632D01*
X96843866Y-87823219D01*
X96856654Y-87805976D01*
X96871070Y-87790070D01*
X96886976Y-87775654D01*
X96904219Y-87762866D01*
X96922632Y-87751830D01*
X96942038Y-87742651D01*
X96962250Y-87735419D01*
X96983074Y-87730203D01*
X97004309Y-87727053D01*
X97025750Y-87726000D01*
X97538250Y-87726000D01*
X97559691Y-87727053D01*
G37*
G36*
X121943691Y-87727053D02*
G01*
X121964926Y-87730203D01*
X121985750Y-87735419D01*
X122005962Y-87742651D01*
X122025368Y-87751830D01*
X122043781Y-87762866D01*
X122061024Y-87775654D01*
X122076930Y-87790070D01*
X122091346Y-87805976D01*
X122104134Y-87823219D01*
X122115170Y-87841632D01*
X122124349Y-87861038D01*
X122131581Y-87881250D01*
X122136797Y-87902074D01*
X122139947Y-87923309D01*
X122141000Y-87944750D01*
X122141000Y-88382250D01*
X122139947Y-88403691D01*
X122136797Y-88424926D01*
X122131581Y-88445750D01*
X122124349Y-88465962D01*
X122115170Y-88485368D01*
X122104134Y-88503781D01*
X122091346Y-88521024D01*
X122076930Y-88536930D01*
X122061024Y-88551346D01*
X122043781Y-88564134D01*
X122025368Y-88575170D01*
X122005962Y-88584349D01*
X121985750Y-88591581D01*
X121964926Y-88596797D01*
X121943691Y-88599947D01*
X121922250Y-88601000D01*
X121409750Y-88601000D01*
X121388309Y-88599947D01*
X121367074Y-88596797D01*
X121346250Y-88591581D01*
X121326038Y-88584349D01*
X121306632Y-88575170D01*
X121288219Y-88564134D01*
X121270976Y-88551346D01*
X121255070Y-88536930D01*
X121240654Y-88521024D01*
X121227866Y-88503781D01*
X121216830Y-88485368D01*
X121207651Y-88465962D01*
X121200419Y-88445750D01*
X121195203Y-88424926D01*
X121192053Y-88403691D01*
X121191000Y-88382250D01*
X121191000Y-87944750D01*
X121192053Y-87923309D01*
X121195203Y-87902074D01*
X121200419Y-87881250D01*
X121207651Y-87861038D01*
X121216830Y-87841632D01*
X121227866Y-87823219D01*
X121240654Y-87805976D01*
X121255070Y-87790070D01*
X121270976Y-87775654D01*
X121288219Y-87762866D01*
X121306632Y-87751830D01*
X121326038Y-87742651D01*
X121346250Y-87735419D01*
X121367074Y-87730203D01*
X121388309Y-87727053D01*
X121409750Y-87726000D01*
X121922250Y-87726000D01*
X121943691Y-87727053D01*
G37*
G36*
X121943691Y-86152053D02*
G01*
X121964926Y-86155203D01*
X121985750Y-86160419D01*
X122005962Y-86167651D01*
X122025368Y-86176830D01*
X122043781Y-86187866D01*
X122061024Y-86200654D01*
X122076930Y-86215070D01*
X122091346Y-86230976D01*
X122104134Y-86248219D01*
X122115170Y-86266632D01*
X122124349Y-86286038D01*
X122131581Y-86306250D01*
X122136797Y-86327074D01*
X122139947Y-86348309D01*
X122141000Y-86369750D01*
X122141000Y-86807250D01*
X122139947Y-86828691D01*
X122136797Y-86849926D01*
X122131581Y-86870750D01*
X122124349Y-86890962D01*
X122115170Y-86910368D01*
X122104134Y-86928781D01*
X122091346Y-86946024D01*
X122076930Y-86961930D01*
X122061024Y-86976346D01*
X122043781Y-86989134D01*
X122025368Y-87000170D01*
X122005962Y-87009349D01*
X121985750Y-87016581D01*
X121964926Y-87021797D01*
X121943691Y-87024947D01*
X121922250Y-87026000D01*
X121409750Y-87026000D01*
X121388309Y-87024947D01*
X121367074Y-87021797D01*
X121346250Y-87016581D01*
X121326038Y-87009349D01*
X121306632Y-87000170D01*
X121288219Y-86989134D01*
X121270976Y-86976346D01*
X121255070Y-86961930D01*
X121240654Y-86946024D01*
X121227866Y-86928781D01*
X121216830Y-86910368D01*
X121207651Y-86890962D01*
X121200419Y-86870750D01*
X121195203Y-86849926D01*
X121192053Y-86828691D01*
X121191000Y-86807250D01*
X121191000Y-86369750D01*
X121192053Y-86348309D01*
X121195203Y-86327074D01*
X121200419Y-86306250D01*
X121207651Y-86286038D01*
X121216830Y-86266632D01*
X121227866Y-86248219D01*
X121240654Y-86230976D01*
X121255070Y-86215070D01*
X121270976Y-86200654D01*
X121288219Y-86187866D01*
X121306632Y-86176830D01*
X121326038Y-86167651D01*
X121346250Y-86160419D01*
X121367074Y-86155203D01*
X121388309Y-86152053D01*
X121409750Y-86151000D01*
X121922250Y-86151000D01*
X121943691Y-86152053D01*
G37*
G36*
X148359691Y-86152053D02*
G01*
X148380926Y-86155203D01*
X148401750Y-86160419D01*
X148421962Y-86167651D01*
X148441368Y-86176830D01*
X148459781Y-86187866D01*
X148477024Y-86200654D01*
X148492930Y-86215070D01*
X148507346Y-86230976D01*
X148520134Y-86248219D01*
X148531170Y-86266632D01*
X148540349Y-86286038D01*
X148547581Y-86306250D01*
X148552797Y-86327074D01*
X148555947Y-86348309D01*
X148557000Y-86369750D01*
X148557000Y-86807250D01*
X148555947Y-86828691D01*
X148552797Y-86849926D01*
X148547581Y-86870750D01*
X148540349Y-86890962D01*
X148531170Y-86910368D01*
X148520134Y-86928781D01*
X148507346Y-86946024D01*
X148492930Y-86961930D01*
X148477024Y-86976346D01*
X148459781Y-86989134D01*
X148441368Y-87000170D01*
X148421962Y-87009349D01*
X148401750Y-87016581D01*
X148380926Y-87021797D01*
X148359691Y-87024947D01*
X148338250Y-87026000D01*
X147825750Y-87026000D01*
X147804309Y-87024947D01*
X147783074Y-87021797D01*
X147762250Y-87016581D01*
X147742038Y-87009349D01*
X147722632Y-87000170D01*
X147704219Y-86989134D01*
X147686976Y-86976346D01*
X147671070Y-86961930D01*
X147656654Y-86946024D01*
X147643866Y-86928781D01*
X147632830Y-86910368D01*
X147623651Y-86890962D01*
X147616419Y-86870750D01*
X147611203Y-86849926D01*
X147608053Y-86828691D01*
X147607000Y-86807250D01*
X147607000Y-86369750D01*
X147608053Y-86348309D01*
X147611203Y-86327074D01*
X147616419Y-86306250D01*
X147623651Y-86286038D01*
X147632830Y-86266632D01*
X147643866Y-86248219D01*
X147656654Y-86230976D01*
X147671070Y-86215070D01*
X147686976Y-86200654D01*
X147704219Y-86187866D01*
X147722632Y-86176830D01*
X147742038Y-86167651D01*
X147762250Y-86160419D01*
X147783074Y-86155203D01*
X147804309Y-86152053D01*
X147825750Y-86151000D01*
X148338250Y-86151000D01*
X148359691Y-86152053D01*
G37*
G36*
X148359691Y-87727053D02*
G01*
X148380926Y-87730203D01*
X148401750Y-87735419D01*
X148421962Y-87742651D01*
X148441368Y-87751830D01*
X148459781Y-87762866D01*
X148477024Y-87775654D01*
X148492930Y-87790070D01*
X148507346Y-87805976D01*
X148520134Y-87823219D01*
X148531170Y-87841632D01*
X148540349Y-87861038D01*
X148547581Y-87881250D01*
X148552797Y-87902074D01*
X148555947Y-87923309D01*
X148557000Y-87944750D01*
X148557000Y-88382250D01*
X148555947Y-88403691D01*
X148552797Y-88424926D01*
X148547581Y-88445750D01*
X148540349Y-88465962D01*
X148531170Y-88485368D01*
X148520134Y-88503781D01*
X148507346Y-88521024D01*
X148492930Y-88536930D01*
X148477024Y-88551346D01*
X148459781Y-88564134D01*
X148441368Y-88575170D01*
X148421962Y-88584349D01*
X148401750Y-88591581D01*
X148380926Y-88596797D01*
X148359691Y-88599947D01*
X148338250Y-88601000D01*
X147825750Y-88601000D01*
X147804309Y-88599947D01*
X147783074Y-88596797D01*
X147762250Y-88591581D01*
X147742038Y-88584349D01*
X147722632Y-88575170D01*
X147704219Y-88564134D01*
X147686976Y-88551346D01*
X147671070Y-88536930D01*
X147656654Y-88521024D01*
X147643866Y-88503781D01*
X147632830Y-88485368D01*
X147623651Y-88465962D01*
X147616419Y-88445750D01*
X147611203Y-88424926D01*
X147608053Y-88403691D01*
X147607000Y-88382250D01*
X147607000Y-87944750D01*
X147608053Y-87923309D01*
X147611203Y-87902074D01*
X147616419Y-87881250D01*
X147623651Y-87861038D01*
X147632830Y-87841632D01*
X147643866Y-87823219D01*
X147656654Y-87805976D01*
X147671070Y-87790070D01*
X147686976Y-87775654D01*
X147704219Y-87762866D01*
X147722632Y-87751830D01*
X147742038Y-87742651D01*
X147762250Y-87735419D01*
X147783074Y-87730203D01*
X147804309Y-87727053D01*
X147825750Y-87726000D01*
X148338250Y-87726000D01*
X148359691Y-87727053D01*
G37*
G36*
X77239691Y-86152053D02*
G01*
X77260926Y-86155203D01*
X77281750Y-86160419D01*
X77301962Y-86167651D01*
X77321368Y-86176830D01*
X77339781Y-86187866D01*
X77357024Y-86200654D01*
X77372930Y-86215070D01*
X77387346Y-86230976D01*
X77400134Y-86248219D01*
X77411170Y-86266632D01*
X77420349Y-86286038D01*
X77427581Y-86306250D01*
X77432797Y-86327074D01*
X77435947Y-86348309D01*
X77437000Y-86369750D01*
X77437000Y-86807250D01*
X77435947Y-86828691D01*
X77432797Y-86849926D01*
X77427581Y-86870750D01*
X77420349Y-86890962D01*
X77411170Y-86910368D01*
X77400134Y-86928781D01*
X77387346Y-86946024D01*
X77372930Y-86961930D01*
X77357024Y-86976346D01*
X77339781Y-86989134D01*
X77321368Y-87000170D01*
X77301962Y-87009349D01*
X77281750Y-87016581D01*
X77260926Y-87021797D01*
X77239691Y-87024947D01*
X77218250Y-87026000D01*
X76705750Y-87026000D01*
X76684309Y-87024947D01*
X76663074Y-87021797D01*
X76642250Y-87016581D01*
X76622038Y-87009349D01*
X76602632Y-87000170D01*
X76584219Y-86989134D01*
X76566976Y-86976346D01*
X76551070Y-86961930D01*
X76536654Y-86946024D01*
X76523866Y-86928781D01*
X76512830Y-86910368D01*
X76503651Y-86890962D01*
X76496419Y-86870750D01*
X76491203Y-86849926D01*
X76488053Y-86828691D01*
X76487000Y-86807250D01*
X76487000Y-86369750D01*
X76488053Y-86348309D01*
X76491203Y-86327074D01*
X76496419Y-86306250D01*
X76503651Y-86286038D01*
X76512830Y-86266632D01*
X76523866Y-86248219D01*
X76536654Y-86230976D01*
X76551070Y-86215070D01*
X76566976Y-86200654D01*
X76584219Y-86187866D01*
X76602632Y-86176830D01*
X76622038Y-86167651D01*
X76642250Y-86160419D01*
X76663074Y-86155203D01*
X76684309Y-86152053D01*
X76705750Y-86151000D01*
X77218250Y-86151000D01*
X77239691Y-86152053D01*
G37*
G36*
X77239691Y-87727053D02*
G01*
X77260926Y-87730203D01*
X77281750Y-87735419D01*
X77301962Y-87742651D01*
X77321368Y-87751830D01*
X77339781Y-87762866D01*
X77357024Y-87775654D01*
X77372930Y-87790070D01*
X77387346Y-87805976D01*
X77400134Y-87823219D01*
X77411170Y-87841632D01*
X77420349Y-87861038D01*
X77427581Y-87881250D01*
X77432797Y-87902074D01*
X77435947Y-87923309D01*
X77437000Y-87944750D01*
X77437000Y-88382250D01*
X77435947Y-88403691D01*
X77432797Y-88424926D01*
X77427581Y-88445750D01*
X77420349Y-88465962D01*
X77411170Y-88485368D01*
X77400134Y-88503781D01*
X77387346Y-88521024D01*
X77372930Y-88536930D01*
X77357024Y-88551346D01*
X77339781Y-88564134D01*
X77321368Y-88575170D01*
X77301962Y-88584349D01*
X77281750Y-88591581D01*
X77260926Y-88596797D01*
X77239691Y-88599947D01*
X77218250Y-88601000D01*
X76705750Y-88601000D01*
X76684309Y-88599947D01*
X76663074Y-88596797D01*
X76642250Y-88591581D01*
X76622038Y-88584349D01*
X76602632Y-88575170D01*
X76584219Y-88564134D01*
X76566976Y-88551346D01*
X76551070Y-88536930D01*
X76536654Y-88521024D01*
X76523866Y-88503781D01*
X76512830Y-88485368D01*
X76503651Y-88465962D01*
X76496419Y-88445750D01*
X76491203Y-88424926D01*
X76488053Y-88403691D01*
X76487000Y-88382250D01*
X76487000Y-87944750D01*
X76488053Y-87923309D01*
X76491203Y-87902074D01*
X76496419Y-87881250D01*
X76503651Y-87861038D01*
X76512830Y-87841632D01*
X76523866Y-87823219D01*
X76536654Y-87805976D01*
X76551070Y-87790070D01*
X76566976Y-87775654D01*
X76584219Y-87762866D01*
X76602632Y-87751830D01*
X76622038Y-87742651D01*
X76642250Y-87735419D01*
X76663074Y-87730203D01*
X76684309Y-87727053D01*
X76705750Y-87726000D01*
X77218250Y-87726000D01*
X77239691Y-87727053D01*
G37*
G36*
X102639691Y-86152053D02*
G01*
X102660926Y-86155203D01*
X102681750Y-86160419D01*
X102701962Y-86167651D01*
X102721368Y-86176830D01*
X102739781Y-86187866D01*
X102757024Y-86200654D01*
X102772930Y-86215070D01*
X102787346Y-86230976D01*
X102800134Y-86248219D01*
X102811170Y-86266632D01*
X102820349Y-86286038D01*
X102827581Y-86306250D01*
X102832797Y-86327074D01*
X102835947Y-86348309D01*
X102837000Y-86369750D01*
X102837000Y-86807250D01*
X102835947Y-86828691D01*
X102832797Y-86849926D01*
X102827581Y-86870750D01*
X102820349Y-86890962D01*
X102811170Y-86910368D01*
X102800134Y-86928781D01*
X102787346Y-86946024D01*
X102772930Y-86961930D01*
X102757024Y-86976346D01*
X102739781Y-86989134D01*
X102721368Y-87000170D01*
X102701962Y-87009349D01*
X102681750Y-87016581D01*
X102660926Y-87021797D01*
X102639691Y-87024947D01*
X102618250Y-87026000D01*
X102105750Y-87026000D01*
X102084309Y-87024947D01*
X102063074Y-87021797D01*
X102042250Y-87016581D01*
X102022038Y-87009349D01*
X102002632Y-87000170D01*
X101984219Y-86989134D01*
X101966976Y-86976346D01*
X101951070Y-86961930D01*
X101936654Y-86946024D01*
X101923866Y-86928781D01*
X101912830Y-86910368D01*
X101903651Y-86890962D01*
X101896419Y-86870750D01*
X101891203Y-86849926D01*
X101888053Y-86828691D01*
X101887000Y-86807250D01*
X101887000Y-86369750D01*
X101888053Y-86348309D01*
X101891203Y-86327074D01*
X101896419Y-86306250D01*
X101903651Y-86286038D01*
X101912830Y-86266632D01*
X101923866Y-86248219D01*
X101936654Y-86230976D01*
X101951070Y-86215070D01*
X101966976Y-86200654D01*
X101984219Y-86187866D01*
X102002632Y-86176830D01*
X102022038Y-86167651D01*
X102042250Y-86160419D01*
X102063074Y-86155203D01*
X102084309Y-86152053D01*
X102105750Y-86151000D01*
X102618250Y-86151000D01*
X102639691Y-86152053D01*
G37*
G36*
X102639691Y-87727053D02*
G01*
X102660926Y-87730203D01*
X102681750Y-87735419D01*
X102701962Y-87742651D01*
X102721368Y-87751830D01*
X102739781Y-87762866D01*
X102757024Y-87775654D01*
X102772930Y-87790070D01*
X102787346Y-87805976D01*
X102800134Y-87823219D01*
X102811170Y-87841632D01*
X102820349Y-87861038D01*
X102827581Y-87881250D01*
X102832797Y-87902074D01*
X102835947Y-87923309D01*
X102837000Y-87944750D01*
X102837000Y-88382250D01*
X102835947Y-88403691D01*
X102832797Y-88424926D01*
X102827581Y-88445750D01*
X102820349Y-88465962D01*
X102811170Y-88485368D01*
X102800134Y-88503781D01*
X102787346Y-88521024D01*
X102772930Y-88536930D01*
X102757024Y-88551346D01*
X102739781Y-88564134D01*
X102721368Y-88575170D01*
X102701962Y-88584349D01*
X102681750Y-88591581D01*
X102660926Y-88596797D01*
X102639691Y-88599947D01*
X102618250Y-88601000D01*
X102105750Y-88601000D01*
X102084309Y-88599947D01*
X102063074Y-88596797D01*
X102042250Y-88591581D01*
X102022038Y-88584349D01*
X102002632Y-88575170D01*
X101984219Y-88564134D01*
X101966976Y-88551346D01*
X101951070Y-88536930D01*
X101936654Y-88521024D01*
X101923866Y-88503781D01*
X101912830Y-88485368D01*
X101903651Y-88465962D01*
X101896419Y-88445750D01*
X101891203Y-88424926D01*
X101888053Y-88403691D01*
X101887000Y-88382250D01*
X101887000Y-87944750D01*
X101888053Y-87923309D01*
X101891203Y-87902074D01*
X101896419Y-87881250D01*
X101903651Y-87861038D01*
X101912830Y-87841632D01*
X101923866Y-87823219D01*
X101936654Y-87805976D01*
X101951070Y-87790070D01*
X101966976Y-87775654D01*
X101984219Y-87762866D01*
X102002632Y-87751830D01*
X102022038Y-87742651D01*
X102042250Y-87735419D01*
X102063074Y-87730203D01*
X102084309Y-87727053D01*
X102105750Y-87726000D01*
X102618250Y-87726000D01*
X102639691Y-87727053D01*
G37*
G36*
X127531691Y-86152053D02*
G01*
X127552926Y-86155203D01*
X127573750Y-86160419D01*
X127593962Y-86167651D01*
X127613368Y-86176830D01*
X127631781Y-86187866D01*
X127649024Y-86200654D01*
X127664930Y-86215070D01*
X127679346Y-86230976D01*
X127692134Y-86248219D01*
X127703170Y-86266632D01*
X127712349Y-86286038D01*
X127719581Y-86306250D01*
X127724797Y-86327074D01*
X127727947Y-86348309D01*
X127729000Y-86369750D01*
X127729000Y-86807250D01*
X127727947Y-86828691D01*
X127724797Y-86849926D01*
X127719581Y-86870750D01*
X127712349Y-86890962D01*
X127703170Y-86910368D01*
X127692134Y-86928781D01*
X127679346Y-86946024D01*
X127664930Y-86961930D01*
X127649024Y-86976346D01*
X127631781Y-86989134D01*
X127613368Y-87000170D01*
X127593962Y-87009349D01*
X127573750Y-87016581D01*
X127552926Y-87021797D01*
X127531691Y-87024947D01*
X127510250Y-87026000D01*
X126997750Y-87026000D01*
X126976309Y-87024947D01*
X126955074Y-87021797D01*
X126934250Y-87016581D01*
X126914038Y-87009349D01*
X126894632Y-87000170D01*
X126876219Y-86989134D01*
X126858976Y-86976346D01*
X126843070Y-86961930D01*
X126828654Y-86946024D01*
X126815866Y-86928781D01*
X126804830Y-86910368D01*
X126795651Y-86890962D01*
X126788419Y-86870750D01*
X126783203Y-86849926D01*
X126780053Y-86828691D01*
X126779000Y-86807250D01*
X126779000Y-86369750D01*
X126780053Y-86348309D01*
X126783203Y-86327074D01*
X126788419Y-86306250D01*
X126795651Y-86286038D01*
X126804830Y-86266632D01*
X126815866Y-86248219D01*
X126828654Y-86230976D01*
X126843070Y-86215070D01*
X126858976Y-86200654D01*
X126876219Y-86187866D01*
X126894632Y-86176830D01*
X126914038Y-86167651D01*
X126934250Y-86160419D01*
X126955074Y-86155203D01*
X126976309Y-86152053D01*
X126997750Y-86151000D01*
X127510250Y-86151000D01*
X127531691Y-86152053D01*
G37*
G36*
X127531691Y-87727053D02*
G01*
X127552926Y-87730203D01*
X127573750Y-87735419D01*
X127593962Y-87742651D01*
X127613368Y-87751830D01*
X127631781Y-87762866D01*
X127649024Y-87775654D01*
X127664930Y-87790070D01*
X127679346Y-87805976D01*
X127692134Y-87823219D01*
X127703170Y-87841632D01*
X127712349Y-87861038D01*
X127719581Y-87881250D01*
X127724797Y-87902074D01*
X127727947Y-87923309D01*
X127729000Y-87944750D01*
X127729000Y-88382250D01*
X127727947Y-88403691D01*
X127724797Y-88424926D01*
X127719581Y-88445750D01*
X127712349Y-88465962D01*
X127703170Y-88485368D01*
X127692134Y-88503781D01*
X127679346Y-88521024D01*
X127664930Y-88536930D01*
X127649024Y-88551346D01*
X127631781Y-88564134D01*
X127613368Y-88575170D01*
X127593962Y-88584349D01*
X127573750Y-88591581D01*
X127552926Y-88596797D01*
X127531691Y-88599947D01*
X127510250Y-88601000D01*
X126997750Y-88601000D01*
X126976309Y-88599947D01*
X126955074Y-88596797D01*
X126934250Y-88591581D01*
X126914038Y-88584349D01*
X126894632Y-88575170D01*
X126876219Y-88564134D01*
X126858976Y-88551346D01*
X126843070Y-88536930D01*
X126828654Y-88521024D01*
X126815866Y-88503781D01*
X126804830Y-88485368D01*
X126795651Y-88465962D01*
X126788419Y-88445750D01*
X126783203Y-88424926D01*
X126780053Y-88403691D01*
X126779000Y-88382250D01*
X126779000Y-87944750D01*
X126780053Y-87923309D01*
X126783203Y-87902074D01*
X126788419Y-87881250D01*
X126795651Y-87861038D01*
X126804830Y-87841632D01*
X126815866Y-87823219D01*
X126828654Y-87805976D01*
X126843070Y-87790070D01*
X126858976Y-87775654D01*
X126876219Y-87762866D01*
X126894632Y-87751830D01*
X126914038Y-87742651D01*
X126934250Y-87735419D01*
X126955074Y-87730203D01*
X126976309Y-87727053D01*
X126997750Y-87726000D01*
X127510250Y-87726000D01*
X127531691Y-87727053D01*
G37*
G36*
X153439691Y-87727053D02*
G01*
X153460926Y-87730203D01*
X153481750Y-87735419D01*
X153501962Y-87742651D01*
X153521368Y-87751830D01*
X153539781Y-87762866D01*
X153557024Y-87775654D01*
X153572930Y-87790070D01*
X153587346Y-87805976D01*
X153600134Y-87823219D01*
X153611170Y-87841632D01*
X153620349Y-87861038D01*
X153627581Y-87881250D01*
X153632797Y-87902074D01*
X153635947Y-87923309D01*
X153637000Y-87944750D01*
X153637000Y-88382250D01*
X153635947Y-88403691D01*
X153632797Y-88424926D01*
X153627581Y-88445750D01*
X153620349Y-88465962D01*
X153611170Y-88485368D01*
X153600134Y-88503781D01*
X153587346Y-88521024D01*
X153572930Y-88536930D01*
X153557024Y-88551346D01*
X153539781Y-88564134D01*
X153521368Y-88575170D01*
X153501962Y-88584349D01*
X153481750Y-88591581D01*
X153460926Y-88596797D01*
X153439691Y-88599947D01*
X153418250Y-88601000D01*
X152905750Y-88601000D01*
X152884309Y-88599947D01*
X152863074Y-88596797D01*
X152842250Y-88591581D01*
X152822038Y-88584349D01*
X152802632Y-88575170D01*
X152784219Y-88564134D01*
X152766976Y-88551346D01*
X152751070Y-88536930D01*
X152736654Y-88521024D01*
X152723866Y-88503781D01*
X152712830Y-88485368D01*
X152703651Y-88465962D01*
X152696419Y-88445750D01*
X152691203Y-88424926D01*
X152688053Y-88403691D01*
X152687000Y-88382250D01*
X152687000Y-87944750D01*
X152688053Y-87923309D01*
X152691203Y-87902074D01*
X152696419Y-87881250D01*
X152703651Y-87861038D01*
X152712830Y-87841632D01*
X152723866Y-87823219D01*
X152736654Y-87805976D01*
X152751070Y-87790070D01*
X152766976Y-87775654D01*
X152784219Y-87762866D01*
X152802632Y-87751830D01*
X152822038Y-87742651D01*
X152842250Y-87735419D01*
X152863074Y-87730203D01*
X152884309Y-87727053D01*
X152905750Y-87726000D01*
X153418250Y-87726000D01*
X153439691Y-87727053D01*
G37*
G36*
X153439691Y-86152053D02*
G01*
X153460926Y-86155203D01*
X153481750Y-86160419D01*
X153501962Y-86167651D01*
X153521368Y-86176830D01*
X153539781Y-86187866D01*
X153557024Y-86200654D01*
X153572930Y-86215070D01*
X153587346Y-86230976D01*
X153600134Y-86248219D01*
X153611170Y-86266632D01*
X153620349Y-86286038D01*
X153627581Y-86306250D01*
X153632797Y-86327074D01*
X153635947Y-86348309D01*
X153637000Y-86369750D01*
X153637000Y-86807250D01*
X153635947Y-86828691D01*
X153632797Y-86849926D01*
X153627581Y-86870750D01*
X153620349Y-86890962D01*
X153611170Y-86910368D01*
X153600134Y-86928781D01*
X153587346Y-86946024D01*
X153572930Y-86961930D01*
X153557024Y-86976346D01*
X153539781Y-86989134D01*
X153521368Y-87000170D01*
X153501962Y-87009349D01*
X153481750Y-87016581D01*
X153460926Y-87021797D01*
X153439691Y-87024947D01*
X153418250Y-87026000D01*
X152905750Y-87026000D01*
X152884309Y-87024947D01*
X152863074Y-87021797D01*
X152842250Y-87016581D01*
X152822038Y-87009349D01*
X152802632Y-87000170D01*
X152784219Y-86989134D01*
X152766976Y-86976346D01*
X152751070Y-86961930D01*
X152736654Y-86946024D01*
X152723866Y-86928781D01*
X152712830Y-86910368D01*
X152703651Y-86890962D01*
X152696419Y-86870750D01*
X152691203Y-86849926D01*
X152688053Y-86828691D01*
X152687000Y-86807250D01*
X152687000Y-86369750D01*
X152688053Y-86348309D01*
X152691203Y-86327074D01*
X152696419Y-86306250D01*
X152703651Y-86286038D01*
X152712830Y-86266632D01*
X152723866Y-86248219D01*
X152736654Y-86230976D01*
X152751070Y-86215070D01*
X152766976Y-86200654D01*
X152784219Y-86187866D01*
X152802632Y-86176830D01*
X152822038Y-86167651D01*
X152842250Y-86160419D01*
X152863074Y-86155203D01*
X152884309Y-86152053D01*
X152905750Y-86151000D01*
X153418250Y-86151000D01*
X153439691Y-86152053D01*
G37*
G36*
X61920232Y-85076650D02*
G01*
X61933337Y-85078594D01*
X61946188Y-85081813D01*
X61958662Y-85086276D01*
X61970639Y-85091941D01*
X61982002Y-85098752D01*
X61992643Y-85106644D01*
X62002459Y-85115541D01*
X62011356Y-85125357D01*
X62019248Y-85135998D01*
X62026059Y-85147361D01*
X62031724Y-85159338D01*
X62036187Y-85171812D01*
X62039406Y-85184663D01*
X62041350Y-85197768D01*
X62042000Y-85211000D01*
X62042000Y-85481000D01*
X62041350Y-85494232D01*
X62039406Y-85507337D01*
X62036187Y-85520188D01*
X62031724Y-85532662D01*
X62026059Y-85544639D01*
X62019248Y-85556002D01*
X62011356Y-85566643D01*
X62002459Y-85576459D01*
X61992643Y-85585356D01*
X61982002Y-85593248D01*
X61970639Y-85600059D01*
X61958662Y-85605724D01*
X61946188Y-85610187D01*
X61933337Y-85613406D01*
X61920232Y-85615350D01*
X61907000Y-85616000D01*
X61537000Y-85616000D01*
X61523768Y-85615350D01*
X61510663Y-85613406D01*
X61497812Y-85610187D01*
X61485338Y-85605724D01*
X61473361Y-85600059D01*
X61461998Y-85593248D01*
X61451357Y-85585356D01*
X61441541Y-85576459D01*
X61432644Y-85566643D01*
X61424752Y-85556002D01*
X61417941Y-85544639D01*
X61412276Y-85532662D01*
X61407813Y-85520188D01*
X61404594Y-85507337D01*
X61402650Y-85494232D01*
X61402000Y-85481000D01*
X61402000Y-85211000D01*
X61402650Y-85197768D01*
X61404594Y-85184663D01*
X61407813Y-85171812D01*
X61412276Y-85159338D01*
X61417941Y-85147361D01*
X61424752Y-85135998D01*
X61432644Y-85125357D01*
X61441541Y-85115541D01*
X61451357Y-85106644D01*
X61461998Y-85098752D01*
X61473361Y-85091941D01*
X61485338Y-85086276D01*
X61497812Y-85081813D01*
X61510663Y-85078594D01*
X61523768Y-85076650D01*
X61537000Y-85076000D01*
X61907000Y-85076000D01*
X61920232Y-85076650D01*
G37*
G36*
X61920232Y-84056650D02*
G01*
X61933337Y-84058594D01*
X61946188Y-84061813D01*
X61958662Y-84066276D01*
X61970639Y-84071941D01*
X61982002Y-84078752D01*
X61992643Y-84086644D01*
X62002459Y-84095541D01*
X62011356Y-84105357D01*
X62019248Y-84115998D01*
X62026059Y-84127361D01*
X62031724Y-84139338D01*
X62036187Y-84151812D01*
X62039406Y-84164663D01*
X62041350Y-84177768D01*
X62042000Y-84191000D01*
X62042000Y-84461000D01*
X62041350Y-84474232D01*
X62039406Y-84487337D01*
X62036187Y-84500188D01*
X62031724Y-84512662D01*
X62026059Y-84524639D01*
X62019248Y-84536002D01*
X62011356Y-84546643D01*
X62002459Y-84556459D01*
X61992643Y-84565356D01*
X61982002Y-84573248D01*
X61970639Y-84580059D01*
X61958662Y-84585724D01*
X61946188Y-84590187D01*
X61933337Y-84593406D01*
X61920232Y-84595350D01*
X61907000Y-84596000D01*
X61537000Y-84596000D01*
X61523768Y-84595350D01*
X61510663Y-84593406D01*
X61497812Y-84590187D01*
X61485338Y-84585724D01*
X61473361Y-84580059D01*
X61461998Y-84573248D01*
X61451357Y-84565356D01*
X61441541Y-84556459D01*
X61432644Y-84546643D01*
X61424752Y-84536002D01*
X61417941Y-84524639D01*
X61412276Y-84512662D01*
X61407813Y-84500188D01*
X61404594Y-84487337D01*
X61402650Y-84474232D01*
X61402000Y-84461000D01*
X61402000Y-84191000D01*
X61402650Y-84177768D01*
X61404594Y-84164663D01*
X61407813Y-84151812D01*
X61412276Y-84139338D01*
X61417941Y-84127361D01*
X61424752Y-84115998D01*
X61432644Y-84105357D01*
X61441541Y-84095541D01*
X61451357Y-84086644D01*
X61461998Y-84078752D01*
X61473361Y-84071941D01*
X61485338Y-84066276D01*
X61497812Y-84061813D01*
X61510663Y-84058594D01*
X61523768Y-84056650D01*
X61537000Y-84056000D01*
X61907000Y-84056000D01*
X61920232Y-84056650D01*
G37*
G36*
X87828232Y-85076650D02*
G01*
X87841337Y-85078594D01*
X87854188Y-85081813D01*
X87866662Y-85086276D01*
X87878639Y-85091941D01*
X87890002Y-85098752D01*
X87900643Y-85106644D01*
X87910459Y-85115541D01*
X87919356Y-85125357D01*
X87927248Y-85135998D01*
X87934059Y-85147361D01*
X87939724Y-85159338D01*
X87944187Y-85171812D01*
X87947406Y-85184663D01*
X87949350Y-85197768D01*
X87950000Y-85211000D01*
X87950000Y-85481000D01*
X87949350Y-85494232D01*
X87947406Y-85507337D01*
X87944187Y-85520188D01*
X87939724Y-85532662D01*
X87934059Y-85544639D01*
X87927248Y-85556002D01*
X87919356Y-85566643D01*
X87910459Y-85576459D01*
X87900643Y-85585356D01*
X87890002Y-85593248D01*
X87878639Y-85600059D01*
X87866662Y-85605724D01*
X87854188Y-85610187D01*
X87841337Y-85613406D01*
X87828232Y-85615350D01*
X87815000Y-85616000D01*
X87445000Y-85616000D01*
X87431768Y-85615350D01*
X87418663Y-85613406D01*
X87405812Y-85610187D01*
X87393338Y-85605724D01*
X87381361Y-85600059D01*
X87369998Y-85593248D01*
X87359357Y-85585356D01*
X87349541Y-85576459D01*
X87340644Y-85566643D01*
X87332752Y-85556002D01*
X87325941Y-85544639D01*
X87320276Y-85532662D01*
X87315813Y-85520188D01*
X87312594Y-85507337D01*
X87310650Y-85494232D01*
X87310000Y-85481000D01*
X87310000Y-85211000D01*
X87310650Y-85197768D01*
X87312594Y-85184663D01*
X87315813Y-85171812D01*
X87320276Y-85159338D01*
X87325941Y-85147361D01*
X87332752Y-85135998D01*
X87340644Y-85125357D01*
X87349541Y-85115541D01*
X87359357Y-85106644D01*
X87369998Y-85098752D01*
X87381361Y-85091941D01*
X87393338Y-85086276D01*
X87405812Y-85081813D01*
X87418663Y-85078594D01*
X87431768Y-85076650D01*
X87445000Y-85076000D01*
X87815000Y-85076000D01*
X87828232Y-85076650D01*
G37*
G36*
X87828232Y-84056650D02*
G01*
X87841337Y-84058594D01*
X87854188Y-84061813D01*
X87866662Y-84066276D01*
X87878639Y-84071941D01*
X87890002Y-84078752D01*
X87900643Y-84086644D01*
X87910459Y-84095541D01*
X87919356Y-84105357D01*
X87927248Y-84115998D01*
X87934059Y-84127361D01*
X87939724Y-84139338D01*
X87944187Y-84151812D01*
X87947406Y-84164663D01*
X87949350Y-84177768D01*
X87950000Y-84191000D01*
X87950000Y-84461000D01*
X87949350Y-84474232D01*
X87947406Y-84487337D01*
X87944187Y-84500188D01*
X87939724Y-84512662D01*
X87934059Y-84524639D01*
X87927248Y-84536002D01*
X87919356Y-84546643D01*
X87910459Y-84556459D01*
X87900643Y-84565356D01*
X87890002Y-84573248D01*
X87878639Y-84580059D01*
X87866662Y-84585724D01*
X87854188Y-84590187D01*
X87841337Y-84593406D01*
X87828232Y-84595350D01*
X87815000Y-84596000D01*
X87445000Y-84596000D01*
X87431768Y-84595350D01*
X87418663Y-84593406D01*
X87405812Y-84590187D01*
X87393338Y-84585724D01*
X87381361Y-84580059D01*
X87369998Y-84573248D01*
X87359357Y-84565356D01*
X87349541Y-84556459D01*
X87340644Y-84546643D01*
X87332752Y-84536002D01*
X87325941Y-84524639D01*
X87320276Y-84512662D01*
X87315813Y-84500188D01*
X87312594Y-84487337D01*
X87310650Y-84474232D01*
X87310000Y-84461000D01*
X87310000Y-84191000D01*
X87310650Y-84177768D01*
X87312594Y-84164663D01*
X87315813Y-84151812D01*
X87320276Y-84139338D01*
X87325941Y-84127361D01*
X87332752Y-84115998D01*
X87340644Y-84105357D01*
X87349541Y-84095541D01*
X87359357Y-84086644D01*
X87369998Y-84078752D01*
X87381361Y-84071941D01*
X87393338Y-84066276D01*
X87405812Y-84061813D01*
X87418663Y-84058594D01*
X87431768Y-84056650D01*
X87445000Y-84056000D01*
X87815000Y-84056000D01*
X87828232Y-84056650D01*
G37*
G36*
X112212232Y-84056650D02*
G01*
X112225337Y-84058594D01*
X112238188Y-84061813D01*
X112250662Y-84066276D01*
X112262639Y-84071941D01*
X112274002Y-84078752D01*
X112284643Y-84086644D01*
X112294459Y-84095541D01*
X112303356Y-84105357D01*
X112311248Y-84115998D01*
X112318059Y-84127361D01*
X112323724Y-84139338D01*
X112328187Y-84151812D01*
X112331406Y-84164663D01*
X112333350Y-84177768D01*
X112334000Y-84191000D01*
X112334000Y-84461000D01*
X112333350Y-84474232D01*
X112331406Y-84487337D01*
X112328187Y-84500188D01*
X112323724Y-84512662D01*
X112318059Y-84524639D01*
X112311248Y-84536002D01*
X112303356Y-84546643D01*
X112294459Y-84556459D01*
X112284643Y-84565356D01*
X112274002Y-84573248D01*
X112262639Y-84580059D01*
X112250662Y-84585724D01*
X112238188Y-84590187D01*
X112225337Y-84593406D01*
X112212232Y-84595350D01*
X112199000Y-84596000D01*
X111829000Y-84596000D01*
X111815768Y-84595350D01*
X111802663Y-84593406D01*
X111789812Y-84590187D01*
X111777338Y-84585724D01*
X111765361Y-84580059D01*
X111753998Y-84573248D01*
X111743357Y-84565356D01*
X111733541Y-84556459D01*
X111724644Y-84546643D01*
X111716752Y-84536002D01*
X111709941Y-84524639D01*
X111704276Y-84512662D01*
X111699813Y-84500188D01*
X111696594Y-84487337D01*
X111694650Y-84474232D01*
X111694000Y-84461000D01*
X111694000Y-84191000D01*
X111694650Y-84177768D01*
X111696594Y-84164663D01*
X111699813Y-84151812D01*
X111704276Y-84139338D01*
X111709941Y-84127361D01*
X111716752Y-84115998D01*
X111724644Y-84105357D01*
X111733541Y-84095541D01*
X111743357Y-84086644D01*
X111753998Y-84078752D01*
X111765361Y-84071941D01*
X111777338Y-84066276D01*
X111789812Y-84061813D01*
X111802663Y-84058594D01*
X111815768Y-84056650D01*
X111829000Y-84056000D01*
X112199000Y-84056000D01*
X112212232Y-84056650D01*
G37*
G36*
X112212232Y-85076650D02*
G01*
X112225337Y-85078594D01*
X112238188Y-85081813D01*
X112250662Y-85086276D01*
X112262639Y-85091941D01*
X112274002Y-85098752D01*
X112284643Y-85106644D01*
X112294459Y-85115541D01*
X112303356Y-85125357D01*
X112311248Y-85135998D01*
X112318059Y-85147361D01*
X112323724Y-85159338D01*
X112328187Y-85171812D01*
X112331406Y-85184663D01*
X112333350Y-85197768D01*
X112334000Y-85211000D01*
X112334000Y-85481000D01*
X112333350Y-85494232D01*
X112331406Y-85507337D01*
X112328187Y-85520188D01*
X112323724Y-85532662D01*
X112318059Y-85544639D01*
X112311248Y-85556002D01*
X112303356Y-85566643D01*
X112294459Y-85576459D01*
X112284643Y-85585356D01*
X112274002Y-85593248D01*
X112262639Y-85600059D01*
X112250662Y-85605724D01*
X112238188Y-85610187D01*
X112225337Y-85613406D01*
X112212232Y-85615350D01*
X112199000Y-85616000D01*
X111829000Y-85616000D01*
X111815768Y-85615350D01*
X111802663Y-85613406D01*
X111789812Y-85610187D01*
X111777338Y-85605724D01*
X111765361Y-85600059D01*
X111753998Y-85593248D01*
X111743357Y-85585356D01*
X111733541Y-85576459D01*
X111724644Y-85566643D01*
X111716752Y-85556002D01*
X111709941Y-85544639D01*
X111704276Y-85532662D01*
X111699813Y-85520188D01*
X111696594Y-85507337D01*
X111694650Y-85494232D01*
X111694000Y-85481000D01*
X111694000Y-85211000D01*
X111694650Y-85197768D01*
X111696594Y-85184663D01*
X111699813Y-85171812D01*
X111704276Y-85159338D01*
X111709941Y-85147361D01*
X111716752Y-85135998D01*
X111724644Y-85125357D01*
X111733541Y-85115541D01*
X111743357Y-85106644D01*
X111753998Y-85098752D01*
X111765361Y-85091941D01*
X111777338Y-85086276D01*
X111789812Y-85081813D01*
X111802663Y-85078594D01*
X111815768Y-85076650D01*
X111829000Y-85076000D01*
X112199000Y-85076000D01*
X112212232Y-85076650D01*
G37*
G36*
X138120232Y-84056650D02*
G01*
X138133337Y-84058594D01*
X138146188Y-84061813D01*
X138158662Y-84066276D01*
X138170639Y-84071941D01*
X138182002Y-84078752D01*
X138192643Y-84086644D01*
X138202459Y-84095541D01*
X138211356Y-84105357D01*
X138219248Y-84115998D01*
X138226059Y-84127361D01*
X138231724Y-84139338D01*
X138236187Y-84151812D01*
X138239406Y-84164663D01*
X138241350Y-84177768D01*
X138242000Y-84191000D01*
X138242000Y-84461000D01*
X138241350Y-84474232D01*
X138239406Y-84487337D01*
X138236187Y-84500188D01*
X138231724Y-84512662D01*
X138226059Y-84524639D01*
X138219248Y-84536002D01*
X138211356Y-84546643D01*
X138202459Y-84556459D01*
X138192643Y-84565356D01*
X138182002Y-84573248D01*
X138170639Y-84580059D01*
X138158662Y-84585724D01*
X138146188Y-84590187D01*
X138133337Y-84593406D01*
X138120232Y-84595350D01*
X138107000Y-84596000D01*
X137737000Y-84596000D01*
X137723768Y-84595350D01*
X137710663Y-84593406D01*
X137697812Y-84590187D01*
X137685338Y-84585724D01*
X137673361Y-84580059D01*
X137661998Y-84573248D01*
X137651357Y-84565356D01*
X137641541Y-84556459D01*
X137632644Y-84546643D01*
X137624752Y-84536002D01*
X137617941Y-84524639D01*
X137612276Y-84512662D01*
X137607813Y-84500188D01*
X137604594Y-84487337D01*
X137602650Y-84474232D01*
X137602000Y-84461000D01*
X137602000Y-84191000D01*
X137602650Y-84177768D01*
X137604594Y-84164663D01*
X137607813Y-84151812D01*
X137612276Y-84139338D01*
X137617941Y-84127361D01*
X137624752Y-84115998D01*
X137632644Y-84105357D01*
X137641541Y-84095541D01*
X137651357Y-84086644D01*
X137661998Y-84078752D01*
X137673361Y-84071941D01*
X137685338Y-84066276D01*
X137697812Y-84061813D01*
X137710663Y-84058594D01*
X137723768Y-84056650D01*
X137737000Y-84056000D01*
X138107000Y-84056000D01*
X138120232Y-84056650D01*
G37*
G36*
X138120232Y-85076650D02*
G01*
X138133337Y-85078594D01*
X138146188Y-85081813D01*
X138158662Y-85086276D01*
X138170639Y-85091941D01*
X138182002Y-85098752D01*
X138192643Y-85106644D01*
X138202459Y-85115541D01*
X138211356Y-85125357D01*
X138219248Y-85135998D01*
X138226059Y-85147361D01*
X138231724Y-85159338D01*
X138236187Y-85171812D01*
X138239406Y-85184663D01*
X138241350Y-85197768D01*
X138242000Y-85211000D01*
X138242000Y-85481000D01*
X138241350Y-85494232D01*
X138239406Y-85507337D01*
X138236187Y-85520188D01*
X138231724Y-85532662D01*
X138226059Y-85544639D01*
X138219248Y-85556002D01*
X138211356Y-85566643D01*
X138202459Y-85576459D01*
X138192643Y-85585356D01*
X138182002Y-85593248D01*
X138170639Y-85600059D01*
X138158662Y-85605724D01*
X138146188Y-85610187D01*
X138133337Y-85613406D01*
X138120232Y-85615350D01*
X138107000Y-85616000D01*
X137737000Y-85616000D01*
X137723768Y-85615350D01*
X137710663Y-85613406D01*
X137697812Y-85610187D01*
X137685338Y-85605724D01*
X137673361Y-85600059D01*
X137661998Y-85593248D01*
X137651357Y-85585356D01*
X137641541Y-85576459D01*
X137632644Y-85566643D01*
X137624752Y-85556002D01*
X137617941Y-85544639D01*
X137612276Y-85532662D01*
X137607813Y-85520188D01*
X137604594Y-85507337D01*
X137602650Y-85494232D01*
X137602000Y-85481000D01*
X137602000Y-85211000D01*
X137602650Y-85197768D01*
X137604594Y-85184663D01*
X137607813Y-85171812D01*
X137612276Y-85159338D01*
X137617941Y-85147361D01*
X137624752Y-85135998D01*
X137632644Y-85125357D01*
X137641541Y-85115541D01*
X137651357Y-85106644D01*
X137661998Y-85098752D01*
X137673361Y-85091941D01*
X137685338Y-85086276D01*
X137697812Y-85081813D01*
X137710663Y-85078594D01*
X137723768Y-85076650D01*
X137737000Y-85076000D01*
X138107000Y-85076000D01*
X138120232Y-85076650D01*
G37*
G36*
X67508232Y-84056650D02*
G01*
X67521337Y-84058594D01*
X67534188Y-84061813D01*
X67546662Y-84066276D01*
X67558639Y-84071941D01*
X67570002Y-84078752D01*
X67580643Y-84086644D01*
X67590459Y-84095541D01*
X67599356Y-84105357D01*
X67607248Y-84115998D01*
X67614059Y-84127361D01*
X67619724Y-84139338D01*
X67624187Y-84151812D01*
X67627406Y-84164663D01*
X67629350Y-84177768D01*
X67630000Y-84191000D01*
X67630000Y-84461000D01*
X67629350Y-84474232D01*
X67627406Y-84487337D01*
X67624187Y-84500188D01*
X67619724Y-84512662D01*
X67614059Y-84524639D01*
X67607248Y-84536002D01*
X67599356Y-84546643D01*
X67590459Y-84556459D01*
X67580643Y-84565356D01*
X67570002Y-84573248D01*
X67558639Y-84580059D01*
X67546662Y-84585724D01*
X67534188Y-84590187D01*
X67521337Y-84593406D01*
X67508232Y-84595350D01*
X67495000Y-84596000D01*
X67125000Y-84596000D01*
X67111768Y-84595350D01*
X67098663Y-84593406D01*
X67085812Y-84590187D01*
X67073338Y-84585724D01*
X67061361Y-84580059D01*
X67049998Y-84573248D01*
X67039357Y-84565356D01*
X67029541Y-84556459D01*
X67020644Y-84546643D01*
X67012752Y-84536002D01*
X67005941Y-84524639D01*
X67000276Y-84512662D01*
X66995813Y-84500188D01*
X66992594Y-84487337D01*
X66990650Y-84474232D01*
X66990000Y-84461000D01*
X66990000Y-84191000D01*
X66990650Y-84177768D01*
X66992594Y-84164663D01*
X66995813Y-84151812D01*
X67000276Y-84139338D01*
X67005941Y-84127361D01*
X67012752Y-84115998D01*
X67020644Y-84105357D01*
X67029541Y-84095541D01*
X67039357Y-84086644D01*
X67049998Y-84078752D01*
X67061361Y-84071941D01*
X67073338Y-84066276D01*
X67085812Y-84061813D01*
X67098663Y-84058594D01*
X67111768Y-84056650D01*
X67125000Y-84056000D01*
X67495000Y-84056000D01*
X67508232Y-84056650D01*
G37*
G36*
X67508232Y-85076650D02*
G01*
X67521337Y-85078594D01*
X67534188Y-85081813D01*
X67546662Y-85086276D01*
X67558639Y-85091941D01*
X67570002Y-85098752D01*
X67580643Y-85106644D01*
X67590459Y-85115541D01*
X67599356Y-85125357D01*
X67607248Y-85135998D01*
X67614059Y-85147361D01*
X67619724Y-85159338D01*
X67624187Y-85171812D01*
X67627406Y-85184663D01*
X67629350Y-85197768D01*
X67630000Y-85211000D01*
X67630000Y-85481000D01*
X67629350Y-85494232D01*
X67627406Y-85507337D01*
X67624187Y-85520188D01*
X67619724Y-85532662D01*
X67614059Y-85544639D01*
X67607248Y-85556002D01*
X67599356Y-85566643D01*
X67590459Y-85576459D01*
X67580643Y-85585356D01*
X67570002Y-85593248D01*
X67558639Y-85600059D01*
X67546662Y-85605724D01*
X67534188Y-85610187D01*
X67521337Y-85613406D01*
X67508232Y-85615350D01*
X67495000Y-85616000D01*
X67125000Y-85616000D01*
X67111768Y-85615350D01*
X67098663Y-85613406D01*
X67085812Y-85610187D01*
X67073338Y-85605724D01*
X67061361Y-85600059D01*
X67049998Y-85593248D01*
X67039357Y-85585356D01*
X67029541Y-85576459D01*
X67020644Y-85566643D01*
X67012752Y-85556002D01*
X67005941Y-85544639D01*
X67000276Y-85532662D01*
X66995813Y-85520188D01*
X66992594Y-85507337D01*
X66990650Y-85494232D01*
X66990000Y-85481000D01*
X66990000Y-85211000D01*
X66990650Y-85197768D01*
X66992594Y-85184663D01*
X66995813Y-85171812D01*
X67000276Y-85159338D01*
X67005941Y-85147361D01*
X67012752Y-85135998D01*
X67020644Y-85125357D01*
X67029541Y-85115541D01*
X67039357Y-85106644D01*
X67049998Y-85098752D01*
X67061361Y-85091941D01*
X67073338Y-85086276D01*
X67085812Y-85081813D01*
X67098663Y-85078594D01*
X67111768Y-85076650D01*
X67125000Y-85076000D01*
X67495000Y-85076000D01*
X67508232Y-85076650D01*
G37*
G36*
X92908232Y-84056650D02*
G01*
X92921337Y-84058594D01*
X92934188Y-84061813D01*
X92946662Y-84066276D01*
X92958639Y-84071941D01*
X92970002Y-84078752D01*
X92980643Y-84086644D01*
X92990459Y-84095541D01*
X92999356Y-84105357D01*
X93007248Y-84115998D01*
X93014059Y-84127361D01*
X93019724Y-84139338D01*
X93024187Y-84151812D01*
X93027406Y-84164663D01*
X93029350Y-84177768D01*
X93030000Y-84191000D01*
X93030000Y-84461000D01*
X93029350Y-84474232D01*
X93027406Y-84487337D01*
X93024187Y-84500188D01*
X93019724Y-84512662D01*
X93014059Y-84524639D01*
X93007248Y-84536002D01*
X92999356Y-84546643D01*
X92990459Y-84556459D01*
X92980643Y-84565356D01*
X92970002Y-84573248D01*
X92958639Y-84580059D01*
X92946662Y-84585724D01*
X92934188Y-84590187D01*
X92921337Y-84593406D01*
X92908232Y-84595350D01*
X92895000Y-84596000D01*
X92525000Y-84596000D01*
X92511768Y-84595350D01*
X92498663Y-84593406D01*
X92485812Y-84590187D01*
X92473338Y-84585724D01*
X92461361Y-84580059D01*
X92449998Y-84573248D01*
X92439357Y-84565356D01*
X92429541Y-84556459D01*
X92420644Y-84546643D01*
X92412752Y-84536002D01*
X92405941Y-84524639D01*
X92400276Y-84512662D01*
X92395813Y-84500188D01*
X92392594Y-84487337D01*
X92390650Y-84474232D01*
X92390000Y-84461000D01*
X92390000Y-84191000D01*
X92390650Y-84177768D01*
X92392594Y-84164663D01*
X92395813Y-84151812D01*
X92400276Y-84139338D01*
X92405941Y-84127361D01*
X92412752Y-84115998D01*
X92420644Y-84105357D01*
X92429541Y-84095541D01*
X92439357Y-84086644D01*
X92449998Y-84078752D01*
X92461361Y-84071941D01*
X92473338Y-84066276D01*
X92485812Y-84061813D01*
X92498663Y-84058594D01*
X92511768Y-84056650D01*
X92525000Y-84056000D01*
X92895000Y-84056000D01*
X92908232Y-84056650D01*
G37*
G36*
X92908232Y-85076650D02*
G01*
X92921337Y-85078594D01*
X92934188Y-85081813D01*
X92946662Y-85086276D01*
X92958639Y-85091941D01*
X92970002Y-85098752D01*
X92980643Y-85106644D01*
X92990459Y-85115541D01*
X92999356Y-85125357D01*
X93007248Y-85135998D01*
X93014059Y-85147361D01*
X93019724Y-85159338D01*
X93024187Y-85171812D01*
X93027406Y-85184663D01*
X93029350Y-85197768D01*
X93030000Y-85211000D01*
X93030000Y-85481000D01*
X93029350Y-85494232D01*
X93027406Y-85507337D01*
X93024187Y-85520188D01*
X93019724Y-85532662D01*
X93014059Y-85544639D01*
X93007248Y-85556002D01*
X92999356Y-85566643D01*
X92990459Y-85576459D01*
X92980643Y-85585356D01*
X92970002Y-85593248D01*
X92958639Y-85600059D01*
X92946662Y-85605724D01*
X92934188Y-85610187D01*
X92921337Y-85613406D01*
X92908232Y-85615350D01*
X92895000Y-85616000D01*
X92525000Y-85616000D01*
X92511768Y-85615350D01*
X92498663Y-85613406D01*
X92485812Y-85610187D01*
X92473338Y-85605724D01*
X92461361Y-85600059D01*
X92449998Y-85593248D01*
X92439357Y-85585356D01*
X92429541Y-85576459D01*
X92420644Y-85566643D01*
X92412752Y-85556002D01*
X92405941Y-85544639D01*
X92400276Y-85532662D01*
X92395813Y-85520188D01*
X92392594Y-85507337D01*
X92390650Y-85494232D01*
X92390000Y-85481000D01*
X92390000Y-85211000D01*
X92390650Y-85197768D01*
X92392594Y-85184663D01*
X92395813Y-85171812D01*
X92400276Y-85159338D01*
X92405941Y-85147361D01*
X92412752Y-85135998D01*
X92420644Y-85125357D01*
X92429541Y-85115541D01*
X92439357Y-85106644D01*
X92449998Y-85098752D01*
X92461361Y-85091941D01*
X92473338Y-85086276D01*
X92485812Y-85081813D01*
X92498663Y-85078594D01*
X92511768Y-85076650D01*
X92525000Y-85076000D01*
X92895000Y-85076000D01*
X92908232Y-85076650D01*
G37*
G36*
X117292232Y-85076650D02*
G01*
X117305337Y-85078594D01*
X117318188Y-85081813D01*
X117330662Y-85086276D01*
X117342639Y-85091941D01*
X117354002Y-85098752D01*
X117364643Y-85106644D01*
X117374459Y-85115541D01*
X117383356Y-85125357D01*
X117391248Y-85135998D01*
X117398059Y-85147361D01*
X117403724Y-85159338D01*
X117408187Y-85171812D01*
X117411406Y-85184663D01*
X117413350Y-85197768D01*
X117414000Y-85211000D01*
X117414000Y-85481000D01*
X117413350Y-85494232D01*
X117411406Y-85507337D01*
X117408187Y-85520188D01*
X117403724Y-85532662D01*
X117398059Y-85544639D01*
X117391248Y-85556002D01*
X117383356Y-85566643D01*
X117374459Y-85576459D01*
X117364643Y-85585356D01*
X117354002Y-85593248D01*
X117342639Y-85600059D01*
X117330662Y-85605724D01*
X117318188Y-85610187D01*
X117305337Y-85613406D01*
X117292232Y-85615350D01*
X117279000Y-85616000D01*
X116909000Y-85616000D01*
X116895768Y-85615350D01*
X116882663Y-85613406D01*
X116869812Y-85610187D01*
X116857338Y-85605724D01*
X116845361Y-85600059D01*
X116833998Y-85593248D01*
X116823357Y-85585356D01*
X116813541Y-85576459D01*
X116804644Y-85566643D01*
X116796752Y-85556002D01*
X116789941Y-85544639D01*
X116784276Y-85532662D01*
X116779813Y-85520188D01*
X116776594Y-85507337D01*
X116774650Y-85494232D01*
X116774000Y-85481000D01*
X116774000Y-85211000D01*
X116774650Y-85197768D01*
X116776594Y-85184663D01*
X116779813Y-85171812D01*
X116784276Y-85159338D01*
X116789941Y-85147361D01*
X116796752Y-85135998D01*
X116804644Y-85125357D01*
X116813541Y-85115541D01*
X116823357Y-85106644D01*
X116833998Y-85098752D01*
X116845361Y-85091941D01*
X116857338Y-85086276D01*
X116869812Y-85081813D01*
X116882663Y-85078594D01*
X116895768Y-85076650D01*
X116909000Y-85076000D01*
X117279000Y-85076000D01*
X117292232Y-85076650D01*
G37*
G36*
X117292232Y-84056650D02*
G01*
X117305337Y-84058594D01*
X117318188Y-84061813D01*
X117330662Y-84066276D01*
X117342639Y-84071941D01*
X117354002Y-84078752D01*
X117364643Y-84086644D01*
X117374459Y-84095541D01*
X117383356Y-84105357D01*
X117391248Y-84115998D01*
X117398059Y-84127361D01*
X117403724Y-84139338D01*
X117408187Y-84151812D01*
X117411406Y-84164663D01*
X117413350Y-84177768D01*
X117414000Y-84191000D01*
X117414000Y-84461000D01*
X117413350Y-84474232D01*
X117411406Y-84487337D01*
X117408187Y-84500188D01*
X117403724Y-84512662D01*
X117398059Y-84524639D01*
X117391248Y-84536002D01*
X117383356Y-84546643D01*
X117374459Y-84556459D01*
X117364643Y-84565356D01*
X117354002Y-84573248D01*
X117342639Y-84580059D01*
X117330662Y-84585724D01*
X117318188Y-84590187D01*
X117305337Y-84593406D01*
X117292232Y-84595350D01*
X117279000Y-84596000D01*
X116909000Y-84596000D01*
X116895768Y-84595350D01*
X116882663Y-84593406D01*
X116869812Y-84590187D01*
X116857338Y-84585724D01*
X116845361Y-84580059D01*
X116833998Y-84573248D01*
X116823357Y-84565356D01*
X116813541Y-84556459D01*
X116804644Y-84546643D01*
X116796752Y-84536002D01*
X116789941Y-84524639D01*
X116784276Y-84512662D01*
X116779813Y-84500188D01*
X116776594Y-84487337D01*
X116774650Y-84474232D01*
X116774000Y-84461000D01*
X116774000Y-84191000D01*
X116774650Y-84177768D01*
X116776594Y-84164663D01*
X116779813Y-84151812D01*
X116784276Y-84139338D01*
X116789941Y-84127361D01*
X116796752Y-84115998D01*
X116804644Y-84105357D01*
X116813541Y-84095541D01*
X116823357Y-84086644D01*
X116833998Y-84078752D01*
X116845361Y-84071941D01*
X116857338Y-84066276D01*
X116869812Y-84061813D01*
X116882663Y-84058594D01*
X116895768Y-84056650D01*
X116909000Y-84056000D01*
X117279000Y-84056000D01*
X117292232Y-84056650D01*
G37*
G36*
X143200232Y-85076650D02*
G01*
X143213337Y-85078594D01*
X143226188Y-85081813D01*
X143238662Y-85086276D01*
X143250639Y-85091941D01*
X143262002Y-85098752D01*
X143272643Y-85106644D01*
X143282459Y-85115541D01*
X143291356Y-85125357D01*
X143299248Y-85135998D01*
X143306059Y-85147361D01*
X143311724Y-85159338D01*
X143316187Y-85171812D01*
X143319406Y-85184663D01*
X143321350Y-85197768D01*
X143322000Y-85211000D01*
X143322000Y-85481000D01*
X143321350Y-85494232D01*
X143319406Y-85507337D01*
X143316187Y-85520188D01*
X143311724Y-85532662D01*
X143306059Y-85544639D01*
X143299248Y-85556002D01*
X143291356Y-85566643D01*
X143282459Y-85576459D01*
X143272643Y-85585356D01*
X143262002Y-85593248D01*
X143250639Y-85600059D01*
X143238662Y-85605724D01*
X143226188Y-85610187D01*
X143213337Y-85613406D01*
X143200232Y-85615350D01*
X143187000Y-85616000D01*
X142817000Y-85616000D01*
X142803768Y-85615350D01*
X142790663Y-85613406D01*
X142777812Y-85610187D01*
X142765338Y-85605724D01*
X142753361Y-85600059D01*
X142741998Y-85593248D01*
X142731357Y-85585356D01*
X142721541Y-85576459D01*
X142712644Y-85566643D01*
X142704752Y-85556002D01*
X142697941Y-85544639D01*
X142692276Y-85532662D01*
X142687813Y-85520188D01*
X142684594Y-85507337D01*
X142682650Y-85494232D01*
X142682000Y-85481000D01*
X142682000Y-85211000D01*
X142682650Y-85197768D01*
X142684594Y-85184663D01*
X142687813Y-85171812D01*
X142692276Y-85159338D01*
X142697941Y-85147361D01*
X142704752Y-85135998D01*
X142712644Y-85125357D01*
X142721541Y-85115541D01*
X142731357Y-85106644D01*
X142741998Y-85098752D01*
X142753361Y-85091941D01*
X142765338Y-85086276D01*
X142777812Y-85081813D01*
X142790663Y-85078594D01*
X142803768Y-85076650D01*
X142817000Y-85076000D01*
X143187000Y-85076000D01*
X143200232Y-85076650D01*
G37*
G36*
X143200232Y-84056650D02*
G01*
X143213337Y-84058594D01*
X143226188Y-84061813D01*
X143238662Y-84066276D01*
X143250639Y-84071941D01*
X143262002Y-84078752D01*
X143272643Y-84086644D01*
X143282459Y-84095541D01*
X143291356Y-84105357D01*
X143299248Y-84115998D01*
X143306059Y-84127361D01*
X143311724Y-84139338D01*
X143316187Y-84151812D01*
X143319406Y-84164663D01*
X143321350Y-84177768D01*
X143322000Y-84191000D01*
X143322000Y-84461000D01*
X143321350Y-84474232D01*
X143319406Y-84487337D01*
X143316187Y-84500188D01*
X143311724Y-84512662D01*
X143306059Y-84524639D01*
X143299248Y-84536002D01*
X143291356Y-84546643D01*
X143282459Y-84556459D01*
X143272643Y-84565356D01*
X143262002Y-84573248D01*
X143250639Y-84580059D01*
X143238662Y-84585724D01*
X143226188Y-84590187D01*
X143213337Y-84593406D01*
X143200232Y-84595350D01*
X143187000Y-84596000D01*
X142817000Y-84596000D01*
X142803768Y-84595350D01*
X142790663Y-84593406D01*
X142777812Y-84590187D01*
X142765338Y-84585724D01*
X142753361Y-84580059D01*
X142741998Y-84573248D01*
X142731357Y-84565356D01*
X142721541Y-84556459D01*
X142712644Y-84546643D01*
X142704752Y-84536002D01*
X142697941Y-84524639D01*
X142692276Y-84512662D01*
X142687813Y-84500188D01*
X142684594Y-84487337D01*
X142682650Y-84474232D01*
X142682000Y-84461000D01*
X142682000Y-84191000D01*
X142682650Y-84177768D01*
X142684594Y-84164663D01*
X142687813Y-84151812D01*
X142692276Y-84139338D01*
X142697941Y-84127361D01*
X142704752Y-84115998D01*
X142712644Y-84105357D01*
X142721541Y-84095541D01*
X142731357Y-84086644D01*
X142741998Y-84078752D01*
X142753361Y-84071941D01*
X142765338Y-84066276D01*
X142777812Y-84061813D01*
X142790663Y-84058594D01*
X142803768Y-84056650D01*
X142817000Y-84056000D01*
X143187000Y-84056000D01*
X143200232Y-84056650D01*
G37*
G36*
X72588232Y-85076650D02*
G01*
X72601337Y-85078594D01*
X72614188Y-85081813D01*
X72626662Y-85086276D01*
X72638639Y-85091941D01*
X72650002Y-85098752D01*
X72660643Y-85106644D01*
X72670459Y-85115541D01*
X72679356Y-85125357D01*
X72687248Y-85135998D01*
X72694059Y-85147361D01*
X72699724Y-85159338D01*
X72704187Y-85171812D01*
X72707406Y-85184663D01*
X72709350Y-85197768D01*
X72710000Y-85211000D01*
X72710000Y-85481000D01*
X72709350Y-85494232D01*
X72707406Y-85507337D01*
X72704187Y-85520188D01*
X72699724Y-85532662D01*
X72694059Y-85544639D01*
X72687248Y-85556002D01*
X72679356Y-85566643D01*
X72670459Y-85576459D01*
X72660643Y-85585356D01*
X72650002Y-85593248D01*
X72638639Y-85600059D01*
X72626662Y-85605724D01*
X72614188Y-85610187D01*
X72601337Y-85613406D01*
X72588232Y-85615350D01*
X72575000Y-85616000D01*
X72205000Y-85616000D01*
X72191768Y-85615350D01*
X72178663Y-85613406D01*
X72165812Y-85610187D01*
X72153338Y-85605724D01*
X72141361Y-85600059D01*
X72129998Y-85593248D01*
X72119357Y-85585356D01*
X72109541Y-85576459D01*
X72100644Y-85566643D01*
X72092752Y-85556002D01*
X72085941Y-85544639D01*
X72080276Y-85532662D01*
X72075813Y-85520188D01*
X72072594Y-85507337D01*
X72070650Y-85494232D01*
X72070000Y-85481000D01*
X72070000Y-85211000D01*
X72070650Y-85197768D01*
X72072594Y-85184663D01*
X72075813Y-85171812D01*
X72080276Y-85159338D01*
X72085941Y-85147361D01*
X72092752Y-85135998D01*
X72100644Y-85125357D01*
X72109541Y-85115541D01*
X72119357Y-85106644D01*
X72129998Y-85098752D01*
X72141361Y-85091941D01*
X72153338Y-85086276D01*
X72165812Y-85081813D01*
X72178663Y-85078594D01*
X72191768Y-85076650D01*
X72205000Y-85076000D01*
X72575000Y-85076000D01*
X72588232Y-85076650D01*
G37*
G36*
X72588232Y-84056650D02*
G01*
X72601337Y-84058594D01*
X72614188Y-84061813D01*
X72626662Y-84066276D01*
X72638639Y-84071941D01*
X72650002Y-84078752D01*
X72660643Y-84086644D01*
X72670459Y-84095541D01*
X72679356Y-84105357D01*
X72687248Y-84115998D01*
X72694059Y-84127361D01*
X72699724Y-84139338D01*
X72704187Y-84151812D01*
X72707406Y-84164663D01*
X72709350Y-84177768D01*
X72710000Y-84191000D01*
X72710000Y-84461000D01*
X72709350Y-84474232D01*
X72707406Y-84487337D01*
X72704187Y-84500188D01*
X72699724Y-84512662D01*
X72694059Y-84524639D01*
X72687248Y-84536002D01*
X72679356Y-84546643D01*
X72670459Y-84556459D01*
X72660643Y-84565356D01*
X72650002Y-84573248D01*
X72638639Y-84580059D01*
X72626662Y-84585724D01*
X72614188Y-84590187D01*
X72601337Y-84593406D01*
X72588232Y-84595350D01*
X72575000Y-84596000D01*
X72205000Y-84596000D01*
X72191768Y-84595350D01*
X72178663Y-84593406D01*
X72165812Y-84590187D01*
X72153338Y-84585724D01*
X72141361Y-84580059D01*
X72129998Y-84573248D01*
X72119357Y-84565356D01*
X72109541Y-84556459D01*
X72100644Y-84546643D01*
X72092752Y-84536002D01*
X72085941Y-84524639D01*
X72080276Y-84512662D01*
X72075813Y-84500188D01*
X72072594Y-84487337D01*
X72070650Y-84474232D01*
X72070000Y-84461000D01*
X72070000Y-84191000D01*
X72070650Y-84177768D01*
X72072594Y-84164663D01*
X72075813Y-84151812D01*
X72080276Y-84139338D01*
X72085941Y-84127361D01*
X72092752Y-84115998D01*
X72100644Y-84105357D01*
X72109541Y-84095541D01*
X72119357Y-84086644D01*
X72129998Y-84078752D01*
X72141361Y-84071941D01*
X72153338Y-84066276D01*
X72165812Y-84061813D01*
X72178663Y-84058594D01*
X72191768Y-84056650D01*
X72205000Y-84056000D01*
X72575000Y-84056000D01*
X72588232Y-84056650D01*
G37*
G36*
X97480232Y-85076650D02*
G01*
X97493337Y-85078594D01*
X97506188Y-85081813D01*
X97518662Y-85086276D01*
X97530639Y-85091941D01*
X97542002Y-85098752D01*
X97552643Y-85106644D01*
X97562459Y-85115541D01*
X97571356Y-85125357D01*
X97579248Y-85135998D01*
X97586059Y-85147361D01*
X97591724Y-85159338D01*
X97596187Y-85171812D01*
X97599406Y-85184663D01*
X97601350Y-85197768D01*
X97602000Y-85211000D01*
X97602000Y-85481000D01*
X97601350Y-85494232D01*
X97599406Y-85507337D01*
X97596187Y-85520188D01*
X97591724Y-85532662D01*
X97586059Y-85544639D01*
X97579248Y-85556002D01*
X97571356Y-85566643D01*
X97562459Y-85576459D01*
X97552643Y-85585356D01*
X97542002Y-85593248D01*
X97530639Y-85600059D01*
X97518662Y-85605724D01*
X97506188Y-85610187D01*
X97493337Y-85613406D01*
X97480232Y-85615350D01*
X97467000Y-85616000D01*
X97097000Y-85616000D01*
X97083768Y-85615350D01*
X97070663Y-85613406D01*
X97057812Y-85610187D01*
X97045338Y-85605724D01*
X97033361Y-85600059D01*
X97021998Y-85593248D01*
X97011357Y-85585356D01*
X97001541Y-85576459D01*
X96992644Y-85566643D01*
X96984752Y-85556002D01*
X96977941Y-85544639D01*
X96972276Y-85532662D01*
X96967813Y-85520188D01*
X96964594Y-85507337D01*
X96962650Y-85494232D01*
X96962000Y-85481000D01*
X96962000Y-85211000D01*
X96962650Y-85197768D01*
X96964594Y-85184663D01*
X96967813Y-85171812D01*
X96972276Y-85159338D01*
X96977941Y-85147361D01*
X96984752Y-85135998D01*
X96992644Y-85125357D01*
X97001541Y-85115541D01*
X97011357Y-85106644D01*
X97021998Y-85098752D01*
X97033361Y-85091941D01*
X97045338Y-85086276D01*
X97057812Y-85081813D01*
X97070663Y-85078594D01*
X97083768Y-85076650D01*
X97097000Y-85076000D01*
X97467000Y-85076000D01*
X97480232Y-85076650D01*
G37*
G36*
X97480232Y-84056650D02*
G01*
X97493337Y-84058594D01*
X97506188Y-84061813D01*
X97518662Y-84066276D01*
X97530639Y-84071941D01*
X97542002Y-84078752D01*
X97552643Y-84086644D01*
X97562459Y-84095541D01*
X97571356Y-84105357D01*
X97579248Y-84115998D01*
X97586059Y-84127361D01*
X97591724Y-84139338D01*
X97596187Y-84151812D01*
X97599406Y-84164663D01*
X97601350Y-84177768D01*
X97602000Y-84191000D01*
X97602000Y-84461000D01*
X97601350Y-84474232D01*
X97599406Y-84487337D01*
X97596187Y-84500188D01*
X97591724Y-84512662D01*
X97586059Y-84524639D01*
X97579248Y-84536002D01*
X97571356Y-84546643D01*
X97562459Y-84556459D01*
X97552643Y-84565356D01*
X97542002Y-84573248D01*
X97530639Y-84580059D01*
X97518662Y-84585724D01*
X97506188Y-84590187D01*
X97493337Y-84593406D01*
X97480232Y-84595350D01*
X97467000Y-84596000D01*
X97097000Y-84596000D01*
X97083768Y-84595350D01*
X97070663Y-84593406D01*
X97057812Y-84590187D01*
X97045338Y-84585724D01*
X97033361Y-84580059D01*
X97021998Y-84573248D01*
X97011357Y-84565356D01*
X97001541Y-84556459D01*
X96992644Y-84546643D01*
X96984752Y-84536002D01*
X96977941Y-84524639D01*
X96972276Y-84512662D01*
X96967813Y-84500188D01*
X96964594Y-84487337D01*
X96962650Y-84474232D01*
X96962000Y-84461000D01*
X96962000Y-84191000D01*
X96962650Y-84177768D01*
X96964594Y-84164663D01*
X96967813Y-84151812D01*
X96972276Y-84139338D01*
X96977941Y-84127361D01*
X96984752Y-84115998D01*
X96992644Y-84105357D01*
X97001541Y-84095541D01*
X97011357Y-84086644D01*
X97021998Y-84078752D01*
X97033361Y-84071941D01*
X97045338Y-84066276D01*
X97057812Y-84061813D01*
X97070663Y-84058594D01*
X97083768Y-84056650D01*
X97097000Y-84056000D01*
X97467000Y-84056000D01*
X97480232Y-84056650D01*
G37*
G36*
X121864232Y-84056650D02*
G01*
X121877337Y-84058594D01*
X121890188Y-84061813D01*
X121902662Y-84066276D01*
X121914639Y-84071941D01*
X121926002Y-84078752D01*
X121936643Y-84086644D01*
X121946459Y-84095541D01*
X121955356Y-84105357D01*
X121963248Y-84115998D01*
X121970059Y-84127361D01*
X121975724Y-84139338D01*
X121980187Y-84151812D01*
X121983406Y-84164663D01*
X121985350Y-84177768D01*
X121986000Y-84191000D01*
X121986000Y-84461000D01*
X121985350Y-84474232D01*
X121983406Y-84487337D01*
X121980187Y-84500188D01*
X121975724Y-84512662D01*
X121970059Y-84524639D01*
X121963248Y-84536002D01*
X121955356Y-84546643D01*
X121946459Y-84556459D01*
X121936643Y-84565356D01*
X121926002Y-84573248D01*
X121914639Y-84580059D01*
X121902662Y-84585724D01*
X121890188Y-84590187D01*
X121877337Y-84593406D01*
X121864232Y-84595350D01*
X121851000Y-84596000D01*
X121481000Y-84596000D01*
X121467768Y-84595350D01*
X121454663Y-84593406D01*
X121441812Y-84590187D01*
X121429338Y-84585724D01*
X121417361Y-84580059D01*
X121405998Y-84573248D01*
X121395357Y-84565356D01*
X121385541Y-84556459D01*
X121376644Y-84546643D01*
X121368752Y-84536002D01*
X121361941Y-84524639D01*
X121356276Y-84512662D01*
X121351813Y-84500188D01*
X121348594Y-84487337D01*
X121346650Y-84474232D01*
X121346000Y-84461000D01*
X121346000Y-84191000D01*
X121346650Y-84177768D01*
X121348594Y-84164663D01*
X121351813Y-84151812D01*
X121356276Y-84139338D01*
X121361941Y-84127361D01*
X121368752Y-84115998D01*
X121376644Y-84105357D01*
X121385541Y-84095541D01*
X121395357Y-84086644D01*
X121405998Y-84078752D01*
X121417361Y-84071941D01*
X121429338Y-84066276D01*
X121441812Y-84061813D01*
X121454663Y-84058594D01*
X121467768Y-84056650D01*
X121481000Y-84056000D01*
X121851000Y-84056000D01*
X121864232Y-84056650D01*
G37*
G36*
X121864232Y-85076650D02*
G01*
X121877337Y-85078594D01*
X121890188Y-85081813D01*
X121902662Y-85086276D01*
X121914639Y-85091941D01*
X121926002Y-85098752D01*
X121936643Y-85106644D01*
X121946459Y-85115541D01*
X121955356Y-85125357D01*
X121963248Y-85135998D01*
X121970059Y-85147361D01*
X121975724Y-85159338D01*
X121980187Y-85171812D01*
X121983406Y-85184663D01*
X121985350Y-85197768D01*
X121986000Y-85211000D01*
X121986000Y-85481000D01*
X121985350Y-85494232D01*
X121983406Y-85507337D01*
X121980187Y-85520188D01*
X121975724Y-85532662D01*
X121970059Y-85544639D01*
X121963248Y-85556002D01*
X121955356Y-85566643D01*
X121946459Y-85576459D01*
X121936643Y-85585356D01*
X121926002Y-85593248D01*
X121914639Y-85600059D01*
X121902662Y-85605724D01*
X121890188Y-85610187D01*
X121877337Y-85613406D01*
X121864232Y-85615350D01*
X121851000Y-85616000D01*
X121481000Y-85616000D01*
X121467768Y-85615350D01*
X121454663Y-85613406D01*
X121441812Y-85610187D01*
X121429338Y-85605724D01*
X121417361Y-85600059D01*
X121405998Y-85593248D01*
X121395357Y-85585356D01*
X121385541Y-85576459D01*
X121376644Y-85566643D01*
X121368752Y-85556002D01*
X121361941Y-85544639D01*
X121356276Y-85532662D01*
X121351813Y-85520188D01*
X121348594Y-85507337D01*
X121346650Y-85494232D01*
X121346000Y-85481000D01*
X121346000Y-85211000D01*
X121346650Y-85197768D01*
X121348594Y-85184663D01*
X121351813Y-85171812D01*
X121356276Y-85159338D01*
X121361941Y-85147361D01*
X121368752Y-85135998D01*
X121376644Y-85125357D01*
X121385541Y-85115541D01*
X121395357Y-85106644D01*
X121405998Y-85098752D01*
X121417361Y-85091941D01*
X121429338Y-85086276D01*
X121441812Y-85081813D01*
X121454663Y-85078594D01*
X121467768Y-85076650D01*
X121481000Y-85076000D01*
X121851000Y-85076000D01*
X121864232Y-85076650D01*
G37*
G36*
X148280232Y-84056650D02*
G01*
X148293337Y-84058594D01*
X148306188Y-84061813D01*
X148318662Y-84066276D01*
X148330639Y-84071941D01*
X148342002Y-84078752D01*
X148352643Y-84086644D01*
X148362459Y-84095541D01*
X148371356Y-84105357D01*
X148379248Y-84115998D01*
X148386059Y-84127361D01*
X148391724Y-84139338D01*
X148396187Y-84151812D01*
X148399406Y-84164663D01*
X148401350Y-84177768D01*
X148402000Y-84191000D01*
X148402000Y-84461000D01*
X148401350Y-84474232D01*
X148399406Y-84487337D01*
X148396187Y-84500188D01*
X148391724Y-84512662D01*
X148386059Y-84524639D01*
X148379248Y-84536002D01*
X148371356Y-84546643D01*
X148362459Y-84556459D01*
X148352643Y-84565356D01*
X148342002Y-84573248D01*
X148330639Y-84580059D01*
X148318662Y-84585724D01*
X148306188Y-84590187D01*
X148293337Y-84593406D01*
X148280232Y-84595350D01*
X148267000Y-84596000D01*
X147897000Y-84596000D01*
X147883768Y-84595350D01*
X147870663Y-84593406D01*
X147857812Y-84590187D01*
X147845338Y-84585724D01*
X147833361Y-84580059D01*
X147821998Y-84573248D01*
X147811357Y-84565356D01*
X147801541Y-84556459D01*
X147792644Y-84546643D01*
X147784752Y-84536002D01*
X147777941Y-84524639D01*
X147772276Y-84512662D01*
X147767813Y-84500188D01*
X147764594Y-84487337D01*
X147762650Y-84474232D01*
X147762000Y-84461000D01*
X147762000Y-84191000D01*
X147762650Y-84177768D01*
X147764594Y-84164663D01*
X147767813Y-84151812D01*
X147772276Y-84139338D01*
X147777941Y-84127361D01*
X147784752Y-84115998D01*
X147792644Y-84105357D01*
X147801541Y-84095541D01*
X147811357Y-84086644D01*
X147821998Y-84078752D01*
X147833361Y-84071941D01*
X147845338Y-84066276D01*
X147857812Y-84061813D01*
X147870663Y-84058594D01*
X147883768Y-84056650D01*
X147897000Y-84056000D01*
X148267000Y-84056000D01*
X148280232Y-84056650D01*
G37*
G36*
X148280232Y-85076650D02*
G01*
X148293337Y-85078594D01*
X148306188Y-85081813D01*
X148318662Y-85086276D01*
X148330639Y-85091941D01*
X148342002Y-85098752D01*
X148352643Y-85106644D01*
X148362459Y-85115541D01*
X148371356Y-85125357D01*
X148379248Y-85135998D01*
X148386059Y-85147361D01*
X148391724Y-85159338D01*
X148396187Y-85171812D01*
X148399406Y-85184663D01*
X148401350Y-85197768D01*
X148402000Y-85211000D01*
X148402000Y-85481000D01*
X148401350Y-85494232D01*
X148399406Y-85507337D01*
X148396187Y-85520188D01*
X148391724Y-85532662D01*
X148386059Y-85544639D01*
X148379248Y-85556002D01*
X148371356Y-85566643D01*
X148362459Y-85576459D01*
X148352643Y-85585356D01*
X148342002Y-85593248D01*
X148330639Y-85600059D01*
X148318662Y-85605724D01*
X148306188Y-85610187D01*
X148293337Y-85613406D01*
X148280232Y-85615350D01*
X148267000Y-85616000D01*
X147897000Y-85616000D01*
X147883768Y-85615350D01*
X147870663Y-85613406D01*
X147857812Y-85610187D01*
X147845338Y-85605724D01*
X147833361Y-85600059D01*
X147821998Y-85593248D01*
X147811357Y-85585356D01*
X147801541Y-85576459D01*
X147792644Y-85566643D01*
X147784752Y-85556002D01*
X147777941Y-85544639D01*
X147772276Y-85532662D01*
X147767813Y-85520188D01*
X147764594Y-85507337D01*
X147762650Y-85494232D01*
X147762000Y-85481000D01*
X147762000Y-85211000D01*
X147762650Y-85197768D01*
X147764594Y-85184663D01*
X147767813Y-85171812D01*
X147772276Y-85159338D01*
X147777941Y-85147361D01*
X147784752Y-85135998D01*
X147792644Y-85125357D01*
X147801541Y-85115541D01*
X147811357Y-85106644D01*
X147821998Y-85098752D01*
X147833361Y-85091941D01*
X147845338Y-85086276D01*
X147857812Y-85081813D01*
X147870663Y-85078594D01*
X147883768Y-85076650D01*
X147897000Y-85076000D01*
X148267000Y-85076000D01*
X148280232Y-85076650D01*
G37*
G36*
X77160232Y-84056650D02*
G01*
X77173337Y-84058594D01*
X77186188Y-84061813D01*
X77198662Y-84066276D01*
X77210639Y-84071941D01*
X77222002Y-84078752D01*
X77232643Y-84086644D01*
X77242459Y-84095541D01*
X77251356Y-84105357D01*
X77259248Y-84115998D01*
X77266059Y-84127361D01*
X77271724Y-84139338D01*
X77276187Y-84151812D01*
X77279406Y-84164663D01*
X77281350Y-84177768D01*
X77282000Y-84191000D01*
X77282000Y-84461000D01*
X77281350Y-84474232D01*
X77279406Y-84487337D01*
X77276187Y-84500188D01*
X77271724Y-84512662D01*
X77266059Y-84524639D01*
X77259248Y-84536002D01*
X77251356Y-84546643D01*
X77242459Y-84556459D01*
X77232643Y-84565356D01*
X77222002Y-84573248D01*
X77210639Y-84580059D01*
X77198662Y-84585724D01*
X77186188Y-84590187D01*
X77173337Y-84593406D01*
X77160232Y-84595350D01*
X77147000Y-84596000D01*
X76777000Y-84596000D01*
X76763768Y-84595350D01*
X76750663Y-84593406D01*
X76737812Y-84590187D01*
X76725338Y-84585724D01*
X76713361Y-84580059D01*
X76701998Y-84573248D01*
X76691357Y-84565356D01*
X76681541Y-84556459D01*
X76672644Y-84546643D01*
X76664752Y-84536002D01*
X76657941Y-84524639D01*
X76652276Y-84512662D01*
X76647813Y-84500188D01*
X76644594Y-84487337D01*
X76642650Y-84474232D01*
X76642000Y-84461000D01*
X76642000Y-84191000D01*
X76642650Y-84177768D01*
X76644594Y-84164663D01*
X76647813Y-84151812D01*
X76652276Y-84139338D01*
X76657941Y-84127361D01*
X76664752Y-84115998D01*
X76672644Y-84105357D01*
X76681541Y-84095541D01*
X76691357Y-84086644D01*
X76701998Y-84078752D01*
X76713361Y-84071941D01*
X76725338Y-84066276D01*
X76737812Y-84061813D01*
X76750663Y-84058594D01*
X76763768Y-84056650D01*
X76777000Y-84056000D01*
X77147000Y-84056000D01*
X77160232Y-84056650D01*
G37*
G36*
X77160232Y-85076650D02*
G01*
X77173337Y-85078594D01*
X77186188Y-85081813D01*
X77198662Y-85086276D01*
X77210639Y-85091941D01*
X77222002Y-85098752D01*
X77232643Y-85106644D01*
X77242459Y-85115541D01*
X77251356Y-85125357D01*
X77259248Y-85135998D01*
X77266059Y-85147361D01*
X77271724Y-85159338D01*
X77276187Y-85171812D01*
X77279406Y-85184663D01*
X77281350Y-85197768D01*
X77282000Y-85211000D01*
X77282000Y-85481000D01*
X77281350Y-85494232D01*
X77279406Y-85507337D01*
X77276187Y-85520188D01*
X77271724Y-85532662D01*
X77266059Y-85544639D01*
X77259248Y-85556002D01*
X77251356Y-85566643D01*
X77242459Y-85576459D01*
X77232643Y-85585356D01*
X77222002Y-85593248D01*
X77210639Y-85600059D01*
X77198662Y-85605724D01*
X77186188Y-85610187D01*
X77173337Y-85613406D01*
X77160232Y-85615350D01*
X77147000Y-85616000D01*
X76777000Y-85616000D01*
X76763768Y-85615350D01*
X76750663Y-85613406D01*
X76737812Y-85610187D01*
X76725338Y-85605724D01*
X76713361Y-85600059D01*
X76701998Y-85593248D01*
X76691357Y-85585356D01*
X76681541Y-85576459D01*
X76672644Y-85566643D01*
X76664752Y-85556002D01*
X76657941Y-85544639D01*
X76652276Y-85532662D01*
X76647813Y-85520188D01*
X76644594Y-85507337D01*
X76642650Y-85494232D01*
X76642000Y-85481000D01*
X76642000Y-85211000D01*
X76642650Y-85197768D01*
X76644594Y-85184663D01*
X76647813Y-85171812D01*
X76652276Y-85159338D01*
X76657941Y-85147361D01*
X76664752Y-85135998D01*
X76672644Y-85125357D01*
X76681541Y-85115541D01*
X76691357Y-85106644D01*
X76701998Y-85098752D01*
X76713361Y-85091941D01*
X76725338Y-85086276D01*
X76737812Y-85081813D01*
X76750663Y-85078594D01*
X76763768Y-85076650D01*
X76777000Y-85076000D01*
X77147000Y-85076000D01*
X77160232Y-85076650D01*
G37*
G36*
X102560232Y-84056650D02*
G01*
X102573337Y-84058594D01*
X102586188Y-84061813D01*
X102598662Y-84066276D01*
X102610639Y-84071941D01*
X102622002Y-84078752D01*
X102632643Y-84086644D01*
X102642459Y-84095541D01*
X102651356Y-84105357D01*
X102659248Y-84115998D01*
X102666059Y-84127361D01*
X102671724Y-84139338D01*
X102676187Y-84151812D01*
X102679406Y-84164663D01*
X102681350Y-84177768D01*
X102682000Y-84191000D01*
X102682000Y-84461000D01*
X102681350Y-84474232D01*
X102679406Y-84487337D01*
X102676187Y-84500188D01*
X102671724Y-84512662D01*
X102666059Y-84524639D01*
X102659248Y-84536002D01*
X102651356Y-84546643D01*
X102642459Y-84556459D01*
X102632643Y-84565356D01*
X102622002Y-84573248D01*
X102610639Y-84580059D01*
X102598662Y-84585724D01*
X102586188Y-84590187D01*
X102573337Y-84593406D01*
X102560232Y-84595350D01*
X102547000Y-84596000D01*
X102177000Y-84596000D01*
X102163768Y-84595350D01*
X102150663Y-84593406D01*
X102137812Y-84590187D01*
X102125338Y-84585724D01*
X102113361Y-84580059D01*
X102101998Y-84573248D01*
X102091357Y-84565356D01*
X102081541Y-84556459D01*
X102072644Y-84546643D01*
X102064752Y-84536002D01*
X102057941Y-84524639D01*
X102052276Y-84512662D01*
X102047813Y-84500188D01*
X102044594Y-84487337D01*
X102042650Y-84474232D01*
X102042000Y-84461000D01*
X102042000Y-84191000D01*
X102042650Y-84177768D01*
X102044594Y-84164663D01*
X102047813Y-84151812D01*
X102052276Y-84139338D01*
X102057941Y-84127361D01*
X102064752Y-84115998D01*
X102072644Y-84105357D01*
X102081541Y-84095541D01*
X102091357Y-84086644D01*
X102101998Y-84078752D01*
X102113361Y-84071941D01*
X102125338Y-84066276D01*
X102137812Y-84061813D01*
X102150663Y-84058594D01*
X102163768Y-84056650D01*
X102177000Y-84056000D01*
X102547000Y-84056000D01*
X102560232Y-84056650D01*
G37*
G36*
X102560232Y-85076650D02*
G01*
X102573337Y-85078594D01*
X102586188Y-85081813D01*
X102598662Y-85086276D01*
X102610639Y-85091941D01*
X102622002Y-85098752D01*
X102632643Y-85106644D01*
X102642459Y-85115541D01*
X102651356Y-85125357D01*
X102659248Y-85135998D01*
X102666059Y-85147361D01*
X102671724Y-85159338D01*
X102676187Y-85171812D01*
X102679406Y-85184663D01*
X102681350Y-85197768D01*
X102682000Y-85211000D01*
X102682000Y-85481000D01*
X102681350Y-85494232D01*
X102679406Y-85507337D01*
X102676187Y-85520188D01*
X102671724Y-85532662D01*
X102666059Y-85544639D01*
X102659248Y-85556002D01*
X102651356Y-85566643D01*
X102642459Y-85576459D01*
X102632643Y-85585356D01*
X102622002Y-85593248D01*
X102610639Y-85600059D01*
X102598662Y-85605724D01*
X102586188Y-85610187D01*
X102573337Y-85613406D01*
X102560232Y-85615350D01*
X102547000Y-85616000D01*
X102177000Y-85616000D01*
X102163768Y-85615350D01*
X102150663Y-85613406D01*
X102137812Y-85610187D01*
X102125338Y-85605724D01*
X102113361Y-85600059D01*
X102101998Y-85593248D01*
X102091357Y-85585356D01*
X102081541Y-85576459D01*
X102072644Y-85566643D01*
X102064752Y-85556002D01*
X102057941Y-85544639D01*
X102052276Y-85532662D01*
X102047813Y-85520188D01*
X102044594Y-85507337D01*
X102042650Y-85494232D01*
X102042000Y-85481000D01*
X102042000Y-85211000D01*
X102042650Y-85197768D01*
X102044594Y-85184663D01*
X102047813Y-85171812D01*
X102052276Y-85159338D01*
X102057941Y-85147361D01*
X102064752Y-85135998D01*
X102072644Y-85125357D01*
X102081541Y-85115541D01*
X102091357Y-85106644D01*
X102101998Y-85098752D01*
X102113361Y-85091941D01*
X102125338Y-85086276D01*
X102137812Y-85081813D01*
X102150663Y-85078594D01*
X102163768Y-85076650D01*
X102177000Y-85076000D01*
X102547000Y-85076000D01*
X102560232Y-85076650D01*
G37*
G36*
X127452232Y-85076650D02*
G01*
X127465337Y-85078594D01*
X127478188Y-85081813D01*
X127490662Y-85086276D01*
X127502639Y-85091941D01*
X127514002Y-85098752D01*
X127524643Y-85106644D01*
X127534459Y-85115541D01*
X127543356Y-85125357D01*
X127551248Y-85135998D01*
X127558059Y-85147361D01*
X127563724Y-85159338D01*
X127568187Y-85171812D01*
X127571406Y-85184663D01*
X127573350Y-85197768D01*
X127574000Y-85211000D01*
X127574000Y-85481000D01*
X127573350Y-85494232D01*
X127571406Y-85507337D01*
X127568187Y-85520188D01*
X127563724Y-85532662D01*
X127558059Y-85544639D01*
X127551248Y-85556002D01*
X127543356Y-85566643D01*
X127534459Y-85576459D01*
X127524643Y-85585356D01*
X127514002Y-85593248D01*
X127502639Y-85600059D01*
X127490662Y-85605724D01*
X127478188Y-85610187D01*
X127465337Y-85613406D01*
X127452232Y-85615350D01*
X127439000Y-85616000D01*
X127069000Y-85616000D01*
X127055768Y-85615350D01*
X127042663Y-85613406D01*
X127029812Y-85610187D01*
X127017338Y-85605724D01*
X127005361Y-85600059D01*
X126993998Y-85593248D01*
X126983357Y-85585356D01*
X126973541Y-85576459D01*
X126964644Y-85566643D01*
X126956752Y-85556002D01*
X126949941Y-85544639D01*
X126944276Y-85532662D01*
X126939813Y-85520188D01*
X126936594Y-85507337D01*
X126934650Y-85494232D01*
X126934000Y-85481000D01*
X126934000Y-85211000D01*
X126934650Y-85197768D01*
X126936594Y-85184663D01*
X126939813Y-85171812D01*
X126944276Y-85159338D01*
X126949941Y-85147361D01*
X126956752Y-85135998D01*
X126964644Y-85125357D01*
X126973541Y-85115541D01*
X126983357Y-85106644D01*
X126993998Y-85098752D01*
X127005361Y-85091941D01*
X127017338Y-85086276D01*
X127029812Y-85081813D01*
X127042663Y-85078594D01*
X127055768Y-85076650D01*
X127069000Y-85076000D01*
X127439000Y-85076000D01*
X127452232Y-85076650D01*
G37*
G36*
X127452232Y-84056650D02*
G01*
X127465337Y-84058594D01*
X127478188Y-84061813D01*
X127490662Y-84066276D01*
X127502639Y-84071941D01*
X127514002Y-84078752D01*
X127524643Y-84086644D01*
X127534459Y-84095541D01*
X127543356Y-84105357D01*
X127551248Y-84115998D01*
X127558059Y-84127361D01*
X127563724Y-84139338D01*
X127568187Y-84151812D01*
X127571406Y-84164663D01*
X127573350Y-84177768D01*
X127574000Y-84191000D01*
X127574000Y-84461000D01*
X127573350Y-84474232D01*
X127571406Y-84487337D01*
X127568187Y-84500188D01*
X127563724Y-84512662D01*
X127558059Y-84524639D01*
X127551248Y-84536002D01*
X127543356Y-84546643D01*
X127534459Y-84556459D01*
X127524643Y-84565356D01*
X127514002Y-84573248D01*
X127502639Y-84580059D01*
X127490662Y-84585724D01*
X127478188Y-84590187D01*
X127465337Y-84593406D01*
X127452232Y-84595350D01*
X127439000Y-84596000D01*
X127069000Y-84596000D01*
X127055768Y-84595350D01*
X127042663Y-84593406D01*
X127029812Y-84590187D01*
X127017338Y-84585724D01*
X127005361Y-84580059D01*
X126993998Y-84573248D01*
X126983357Y-84565356D01*
X126973541Y-84556459D01*
X126964644Y-84546643D01*
X126956752Y-84536002D01*
X126949941Y-84524639D01*
X126944276Y-84512662D01*
X126939813Y-84500188D01*
X126936594Y-84487337D01*
X126934650Y-84474232D01*
X126934000Y-84461000D01*
X126934000Y-84191000D01*
X126934650Y-84177768D01*
X126936594Y-84164663D01*
X126939813Y-84151812D01*
X126944276Y-84139338D01*
X126949941Y-84127361D01*
X126956752Y-84115998D01*
X126964644Y-84105357D01*
X126973541Y-84095541D01*
X126983357Y-84086644D01*
X126993998Y-84078752D01*
X127005361Y-84071941D01*
X127017338Y-84066276D01*
X127029812Y-84061813D01*
X127042663Y-84058594D01*
X127055768Y-84056650D01*
X127069000Y-84056000D01*
X127439000Y-84056000D01*
X127452232Y-84056650D01*
G37*
G36*
X153360232Y-85076650D02*
G01*
X153373337Y-85078594D01*
X153386188Y-85081813D01*
X153398662Y-85086276D01*
X153410639Y-85091941D01*
X153422002Y-85098752D01*
X153432643Y-85106644D01*
X153442459Y-85115541D01*
X153451356Y-85125357D01*
X153459248Y-85135998D01*
X153466059Y-85147361D01*
X153471724Y-85159338D01*
X153476187Y-85171812D01*
X153479406Y-85184663D01*
X153481350Y-85197768D01*
X153482000Y-85211000D01*
X153482000Y-85481000D01*
X153481350Y-85494232D01*
X153479406Y-85507337D01*
X153476187Y-85520188D01*
X153471724Y-85532662D01*
X153466059Y-85544639D01*
X153459248Y-85556002D01*
X153451356Y-85566643D01*
X153442459Y-85576459D01*
X153432643Y-85585356D01*
X153422002Y-85593248D01*
X153410639Y-85600059D01*
X153398662Y-85605724D01*
X153386188Y-85610187D01*
X153373337Y-85613406D01*
X153360232Y-85615350D01*
X153347000Y-85616000D01*
X152977000Y-85616000D01*
X152963768Y-85615350D01*
X152950663Y-85613406D01*
X152937812Y-85610187D01*
X152925338Y-85605724D01*
X152913361Y-85600059D01*
X152901998Y-85593248D01*
X152891357Y-85585356D01*
X152881541Y-85576459D01*
X152872644Y-85566643D01*
X152864752Y-85556002D01*
X152857941Y-85544639D01*
X152852276Y-85532662D01*
X152847813Y-85520188D01*
X152844594Y-85507337D01*
X152842650Y-85494232D01*
X152842000Y-85481000D01*
X152842000Y-85211000D01*
X152842650Y-85197768D01*
X152844594Y-85184663D01*
X152847813Y-85171812D01*
X152852276Y-85159338D01*
X152857941Y-85147361D01*
X152864752Y-85135998D01*
X152872644Y-85125357D01*
X152881541Y-85115541D01*
X152891357Y-85106644D01*
X152901998Y-85098752D01*
X152913361Y-85091941D01*
X152925338Y-85086276D01*
X152937812Y-85081813D01*
X152950663Y-85078594D01*
X152963768Y-85076650D01*
X152977000Y-85076000D01*
X153347000Y-85076000D01*
X153360232Y-85076650D01*
G37*
G36*
X153360232Y-84056650D02*
G01*
X153373337Y-84058594D01*
X153386188Y-84061813D01*
X153398662Y-84066276D01*
X153410639Y-84071941D01*
X153422002Y-84078752D01*
X153432643Y-84086644D01*
X153442459Y-84095541D01*
X153451356Y-84105357D01*
X153459248Y-84115998D01*
X153466059Y-84127361D01*
X153471724Y-84139338D01*
X153476187Y-84151812D01*
X153479406Y-84164663D01*
X153481350Y-84177768D01*
X153482000Y-84191000D01*
X153482000Y-84461000D01*
X153481350Y-84474232D01*
X153479406Y-84487337D01*
X153476187Y-84500188D01*
X153471724Y-84512662D01*
X153466059Y-84524639D01*
X153459248Y-84536002D01*
X153451356Y-84546643D01*
X153442459Y-84556459D01*
X153432643Y-84565356D01*
X153422002Y-84573248D01*
X153410639Y-84580059D01*
X153398662Y-84585724D01*
X153386188Y-84590187D01*
X153373337Y-84593406D01*
X153360232Y-84595350D01*
X153347000Y-84596000D01*
X152977000Y-84596000D01*
X152963768Y-84595350D01*
X152950663Y-84593406D01*
X152937812Y-84590187D01*
X152925338Y-84585724D01*
X152913361Y-84580059D01*
X152901998Y-84573248D01*
X152891357Y-84565356D01*
X152881541Y-84556459D01*
X152872644Y-84546643D01*
X152864752Y-84536002D01*
X152857941Y-84524639D01*
X152852276Y-84512662D01*
X152847813Y-84500188D01*
X152844594Y-84487337D01*
X152842650Y-84474232D01*
X152842000Y-84461000D01*
X152842000Y-84191000D01*
X152842650Y-84177768D01*
X152844594Y-84164663D01*
X152847813Y-84151812D01*
X152852276Y-84139338D01*
X152857941Y-84127361D01*
X152864752Y-84115998D01*
X152872644Y-84105357D01*
X152881541Y-84095541D01*
X152891357Y-84086644D01*
X152901998Y-84078752D01*
X152913361Y-84071941D01*
X152925338Y-84066276D01*
X152937812Y-84061813D01*
X152950663Y-84058594D01*
X152963768Y-84056650D01*
X152977000Y-84056000D01*
X153347000Y-84056000D01*
X153360232Y-84056650D01*
G37*
G36*
X66694232Y-66228650D02*
G01*
X66707337Y-66230594D01*
X66720188Y-66233813D01*
X66732662Y-66238276D01*
X66744639Y-66243941D01*
X66756002Y-66250752D01*
X66766643Y-66258644D01*
X66776459Y-66267541D01*
X66785356Y-66277357D01*
X66793248Y-66287998D01*
X66800059Y-66299361D01*
X66805724Y-66311338D01*
X66810187Y-66323812D01*
X66813406Y-66336663D01*
X66815350Y-66349768D01*
X66816000Y-66363000D01*
X66816000Y-66733000D01*
X66815350Y-66746232D01*
X66813406Y-66759337D01*
X66810187Y-66772188D01*
X66805724Y-66784662D01*
X66800059Y-66796639D01*
X66793248Y-66808002D01*
X66785356Y-66818643D01*
X66776459Y-66828459D01*
X66766643Y-66837356D01*
X66756002Y-66845248D01*
X66744639Y-66852059D01*
X66732662Y-66857724D01*
X66720188Y-66862187D01*
X66707337Y-66865406D01*
X66694232Y-66867350D01*
X66681000Y-66868000D01*
X66411000Y-66868000D01*
X66397768Y-66867350D01*
X66384663Y-66865406D01*
X66371812Y-66862187D01*
X66359338Y-66857724D01*
X66347361Y-66852059D01*
X66335998Y-66845248D01*
X66325357Y-66837356D01*
X66315541Y-66828459D01*
X66306644Y-66818643D01*
X66298752Y-66808002D01*
X66291941Y-66796639D01*
X66286276Y-66784662D01*
X66281813Y-66772188D01*
X66278594Y-66759337D01*
X66276650Y-66746232D01*
X66276000Y-66733000D01*
X66276000Y-66363000D01*
X66276650Y-66349768D01*
X66278594Y-66336663D01*
X66281813Y-66323812D01*
X66286276Y-66311338D01*
X66291941Y-66299361D01*
X66298752Y-66287998D01*
X66306644Y-66277357D01*
X66315541Y-66267541D01*
X66325357Y-66258644D01*
X66335998Y-66250752D01*
X66347361Y-66243941D01*
X66359338Y-66238276D01*
X66371812Y-66233813D01*
X66384663Y-66230594D01*
X66397768Y-66228650D01*
X66411000Y-66228000D01*
X66681000Y-66228000D01*
X66694232Y-66228650D01*
G37*
G36*
X67714232Y-66228650D02*
G01*
X67727337Y-66230594D01*
X67740188Y-66233813D01*
X67752662Y-66238276D01*
X67764639Y-66243941D01*
X67776002Y-66250752D01*
X67786643Y-66258644D01*
X67796459Y-66267541D01*
X67805356Y-66277357D01*
X67813248Y-66287998D01*
X67820059Y-66299361D01*
X67825724Y-66311338D01*
X67830187Y-66323812D01*
X67833406Y-66336663D01*
X67835350Y-66349768D01*
X67836000Y-66363000D01*
X67836000Y-66733000D01*
X67835350Y-66746232D01*
X67833406Y-66759337D01*
X67830187Y-66772188D01*
X67825724Y-66784662D01*
X67820059Y-66796639D01*
X67813248Y-66808002D01*
X67805356Y-66818643D01*
X67796459Y-66828459D01*
X67786643Y-66837356D01*
X67776002Y-66845248D01*
X67764639Y-66852059D01*
X67752662Y-66857724D01*
X67740188Y-66862187D01*
X67727337Y-66865406D01*
X67714232Y-66867350D01*
X67701000Y-66868000D01*
X67431000Y-66868000D01*
X67417768Y-66867350D01*
X67404663Y-66865406D01*
X67391812Y-66862187D01*
X67379338Y-66857724D01*
X67367361Y-66852059D01*
X67355998Y-66845248D01*
X67345357Y-66837356D01*
X67335541Y-66828459D01*
X67326644Y-66818643D01*
X67318752Y-66808002D01*
X67311941Y-66796639D01*
X67306276Y-66784662D01*
X67301813Y-66772188D01*
X67298594Y-66759337D01*
X67296650Y-66746232D01*
X67296000Y-66733000D01*
X67296000Y-66363000D01*
X67296650Y-66349768D01*
X67298594Y-66336663D01*
X67301813Y-66323812D01*
X67306276Y-66311338D01*
X67311941Y-66299361D01*
X67318752Y-66287998D01*
X67326644Y-66277357D01*
X67335541Y-66267541D01*
X67345357Y-66258644D01*
X67355998Y-66250752D01*
X67367361Y-66243941D01*
X67379338Y-66238276D01*
X67391812Y-66233813D01*
X67404663Y-66230594D01*
X67417768Y-66228650D01*
X67431000Y-66228000D01*
X67701000Y-66228000D01*
X67714232Y-66228650D01*
G37*
G36*
X69742232Y-66228650D02*
G01*
X69755337Y-66230594D01*
X69768188Y-66233813D01*
X69780662Y-66238276D01*
X69792639Y-66243941D01*
X69804002Y-66250752D01*
X69814643Y-66258644D01*
X69824459Y-66267541D01*
X69833356Y-66277357D01*
X69841248Y-66287998D01*
X69848059Y-66299361D01*
X69853724Y-66311338D01*
X69858187Y-66323812D01*
X69861406Y-66336663D01*
X69863350Y-66349768D01*
X69864000Y-66363000D01*
X69864000Y-66733000D01*
X69863350Y-66746232D01*
X69861406Y-66759337D01*
X69858187Y-66772188D01*
X69853724Y-66784662D01*
X69848059Y-66796639D01*
X69841248Y-66808002D01*
X69833356Y-66818643D01*
X69824459Y-66828459D01*
X69814643Y-66837356D01*
X69804002Y-66845248D01*
X69792639Y-66852059D01*
X69780662Y-66857724D01*
X69768188Y-66862187D01*
X69755337Y-66865406D01*
X69742232Y-66867350D01*
X69729000Y-66868000D01*
X69459000Y-66868000D01*
X69445768Y-66867350D01*
X69432663Y-66865406D01*
X69419812Y-66862187D01*
X69407338Y-66857724D01*
X69395361Y-66852059D01*
X69383998Y-66845248D01*
X69373357Y-66837356D01*
X69363541Y-66828459D01*
X69354644Y-66818643D01*
X69346752Y-66808002D01*
X69339941Y-66796639D01*
X69334276Y-66784662D01*
X69329813Y-66772188D01*
X69326594Y-66759337D01*
X69324650Y-66746232D01*
X69324000Y-66733000D01*
X69324000Y-66363000D01*
X69324650Y-66349768D01*
X69326594Y-66336663D01*
X69329813Y-66323812D01*
X69334276Y-66311338D01*
X69339941Y-66299361D01*
X69346752Y-66287998D01*
X69354644Y-66277357D01*
X69363541Y-66267541D01*
X69373357Y-66258644D01*
X69383998Y-66250752D01*
X69395361Y-66243941D01*
X69407338Y-66238276D01*
X69419812Y-66233813D01*
X69432663Y-66230594D01*
X69445768Y-66228650D01*
X69459000Y-66228000D01*
X69729000Y-66228000D01*
X69742232Y-66228650D01*
G37*
G36*
X70762232Y-66228650D02*
G01*
X70775337Y-66230594D01*
X70788188Y-66233813D01*
X70800662Y-66238276D01*
X70812639Y-66243941D01*
X70824002Y-66250752D01*
X70834643Y-66258644D01*
X70844459Y-66267541D01*
X70853356Y-66277357D01*
X70861248Y-66287998D01*
X70868059Y-66299361D01*
X70873724Y-66311338D01*
X70878187Y-66323812D01*
X70881406Y-66336663D01*
X70883350Y-66349768D01*
X70884000Y-66363000D01*
X70884000Y-66733000D01*
X70883350Y-66746232D01*
X70881406Y-66759337D01*
X70878187Y-66772188D01*
X70873724Y-66784662D01*
X70868059Y-66796639D01*
X70861248Y-66808002D01*
X70853356Y-66818643D01*
X70844459Y-66828459D01*
X70834643Y-66837356D01*
X70824002Y-66845248D01*
X70812639Y-66852059D01*
X70800662Y-66857724D01*
X70788188Y-66862187D01*
X70775337Y-66865406D01*
X70762232Y-66867350D01*
X70749000Y-66868000D01*
X70479000Y-66868000D01*
X70465768Y-66867350D01*
X70452663Y-66865406D01*
X70439812Y-66862187D01*
X70427338Y-66857724D01*
X70415361Y-66852059D01*
X70403998Y-66845248D01*
X70393357Y-66837356D01*
X70383541Y-66828459D01*
X70374644Y-66818643D01*
X70366752Y-66808002D01*
X70359941Y-66796639D01*
X70354276Y-66784662D01*
X70349813Y-66772188D01*
X70346594Y-66759337D01*
X70344650Y-66746232D01*
X70344000Y-66733000D01*
X70344000Y-66363000D01*
X70344650Y-66349768D01*
X70346594Y-66336663D01*
X70349813Y-66323812D01*
X70354276Y-66311338D01*
X70359941Y-66299361D01*
X70366752Y-66287998D01*
X70374644Y-66277357D01*
X70383541Y-66267541D01*
X70393357Y-66258644D01*
X70403998Y-66250752D01*
X70415361Y-66243941D01*
X70427338Y-66238276D01*
X70439812Y-66233813D01*
X70452663Y-66230594D01*
X70465768Y-66228650D01*
X70479000Y-66228000D01*
X70749000Y-66228000D01*
X70762232Y-66228650D01*
G37*
G36*
X73810232Y-66228650D02*
G01*
X73823337Y-66230594D01*
X73836188Y-66233813D01*
X73848662Y-66238276D01*
X73860639Y-66243941D01*
X73872002Y-66250752D01*
X73882643Y-66258644D01*
X73892459Y-66267541D01*
X73901356Y-66277357D01*
X73909248Y-66287998D01*
X73916059Y-66299361D01*
X73921724Y-66311338D01*
X73926187Y-66323812D01*
X73929406Y-66336663D01*
X73931350Y-66349768D01*
X73932000Y-66363000D01*
X73932000Y-66733000D01*
X73931350Y-66746232D01*
X73929406Y-66759337D01*
X73926187Y-66772188D01*
X73921724Y-66784662D01*
X73916059Y-66796639D01*
X73909248Y-66808002D01*
X73901356Y-66818643D01*
X73892459Y-66828459D01*
X73882643Y-66837356D01*
X73872002Y-66845248D01*
X73860639Y-66852059D01*
X73848662Y-66857724D01*
X73836188Y-66862187D01*
X73823337Y-66865406D01*
X73810232Y-66867350D01*
X73797000Y-66868000D01*
X73527000Y-66868000D01*
X73513768Y-66867350D01*
X73500663Y-66865406D01*
X73487812Y-66862187D01*
X73475338Y-66857724D01*
X73463361Y-66852059D01*
X73451998Y-66845248D01*
X73441357Y-66837356D01*
X73431541Y-66828459D01*
X73422644Y-66818643D01*
X73414752Y-66808002D01*
X73407941Y-66796639D01*
X73402276Y-66784662D01*
X73397813Y-66772188D01*
X73394594Y-66759337D01*
X73392650Y-66746232D01*
X73392000Y-66733000D01*
X73392000Y-66363000D01*
X73392650Y-66349768D01*
X73394594Y-66336663D01*
X73397813Y-66323812D01*
X73402276Y-66311338D01*
X73407941Y-66299361D01*
X73414752Y-66287998D01*
X73422644Y-66277357D01*
X73431541Y-66267541D01*
X73441357Y-66258644D01*
X73451998Y-66250752D01*
X73463361Y-66243941D01*
X73475338Y-66238276D01*
X73487812Y-66233813D01*
X73500663Y-66230594D01*
X73513768Y-66228650D01*
X73527000Y-66228000D01*
X73797000Y-66228000D01*
X73810232Y-66228650D01*
G37*
G36*
X72790232Y-66228650D02*
G01*
X72803337Y-66230594D01*
X72816188Y-66233813D01*
X72828662Y-66238276D01*
X72840639Y-66243941D01*
X72852002Y-66250752D01*
X72862643Y-66258644D01*
X72872459Y-66267541D01*
X72881356Y-66277357D01*
X72889248Y-66287998D01*
X72896059Y-66299361D01*
X72901724Y-66311338D01*
X72906187Y-66323812D01*
X72909406Y-66336663D01*
X72911350Y-66349768D01*
X72912000Y-66363000D01*
X72912000Y-66733000D01*
X72911350Y-66746232D01*
X72909406Y-66759337D01*
X72906187Y-66772188D01*
X72901724Y-66784662D01*
X72896059Y-66796639D01*
X72889248Y-66808002D01*
X72881356Y-66818643D01*
X72872459Y-66828459D01*
X72862643Y-66837356D01*
X72852002Y-66845248D01*
X72840639Y-66852059D01*
X72828662Y-66857724D01*
X72816188Y-66862187D01*
X72803337Y-66865406D01*
X72790232Y-66867350D01*
X72777000Y-66868000D01*
X72507000Y-66868000D01*
X72493768Y-66867350D01*
X72480663Y-66865406D01*
X72467812Y-66862187D01*
X72455338Y-66857724D01*
X72443361Y-66852059D01*
X72431998Y-66845248D01*
X72421357Y-66837356D01*
X72411541Y-66828459D01*
X72402644Y-66818643D01*
X72394752Y-66808002D01*
X72387941Y-66796639D01*
X72382276Y-66784662D01*
X72377813Y-66772188D01*
X72374594Y-66759337D01*
X72372650Y-66746232D01*
X72372000Y-66733000D01*
X72372000Y-66363000D01*
X72372650Y-66349768D01*
X72374594Y-66336663D01*
X72377813Y-66323812D01*
X72382276Y-66311338D01*
X72387941Y-66299361D01*
X72394752Y-66287998D01*
X72402644Y-66277357D01*
X72411541Y-66267541D01*
X72421357Y-66258644D01*
X72431998Y-66250752D01*
X72443361Y-66243941D01*
X72455338Y-66238276D01*
X72467812Y-66233813D01*
X72480663Y-66230594D01*
X72493768Y-66228650D01*
X72507000Y-66228000D01*
X72777000Y-66228000D01*
X72790232Y-66228650D01*
G37*
G36*
X75838232Y-66228650D02*
G01*
X75851337Y-66230594D01*
X75864188Y-66233813D01*
X75876662Y-66238276D01*
X75888639Y-66243941D01*
X75900002Y-66250752D01*
X75910643Y-66258644D01*
X75920459Y-66267541D01*
X75929356Y-66277357D01*
X75937248Y-66287998D01*
X75944059Y-66299361D01*
X75949724Y-66311338D01*
X75954187Y-66323812D01*
X75957406Y-66336663D01*
X75959350Y-66349768D01*
X75960000Y-66363000D01*
X75960000Y-66733000D01*
X75959350Y-66746232D01*
X75957406Y-66759337D01*
X75954187Y-66772188D01*
X75949724Y-66784662D01*
X75944059Y-66796639D01*
X75937248Y-66808002D01*
X75929356Y-66818643D01*
X75920459Y-66828459D01*
X75910643Y-66837356D01*
X75900002Y-66845248D01*
X75888639Y-66852059D01*
X75876662Y-66857724D01*
X75864188Y-66862187D01*
X75851337Y-66865406D01*
X75838232Y-66867350D01*
X75825000Y-66868000D01*
X75555000Y-66868000D01*
X75541768Y-66867350D01*
X75528663Y-66865406D01*
X75515812Y-66862187D01*
X75503338Y-66857724D01*
X75491361Y-66852059D01*
X75479998Y-66845248D01*
X75469357Y-66837356D01*
X75459541Y-66828459D01*
X75450644Y-66818643D01*
X75442752Y-66808002D01*
X75435941Y-66796639D01*
X75430276Y-66784662D01*
X75425813Y-66772188D01*
X75422594Y-66759337D01*
X75420650Y-66746232D01*
X75420000Y-66733000D01*
X75420000Y-66363000D01*
X75420650Y-66349768D01*
X75422594Y-66336663D01*
X75425813Y-66323812D01*
X75430276Y-66311338D01*
X75435941Y-66299361D01*
X75442752Y-66287998D01*
X75450644Y-66277357D01*
X75459541Y-66267541D01*
X75469357Y-66258644D01*
X75479998Y-66250752D01*
X75491361Y-66243941D01*
X75503338Y-66238276D01*
X75515812Y-66233813D01*
X75528663Y-66230594D01*
X75541768Y-66228650D01*
X75555000Y-66228000D01*
X75825000Y-66228000D01*
X75838232Y-66228650D01*
G37*
G36*
X76858232Y-66228650D02*
G01*
X76871337Y-66230594D01*
X76884188Y-66233813D01*
X76896662Y-66238276D01*
X76908639Y-66243941D01*
X76920002Y-66250752D01*
X76930643Y-66258644D01*
X76940459Y-66267541D01*
X76949356Y-66277357D01*
X76957248Y-66287998D01*
X76964059Y-66299361D01*
X76969724Y-66311338D01*
X76974187Y-66323812D01*
X76977406Y-66336663D01*
X76979350Y-66349768D01*
X76980000Y-66363000D01*
X76980000Y-66733000D01*
X76979350Y-66746232D01*
X76977406Y-66759337D01*
X76974187Y-66772188D01*
X76969724Y-66784662D01*
X76964059Y-66796639D01*
X76957248Y-66808002D01*
X76949356Y-66818643D01*
X76940459Y-66828459D01*
X76930643Y-66837356D01*
X76920002Y-66845248D01*
X76908639Y-66852059D01*
X76896662Y-66857724D01*
X76884188Y-66862187D01*
X76871337Y-66865406D01*
X76858232Y-66867350D01*
X76845000Y-66868000D01*
X76575000Y-66868000D01*
X76561768Y-66867350D01*
X76548663Y-66865406D01*
X76535812Y-66862187D01*
X76523338Y-66857724D01*
X76511361Y-66852059D01*
X76499998Y-66845248D01*
X76489357Y-66837356D01*
X76479541Y-66828459D01*
X76470644Y-66818643D01*
X76462752Y-66808002D01*
X76455941Y-66796639D01*
X76450276Y-66784662D01*
X76445813Y-66772188D01*
X76442594Y-66759337D01*
X76440650Y-66746232D01*
X76440000Y-66733000D01*
X76440000Y-66363000D01*
X76440650Y-66349768D01*
X76442594Y-66336663D01*
X76445813Y-66323812D01*
X76450276Y-66311338D01*
X76455941Y-66299361D01*
X76462752Y-66287998D01*
X76470644Y-66277357D01*
X76479541Y-66267541D01*
X76489357Y-66258644D01*
X76499998Y-66250752D01*
X76511361Y-66243941D01*
X76523338Y-66238276D01*
X76535812Y-66233813D01*
X76548663Y-66230594D01*
X76561768Y-66228650D01*
X76575000Y-66228000D01*
X76845000Y-66228000D01*
X76858232Y-66228650D01*
G37*
G36*
X92094232Y-66228650D02*
G01*
X92107337Y-66230594D01*
X92120188Y-66233813D01*
X92132662Y-66238276D01*
X92144639Y-66243941D01*
X92156002Y-66250752D01*
X92166643Y-66258644D01*
X92176459Y-66267541D01*
X92185356Y-66277357D01*
X92193248Y-66287998D01*
X92200059Y-66299361D01*
X92205724Y-66311338D01*
X92210187Y-66323812D01*
X92213406Y-66336663D01*
X92215350Y-66349768D01*
X92216000Y-66363000D01*
X92216000Y-66733000D01*
X92215350Y-66746232D01*
X92213406Y-66759337D01*
X92210187Y-66772188D01*
X92205724Y-66784662D01*
X92200059Y-66796639D01*
X92193248Y-66808002D01*
X92185356Y-66818643D01*
X92176459Y-66828459D01*
X92166643Y-66837356D01*
X92156002Y-66845248D01*
X92144639Y-66852059D01*
X92132662Y-66857724D01*
X92120188Y-66862187D01*
X92107337Y-66865406D01*
X92094232Y-66867350D01*
X92081000Y-66868000D01*
X91811000Y-66868000D01*
X91797768Y-66867350D01*
X91784663Y-66865406D01*
X91771812Y-66862187D01*
X91759338Y-66857724D01*
X91747361Y-66852059D01*
X91735998Y-66845248D01*
X91725357Y-66837356D01*
X91715541Y-66828459D01*
X91706644Y-66818643D01*
X91698752Y-66808002D01*
X91691941Y-66796639D01*
X91686276Y-66784662D01*
X91681813Y-66772188D01*
X91678594Y-66759337D01*
X91676650Y-66746232D01*
X91676000Y-66733000D01*
X91676000Y-66363000D01*
X91676650Y-66349768D01*
X91678594Y-66336663D01*
X91681813Y-66323812D01*
X91686276Y-66311338D01*
X91691941Y-66299361D01*
X91698752Y-66287998D01*
X91706644Y-66277357D01*
X91715541Y-66267541D01*
X91725357Y-66258644D01*
X91735998Y-66250752D01*
X91747361Y-66243941D01*
X91759338Y-66238276D01*
X91771812Y-66233813D01*
X91784663Y-66230594D01*
X91797768Y-66228650D01*
X91811000Y-66228000D01*
X92081000Y-66228000D01*
X92094232Y-66228650D01*
G37*
G36*
X93114232Y-66228650D02*
G01*
X93127337Y-66230594D01*
X93140188Y-66233813D01*
X93152662Y-66238276D01*
X93164639Y-66243941D01*
X93176002Y-66250752D01*
X93186643Y-66258644D01*
X93196459Y-66267541D01*
X93205356Y-66277357D01*
X93213248Y-66287998D01*
X93220059Y-66299361D01*
X93225724Y-66311338D01*
X93230187Y-66323812D01*
X93233406Y-66336663D01*
X93235350Y-66349768D01*
X93236000Y-66363000D01*
X93236000Y-66733000D01*
X93235350Y-66746232D01*
X93233406Y-66759337D01*
X93230187Y-66772188D01*
X93225724Y-66784662D01*
X93220059Y-66796639D01*
X93213248Y-66808002D01*
X93205356Y-66818643D01*
X93196459Y-66828459D01*
X93186643Y-66837356D01*
X93176002Y-66845248D01*
X93164639Y-66852059D01*
X93152662Y-66857724D01*
X93140188Y-66862187D01*
X93127337Y-66865406D01*
X93114232Y-66867350D01*
X93101000Y-66868000D01*
X92831000Y-66868000D01*
X92817768Y-66867350D01*
X92804663Y-66865406D01*
X92791812Y-66862187D01*
X92779338Y-66857724D01*
X92767361Y-66852059D01*
X92755998Y-66845248D01*
X92745357Y-66837356D01*
X92735541Y-66828459D01*
X92726644Y-66818643D01*
X92718752Y-66808002D01*
X92711941Y-66796639D01*
X92706276Y-66784662D01*
X92701813Y-66772188D01*
X92698594Y-66759337D01*
X92696650Y-66746232D01*
X92696000Y-66733000D01*
X92696000Y-66363000D01*
X92696650Y-66349768D01*
X92698594Y-66336663D01*
X92701813Y-66323812D01*
X92706276Y-66311338D01*
X92711941Y-66299361D01*
X92718752Y-66287998D01*
X92726644Y-66277357D01*
X92735541Y-66267541D01*
X92745357Y-66258644D01*
X92755998Y-66250752D01*
X92767361Y-66243941D01*
X92779338Y-66238276D01*
X92791812Y-66233813D01*
X92804663Y-66230594D01*
X92817768Y-66228650D01*
X92831000Y-66228000D01*
X93101000Y-66228000D01*
X93114232Y-66228650D01*
G37*
G36*
X95142232Y-66228650D02*
G01*
X95155337Y-66230594D01*
X95168188Y-66233813D01*
X95180662Y-66238276D01*
X95192639Y-66243941D01*
X95204002Y-66250752D01*
X95214643Y-66258644D01*
X95224459Y-66267541D01*
X95233356Y-66277357D01*
X95241248Y-66287998D01*
X95248059Y-66299361D01*
X95253724Y-66311338D01*
X95258187Y-66323812D01*
X95261406Y-66336663D01*
X95263350Y-66349768D01*
X95264000Y-66363000D01*
X95264000Y-66733000D01*
X95263350Y-66746232D01*
X95261406Y-66759337D01*
X95258187Y-66772188D01*
X95253724Y-66784662D01*
X95248059Y-66796639D01*
X95241248Y-66808002D01*
X95233356Y-66818643D01*
X95224459Y-66828459D01*
X95214643Y-66837356D01*
X95204002Y-66845248D01*
X95192639Y-66852059D01*
X95180662Y-66857724D01*
X95168188Y-66862187D01*
X95155337Y-66865406D01*
X95142232Y-66867350D01*
X95129000Y-66868000D01*
X94859000Y-66868000D01*
X94845768Y-66867350D01*
X94832663Y-66865406D01*
X94819812Y-66862187D01*
X94807338Y-66857724D01*
X94795361Y-66852059D01*
X94783998Y-66845248D01*
X94773357Y-66837356D01*
X94763541Y-66828459D01*
X94754644Y-66818643D01*
X94746752Y-66808002D01*
X94739941Y-66796639D01*
X94734276Y-66784662D01*
X94729813Y-66772188D01*
X94726594Y-66759337D01*
X94724650Y-66746232D01*
X94724000Y-66733000D01*
X94724000Y-66363000D01*
X94724650Y-66349768D01*
X94726594Y-66336663D01*
X94729813Y-66323812D01*
X94734276Y-66311338D01*
X94739941Y-66299361D01*
X94746752Y-66287998D01*
X94754644Y-66277357D01*
X94763541Y-66267541D01*
X94773357Y-66258644D01*
X94783998Y-66250752D01*
X94795361Y-66243941D01*
X94807338Y-66238276D01*
X94819812Y-66233813D01*
X94832663Y-66230594D01*
X94845768Y-66228650D01*
X94859000Y-66228000D01*
X95129000Y-66228000D01*
X95142232Y-66228650D01*
G37*
G36*
X96162232Y-66228650D02*
G01*
X96175337Y-66230594D01*
X96188188Y-66233813D01*
X96200662Y-66238276D01*
X96212639Y-66243941D01*
X96224002Y-66250752D01*
X96234643Y-66258644D01*
X96244459Y-66267541D01*
X96253356Y-66277357D01*
X96261248Y-66287998D01*
X96268059Y-66299361D01*
X96273724Y-66311338D01*
X96278187Y-66323812D01*
X96281406Y-66336663D01*
X96283350Y-66349768D01*
X96284000Y-66363000D01*
X96284000Y-66733000D01*
X96283350Y-66746232D01*
X96281406Y-66759337D01*
X96278187Y-66772188D01*
X96273724Y-66784662D01*
X96268059Y-66796639D01*
X96261248Y-66808002D01*
X96253356Y-66818643D01*
X96244459Y-66828459D01*
X96234643Y-66837356D01*
X96224002Y-66845248D01*
X96212639Y-66852059D01*
X96200662Y-66857724D01*
X96188188Y-66862187D01*
X96175337Y-66865406D01*
X96162232Y-66867350D01*
X96149000Y-66868000D01*
X95879000Y-66868000D01*
X95865768Y-66867350D01*
X95852663Y-66865406D01*
X95839812Y-66862187D01*
X95827338Y-66857724D01*
X95815361Y-66852059D01*
X95803998Y-66845248D01*
X95793357Y-66837356D01*
X95783541Y-66828459D01*
X95774644Y-66818643D01*
X95766752Y-66808002D01*
X95759941Y-66796639D01*
X95754276Y-66784662D01*
X95749813Y-66772188D01*
X95746594Y-66759337D01*
X95744650Y-66746232D01*
X95744000Y-66733000D01*
X95744000Y-66363000D01*
X95744650Y-66349768D01*
X95746594Y-66336663D01*
X95749813Y-66323812D01*
X95754276Y-66311338D01*
X95759941Y-66299361D01*
X95766752Y-66287998D01*
X95774644Y-66277357D01*
X95783541Y-66267541D01*
X95793357Y-66258644D01*
X95803998Y-66250752D01*
X95815361Y-66243941D01*
X95827338Y-66238276D01*
X95839812Y-66233813D01*
X95852663Y-66230594D01*
X95865768Y-66228650D01*
X95879000Y-66228000D01*
X96149000Y-66228000D01*
X96162232Y-66228650D01*
G37*
G36*
X99210232Y-66228650D02*
G01*
X99223337Y-66230594D01*
X99236188Y-66233813D01*
X99248662Y-66238276D01*
X99260639Y-66243941D01*
X99272002Y-66250752D01*
X99282643Y-66258644D01*
X99292459Y-66267541D01*
X99301356Y-66277357D01*
X99309248Y-66287998D01*
X99316059Y-66299361D01*
X99321724Y-66311338D01*
X99326187Y-66323812D01*
X99329406Y-66336663D01*
X99331350Y-66349768D01*
X99332000Y-66363000D01*
X99332000Y-66733000D01*
X99331350Y-66746232D01*
X99329406Y-66759337D01*
X99326187Y-66772188D01*
X99321724Y-66784662D01*
X99316059Y-66796639D01*
X99309248Y-66808002D01*
X99301356Y-66818643D01*
X99292459Y-66828459D01*
X99282643Y-66837356D01*
X99272002Y-66845248D01*
X99260639Y-66852059D01*
X99248662Y-66857724D01*
X99236188Y-66862187D01*
X99223337Y-66865406D01*
X99210232Y-66867350D01*
X99197000Y-66868000D01*
X98927000Y-66868000D01*
X98913768Y-66867350D01*
X98900663Y-66865406D01*
X98887812Y-66862187D01*
X98875338Y-66857724D01*
X98863361Y-66852059D01*
X98851998Y-66845248D01*
X98841357Y-66837356D01*
X98831541Y-66828459D01*
X98822644Y-66818643D01*
X98814752Y-66808002D01*
X98807941Y-66796639D01*
X98802276Y-66784662D01*
X98797813Y-66772188D01*
X98794594Y-66759337D01*
X98792650Y-66746232D01*
X98792000Y-66733000D01*
X98792000Y-66363000D01*
X98792650Y-66349768D01*
X98794594Y-66336663D01*
X98797813Y-66323812D01*
X98802276Y-66311338D01*
X98807941Y-66299361D01*
X98814752Y-66287998D01*
X98822644Y-66277357D01*
X98831541Y-66267541D01*
X98841357Y-66258644D01*
X98851998Y-66250752D01*
X98863361Y-66243941D01*
X98875338Y-66238276D01*
X98887812Y-66233813D01*
X98900663Y-66230594D01*
X98913768Y-66228650D01*
X98927000Y-66228000D01*
X99197000Y-66228000D01*
X99210232Y-66228650D01*
G37*
G36*
X98190232Y-66228650D02*
G01*
X98203337Y-66230594D01*
X98216188Y-66233813D01*
X98228662Y-66238276D01*
X98240639Y-66243941D01*
X98252002Y-66250752D01*
X98262643Y-66258644D01*
X98272459Y-66267541D01*
X98281356Y-66277357D01*
X98289248Y-66287998D01*
X98296059Y-66299361D01*
X98301724Y-66311338D01*
X98306187Y-66323812D01*
X98309406Y-66336663D01*
X98311350Y-66349768D01*
X98312000Y-66363000D01*
X98312000Y-66733000D01*
X98311350Y-66746232D01*
X98309406Y-66759337D01*
X98306187Y-66772188D01*
X98301724Y-66784662D01*
X98296059Y-66796639D01*
X98289248Y-66808002D01*
X98281356Y-66818643D01*
X98272459Y-66828459D01*
X98262643Y-66837356D01*
X98252002Y-66845248D01*
X98240639Y-66852059D01*
X98228662Y-66857724D01*
X98216188Y-66862187D01*
X98203337Y-66865406D01*
X98190232Y-66867350D01*
X98177000Y-66868000D01*
X97907000Y-66868000D01*
X97893768Y-66867350D01*
X97880663Y-66865406D01*
X97867812Y-66862187D01*
X97855338Y-66857724D01*
X97843361Y-66852059D01*
X97831998Y-66845248D01*
X97821357Y-66837356D01*
X97811541Y-66828459D01*
X97802644Y-66818643D01*
X97794752Y-66808002D01*
X97787941Y-66796639D01*
X97782276Y-66784662D01*
X97777813Y-66772188D01*
X97774594Y-66759337D01*
X97772650Y-66746232D01*
X97772000Y-66733000D01*
X97772000Y-66363000D01*
X97772650Y-66349768D01*
X97774594Y-66336663D01*
X97777813Y-66323812D01*
X97782276Y-66311338D01*
X97787941Y-66299361D01*
X97794752Y-66287998D01*
X97802644Y-66277357D01*
X97811541Y-66267541D01*
X97821357Y-66258644D01*
X97831998Y-66250752D01*
X97843361Y-66243941D01*
X97855338Y-66238276D01*
X97867812Y-66233813D01*
X97880663Y-66230594D01*
X97893768Y-66228650D01*
X97907000Y-66228000D01*
X98177000Y-66228000D01*
X98190232Y-66228650D01*
G37*
G36*
X101240232Y-66228650D02*
G01*
X101253337Y-66230594D01*
X101266188Y-66233813D01*
X101278662Y-66238276D01*
X101290639Y-66243941D01*
X101302002Y-66250752D01*
X101312643Y-66258644D01*
X101322459Y-66267541D01*
X101331356Y-66277357D01*
X101339248Y-66287998D01*
X101346059Y-66299361D01*
X101351724Y-66311338D01*
X101356187Y-66323812D01*
X101359406Y-66336663D01*
X101361350Y-66349768D01*
X101362000Y-66363000D01*
X101362000Y-66733000D01*
X101361350Y-66746232D01*
X101359406Y-66759337D01*
X101356187Y-66772188D01*
X101351724Y-66784662D01*
X101346059Y-66796639D01*
X101339248Y-66808002D01*
X101331356Y-66818643D01*
X101322459Y-66828459D01*
X101312643Y-66837356D01*
X101302002Y-66845248D01*
X101290639Y-66852059D01*
X101278662Y-66857724D01*
X101266188Y-66862187D01*
X101253337Y-66865406D01*
X101240232Y-66867350D01*
X101227000Y-66868000D01*
X100957000Y-66868000D01*
X100943768Y-66867350D01*
X100930663Y-66865406D01*
X100917812Y-66862187D01*
X100905338Y-66857724D01*
X100893361Y-66852059D01*
X100881998Y-66845248D01*
X100871357Y-66837356D01*
X100861541Y-66828459D01*
X100852644Y-66818643D01*
X100844752Y-66808002D01*
X100837941Y-66796639D01*
X100832276Y-66784662D01*
X100827813Y-66772188D01*
X100824594Y-66759337D01*
X100822650Y-66746232D01*
X100822000Y-66733000D01*
X100822000Y-66363000D01*
X100822650Y-66349768D01*
X100824594Y-66336663D01*
X100827813Y-66323812D01*
X100832276Y-66311338D01*
X100837941Y-66299361D01*
X100844752Y-66287998D01*
X100852644Y-66277357D01*
X100861541Y-66267541D01*
X100871357Y-66258644D01*
X100881998Y-66250752D01*
X100893361Y-66243941D01*
X100905338Y-66238276D01*
X100917812Y-66233813D01*
X100930663Y-66230594D01*
X100943768Y-66228650D01*
X100957000Y-66228000D01*
X101227000Y-66228000D01*
X101240232Y-66228650D01*
G37*
G36*
X102260232Y-66228650D02*
G01*
X102273337Y-66230594D01*
X102286188Y-66233813D01*
X102298662Y-66238276D01*
X102310639Y-66243941D01*
X102322002Y-66250752D01*
X102332643Y-66258644D01*
X102342459Y-66267541D01*
X102351356Y-66277357D01*
X102359248Y-66287998D01*
X102366059Y-66299361D01*
X102371724Y-66311338D01*
X102376187Y-66323812D01*
X102379406Y-66336663D01*
X102381350Y-66349768D01*
X102382000Y-66363000D01*
X102382000Y-66733000D01*
X102381350Y-66746232D01*
X102379406Y-66759337D01*
X102376187Y-66772188D01*
X102371724Y-66784662D01*
X102366059Y-66796639D01*
X102359248Y-66808002D01*
X102351356Y-66818643D01*
X102342459Y-66828459D01*
X102332643Y-66837356D01*
X102322002Y-66845248D01*
X102310639Y-66852059D01*
X102298662Y-66857724D01*
X102286188Y-66862187D01*
X102273337Y-66865406D01*
X102260232Y-66867350D01*
X102247000Y-66868000D01*
X101977000Y-66868000D01*
X101963768Y-66867350D01*
X101950663Y-66865406D01*
X101937812Y-66862187D01*
X101925338Y-66857724D01*
X101913361Y-66852059D01*
X101901998Y-66845248D01*
X101891357Y-66837356D01*
X101881541Y-66828459D01*
X101872644Y-66818643D01*
X101864752Y-66808002D01*
X101857941Y-66796639D01*
X101852276Y-66784662D01*
X101847813Y-66772188D01*
X101844594Y-66759337D01*
X101842650Y-66746232D01*
X101842000Y-66733000D01*
X101842000Y-66363000D01*
X101842650Y-66349768D01*
X101844594Y-66336663D01*
X101847813Y-66323812D01*
X101852276Y-66311338D01*
X101857941Y-66299361D01*
X101864752Y-66287998D01*
X101872644Y-66277357D01*
X101881541Y-66267541D01*
X101891357Y-66258644D01*
X101901998Y-66250752D01*
X101913361Y-66243941D01*
X101925338Y-66238276D01*
X101937812Y-66233813D01*
X101950663Y-66230594D01*
X101963768Y-66228650D01*
X101977000Y-66228000D01*
X102247000Y-66228000D01*
X102260232Y-66228650D01*
G37*
G36*
X118512232Y-66228650D02*
G01*
X118525337Y-66230594D01*
X118538188Y-66233813D01*
X118550662Y-66238276D01*
X118562639Y-66243941D01*
X118574002Y-66250752D01*
X118584643Y-66258644D01*
X118594459Y-66267541D01*
X118603356Y-66277357D01*
X118611248Y-66287998D01*
X118618059Y-66299361D01*
X118623724Y-66311338D01*
X118628187Y-66323812D01*
X118631406Y-66336663D01*
X118633350Y-66349768D01*
X118634000Y-66363000D01*
X118634000Y-66733000D01*
X118633350Y-66746232D01*
X118631406Y-66759337D01*
X118628187Y-66772188D01*
X118623724Y-66784662D01*
X118618059Y-66796639D01*
X118611248Y-66808002D01*
X118603356Y-66818643D01*
X118594459Y-66828459D01*
X118584643Y-66837356D01*
X118574002Y-66845248D01*
X118562639Y-66852059D01*
X118550662Y-66857724D01*
X118538188Y-66862187D01*
X118525337Y-66865406D01*
X118512232Y-66867350D01*
X118499000Y-66868000D01*
X118229000Y-66868000D01*
X118215768Y-66867350D01*
X118202663Y-66865406D01*
X118189812Y-66862187D01*
X118177338Y-66857724D01*
X118165361Y-66852059D01*
X118153998Y-66845248D01*
X118143357Y-66837356D01*
X118133541Y-66828459D01*
X118124644Y-66818643D01*
X118116752Y-66808002D01*
X118109941Y-66796639D01*
X118104276Y-66784662D01*
X118099813Y-66772188D01*
X118096594Y-66759337D01*
X118094650Y-66746232D01*
X118094000Y-66733000D01*
X118094000Y-66363000D01*
X118094650Y-66349768D01*
X118096594Y-66336663D01*
X118099813Y-66323812D01*
X118104276Y-66311338D01*
X118109941Y-66299361D01*
X118116752Y-66287998D01*
X118124644Y-66277357D01*
X118133541Y-66267541D01*
X118143357Y-66258644D01*
X118153998Y-66250752D01*
X118165361Y-66243941D01*
X118177338Y-66238276D01*
X118189812Y-66233813D01*
X118202663Y-66230594D01*
X118215768Y-66228650D01*
X118229000Y-66228000D01*
X118499000Y-66228000D01*
X118512232Y-66228650D01*
G37*
G36*
X117492232Y-66228650D02*
G01*
X117505337Y-66230594D01*
X117518188Y-66233813D01*
X117530662Y-66238276D01*
X117542639Y-66243941D01*
X117554002Y-66250752D01*
X117564643Y-66258644D01*
X117574459Y-66267541D01*
X117583356Y-66277357D01*
X117591248Y-66287998D01*
X117598059Y-66299361D01*
X117603724Y-66311338D01*
X117608187Y-66323812D01*
X117611406Y-66336663D01*
X117613350Y-66349768D01*
X117614000Y-66363000D01*
X117614000Y-66733000D01*
X117613350Y-66746232D01*
X117611406Y-66759337D01*
X117608187Y-66772188D01*
X117603724Y-66784662D01*
X117598059Y-66796639D01*
X117591248Y-66808002D01*
X117583356Y-66818643D01*
X117574459Y-66828459D01*
X117564643Y-66837356D01*
X117554002Y-66845248D01*
X117542639Y-66852059D01*
X117530662Y-66857724D01*
X117518188Y-66862187D01*
X117505337Y-66865406D01*
X117492232Y-66867350D01*
X117479000Y-66868000D01*
X117209000Y-66868000D01*
X117195768Y-66867350D01*
X117182663Y-66865406D01*
X117169812Y-66862187D01*
X117157338Y-66857724D01*
X117145361Y-66852059D01*
X117133998Y-66845248D01*
X117123357Y-66837356D01*
X117113541Y-66828459D01*
X117104644Y-66818643D01*
X117096752Y-66808002D01*
X117089941Y-66796639D01*
X117084276Y-66784662D01*
X117079813Y-66772188D01*
X117076594Y-66759337D01*
X117074650Y-66746232D01*
X117074000Y-66733000D01*
X117074000Y-66363000D01*
X117074650Y-66349768D01*
X117076594Y-66336663D01*
X117079813Y-66323812D01*
X117084276Y-66311338D01*
X117089941Y-66299361D01*
X117096752Y-66287998D01*
X117104644Y-66277357D01*
X117113541Y-66267541D01*
X117123357Y-66258644D01*
X117133998Y-66250752D01*
X117145361Y-66243941D01*
X117157338Y-66238276D01*
X117169812Y-66233813D01*
X117182663Y-66230594D01*
X117195768Y-66228650D01*
X117209000Y-66228000D01*
X117479000Y-66228000D01*
X117492232Y-66228650D01*
G37*
G36*
X121562232Y-66228650D02*
G01*
X121575337Y-66230594D01*
X121588188Y-66233813D01*
X121600662Y-66238276D01*
X121612639Y-66243941D01*
X121624002Y-66250752D01*
X121634643Y-66258644D01*
X121644459Y-66267541D01*
X121653356Y-66277357D01*
X121661248Y-66287998D01*
X121668059Y-66299361D01*
X121673724Y-66311338D01*
X121678187Y-66323812D01*
X121681406Y-66336663D01*
X121683350Y-66349768D01*
X121684000Y-66363000D01*
X121684000Y-66733000D01*
X121683350Y-66746232D01*
X121681406Y-66759337D01*
X121678187Y-66772188D01*
X121673724Y-66784662D01*
X121668059Y-66796639D01*
X121661248Y-66808002D01*
X121653356Y-66818643D01*
X121644459Y-66828459D01*
X121634643Y-66837356D01*
X121624002Y-66845248D01*
X121612639Y-66852059D01*
X121600662Y-66857724D01*
X121588188Y-66862187D01*
X121575337Y-66865406D01*
X121562232Y-66867350D01*
X121549000Y-66868000D01*
X121279000Y-66868000D01*
X121265768Y-66867350D01*
X121252663Y-66865406D01*
X121239812Y-66862187D01*
X121227338Y-66857724D01*
X121215361Y-66852059D01*
X121203998Y-66845248D01*
X121193357Y-66837356D01*
X121183541Y-66828459D01*
X121174644Y-66818643D01*
X121166752Y-66808002D01*
X121159941Y-66796639D01*
X121154276Y-66784662D01*
X121149813Y-66772188D01*
X121146594Y-66759337D01*
X121144650Y-66746232D01*
X121144000Y-66733000D01*
X121144000Y-66363000D01*
X121144650Y-66349768D01*
X121146594Y-66336663D01*
X121149813Y-66323812D01*
X121154276Y-66311338D01*
X121159941Y-66299361D01*
X121166752Y-66287998D01*
X121174644Y-66277357D01*
X121183541Y-66267541D01*
X121193357Y-66258644D01*
X121203998Y-66250752D01*
X121215361Y-66243941D01*
X121227338Y-66238276D01*
X121239812Y-66233813D01*
X121252663Y-66230594D01*
X121265768Y-66228650D01*
X121279000Y-66228000D01*
X121549000Y-66228000D01*
X121562232Y-66228650D01*
G37*
G36*
X120542232Y-66228650D02*
G01*
X120555337Y-66230594D01*
X120568188Y-66233813D01*
X120580662Y-66238276D01*
X120592639Y-66243941D01*
X120604002Y-66250752D01*
X120614643Y-66258644D01*
X120624459Y-66267541D01*
X120633356Y-66277357D01*
X120641248Y-66287998D01*
X120648059Y-66299361D01*
X120653724Y-66311338D01*
X120658187Y-66323812D01*
X120661406Y-66336663D01*
X120663350Y-66349768D01*
X120664000Y-66363000D01*
X120664000Y-66733000D01*
X120663350Y-66746232D01*
X120661406Y-66759337D01*
X120658187Y-66772188D01*
X120653724Y-66784662D01*
X120648059Y-66796639D01*
X120641248Y-66808002D01*
X120633356Y-66818643D01*
X120624459Y-66828459D01*
X120614643Y-66837356D01*
X120604002Y-66845248D01*
X120592639Y-66852059D01*
X120580662Y-66857724D01*
X120568188Y-66862187D01*
X120555337Y-66865406D01*
X120542232Y-66867350D01*
X120529000Y-66868000D01*
X120259000Y-66868000D01*
X120245768Y-66867350D01*
X120232663Y-66865406D01*
X120219812Y-66862187D01*
X120207338Y-66857724D01*
X120195361Y-66852059D01*
X120183998Y-66845248D01*
X120173357Y-66837356D01*
X120163541Y-66828459D01*
X120154644Y-66818643D01*
X120146752Y-66808002D01*
X120139941Y-66796639D01*
X120134276Y-66784662D01*
X120129813Y-66772188D01*
X120126594Y-66759337D01*
X120124650Y-66746232D01*
X120124000Y-66733000D01*
X120124000Y-66363000D01*
X120124650Y-66349768D01*
X120126594Y-66336663D01*
X120129813Y-66323812D01*
X120134276Y-66311338D01*
X120139941Y-66299361D01*
X120146752Y-66287998D01*
X120154644Y-66277357D01*
X120163541Y-66267541D01*
X120173357Y-66258644D01*
X120183998Y-66250752D01*
X120195361Y-66243941D01*
X120207338Y-66238276D01*
X120219812Y-66233813D01*
X120232663Y-66230594D01*
X120245768Y-66228650D01*
X120259000Y-66228000D01*
X120529000Y-66228000D01*
X120542232Y-66228650D01*
G37*
G36*
X124610232Y-66228650D02*
G01*
X124623337Y-66230594D01*
X124636188Y-66233813D01*
X124648662Y-66238276D01*
X124660639Y-66243941D01*
X124672002Y-66250752D01*
X124682643Y-66258644D01*
X124692459Y-66267541D01*
X124701356Y-66277357D01*
X124709248Y-66287998D01*
X124716059Y-66299361D01*
X124721724Y-66311338D01*
X124726187Y-66323812D01*
X124729406Y-66336663D01*
X124731350Y-66349768D01*
X124732000Y-66363000D01*
X124732000Y-66733000D01*
X124731350Y-66746232D01*
X124729406Y-66759337D01*
X124726187Y-66772188D01*
X124721724Y-66784662D01*
X124716059Y-66796639D01*
X124709248Y-66808002D01*
X124701356Y-66818643D01*
X124692459Y-66828459D01*
X124682643Y-66837356D01*
X124672002Y-66845248D01*
X124660639Y-66852059D01*
X124648662Y-66857724D01*
X124636188Y-66862187D01*
X124623337Y-66865406D01*
X124610232Y-66867350D01*
X124597000Y-66868000D01*
X124327000Y-66868000D01*
X124313768Y-66867350D01*
X124300663Y-66865406D01*
X124287812Y-66862187D01*
X124275338Y-66857724D01*
X124263361Y-66852059D01*
X124251998Y-66845248D01*
X124241357Y-66837356D01*
X124231541Y-66828459D01*
X124222644Y-66818643D01*
X124214752Y-66808002D01*
X124207941Y-66796639D01*
X124202276Y-66784662D01*
X124197813Y-66772188D01*
X124194594Y-66759337D01*
X124192650Y-66746232D01*
X124192000Y-66733000D01*
X124192000Y-66363000D01*
X124192650Y-66349768D01*
X124194594Y-66336663D01*
X124197813Y-66323812D01*
X124202276Y-66311338D01*
X124207941Y-66299361D01*
X124214752Y-66287998D01*
X124222644Y-66277357D01*
X124231541Y-66267541D01*
X124241357Y-66258644D01*
X124251998Y-66250752D01*
X124263361Y-66243941D01*
X124275338Y-66238276D01*
X124287812Y-66233813D01*
X124300663Y-66230594D01*
X124313768Y-66228650D01*
X124327000Y-66228000D01*
X124597000Y-66228000D01*
X124610232Y-66228650D01*
G37*
G36*
X123590232Y-66228650D02*
G01*
X123603337Y-66230594D01*
X123616188Y-66233813D01*
X123628662Y-66238276D01*
X123640639Y-66243941D01*
X123652002Y-66250752D01*
X123662643Y-66258644D01*
X123672459Y-66267541D01*
X123681356Y-66277357D01*
X123689248Y-66287998D01*
X123696059Y-66299361D01*
X123701724Y-66311338D01*
X123706187Y-66323812D01*
X123709406Y-66336663D01*
X123711350Y-66349768D01*
X123712000Y-66363000D01*
X123712000Y-66733000D01*
X123711350Y-66746232D01*
X123709406Y-66759337D01*
X123706187Y-66772188D01*
X123701724Y-66784662D01*
X123696059Y-66796639D01*
X123689248Y-66808002D01*
X123681356Y-66818643D01*
X123672459Y-66828459D01*
X123662643Y-66837356D01*
X123652002Y-66845248D01*
X123640639Y-66852059D01*
X123628662Y-66857724D01*
X123616188Y-66862187D01*
X123603337Y-66865406D01*
X123590232Y-66867350D01*
X123577000Y-66868000D01*
X123307000Y-66868000D01*
X123293768Y-66867350D01*
X123280663Y-66865406D01*
X123267812Y-66862187D01*
X123255338Y-66857724D01*
X123243361Y-66852059D01*
X123231998Y-66845248D01*
X123221357Y-66837356D01*
X123211541Y-66828459D01*
X123202644Y-66818643D01*
X123194752Y-66808002D01*
X123187941Y-66796639D01*
X123182276Y-66784662D01*
X123177813Y-66772188D01*
X123174594Y-66759337D01*
X123172650Y-66746232D01*
X123172000Y-66733000D01*
X123172000Y-66363000D01*
X123172650Y-66349768D01*
X123174594Y-66336663D01*
X123177813Y-66323812D01*
X123182276Y-66311338D01*
X123187941Y-66299361D01*
X123194752Y-66287998D01*
X123202644Y-66277357D01*
X123211541Y-66267541D01*
X123221357Y-66258644D01*
X123231998Y-66250752D01*
X123243361Y-66243941D01*
X123255338Y-66238276D01*
X123267812Y-66233813D01*
X123280663Y-66230594D01*
X123293768Y-66228650D01*
X123307000Y-66228000D01*
X123577000Y-66228000D01*
X123590232Y-66228650D01*
G37*
G36*
X127658232Y-66228650D02*
G01*
X127671337Y-66230594D01*
X127684188Y-66233813D01*
X127696662Y-66238276D01*
X127708639Y-66243941D01*
X127720002Y-66250752D01*
X127730643Y-66258644D01*
X127740459Y-66267541D01*
X127749356Y-66277357D01*
X127757248Y-66287998D01*
X127764059Y-66299361D01*
X127769724Y-66311338D01*
X127774187Y-66323812D01*
X127777406Y-66336663D01*
X127779350Y-66349768D01*
X127780000Y-66363000D01*
X127780000Y-66733000D01*
X127779350Y-66746232D01*
X127777406Y-66759337D01*
X127774187Y-66772188D01*
X127769724Y-66784662D01*
X127764059Y-66796639D01*
X127757248Y-66808002D01*
X127749356Y-66818643D01*
X127740459Y-66828459D01*
X127730643Y-66837356D01*
X127720002Y-66845248D01*
X127708639Y-66852059D01*
X127696662Y-66857724D01*
X127684188Y-66862187D01*
X127671337Y-66865406D01*
X127658232Y-66867350D01*
X127645000Y-66868000D01*
X127375000Y-66868000D01*
X127361768Y-66867350D01*
X127348663Y-66865406D01*
X127335812Y-66862187D01*
X127323338Y-66857724D01*
X127311361Y-66852059D01*
X127299998Y-66845248D01*
X127289357Y-66837356D01*
X127279541Y-66828459D01*
X127270644Y-66818643D01*
X127262752Y-66808002D01*
X127255941Y-66796639D01*
X127250276Y-66784662D01*
X127245813Y-66772188D01*
X127242594Y-66759337D01*
X127240650Y-66746232D01*
X127240000Y-66733000D01*
X127240000Y-66363000D01*
X127240650Y-66349768D01*
X127242594Y-66336663D01*
X127245813Y-66323812D01*
X127250276Y-66311338D01*
X127255941Y-66299361D01*
X127262752Y-66287998D01*
X127270644Y-66277357D01*
X127279541Y-66267541D01*
X127289357Y-66258644D01*
X127299998Y-66250752D01*
X127311361Y-66243941D01*
X127323338Y-66238276D01*
X127335812Y-66233813D01*
X127348663Y-66230594D01*
X127361768Y-66228650D01*
X127375000Y-66228000D01*
X127645000Y-66228000D01*
X127658232Y-66228650D01*
G37*
G36*
X126638232Y-66228650D02*
G01*
X126651337Y-66230594D01*
X126664188Y-66233813D01*
X126676662Y-66238276D01*
X126688639Y-66243941D01*
X126700002Y-66250752D01*
X126710643Y-66258644D01*
X126720459Y-66267541D01*
X126729356Y-66277357D01*
X126737248Y-66287998D01*
X126744059Y-66299361D01*
X126749724Y-66311338D01*
X126754187Y-66323812D01*
X126757406Y-66336663D01*
X126759350Y-66349768D01*
X126760000Y-66363000D01*
X126760000Y-66733000D01*
X126759350Y-66746232D01*
X126757406Y-66759337D01*
X126754187Y-66772188D01*
X126749724Y-66784662D01*
X126744059Y-66796639D01*
X126737248Y-66808002D01*
X126729356Y-66818643D01*
X126720459Y-66828459D01*
X126710643Y-66837356D01*
X126700002Y-66845248D01*
X126688639Y-66852059D01*
X126676662Y-66857724D01*
X126664188Y-66862187D01*
X126651337Y-66865406D01*
X126638232Y-66867350D01*
X126625000Y-66868000D01*
X126355000Y-66868000D01*
X126341768Y-66867350D01*
X126328663Y-66865406D01*
X126315812Y-66862187D01*
X126303338Y-66857724D01*
X126291361Y-66852059D01*
X126279998Y-66845248D01*
X126269357Y-66837356D01*
X126259541Y-66828459D01*
X126250644Y-66818643D01*
X126242752Y-66808002D01*
X126235941Y-66796639D01*
X126230276Y-66784662D01*
X126225813Y-66772188D01*
X126222594Y-66759337D01*
X126220650Y-66746232D01*
X126220000Y-66733000D01*
X126220000Y-66363000D01*
X126220650Y-66349768D01*
X126222594Y-66336663D01*
X126225813Y-66323812D01*
X126230276Y-66311338D01*
X126235941Y-66299361D01*
X126242752Y-66287998D01*
X126250644Y-66277357D01*
X126259541Y-66267541D01*
X126269357Y-66258644D01*
X126279998Y-66250752D01*
X126291361Y-66243941D01*
X126303338Y-66238276D01*
X126315812Y-66233813D01*
X126328663Y-66230594D01*
X126341768Y-66228650D01*
X126355000Y-66228000D01*
X126625000Y-66228000D01*
X126638232Y-66228650D01*
G37*
G36*
X142892232Y-66228650D02*
G01*
X142905337Y-66230594D01*
X142918188Y-66233813D01*
X142930662Y-66238276D01*
X142942639Y-66243941D01*
X142954002Y-66250752D01*
X142964643Y-66258644D01*
X142974459Y-66267541D01*
X142983356Y-66277357D01*
X142991248Y-66287998D01*
X142998059Y-66299361D01*
X143003724Y-66311338D01*
X143008187Y-66323812D01*
X143011406Y-66336663D01*
X143013350Y-66349768D01*
X143014000Y-66363000D01*
X143014000Y-66733000D01*
X143013350Y-66746232D01*
X143011406Y-66759337D01*
X143008187Y-66772188D01*
X143003724Y-66784662D01*
X142998059Y-66796639D01*
X142991248Y-66808002D01*
X142983356Y-66818643D01*
X142974459Y-66828459D01*
X142964643Y-66837356D01*
X142954002Y-66845248D01*
X142942639Y-66852059D01*
X142930662Y-66857724D01*
X142918188Y-66862187D01*
X142905337Y-66865406D01*
X142892232Y-66867350D01*
X142879000Y-66868000D01*
X142609000Y-66868000D01*
X142595768Y-66867350D01*
X142582663Y-66865406D01*
X142569812Y-66862187D01*
X142557338Y-66857724D01*
X142545361Y-66852059D01*
X142533998Y-66845248D01*
X142523357Y-66837356D01*
X142513541Y-66828459D01*
X142504644Y-66818643D01*
X142496752Y-66808002D01*
X142489941Y-66796639D01*
X142484276Y-66784662D01*
X142479813Y-66772188D01*
X142476594Y-66759337D01*
X142474650Y-66746232D01*
X142474000Y-66733000D01*
X142474000Y-66363000D01*
X142474650Y-66349768D01*
X142476594Y-66336663D01*
X142479813Y-66323812D01*
X142484276Y-66311338D01*
X142489941Y-66299361D01*
X142496752Y-66287998D01*
X142504644Y-66277357D01*
X142513541Y-66267541D01*
X142523357Y-66258644D01*
X142533998Y-66250752D01*
X142545361Y-66243941D01*
X142557338Y-66238276D01*
X142569812Y-66233813D01*
X142582663Y-66230594D01*
X142595768Y-66228650D01*
X142609000Y-66228000D01*
X142879000Y-66228000D01*
X142892232Y-66228650D01*
G37*
G36*
X143912232Y-66228650D02*
G01*
X143925337Y-66230594D01*
X143938188Y-66233813D01*
X143950662Y-66238276D01*
X143962639Y-66243941D01*
X143974002Y-66250752D01*
X143984643Y-66258644D01*
X143994459Y-66267541D01*
X144003356Y-66277357D01*
X144011248Y-66287998D01*
X144018059Y-66299361D01*
X144023724Y-66311338D01*
X144028187Y-66323812D01*
X144031406Y-66336663D01*
X144033350Y-66349768D01*
X144034000Y-66363000D01*
X144034000Y-66733000D01*
X144033350Y-66746232D01*
X144031406Y-66759337D01*
X144028187Y-66772188D01*
X144023724Y-66784662D01*
X144018059Y-66796639D01*
X144011248Y-66808002D01*
X144003356Y-66818643D01*
X143994459Y-66828459D01*
X143984643Y-66837356D01*
X143974002Y-66845248D01*
X143962639Y-66852059D01*
X143950662Y-66857724D01*
X143938188Y-66862187D01*
X143925337Y-66865406D01*
X143912232Y-66867350D01*
X143899000Y-66868000D01*
X143629000Y-66868000D01*
X143615768Y-66867350D01*
X143602663Y-66865406D01*
X143589812Y-66862187D01*
X143577338Y-66857724D01*
X143565361Y-66852059D01*
X143553998Y-66845248D01*
X143543357Y-66837356D01*
X143533541Y-66828459D01*
X143524644Y-66818643D01*
X143516752Y-66808002D01*
X143509941Y-66796639D01*
X143504276Y-66784662D01*
X143499813Y-66772188D01*
X143496594Y-66759337D01*
X143494650Y-66746232D01*
X143494000Y-66733000D01*
X143494000Y-66363000D01*
X143494650Y-66349768D01*
X143496594Y-66336663D01*
X143499813Y-66323812D01*
X143504276Y-66311338D01*
X143509941Y-66299361D01*
X143516752Y-66287998D01*
X143524644Y-66277357D01*
X143533541Y-66267541D01*
X143543357Y-66258644D01*
X143553998Y-66250752D01*
X143565361Y-66243941D01*
X143577338Y-66238276D01*
X143589812Y-66233813D01*
X143602663Y-66230594D01*
X143615768Y-66228650D01*
X143629000Y-66228000D01*
X143899000Y-66228000D01*
X143912232Y-66228650D01*
G37*
G36*
X146962232Y-66228650D02*
G01*
X146975337Y-66230594D01*
X146988188Y-66233813D01*
X147000662Y-66238276D01*
X147012639Y-66243941D01*
X147024002Y-66250752D01*
X147034643Y-66258644D01*
X147044459Y-66267541D01*
X147053356Y-66277357D01*
X147061248Y-66287998D01*
X147068059Y-66299361D01*
X147073724Y-66311338D01*
X147078187Y-66323812D01*
X147081406Y-66336663D01*
X147083350Y-66349768D01*
X147084000Y-66363000D01*
X147084000Y-66733000D01*
X147083350Y-66746232D01*
X147081406Y-66759337D01*
X147078187Y-66772188D01*
X147073724Y-66784662D01*
X147068059Y-66796639D01*
X147061248Y-66808002D01*
X147053356Y-66818643D01*
X147044459Y-66828459D01*
X147034643Y-66837356D01*
X147024002Y-66845248D01*
X147012639Y-66852059D01*
X147000662Y-66857724D01*
X146988188Y-66862187D01*
X146975337Y-66865406D01*
X146962232Y-66867350D01*
X146949000Y-66868000D01*
X146679000Y-66868000D01*
X146665768Y-66867350D01*
X146652663Y-66865406D01*
X146639812Y-66862187D01*
X146627338Y-66857724D01*
X146615361Y-66852059D01*
X146603998Y-66845248D01*
X146593357Y-66837356D01*
X146583541Y-66828459D01*
X146574644Y-66818643D01*
X146566752Y-66808002D01*
X146559941Y-66796639D01*
X146554276Y-66784662D01*
X146549813Y-66772188D01*
X146546594Y-66759337D01*
X146544650Y-66746232D01*
X146544000Y-66733000D01*
X146544000Y-66363000D01*
X146544650Y-66349768D01*
X146546594Y-66336663D01*
X146549813Y-66323812D01*
X146554276Y-66311338D01*
X146559941Y-66299361D01*
X146566752Y-66287998D01*
X146574644Y-66277357D01*
X146583541Y-66267541D01*
X146593357Y-66258644D01*
X146603998Y-66250752D01*
X146615361Y-66243941D01*
X146627338Y-66238276D01*
X146639812Y-66233813D01*
X146652663Y-66230594D01*
X146665768Y-66228650D01*
X146679000Y-66228000D01*
X146949000Y-66228000D01*
X146962232Y-66228650D01*
G37*
G36*
X145942232Y-66228650D02*
G01*
X145955337Y-66230594D01*
X145968188Y-66233813D01*
X145980662Y-66238276D01*
X145992639Y-66243941D01*
X146004002Y-66250752D01*
X146014643Y-66258644D01*
X146024459Y-66267541D01*
X146033356Y-66277357D01*
X146041248Y-66287998D01*
X146048059Y-66299361D01*
X146053724Y-66311338D01*
X146058187Y-66323812D01*
X146061406Y-66336663D01*
X146063350Y-66349768D01*
X146064000Y-66363000D01*
X146064000Y-66733000D01*
X146063350Y-66746232D01*
X146061406Y-66759337D01*
X146058187Y-66772188D01*
X146053724Y-66784662D01*
X146048059Y-66796639D01*
X146041248Y-66808002D01*
X146033356Y-66818643D01*
X146024459Y-66828459D01*
X146014643Y-66837356D01*
X146004002Y-66845248D01*
X145992639Y-66852059D01*
X145980662Y-66857724D01*
X145968188Y-66862187D01*
X145955337Y-66865406D01*
X145942232Y-66867350D01*
X145929000Y-66868000D01*
X145659000Y-66868000D01*
X145645768Y-66867350D01*
X145632663Y-66865406D01*
X145619812Y-66862187D01*
X145607338Y-66857724D01*
X145595361Y-66852059D01*
X145583998Y-66845248D01*
X145573357Y-66837356D01*
X145563541Y-66828459D01*
X145554644Y-66818643D01*
X145546752Y-66808002D01*
X145539941Y-66796639D01*
X145534276Y-66784662D01*
X145529813Y-66772188D01*
X145526594Y-66759337D01*
X145524650Y-66746232D01*
X145524000Y-66733000D01*
X145524000Y-66363000D01*
X145524650Y-66349768D01*
X145526594Y-66336663D01*
X145529813Y-66323812D01*
X145534276Y-66311338D01*
X145539941Y-66299361D01*
X145546752Y-66287998D01*
X145554644Y-66277357D01*
X145563541Y-66267541D01*
X145573357Y-66258644D01*
X145583998Y-66250752D01*
X145595361Y-66243941D01*
X145607338Y-66238276D01*
X145619812Y-66233813D01*
X145632663Y-66230594D01*
X145645768Y-66228650D01*
X145659000Y-66228000D01*
X145929000Y-66228000D01*
X145942232Y-66228650D01*
G37*
G36*
X148988232Y-66228650D02*
G01*
X149001337Y-66230594D01*
X149014188Y-66233813D01*
X149026662Y-66238276D01*
X149038639Y-66243941D01*
X149050002Y-66250752D01*
X149060643Y-66258644D01*
X149070459Y-66267541D01*
X149079356Y-66277357D01*
X149087248Y-66287998D01*
X149094059Y-66299361D01*
X149099724Y-66311338D01*
X149104187Y-66323812D01*
X149107406Y-66336663D01*
X149109350Y-66349768D01*
X149110000Y-66363000D01*
X149110000Y-66733000D01*
X149109350Y-66746232D01*
X149107406Y-66759337D01*
X149104187Y-66772188D01*
X149099724Y-66784662D01*
X149094059Y-66796639D01*
X149087248Y-66808002D01*
X149079356Y-66818643D01*
X149070459Y-66828459D01*
X149060643Y-66837356D01*
X149050002Y-66845248D01*
X149038639Y-66852059D01*
X149026662Y-66857724D01*
X149014188Y-66862187D01*
X149001337Y-66865406D01*
X148988232Y-66867350D01*
X148975000Y-66868000D01*
X148705000Y-66868000D01*
X148691768Y-66867350D01*
X148678663Y-66865406D01*
X148665812Y-66862187D01*
X148653338Y-66857724D01*
X148641361Y-66852059D01*
X148629998Y-66845248D01*
X148619357Y-66837356D01*
X148609541Y-66828459D01*
X148600644Y-66818643D01*
X148592752Y-66808002D01*
X148585941Y-66796639D01*
X148580276Y-66784662D01*
X148575813Y-66772188D01*
X148572594Y-66759337D01*
X148570650Y-66746232D01*
X148570000Y-66733000D01*
X148570000Y-66363000D01*
X148570650Y-66349768D01*
X148572594Y-66336663D01*
X148575813Y-66323812D01*
X148580276Y-66311338D01*
X148585941Y-66299361D01*
X148592752Y-66287998D01*
X148600644Y-66277357D01*
X148609541Y-66267541D01*
X148619357Y-66258644D01*
X148629998Y-66250752D01*
X148641361Y-66243941D01*
X148653338Y-66238276D01*
X148665812Y-66233813D01*
X148678663Y-66230594D01*
X148691768Y-66228650D01*
X148705000Y-66228000D01*
X148975000Y-66228000D01*
X148988232Y-66228650D01*
G37*
G36*
X150008232Y-66228650D02*
G01*
X150021337Y-66230594D01*
X150034188Y-66233813D01*
X150046662Y-66238276D01*
X150058639Y-66243941D01*
X150070002Y-66250752D01*
X150080643Y-66258644D01*
X150090459Y-66267541D01*
X150099356Y-66277357D01*
X150107248Y-66287998D01*
X150114059Y-66299361D01*
X150119724Y-66311338D01*
X150124187Y-66323812D01*
X150127406Y-66336663D01*
X150129350Y-66349768D01*
X150130000Y-66363000D01*
X150130000Y-66733000D01*
X150129350Y-66746232D01*
X150127406Y-66759337D01*
X150124187Y-66772188D01*
X150119724Y-66784662D01*
X150114059Y-66796639D01*
X150107248Y-66808002D01*
X150099356Y-66818643D01*
X150090459Y-66828459D01*
X150080643Y-66837356D01*
X150070002Y-66845248D01*
X150058639Y-66852059D01*
X150046662Y-66857724D01*
X150034188Y-66862187D01*
X150021337Y-66865406D01*
X150008232Y-66867350D01*
X149995000Y-66868000D01*
X149725000Y-66868000D01*
X149711768Y-66867350D01*
X149698663Y-66865406D01*
X149685812Y-66862187D01*
X149673338Y-66857724D01*
X149661361Y-66852059D01*
X149649998Y-66845248D01*
X149639357Y-66837356D01*
X149629541Y-66828459D01*
X149620644Y-66818643D01*
X149612752Y-66808002D01*
X149605941Y-66796639D01*
X149600276Y-66784662D01*
X149595813Y-66772188D01*
X149592594Y-66759337D01*
X149590650Y-66746232D01*
X149590000Y-66733000D01*
X149590000Y-66363000D01*
X149590650Y-66349768D01*
X149592594Y-66336663D01*
X149595813Y-66323812D01*
X149600276Y-66311338D01*
X149605941Y-66299361D01*
X149612752Y-66287998D01*
X149620644Y-66277357D01*
X149629541Y-66267541D01*
X149639357Y-66258644D01*
X149649998Y-66250752D01*
X149661361Y-66243941D01*
X149673338Y-66238276D01*
X149685812Y-66233813D01*
X149698663Y-66230594D01*
X149711768Y-66228650D01*
X149725000Y-66228000D01*
X149995000Y-66228000D01*
X150008232Y-66228650D01*
G37*
G36*
X153056232Y-66228650D02*
G01*
X153069337Y-66230594D01*
X153082188Y-66233813D01*
X153094662Y-66238276D01*
X153106639Y-66243941D01*
X153118002Y-66250752D01*
X153128643Y-66258644D01*
X153138459Y-66267541D01*
X153147356Y-66277357D01*
X153155248Y-66287998D01*
X153162059Y-66299361D01*
X153167724Y-66311338D01*
X153172187Y-66323812D01*
X153175406Y-66336663D01*
X153177350Y-66349768D01*
X153178000Y-66363000D01*
X153178000Y-66733000D01*
X153177350Y-66746232D01*
X153175406Y-66759337D01*
X153172187Y-66772188D01*
X153167724Y-66784662D01*
X153162059Y-66796639D01*
X153155248Y-66808002D01*
X153147356Y-66818643D01*
X153138459Y-66828459D01*
X153128643Y-66837356D01*
X153118002Y-66845248D01*
X153106639Y-66852059D01*
X153094662Y-66857724D01*
X153082188Y-66862187D01*
X153069337Y-66865406D01*
X153056232Y-66867350D01*
X153043000Y-66868000D01*
X152773000Y-66868000D01*
X152759768Y-66867350D01*
X152746663Y-66865406D01*
X152733812Y-66862187D01*
X152721338Y-66857724D01*
X152709361Y-66852059D01*
X152697998Y-66845248D01*
X152687357Y-66837356D01*
X152677541Y-66828459D01*
X152668644Y-66818643D01*
X152660752Y-66808002D01*
X152653941Y-66796639D01*
X152648276Y-66784662D01*
X152643813Y-66772188D01*
X152640594Y-66759337D01*
X152638650Y-66746232D01*
X152638000Y-66733000D01*
X152638000Y-66363000D01*
X152638650Y-66349768D01*
X152640594Y-66336663D01*
X152643813Y-66323812D01*
X152648276Y-66311338D01*
X152653941Y-66299361D01*
X152660752Y-66287998D01*
X152668644Y-66277357D01*
X152677541Y-66267541D01*
X152687357Y-66258644D01*
X152697998Y-66250752D01*
X152709361Y-66243941D01*
X152721338Y-66238276D01*
X152733812Y-66233813D01*
X152746663Y-66230594D01*
X152759768Y-66228650D01*
X152773000Y-66228000D01*
X153043000Y-66228000D01*
X153056232Y-66228650D01*
G37*
G36*
X152036232Y-66228650D02*
G01*
X152049337Y-66230594D01*
X152062188Y-66233813D01*
X152074662Y-66238276D01*
X152086639Y-66243941D01*
X152098002Y-66250752D01*
X152108643Y-66258644D01*
X152118459Y-66267541D01*
X152127356Y-66277357D01*
X152135248Y-66287998D01*
X152142059Y-66299361D01*
X152147724Y-66311338D01*
X152152187Y-66323812D01*
X152155406Y-66336663D01*
X152157350Y-66349768D01*
X152158000Y-66363000D01*
X152158000Y-66733000D01*
X152157350Y-66746232D01*
X152155406Y-66759337D01*
X152152187Y-66772188D01*
X152147724Y-66784662D01*
X152142059Y-66796639D01*
X152135248Y-66808002D01*
X152127356Y-66818643D01*
X152118459Y-66828459D01*
X152108643Y-66837356D01*
X152098002Y-66845248D01*
X152086639Y-66852059D01*
X152074662Y-66857724D01*
X152062188Y-66862187D01*
X152049337Y-66865406D01*
X152036232Y-66867350D01*
X152023000Y-66868000D01*
X151753000Y-66868000D01*
X151739768Y-66867350D01*
X151726663Y-66865406D01*
X151713812Y-66862187D01*
X151701338Y-66857724D01*
X151689361Y-66852059D01*
X151677998Y-66845248D01*
X151667357Y-66837356D01*
X151657541Y-66828459D01*
X151648644Y-66818643D01*
X151640752Y-66808002D01*
X151633941Y-66796639D01*
X151628276Y-66784662D01*
X151623813Y-66772188D01*
X151620594Y-66759337D01*
X151618650Y-66746232D01*
X151618000Y-66733000D01*
X151618000Y-66363000D01*
X151618650Y-66349768D01*
X151620594Y-66336663D01*
X151623813Y-66323812D01*
X151628276Y-66311338D01*
X151633941Y-66299361D01*
X151640752Y-66287998D01*
X151648644Y-66277357D01*
X151657541Y-66267541D01*
X151667357Y-66258644D01*
X151677998Y-66250752D01*
X151689361Y-66243941D01*
X151701338Y-66238276D01*
X151713812Y-66233813D01*
X151726663Y-66230594D01*
X151739768Y-66228650D01*
X151753000Y-66228000D01*
X152023000Y-66228000D01*
X152036232Y-66228650D01*
G37*
G36*
X156102232Y-66228650D02*
G01*
X156115337Y-66230594D01*
X156128188Y-66233813D01*
X156140662Y-66238276D01*
X156152639Y-66243941D01*
X156164002Y-66250752D01*
X156174643Y-66258644D01*
X156184459Y-66267541D01*
X156193356Y-66277357D01*
X156201248Y-66287998D01*
X156208059Y-66299361D01*
X156213724Y-66311338D01*
X156218187Y-66323812D01*
X156221406Y-66336663D01*
X156223350Y-66349768D01*
X156224000Y-66363000D01*
X156224000Y-66733000D01*
X156223350Y-66746232D01*
X156221406Y-66759337D01*
X156218187Y-66772188D01*
X156213724Y-66784662D01*
X156208059Y-66796639D01*
X156201248Y-66808002D01*
X156193356Y-66818643D01*
X156184459Y-66828459D01*
X156174643Y-66837356D01*
X156164002Y-66845248D01*
X156152639Y-66852059D01*
X156140662Y-66857724D01*
X156128188Y-66862187D01*
X156115337Y-66865406D01*
X156102232Y-66867350D01*
X156089000Y-66868000D01*
X155819000Y-66868000D01*
X155805768Y-66867350D01*
X155792663Y-66865406D01*
X155779812Y-66862187D01*
X155767338Y-66857724D01*
X155755361Y-66852059D01*
X155743998Y-66845248D01*
X155733357Y-66837356D01*
X155723541Y-66828459D01*
X155714644Y-66818643D01*
X155706752Y-66808002D01*
X155699941Y-66796639D01*
X155694276Y-66784662D01*
X155689813Y-66772188D01*
X155686594Y-66759337D01*
X155684650Y-66746232D01*
X155684000Y-66733000D01*
X155684000Y-66363000D01*
X155684650Y-66349768D01*
X155686594Y-66336663D01*
X155689813Y-66323812D01*
X155694276Y-66311338D01*
X155699941Y-66299361D01*
X155706752Y-66287998D01*
X155714644Y-66277357D01*
X155723541Y-66267541D01*
X155733357Y-66258644D01*
X155743998Y-66250752D01*
X155755361Y-66243941D01*
X155767338Y-66238276D01*
X155779812Y-66233813D01*
X155792663Y-66230594D01*
X155805768Y-66228650D01*
X155819000Y-66228000D01*
X156089000Y-66228000D01*
X156102232Y-66228650D01*
G37*
G36*
X157122232Y-66228650D02*
G01*
X157135337Y-66230594D01*
X157148188Y-66233813D01*
X157160662Y-66238276D01*
X157172639Y-66243941D01*
X157184002Y-66250752D01*
X157194643Y-66258644D01*
X157204459Y-66267541D01*
X157213356Y-66277357D01*
X157221248Y-66287998D01*
X157228059Y-66299361D01*
X157233724Y-66311338D01*
X157238187Y-66323812D01*
X157241406Y-66336663D01*
X157243350Y-66349768D01*
X157244000Y-66363000D01*
X157244000Y-66733000D01*
X157243350Y-66746232D01*
X157241406Y-66759337D01*
X157238187Y-66772188D01*
X157233724Y-66784662D01*
X157228059Y-66796639D01*
X157221248Y-66808002D01*
X157213356Y-66818643D01*
X157204459Y-66828459D01*
X157194643Y-66837356D01*
X157184002Y-66845248D01*
X157172639Y-66852059D01*
X157160662Y-66857724D01*
X157148188Y-66862187D01*
X157135337Y-66865406D01*
X157122232Y-66867350D01*
X157109000Y-66868000D01*
X156839000Y-66868000D01*
X156825768Y-66867350D01*
X156812663Y-66865406D01*
X156799812Y-66862187D01*
X156787338Y-66857724D01*
X156775361Y-66852059D01*
X156763998Y-66845248D01*
X156753357Y-66837356D01*
X156743541Y-66828459D01*
X156734644Y-66818643D01*
X156726752Y-66808002D01*
X156719941Y-66796639D01*
X156714276Y-66784662D01*
X156709813Y-66772188D01*
X156706594Y-66759337D01*
X156704650Y-66746232D01*
X156704000Y-66733000D01*
X156704000Y-66363000D01*
X156704650Y-66349768D01*
X156706594Y-66336663D01*
X156709813Y-66323812D01*
X156714276Y-66311338D01*
X156719941Y-66299361D01*
X156726752Y-66287998D01*
X156734644Y-66277357D01*
X156743541Y-66267541D01*
X156753357Y-66258644D01*
X156763998Y-66250752D01*
X156775361Y-66243941D01*
X156787338Y-66238276D01*
X156799812Y-66233813D01*
X156812663Y-66230594D01*
X156825768Y-66228650D01*
X156839000Y-66228000D01*
X157109000Y-66228000D01*
X157122232Y-66228650D01*
G37*
M02*
