G04 #@! TF.GenerationSoftware,KiCad,Pcbnew,(5.1.5)-3*
G04 #@! TF.CreationDate,2021-09-14T22:43:20-07:00*
G04 #@! TF.ProjectId,_autosave-Adapter,5f617574-6f73-4617-9665-2d4164617074,rev?*
G04 #@! TF.SameCoordinates,Original*
G04 #@! TF.FileFunction,Soldermask,Top*
G04 #@! TF.FilePolarity,Negative*
%FSLAX46Y46*%
G04 Gerber Fmt 4.6, Leading zero omitted, Abs format (unit mm)*
G04 Created by KiCad (PCBNEW (5.1.5)-3) date 2021-09-14 22:43:20*
%MOMM*%
%LPD*%
G04 APERTURE LIST*
%ADD10C,0.100000*%
G04 APERTURE END LIST*
D10*
G36*
X153541591Y-87679085D02*
G01*
X153575569Y-87689393D01*
X153606890Y-87706134D01*
X153634339Y-87728661D01*
X153656866Y-87756110D01*
X153673607Y-87787431D01*
X153683915Y-87821409D01*
X153688000Y-87862890D01*
X153688000Y-88464110D01*
X153683915Y-88505591D01*
X153673607Y-88539569D01*
X153656866Y-88570890D01*
X153634339Y-88598339D01*
X153606890Y-88620866D01*
X153575569Y-88637607D01*
X153541591Y-88647915D01*
X153500110Y-88652000D01*
X152823890Y-88652000D01*
X152782409Y-88647915D01*
X152748431Y-88637607D01*
X152717110Y-88620866D01*
X152689661Y-88598339D01*
X152667134Y-88570890D01*
X152650393Y-88539569D01*
X152640085Y-88505591D01*
X152636000Y-88464110D01*
X152636000Y-87862890D01*
X152640085Y-87821409D01*
X152650393Y-87787431D01*
X152667134Y-87756110D01*
X152689661Y-87728661D01*
X152717110Y-87706134D01*
X152748431Y-87689393D01*
X152782409Y-87679085D01*
X152823890Y-87675000D01*
X153500110Y-87675000D01*
X153541591Y-87679085D01*
G37*
G36*
X143381591Y-87679085D02*
G01*
X143415569Y-87689393D01*
X143446890Y-87706134D01*
X143474339Y-87728661D01*
X143496866Y-87756110D01*
X143513607Y-87787431D01*
X143523915Y-87821409D01*
X143528000Y-87862890D01*
X143528000Y-88464110D01*
X143523915Y-88505591D01*
X143513607Y-88539569D01*
X143496866Y-88570890D01*
X143474339Y-88598339D01*
X143446890Y-88620866D01*
X143415569Y-88637607D01*
X143381591Y-88647915D01*
X143340110Y-88652000D01*
X142663890Y-88652000D01*
X142622409Y-88647915D01*
X142588431Y-88637607D01*
X142557110Y-88620866D01*
X142529661Y-88598339D01*
X142507134Y-88570890D01*
X142490393Y-88539569D01*
X142480085Y-88505591D01*
X142476000Y-88464110D01*
X142476000Y-87862890D01*
X142480085Y-87821409D01*
X142490393Y-87787431D01*
X142507134Y-87756110D01*
X142529661Y-87728661D01*
X142557110Y-87706134D01*
X142588431Y-87689393D01*
X142622409Y-87679085D01*
X142663890Y-87675000D01*
X143340110Y-87675000D01*
X143381591Y-87679085D01*
G37*
G36*
X127633591Y-87679085D02*
G01*
X127667569Y-87689393D01*
X127698890Y-87706134D01*
X127726339Y-87728661D01*
X127748866Y-87756110D01*
X127765607Y-87787431D01*
X127775915Y-87821409D01*
X127780000Y-87862890D01*
X127780000Y-88464110D01*
X127775915Y-88505591D01*
X127765607Y-88539569D01*
X127748866Y-88570890D01*
X127726339Y-88598339D01*
X127698890Y-88620866D01*
X127667569Y-88637607D01*
X127633591Y-88647915D01*
X127592110Y-88652000D01*
X126915890Y-88652000D01*
X126874409Y-88647915D01*
X126840431Y-88637607D01*
X126809110Y-88620866D01*
X126781661Y-88598339D01*
X126759134Y-88570890D01*
X126742393Y-88539569D01*
X126732085Y-88505591D01*
X126728000Y-88464110D01*
X126728000Y-87862890D01*
X126732085Y-87821409D01*
X126742393Y-87787431D01*
X126759134Y-87756110D01*
X126781661Y-87728661D01*
X126809110Y-87706134D01*
X126840431Y-87689393D01*
X126874409Y-87679085D01*
X126915890Y-87675000D01*
X127592110Y-87675000D01*
X127633591Y-87679085D01*
G37*
G36*
X102741591Y-87679085D02*
G01*
X102775569Y-87689393D01*
X102806890Y-87706134D01*
X102834339Y-87728661D01*
X102856866Y-87756110D01*
X102873607Y-87787431D01*
X102883915Y-87821409D01*
X102888000Y-87862890D01*
X102888000Y-88464110D01*
X102883915Y-88505591D01*
X102873607Y-88539569D01*
X102856866Y-88570890D01*
X102834339Y-88598339D01*
X102806890Y-88620866D01*
X102775569Y-88637607D01*
X102741591Y-88647915D01*
X102700110Y-88652000D01*
X102023890Y-88652000D01*
X101982409Y-88647915D01*
X101948431Y-88637607D01*
X101917110Y-88620866D01*
X101889661Y-88598339D01*
X101867134Y-88570890D01*
X101850393Y-88539569D01*
X101840085Y-88505591D01*
X101836000Y-88464110D01*
X101836000Y-87862890D01*
X101840085Y-87821409D01*
X101850393Y-87787431D01*
X101867134Y-87756110D01*
X101889661Y-87728661D01*
X101917110Y-87706134D01*
X101948431Y-87689393D01*
X101982409Y-87679085D01*
X102023890Y-87675000D01*
X102700110Y-87675000D01*
X102741591Y-87679085D01*
G37*
G36*
X77341591Y-87679085D02*
G01*
X77375569Y-87689393D01*
X77406890Y-87706134D01*
X77434339Y-87728661D01*
X77456866Y-87756110D01*
X77473607Y-87787431D01*
X77483915Y-87821409D01*
X77488000Y-87862890D01*
X77488000Y-88464110D01*
X77483915Y-88505591D01*
X77473607Y-88539569D01*
X77456866Y-88570890D01*
X77434339Y-88598339D01*
X77406890Y-88620866D01*
X77375569Y-88637607D01*
X77341591Y-88647915D01*
X77300110Y-88652000D01*
X76623890Y-88652000D01*
X76582409Y-88647915D01*
X76548431Y-88637607D01*
X76517110Y-88620866D01*
X76489661Y-88598339D01*
X76467134Y-88570890D01*
X76450393Y-88539569D01*
X76440085Y-88505591D01*
X76436000Y-88464110D01*
X76436000Y-87862890D01*
X76440085Y-87821409D01*
X76450393Y-87787431D01*
X76467134Y-87756110D01*
X76489661Y-87728661D01*
X76517110Y-87706134D01*
X76548431Y-87689393D01*
X76582409Y-87679085D01*
X76623890Y-87675000D01*
X77300110Y-87675000D01*
X77341591Y-87679085D01*
G37*
G36*
X122045591Y-87679085D02*
G01*
X122079569Y-87689393D01*
X122110890Y-87706134D01*
X122138339Y-87728661D01*
X122160866Y-87756110D01*
X122177607Y-87787431D01*
X122187915Y-87821409D01*
X122192000Y-87862890D01*
X122192000Y-88464110D01*
X122187915Y-88505591D01*
X122177607Y-88539569D01*
X122160866Y-88570890D01*
X122138339Y-88598339D01*
X122110890Y-88620866D01*
X122079569Y-88637607D01*
X122045591Y-88647915D01*
X122004110Y-88652000D01*
X121327890Y-88652000D01*
X121286409Y-88647915D01*
X121252431Y-88637607D01*
X121221110Y-88620866D01*
X121193661Y-88598339D01*
X121171134Y-88570890D01*
X121154393Y-88539569D01*
X121144085Y-88505591D01*
X121140000Y-88464110D01*
X121140000Y-87862890D01*
X121144085Y-87821409D01*
X121154393Y-87787431D01*
X121171134Y-87756110D01*
X121193661Y-87728661D01*
X121221110Y-87706134D01*
X121252431Y-87689393D01*
X121286409Y-87679085D01*
X121327890Y-87675000D01*
X122004110Y-87675000D01*
X122045591Y-87679085D01*
G37*
G36*
X97661591Y-87679085D02*
G01*
X97695569Y-87689393D01*
X97726890Y-87706134D01*
X97754339Y-87728661D01*
X97776866Y-87756110D01*
X97793607Y-87787431D01*
X97803915Y-87821409D01*
X97808000Y-87862890D01*
X97808000Y-88464110D01*
X97803915Y-88505591D01*
X97793607Y-88539569D01*
X97776866Y-88570890D01*
X97754339Y-88598339D01*
X97726890Y-88620866D01*
X97695569Y-88637607D01*
X97661591Y-88647915D01*
X97620110Y-88652000D01*
X96943890Y-88652000D01*
X96902409Y-88647915D01*
X96868431Y-88637607D01*
X96837110Y-88620866D01*
X96809661Y-88598339D01*
X96787134Y-88570890D01*
X96770393Y-88539569D01*
X96760085Y-88505591D01*
X96756000Y-88464110D01*
X96756000Y-87862890D01*
X96760085Y-87821409D01*
X96770393Y-87787431D01*
X96787134Y-87756110D01*
X96809661Y-87728661D01*
X96837110Y-87706134D01*
X96868431Y-87689393D01*
X96902409Y-87679085D01*
X96943890Y-87675000D01*
X97620110Y-87675000D01*
X97661591Y-87679085D01*
G37*
G36*
X72769591Y-87679085D02*
G01*
X72803569Y-87689393D01*
X72834890Y-87706134D01*
X72862339Y-87728661D01*
X72884866Y-87756110D01*
X72901607Y-87787431D01*
X72911915Y-87821409D01*
X72916000Y-87862890D01*
X72916000Y-88464110D01*
X72911915Y-88505591D01*
X72901607Y-88539569D01*
X72884866Y-88570890D01*
X72862339Y-88598339D01*
X72834890Y-88620866D01*
X72803569Y-88637607D01*
X72769591Y-88647915D01*
X72728110Y-88652000D01*
X72051890Y-88652000D01*
X72010409Y-88647915D01*
X71976431Y-88637607D01*
X71945110Y-88620866D01*
X71917661Y-88598339D01*
X71895134Y-88570890D01*
X71878393Y-88539569D01*
X71868085Y-88505591D01*
X71864000Y-88464110D01*
X71864000Y-87862890D01*
X71868085Y-87821409D01*
X71878393Y-87787431D01*
X71895134Y-87756110D01*
X71917661Y-87728661D01*
X71945110Y-87706134D01*
X71976431Y-87689393D01*
X72010409Y-87679085D01*
X72051890Y-87675000D01*
X72728110Y-87675000D01*
X72769591Y-87679085D01*
G37*
G36*
X148461591Y-87679085D02*
G01*
X148495569Y-87689393D01*
X148526890Y-87706134D01*
X148554339Y-87728661D01*
X148576866Y-87756110D01*
X148593607Y-87787431D01*
X148603915Y-87821409D01*
X148608000Y-87862890D01*
X148608000Y-88464110D01*
X148603915Y-88505591D01*
X148593607Y-88539569D01*
X148576866Y-88570890D01*
X148554339Y-88598339D01*
X148526890Y-88620866D01*
X148495569Y-88637607D01*
X148461591Y-88647915D01*
X148420110Y-88652000D01*
X147743890Y-88652000D01*
X147702409Y-88647915D01*
X147668431Y-88637607D01*
X147637110Y-88620866D01*
X147609661Y-88598339D01*
X147587134Y-88570890D01*
X147570393Y-88539569D01*
X147560085Y-88505591D01*
X147556000Y-88464110D01*
X147556000Y-87862890D01*
X147560085Y-87821409D01*
X147570393Y-87787431D01*
X147587134Y-87756110D01*
X147609661Y-87728661D01*
X147637110Y-87706134D01*
X147668431Y-87689393D01*
X147702409Y-87679085D01*
X147743890Y-87675000D01*
X148420110Y-87675000D01*
X148461591Y-87679085D01*
G37*
G36*
X93089591Y-87679085D02*
G01*
X93123569Y-87689393D01*
X93154890Y-87706134D01*
X93182339Y-87728661D01*
X93204866Y-87756110D01*
X93221607Y-87787431D01*
X93231915Y-87821409D01*
X93236000Y-87862890D01*
X93236000Y-88464110D01*
X93231915Y-88505591D01*
X93221607Y-88539569D01*
X93204866Y-88570890D01*
X93182339Y-88598339D01*
X93154890Y-88620866D01*
X93123569Y-88637607D01*
X93089591Y-88647915D01*
X93048110Y-88652000D01*
X92371890Y-88652000D01*
X92330409Y-88647915D01*
X92296431Y-88637607D01*
X92265110Y-88620866D01*
X92237661Y-88598339D01*
X92215134Y-88570890D01*
X92198393Y-88539569D01*
X92188085Y-88505591D01*
X92184000Y-88464110D01*
X92184000Y-87862890D01*
X92188085Y-87821409D01*
X92198393Y-87787431D01*
X92215134Y-87756110D01*
X92237661Y-87728661D01*
X92265110Y-87706134D01*
X92296431Y-87689393D01*
X92330409Y-87679085D01*
X92371890Y-87675000D01*
X93048110Y-87675000D01*
X93089591Y-87679085D01*
G37*
G36*
X67689591Y-87679085D02*
G01*
X67723569Y-87689393D01*
X67754890Y-87706134D01*
X67782339Y-87728661D01*
X67804866Y-87756110D01*
X67821607Y-87787431D01*
X67831915Y-87821409D01*
X67836000Y-87862890D01*
X67836000Y-88464110D01*
X67831915Y-88505591D01*
X67821607Y-88539569D01*
X67804866Y-88570890D01*
X67782339Y-88598339D01*
X67754890Y-88620866D01*
X67723569Y-88637607D01*
X67689591Y-88647915D01*
X67648110Y-88652000D01*
X66971890Y-88652000D01*
X66930409Y-88647915D01*
X66896431Y-88637607D01*
X66865110Y-88620866D01*
X66837661Y-88598339D01*
X66815134Y-88570890D01*
X66798393Y-88539569D01*
X66788085Y-88505591D01*
X66784000Y-88464110D01*
X66784000Y-87862890D01*
X66788085Y-87821409D01*
X66798393Y-87787431D01*
X66815134Y-87756110D01*
X66837661Y-87728661D01*
X66865110Y-87706134D01*
X66896431Y-87689393D01*
X66930409Y-87679085D01*
X66971890Y-87675000D01*
X67648110Y-87675000D01*
X67689591Y-87679085D01*
G37*
G36*
X138301591Y-87679085D02*
G01*
X138335569Y-87689393D01*
X138366890Y-87706134D01*
X138394339Y-87728661D01*
X138416866Y-87756110D01*
X138433607Y-87787431D01*
X138443915Y-87821409D01*
X138448000Y-87862890D01*
X138448000Y-88464110D01*
X138443915Y-88505591D01*
X138433607Y-88539569D01*
X138416866Y-88570890D01*
X138394339Y-88598339D01*
X138366890Y-88620866D01*
X138335569Y-88637607D01*
X138301591Y-88647915D01*
X138260110Y-88652000D01*
X137583890Y-88652000D01*
X137542409Y-88647915D01*
X137508431Y-88637607D01*
X137477110Y-88620866D01*
X137449661Y-88598339D01*
X137427134Y-88570890D01*
X137410393Y-88539569D01*
X137400085Y-88505591D01*
X137396000Y-88464110D01*
X137396000Y-87862890D01*
X137400085Y-87821409D01*
X137410393Y-87787431D01*
X137427134Y-87756110D01*
X137449661Y-87728661D01*
X137477110Y-87706134D01*
X137508431Y-87689393D01*
X137542409Y-87679085D01*
X137583890Y-87675000D01*
X138260110Y-87675000D01*
X138301591Y-87679085D01*
G37*
G36*
X112393591Y-87679085D02*
G01*
X112427569Y-87689393D01*
X112458890Y-87706134D01*
X112486339Y-87728661D01*
X112508866Y-87756110D01*
X112525607Y-87787431D01*
X112535915Y-87821409D01*
X112540000Y-87862890D01*
X112540000Y-88464110D01*
X112535915Y-88505591D01*
X112525607Y-88539569D01*
X112508866Y-88570890D01*
X112486339Y-88598339D01*
X112458890Y-88620866D01*
X112427569Y-88637607D01*
X112393591Y-88647915D01*
X112352110Y-88652000D01*
X111675890Y-88652000D01*
X111634409Y-88647915D01*
X111600431Y-88637607D01*
X111569110Y-88620866D01*
X111541661Y-88598339D01*
X111519134Y-88570890D01*
X111502393Y-88539569D01*
X111492085Y-88505591D01*
X111488000Y-88464110D01*
X111488000Y-87862890D01*
X111492085Y-87821409D01*
X111502393Y-87787431D01*
X111519134Y-87756110D01*
X111541661Y-87728661D01*
X111569110Y-87706134D01*
X111600431Y-87689393D01*
X111634409Y-87679085D01*
X111675890Y-87675000D01*
X112352110Y-87675000D01*
X112393591Y-87679085D01*
G37*
G36*
X88009591Y-87679085D02*
G01*
X88043569Y-87689393D01*
X88074890Y-87706134D01*
X88102339Y-87728661D01*
X88124866Y-87756110D01*
X88141607Y-87787431D01*
X88151915Y-87821409D01*
X88156000Y-87862890D01*
X88156000Y-88464110D01*
X88151915Y-88505591D01*
X88141607Y-88539569D01*
X88124866Y-88570890D01*
X88102339Y-88598339D01*
X88074890Y-88620866D01*
X88043569Y-88637607D01*
X88009591Y-88647915D01*
X87968110Y-88652000D01*
X87291890Y-88652000D01*
X87250409Y-88647915D01*
X87216431Y-88637607D01*
X87185110Y-88620866D01*
X87157661Y-88598339D01*
X87135134Y-88570890D01*
X87118393Y-88539569D01*
X87108085Y-88505591D01*
X87104000Y-88464110D01*
X87104000Y-87862890D01*
X87108085Y-87821409D01*
X87118393Y-87787431D01*
X87135134Y-87756110D01*
X87157661Y-87728661D01*
X87185110Y-87706134D01*
X87216431Y-87689393D01*
X87250409Y-87679085D01*
X87291890Y-87675000D01*
X87968110Y-87675000D01*
X88009591Y-87679085D01*
G37*
G36*
X62101591Y-87679085D02*
G01*
X62135569Y-87689393D01*
X62166890Y-87706134D01*
X62194339Y-87728661D01*
X62216866Y-87756110D01*
X62233607Y-87787431D01*
X62243915Y-87821409D01*
X62248000Y-87862890D01*
X62248000Y-88464110D01*
X62243915Y-88505591D01*
X62233607Y-88539569D01*
X62216866Y-88570890D01*
X62194339Y-88598339D01*
X62166890Y-88620866D01*
X62135569Y-88637607D01*
X62101591Y-88647915D01*
X62060110Y-88652000D01*
X61383890Y-88652000D01*
X61342409Y-88647915D01*
X61308431Y-88637607D01*
X61277110Y-88620866D01*
X61249661Y-88598339D01*
X61227134Y-88570890D01*
X61210393Y-88539569D01*
X61200085Y-88505591D01*
X61196000Y-88464110D01*
X61196000Y-87862890D01*
X61200085Y-87821409D01*
X61210393Y-87787431D01*
X61227134Y-87756110D01*
X61249661Y-87728661D01*
X61277110Y-87706134D01*
X61308431Y-87689393D01*
X61342409Y-87679085D01*
X61383890Y-87675000D01*
X62060110Y-87675000D01*
X62101591Y-87679085D01*
G37*
G36*
X117473591Y-87679085D02*
G01*
X117507569Y-87689393D01*
X117538890Y-87706134D01*
X117566339Y-87728661D01*
X117588866Y-87756110D01*
X117605607Y-87787431D01*
X117615915Y-87821409D01*
X117620000Y-87862890D01*
X117620000Y-88464110D01*
X117615915Y-88505591D01*
X117605607Y-88539569D01*
X117588866Y-88570890D01*
X117566339Y-88598339D01*
X117538890Y-88620866D01*
X117507569Y-88637607D01*
X117473591Y-88647915D01*
X117432110Y-88652000D01*
X116755890Y-88652000D01*
X116714409Y-88647915D01*
X116680431Y-88637607D01*
X116649110Y-88620866D01*
X116621661Y-88598339D01*
X116599134Y-88570890D01*
X116582393Y-88539569D01*
X116572085Y-88505591D01*
X116568000Y-88464110D01*
X116568000Y-87862890D01*
X116572085Y-87821409D01*
X116582393Y-87787431D01*
X116599134Y-87756110D01*
X116621661Y-87728661D01*
X116649110Y-87706134D01*
X116680431Y-87689393D01*
X116714409Y-87679085D01*
X116755890Y-87675000D01*
X117432110Y-87675000D01*
X117473591Y-87679085D01*
G37*
G36*
X143381591Y-86104085D02*
G01*
X143415569Y-86114393D01*
X143446890Y-86131134D01*
X143474339Y-86153661D01*
X143496866Y-86181110D01*
X143513607Y-86212431D01*
X143523915Y-86246409D01*
X143528000Y-86287890D01*
X143528000Y-86889110D01*
X143523915Y-86930591D01*
X143513607Y-86964569D01*
X143496866Y-86995890D01*
X143474339Y-87023339D01*
X143446890Y-87045866D01*
X143415569Y-87062607D01*
X143381591Y-87072915D01*
X143340110Y-87077000D01*
X142663890Y-87077000D01*
X142622409Y-87072915D01*
X142588431Y-87062607D01*
X142557110Y-87045866D01*
X142529661Y-87023339D01*
X142507134Y-86995890D01*
X142490393Y-86964569D01*
X142480085Y-86930591D01*
X142476000Y-86889110D01*
X142476000Y-86287890D01*
X142480085Y-86246409D01*
X142490393Y-86212431D01*
X142507134Y-86181110D01*
X142529661Y-86153661D01*
X142557110Y-86131134D01*
X142588431Y-86114393D01*
X142622409Y-86104085D01*
X142663890Y-86100000D01*
X143340110Y-86100000D01*
X143381591Y-86104085D01*
G37*
G36*
X127633591Y-86104085D02*
G01*
X127667569Y-86114393D01*
X127698890Y-86131134D01*
X127726339Y-86153661D01*
X127748866Y-86181110D01*
X127765607Y-86212431D01*
X127775915Y-86246409D01*
X127780000Y-86287890D01*
X127780000Y-86889110D01*
X127775915Y-86930591D01*
X127765607Y-86964569D01*
X127748866Y-86995890D01*
X127726339Y-87023339D01*
X127698890Y-87045866D01*
X127667569Y-87062607D01*
X127633591Y-87072915D01*
X127592110Y-87077000D01*
X126915890Y-87077000D01*
X126874409Y-87072915D01*
X126840431Y-87062607D01*
X126809110Y-87045866D01*
X126781661Y-87023339D01*
X126759134Y-86995890D01*
X126742393Y-86964569D01*
X126732085Y-86930591D01*
X126728000Y-86889110D01*
X126728000Y-86287890D01*
X126732085Y-86246409D01*
X126742393Y-86212431D01*
X126759134Y-86181110D01*
X126781661Y-86153661D01*
X126809110Y-86131134D01*
X126840431Y-86114393D01*
X126874409Y-86104085D01*
X126915890Y-86100000D01*
X127592110Y-86100000D01*
X127633591Y-86104085D01*
G37*
G36*
X102741591Y-86104085D02*
G01*
X102775569Y-86114393D01*
X102806890Y-86131134D01*
X102834339Y-86153661D01*
X102856866Y-86181110D01*
X102873607Y-86212431D01*
X102883915Y-86246409D01*
X102888000Y-86287890D01*
X102888000Y-86889110D01*
X102883915Y-86930591D01*
X102873607Y-86964569D01*
X102856866Y-86995890D01*
X102834339Y-87023339D01*
X102806890Y-87045866D01*
X102775569Y-87062607D01*
X102741591Y-87072915D01*
X102700110Y-87077000D01*
X102023890Y-87077000D01*
X101982409Y-87072915D01*
X101948431Y-87062607D01*
X101917110Y-87045866D01*
X101889661Y-87023339D01*
X101867134Y-86995890D01*
X101850393Y-86964569D01*
X101840085Y-86930591D01*
X101836000Y-86889110D01*
X101836000Y-86287890D01*
X101840085Y-86246409D01*
X101850393Y-86212431D01*
X101867134Y-86181110D01*
X101889661Y-86153661D01*
X101917110Y-86131134D01*
X101948431Y-86114393D01*
X101982409Y-86104085D01*
X102023890Y-86100000D01*
X102700110Y-86100000D01*
X102741591Y-86104085D01*
G37*
G36*
X77341591Y-86104085D02*
G01*
X77375569Y-86114393D01*
X77406890Y-86131134D01*
X77434339Y-86153661D01*
X77456866Y-86181110D01*
X77473607Y-86212431D01*
X77483915Y-86246409D01*
X77488000Y-86287890D01*
X77488000Y-86889110D01*
X77483915Y-86930591D01*
X77473607Y-86964569D01*
X77456866Y-86995890D01*
X77434339Y-87023339D01*
X77406890Y-87045866D01*
X77375569Y-87062607D01*
X77341591Y-87072915D01*
X77300110Y-87077000D01*
X76623890Y-87077000D01*
X76582409Y-87072915D01*
X76548431Y-87062607D01*
X76517110Y-87045866D01*
X76489661Y-87023339D01*
X76467134Y-86995890D01*
X76450393Y-86964569D01*
X76440085Y-86930591D01*
X76436000Y-86889110D01*
X76436000Y-86287890D01*
X76440085Y-86246409D01*
X76450393Y-86212431D01*
X76467134Y-86181110D01*
X76489661Y-86153661D01*
X76517110Y-86131134D01*
X76548431Y-86114393D01*
X76582409Y-86104085D01*
X76623890Y-86100000D01*
X77300110Y-86100000D01*
X77341591Y-86104085D01*
G37*
G36*
X148461591Y-86104085D02*
G01*
X148495569Y-86114393D01*
X148526890Y-86131134D01*
X148554339Y-86153661D01*
X148576866Y-86181110D01*
X148593607Y-86212431D01*
X148603915Y-86246409D01*
X148608000Y-86287890D01*
X148608000Y-86889110D01*
X148603915Y-86930591D01*
X148593607Y-86964569D01*
X148576866Y-86995890D01*
X148554339Y-87023339D01*
X148526890Y-87045866D01*
X148495569Y-87062607D01*
X148461591Y-87072915D01*
X148420110Y-87077000D01*
X147743890Y-87077000D01*
X147702409Y-87072915D01*
X147668431Y-87062607D01*
X147637110Y-87045866D01*
X147609661Y-87023339D01*
X147587134Y-86995890D01*
X147570393Y-86964569D01*
X147560085Y-86930591D01*
X147556000Y-86889110D01*
X147556000Y-86287890D01*
X147560085Y-86246409D01*
X147570393Y-86212431D01*
X147587134Y-86181110D01*
X147609661Y-86153661D01*
X147637110Y-86131134D01*
X147668431Y-86114393D01*
X147702409Y-86104085D01*
X147743890Y-86100000D01*
X148420110Y-86100000D01*
X148461591Y-86104085D01*
G37*
G36*
X122045591Y-86104085D02*
G01*
X122079569Y-86114393D01*
X122110890Y-86131134D01*
X122138339Y-86153661D01*
X122160866Y-86181110D01*
X122177607Y-86212431D01*
X122187915Y-86246409D01*
X122192000Y-86287890D01*
X122192000Y-86889110D01*
X122187915Y-86930591D01*
X122177607Y-86964569D01*
X122160866Y-86995890D01*
X122138339Y-87023339D01*
X122110890Y-87045866D01*
X122079569Y-87062607D01*
X122045591Y-87072915D01*
X122004110Y-87077000D01*
X121327890Y-87077000D01*
X121286409Y-87072915D01*
X121252431Y-87062607D01*
X121221110Y-87045866D01*
X121193661Y-87023339D01*
X121171134Y-86995890D01*
X121154393Y-86964569D01*
X121144085Y-86930591D01*
X121140000Y-86889110D01*
X121140000Y-86287890D01*
X121144085Y-86246409D01*
X121154393Y-86212431D01*
X121171134Y-86181110D01*
X121193661Y-86153661D01*
X121221110Y-86131134D01*
X121252431Y-86114393D01*
X121286409Y-86104085D01*
X121327890Y-86100000D01*
X122004110Y-86100000D01*
X122045591Y-86104085D01*
G37*
G36*
X97661591Y-86104085D02*
G01*
X97695569Y-86114393D01*
X97726890Y-86131134D01*
X97754339Y-86153661D01*
X97776866Y-86181110D01*
X97793607Y-86212431D01*
X97803915Y-86246409D01*
X97808000Y-86287890D01*
X97808000Y-86889110D01*
X97803915Y-86930591D01*
X97793607Y-86964569D01*
X97776866Y-86995890D01*
X97754339Y-87023339D01*
X97726890Y-87045866D01*
X97695569Y-87062607D01*
X97661591Y-87072915D01*
X97620110Y-87077000D01*
X96943890Y-87077000D01*
X96902409Y-87072915D01*
X96868431Y-87062607D01*
X96837110Y-87045866D01*
X96809661Y-87023339D01*
X96787134Y-86995890D01*
X96770393Y-86964569D01*
X96760085Y-86930591D01*
X96756000Y-86889110D01*
X96756000Y-86287890D01*
X96760085Y-86246409D01*
X96770393Y-86212431D01*
X96787134Y-86181110D01*
X96809661Y-86153661D01*
X96837110Y-86131134D01*
X96868431Y-86114393D01*
X96902409Y-86104085D01*
X96943890Y-86100000D01*
X97620110Y-86100000D01*
X97661591Y-86104085D01*
G37*
G36*
X153541591Y-86104085D02*
G01*
X153575569Y-86114393D01*
X153606890Y-86131134D01*
X153634339Y-86153661D01*
X153656866Y-86181110D01*
X153673607Y-86212431D01*
X153683915Y-86246409D01*
X153688000Y-86287890D01*
X153688000Y-86889110D01*
X153683915Y-86930591D01*
X153673607Y-86964569D01*
X153656866Y-86995890D01*
X153634339Y-87023339D01*
X153606890Y-87045866D01*
X153575569Y-87062607D01*
X153541591Y-87072915D01*
X153500110Y-87077000D01*
X152823890Y-87077000D01*
X152782409Y-87072915D01*
X152748431Y-87062607D01*
X152717110Y-87045866D01*
X152689661Y-87023339D01*
X152667134Y-86995890D01*
X152650393Y-86964569D01*
X152640085Y-86930591D01*
X152636000Y-86889110D01*
X152636000Y-86287890D01*
X152640085Y-86246409D01*
X152650393Y-86212431D01*
X152667134Y-86181110D01*
X152689661Y-86153661D01*
X152717110Y-86131134D01*
X152748431Y-86114393D01*
X152782409Y-86104085D01*
X152823890Y-86100000D01*
X153500110Y-86100000D01*
X153541591Y-86104085D01*
G37*
G36*
X117473591Y-86104085D02*
G01*
X117507569Y-86114393D01*
X117538890Y-86131134D01*
X117566339Y-86153661D01*
X117588866Y-86181110D01*
X117605607Y-86212431D01*
X117615915Y-86246409D01*
X117620000Y-86287890D01*
X117620000Y-86889110D01*
X117615915Y-86930591D01*
X117605607Y-86964569D01*
X117588866Y-86995890D01*
X117566339Y-87023339D01*
X117538890Y-87045866D01*
X117507569Y-87062607D01*
X117473591Y-87072915D01*
X117432110Y-87077000D01*
X116755890Y-87077000D01*
X116714409Y-87072915D01*
X116680431Y-87062607D01*
X116649110Y-87045866D01*
X116621661Y-87023339D01*
X116599134Y-86995890D01*
X116582393Y-86964569D01*
X116572085Y-86930591D01*
X116568000Y-86889110D01*
X116568000Y-86287890D01*
X116572085Y-86246409D01*
X116582393Y-86212431D01*
X116599134Y-86181110D01*
X116621661Y-86153661D01*
X116649110Y-86131134D01*
X116680431Y-86114393D01*
X116714409Y-86104085D01*
X116755890Y-86100000D01*
X117432110Y-86100000D01*
X117473591Y-86104085D01*
G37*
G36*
X93089591Y-86104085D02*
G01*
X93123569Y-86114393D01*
X93154890Y-86131134D01*
X93182339Y-86153661D01*
X93204866Y-86181110D01*
X93221607Y-86212431D01*
X93231915Y-86246409D01*
X93236000Y-86287890D01*
X93236000Y-86889110D01*
X93231915Y-86930591D01*
X93221607Y-86964569D01*
X93204866Y-86995890D01*
X93182339Y-87023339D01*
X93154890Y-87045866D01*
X93123569Y-87062607D01*
X93089591Y-87072915D01*
X93048110Y-87077000D01*
X92371890Y-87077000D01*
X92330409Y-87072915D01*
X92296431Y-87062607D01*
X92265110Y-87045866D01*
X92237661Y-87023339D01*
X92215134Y-86995890D01*
X92198393Y-86964569D01*
X92188085Y-86930591D01*
X92184000Y-86889110D01*
X92184000Y-86287890D01*
X92188085Y-86246409D01*
X92198393Y-86212431D01*
X92215134Y-86181110D01*
X92237661Y-86153661D01*
X92265110Y-86131134D01*
X92296431Y-86114393D01*
X92330409Y-86104085D01*
X92371890Y-86100000D01*
X93048110Y-86100000D01*
X93089591Y-86104085D01*
G37*
G36*
X62101591Y-86104085D02*
G01*
X62135569Y-86114393D01*
X62166890Y-86131134D01*
X62194339Y-86153661D01*
X62216866Y-86181110D01*
X62233607Y-86212431D01*
X62243915Y-86246409D01*
X62248000Y-86287890D01*
X62248000Y-86889110D01*
X62243915Y-86930591D01*
X62233607Y-86964569D01*
X62216866Y-86995890D01*
X62194339Y-87023339D01*
X62166890Y-87045866D01*
X62135569Y-87062607D01*
X62101591Y-87072915D01*
X62060110Y-87077000D01*
X61383890Y-87077000D01*
X61342409Y-87072915D01*
X61308431Y-87062607D01*
X61277110Y-87045866D01*
X61249661Y-87023339D01*
X61227134Y-86995890D01*
X61210393Y-86964569D01*
X61200085Y-86930591D01*
X61196000Y-86889110D01*
X61196000Y-86287890D01*
X61200085Y-86246409D01*
X61210393Y-86212431D01*
X61227134Y-86181110D01*
X61249661Y-86153661D01*
X61277110Y-86131134D01*
X61308431Y-86114393D01*
X61342409Y-86104085D01*
X61383890Y-86100000D01*
X62060110Y-86100000D01*
X62101591Y-86104085D01*
G37*
G36*
X88009591Y-86104085D02*
G01*
X88043569Y-86114393D01*
X88074890Y-86131134D01*
X88102339Y-86153661D01*
X88124866Y-86181110D01*
X88141607Y-86212431D01*
X88151915Y-86246409D01*
X88156000Y-86287890D01*
X88156000Y-86889110D01*
X88151915Y-86930591D01*
X88141607Y-86964569D01*
X88124866Y-86995890D01*
X88102339Y-87023339D01*
X88074890Y-87045866D01*
X88043569Y-87062607D01*
X88009591Y-87072915D01*
X87968110Y-87077000D01*
X87291890Y-87077000D01*
X87250409Y-87072915D01*
X87216431Y-87062607D01*
X87185110Y-87045866D01*
X87157661Y-87023339D01*
X87135134Y-86995890D01*
X87118393Y-86964569D01*
X87108085Y-86930591D01*
X87104000Y-86889110D01*
X87104000Y-86287890D01*
X87108085Y-86246409D01*
X87118393Y-86212431D01*
X87135134Y-86181110D01*
X87157661Y-86153661D01*
X87185110Y-86131134D01*
X87216431Y-86114393D01*
X87250409Y-86104085D01*
X87291890Y-86100000D01*
X87968110Y-86100000D01*
X88009591Y-86104085D01*
G37*
G36*
X112393591Y-86104085D02*
G01*
X112427569Y-86114393D01*
X112458890Y-86131134D01*
X112486339Y-86153661D01*
X112508866Y-86181110D01*
X112525607Y-86212431D01*
X112535915Y-86246409D01*
X112540000Y-86287890D01*
X112540000Y-86889110D01*
X112535915Y-86930591D01*
X112525607Y-86964569D01*
X112508866Y-86995890D01*
X112486339Y-87023339D01*
X112458890Y-87045866D01*
X112427569Y-87062607D01*
X112393591Y-87072915D01*
X112352110Y-87077000D01*
X111675890Y-87077000D01*
X111634409Y-87072915D01*
X111600431Y-87062607D01*
X111569110Y-87045866D01*
X111541661Y-87023339D01*
X111519134Y-86995890D01*
X111502393Y-86964569D01*
X111492085Y-86930591D01*
X111488000Y-86889110D01*
X111488000Y-86287890D01*
X111492085Y-86246409D01*
X111502393Y-86212431D01*
X111519134Y-86181110D01*
X111541661Y-86153661D01*
X111569110Y-86131134D01*
X111600431Y-86114393D01*
X111634409Y-86104085D01*
X111675890Y-86100000D01*
X112352110Y-86100000D01*
X112393591Y-86104085D01*
G37*
G36*
X72769591Y-86104085D02*
G01*
X72803569Y-86114393D01*
X72834890Y-86131134D01*
X72862339Y-86153661D01*
X72884866Y-86181110D01*
X72901607Y-86212431D01*
X72911915Y-86246409D01*
X72916000Y-86287890D01*
X72916000Y-86889110D01*
X72911915Y-86930591D01*
X72901607Y-86964569D01*
X72884866Y-86995890D01*
X72862339Y-87023339D01*
X72834890Y-87045866D01*
X72803569Y-87062607D01*
X72769591Y-87072915D01*
X72728110Y-87077000D01*
X72051890Y-87077000D01*
X72010409Y-87072915D01*
X71976431Y-87062607D01*
X71945110Y-87045866D01*
X71917661Y-87023339D01*
X71895134Y-86995890D01*
X71878393Y-86964569D01*
X71868085Y-86930591D01*
X71864000Y-86889110D01*
X71864000Y-86287890D01*
X71868085Y-86246409D01*
X71878393Y-86212431D01*
X71895134Y-86181110D01*
X71917661Y-86153661D01*
X71945110Y-86131134D01*
X71976431Y-86114393D01*
X72010409Y-86104085D01*
X72051890Y-86100000D01*
X72728110Y-86100000D01*
X72769591Y-86104085D01*
G37*
G36*
X67689591Y-86104085D02*
G01*
X67723569Y-86114393D01*
X67754890Y-86131134D01*
X67782339Y-86153661D01*
X67804866Y-86181110D01*
X67821607Y-86212431D01*
X67831915Y-86246409D01*
X67836000Y-86287890D01*
X67836000Y-86889110D01*
X67831915Y-86930591D01*
X67821607Y-86964569D01*
X67804866Y-86995890D01*
X67782339Y-87023339D01*
X67754890Y-87045866D01*
X67723569Y-87062607D01*
X67689591Y-87072915D01*
X67648110Y-87077000D01*
X66971890Y-87077000D01*
X66930409Y-87072915D01*
X66896431Y-87062607D01*
X66865110Y-87045866D01*
X66837661Y-87023339D01*
X66815134Y-86995890D01*
X66798393Y-86964569D01*
X66788085Y-86930591D01*
X66784000Y-86889110D01*
X66784000Y-86287890D01*
X66788085Y-86246409D01*
X66798393Y-86212431D01*
X66815134Y-86181110D01*
X66837661Y-86153661D01*
X66865110Y-86131134D01*
X66896431Y-86114393D01*
X66930409Y-86104085D01*
X66971890Y-86100000D01*
X67648110Y-86100000D01*
X67689591Y-86104085D01*
G37*
G36*
X138301591Y-86104085D02*
G01*
X138335569Y-86114393D01*
X138366890Y-86131134D01*
X138394339Y-86153661D01*
X138416866Y-86181110D01*
X138433607Y-86212431D01*
X138443915Y-86246409D01*
X138448000Y-86287890D01*
X138448000Y-86889110D01*
X138443915Y-86930591D01*
X138433607Y-86964569D01*
X138416866Y-86995890D01*
X138394339Y-87023339D01*
X138366890Y-87045866D01*
X138335569Y-87062607D01*
X138301591Y-87072915D01*
X138260110Y-87077000D01*
X137583890Y-87077000D01*
X137542409Y-87072915D01*
X137508431Y-87062607D01*
X137477110Y-87045866D01*
X137449661Y-87023339D01*
X137427134Y-86995890D01*
X137410393Y-86964569D01*
X137400085Y-86930591D01*
X137396000Y-86889110D01*
X137396000Y-86287890D01*
X137400085Y-86246409D01*
X137410393Y-86212431D01*
X137427134Y-86181110D01*
X137449661Y-86153661D01*
X137477110Y-86131134D01*
X137508431Y-86114393D01*
X137542409Y-86104085D01*
X137583890Y-86100000D01*
X138260110Y-86100000D01*
X138301591Y-86104085D01*
G37*
G36*
X127545997Y-85027476D02*
G01*
X127564274Y-85033020D01*
X127581108Y-85042018D01*
X127595868Y-85054132D01*
X127607982Y-85068892D01*
X127616980Y-85085726D01*
X127622524Y-85104003D01*
X127625000Y-85129140D01*
X127625000Y-85562860D01*
X127622524Y-85587997D01*
X127616980Y-85606274D01*
X127607982Y-85623108D01*
X127595868Y-85637868D01*
X127581108Y-85649982D01*
X127564274Y-85658980D01*
X127545997Y-85664524D01*
X127520860Y-85667000D01*
X126987140Y-85667000D01*
X126962003Y-85664524D01*
X126943726Y-85658980D01*
X126926892Y-85649982D01*
X126912132Y-85637868D01*
X126900018Y-85623108D01*
X126891020Y-85606274D01*
X126885476Y-85587997D01*
X126883000Y-85562860D01*
X126883000Y-85129140D01*
X126885476Y-85104003D01*
X126891020Y-85085726D01*
X126900018Y-85068892D01*
X126912132Y-85054132D01*
X126926892Y-85042018D01*
X126943726Y-85033020D01*
X126962003Y-85027476D01*
X126987140Y-85025000D01*
X127520860Y-85025000D01*
X127545997Y-85027476D01*
G37*
G36*
X121957997Y-85027476D02*
G01*
X121976274Y-85033020D01*
X121993108Y-85042018D01*
X122007868Y-85054132D01*
X122019982Y-85068892D01*
X122028980Y-85085726D01*
X122034524Y-85104003D01*
X122037000Y-85129140D01*
X122037000Y-85562860D01*
X122034524Y-85587997D01*
X122028980Y-85606274D01*
X122019982Y-85623108D01*
X122007868Y-85637868D01*
X121993108Y-85649982D01*
X121976274Y-85658980D01*
X121957997Y-85664524D01*
X121932860Y-85667000D01*
X121399140Y-85667000D01*
X121374003Y-85664524D01*
X121355726Y-85658980D01*
X121338892Y-85649982D01*
X121324132Y-85637868D01*
X121312018Y-85623108D01*
X121303020Y-85606274D01*
X121297476Y-85587997D01*
X121295000Y-85562860D01*
X121295000Y-85129140D01*
X121297476Y-85104003D01*
X121303020Y-85085726D01*
X121312018Y-85068892D01*
X121324132Y-85054132D01*
X121338892Y-85042018D01*
X121355726Y-85033020D01*
X121374003Y-85027476D01*
X121399140Y-85025000D01*
X121932860Y-85025000D01*
X121957997Y-85027476D01*
G37*
G36*
X102653997Y-85027476D02*
G01*
X102672274Y-85033020D01*
X102689108Y-85042018D01*
X102703868Y-85054132D01*
X102715982Y-85068892D01*
X102724980Y-85085726D01*
X102730524Y-85104003D01*
X102733000Y-85129140D01*
X102733000Y-85562860D01*
X102730524Y-85587997D01*
X102724980Y-85606274D01*
X102715982Y-85623108D01*
X102703868Y-85637868D01*
X102689108Y-85649982D01*
X102672274Y-85658980D01*
X102653997Y-85664524D01*
X102628860Y-85667000D01*
X102095140Y-85667000D01*
X102070003Y-85664524D01*
X102051726Y-85658980D01*
X102034892Y-85649982D01*
X102020132Y-85637868D01*
X102008018Y-85623108D01*
X101999020Y-85606274D01*
X101993476Y-85587997D01*
X101991000Y-85562860D01*
X101991000Y-85129140D01*
X101993476Y-85104003D01*
X101999020Y-85085726D01*
X102008018Y-85068892D01*
X102020132Y-85054132D01*
X102034892Y-85042018D01*
X102051726Y-85033020D01*
X102070003Y-85027476D01*
X102095140Y-85025000D01*
X102628860Y-85025000D01*
X102653997Y-85027476D01*
G37*
G36*
X148373997Y-85027476D02*
G01*
X148392274Y-85033020D01*
X148409108Y-85042018D01*
X148423868Y-85054132D01*
X148435982Y-85068892D01*
X148444980Y-85085726D01*
X148450524Y-85104003D01*
X148453000Y-85129140D01*
X148453000Y-85562860D01*
X148450524Y-85587997D01*
X148444980Y-85606274D01*
X148435982Y-85623108D01*
X148423868Y-85637868D01*
X148409108Y-85649982D01*
X148392274Y-85658980D01*
X148373997Y-85664524D01*
X148348860Y-85667000D01*
X147815140Y-85667000D01*
X147790003Y-85664524D01*
X147771726Y-85658980D01*
X147754892Y-85649982D01*
X147740132Y-85637868D01*
X147728018Y-85623108D01*
X147719020Y-85606274D01*
X147713476Y-85587997D01*
X147711000Y-85562860D01*
X147711000Y-85129140D01*
X147713476Y-85104003D01*
X147719020Y-85085726D01*
X147728018Y-85068892D01*
X147740132Y-85054132D01*
X147754892Y-85042018D01*
X147771726Y-85033020D01*
X147790003Y-85027476D01*
X147815140Y-85025000D01*
X148348860Y-85025000D01*
X148373997Y-85027476D01*
G37*
G36*
X153453997Y-85027476D02*
G01*
X153472274Y-85033020D01*
X153489108Y-85042018D01*
X153503868Y-85054132D01*
X153515982Y-85068892D01*
X153524980Y-85085726D01*
X153530524Y-85104003D01*
X153533000Y-85129140D01*
X153533000Y-85562860D01*
X153530524Y-85587997D01*
X153524980Y-85606274D01*
X153515982Y-85623108D01*
X153503868Y-85637868D01*
X153489108Y-85649982D01*
X153472274Y-85658980D01*
X153453997Y-85664524D01*
X153428860Y-85667000D01*
X152895140Y-85667000D01*
X152870003Y-85664524D01*
X152851726Y-85658980D01*
X152834892Y-85649982D01*
X152820132Y-85637868D01*
X152808018Y-85623108D01*
X152799020Y-85606274D01*
X152793476Y-85587997D01*
X152791000Y-85562860D01*
X152791000Y-85129140D01*
X152793476Y-85104003D01*
X152799020Y-85085726D01*
X152808018Y-85068892D01*
X152820132Y-85054132D01*
X152834892Y-85042018D01*
X152851726Y-85033020D01*
X152870003Y-85027476D01*
X152895140Y-85025000D01*
X153428860Y-85025000D01*
X153453997Y-85027476D01*
G37*
G36*
X62013997Y-85027476D02*
G01*
X62032274Y-85033020D01*
X62049108Y-85042018D01*
X62063868Y-85054132D01*
X62075982Y-85068892D01*
X62084980Y-85085726D01*
X62090524Y-85104003D01*
X62093000Y-85129140D01*
X62093000Y-85562860D01*
X62090524Y-85587997D01*
X62084980Y-85606274D01*
X62075982Y-85623108D01*
X62063868Y-85637868D01*
X62049108Y-85649982D01*
X62032274Y-85658980D01*
X62013997Y-85664524D01*
X61988860Y-85667000D01*
X61455140Y-85667000D01*
X61430003Y-85664524D01*
X61411726Y-85658980D01*
X61394892Y-85649982D01*
X61380132Y-85637868D01*
X61368018Y-85623108D01*
X61359020Y-85606274D01*
X61353476Y-85587997D01*
X61351000Y-85562860D01*
X61351000Y-85129140D01*
X61353476Y-85104003D01*
X61359020Y-85085726D01*
X61368018Y-85068892D01*
X61380132Y-85054132D01*
X61394892Y-85042018D01*
X61411726Y-85033020D01*
X61430003Y-85027476D01*
X61455140Y-85025000D01*
X61988860Y-85025000D01*
X62013997Y-85027476D01*
G37*
G36*
X112305997Y-85027476D02*
G01*
X112324274Y-85033020D01*
X112341108Y-85042018D01*
X112355868Y-85054132D01*
X112367982Y-85068892D01*
X112376980Y-85085726D01*
X112382524Y-85104003D01*
X112385000Y-85129140D01*
X112385000Y-85562860D01*
X112382524Y-85587997D01*
X112376980Y-85606274D01*
X112367982Y-85623108D01*
X112355868Y-85637868D01*
X112341108Y-85649982D01*
X112324274Y-85658980D01*
X112305997Y-85664524D01*
X112280860Y-85667000D01*
X111747140Y-85667000D01*
X111722003Y-85664524D01*
X111703726Y-85658980D01*
X111686892Y-85649982D01*
X111672132Y-85637868D01*
X111660018Y-85623108D01*
X111651020Y-85606274D01*
X111645476Y-85587997D01*
X111643000Y-85562860D01*
X111643000Y-85129140D01*
X111645476Y-85104003D01*
X111651020Y-85085726D01*
X111660018Y-85068892D01*
X111672132Y-85054132D01*
X111686892Y-85042018D01*
X111703726Y-85033020D01*
X111722003Y-85027476D01*
X111747140Y-85025000D01*
X112280860Y-85025000D01*
X112305997Y-85027476D01*
G37*
G36*
X72681997Y-85027476D02*
G01*
X72700274Y-85033020D01*
X72717108Y-85042018D01*
X72731868Y-85054132D01*
X72743982Y-85068892D01*
X72752980Y-85085726D01*
X72758524Y-85104003D01*
X72761000Y-85129140D01*
X72761000Y-85562860D01*
X72758524Y-85587997D01*
X72752980Y-85606274D01*
X72743982Y-85623108D01*
X72731868Y-85637868D01*
X72717108Y-85649982D01*
X72700274Y-85658980D01*
X72681997Y-85664524D01*
X72656860Y-85667000D01*
X72123140Y-85667000D01*
X72098003Y-85664524D01*
X72079726Y-85658980D01*
X72062892Y-85649982D01*
X72048132Y-85637868D01*
X72036018Y-85623108D01*
X72027020Y-85606274D01*
X72021476Y-85587997D01*
X72019000Y-85562860D01*
X72019000Y-85129140D01*
X72021476Y-85104003D01*
X72027020Y-85085726D01*
X72036018Y-85068892D01*
X72048132Y-85054132D01*
X72062892Y-85042018D01*
X72079726Y-85033020D01*
X72098003Y-85027476D01*
X72123140Y-85025000D01*
X72656860Y-85025000D01*
X72681997Y-85027476D01*
G37*
G36*
X67601997Y-85027476D02*
G01*
X67620274Y-85033020D01*
X67637108Y-85042018D01*
X67651868Y-85054132D01*
X67663982Y-85068892D01*
X67672980Y-85085726D01*
X67678524Y-85104003D01*
X67681000Y-85129140D01*
X67681000Y-85562860D01*
X67678524Y-85587997D01*
X67672980Y-85606274D01*
X67663982Y-85623108D01*
X67651868Y-85637868D01*
X67637108Y-85649982D01*
X67620274Y-85658980D01*
X67601997Y-85664524D01*
X67576860Y-85667000D01*
X67043140Y-85667000D01*
X67018003Y-85664524D01*
X66999726Y-85658980D01*
X66982892Y-85649982D01*
X66968132Y-85637868D01*
X66956018Y-85623108D01*
X66947020Y-85606274D01*
X66941476Y-85587997D01*
X66939000Y-85562860D01*
X66939000Y-85129140D01*
X66941476Y-85104003D01*
X66947020Y-85085726D01*
X66956018Y-85068892D01*
X66968132Y-85054132D01*
X66982892Y-85042018D01*
X66999726Y-85033020D01*
X67018003Y-85027476D01*
X67043140Y-85025000D01*
X67576860Y-85025000D01*
X67601997Y-85027476D01*
G37*
G36*
X87921997Y-85027476D02*
G01*
X87940274Y-85033020D01*
X87957108Y-85042018D01*
X87971868Y-85054132D01*
X87983982Y-85068892D01*
X87992980Y-85085726D01*
X87998524Y-85104003D01*
X88001000Y-85129140D01*
X88001000Y-85562860D01*
X87998524Y-85587997D01*
X87992980Y-85606274D01*
X87983982Y-85623108D01*
X87971868Y-85637868D01*
X87957108Y-85649982D01*
X87940274Y-85658980D01*
X87921997Y-85664524D01*
X87896860Y-85667000D01*
X87363140Y-85667000D01*
X87338003Y-85664524D01*
X87319726Y-85658980D01*
X87302892Y-85649982D01*
X87288132Y-85637868D01*
X87276018Y-85623108D01*
X87267020Y-85606274D01*
X87261476Y-85587997D01*
X87259000Y-85562860D01*
X87259000Y-85129140D01*
X87261476Y-85104003D01*
X87267020Y-85085726D01*
X87276018Y-85068892D01*
X87288132Y-85054132D01*
X87302892Y-85042018D01*
X87319726Y-85033020D01*
X87338003Y-85027476D01*
X87363140Y-85025000D01*
X87896860Y-85025000D01*
X87921997Y-85027476D01*
G37*
G36*
X117385997Y-85027476D02*
G01*
X117404274Y-85033020D01*
X117421108Y-85042018D01*
X117435868Y-85054132D01*
X117447982Y-85068892D01*
X117456980Y-85085726D01*
X117462524Y-85104003D01*
X117465000Y-85129140D01*
X117465000Y-85562860D01*
X117462524Y-85587997D01*
X117456980Y-85606274D01*
X117447982Y-85623108D01*
X117435868Y-85637868D01*
X117421108Y-85649982D01*
X117404274Y-85658980D01*
X117385997Y-85664524D01*
X117360860Y-85667000D01*
X116827140Y-85667000D01*
X116802003Y-85664524D01*
X116783726Y-85658980D01*
X116766892Y-85649982D01*
X116752132Y-85637868D01*
X116740018Y-85623108D01*
X116731020Y-85606274D01*
X116725476Y-85587997D01*
X116723000Y-85562860D01*
X116723000Y-85129140D01*
X116725476Y-85104003D01*
X116731020Y-85085726D01*
X116740018Y-85068892D01*
X116752132Y-85054132D01*
X116766892Y-85042018D01*
X116783726Y-85033020D01*
X116802003Y-85027476D01*
X116827140Y-85025000D01*
X117360860Y-85025000D01*
X117385997Y-85027476D01*
G37*
G36*
X93001997Y-85027476D02*
G01*
X93020274Y-85033020D01*
X93037108Y-85042018D01*
X93051868Y-85054132D01*
X93063982Y-85068892D01*
X93072980Y-85085726D01*
X93078524Y-85104003D01*
X93081000Y-85129140D01*
X93081000Y-85562860D01*
X93078524Y-85587997D01*
X93072980Y-85606274D01*
X93063982Y-85623108D01*
X93051868Y-85637868D01*
X93037108Y-85649982D01*
X93020274Y-85658980D01*
X93001997Y-85664524D01*
X92976860Y-85667000D01*
X92443140Y-85667000D01*
X92418003Y-85664524D01*
X92399726Y-85658980D01*
X92382892Y-85649982D01*
X92368132Y-85637868D01*
X92356018Y-85623108D01*
X92347020Y-85606274D01*
X92341476Y-85587997D01*
X92339000Y-85562860D01*
X92339000Y-85129140D01*
X92341476Y-85104003D01*
X92347020Y-85085726D01*
X92356018Y-85068892D01*
X92368132Y-85054132D01*
X92382892Y-85042018D01*
X92399726Y-85033020D01*
X92418003Y-85027476D01*
X92443140Y-85025000D01*
X92976860Y-85025000D01*
X93001997Y-85027476D01*
G37*
G36*
X143293997Y-85027476D02*
G01*
X143312274Y-85033020D01*
X143329108Y-85042018D01*
X143343868Y-85054132D01*
X143355982Y-85068892D01*
X143364980Y-85085726D01*
X143370524Y-85104003D01*
X143373000Y-85129140D01*
X143373000Y-85562860D01*
X143370524Y-85587997D01*
X143364980Y-85606274D01*
X143355982Y-85623108D01*
X143343868Y-85637868D01*
X143329108Y-85649982D01*
X143312274Y-85658980D01*
X143293997Y-85664524D01*
X143268860Y-85667000D01*
X142735140Y-85667000D01*
X142710003Y-85664524D01*
X142691726Y-85658980D01*
X142674892Y-85649982D01*
X142660132Y-85637868D01*
X142648018Y-85623108D01*
X142639020Y-85606274D01*
X142633476Y-85587997D01*
X142631000Y-85562860D01*
X142631000Y-85129140D01*
X142633476Y-85104003D01*
X142639020Y-85085726D01*
X142648018Y-85068892D01*
X142660132Y-85054132D01*
X142674892Y-85042018D01*
X142691726Y-85033020D01*
X142710003Y-85027476D01*
X142735140Y-85025000D01*
X143268860Y-85025000D01*
X143293997Y-85027476D01*
G37*
G36*
X97573997Y-85027476D02*
G01*
X97592274Y-85033020D01*
X97609108Y-85042018D01*
X97623868Y-85054132D01*
X97635982Y-85068892D01*
X97644980Y-85085726D01*
X97650524Y-85104003D01*
X97653000Y-85129140D01*
X97653000Y-85562860D01*
X97650524Y-85587997D01*
X97644980Y-85606274D01*
X97635982Y-85623108D01*
X97623868Y-85637868D01*
X97609108Y-85649982D01*
X97592274Y-85658980D01*
X97573997Y-85664524D01*
X97548860Y-85667000D01*
X97015140Y-85667000D01*
X96990003Y-85664524D01*
X96971726Y-85658980D01*
X96954892Y-85649982D01*
X96940132Y-85637868D01*
X96928018Y-85623108D01*
X96919020Y-85606274D01*
X96913476Y-85587997D01*
X96911000Y-85562860D01*
X96911000Y-85129140D01*
X96913476Y-85104003D01*
X96919020Y-85085726D01*
X96928018Y-85068892D01*
X96940132Y-85054132D01*
X96954892Y-85042018D01*
X96971726Y-85033020D01*
X96990003Y-85027476D01*
X97015140Y-85025000D01*
X97548860Y-85025000D01*
X97573997Y-85027476D01*
G37*
G36*
X138213997Y-85027476D02*
G01*
X138232274Y-85033020D01*
X138249108Y-85042018D01*
X138263868Y-85054132D01*
X138275982Y-85068892D01*
X138284980Y-85085726D01*
X138290524Y-85104003D01*
X138293000Y-85129140D01*
X138293000Y-85562860D01*
X138290524Y-85587997D01*
X138284980Y-85606274D01*
X138275982Y-85623108D01*
X138263868Y-85637868D01*
X138249108Y-85649982D01*
X138232274Y-85658980D01*
X138213997Y-85664524D01*
X138188860Y-85667000D01*
X137655140Y-85667000D01*
X137630003Y-85664524D01*
X137611726Y-85658980D01*
X137594892Y-85649982D01*
X137580132Y-85637868D01*
X137568018Y-85623108D01*
X137559020Y-85606274D01*
X137553476Y-85587997D01*
X137551000Y-85562860D01*
X137551000Y-85129140D01*
X137553476Y-85104003D01*
X137559020Y-85085726D01*
X137568018Y-85068892D01*
X137580132Y-85054132D01*
X137594892Y-85042018D01*
X137611726Y-85033020D01*
X137630003Y-85027476D01*
X137655140Y-85025000D01*
X138188860Y-85025000D01*
X138213997Y-85027476D01*
G37*
G36*
X77253997Y-85027476D02*
G01*
X77272274Y-85033020D01*
X77289108Y-85042018D01*
X77303868Y-85054132D01*
X77315982Y-85068892D01*
X77324980Y-85085726D01*
X77330524Y-85104003D01*
X77333000Y-85129140D01*
X77333000Y-85562860D01*
X77330524Y-85587997D01*
X77324980Y-85606274D01*
X77315982Y-85623108D01*
X77303868Y-85637868D01*
X77289108Y-85649982D01*
X77272274Y-85658980D01*
X77253997Y-85664524D01*
X77228860Y-85667000D01*
X76695140Y-85667000D01*
X76670003Y-85664524D01*
X76651726Y-85658980D01*
X76634892Y-85649982D01*
X76620132Y-85637868D01*
X76608018Y-85623108D01*
X76599020Y-85606274D01*
X76593476Y-85587997D01*
X76591000Y-85562860D01*
X76591000Y-85129140D01*
X76593476Y-85104003D01*
X76599020Y-85085726D01*
X76608018Y-85068892D01*
X76620132Y-85054132D01*
X76634892Y-85042018D01*
X76651726Y-85033020D01*
X76670003Y-85027476D01*
X76695140Y-85025000D01*
X77228860Y-85025000D01*
X77253997Y-85027476D01*
G37*
G36*
X97573997Y-84007476D02*
G01*
X97592274Y-84013020D01*
X97609108Y-84022018D01*
X97623868Y-84034132D01*
X97635982Y-84048892D01*
X97644980Y-84065726D01*
X97650524Y-84084003D01*
X97653000Y-84109140D01*
X97653000Y-84542860D01*
X97650524Y-84567997D01*
X97644980Y-84586274D01*
X97635982Y-84603108D01*
X97623868Y-84617868D01*
X97609108Y-84629982D01*
X97592274Y-84638980D01*
X97573997Y-84644524D01*
X97548860Y-84647000D01*
X97015140Y-84647000D01*
X96990003Y-84644524D01*
X96971726Y-84638980D01*
X96954892Y-84629982D01*
X96940132Y-84617868D01*
X96928018Y-84603108D01*
X96919020Y-84586274D01*
X96913476Y-84567997D01*
X96911000Y-84542860D01*
X96911000Y-84109140D01*
X96913476Y-84084003D01*
X96919020Y-84065726D01*
X96928018Y-84048892D01*
X96940132Y-84034132D01*
X96954892Y-84022018D01*
X96971726Y-84013020D01*
X96990003Y-84007476D01*
X97015140Y-84005000D01*
X97548860Y-84005000D01*
X97573997Y-84007476D01*
G37*
G36*
X62013997Y-84007476D02*
G01*
X62032274Y-84013020D01*
X62049108Y-84022018D01*
X62063868Y-84034132D01*
X62075982Y-84048892D01*
X62084980Y-84065726D01*
X62090524Y-84084003D01*
X62093000Y-84109140D01*
X62093000Y-84542860D01*
X62090524Y-84567997D01*
X62084980Y-84586274D01*
X62075982Y-84603108D01*
X62063868Y-84617868D01*
X62049108Y-84629982D01*
X62032274Y-84638980D01*
X62013997Y-84644524D01*
X61988860Y-84647000D01*
X61455140Y-84647000D01*
X61430003Y-84644524D01*
X61411726Y-84638980D01*
X61394892Y-84629982D01*
X61380132Y-84617868D01*
X61368018Y-84603108D01*
X61359020Y-84586274D01*
X61353476Y-84567997D01*
X61351000Y-84542860D01*
X61351000Y-84109140D01*
X61353476Y-84084003D01*
X61359020Y-84065726D01*
X61368018Y-84048892D01*
X61380132Y-84034132D01*
X61394892Y-84022018D01*
X61411726Y-84013020D01*
X61430003Y-84007476D01*
X61455140Y-84005000D01*
X61988860Y-84005000D01*
X62013997Y-84007476D01*
G37*
G36*
X67601997Y-84007476D02*
G01*
X67620274Y-84013020D01*
X67637108Y-84022018D01*
X67651868Y-84034132D01*
X67663982Y-84048892D01*
X67672980Y-84065726D01*
X67678524Y-84084003D01*
X67681000Y-84109140D01*
X67681000Y-84542860D01*
X67678524Y-84567997D01*
X67672980Y-84586274D01*
X67663982Y-84603108D01*
X67651868Y-84617868D01*
X67637108Y-84629982D01*
X67620274Y-84638980D01*
X67601997Y-84644524D01*
X67576860Y-84647000D01*
X67043140Y-84647000D01*
X67018003Y-84644524D01*
X66999726Y-84638980D01*
X66982892Y-84629982D01*
X66968132Y-84617868D01*
X66956018Y-84603108D01*
X66947020Y-84586274D01*
X66941476Y-84567997D01*
X66939000Y-84542860D01*
X66939000Y-84109140D01*
X66941476Y-84084003D01*
X66947020Y-84065726D01*
X66956018Y-84048892D01*
X66968132Y-84034132D01*
X66982892Y-84022018D01*
X66999726Y-84013020D01*
X67018003Y-84007476D01*
X67043140Y-84005000D01*
X67576860Y-84005000D01*
X67601997Y-84007476D01*
G37*
G36*
X77253997Y-84007476D02*
G01*
X77272274Y-84013020D01*
X77289108Y-84022018D01*
X77303868Y-84034132D01*
X77315982Y-84048892D01*
X77324980Y-84065726D01*
X77330524Y-84084003D01*
X77333000Y-84109140D01*
X77333000Y-84542860D01*
X77330524Y-84567997D01*
X77324980Y-84586274D01*
X77315982Y-84603108D01*
X77303868Y-84617868D01*
X77289108Y-84629982D01*
X77272274Y-84638980D01*
X77253997Y-84644524D01*
X77228860Y-84647000D01*
X76695140Y-84647000D01*
X76670003Y-84644524D01*
X76651726Y-84638980D01*
X76634892Y-84629982D01*
X76620132Y-84617868D01*
X76608018Y-84603108D01*
X76599020Y-84586274D01*
X76593476Y-84567997D01*
X76591000Y-84542860D01*
X76591000Y-84109140D01*
X76593476Y-84084003D01*
X76599020Y-84065726D01*
X76608018Y-84048892D01*
X76620132Y-84034132D01*
X76634892Y-84022018D01*
X76651726Y-84013020D01*
X76670003Y-84007476D01*
X76695140Y-84005000D01*
X77228860Y-84005000D01*
X77253997Y-84007476D01*
G37*
G36*
X93001997Y-84007476D02*
G01*
X93020274Y-84013020D01*
X93037108Y-84022018D01*
X93051868Y-84034132D01*
X93063982Y-84048892D01*
X93072980Y-84065726D01*
X93078524Y-84084003D01*
X93081000Y-84109140D01*
X93081000Y-84542860D01*
X93078524Y-84567997D01*
X93072980Y-84586274D01*
X93063982Y-84603108D01*
X93051868Y-84617868D01*
X93037108Y-84629982D01*
X93020274Y-84638980D01*
X93001997Y-84644524D01*
X92976860Y-84647000D01*
X92443140Y-84647000D01*
X92418003Y-84644524D01*
X92399726Y-84638980D01*
X92382892Y-84629982D01*
X92368132Y-84617868D01*
X92356018Y-84603108D01*
X92347020Y-84586274D01*
X92341476Y-84567997D01*
X92339000Y-84542860D01*
X92339000Y-84109140D01*
X92341476Y-84084003D01*
X92347020Y-84065726D01*
X92356018Y-84048892D01*
X92368132Y-84034132D01*
X92382892Y-84022018D01*
X92399726Y-84013020D01*
X92418003Y-84007476D01*
X92443140Y-84005000D01*
X92976860Y-84005000D01*
X93001997Y-84007476D01*
G37*
G36*
X102653997Y-84007476D02*
G01*
X102672274Y-84013020D01*
X102689108Y-84022018D01*
X102703868Y-84034132D01*
X102715982Y-84048892D01*
X102724980Y-84065726D01*
X102730524Y-84084003D01*
X102733000Y-84109140D01*
X102733000Y-84542860D01*
X102730524Y-84567997D01*
X102724980Y-84586274D01*
X102715982Y-84603108D01*
X102703868Y-84617868D01*
X102689108Y-84629982D01*
X102672274Y-84638980D01*
X102653997Y-84644524D01*
X102628860Y-84647000D01*
X102095140Y-84647000D01*
X102070003Y-84644524D01*
X102051726Y-84638980D01*
X102034892Y-84629982D01*
X102020132Y-84617868D01*
X102008018Y-84603108D01*
X101999020Y-84586274D01*
X101993476Y-84567997D01*
X101991000Y-84542860D01*
X101991000Y-84109140D01*
X101993476Y-84084003D01*
X101999020Y-84065726D01*
X102008018Y-84048892D01*
X102020132Y-84034132D01*
X102034892Y-84022018D01*
X102051726Y-84013020D01*
X102070003Y-84007476D01*
X102095140Y-84005000D01*
X102628860Y-84005000D01*
X102653997Y-84007476D01*
G37*
G36*
X112305997Y-84007476D02*
G01*
X112324274Y-84013020D01*
X112341108Y-84022018D01*
X112355868Y-84034132D01*
X112367982Y-84048892D01*
X112376980Y-84065726D01*
X112382524Y-84084003D01*
X112385000Y-84109140D01*
X112385000Y-84542860D01*
X112382524Y-84567997D01*
X112376980Y-84586274D01*
X112367982Y-84603108D01*
X112355868Y-84617868D01*
X112341108Y-84629982D01*
X112324274Y-84638980D01*
X112305997Y-84644524D01*
X112280860Y-84647000D01*
X111747140Y-84647000D01*
X111722003Y-84644524D01*
X111703726Y-84638980D01*
X111686892Y-84629982D01*
X111672132Y-84617868D01*
X111660018Y-84603108D01*
X111651020Y-84586274D01*
X111645476Y-84567997D01*
X111643000Y-84542860D01*
X111643000Y-84109140D01*
X111645476Y-84084003D01*
X111651020Y-84065726D01*
X111660018Y-84048892D01*
X111672132Y-84034132D01*
X111686892Y-84022018D01*
X111703726Y-84013020D01*
X111722003Y-84007476D01*
X111747140Y-84005000D01*
X112280860Y-84005000D01*
X112305997Y-84007476D01*
G37*
G36*
X117385997Y-84007476D02*
G01*
X117404274Y-84013020D01*
X117421108Y-84022018D01*
X117435868Y-84034132D01*
X117447982Y-84048892D01*
X117456980Y-84065726D01*
X117462524Y-84084003D01*
X117465000Y-84109140D01*
X117465000Y-84542860D01*
X117462524Y-84567997D01*
X117456980Y-84586274D01*
X117447982Y-84603108D01*
X117435868Y-84617868D01*
X117421108Y-84629982D01*
X117404274Y-84638980D01*
X117385997Y-84644524D01*
X117360860Y-84647000D01*
X116827140Y-84647000D01*
X116802003Y-84644524D01*
X116783726Y-84638980D01*
X116766892Y-84629982D01*
X116752132Y-84617868D01*
X116740018Y-84603108D01*
X116731020Y-84586274D01*
X116725476Y-84567997D01*
X116723000Y-84542860D01*
X116723000Y-84109140D01*
X116725476Y-84084003D01*
X116731020Y-84065726D01*
X116740018Y-84048892D01*
X116752132Y-84034132D01*
X116766892Y-84022018D01*
X116783726Y-84013020D01*
X116802003Y-84007476D01*
X116827140Y-84005000D01*
X117360860Y-84005000D01*
X117385997Y-84007476D01*
G37*
G36*
X127545997Y-84007476D02*
G01*
X127564274Y-84013020D01*
X127581108Y-84022018D01*
X127595868Y-84034132D01*
X127607982Y-84048892D01*
X127616980Y-84065726D01*
X127622524Y-84084003D01*
X127625000Y-84109140D01*
X127625000Y-84542860D01*
X127622524Y-84567997D01*
X127616980Y-84586274D01*
X127607982Y-84603108D01*
X127595868Y-84617868D01*
X127581108Y-84629982D01*
X127564274Y-84638980D01*
X127545997Y-84644524D01*
X127520860Y-84647000D01*
X126987140Y-84647000D01*
X126962003Y-84644524D01*
X126943726Y-84638980D01*
X126926892Y-84629982D01*
X126912132Y-84617868D01*
X126900018Y-84603108D01*
X126891020Y-84586274D01*
X126885476Y-84567997D01*
X126883000Y-84542860D01*
X126883000Y-84109140D01*
X126885476Y-84084003D01*
X126891020Y-84065726D01*
X126900018Y-84048892D01*
X126912132Y-84034132D01*
X126926892Y-84022018D01*
X126943726Y-84013020D01*
X126962003Y-84007476D01*
X126987140Y-84005000D01*
X127520860Y-84005000D01*
X127545997Y-84007476D01*
G37*
G36*
X138213997Y-84007476D02*
G01*
X138232274Y-84013020D01*
X138249108Y-84022018D01*
X138263868Y-84034132D01*
X138275982Y-84048892D01*
X138284980Y-84065726D01*
X138290524Y-84084003D01*
X138293000Y-84109140D01*
X138293000Y-84542860D01*
X138290524Y-84567997D01*
X138284980Y-84586274D01*
X138275982Y-84603108D01*
X138263868Y-84617868D01*
X138249108Y-84629982D01*
X138232274Y-84638980D01*
X138213997Y-84644524D01*
X138188860Y-84647000D01*
X137655140Y-84647000D01*
X137630003Y-84644524D01*
X137611726Y-84638980D01*
X137594892Y-84629982D01*
X137580132Y-84617868D01*
X137568018Y-84603108D01*
X137559020Y-84586274D01*
X137553476Y-84567997D01*
X137551000Y-84542860D01*
X137551000Y-84109140D01*
X137553476Y-84084003D01*
X137559020Y-84065726D01*
X137568018Y-84048892D01*
X137580132Y-84034132D01*
X137594892Y-84022018D01*
X137611726Y-84013020D01*
X137630003Y-84007476D01*
X137655140Y-84005000D01*
X138188860Y-84005000D01*
X138213997Y-84007476D01*
G37*
G36*
X143293997Y-84007476D02*
G01*
X143312274Y-84013020D01*
X143329108Y-84022018D01*
X143343868Y-84034132D01*
X143355982Y-84048892D01*
X143364980Y-84065726D01*
X143370524Y-84084003D01*
X143373000Y-84109140D01*
X143373000Y-84542860D01*
X143370524Y-84567997D01*
X143364980Y-84586274D01*
X143355982Y-84603108D01*
X143343868Y-84617868D01*
X143329108Y-84629982D01*
X143312274Y-84638980D01*
X143293997Y-84644524D01*
X143268860Y-84647000D01*
X142735140Y-84647000D01*
X142710003Y-84644524D01*
X142691726Y-84638980D01*
X142674892Y-84629982D01*
X142660132Y-84617868D01*
X142648018Y-84603108D01*
X142639020Y-84586274D01*
X142633476Y-84567997D01*
X142631000Y-84542860D01*
X142631000Y-84109140D01*
X142633476Y-84084003D01*
X142639020Y-84065726D01*
X142648018Y-84048892D01*
X142660132Y-84034132D01*
X142674892Y-84022018D01*
X142691726Y-84013020D01*
X142710003Y-84007476D01*
X142735140Y-84005000D01*
X143268860Y-84005000D01*
X143293997Y-84007476D01*
G37*
G36*
X148373997Y-84007476D02*
G01*
X148392274Y-84013020D01*
X148409108Y-84022018D01*
X148423868Y-84034132D01*
X148435982Y-84048892D01*
X148444980Y-84065726D01*
X148450524Y-84084003D01*
X148453000Y-84109140D01*
X148453000Y-84542860D01*
X148450524Y-84567997D01*
X148444980Y-84586274D01*
X148435982Y-84603108D01*
X148423868Y-84617868D01*
X148409108Y-84629982D01*
X148392274Y-84638980D01*
X148373997Y-84644524D01*
X148348860Y-84647000D01*
X147815140Y-84647000D01*
X147790003Y-84644524D01*
X147771726Y-84638980D01*
X147754892Y-84629982D01*
X147740132Y-84617868D01*
X147728018Y-84603108D01*
X147719020Y-84586274D01*
X147713476Y-84567997D01*
X147711000Y-84542860D01*
X147711000Y-84109140D01*
X147713476Y-84084003D01*
X147719020Y-84065726D01*
X147728018Y-84048892D01*
X147740132Y-84034132D01*
X147754892Y-84022018D01*
X147771726Y-84013020D01*
X147790003Y-84007476D01*
X147815140Y-84005000D01*
X148348860Y-84005000D01*
X148373997Y-84007476D01*
G37*
G36*
X153453997Y-84007476D02*
G01*
X153472274Y-84013020D01*
X153489108Y-84022018D01*
X153503868Y-84034132D01*
X153515982Y-84048892D01*
X153524980Y-84065726D01*
X153530524Y-84084003D01*
X153533000Y-84109140D01*
X153533000Y-84542860D01*
X153530524Y-84567997D01*
X153524980Y-84586274D01*
X153515982Y-84603108D01*
X153503868Y-84617868D01*
X153489108Y-84629982D01*
X153472274Y-84638980D01*
X153453997Y-84644524D01*
X153428860Y-84647000D01*
X152895140Y-84647000D01*
X152870003Y-84644524D01*
X152851726Y-84638980D01*
X152834892Y-84629982D01*
X152820132Y-84617868D01*
X152808018Y-84603108D01*
X152799020Y-84586274D01*
X152793476Y-84567997D01*
X152791000Y-84542860D01*
X152791000Y-84109140D01*
X152793476Y-84084003D01*
X152799020Y-84065726D01*
X152808018Y-84048892D01*
X152820132Y-84034132D01*
X152834892Y-84022018D01*
X152851726Y-84013020D01*
X152870003Y-84007476D01*
X152895140Y-84005000D01*
X153428860Y-84005000D01*
X153453997Y-84007476D01*
G37*
G36*
X87921997Y-84007476D02*
G01*
X87940274Y-84013020D01*
X87957108Y-84022018D01*
X87971868Y-84034132D01*
X87983982Y-84048892D01*
X87992980Y-84065726D01*
X87998524Y-84084003D01*
X88001000Y-84109140D01*
X88001000Y-84542860D01*
X87998524Y-84567997D01*
X87992980Y-84586274D01*
X87983982Y-84603108D01*
X87971868Y-84617868D01*
X87957108Y-84629982D01*
X87940274Y-84638980D01*
X87921997Y-84644524D01*
X87896860Y-84647000D01*
X87363140Y-84647000D01*
X87338003Y-84644524D01*
X87319726Y-84638980D01*
X87302892Y-84629982D01*
X87288132Y-84617868D01*
X87276018Y-84603108D01*
X87267020Y-84586274D01*
X87261476Y-84567997D01*
X87259000Y-84542860D01*
X87259000Y-84109140D01*
X87261476Y-84084003D01*
X87267020Y-84065726D01*
X87276018Y-84048892D01*
X87288132Y-84034132D01*
X87302892Y-84022018D01*
X87319726Y-84013020D01*
X87338003Y-84007476D01*
X87363140Y-84005000D01*
X87896860Y-84005000D01*
X87921997Y-84007476D01*
G37*
G36*
X72681997Y-84007476D02*
G01*
X72700274Y-84013020D01*
X72717108Y-84022018D01*
X72731868Y-84034132D01*
X72743982Y-84048892D01*
X72752980Y-84065726D01*
X72758524Y-84084003D01*
X72761000Y-84109140D01*
X72761000Y-84542860D01*
X72758524Y-84567997D01*
X72752980Y-84586274D01*
X72743982Y-84603108D01*
X72731868Y-84617868D01*
X72717108Y-84629982D01*
X72700274Y-84638980D01*
X72681997Y-84644524D01*
X72656860Y-84647000D01*
X72123140Y-84647000D01*
X72098003Y-84644524D01*
X72079726Y-84638980D01*
X72062892Y-84629982D01*
X72048132Y-84617868D01*
X72036018Y-84603108D01*
X72027020Y-84586274D01*
X72021476Y-84567997D01*
X72019000Y-84542860D01*
X72019000Y-84109140D01*
X72021476Y-84084003D01*
X72027020Y-84065726D01*
X72036018Y-84048892D01*
X72048132Y-84034132D01*
X72062892Y-84022018D01*
X72079726Y-84013020D01*
X72098003Y-84007476D01*
X72123140Y-84005000D01*
X72656860Y-84005000D01*
X72681997Y-84007476D01*
G37*
G36*
X121957997Y-84007476D02*
G01*
X121976274Y-84013020D01*
X121993108Y-84022018D01*
X122007868Y-84034132D01*
X122019982Y-84048892D01*
X122028980Y-84065726D01*
X122034524Y-84084003D01*
X122037000Y-84109140D01*
X122037000Y-84542860D01*
X122034524Y-84567997D01*
X122028980Y-84586274D01*
X122019982Y-84603108D01*
X122007868Y-84617868D01*
X121993108Y-84629982D01*
X121976274Y-84638980D01*
X121957997Y-84644524D01*
X121932860Y-84647000D01*
X121399140Y-84647000D01*
X121374003Y-84644524D01*
X121355726Y-84638980D01*
X121338892Y-84629982D01*
X121324132Y-84617868D01*
X121312018Y-84603108D01*
X121303020Y-84586274D01*
X121297476Y-84567997D01*
X121295000Y-84542860D01*
X121295000Y-84109140D01*
X121297476Y-84084003D01*
X121303020Y-84065726D01*
X121312018Y-84048892D01*
X121324132Y-84034132D01*
X121338892Y-84022018D01*
X121355726Y-84013020D01*
X121374003Y-84007476D01*
X121399140Y-84005000D01*
X121932860Y-84005000D01*
X121957997Y-84007476D01*
G37*
G36*
X102475512Y-73398927D02*
G01*
X102624812Y-73428624D01*
X102788784Y-73496544D01*
X102936354Y-73595147D01*
X103061853Y-73720646D01*
X103160456Y-73868216D01*
X103228376Y-74032188D01*
X103263000Y-74206259D01*
X103263000Y-74383741D01*
X103228376Y-74557812D01*
X103160456Y-74721784D01*
X103061853Y-74869354D01*
X102936354Y-74994853D01*
X102788784Y-75093456D01*
X102624812Y-75161376D01*
X102475512Y-75191073D01*
X102450742Y-75196000D01*
X102273258Y-75196000D01*
X102248488Y-75191073D01*
X102099188Y-75161376D01*
X101935216Y-75093456D01*
X101787646Y-74994853D01*
X101662147Y-74869354D01*
X101563544Y-74721784D01*
X101495624Y-74557812D01*
X101461000Y-74383741D01*
X101461000Y-74206259D01*
X101495624Y-74032188D01*
X101563544Y-73868216D01*
X101662147Y-73720646D01*
X101787646Y-73595147D01*
X101935216Y-73496544D01*
X102099188Y-73428624D01*
X102248488Y-73398927D01*
X102273258Y-73394000D01*
X102450742Y-73394000D01*
X102475512Y-73398927D01*
G37*
G36*
X97395512Y-73398927D02*
G01*
X97544812Y-73428624D01*
X97708784Y-73496544D01*
X97856354Y-73595147D01*
X97981853Y-73720646D01*
X98080456Y-73868216D01*
X98148376Y-74032188D01*
X98183000Y-74206259D01*
X98183000Y-74383741D01*
X98148376Y-74557812D01*
X98080456Y-74721784D01*
X97981853Y-74869354D01*
X97856354Y-74994853D01*
X97708784Y-75093456D01*
X97544812Y-75161376D01*
X97395512Y-75191073D01*
X97370742Y-75196000D01*
X97193258Y-75196000D01*
X97168488Y-75191073D01*
X97019188Y-75161376D01*
X96855216Y-75093456D01*
X96707646Y-74994853D01*
X96582147Y-74869354D01*
X96483544Y-74721784D01*
X96415624Y-74557812D01*
X96381000Y-74383741D01*
X96381000Y-74206259D01*
X96415624Y-74032188D01*
X96483544Y-73868216D01*
X96582147Y-73720646D01*
X96707646Y-73595147D01*
X96855216Y-73496544D01*
X97019188Y-73428624D01*
X97168488Y-73398927D01*
X97193258Y-73394000D01*
X97370742Y-73394000D01*
X97395512Y-73398927D01*
G37*
G36*
X94855512Y-73398927D02*
G01*
X95004812Y-73428624D01*
X95168784Y-73496544D01*
X95316354Y-73595147D01*
X95441853Y-73720646D01*
X95540456Y-73868216D01*
X95608376Y-74032188D01*
X95643000Y-74206259D01*
X95643000Y-74383741D01*
X95608376Y-74557812D01*
X95540456Y-74721784D01*
X95441853Y-74869354D01*
X95316354Y-74994853D01*
X95168784Y-75093456D01*
X95004812Y-75161376D01*
X94855512Y-75191073D01*
X94830742Y-75196000D01*
X94653258Y-75196000D01*
X94628488Y-75191073D01*
X94479188Y-75161376D01*
X94315216Y-75093456D01*
X94167646Y-74994853D01*
X94042147Y-74869354D01*
X93943544Y-74721784D01*
X93875624Y-74557812D01*
X93841000Y-74383741D01*
X93841000Y-74206259D01*
X93875624Y-74032188D01*
X93943544Y-73868216D01*
X94042147Y-73720646D01*
X94167646Y-73595147D01*
X94315216Y-73496544D01*
X94479188Y-73428624D01*
X94628488Y-73398927D01*
X94653258Y-73394000D01*
X94830742Y-73394000D01*
X94855512Y-73398927D01*
G37*
G36*
X92315512Y-73398927D02*
G01*
X92464812Y-73428624D01*
X92628784Y-73496544D01*
X92776354Y-73595147D01*
X92901853Y-73720646D01*
X93000456Y-73868216D01*
X93068376Y-74032188D01*
X93103000Y-74206259D01*
X93103000Y-74383741D01*
X93068376Y-74557812D01*
X93000456Y-74721784D01*
X92901853Y-74869354D01*
X92776354Y-74994853D01*
X92628784Y-75093456D01*
X92464812Y-75161376D01*
X92315512Y-75191073D01*
X92290742Y-75196000D01*
X92113258Y-75196000D01*
X92088488Y-75191073D01*
X91939188Y-75161376D01*
X91775216Y-75093456D01*
X91627646Y-74994853D01*
X91502147Y-74869354D01*
X91403544Y-74721784D01*
X91335624Y-74557812D01*
X91301000Y-74383741D01*
X91301000Y-74206259D01*
X91335624Y-74032188D01*
X91403544Y-73868216D01*
X91502147Y-73720646D01*
X91627646Y-73595147D01*
X91775216Y-73496544D01*
X91939188Y-73428624D01*
X92088488Y-73398927D01*
X92113258Y-73394000D01*
X92290742Y-73394000D01*
X92315512Y-73398927D01*
G37*
G36*
X89775512Y-73398927D02*
G01*
X89924812Y-73428624D01*
X90088784Y-73496544D01*
X90236354Y-73595147D01*
X90361853Y-73720646D01*
X90460456Y-73868216D01*
X90528376Y-74032188D01*
X90563000Y-74206259D01*
X90563000Y-74383741D01*
X90528376Y-74557812D01*
X90460456Y-74721784D01*
X90361853Y-74869354D01*
X90236354Y-74994853D01*
X90088784Y-75093456D01*
X89924812Y-75161376D01*
X89775512Y-75191073D01*
X89750742Y-75196000D01*
X89573258Y-75196000D01*
X89548488Y-75191073D01*
X89399188Y-75161376D01*
X89235216Y-75093456D01*
X89087646Y-74994853D01*
X88962147Y-74869354D01*
X88863544Y-74721784D01*
X88795624Y-74557812D01*
X88761000Y-74383741D01*
X88761000Y-74206259D01*
X88795624Y-74032188D01*
X88863544Y-73868216D01*
X88962147Y-73720646D01*
X89087646Y-73595147D01*
X89235216Y-73496544D01*
X89399188Y-73428624D01*
X89548488Y-73398927D01*
X89573258Y-73394000D01*
X89750742Y-73394000D01*
X89775512Y-73398927D01*
G37*
G36*
X88023000Y-75196000D02*
G01*
X86221000Y-75196000D01*
X86221000Y-73394000D01*
X88023000Y-73394000D01*
X88023000Y-75196000D01*
G37*
G36*
X113423000Y-75196000D02*
G01*
X111621000Y-75196000D01*
X111621000Y-73394000D01*
X113423000Y-73394000D01*
X113423000Y-75196000D01*
G37*
G36*
X115175512Y-73398927D02*
G01*
X115324812Y-73428624D01*
X115488784Y-73496544D01*
X115636354Y-73595147D01*
X115761853Y-73720646D01*
X115860456Y-73868216D01*
X115928376Y-74032188D01*
X115963000Y-74206259D01*
X115963000Y-74383741D01*
X115928376Y-74557812D01*
X115860456Y-74721784D01*
X115761853Y-74869354D01*
X115636354Y-74994853D01*
X115488784Y-75093456D01*
X115324812Y-75161376D01*
X115175512Y-75191073D01*
X115150742Y-75196000D01*
X114973258Y-75196000D01*
X114948488Y-75191073D01*
X114799188Y-75161376D01*
X114635216Y-75093456D01*
X114487646Y-74994853D01*
X114362147Y-74869354D01*
X114263544Y-74721784D01*
X114195624Y-74557812D01*
X114161000Y-74383741D01*
X114161000Y-74206259D01*
X114195624Y-74032188D01*
X114263544Y-73868216D01*
X114362147Y-73720646D01*
X114487646Y-73595147D01*
X114635216Y-73496544D01*
X114799188Y-73428624D01*
X114948488Y-73398927D01*
X114973258Y-73394000D01*
X115150742Y-73394000D01*
X115175512Y-73398927D01*
G37*
G36*
X117715512Y-73398927D02*
G01*
X117864812Y-73428624D01*
X118028784Y-73496544D01*
X118176354Y-73595147D01*
X118301853Y-73720646D01*
X118400456Y-73868216D01*
X118468376Y-74032188D01*
X118503000Y-74206259D01*
X118503000Y-74383741D01*
X118468376Y-74557812D01*
X118400456Y-74721784D01*
X118301853Y-74869354D01*
X118176354Y-74994853D01*
X118028784Y-75093456D01*
X117864812Y-75161376D01*
X117715512Y-75191073D01*
X117690742Y-75196000D01*
X117513258Y-75196000D01*
X117488488Y-75191073D01*
X117339188Y-75161376D01*
X117175216Y-75093456D01*
X117027646Y-74994853D01*
X116902147Y-74869354D01*
X116803544Y-74721784D01*
X116735624Y-74557812D01*
X116701000Y-74383741D01*
X116701000Y-74206259D01*
X116735624Y-74032188D01*
X116803544Y-73868216D01*
X116902147Y-73720646D01*
X117027646Y-73595147D01*
X117175216Y-73496544D01*
X117339188Y-73428624D01*
X117488488Y-73398927D01*
X117513258Y-73394000D01*
X117690742Y-73394000D01*
X117715512Y-73398927D01*
G37*
G36*
X120255512Y-73398927D02*
G01*
X120404812Y-73428624D01*
X120568784Y-73496544D01*
X120716354Y-73595147D01*
X120841853Y-73720646D01*
X120940456Y-73868216D01*
X121008376Y-74032188D01*
X121043000Y-74206259D01*
X121043000Y-74383741D01*
X121008376Y-74557812D01*
X120940456Y-74721784D01*
X120841853Y-74869354D01*
X120716354Y-74994853D01*
X120568784Y-75093456D01*
X120404812Y-75161376D01*
X120255512Y-75191073D01*
X120230742Y-75196000D01*
X120053258Y-75196000D01*
X120028488Y-75191073D01*
X119879188Y-75161376D01*
X119715216Y-75093456D01*
X119567646Y-74994853D01*
X119442147Y-74869354D01*
X119343544Y-74721784D01*
X119275624Y-74557812D01*
X119241000Y-74383741D01*
X119241000Y-74206259D01*
X119275624Y-74032188D01*
X119343544Y-73868216D01*
X119442147Y-73720646D01*
X119567646Y-73595147D01*
X119715216Y-73496544D01*
X119879188Y-73428624D01*
X120028488Y-73398927D01*
X120053258Y-73394000D01*
X120230742Y-73394000D01*
X120255512Y-73398927D01*
G37*
G36*
X122795512Y-73398927D02*
G01*
X122944812Y-73428624D01*
X123108784Y-73496544D01*
X123256354Y-73595147D01*
X123381853Y-73720646D01*
X123480456Y-73868216D01*
X123548376Y-74032188D01*
X123583000Y-74206259D01*
X123583000Y-74383741D01*
X123548376Y-74557812D01*
X123480456Y-74721784D01*
X123381853Y-74869354D01*
X123256354Y-74994853D01*
X123108784Y-75093456D01*
X122944812Y-75161376D01*
X122795512Y-75191073D01*
X122770742Y-75196000D01*
X122593258Y-75196000D01*
X122568488Y-75191073D01*
X122419188Y-75161376D01*
X122255216Y-75093456D01*
X122107646Y-74994853D01*
X121982147Y-74869354D01*
X121883544Y-74721784D01*
X121815624Y-74557812D01*
X121781000Y-74383741D01*
X121781000Y-74206259D01*
X121815624Y-74032188D01*
X121883544Y-73868216D01*
X121982147Y-73720646D01*
X122107646Y-73595147D01*
X122255216Y-73496544D01*
X122419188Y-73428624D01*
X122568488Y-73398927D01*
X122593258Y-73394000D01*
X122770742Y-73394000D01*
X122795512Y-73398927D01*
G37*
G36*
X125335512Y-73398927D02*
G01*
X125484812Y-73428624D01*
X125648784Y-73496544D01*
X125796354Y-73595147D01*
X125921853Y-73720646D01*
X126020456Y-73868216D01*
X126088376Y-74032188D01*
X126123000Y-74206259D01*
X126123000Y-74383741D01*
X126088376Y-74557812D01*
X126020456Y-74721784D01*
X125921853Y-74869354D01*
X125796354Y-74994853D01*
X125648784Y-75093456D01*
X125484812Y-75161376D01*
X125335512Y-75191073D01*
X125310742Y-75196000D01*
X125133258Y-75196000D01*
X125108488Y-75191073D01*
X124959188Y-75161376D01*
X124795216Y-75093456D01*
X124647646Y-74994853D01*
X124522147Y-74869354D01*
X124423544Y-74721784D01*
X124355624Y-74557812D01*
X124321000Y-74383741D01*
X124321000Y-74206259D01*
X124355624Y-74032188D01*
X124423544Y-73868216D01*
X124522147Y-73720646D01*
X124647646Y-73595147D01*
X124795216Y-73496544D01*
X124959188Y-73428624D01*
X125108488Y-73398927D01*
X125133258Y-73394000D01*
X125310742Y-73394000D01*
X125335512Y-73398927D01*
G37*
G36*
X127875512Y-73398927D02*
G01*
X128024812Y-73428624D01*
X128188784Y-73496544D01*
X128336354Y-73595147D01*
X128461853Y-73720646D01*
X128560456Y-73868216D01*
X128628376Y-74032188D01*
X128663000Y-74206259D01*
X128663000Y-74383741D01*
X128628376Y-74557812D01*
X128560456Y-74721784D01*
X128461853Y-74869354D01*
X128336354Y-74994853D01*
X128188784Y-75093456D01*
X128024812Y-75161376D01*
X127875512Y-75191073D01*
X127850742Y-75196000D01*
X127673258Y-75196000D01*
X127648488Y-75191073D01*
X127499188Y-75161376D01*
X127335216Y-75093456D01*
X127187646Y-74994853D01*
X127062147Y-74869354D01*
X126963544Y-74721784D01*
X126895624Y-74557812D01*
X126861000Y-74383741D01*
X126861000Y-74206259D01*
X126895624Y-74032188D01*
X126963544Y-73868216D01*
X127062147Y-73720646D01*
X127187646Y-73595147D01*
X127335216Y-73496544D01*
X127499188Y-73428624D01*
X127648488Y-73398927D01*
X127673258Y-73394000D01*
X127850742Y-73394000D01*
X127875512Y-73398927D01*
G37*
G36*
X138823000Y-75196000D02*
G01*
X137021000Y-75196000D01*
X137021000Y-73394000D01*
X138823000Y-73394000D01*
X138823000Y-75196000D01*
G37*
G36*
X140575512Y-73398927D02*
G01*
X140724812Y-73428624D01*
X140888784Y-73496544D01*
X141036354Y-73595147D01*
X141161853Y-73720646D01*
X141260456Y-73868216D01*
X141328376Y-74032188D01*
X141363000Y-74206259D01*
X141363000Y-74383741D01*
X141328376Y-74557812D01*
X141260456Y-74721784D01*
X141161853Y-74869354D01*
X141036354Y-74994853D01*
X140888784Y-75093456D01*
X140724812Y-75161376D01*
X140575512Y-75191073D01*
X140550742Y-75196000D01*
X140373258Y-75196000D01*
X140348488Y-75191073D01*
X140199188Y-75161376D01*
X140035216Y-75093456D01*
X139887646Y-74994853D01*
X139762147Y-74869354D01*
X139663544Y-74721784D01*
X139595624Y-74557812D01*
X139561000Y-74383741D01*
X139561000Y-74206259D01*
X139595624Y-74032188D01*
X139663544Y-73868216D01*
X139762147Y-73720646D01*
X139887646Y-73595147D01*
X140035216Y-73496544D01*
X140199188Y-73428624D01*
X140348488Y-73398927D01*
X140373258Y-73394000D01*
X140550742Y-73394000D01*
X140575512Y-73398927D01*
G37*
G36*
X99935512Y-73398927D02*
G01*
X100084812Y-73428624D01*
X100248784Y-73496544D01*
X100396354Y-73595147D01*
X100521853Y-73720646D01*
X100620456Y-73868216D01*
X100688376Y-74032188D01*
X100723000Y-74206259D01*
X100723000Y-74383741D01*
X100688376Y-74557812D01*
X100620456Y-74721784D01*
X100521853Y-74869354D01*
X100396354Y-74994853D01*
X100248784Y-75093456D01*
X100084812Y-75161376D01*
X99935512Y-75191073D01*
X99910742Y-75196000D01*
X99733258Y-75196000D01*
X99708488Y-75191073D01*
X99559188Y-75161376D01*
X99395216Y-75093456D01*
X99247646Y-74994853D01*
X99122147Y-74869354D01*
X99023544Y-74721784D01*
X98955624Y-74557812D01*
X98921000Y-74383741D01*
X98921000Y-74206259D01*
X98955624Y-74032188D01*
X99023544Y-73868216D01*
X99122147Y-73720646D01*
X99247646Y-73595147D01*
X99395216Y-73496544D01*
X99559188Y-73428624D01*
X99708488Y-73398927D01*
X99733258Y-73394000D01*
X99910742Y-73394000D01*
X99935512Y-73398927D01*
G37*
G36*
X62623000Y-75196000D02*
G01*
X60821000Y-75196000D01*
X60821000Y-73394000D01*
X62623000Y-73394000D01*
X62623000Y-75196000D01*
G37*
G36*
X64375512Y-73398927D02*
G01*
X64524812Y-73428624D01*
X64688784Y-73496544D01*
X64836354Y-73595147D01*
X64961853Y-73720646D01*
X65060456Y-73868216D01*
X65128376Y-74032188D01*
X65163000Y-74206259D01*
X65163000Y-74383741D01*
X65128376Y-74557812D01*
X65060456Y-74721784D01*
X64961853Y-74869354D01*
X64836354Y-74994853D01*
X64688784Y-75093456D01*
X64524812Y-75161376D01*
X64375512Y-75191073D01*
X64350742Y-75196000D01*
X64173258Y-75196000D01*
X64148488Y-75191073D01*
X63999188Y-75161376D01*
X63835216Y-75093456D01*
X63687646Y-74994853D01*
X63562147Y-74869354D01*
X63463544Y-74721784D01*
X63395624Y-74557812D01*
X63361000Y-74383741D01*
X63361000Y-74206259D01*
X63395624Y-74032188D01*
X63463544Y-73868216D01*
X63562147Y-73720646D01*
X63687646Y-73595147D01*
X63835216Y-73496544D01*
X63999188Y-73428624D01*
X64148488Y-73398927D01*
X64173258Y-73394000D01*
X64350742Y-73394000D01*
X64375512Y-73398927D01*
G37*
G36*
X66915512Y-73398927D02*
G01*
X67064812Y-73428624D01*
X67228784Y-73496544D01*
X67376354Y-73595147D01*
X67501853Y-73720646D01*
X67600456Y-73868216D01*
X67668376Y-74032188D01*
X67703000Y-74206259D01*
X67703000Y-74383741D01*
X67668376Y-74557812D01*
X67600456Y-74721784D01*
X67501853Y-74869354D01*
X67376354Y-74994853D01*
X67228784Y-75093456D01*
X67064812Y-75161376D01*
X66915512Y-75191073D01*
X66890742Y-75196000D01*
X66713258Y-75196000D01*
X66688488Y-75191073D01*
X66539188Y-75161376D01*
X66375216Y-75093456D01*
X66227646Y-74994853D01*
X66102147Y-74869354D01*
X66003544Y-74721784D01*
X65935624Y-74557812D01*
X65901000Y-74383741D01*
X65901000Y-74206259D01*
X65935624Y-74032188D01*
X66003544Y-73868216D01*
X66102147Y-73720646D01*
X66227646Y-73595147D01*
X66375216Y-73496544D01*
X66539188Y-73428624D01*
X66688488Y-73398927D01*
X66713258Y-73394000D01*
X66890742Y-73394000D01*
X66915512Y-73398927D01*
G37*
G36*
X69455512Y-73398927D02*
G01*
X69604812Y-73428624D01*
X69768784Y-73496544D01*
X69916354Y-73595147D01*
X70041853Y-73720646D01*
X70140456Y-73868216D01*
X70208376Y-74032188D01*
X70243000Y-74206259D01*
X70243000Y-74383741D01*
X70208376Y-74557812D01*
X70140456Y-74721784D01*
X70041853Y-74869354D01*
X69916354Y-74994853D01*
X69768784Y-75093456D01*
X69604812Y-75161376D01*
X69455512Y-75191073D01*
X69430742Y-75196000D01*
X69253258Y-75196000D01*
X69228488Y-75191073D01*
X69079188Y-75161376D01*
X68915216Y-75093456D01*
X68767646Y-74994853D01*
X68642147Y-74869354D01*
X68543544Y-74721784D01*
X68475624Y-74557812D01*
X68441000Y-74383741D01*
X68441000Y-74206259D01*
X68475624Y-74032188D01*
X68543544Y-73868216D01*
X68642147Y-73720646D01*
X68767646Y-73595147D01*
X68915216Y-73496544D01*
X69079188Y-73428624D01*
X69228488Y-73398927D01*
X69253258Y-73394000D01*
X69430742Y-73394000D01*
X69455512Y-73398927D01*
G37*
G36*
X71995512Y-73398927D02*
G01*
X72144812Y-73428624D01*
X72308784Y-73496544D01*
X72456354Y-73595147D01*
X72581853Y-73720646D01*
X72680456Y-73868216D01*
X72748376Y-74032188D01*
X72783000Y-74206259D01*
X72783000Y-74383741D01*
X72748376Y-74557812D01*
X72680456Y-74721784D01*
X72581853Y-74869354D01*
X72456354Y-74994853D01*
X72308784Y-75093456D01*
X72144812Y-75161376D01*
X71995512Y-75191073D01*
X71970742Y-75196000D01*
X71793258Y-75196000D01*
X71768488Y-75191073D01*
X71619188Y-75161376D01*
X71455216Y-75093456D01*
X71307646Y-74994853D01*
X71182147Y-74869354D01*
X71083544Y-74721784D01*
X71015624Y-74557812D01*
X70981000Y-74383741D01*
X70981000Y-74206259D01*
X71015624Y-74032188D01*
X71083544Y-73868216D01*
X71182147Y-73720646D01*
X71307646Y-73595147D01*
X71455216Y-73496544D01*
X71619188Y-73428624D01*
X71768488Y-73398927D01*
X71793258Y-73394000D01*
X71970742Y-73394000D01*
X71995512Y-73398927D01*
G37*
G36*
X74535512Y-73398927D02*
G01*
X74684812Y-73428624D01*
X74848784Y-73496544D01*
X74996354Y-73595147D01*
X75121853Y-73720646D01*
X75220456Y-73868216D01*
X75288376Y-74032188D01*
X75323000Y-74206259D01*
X75323000Y-74383741D01*
X75288376Y-74557812D01*
X75220456Y-74721784D01*
X75121853Y-74869354D01*
X74996354Y-74994853D01*
X74848784Y-75093456D01*
X74684812Y-75161376D01*
X74535512Y-75191073D01*
X74510742Y-75196000D01*
X74333258Y-75196000D01*
X74308488Y-75191073D01*
X74159188Y-75161376D01*
X73995216Y-75093456D01*
X73847646Y-74994853D01*
X73722147Y-74869354D01*
X73623544Y-74721784D01*
X73555624Y-74557812D01*
X73521000Y-74383741D01*
X73521000Y-74206259D01*
X73555624Y-74032188D01*
X73623544Y-73868216D01*
X73722147Y-73720646D01*
X73847646Y-73595147D01*
X73995216Y-73496544D01*
X74159188Y-73428624D01*
X74308488Y-73398927D01*
X74333258Y-73394000D01*
X74510742Y-73394000D01*
X74535512Y-73398927D01*
G37*
G36*
X77075512Y-73398927D02*
G01*
X77224812Y-73428624D01*
X77388784Y-73496544D01*
X77536354Y-73595147D01*
X77661853Y-73720646D01*
X77760456Y-73868216D01*
X77828376Y-74032188D01*
X77863000Y-74206259D01*
X77863000Y-74383741D01*
X77828376Y-74557812D01*
X77760456Y-74721784D01*
X77661853Y-74869354D01*
X77536354Y-74994853D01*
X77388784Y-75093456D01*
X77224812Y-75161376D01*
X77075512Y-75191073D01*
X77050742Y-75196000D01*
X76873258Y-75196000D01*
X76848488Y-75191073D01*
X76699188Y-75161376D01*
X76535216Y-75093456D01*
X76387646Y-74994853D01*
X76262147Y-74869354D01*
X76163544Y-74721784D01*
X76095624Y-74557812D01*
X76061000Y-74383741D01*
X76061000Y-74206259D01*
X76095624Y-74032188D01*
X76163544Y-73868216D01*
X76262147Y-73720646D01*
X76387646Y-73595147D01*
X76535216Y-73496544D01*
X76699188Y-73428624D01*
X76848488Y-73398927D01*
X76873258Y-73394000D01*
X77050742Y-73394000D01*
X77075512Y-73398927D01*
G37*
G36*
X153275512Y-73398927D02*
G01*
X153424812Y-73428624D01*
X153588784Y-73496544D01*
X153736354Y-73595147D01*
X153861853Y-73720646D01*
X153960456Y-73868216D01*
X154028376Y-74032188D01*
X154063000Y-74206259D01*
X154063000Y-74383741D01*
X154028376Y-74557812D01*
X153960456Y-74721784D01*
X153861853Y-74869354D01*
X153736354Y-74994853D01*
X153588784Y-75093456D01*
X153424812Y-75161376D01*
X153275512Y-75191073D01*
X153250742Y-75196000D01*
X153073258Y-75196000D01*
X153048488Y-75191073D01*
X152899188Y-75161376D01*
X152735216Y-75093456D01*
X152587646Y-74994853D01*
X152462147Y-74869354D01*
X152363544Y-74721784D01*
X152295624Y-74557812D01*
X152261000Y-74383741D01*
X152261000Y-74206259D01*
X152295624Y-74032188D01*
X152363544Y-73868216D01*
X152462147Y-73720646D01*
X152587646Y-73595147D01*
X152735216Y-73496544D01*
X152899188Y-73428624D01*
X153048488Y-73398927D01*
X153073258Y-73394000D01*
X153250742Y-73394000D01*
X153275512Y-73398927D01*
G37*
G36*
X150735512Y-73398927D02*
G01*
X150884812Y-73428624D01*
X151048784Y-73496544D01*
X151196354Y-73595147D01*
X151321853Y-73720646D01*
X151420456Y-73868216D01*
X151488376Y-74032188D01*
X151523000Y-74206259D01*
X151523000Y-74383741D01*
X151488376Y-74557812D01*
X151420456Y-74721784D01*
X151321853Y-74869354D01*
X151196354Y-74994853D01*
X151048784Y-75093456D01*
X150884812Y-75161376D01*
X150735512Y-75191073D01*
X150710742Y-75196000D01*
X150533258Y-75196000D01*
X150508488Y-75191073D01*
X150359188Y-75161376D01*
X150195216Y-75093456D01*
X150047646Y-74994853D01*
X149922147Y-74869354D01*
X149823544Y-74721784D01*
X149755624Y-74557812D01*
X149721000Y-74383741D01*
X149721000Y-74206259D01*
X149755624Y-74032188D01*
X149823544Y-73868216D01*
X149922147Y-73720646D01*
X150047646Y-73595147D01*
X150195216Y-73496544D01*
X150359188Y-73428624D01*
X150508488Y-73398927D01*
X150533258Y-73394000D01*
X150710742Y-73394000D01*
X150735512Y-73398927D01*
G37*
G36*
X148195512Y-73398927D02*
G01*
X148344812Y-73428624D01*
X148508784Y-73496544D01*
X148656354Y-73595147D01*
X148781853Y-73720646D01*
X148880456Y-73868216D01*
X148948376Y-74032188D01*
X148983000Y-74206259D01*
X148983000Y-74383741D01*
X148948376Y-74557812D01*
X148880456Y-74721784D01*
X148781853Y-74869354D01*
X148656354Y-74994853D01*
X148508784Y-75093456D01*
X148344812Y-75161376D01*
X148195512Y-75191073D01*
X148170742Y-75196000D01*
X147993258Y-75196000D01*
X147968488Y-75191073D01*
X147819188Y-75161376D01*
X147655216Y-75093456D01*
X147507646Y-74994853D01*
X147382147Y-74869354D01*
X147283544Y-74721784D01*
X147215624Y-74557812D01*
X147181000Y-74383741D01*
X147181000Y-74206259D01*
X147215624Y-74032188D01*
X147283544Y-73868216D01*
X147382147Y-73720646D01*
X147507646Y-73595147D01*
X147655216Y-73496544D01*
X147819188Y-73428624D01*
X147968488Y-73398927D01*
X147993258Y-73394000D01*
X148170742Y-73394000D01*
X148195512Y-73398927D01*
G37*
G36*
X145655512Y-73398927D02*
G01*
X145804812Y-73428624D01*
X145968784Y-73496544D01*
X146116354Y-73595147D01*
X146241853Y-73720646D01*
X146340456Y-73868216D01*
X146408376Y-74032188D01*
X146443000Y-74206259D01*
X146443000Y-74383741D01*
X146408376Y-74557812D01*
X146340456Y-74721784D01*
X146241853Y-74869354D01*
X146116354Y-74994853D01*
X145968784Y-75093456D01*
X145804812Y-75161376D01*
X145655512Y-75191073D01*
X145630742Y-75196000D01*
X145453258Y-75196000D01*
X145428488Y-75191073D01*
X145279188Y-75161376D01*
X145115216Y-75093456D01*
X144967646Y-74994853D01*
X144842147Y-74869354D01*
X144743544Y-74721784D01*
X144675624Y-74557812D01*
X144641000Y-74383741D01*
X144641000Y-74206259D01*
X144675624Y-74032188D01*
X144743544Y-73868216D01*
X144842147Y-73720646D01*
X144967646Y-73595147D01*
X145115216Y-73496544D01*
X145279188Y-73428624D01*
X145428488Y-73398927D01*
X145453258Y-73394000D01*
X145630742Y-73394000D01*
X145655512Y-73398927D01*
G37*
G36*
X143115512Y-73398927D02*
G01*
X143264812Y-73428624D01*
X143428784Y-73496544D01*
X143576354Y-73595147D01*
X143701853Y-73720646D01*
X143800456Y-73868216D01*
X143868376Y-74032188D01*
X143903000Y-74206259D01*
X143903000Y-74383741D01*
X143868376Y-74557812D01*
X143800456Y-74721784D01*
X143701853Y-74869354D01*
X143576354Y-74994853D01*
X143428784Y-75093456D01*
X143264812Y-75161376D01*
X143115512Y-75191073D01*
X143090742Y-75196000D01*
X142913258Y-75196000D01*
X142888488Y-75191073D01*
X142739188Y-75161376D01*
X142575216Y-75093456D01*
X142427646Y-74994853D01*
X142302147Y-74869354D01*
X142203544Y-74721784D01*
X142135624Y-74557812D01*
X142101000Y-74383741D01*
X142101000Y-74206259D01*
X142135624Y-74032188D01*
X142203544Y-73868216D01*
X142302147Y-73720646D01*
X142427646Y-73595147D01*
X142575216Y-73496544D01*
X142739188Y-73428624D01*
X142888488Y-73398927D01*
X142913258Y-73394000D01*
X143090742Y-73394000D01*
X143115512Y-73398927D01*
G37*
G36*
X145655512Y-70858927D02*
G01*
X145804812Y-70888624D01*
X145968784Y-70956544D01*
X146116354Y-71055147D01*
X146241853Y-71180646D01*
X146340456Y-71328216D01*
X146408376Y-71492188D01*
X146443000Y-71666259D01*
X146443000Y-71843741D01*
X146408376Y-72017812D01*
X146340456Y-72181784D01*
X146241853Y-72329354D01*
X146116354Y-72454853D01*
X145968784Y-72553456D01*
X145804812Y-72621376D01*
X145655512Y-72651073D01*
X145630742Y-72656000D01*
X145453258Y-72656000D01*
X145428488Y-72651073D01*
X145279188Y-72621376D01*
X145115216Y-72553456D01*
X144967646Y-72454853D01*
X144842147Y-72329354D01*
X144743544Y-72181784D01*
X144675624Y-72017812D01*
X144641000Y-71843741D01*
X144641000Y-71666259D01*
X144675624Y-71492188D01*
X144743544Y-71328216D01*
X144842147Y-71180646D01*
X144967646Y-71055147D01*
X145115216Y-70956544D01*
X145279188Y-70888624D01*
X145428488Y-70858927D01*
X145453258Y-70854000D01*
X145630742Y-70854000D01*
X145655512Y-70858927D01*
G37*
G36*
X115175512Y-70858927D02*
G01*
X115324812Y-70888624D01*
X115488784Y-70956544D01*
X115636354Y-71055147D01*
X115761853Y-71180646D01*
X115860456Y-71328216D01*
X115928376Y-71492188D01*
X115963000Y-71666259D01*
X115963000Y-71843741D01*
X115928376Y-72017812D01*
X115860456Y-72181784D01*
X115761853Y-72329354D01*
X115636354Y-72454853D01*
X115488784Y-72553456D01*
X115324812Y-72621376D01*
X115175512Y-72651073D01*
X115150742Y-72656000D01*
X114973258Y-72656000D01*
X114948488Y-72651073D01*
X114799188Y-72621376D01*
X114635216Y-72553456D01*
X114487646Y-72454853D01*
X114362147Y-72329354D01*
X114263544Y-72181784D01*
X114195624Y-72017812D01*
X114161000Y-71843741D01*
X114161000Y-71666259D01*
X114195624Y-71492188D01*
X114263544Y-71328216D01*
X114362147Y-71180646D01*
X114487646Y-71055147D01*
X114635216Y-70956544D01*
X114799188Y-70888624D01*
X114948488Y-70858927D01*
X114973258Y-70854000D01*
X115150742Y-70854000D01*
X115175512Y-70858927D01*
G37*
G36*
X117715512Y-70858927D02*
G01*
X117864812Y-70888624D01*
X118028784Y-70956544D01*
X118176354Y-71055147D01*
X118301853Y-71180646D01*
X118400456Y-71328216D01*
X118468376Y-71492188D01*
X118503000Y-71666259D01*
X118503000Y-71843741D01*
X118468376Y-72017812D01*
X118400456Y-72181784D01*
X118301853Y-72329354D01*
X118176354Y-72454853D01*
X118028784Y-72553456D01*
X117864812Y-72621376D01*
X117715512Y-72651073D01*
X117690742Y-72656000D01*
X117513258Y-72656000D01*
X117488488Y-72651073D01*
X117339188Y-72621376D01*
X117175216Y-72553456D01*
X117027646Y-72454853D01*
X116902147Y-72329354D01*
X116803544Y-72181784D01*
X116735624Y-72017812D01*
X116701000Y-71843741D01*
X116701000Y-71666259D01*
X116735624Y-71492188D01*
X116803544Y-71328216D01*
X116902147Y-71180646D01*
X117027646Y-71055147D01*
X117175216Y-70956544D01*
X117339188Y-70888624D01*
X117488488Y-70858927D01*
X117513258Y-70854000D01*
X117690742Y-70854000D01*
X117715512Y-70858927D01*
G37*
G36*
X112635512Y-70858927D02*
G01*
X112784812Y-70888624D01*
X112948784Y-70956544D01*
X113096354Y-71055147D01*
X113221853Y-71180646D01*
X113320456Y-71328216D01*
X113388376Y-71492188D01*
X113423000Y-71666259D01*
X113423000Y-71843741D01*
X113388376Y-72017812D01*
X113320456Y-72181784D01*
X113221853Y-72329354D01*
X113096354Y-72454853D01*
X112948784Y-72553456D01*
X112784812Y-72621376D01*
X112635512Y-72651073D01*
X112610742Y-72656000D01*
X112433258Y-72656000D01*
X112408488Y-72651073D01*
X112259188Y-72621376D01*
X112095216Y-72553456D01*
X111947646Y-72454853D01*
X111822147Y-72329354D01*
X111723544Y-72181784D01*
X111655624Y-72017812D01*
X111621000Y-71843741D01*
X111621000Y-71666259D01*
X111655624Y-71492188D01*
X111723544Y-71328216D01*
X111822147Y-71180646D01*
X111947646Y-71055147D01*
X112095216Y-70956544D01*
X112259188Y-70888624D01*
X112408488Y-70858927D01*
X112433258Y-70854000D01*
X112610742Y-70854000D01*
X112635512Y-70858927D01*
G37*
G36*
X120255512Y-70858927D02*
G01*
X120404812Y-70888624D01*
X120568784Y-70956544D01*
X120716354Y-71055147D01*
X120841853Y-71180646D01*
X120940456Y-71328216D01*
X121008376Y-71492188D01*
X121043000Y-71666259D01*
X121043000Y-71843741D01*
X121008376Y-72017812D01*
X120940456Y-72181784D01*
X120841853Y-72329354D01*
X120716354Y-72454853D01*
X120568784Y-72553456D01*
X120404812Y-72621376D01*
X120255512Y-72651073D01*
X120230742Y-72656000D01*
X120053258Y-72656000D01*
X120028488Y-72651073D01*
X119879188Y-72621376D01*
X119715216Y-72553456D01*
X119567646Y-72454853D01*
X119442147Y-72329354D01*
X119343544Y-72181784D01*
X119275624Y-72017812D01*
X119241000Y-71843741D01*
X119241000Y-71666259D01*
X119275624Y-71492188D01*
X119343544Y-71328216D01*
X119442147Y-71180646D01*
X119567646Y-71055147D01*
X119715216Y-70956544D01*
X119879188Y-70888624D01*
X120028488Y-70858927D01*
X120053258Y-70854000D01*
X120230742Y-70854000D01*
X120255512Y-70858927D01*
G37*
G36*
X122795512Y-70858927D02*
G01*
X122944812Y-70888624D01*
X123108784Y-70956544D01*
X123256354Y-71055147D01*
X123381853Y-71180646D01*
X123480456Y-71328216D01*
X123548376Y-71492188D01*
X123583000Y-71666259D01*
X123583000Y-71843741D01*
X123548376Y-72017812D01*
X123480456Y-72181784D01*
X123381853Y-72329354D01*
X123256354Y-72454853D01*
X123108784Y-72553456D01*
X122944812Y-72621376D01*
X122795512Y-72651073D01*
X122770742Y-72656000D01*
X122593258Y-72656000D01*
X122568488Y-72651073D01*
X122419188Y-72621376D01*
X122255216Y-72553456D01*
X122107646Y-72454853D01*
X121982147Y-72329354D01*
X121883544Y-72181784D01*
X121815624Y-72017812D01*
X121781000Y-71843741D01*
X121781000Y-71666259D01*
X121815624Y-71492188D01*
X121883544Y-71328216D01*
X121982147Y-71180646D01*
X122107646Y-71055147D01*
X122255216Y-70956544D01*
X122419188Y-70888624D01*
X122568488Y-70858927D01*
X122593258Y-70854000D01*
X122770742Y-70854000D01*
X122795512Y-70858927D01*
G37*
G36*
X125335512Y-70858927D02*
G01*
X125484812Y-70888624D01*
X125648784Y-70956544D01*
X125796354Y-71055147D01*
X125921853Y-71180646D01*
X126020456Y-71328216D01*
X126088376Y-71492188D01*
X126123000Y-71666259D01*
X126123000Y-71843741D01*
X126088376Y-72017812D01*
X126020456Y-72181784D01*
X125921853Y-72329354D01*
X125796354Y-72454853D01*
X125648784Y-72553456D01*
X125484812Y-72621376D01*
X125335512Y-72651073D01*
X125310742Y-72656000D01*
X125133258Y-72656000D01*
X125108488Y-72651073D01*
X124959188Y-72621376D01*
X124795216Y-72553456D01*
X124647646Y-72454853D01*
X124522147Y-72329354D01*
X124423544Y-72181784D01*
X124355624Y-72017812D01*
X124321000Y-71843741D01*
X124321000Y-71666259D01*
X124355624Y-71492188D01*
X124423544Y-71328216D01*
X124522147Y-71180646D01*
X124647646Y-71055147D01*
X124795216Y-70956544D01*
X124959188Y-70888624D01*
X125108488Y-70858927D01*
X125133258Y-70854000D01*
X125310742Y-70854000D01*
X125335512Y-70858927D01*
G37*
G36*
X127875512Y-70858927D02*
G01*
X128024812Y-70888624D01*
X128188784Y-70956544D01*
X128336354Y-71055147D01*
X128461853Y-71180646D01*
X128560456Y-71328216D01*
X128628376Y-71492188D01*
X128663000Y-71666259D01*
X128663000Y-71843741D01*
X128628376Y-72017812D01*
X128560456Y-72181784D01*
X128461853Y-72329354D01*
X128336354Y-72454853D01*
X128188784Y-72553456D01*
X128024812Y-72621376D01*
X127875512Y-72651073D01*
X127850742Y-72656000D01*
X127673258Y-72656000D01*
X127648488Y-72651073D01*
X127499188Y-72621376D01*
X127335216Y-72553456D01*
X127187646Y-72454853D01*
X127062147Y-72329354D01*
X126963544Y-72181784D01*
X126895624Y-72017812D01*
X126861000Y-71843741D01*
X126861000Y-71666259D01*
X126895624Y-71492188D01*
X126963544Y-71328216D01*
X127062147Y-71180646D01*
X127187646Y-71055147D01*
X127335216Y-70956544D01*
X127499188Y-70888624D01*
X127648488Y-70858927D01*
X127673258Y-70854000D01*
X127850742Y-70854000D01*
X127875512Y-70858927D01*
G37*
G36*
X138035512Y-70858927D02*
G01*
X138184812Y-70888624D01*
X138348784Y-70956544D01*
X138496354Y-71055147D01*
X138621853Y-71180646D01*
X138720456Y-71328216D01*
X138788376Y-71492188D01*
X138823000Y-71666259D01*
X138823000Y-71843741D01*
X138788376Y-72017812D01*
X138720456Y-72181784D01*
X138621853Y-72329354D01*
X138496354Y-72454853D01*
X138348784Y-72553456D01*
X138184812Y-72621376D01*
X138035512Y-72651073D01*
X138010742Y-72656000D01*
X137833258Y-72656000D01*
X137808488Y-72651073D01*
X137659188Y-72621376D01*
X137495216Y-72553456D01*
X137347646Y-72454853D01*
X137222147Y-72329354D01*
X137123544Y-72181784D01*
X137055624Y-72017812D01*
X137021000Y-71843741D01*
X137021000Y-71666259D01*
X137055624Y-71492188D01*
X137123544Y-71328216D01*
X137222147Y-71180646D01*
X137347646Y-71055147D01*
X137495216Y-70956544D01*
X137659188Y-70888624D01*
X137808488Y-70858927D01*
X137833258Y-70854000D01*
X138010742Y-70854000D01*
X138035512Y-70858927D01*
G37*
G36*
X140575512Y-70858927D02*
G01*
X140724812Y-70888624D01*
X140888784Y-70956544D01*
X141036354Y-71055147D01*
X141161853Y-71180646D01*
X141260456Y-71328216D01*
X141328376Y-71492188D01*
X141363000Y-71666259D01*
X141363000Y-71843741D01*
X141328376Y-72017812D01*
X141260456Y-72181784D01*
X141161853Y-72329354D01*
X141036354Y-72454853D01*
X140888784Y-72553456D01*
X140724812Y-72621376D01*
X140575512Y-72651073D01*
X140550742Y-72656000D01*
X140373258Y-72656000D01*
X140348488Y-72651073D01*
X140199188Y-72621376D01*
X140035216Y-72553456D01*
X139887646Y-72454853D01*
X139762147Y-72329354D01*
X139663544Y-72181784D01*
X139595624Y-72017812D01*
X139561000Y-71843741D01*
X139561000Y-71666259D01*
X139595624Y-71492188D01*
X139663544Y-71328216D01*
X139762147Y-71180646D01*
X139887646Y-71055147D01*
X140035216Y-70956544D01*
X140199188Y-70888624D01*
X140348488Y-70858927D01*
X140373258Y-70854000D01*
X140550742Y-70854000D01*
X140575512Y-70858927D01*
G37*
G36*
X143115512Y-70858927D02*
G01*
X143264812Y-70888624D01*
X143428784Y-70956544D01*
X143576354Y-71055147D01*
X143701853Y-71180646D01*
X143800456Y-71328216D01*
X143868376Y-71492188D01*
X143903000Y-71666259D01*
X143903000Y-71843741D01*
X143868376Y-72017812D01*
X143800456Y-72181784D01*
X143701853Y-72329354D01*
X143576354Y-72454853D01*
X143428784Y-72553456D01*
X143264812Y-72621376D01*
X143115512Y-72651073D01*
X143090742Y-72656000D01*
X142913258Y-72656000D01*
X142888488Y-72651073D01*
X142739188Y-72621376D01*
X142575216Y-72553456D01*
X142427646Y-72454853D01*
X142302147Y-72329354D01*
X142203544Y-72181784D01*
X142135624Y-72017812D01*
X142101000Y-71843741D01*
X142101000Y-71666259D01*
X142135624Y-71492188D01*
X142203544Y-71328216D01*
X142302147Y-71180646D01*
X142427646Y-71055147D01*
X142575216Y-70956544D01*
X142739188Y-70888624D01*
X142888488Y-70858927D01*
X142913258Y-70854000D01*
X143090742Y-70854000D01*
X143115512Y-70858927D01*
G37*
G36*
X148195512Y-70858927D02*
G01*
X148344812Y-70888624D01*
X148508784Y-70956544D01*
X148656354Y-71055147D01*
X148781853Y-71180646D01*
X148880456Y-71328216D01*
X148948376Y-71492188D01*
X148983000Y-71666259D01*
X148983000Y-71843741D01*
X148948376Y-72017812D01*
X148880456Y-72181784D01*
X148781853Y-72329354D01*
X148656354Y-72454853D01*
X148508784Y-72553456D01*
X148344812Y-72621376D01*
X148195512Y-72651073D01*
X148170742Y-72656000D01*
X147993258Y-72656000D01*
X147968488Y-72651073D01*
X147819188Y-72621376D01*
X147655216Y-72553456D01*
X147507646Y-72454853D01*
X147382147Y-72329354D01*
X147283544Y-72181784D01*
X147215624Y-72017812D01*
X147181000Y-71843741D01*
X147181000Y-71666259D01*
X147215624Y-71492188D01*
X147283544Y-71328216D01*
X147382147Y-71180646D01*
X147507646Y-71055147D01*
X147655216Y-70956544D01*
X147819188Y-70888624D01*
X147968488Y-70858927D01*
X147993258Y-70854000D01*
X148170742Y-70854000D01*
X148195512Y-70858927D01*
G37*
G36*
X150735512Y-70858927D02*
G01*
X150884812Y-70888624D01*
X151048784Y-70956544D01*
X151196354Y-71055147D01*
X151321853Y-71180646D01*
X151420456Y-71328216D01*
X151488376Y-71492188D01*
X151523000Y-71666259D01*
X151523000Y-71843741D01*
X151488376Y-72017812D01*
X151420456Y-72181784D01*
X151321853Y-72329354D01*
X151196354Y-72454853D01*
X151048784Y-72553456D01*
X150884812Y-72621376D01*
X150735512Y-72651073D01*
X150710742Y-72656000D01*
X150533258Y-72656000D01*
X150508488Y-72651073D01*
X150359188Y-72621376D01*
X150195216Y-72553456D01*
X150047646Y-72454853D01*
X149922147Y-72329354D01*
X149823544Y-72181784D01*
X149755624Y-72017812D01*
X149721000Y-71843741D01*
X149721000Y-71666259D01*
X149755624Y-71492188D01*
X149823544Y-71328216D01*
X149922147Y-71180646D01*
X150047646Y-71055147D01*
X150195216Y-70956544D01*
X150359188Y-70888624D01*
X150508488Y-70858927D01*
X150533258Y-70854000D01*
X150710742Y-70854000D01*
X150735512Y-70858927D01*
G37*
G36*
X153275512Y-70858927D02*
G01*
X153424812Y-70888624D01*
X153588784Y-70956544D01*
X153736354Y-71055147D01*
X153861853Y-71180646D01*
X153960456Y-71328216D01*
X154028376Y-71492188D01*
X154063000Y-71666259D01*
X154063000Y-71843741D01*
X154028376Y-72017812D01*
X153960456Y-72181784D01*
X153861853Y-72329354D01*
X153736354Y-72454853D01*
X153588784Y-72553456D01*
X153424812Y-72621376D01*
X153275512Y-72651073D01*
X153250742Y-72656000D01*
X153073258Y-72656000D01*
X153048488Y-72651073D01*
X152899188Y-72621376D01*
X152735216Y-72553456D01*
X152587646Y-72454853D01*
X152462147Y-72329354D01*
X152363544Y-72181784D01*
X152295624Y-72017812D01*
X152261000Y-71843741D01*
X152261000Y-71666259D01*
X152295624Y-71492188D01*
X152363544Y-71328216D01*
X152462147Y-71180646D01*
X152587646Y-71055147D01*
X152735216Y-70956544D01*
X152899188Y-70888624D01*
X153048488Y-70858927D01*
X153073258Y-70854000D01*
X153250742Y-70854000D01*
X153275512Y-70858927D01*
G37*
G36*
X64375512Y-70858927D02*
G01*
X64524812Y-70888624D01*
X64688784Y-70956544D01*
X64836354Y-71055147D01*
X64961853Y-71180646D01*
X65060456Y-71328216D01*
X65128376Y-71492188D01*
X65163000Y-71666259D01*
X65163000Y-71843741D01*
X65128376Y-72017812D01*
X65060456Y-72181784D01*
X64961853Y-72329354D01*
X64836354Y-72454853D01*
X64688784Y-72553456D01*
X64524812Y-72621376D01*
X64375512Y-72651073D01*
X64350742Y-72656000D01*
X64173258Y-72656000D01*
X64148488Y-72651073D01*
X63999188Y-72621376D01*
X63835216Y-72553456D01*
X63687646Y-72454853D01*
X63562147Y-72329354D01*
X63463544Y-72181784D01*
X63395624Y-72017812D01*
X63361000Y-71843741D01*
X63361000Y-71666259D01*
X63395624Y-71492188D01*
X63463544Y-71328216D01*
X63562147Y-71180646D01*
X63687646Y-71055147D01*
X63835216Y-70956544D01*
X63999188Y-70888624D01*
X64148488Y-70858927D01*
X64173258Y-70854000D01*
X64350742Y-70854000D01*
X64375512Y-70858927D01*
G37*
G36*
X61835512Y-70858927D02*
G01*
X61984812Y-70888624D01*
X62148784Y-70956544D01*
X62296354Y-71055147D01*
X62421853Y-71180646D01*
X62520456Y-71328216D01*
X62588376Y-71492188D01*
X62623000Y-71666259D01*
X62623000Y-71843741D01*
X62588376Y-72017812D01*
X62520456Y-72181784D01*
X62421853Y-72329354D01*
X62296354Y-72454853D01*
X62148784Y-72553456D01*
X61984812Y-72621376D01*
X61835512Y-72651073D01*
X61810742Y-72656000D01*
X61633258Y-72656000D01*
X61608488Y-72651073D01*
X61459188Y-72621376D01*
X61295216Y-72553456D01*
X61147646Y-72454853D01*
X61022147Y-72329354D01*
X60923544Y-72181784D01*
X60855624Y-72017812D01*
X60821000Y-71843741D01*
X60821000Y-71666259D01*
X60855624Y-71492188D01*
X60923544Y-71328216D01*
X61022147Y-71180646D01*
X61147646Y-71055147D01*
X61295216Y-70956544D01*
X61459188Y-70888624D01*
X61608488Y-70858927D01*
X61633258Y-70854000D01*
X61810742Y-70854000D01*
X61835512Y-70858927D01*
G37*
G36*
X102475512Y-70858927D02*
G01*
X102624812Y-70888624D01*
X102788784Y-70956544D01*
X102936354Y-71055147D01*
X103061853Y-71180646D01*
X103160456Y-71328216D01*
X103228376Y-71492188D01*
X103263000Y-71666259D01*
X103263000Y-71843741D01*
X103228376Y-72017812D01*
X103160456Y-72181784D01*
X103061853Y-72329354D01*
X102936354Y-72454853D01*
X102788784Y-72553456D01*
X102624812Y-72621376D01*
X102475512Y-72651073D01*
X102450742Y-72656000D01*
X102273258Y-72656000D01*
X102248488Y-72651073D01*
X102099188Y-72621376D01*
X101935216Y-72553456D01*
X101787646Y-72454853D01*
X101662147Y-72329354D01*
X101563544Y-72181784D01*
X101495624Y-72017812D01*
X101461000Y-71843741D01*
X101461000Y-71666259D01*
X101495624Y-71492188D01*
X101563544Y-71328216D01*
X101662147Y-71180646D01*
X101787646Y-71055147D01*
X101935216Y-70956544D01*
X102099188Y-70888624D01*
X102248488Y-70858927D01*
X102273258Y-70854000D01*
X102450742Y-70854000D01*
X102475512Y-70858927D01*
G37*
G36*
X99935512Y-70858927D02*
G01*
X100084812Y-70888624D01*
X100248784Y-70956544D01*
X100396354Y-71055147D01*
X100521853Y-71180646D01*
X100620456Y-71328216D01*
X100688376Y-71492188D01*
X100723000Y-71666259D01*
X100723000Y-71843741D01*
X100688376Y-72017812D01*
X100620456Y-72181784D01*
X100521853Y-72329354D01*
X100396354Y-72454853D01*
X100248784Y-72553456D01*
X100084812Y-72621376D01*
X99935512Y-72651073D01*
X99910742Y-72656000D01*
X99733258Y-72656000D01*
X99708488Y-72651073D01*
X99559188Y-72621376D01*
X99395216Y-72553456D01*
X99247646Y-72454853D01*
X99122147Y-72329354D01*
X99023544Y-72181784D01*
X98955624Y-72017812D01*
X98921000Y-71843741D01*
X98921000Y-71666259D01*
X98955624Y-71492188D01*
X99023544Y-71328216D01*
X99122147Y-71180646D01*
X99247646Y-71055147D01*
X99395216Y-70956544D01*
X99559188Y-70888624D01*
X99708488Y-70858927D01*
X99733258Y-70854000D01*
X99910742Y-70854000D01*
X99935512Y-70858927D01*
G37*
G36*
X97395512Y-70858927D02*
G01*
X97544812Y-70888624D01*
X97708784Y-70956544D01*
X97856354Y-71055147D01*
X97981853Y-71180646D01*
X98080456Y-71328216D01*
X98148376Y-71492188D01*
X98183000Y-71666259D01*
X98183000Y-71843741D01*
X98148376Y-72017812D01*
X98080456Y-72181784D01*
X97981853Y-72329354D01*
X97856354Y-72454853D01*
X97708784Y-72553456D01*
X97544812Y-72621376D01*
X97395512Y-72651073D01*
X97370742Y-72656000D01*
X97193258Y-72656000D01*
X97168488Y-72651073D01*
X97019188Y-72621376D01*
X96855216Y-72553456D01*
X96707646Y-72454853D01*
X96582147Y-72329354D01*
X96483544Y-72181784D01*
X96415624Y-72017812D01*
X96381000Y-71843741D01*
X96381000Y-71666259D01*
X96415624Y-71492188D01*
X96483544Y-71328216D01*
X96582147Y-71180646D01*
X96707646Y-71055147D01*
X96855216Y-70956544D01*
X97019188Y-70888624D01*
X97168488Y-70858927D01*
X97193258Y-70854000D01*
X97370742Y-70854000D01*
X97395512Y-70858927D01*
G37*
G36*
X94855512Y-70858927D02*
G01*
X95004812Y-70888624D01*
X95168784Y-70956544D01*
X95316354Y-71055147D01*
X95441853Y-71180646D01*
X95540456Y-71328216D01*
X95608376Y-71492188D01*
X95643000Y-71666259D01*
X95643000Y-71843741D01*
X95608376Y-72017812D01*
X95540456Y-72181784D01*
X95441853Y-72329354D01*
X95316354Y-72454853D01*
X95168784Y-72553456D01*
X95004812Y-72621376D01*
X94855512Y-72651073D01*
X94830742Y-72656000D01*
X94653258Y-72656000D01*
X94628488Y-72651073D01*
X94479188Y-72621376D01*
X94315216Y-72553456D01*
X94167646Y-72454853D01*
X94042147Y-72329354D01*
X93943544Y-72181784D01*
X93875624Y-72017812D01*
X93841000Y-71843741D01*
X93841000Y-71666259D01*
X93875624Y-71492188D01*
X93943544Y-71328216D01*
X94042147Y-71180646D01*
X94167646Y-71055147D01*
X94315216Y-70956544D01*
X94479188Y-70888624D01*
X94628488Y-70858927D01*
X94653258Y-70854000D01*
X94830742Y-70854000D01*
X94855512Y-70858927D01*
G37*
G36*
X92315512Y-70858927D02*
G01*
X92464812Y-70888624D01*
X92628784Y-70956544D01*
X92776354Y-71055147D01*
X92901853Y-71180646D01*
X93000456Y-71328216D01*
X93068376Y-71492188D01*
X93103000Y-71666259D01*
X93103000Y-71843741D01*
X93068376Y-72017812D01*
X93000456Y-72181784D01*
X92901853Y-72329354D01*
X92776354Y-72454853D01*
X92628784Y-72553456D01*
X92464812Y-72621376D01*
X92315512Y-72651073D01*
X92290742Y-72656000D01*
X92113258Y-72656000D01*
X92088488Y-72651073D01*
X91939188Y-72621376D01*
X91775216Y-72553456D01*
X91627646Y-72454853D01*
X91502147Y-72329354D01*
X91403544Y-72181784D01*
X91335624Y-72017812D01*
X91301000Y-71843741D01*
X91301000Y-71666259D01*
X91335624Y-71492188D01*
X91403544Y-71328216D01*
X91502147Y-71180646D01*
X91627646Y-71055147D01*
X91775216Y-70956544D01*
X91939188Y-70888624D01*
X92088488Y-70858927D01*
X92113258Y-70854000D01*
X92290742Y-70854000D01*
X92315512Y-70858927D01*
G37*
G36*
X89775512Y-70858927D02*
G01*
X89924812Y-70888624D01*
X90088784Y-70956544D01*
X90236354Y-71055147D01*
X90361853Y-71180646D01*
X90460456Y-71328216D01*
X90528376Y-71492188D01*
X90563000Y-71666259D01*
X90563000Y-71843741D01*
X90528376Y-72017812D01*
X90460456Y-72181784D01*
X90361853Y-72329354D01*
X90236354Y-72454853D01*
X90088784Y-72553456D01*
X89924812Y-72621376D01*
X89775512Y-72651073D01*
X89750742Y-72656000D01*
X89573258Y-72656000D01*
X89548488Y-72651073D01*
X89399188Y-72621376D01*
X89235216Y-72553456D01*
X89087646Y-72454853D01*
X88962147Y-72329354D01*
X88863544Y-72181784D01*
X88795624Y-72017812D01*
X88761000Y-71843741D01*
X88761000Y-71666259D01*
X88795624Y-71492188D01*
X88863544Y-71328216D01*
X88962147Y-71180646D01*
X89087646Y-71055147D01*
X89235216Y-70956544D01*
X89399188Y-70888624D01*
X89548488Y-70858927D01*
X89573258Y-70854000D01*
X89750742Y-70854000D01*
X89775512Y-70858927D01*
G37*
G36*
X87235512Y-70858927D02*
G01*
X87384812Y-70888624D01*
X87548784Y-70956544D01*
X87696354Y-71055147D01*
X87821853Y-71180646D01*
X87920456Y-71328216D01*
X87988376Y-71492188D01*
X88023000Y-71666259D01*
X88023000Y-71843741D01*
X87988376Y-72017812D01*
X87920456Y-72181784D01*
X87821853Y-72329354D01*
X87696354Y-72454853D01*
X87548784Y-72553456D01*
X87384812Y-72621376D01*
X87235512Y-72651073D01*
X87210742Y-72656000D01*
X87033258Y-72656000D01*
X87008488Y-72651073D01*
X86859188Y-72621376D01*
X86695216Y-72553456D01*
X86547646Y-72454853D01*
X86422147Y-72329354D01*
X86323544Y-72181784D01*
X86255624Y-72017812D01*
X86221000Y-71843741D01*
X86221000Y-71666259D01*
X86255624Y-71492188D01*
X86323544Y-71328216D01*
X86422147Y-71180646D01*
X86547646Y-71055147D01*
X86695216Y-70956544D01*
X86859188Y-70888624D01*
X87008488Y-70858927D01*
X87033258Y-70854000D01*
X87210742Y-70854000D01*
X87235512Y-70858927D01*
G37*
G36*
X77075512Y-70858927D02*
G01*
X77224812Y-70888624D01*
X77388784Y-70956544D01*
X77536354Y-71055147D01*
X77661853Y-71180646D01*
X77760456Y-71328216D01*
X77828376Y-71492188D01*
X77863000Y-71666259D01*
X77863000Y-71843741D01*
X77828376Y-72017812D01*
X77760456Y-72181784D01*
X77661853Y-72329354D01*
X77536354Y-72454853D01*
X77388784Y-72553456D01*
X77224812Y-72621376D01*
X77075512Y-72651073D01*
X77050742Y-72656000D01*
X76873258Y-72656000D01*
X76848488Y-72651073D01*
X76699188Y-72621376D01*
X76535216Y-72553456D01*
X76387646Y-72454853D01*
X76262147Y-72329354D01*
X76163544Y-72181784D01*
X76095624Y-72017812D01*
X76061000Y-71843741D01*
X76061000Y-71666259D01*
X76095624Y-71492188D01*
X76163544Y-71328216D01*
X76262147Y-71180646D01*
X76387646Y-71055147D01*
X76535216Y-70956544D01*
X76699188Y-70888624D01*
X76848488Y-70858927D01*
X76873258Y-70854000D01*
X77050742Y-70854000D01*
X77075512Y-70858927D01*
G37*
G36*
X74535512Y-70858927D02*
G01*
X74684812Y-70888624D01*
X74848784Y-70956544D01*
X74996354Y-71055147D01*
X75121853Y-71180646D01*
X75220456Y-71328216D01*
X75288376Y-71492188D01*
X75323000Y-71666259D01*
X75323000Y-71843741D01*
X75288376Y-72017812D01*
X75220456Y-72181784D01*
X75121853Y-72329354D01*
X74996354Y-72454853D01*
X74848784Y-72553456D01*
X74684812Y-72621376D01*
X74535512Y-72651073D01*
X74510742Y-72656000D01*
X74333258Y-72656000D01*
X74308488Y-72651073D01*
X74159188Y-72621376D01*
X73995216Y-72553456D01*
X73847646Y-72454853D01*
X73722147Y-72329354D01*
X73623544Y-72181784D01*
X73555624Y-72017812D01*
X73521000Y-71843741D01*
X73521000Y-71666259D01*
X73555624Y-71492188D01*
X73623544Y-71328216D01*
X73722147Y-71180646D01*
X73847646Y-71055147D01*
X73995216Y-70956544D01*
X74159188Y-70888624D01*
X74308488Y-70858927D01*
X74333258Y-70854000D01*
X74510742Y-70854000D01*
X74535512Y-70858927D01*
G37*
G36*
X71995512Y-70858927D02*
G01*
X72144812Y-70888624D01*
X72308784Y-70956544D01*
X72456354Y-71055147D01*
X72581853Y-71180646D01*
X72680456Y-71328216D01*
X72748376Y-71492188D01*
X72783000Y-71666259D01*
X72783000Y-71843741D01*
X72748376Y-72017812D01*
X72680456Y-72181784D01*
X72581853Y-72329354D01*
X72456354Y-72454853D01*
X72308784Y-72553456D01*
X72144812Y-72621376D01*
X71995512Y-72651073D01*
X71970742Y-72656000D01*
X71793258Y-72656000D01*
X71768488Y-72651073D01*
X71619188Y-72621376D01*
X71455216Y-72553456D01*
X71307646Y-72454853D01*
X71182147Y-72329354D01*
X71083544Y-72181784D01*
X71015624Y-72017812D01*
X70981000Y-71843741D01*
X70981000Y-71666259D01*
X71015624Y-71492188D01*
X71083544Y-71328216D01*
X71182147Y-71180646D01*
X71307646Y-71055147D01*
X71455216Y-70956544D01*
X71619188Y-70888624D01*
X71768488Y-70858927D01*
X71793258Y-70854000D01*
X71970742Y-70854000D01*
X71995512Y-70858927D01*
G37*
G36*
X69455512Y-70858927D02*
G01*
X69604812Y-70888624D01*
X69768784Y-70956544D01*
X69916354Y-71055147D01*
X70041853Y-71180646D01*
X70140456Y-71328216D01*
X70208376Y-71492188D01*
X70243000Y-71666259D01*
X70243000Y-71843741D01*
X70208376Y-72017812D01*
X70140456Y-72181784D01*
X70041853Y-72329354D01*
X69916354Y-72454853D01*
X69768784Y-72553456D01*
X69604812Y-72621376D01*
X69455512Y-72651073D01*
X69430742Y-72656000D01*
X69253258Y-72656000D01*
X69228488Y-72651073D01*
X69079188Y-72621376D01*
X68915216Y-72553456D01*
X68767646Y-72454853D01*
X68642147Y-72329354D01*
X68543544Y-72181784D01*
X68475624Y-72017812D01*
X68441000Y-71843741D01*
X68441000Y-71666259D01*
X68475624Y-71492188D01*
X68543544Y-71328216D01*
X68642147Y-71180646D01*
X68767646Y-71055147D01*
X68915216Y-70956544D01*
X69079188Y-70888624D01*
X69228488Y-70858927D01*
X69253258Y-70854000D01*
X69430742Y-70854000D01*
X69455512Y-70858927D01*
G37*
G36*
X66915512Y-70858927D02*
G01*
X67064812Y-70888624D01*
X67228784Y-70956544D01*
X67376354Y-71055147D01*
X67501853Y-71180646D01*
X67600456Y-71328216D01*
X67668376Y-71492188D01*
X67703000Y-71666259D01*
X67703000Y-71843741D01*
X67668376Y-72017812D01*
X67600456Y-72181784D01*
X67501853Y-72329354D01*
X67376354Y-72454853D01*
X67228784Y-72553456D01*
X67064812Y-72621376D01*
X66915512Y-72651073D01*
X66890742Y-72656000D01*
X66713258Y-72656000D01*
X66688488Y-72651073D01*
X66539188Y-72621376D01*
X66375216Y-72553456D01*
X66227646Y-72454853D01*
X66102147Y-72329354D01*
X66003544Y-72181784D01*
X65935624Y-72017812D01*
X65901000Y-71843741D01*
X65901000Y-71666259D01*
X65935624Y-71492188D01*
X66003544Y-71328216D01*
X66102147Y-71180646D01*
X66227646Y-71055147D01*
X66375216Y-70956544D01*
X66539188Y-70888624D01*
X66688488Y-70858927D01*
X66713258Y-70854000D01*
X66890742Y-70854000D01*
X66915512Y-70858927D01*
G37*
G36*
X146035997Y-66179476D02*
G01*
X146054274Y-66185020D01*
X146071108Y-66194018D01*
X146085868Y-66206132D01*
X146097982Y-66220892D01*
X146106980Y-66237726D01*
X146112524Y-66256003D01*
X146115000Y-66281140D01*
X146115000Y-66814860D01*
X146112524Y-66839997D01*
X146106980Y-66858274D01*
X146097982Y-66875108D01*
X146085868Y-66889868D01*
X146071108Y-66901982D01*
X146054274Y-66910980D01*
X146035997Y-66916524D01*
X146010860Y-66919000D01*
X145577140Y-66919000D01*
X145552003Y-66916524D01*
X145533726Y-66910980D01*
X145516892Y-66901982D01*
X145502132Y-66889868D01*
X145490018Y-66875108D01*
X145481020Y-66858274D01*
X145475476Y-66839997D01*
X145473000Y-66814860D01*
X145473000Y-66281140D01*
X145475476Y-66256003D01*
X145481020Y-66237726D01*
X145490018Y-66220892D01*
X145502132Y-66206132D01*
X145516892Y-66194018D01*
X145533726Y-66185020D01*
X145552003Y-66179476D01*
X145577140Y-66177000D01*
X146010860Y-66177000D01*
X146035997Y-66179476D01*
G37*
G36*
X66787997Y-66179476D02*
G01*
X66806274Y-66185020D01*
X66823108Y-66194018D01*
X66837868Y-66206132D01*
X66849982Y-66220892D01*
X66858980Y-66237726D01*
X66864524Y-66256003D01*
X66867000Y-66281140D01*
X66867000Y-66814860D01*
X66864524Y-66839997D01*
X66858980Y-66858274D01*
X66849982Y-66875108D01*
X66837868Y-66889868D01*
X66823108Y-66901982D01*
X66806274Y-66910980D01*
X66787997Y-66916524D01*
X66762860Y-66919000D01*
X66329140Y-66919000D01*
X66304003Y-66916524D01*
X66285726Y-66910980D01*
X66268892Y-66901982D01*
X66254132Y-66889868D01*
X66242018Y-66875108D01*
X66233020Y-66858274D01*
X66227476Y-66839997D01*
X66225000Y-66814860D01*
X66225000Y-66281140D01*
X66227476Y-66256003D01*
X66233020Y-66237726D01*
X66242018Y-66220892D01*
X66254132Y-66206132D01*
X66268892Y-66194018D01*
X66285726Y-66185020D01*
X66304003Y-66179476D01*
X66329140Y-66177000D01*
X66762860Y-66177000D01*
X66787997Y-66179476D01*
G37*
G36*
X147055997Y-66179476D02*
G01*
X147074274Y-66185020D01*
X147091108Y-66194018D01*
X147105868Y-66206132D01*
X147117982Y-66220892D01*
X147126980Y-66237726D01*
X147132524Y-66256003D01*
X147135000Y-66281140D01*
X147135000Y-66814860D01*
X147132524Y-66839997D01*
X147126980Y-66858274D01*
X147117982Y-66875108D01*
X147105868Y-66889868D01*
X147091108Y-66901982D01*
X147074274Y-66910980D01*
X147055997Y-66916524D01*
X147030860Y-66919000D01*
X146597140Y-66919000D01*
X146572003Y-66916524D01*
X146553726Y-66910980D01*
X146536892Y-66901982D01*
X146522132Y-66889868D01*
X146510018Y-66875108D01*
X146501020Y-66858274D01*
X146495476Y-66839997D01*
X146493000Y-66814860D01*
X146493000Y-66281140D01*
X146495476Y-66256003D01*
X146501020Y-66237726D01*
X146510018Y-66220892D01*
X146522132Y-66206132D01*
X146536892Y-66194018D01*
X146553726Y-66185020D01*
X146572003Y-66179476D01*
X146597140Y-66177000D01*
X147030860Y-66177000D01*
X147055997Y-66179476D01*
G37*
G36*
X144005997Y-66179476D02*
G01*
X144024274Y-66185020D01*
X144041108Y-66194018D01*
X144055868Y-66206132D01*
X144067982Y-66220892D01*
X144076980Y-66237726D01*
X144082524Y-66256003D01*
X144085000Y-66281140D01*
X144085000Y-66814860D01*
X144082524Y-66839997D01*
X144076980Y-66858274D01*
X144067982Y-66875108D01*
X144055868Y-66889868D01*
X144041108Y-66901982D01*
X144024274Y-66910980D01*
X144005997Y-66916524D01*
X143980860Y-66919000D01*
X143547140Y-66919000D01*
X143522003Y-66916524D01*
X143503726Y-66910980D01*
X143486892Y-66901982D01*
X143472132Y-66889868D01*
X143460018Y-66875108D01*
X143451020Y-66858274D01*
X143445476Y-66839997D01*
X143443000Y-66814860D01*
X143443000Y-66281140D01*
X143445476Y-66256003D01*
X143451020Y-66237726D01*
X143460018Y-66220892D01*
X143472132Y-66206132D01*
X143486892Y-66194018D01*
X143503726Y-66185020D01*
X143522003Y-66179476D01*
X143547140Y-66177000D01*
X143980860Y-66177000D01*
X144005997Y-66179476D01*
G37*
G36*
X142985997Y-66179476D02*
G01*
X143004274Y-66185020D01*
X143021108Y-66194018D01*
X143035868Y-66206132D01*
X143047982Y-66220892D01*
X143056980Y-66237726D01*
X143062524Y-66256003D01*
X143065000Y-66281140D01*
X143065000Y-66814860D01*
X143062524Y-66839997D01*
X143056980Y-66858274D01*
X143047982Y-66875108D01*
X143035868Y-66889868D01*
X143021108Y-66901982D01*
X143004274Y-66910980D01*
X142985997Y-66916524D01*
X142960860Y-66919000D01*
X142527140Y-66919000D01*
X142502003Y-66916524D01*
X142483726Y-66910980D01*
X142466892Y-66901982D01*
X142452132Y-66889868D01*
X142440018Y-66875108D01*
X142431020Y-66858274D01*
X142425476Y-66839997D01*
X142423000Y-66814860D01*
X142423000Y-66281140D01*
X142425476Y-66256003D01*
X142431020Y-66237726D01*
X142440018Y-66220892D01*
X142452132Y-66206132D01*
X142466892Y-66194018D01*
X142483726Y-66185020D01*
X142502003Y-66179476D01*
X142527140Y-66177000D01*
X142960860Y-66177000D01*
X142985997Y-66179476D01*
G37*
G36*
X126731997Y-66179476D02*
G01*
X126750274Y-66185020D01*
X126767108Y-66194018D01*
X126781868Y-66206132D01*
X126793982Y-66220892D01*
X126802980Y-66237726D01*
X126808524Y-66256003D01*
X126811000Y-66281140D01*
X126811000Y-66814860D01*
X126808524Y-66839997D01*
X126802980Y-66858274D01*
X126793982Y-66875108D01*
X126781868Y-66889868D01*
X126767108Y-66901982D01*
X126750274Y-66910980D01*
X126731997Y-66916524D01*
X126706860Y-66919000D01*
X126273140Y-66919000D01*
X126248003Y-66916524D01*
X126229726Y-66910980D01*
X126212892Y-66901982D01*
X126198132Y-66889868D01*
X126186018Y-66875108D01*
X126177020Y-66858274D01*
X126171476Y-66839997D01*
X126169000Y-66814860D01*
X126169000Y-66281140D01*
X126171476Y-66256003D01*
X126177020Y-66237726D01*
X126186018Y-66220892D01*
X126198132Y-66206132D01*
X126212892Y-66194018D01*
X126229726Y-66185020D01*
X126248003Y-66179476D01*
X126273140Y-66177000D01*
X126706860Y-66177000D01*
X126731997Y-66179476D01*
G37*
G36*
X96255997Y-66179476D02*
G01*
X96274274Y-66185020D01*
X96291108Y-66194018D01*
X96305868Y-66206132D01*
X96317982Y-66220892D01*
X96326980Y-66237726D01*
X96332524Y-66256003D01*
X96335000Y-66281140D01*
X96335000Y-66814860D01*
X96332524Y-66839997D01*
X96326980Y-66858274D01*
X96317982Y-66875108D01*
X96305868Y-66889868D01*
X96291108Y-66901982D01*
X96274274Y-66910980D01*
X96255997Y-66916524D01*
X96230860Y-66919000D01*
X95797140Y-66919000D01*
X95772003Y-66916524D01*
X95753726Y-66910980D01*
X95736892Y-66901982D01*
X95722132Y-66889868D01*
X95710018Y-66875108D01*
X95701020Y-66858274D01*
X95695476Y-66839997D01*
X95693000Y-66814860D01*
X95693000Y-66281140D01*
X95695476Y-66256003D01*
X95701020Y-66237726D01*
X95710018Y-66220892D01*
X95722132Y-66206132D01*
X95736892Y-66194018D01*
X95753726Y-66185020D01*
X95772003Y-66179476D01*
X95797140Y-66177000D01*
X96230860Y-66177000D01*
X96255997Y-66179476D01*
G37*
G36*
X123683997Y-66179476D02*
G01*
X123702274Y-66185020D01*
X123719108Y-66194018D01*
X123733868Y-66206132D01*
X123745982Y-66220892D01*
X123754980Y-66237726D01*
X123760524Y-66256003D01*
X123763000Y-66281140D01*
X123763000Y-66814860D01*
X123760524Y-66839997D01*
X123754980Y-66858274D01*
X123745982Y-66875108D01*
X123733868Y-66889868D01*
X123719108Y-66901982D01*
X123702274Y-66910980D01*
X123683997Y-66916524D01*
X123658860Y-66919000D01*
X123225140Y-66919000D01*
X123200003Y-66916524D01*
X123181726Y-66910980D01*
X123164892Y-66901982D01*
X123150132Y-66889868D01*
X123138018Y-66875108D01*
X123129020Y-66858274D01*
X123123476Y-66839997D01*
X123121000Y-66814860D01*
X123121000Y-66281140D01*
X123123476Y-66256003D01*
X123129020Y-66237726D01*
X123138018Y-66220892D01*
X123150132Y-66206132D01*
X123164892Y-66194018D01*
X123181726Y-66185020D01*
X123200003Y-66179476D01*
X123225140Y-66177000D01*
X123658860Y-66177000D01*
X123683997Y-66179476D01*
G37*
G36*
X124703997Y-66179476D02*
G01*
X124722274Y-66185020D01*
X124739108Y-66194018D01*
X124753868Y-66206132D01*
X124765982Y-66220892D01*
X124774980Y-66237726D01*
X124780524Y-66256003D01*
X124783000Y-66281140D01*
X124783000Y-66814860D01*
X124780524Y-66839997D01*
X124774980Y-66858274D01*
X124765982Y-66875108D01*
X124753868Y-66889868D01*
X124739108Y-66901982D01*
X124722274Y-66910980D01*
X124703997Y-66916524D01*
X124678860Y-66919000D01*
X124245140Y-66919000D01*
X124220003Y-66916524D01*
X124201726Y-66910980D01*
X124184892Y-66901982D01*
X124170132Y-66889868D01*
X124158018Y-66875108D01*
X124149020Y-66858274D01*
X124143476Y-66839997D01*
X124141000Y-66814860D01*
X124141000Y-66281140D01*
X124143476Y-66256003D01*
X124149020Y-66237726D01*
X124158018Y-66220892D01*
X124170132Y-66206132D01*
X124184892Y-66194018D01*
X124201726Y-66185020D01*
X124220003Y-66179476D01*
X124245140Y-66177000D01*
X124678860Y-66177000D01*
X124703997Y-66179476D01*
G37*
G36*
X120635997Y-66179476D02*
G01*
X120654274Y-66185020D01*
X120671108Y-66194018D01*
X120685868Y-66206132D01*
X120697982Y-66220892D01*
X120706980Y-66237726D01*
X120712524Y-66256003D01*
X120715000Y-66281140D01*
X120715000Y-66814860D01*
X120712524Y-66839997D01*
X120706980Y-66858274D01*
X120697982Y-66875108D01*
X120685868Y-66889868D01*
X120671108Y-66901982D01*
X120654274Y-66910980D01*
X120635997Y-66916524D01*
X120610860Y-66919000D01*
X120177140Y-66919000D01*
X120152003Y-66916524D01*
X120133726Y-66910980D01*
X120116892Y-66901982D01*
X120102132Y-66889868D01*
X120090018Y-66875108D01*
X120081020Y-66858274D01*
X120075476Y-66839997D01*
X120073000Y-66814860D01*
X120073000Y-66281140D01*
X120075476Y-66256003D01*
X120081020Y-66237726D01*
X120090018Y-66220892D01*
X120102132Y-66206132D01*
X120116892Y-66194018D01*
X120133726Y-66185020D01*
X120152003Y-66179476D01*
X120177140Y-66177000D01*
X120610860Y-66177000D01*
X120635997Y-66179476D01*
G37*
G36*
X121655997Y-66179476D02*
G01*
X121674274Y-66185020D01*
X121691108Y-66194018D01*
X121705868Y-66206132D01*
X121717982Y-66220892D01*
X121726980Y-66237726D01*
X121732524Y-66256003D01*
X121735000Y-66281140D01*
X121735000Y-66814860D01*
X121732524Y-66839997D01*
X121726980Y-66858274D01*
X121717982Y-66875108D01*
X121705868Y-66889868D01*
X121691108Y-66901982D01*
X121674274Y-66910980D01*
X121655997Y-66916524D01*
X121630860Y-66919000D01*
X121197140Y-66919000D01*
X121172003Y-66916524D01*
X121153726Y-66910980D01*
X121136892Y-66901982D01*
X121122132Y-66889868D01*
X121110018Y-66875108D01*
X121101020Y-66858274D01*
X121095476Y-66839997D01*
X121093000Y-66814860D01*
X121093000Y-66281140D01*
X121095476Y-66256003D01*
X121101020Y-66237726D01*
X121110018Y-66220892D01*
X121122132Y-66206132D01*
X121136892Y-66194018D01*
X121153726Y-66185020D01*
X121172003Y-66179476D01*
X121197140Y-66177000D01*
X121630860Y-66177000D01*
X121655997Y-66179476D01*
G37*
G36*
X117585997Y-66179476D02*
G01*
X117604274Y-66185020D01*
X117621108Y-66194018D01*
X117635868Y-66206132D01*
X117647982Y-66220892D01*
X117656980Y-66237726D01*
X117662524Y-66256003D01*
X117665000Y-66281140D01*
X117665000Y-66814860D01*
X117662524Y-66839997D01*
X117656980Y-66858274D01*
X117647982Y-66875108D01*
X117635868Y-66889868D01*
X117621108Y-66901982D01*
X117604274Y-66910980D01*
X117585997Y-66916524D01*
X117560860Y-66919000D01*
X117127140Y-66919000D01*
X117102003Y-66916524D01*
X117083726Y-66910980D01*
X117066892Y-66901982D01*
X117052132Y-66889868D01*
X117040018Y-66875108D01*
X117031020Y-66858274D01*
X117025476Y-66839997D01*
X117023000Y-66814860D01*
X117023000Y-66281140D01*
X117025476Y-66256003D01*
X117031020Y-66237726D01*
X117040018Y-66220892D01*
X117052132Y-66206132D01*
X117066892Y-66194018D01*
X117083726Y-66185020D01*
X117102003Y-66179476D01*
X117127140Y-66177000D01*
X117560860Y-66177000D01*
X117585997Y-66179476D01*
G37*
G36*
X118605997Y-66179476D02*
G01*
X118624274Y-66185020D01*
X118641108Y-66194018D01*
X118655868Y-66206132D01*
X118667982Y-66220892D01*
X118676980Y-66237726D01*
X118682524Y-66256003D01*
X118685000Y-66281140D01*
X118685000Y-66814860D01*
X118682524Y-66839997D01*
X118676980Y-66858274D01*
X118667982Y-66875108D01*
X118655868Y-66889868D01*
X118641108Y-66901982D01*
X118624274Y-66910980D01*
X118605997Y-66916524D01*
X118580860Y-66919000D01*
X118147140Y-66919000D01*
X118122003Y-66916524D01*
X118103726Y-66910980D01*
X118086892Y-66901982D01*
X118072132Y-66889868D01*
X118060018Y-66875108D01*
X118051020Y-66858274D01*
X118045476Y-66839997D01*
X118043000Y-66814860D01*
X118043000Y-66281140D01*
X118045476Y-66256003D01*
X118051020Y-66237726D01*
X118060018Y-66220892D01*
X118072132Y-66206132D01*
X118086892Y-66194018D01*
X118103726Y-66185020D01*
X118122003Y-66179476D01*
X118147140Y-66177000D01*
X118580860Y-66177000D01*
X118605997Y-66179476D01*
G37*
G36*
X157215997Y-66179476D02*
G01*
X157234274Y-66185020D01*
X157251108Y-66194018D01*
X157265868Y-66206132D01*
X157277982Y-66220892D01*
X157286980Y-66237726D01*
X157292524Y-66256003D01*
X157295000Y-66281140D01*
X157295000Y-66814860D01*
X157292524Y-66839997D01*
X157286980Y-66858274D01*
X157277982Y-66875108D01*
X157265868Y-66889868D01*
X157251108Y-66901982D01*
X157234274Y-66910980D01*
X157215997Y-66916524D01*
X157190860Y-66919000D01*
X156757140Y-66919000D01*
X156732003Y-66916524D01*
X156713726Y-66910980D01*
X156696892Y-66901982D01*
X156682132Y-66889868D01*
X156670018Y-66875108D01*
X156661020Y-66858274D01*
X156655476Y-66839997D01*
X156653000Y-66814860D01*
X156653000Y-66281140D01*
X156655476Y-66256003D01*
X156661020Y-66237726D01*
X156670018Y-66220892D01*
X156682132Y-66206132D01*
X156696892Y-66194018D01*
X156713726Y-66185020D01*
X156732003Y-66179476D01*
X156757140Y-66177000D01*
X157190860Y-66177000D01*
X157215997Y-66179476D01*
G37*
G36*
X101333997Y-66179476D02*
G01*
X101352274Y-66185020D01*
X101369108Y-66194018D01*
X101383868Y-66206132D01*
X101395982Y-66220892D01*
X101404980Y-66237726D01*
X101410524Y-66256003D01*
X101413000Y-66281140D01*
X101413000Y-66814860D01*
X101410524Y-66839997D01*
X101404980Y-66858274D01*
X101395982Y-66875108D01*
X101383868Y-66889868D01*
X101369108Y-66901982D01*
X101352274Y-66910980D01*
X101333997Y-66916524D01*
X101308860Y-66919000D01*
X100875140Y-66919000D01*
X100850003Y-66916524D01*
X100831726Y-66910980D01*
X100814892Y-66901982D01*
X100800132Y-66889868D01*
X100788018Y-66875108D01*
X100779020Y-66858274D01*
X100773476Y-66839997D01*
X100771000Y-66814860D01*
X100771000Y-66281140D01*
X100773476Y-66256003D01*
X100779020Y-66237726D01*
X100788018Y-66220892D01*
X100800132Y-66206132D01*
X100814892Y-66194018D01*
X100831726Y-66185020D01*
X100850003Y-66179476D01*
X100875140Y-66177000D01*
X101308860Y-66177000D01*
X101333997Y-66179476D01*
G37*
G36*
X98283997Y-66179476D02*
G01*
X98302274Y-66185020D01*
X98319108Y-66194018D01*
X98333868Y-66206132D01*
X98345982Y-66220892D01*
X98354980Y-66237726D01*
X98360524Y-66256003D01*
X98363000Y-66281140D01*
X98363000Y-66814860D01*
X98360524Y-66839997D01*
X98354980Y-66858274D01*
X98345982Y-66875108D01*
X98333868Y-66889868D01*
X98319108Y-66901982D01*
X98302274Y-66910980D01*
X98283997Y-66916524D01*
X98258860Y-66919000D01*
X97825140Y-66919000D01*
X97800003Y-66916524D01*
X97781726Y-66910980D01*
X97764892Y-66901982D01*
X97750132Y-66889868D01*
X97738018Y-66875108D01*
X97729020Y-66858274D01*
X97723476Y-66839997D01*
X97721000Y-66814860D01*
X97721000Y-66281140D01*
X97723476Y-66256003D01*
X97729020Y-66237726D01*
X97738018Y-66220892D01*
X97750132Y-66206132D01*
X97764892Y-66194018D01*
X97781726Y-66185020D01*
X97800003Y-66179476D01*
X97825140Y-66177000D01*
X98258860Y-66177000D01*
X98283997Y-66179476D01*
G37*
G36*
X99303997Y-66179476D02*
G01*
X99322274Y-66185020D01*
X99339108Y-66194018D01*
X99353868Y-66206132D01*
X99365982Y-66220892D01*
X99374980Y-66237726D01*
X99380524Y-66256003D01*
X99383000Y-66281140D01*
X99383000Y-66814860D01*
X99380524Y-66839997D01*
X99374980Y-66858274D01*
X99365982Y-66875108D01*
X99353868Y-66889868D01*
X99339108Y-66901982D01*
X99322274Y-66910980D01*
X99303997Y-66916524D01*
X99278860Y-66919000D01*
X98845140Y-66919000D01*
X98820003Y-66916524D01*
X98801726Y-66910980D01*
X98784892Y-66901982D01*
X98770132Y-66889868D01*
X98758018Y-66875108D01*
X98749020Y-66858274D01*
X98743476Y-66839997D01*
X98741000Y-66814860D01*
X98741000Y-66281140D01*
X98743476Y-66256003D01*
X98749020Y-66237726D01*
X98758018Y-66220892D01*
X98770132Y-66206132D01*
X98784892Y-66194018D01*
X98801726Y-66185020D01*
X98820003Y-66179476D01*
X98845140Y-66177000D01*
X99278860Y-66177000D01*
X99303997Y-66179476D01*
G37*
G36*
X76951997Y-66179476D02*
G01*
X76970274Y-66185020D01*
X76987108Y-66194018D01*
X77001868Y-66206132D01*
X77013982Y-66220892D01*
X77022980Y-66237726D01*
X77028524Y-66256003D01*
X77031000Y-66281140D01*
X77031000Y-66814860D01*
X77028524Y-66839997D01*
X77022980Y-66858274D01*
X77013982Y-66875108D01*
X77001868Y-66889868D01*
X76987108Y-66901982D01*
X76970274Y-66910980D01*
X76951997Y-66916524D01*
X76926860Y-66919000D01*
X76493140Y-66919000D01*
X76468003Y-66916524D01*
X76449726Y-66910980D01*
X76432892Y-66901982D01*
X76418132Y-66889868D01*
X76406018Y-66875108D01*
X76397020Y-66858274D01*
X76391476Y-66839997D01*
X76389000Y-66814860D01*
X76389000Y-66281140D01*
X76391476Y-66256003D01*
X76397020Y-66237726D01*
X76406018Y-66220892D01*
X76418132Y-66206132D01*
X76432892Y-66194018D01*
X76449726Y-66185020D01*
X76468003Y-66179476D01*
X76493140Y-66177000D01*
X76926860Y-66177000D01*
X76951997Y-66179476D01*
G37*
G36*
X102353997Y-66179476D02*
G01*
X102372274Y-66185020D01*
X102389108Y-66194018D01*
X102403868Y-66206132D01*
X102415982Y-66220892D01*
X102424980Y-66237726D01*
X102430524Y-66256003D01*
X102433000Y-66281140D01*
X102433000Y-66814860D01*
X102430524Y-66839997D01*
X102424980Y-66858274D01*
X102415982Y-66875108D01*
X102403868Y-66889868D01*
X102389108Y-66901982D01*
X102372274Y-66910980D01*
X102353997Y-66916524D01*
X102328860Y-66919000D01*
X101895140Y-66919000D01*
X101870003Y-66916524D01*
X101851726Y-66910980D01*
X101834892Y-66901982D01*
X101820132Y-66889868D01*
X101808018Y-66875108D01*
X101799020Y-66858274D01*
X101793476Y-66839997D01*
X101791000Y-66814860D01*
X101791000Y-66281140D01*
X101793476Y-66256003D01*
X101799020Y-66237726D01*
X101808018Y-66220892D01*
X101820132Y-66206132D01*
X101834892Y-66194018D01*
X101851726Y-66185020D01*
X101870003Y-66179476D01*
X101895140Y-66177000D01*
X102328860Y-66177000D01*
X102353997Y-66179476D01*
G37*
G36*
X67807997Y-66179476D02*
G01*
X67826274Y-66185020D01*
X67843108Y-66194018D01*
X67857868Y-66206132D01*
X67869982Y-66220892D01*
X67878980Y-66237726D01*
X67884524Y-66256003D01*
X67887000Y-66281140D01*
X67887000Y-66814860D01*
X67884524Y-66839997D01*
X67878980Y-66858274D01*
X67869982Y-66875108D01*
X67857868Y-66889868D01*
X67843108Y-66901982D01*
X67826274Y-66910980D01*
X67807997Y-66916524D01*
X67782860Y-66919000D01*
X67349140Y-66919000D01*
X67324003Y-66916524D01*
X67305726Y-66910980D01*
X67288892Y-66901982D01*
X67274132Y-66889868D01*
X67262018Y-66875108D01*
X67253020Y-66858274D01*
X67247476Y-66839997D01*
X67245000Y-66814860D01*
X67245000Y-66281140D01*
X67247476Y-66256003D01*
X67253020Y-66237726D01*
X67262018Y-66220892D01*
X67274132Y-66206132D01*
X67288892Y-66194018D01*
X67305726Y-66185020D01*
X67324003Y-66179476D01*
X67349140Y-66177000D01*
X67782860Y-66177000D01*
X67807997Y-66179476D01*
G37*
G36*
X95235997Y-66179476D02*
G01*
X95254274Y-66185020D01*
X95271108Y-66194018D01*
X95285868Y-66206132D01*
X95297982Y-66220892D01*
X95306980Y-66237726D01*
X95312524Y-66256003D01*
X95315000Y-66281140D01*
X95315000Y-66814860D01*
X95312524Y-66839997D01*
X95306980Y-66858274D01*
X95297982Y-66875108D01*
X95285868Y-66889868D01*
X95271108Y-66901982D01*
X95254274Y-66910980D01*
X95235997Y-66916524D01*
X95210860Y-66919000D01*
X94777140Y-66919000D01*
X94752003Y-66916524D01*
X94733726Y-66910980D01*
X94716892Y-66901982D01*
X94702132Y-66889868D01*
X94690018Y-66875108D01*
X94681020Y-66858274D01*
X94675476Y-66839997D01*
X94673000Y-66814860D01*
X94673000Y-66281140D01*
X94675476Y-66256003D01*
X94681020Y-66237726D01*
X94690018Y-66220892D01*
X94702132Y-66206132D01*
X94716892Y-66194018D01*
X94733726Y-66185020D01*
X94752003Y-66179476D01*
X94777140Y-66177000D01*
X95210860Y-66177000D01*
X95235997Y-66179476D01*
G37*
G36*
X69835997Y-66179476D02*
G01*
X69854274Y-66185020D01*
X69871108Y-66194018D01*
X69885868Y-66206132D01*
X69897982Y-66220892D01*
X69906980Y-66237726D01*
X69912524Y-66256003D01*
X69915000Y-66281140D01*
X69915000Y-66814860D01*
X69912524Y-66839997D01*
X69906980Y-66858274D01*
X69897982Y-66875108D01*
X69885868Y-66889868D01*
X69871108Y-66901982D01*
X69854274Y-66910980D01*
X69835997Y-66916524D01*
X69810860Y-66919000D01*
X69377140Y-66919000D01*
X69352003Y-66916524D01*
X69333726Y-66910980D01*
X69316892Y-66901982D01*
X69302132Y-66889868D01*
X69290018Y-66875108D01*
X69281020Y-66858274D01*
X69275476Y-66839997D01*
X69273000Y-66814860D01*
X69273000Y-66281140D01*
X69275476Y-66256003D01*
X69281020Y-66237726D01*
X69290018Y-66220892D01*
X69302132Y-66206132D01*
X69316892Y-66194018D01*
X69333726Y-66185020D01*
X69352003Y-66179476D01*
X69377140Y-66177000D01*
X69810860Y-66177000D01*
X69835997Y-66179476D01*
G37*
G36*
X70855997Y-66179476D02*
G01*
X70874274Y-66185020D01*
X70891108Y-66194018D01*
X70905868Y-66206132D01*
X70917982Y-66220892D01*
X70926980Y-66237726D01*
X70932524Y-66256003D01*
X70935000Y-66281140D01*
X70935000Y-66814860D01*
X70932524Y-66839997D01*
X70926980Y-66858274D01*
X70917982Y-66875108D01*
X70905868Y-66889868D01*
X70891108Y-66901982D01*
X70874274Y-66910980D01*
X70855997Y-66916524D01*
X70830860Y-66919000D01*
X70397140Y-66919000D01*
X70372003Y-66916524D01*
X70353726Y-66910980D01*
X70336892Y-66901982D01*
X70322132Y-66889868D01*
X70310018Y-66875108D01*
X70301020Y-66858274D01*
X70295476Y-66839997D01*
X70293000Y-66814860D01*
X70293000Y-66281140D01*
X70295476Y-66256003D01*
X70301020Y-66237726D01*
X70310018Y-66220892D01*
X70322132Y-66206132D01*
X70336892Y-66194018D01*
X70353726Y-66185020D01*
X70372003Y-66179476D01*
X70397140Y-66177000D01*
X70830860Y-66177000D01*
X70855997Y-66179476D01*
G37*
G36*
X93207997Y-66179476D02*
G01*
X93226274Y-66185020D01*
X93243108Y-66194018D01*
X93257868Y-66206132D01*
X93269982Y-66220892D01*
X93278980Y-66237726D01*
X93284524Y-66256003D01*
X93287000Y-66281140D01*
X93287000Y-66814860D01*
X93284524Y-66839997D01*
X93278980Y-66858274D01*
X93269982Y-66875108D01*
X93257868Y-66889868D01*
X93243108Y-66901982D01*
X93226274Y-66910980D01*
X93207997Y-66916524D01*
X93182860Y-66919000D01*
X92749140Y-66919000D01*
X92724003Y-66916524D01*
X92705726Y-66910980D01*
X92688892Y-66901982D01*
X92674132Y-66889868D01*
X92662018Y-66875108D01*
X92653020Y-66858274D01*
X92647476Y-66839997D01*
X92645000Y-66814860D01*
X92645000Y-66281140D01*
X92647476Y-66256003D01*
X92653020Y-66237726D01*
X92662018Y-66220892D01*
X92674132Y-66206132D01*
X92688892Y-66194018D01*
X92705726Y-66185020D01*
X92724003Y-66179476D01*
X92749140Y-66177000D01*
X93182860Y-66177000D01*
X93207997Y-66179476D01*
G37*
G36*
X73903997Y-66179476D02*
G01*
X73922274Y-66185020D01*
X73939108Y-66194018D01*
X73953868Y-66206132D01*
X73965982Y-66220892D01*
X73974980Y-66237726D01*
X73980524Y-66256003D01*
X73983000Y-66281140D01*
X73983000Y-66814860D01*
X73980524Y-66839997D01*
X73974980Y-66858274D01*
X73965982Y-66875108D01*
X73953868Y-66889868D01*
X73939108Y-66901982D01*
X73922274Y-66910980D01*
X73903997Y-66916524D01*
X73878860Y-66919000D01*
X73445140Y-66919000D01*
X73420003Y-66916524D01*
X73401726Y-66910980D01*
X73384892Y-66901982D01*
X73370132Y-66889868D01*
X73358018Y-66875108D01*
X73349020Y-66858274D01*
X73343476Y-66839997D01*
X73341000Y-66814860D01*
X73341000Y-66281140D01*
X73343476Y-66256003D01*
X73349020Y-66237726D01*
X73358018Y-66220892D01*
X73370132Y-66206132D01*
X73384892Y-66194018D01*
X73401726Y-66185020D01*
X73420003Y-66179476D01*
X73445140Y-66177000D01*
X73878860Y-66177000D01*
X73903997Y-66179476D01*
G37*
G36*
X92187997Y-66179476D02*
G01*
X92206274Y-66185020D01*
X92223108Y-66194018D01*
X92237868Y-66206132D01*
X92249982Y-66220892D01*
X92258980Y-66237726D01*
X92264524Y-66256003D01*
X92267000Y-66281140D01*
X92267000Y-66814860D01*
X92264524Y-66839997D01*
X92258980Y-66858274D01*
X92249982Y-66875108D01*
X92237868Y-66889868D01*
X92223108Y-66901982D01*
X92206274Y-66910980D01*
X92187997Y-66916524D01*
X92162860Y-66919000D01*
X91729140Y-66919000D01*
X91704003Y-66916524D01*
X91685726Y-66910980D01*
X91668892Y-66901982D01*
X91654132Y-66889868D01*
X91642018Y-66875108D01*
X91633020Y-66858274D01*
X91627476Y-66839997D01*
X91625000Y-66814860D01*
X91625000Y-66281140D01*
X91627476Y-66256003D01*
X91633020Y-66237726D01*
X91642018Y-66220892D01*
X91654132Y-66206132D01*
X91668892Y-66194018D01*
X91685726Y-66185020D01*
X91704003Y-66179476D01*
X91729140Y-66177000D01*
X92162860Y-66177000D01*
X92187997Y-66179476D01*
G37*
G36*
X149081997Y-66179476D02*
G01*
X149100274Y-66185020D01*
X149117108Y-66194018D01*
X149131868Y-66206132D01*
X149143982Y-66220892D01*
X149152980Y-66237726D01*
X149158524Y-66256003D01*
X149161000Y-66281140D01*
X149161000Y-66814860D01*
X149158524Y-66839997D01*
X149152980Y-66858274D01*
X149143982Y-66875108D01*
X149131868Y-66889868D01*
X149117108Y-66901982D01*
X149100274Y-66910980D01*
X149081997Y-66916524D01*
X149056860Y-66919000D01*
X148623140Y-66919000D01*
X148598003Y-66916524D01*
X148579726Y-66910980D01*
X148562892Y-66901982D01*
X148548132Y-66889868D01*
X148536018Y-66875108D01*
X148527020Y-66858274D01*
X148521476Y-66839997D01*
X148519000Y-66814860D01*
X148519000Y-66281140D01*
X148521476Y-66256003D01*
X148527020Y-66237726D01*
X148536018Y-66220892D01*
X148548132Y-66206132D01*
X148562892Y-66194018D01*
X148579726Y-66185020D01*
X148598003Y-66179476D01*
X148623140Y-66177000D01*
X149056860Y-66177000D01*
X149081997Y-66179476D01*
G37*
G36*
X72883997Y-66179476D02*
G01*
X72902274Y-66185020D01*
X72919108Y-66194018D01*
X72933868Y-66206132D01*
X72945982Y-66220892D01*
X72954980Y-66237726D01*
X72960524Y-66256003D01*
X72963000Y-66281140D01*
X72963000Y-66814860D01*
X72960524Y-66839997D01*
X72954980Y-66858274D01*
X72945982Y-66875108D01*
X72933868Y-66889868D01*
X72919108Y-66901982D01*
X72902274Y-66910980D01*
X72883997Y-66916524D01*
X72858860Y-66919000D01*
X72425140Y-66919000D01*
X72400003Y-66916524D01*
X72381726Y-66910980D01*
X72364892Y-66901982D01*
X72350132Y-66889868D01*
X72338018Y-66875108D01*
X72329020Y-66858274D01*
X72323476Y-66839997D01*
X72321000Y-66814860D01*
X72321000Y-66281140D01*
X72323476Y-66256003D01*
X72329020Y-66237726D01*
X72338018Y-66220892D01*
X72350132Y-66206132D01*
X72364892Y-66194018D01*
X72381726Y-66185020D01*
X72400003Y-66179476D01*
X72425140Y-66177000D01*
X72858860Y-66177000D01*
X72883997Y-66179476D01*
G37*
G36*
X75931997Y-66179476D02*
G01*
X75950274Y-66185020D01*
X75967108Y-66194018D01*
X75981868Y-66206132D01*
X75993982Y-66220892D01*
X76002980Y-66237726D01*
X76008524Y-66256003D01*
X76011000Y-66281140D01*
X76011000Y-66814860D01*
X76008524Y-66839997D01*
X76002980Y-66858274D01*
X75993982Y-66875108D01*
X75981868Y-66889868D01*
X75967108Y-66901982D01*
X75950274Y-66910980D01*
X75931997Y-66916524D01*
X75906860Y-66919000D01*
X75473140Y-66919000D01*
X75448003Y-66916524D01*
X75429726Y-66910980D01*
X75412892Y-66901982D01*
X75398132Y-66889868D01*
X75386018Y-66875108D01*
X75377020Y-66858274D01*
X75371476Y-66839997D01*
X75369000Y-66814860D01*
X75369000Y-66281140D01*
X75371476Y-66256003D01*
X75377020Y-66237726D01*
X75386018Y-66220892D01*
X75398132Y-66206132D01*
X75412892Y-66194018D01*
X75429726Y-66185020D01*
X75448003Y-66179476D01*
X75473140Y-66177000D01*
X75906860Y-66177000D01*
X75931997Y-66179476D01*
G37*
G36*
X127751997Y-66179476D02*
G01*
X127770274Y-66185020D01*
X127787108Y-66194018D01*
X127801868Y-66206132D01*
X127813982Y-66220892D01*
X127822980Y-66237726D01*
X127828524Y-66256003D01*
X127831000Y-66281140D01*
X127831000Y-66814860D01*
X127828524Y-66839997D01*
X127822980Y-66858274D01*
X127813982Y-66875108D01*
X127801868Y-66889868D01*
X127787108Y-66901982D01*
X127770274Y-66910980D01*
X127751997Y-66916524D01*
X127726860Y-66919000D01*
X127293140Y-66919000D01*
X127268003Y-66916524D01*
X127249726Y-66910980D01*
X127232892Y-66901982D01*
X127218132Y-66889868D01*
X127206018Y-66875108D01*
X127197020Y-66858274D01*
X127191476Y-66839997D01*
X127189000Y-66814860D01*
X127189000Y-66281140D01*
X127191476Y-66256003D01*
X127197020Y-66237726D01*
X127206018Y-66220892D01*
X127218132Y-66206132D01*
X127232892Y-66194018D01*
X127249726Y-66185020D01*
X127268003Y-66179476D01*
X127293140Y-66177000D01*
X127726860Y-66177000D01*
X127751997Y-66179476D01*
G37*
G36*
X150101997Y-66179476D02*
G01*
X150120274Y-66185020D01*
X150137108Y-66194018D01*
X150151868Y-66206132D01*
X150163982Y-66220892D01*
X150172980Y-66237726D01*
X150178524Y-66256003D01*
X150181000Y-66281140D01*
X150181000Y-66814860D01*
X150178524Y-66839997D01*
X150172980Y-66858274D01*
X150163982Y-66875108D01*
X150151868Y-66889868D01*
X150137108Y-66901982D01*
X150120274Y-66910980D01*
X150101997Y-66916524D01*
X150076860Y-66919000D01*
X149643140Y-66919000D01*
X149618003Y-66916524D01*
X149599726Y-66910980D01*
X149582892Y-66901982D01*
X149568132Y-66889868D01*
X149556018Y-66875108D01*
X149547020Y-66858274D01*
X149541476Y-66839997D01*
X149539000Y-66814860D01*
X149539000Y-66281140D01*
X149541476Y-66256003D01*
X149547020Y-66237726D01*
X149556018Y-66220892D01*
X149568132Y-66206132D01*
X149582892Y-66194018D01*
X149599726Y-66185020D01*
X149618003Y-66179476D01*
X149643140Y-66177000D01*
X150076860Y-66177000D01*
X150101997Y-66179476D01*
G37*
G36*
X156195997Y-66179476D02*
G01*
X156214274Y-66185020D01*
X156231108Y-66194018D01*
X156245868Y-66206132D01*
X156257982Y-66220892D01*
X156266980Y-66237726D01*
X156272524Y-66256003D01*
X156275000Y-66281140D01*
X156275000Y-66814860D01*
X156272524Y-66839997D01*
X156266980Y-66858274D01*
X156257982Y-66875108D01*
X156245868Y-66889868D01*
X156231108Y-66901982D01*
X156214274Y-66910980D01*
X156195997Y-66916524D01*
X156170860Y-66919000D01*
X155737140Y-66919000D01*
X155712003Y-66916524D01*
X155693726Y-66910980D01*
X155676892Y-66901982D01*
X155662132Y-66889868D01*
X155650018Y-66875108D01*
X155641020Y-66858274D01*
X155635476Y-66839997D01*
X155633000Y-66814860D01*
X155633000Y-66281140D01*
X155635476Y-66256003D01*
X155641020Y-66237726D01*
X155650018Y-66220892D01*
X155662132Y-66206132D01*
X155676892Y-66194018D01*
X155693726Y-66185020D01*
X155712003Y-66179476D01*
X155737140Y-66177000D01*
X156170860Y-66177000D01*
X156195997Y-66179476D01*
G37*
G36*
X152129997Y-66179476D02*
G01*
X152148274Y-66185020D01*
X152165108Y-66194018D01*
X152179868Y-66206132D01*
X152191982Y-66220892D01*
X152200980Y-66237726D01*
X152206524Y-66256003D01*
X152209000Y-66281140D01*
X152209000Y-66814860D01*
X152206524Y-66839997D01*
X152200980Y-66858274D01*
X152191982Y-66875108D01*
X152179868Y-66889868D01*
X152165108Y-66901982D01*
X152148274Y-66910980D01*
X152129997Y-66916524D01*
X152104860Y-66919000D01*
X151671140Y-66919000D01*
X151646003Y-66916524D01*
X151627726Y-66910980D01*
X151610892Y-66901982D01*
X151596132Y-66889868D01*
X151584018Y-66875108D01*
X151575020Y-66858274D01*
X151569476Y-66839997D01*
X151567000Y-66814860D01*
X151567000Y-66281140D01*
X151569476Y-66256003D01*
X151575020Y-66237726D01*
X151584018Y-66220892D01*
X151596132Y-66206132D01*
X151610892Y-66194018D01*
X151627726Y-66185020D01*
X151646003Y-66179476D01*
X151671140Y-66177000D01*
X152104860Y-66177000D01*
X152129997Y-66179476D01*
G37*
G36*
X153149997Y-66179476D02*
G01*
X153168274Y-66185020D01*
X153185108Y-66194018D01*
X153199868Y-66206132D01*
X153211982Y-66220892D01*
X153220980Y-66237726D01*
X153226524Y-66256003D01*
X153229000Y-66281140D01*
X153229000Y-66814860D01*
X153226524Y-66839997D01*
X153220980Y-66858274D01*
X153211982Y-66875108D01*
X153199868Y-66889868D01*
X153185108Y-66901982D01*
X153168274Y-66910980D01*
X153149997Y-66916524D01*
X153124860Y-66919000D01*
X152691140Y-66919000D01*
X152666003Y-66916524D01*
X152647726Y-66910980D01*
X152630892Y-66901982D01*
X152616132Y-66889868D01*
X152604018Y-66875108D01*
X152595020Y-66858274D01*
X152589476Y-66839997D01*
X152587000Y-66814860D01*
X152587000Y-66281140D01*
X152589476Y-66256003D01*
X152595020Y-66237726D01*
X152604018Y-66220892D01*
X152616132Y-66206132D01*
X152630892Y-66194018D01*
X152647726Y-66185020D01*
X152666003Y-66179476D01*
X152691140Y-66177000D01*
X153124860Y-66177000D01*
X153149997Y-66179476D01*
G37*
M02*
