G04 #@! TF.GenerationSoftware,KiCad,Pcbnew,(5.1.10)-1*
G04 #@! TF.CreationDate,2021-09-21T14:09:16-07:00*
G04 #@! TF.ProjectId,Adapter,41646170-7465-4722-9e6b-696361645f70,rev?*
G04 #@! TF.SameCoordinates,Original*
G04 #@! TF.FileFunction,Paste,Top*
G04 #@! TF.FilePolarity,Positive*
%FSLAX46Y46*%
G04 Gerber Fmt 4.6, Leading zero omitted, Abs format (unit mm)*
G04 Created by KiCad (PCBNEW (5.1.10)-1) date 2021-09-21 14:09:16*
%MOMM*%
%LPD*%
G01*
G04 APERTURE LIST*
G04 APERTURE END LIST*
G36*
G01*
X61997000Y-85553000D02*
X61447000Y-85553000D01*
G75*
G02*
X61247000Y-85353000I0J200000D01*
G01*
X61247000Y-84953000D01*
G75*
G02*
X61447000Y-84753000I200000J0D01*
G01*
X61997000Y-84753000D01*
G75*
G02*
X62197000Y-84953000I0J-200000D01*
G01*
X62197000Y-85353000D01*
G75*
G02*
X61997000Y-85553000I-200000J0D01*
G01*
G37*
G36*
G01*
X61997000Y-83903000D02*
X61447000Y-83903000D01*
G75*
G02*
X61247000Y-83703000I0J200000D01*
G01*
X61247000Y-83303000D01*
G75*
G02*
X61447000Y-83103000I200000J0D01*
G01*
X61997000Y-83103000D01*
G75*
G02*
X62197000Y-83303000I0J-200000D01*
G01*
X62197000Y-83703000D01*
G75*
G02*
X61997000Y-83903000I-200000J0D01*
G01*
G37*
G36*
G01*
X87905000Y-85553000D02*
X87355000Y-85553000D01*
G75*
G02*
X87155000Y-85353000I0J200000D01*
G01*
X87155000Y-84953000D01*
G75*
G02*
X87355000Y-84753000I200000J0D01*
G01*
X87905000Y-84753000D01*
G75*
G02*
X88105000Y-84953000I0J-200000D01*
G01*
X88105000Y-85353000D01*
G75*
G02*
X87905000Y-85553000I-200000J0D01*
G01*
G37*
G36*
G01*
X87905000Y-83903000D02*
X87355000Y-83903000D01*
G75*
G02*
X87155000Y-83703000I0J200000D01*
G01*
X87155000Y-83303000D01*
G75*
G02*
X87355000Y-83103000I200000J0D01*
G01*
X87905000Y-83103000D01*
G75*
G02*
X88105000Y-83303000I0J-200000D01*
G01*
X88105000Y-83703000D01*
G75*
G02*
X87905000Y-83903000I-200000J0D01*
G01*
G37*
G36*
G01*
X112289000Y-85553000D02*
X111739000Y-85553000D01*
G75*
G02*
X111539000Y-85353000I0J200000D01*
G01*
X111539000Y-84953000D01*
G75*
G02*
X111739000Y-84753000I200000J0D01*
G01*
X112289000Y-84753000D01*
G75*
G02*
X112489000Y-84953000I0J-200000D01*
G01*
X112489000Y-85353000D01*
G75*
G02*
X112289000Y-85553000I-200000J0D01*
G01*
G37*
G36*
G01*
X112289000Y-83903000D02*
X111739000Y-83903000D01*
G75*
G02*
X111539000Y-83703000I0J200000D01*
G01*
X111539000Y-83303000D01*
G75*
G02*
X111739000Y-83103000I200000J0D01*
G01*
X112289000Y-83103000D01*
G75*
G02*
X112489000Y-83303000I0J-200000D01*
G01*
X112489000Y-83703000D01*
G75*
G02*
X112289000Y-83903000I-200000J0D01*
G01*
G37*
G36*
G01*
X138197000Y-83903000D02*
X137647000Y-83903000D01*
G75*
G02*
X137447000Y-83703000I0J200000D01*
G01*
X137447000Y-83303000D01*
G75*
G02*
X137647000Y-83103000I200000J0D01*
G01*
X138197000Y-83103000D01*
G75*
G02*
X138397000Y-83303000I0J-200000D01*
G01*
X138397000Y-83703000D01*
G75*
G02*
X138197000Y-83903000I-200000J0D01*
G01*
G37*
G36*
G01*
X138197000Y-85553000D02*
X137647000Y-85553000D01*
G75*
G02*
X137447000Y-85353000I0J200000D01*
G01*
X137447000Y-84953000D01*
G75*
G02*
X137647000Y-84753000I200000J0D01*
G01*
X138197000Y-84753000D01*
G75*
G02*
X138397000Y-84953000I0J-200000D01*
G01*
X138397000Y-85353000D01*
G75*
G02*
X138197000Y-85553000I-200000J0D01*
G01*
G37*
G36*
G01*
X67585000Y-85553000D02*
X67035000Y-85553000D01*
G75*
G02*
X66835000Y-85353000I0J200000D01*
G01*
X66835000Y-84953000D01*
G75*
G02*
X67035000Y-84753000I200000J0D01*
G01*
X67585000Y-84753000D01*
G75*
G02*
X67785000Y-84953000I0J-200000D01*
G01*
X67785000Y-85353000D01*
G75*
G02*
X67585000Y-85553000I-200000J0D01*
G01*
G37*
G36*
G01*
X67585000Y-83903000D02*
X67035000Y-83903000D01*
G75*
G02*
X66835000Y-83703000I0J200000D01*
G01*
X66835000Y-83303000D01*
G75*
G02*
X67035000Y-83103000I200000J0D01*
G01*
X67585000Y-83103000D01*
G75*
G02*
X67785000Y-83303000I0J-200000D01*
G01*
X67785000Y-83703000D01*
G75*
G02*
X67585000Y-83903000I-200000J0D01*
G01*
G37*
G36*
G01*
X92985000Y-85553000D02*
X92435000Y-85553000D01*
G75*
G02*
X92235000Y-85353000I0J200000D01*
G01*
X92235000Y-84953000D01*
G75*
G02*
X92435000Y-84753000I200000J0D01*
G01*
X92985000Y-84753000D01*
G75*
G02*
X93185000Y-84953000I0J-200000D01*
G01*
X93185000Y-85353000D01*
G75*
G02*
X92985000Y-85553000I-200000J0D01*
G01*
G37*
G36*
G01*
X92985000Y-83903000D02*
X92435000Y-83903000D01*
G75*
G02*
X92235000Y-83703000I0J200000D01*
G01*
X92235000Y-83303000D01*
G75*
G02*
X92435000Y-83103000I200000J0D01*
G01*
X92985000Y-83103000D01*
G75*
G02*
X93185000Y-83303000I0J-200000D01*
G01*
X93185000Y-83703000D01*
G75*
G02*
X92985000Y-83903000I-200000J0D01*
G01*
G37*
G36*
G01*
X117369000Y-85553000D02*
X116819000Y-85553000D01*
G75*
G02*
X116619000Y-85353000I0J200000D01*
G01*
X116619000Y-84953000D01*
G75*
G02*
X116819000Y-84753000I200000J0D01*
G01*
X117369000Y-84753000D01*
G75*
G02*
X117569000Y-84953000I0J-200000D01*
G01*
X117569000Y-85353000D01*
G75*
G02*
X117369000Y-85553000I-200000J0D01*
G01*
G37*
G36*
G01*
X117369000Y-83903000D02*
X116819000Y-83903000D01*
G75*
G02*
X116619000Y-83703000I0J200000D01*
G01*
X116619000Y-83303000D01*
G75*
G02*
X116819000Y-83103000I200000J0D01*
G01*
X117369000Y-83103000D01*
G75*
G02*
X117569000Y-83303000I0J-200000D01*
G01*
X117569000Y-83703000D01*
G75*
G02*
X117369000Y-83903000I-200000J0D01*
G01*
G37*
G36*
G01*
X143277000Y-83903000D02*
X142727000Y-83903000D01*
G75*
G02*
X142527000Y-83703000I0J200000D01*
G01*
X142527000Y-83303000D01*
G75*
G02*
X142727000Y-83103000I200000J0D01*
G01*
X143277000Y-83103000D01*
G75*
G02*
X143477000Y-83303000I0J-200000D01*
G01*
X143477000Y-83703000D01*
G75*
G02*
X143277000Y-83903000I-200000J0D01*
G01*
G37*
G36*
G01*
X143277000Y-85553000D02*
X142727000Y-85553000D01*
G75*
G02*
X142527000Y-85353000I0J200000D01*
G01*
X142527000Y-84953000D01*
G75*
G02*
X142727000Y-84753000I200000J0D01*
G01*
X143277000Y-84753000D01*
G75*
G02*
X143477000Y-84953000I0J-200000D01*
G01*
X143477000Y-85353000D01*
G75*
G02*
X143277000Y-85553000I-200000J0D01*
G01*
G37*
G36*
G01*
X72665000Y-85553000D02*
X72115000Y-85553000D01*
G75*
G02*
X71915000Y-85353000I0J200000D01*
G01*
X71915000Y-84953000D01*
G75*
G02*
X72115000Y-84753000I200000J0D01*
G01*
X72665000Y-84753000D01*
G75*
G02*
X72865000Y-84953000I0J-200000D01*
G01*
X72865000Y-85353000D01*
G75*
G02*
X72665000Y-85553000I-200000J0D01*
G01*
G37*
G36*
G01*
X72665000Y-83903000D02*
X72115000Y-83903000D01*
G75*
G02*
X71915000Y-83703000I0J200000D01*
G01*
X71915000Y-83303000D01*
G75*
G02*
X72115000Y-83103000I200000J0D01*
G01*
X72665000Y-83103000D01*
G75*
G02*
X72865000Y-83303000I0J-200000D01*
G01*
X72865000Y-83703000D01*
G75*
G02*
X72665000Y-83903000I-200000J0D01*
G01*
G37*
G36*
G01*
X97557000Y-85553000D02*
X97007000Y-85553000D01*
G75*
G02*
X96807000Y-85353000I0J200000D01*
G01*
X96807000Y-84953000D01*
G75*
G02*
X97007000Y-84753000I200000J0D01*
G01*
X97557000Y-84753000D01*
G75*
G02*
X97757000Y-84953000I0J-200000D01*
G01*
X97757000Y-85353000D01*
G75*
G02*
X97557000Y-85553000I-200000J0D01*
G01*
G37*
G36*
G01*
X97557000Y-83903000D02*
X97007000Y-83903000D01*
G75*
G02*
X96807000Y-83703000I0J200000D01*
G01*
X96807000Y-83303000D01*
G75*
G02*
X97007000Y-83103000I200000J0D01*
G01*
X97557000Y-83103000D01*
G75*
G02*
X97757000Y-83303000I0J-200000D01*
G01*
X97757000Y-83703000D01*
G75*
G02*
X97557000Y-83903000I-200000J0D01*
G01*
G37*
G36*
G01*
X121941000Y-85553000D02*
X121391000Y-85553000D01*
G75*
G02*
X121191000Y-85353000I0J200000D01*
G01*
X121191000Y-84953000D01*
G75*
G02*
X121391000Y-84753000I200000J0D01*
G01*
X121941000Y-84753000D01*
G75*
G02*
X122141000Y-84953000I0J-200000D01*
G01*
X122141000Y-85353000D01*
G75*
G02*
X121941000Y-85553000I-200000J0D01*
G01*
G37*
G36*
G01*
X121941000Y-83903000D02*
X121391000Y-83903000D01*
G75*
G02*
X121191000Y-83703000I0J200000D01*
G01*
X121191000Y-83303000D01*
G75*
G02*
X121391000Y-83103000I200000J0D01*
G01*
X121941000Y-83103000D01*
G75*
G02*
X122141000Y-83303000I0J-200000D01*
G01*
X122141000Y-83703000D01*
G75*
G02*
X121941000Y-83903000I-200000J0D01*
G01*
G37*
G36*
G01*
X148357000Y-83903000D02*
X147807000Y-83903000D01*
G75*
G02*
X147607000Y-83703000I0J200000D01*
G01*
X147607000Y-83303000D01*
G75*
G02*
X147807000Y-83103000I200000J0D01*
G01*
X148357000Y-83103000D01*
G75*
G02*
X148557000Y-83303000I0J-200000D01*
G01*
X148557000Y-83703000D01*
G75*
G02*
X148357000Y-83903000I-200000J0D01*
G01*
G37*
G36*
G01*
X148357000Y-85553000D02*
X147807000Y-85553000D01*
G75*
G02*
X147607000Y-85353000I0J200000D01*
G01*
X147607000Y-84953000D01*
G75*
G02*
X147807000Y-84753000I200000J0D01*
G01*
X148357000Y-84753000D01*
G75*
G02*
X148557000Y-84953000I0J-200000D01*
G01*
X148557000Y-85353000D01*
G75*
G02*
X148357000Y-85553000I-200000J0D01*
G01*
G37*
G36*
G01*
X77237000Y-83903000D02*
X76687000Y-83903000D01*
G75*
G02*
X76487000Y-83703000I0J200000D01*
G01*
X76487000Y-83303000D01*
G75*
G02*
X76687000Y-83103000I200000J0D01*
G01*
X77237000Y-83103000D01*
G75*
G02*
X77437000Y-83303000I0J-200000D01*
G01*
X77437000Y-83703000D01*
G75*
G02*
X77237000Y-83903000I-200000J0D01*
G01*
G37*
G36*
G01*
X77237000Y-85553000D02*
X76687000Y-85553000D01*
G75*
G02*
X76487000Y-85353000I0J200000D01*
G01*
X76487000Y-84953000D01*
G75*
G02*
X76687000Y-84753000I200000J0D01*
G01*
X77237000Y-84753000D01*
G75*
G02*
X77437000Y-84953000I0J-200000D01*
G01*
X77437000Y-85353000D01*
G75*
G02*
X77237000Y-85553000I-200000J0D01*
G01*
G37*
G36*
G01*
X102637000Y-85553000D02*
X102087000Y-85553000D01*
G75*
G02*
X101887000Y-85353000I0J200000D01*
G01*
X101887000Y-84953000D01*
G75*
G02*
X102087000Y-84753000I200000J0D01*
G01*
X102637000Y-84753000D01*
G75*
G02*
X102837000Y-84953000I0J-200000D01*
G01*
X102837000Y-85353000D01*
G75*
G02*
X102637000Y-85553000I-200000J0D01*
G01*
G37*
G36*
G01*
X102637000Y-83903000D02*
X102087000Y-83903000D01*
G75*
G02*
X101887000Y-83703000I0J200000D01*
G01*
X101887000Y-83303000D01*
G75*
G02*
X102087000Y-83103000I200000J0D01*
G01*
X102637000Y-83103000D01*
G75*
G02*
X102837000Y-83303000I0J-200000D01*
G01*
X102837000Y-83703000D01*
G75*
G02*
X102637000Y-83903000I-200000J0D01*
G01*
G37*
G36*
G01*
X127529000Y-85553000D02*
X126979000Y-85553000D01*
G75*
G02*
X126779000Y-85353000I0J200000D01*
G01*
X126779000Y-84953000D01*
G75*
G02*
X126979000Y-84753000I200000J0D01*
G01*
X127529000Y-84753000D01*
G75*
G02*
X127729000Y-84953000I0J-200000D01*
G01*
X127729000Y-85353000D01*
G75*
G02*
X127529000Y-85553000I-200000J0D01*
G01*
G37*
G36*
G01*
X127529000Y-83903000D02*
X126979000Y-83903000D01*
G75*
G02*
X126779000Y-83703000I0J200000D01*
G01*
X126779000Y-83303000D01*
G75*
G02*
X126979000Y-83103000I200000J0D01*
G01*
X127529000Y-83103000D01*
G75*
G02*
X127729000Y-83303000I0J-200000D01*
G01*
X127729000Y-83703000D01*
G75*
G02*
X127529000Y-83903000I-200000J0D01*
G01*
G37*
G36*
G01*
X153437000Y-83903000D02*
X152887000Y-83903000D01*
G75*
G02*
X152687000Y-83703000I0J200000D01*
G01*
X152687000Y-83303000D01*
G75*
G02*
X152887000Y-83103000I200000J0D01*
G01*
X153437000Y-83103000D01*
G75*
G02*
X153637000Y-83303000I0J-200000D01*
G01*
X153637000Y-83703000D01*
G75*
G02*
X153437000Y-83903000I-200000J0D01*
G01*
G37*
G36*
G01*
X153437000Y-85553000D02*
X152887000Y-85553000D01*
G75*
G02*
X152687000Y-85353000I0J200000D01*
G01*
X152687000Y-84953000D01*
G75*
G02*
X152887000Y-84753000I200000J0D01*
G01*
X153437000Y-84753000D01*
G75*
G02*
X153637000Y-84953000I0J-200000D01*
G01*
X153637000Y-85353000D01*
G75*
G02*
X153437000Y-85553000I-200000J0D01*
G01*
G37*
G36*
G01*
X67481000Y-66823000D02*
X67481000Y-66273000D01*
G75*
G02*
X67681000Y-66073000I200000J0D01*
G01*
X68081000Y-66073000D01*
G75*
G02*
X68281000Y-66273000I0J-200000D01*
G01*
X68281000Y-66823000D01*
G75*
G02*
X68081000Y-67023000I-200000J0D01*
G01*
X67681000Y-67023000D01*
G75*
G02*
X67481000Y-66823000I0J200000D01*
G01*
G37*
G36*
G01*
X65831000Y-66823000D02*
X65831000Y-66273000D01*
G75*
G02*
X66031000Y-66073000I200000J0D01*
G01*
X66431000Y-66073000D01*
G75*
G02*
X66631000Y-66273000I0J-200000D01*
G01*
X66631000Y-66823000D01*
G75*
G02*
X66431000Y-67023000I-200000J0D01*
G01*
X66031000Y-67023000D01*
G75*
G02*
X65831000Y-66823000I0J200000D01*
G01*
G37*
G36*
G01*
X70529000Y-66823000D02*
X70529000Y-66273000D01*
G75*
G02*
X70729000Y-66073000I200000J0D01*
G01*
X71129000Y-66073000D01*
G75*
G02*
X71329000Y-66273000I0J-200000D01*
G01*
X71329000Y-66823000D01*
G75*
G02*
X71129000Y-67023000I-200000J0D01*
G01*
X70729000Y-67023000D01*
G75*
G02*
X70529000Y-66823000I0J200000D01*
G01*
G37*
G36*
G01*
X68879000Y-66823000D02*
X68879000Y-66273000D01*
G75*
G02*
X69079000Y-66073000I200000J0D01*
G01*
X69479000Y-66073000D01*
G75*
G02*
X69679000Y-66273000I0J-200000D01*
G01*
X69679000Y-66823000D01*
G75*
G02*
X69479000Y-67023000I-200000J0D01*
G01*
X69079000Y-67023000D01*
G75*
G02*
X68879000Y-66823000I0J200000D01*
G01*
G37*
G36*
G01*
X73577000Y-66823000D02*
X73577000Y-66273000D01*
G75*
G02*
X73777000Y-66073000I200000J0D01*
G01*
X74177000Y-66073000D01*
G75*
G02*
X74377000Y-66273000I0J-200000D01*
G01*
X74377000Y-66823000D01*
G75*
G02*
X74177000Y-67023000I-200000J0D01*
G01*
X73777000Y-67023000D01*
G75*
G02*
X73577000Y-66823000I0J200000D01*
G01*
G37*
G36*
G01*
X71927000Y-66823000D02*
X71927000Y-66273000D01*
G75*
G02*
X72127000Y-66073000I200000J0D01*
G01*
X72527000Y-66073000D01*
G75*
G02*
X72727000Y-66273000I0J-200000D01*
G01*
X72727000Y-66823000D01*
G75*
G02*
X72527000Y-67023000I-200000J0D01*
G01*
X72127000Y-67023000D01*
G75*
G02*
X71927000Y-66823000I0J200000D01*
G01*
G37*
G36*
G01*
X76625000Y-66823000D02*
X76625000Y-66273000D01*
G75*
G02*
X76825000Y-66073000I200000J0D01*
G01*
X77225000Y-66073000D01*
G75*
G02*
X77425000Y-66273000I0J-200000D01*
G01*
X77425000Y-66823000D01*
G75*
G02*
X77225000Y-67023000I-200000J0D01*
G01*
X76825000Y-67023000D01*
G75*
G02*
X76625000Y-66823000I0J200000D01*
G01*
G37*
G36*
G01*
X74975000Y-66823000D02*
X74975000Y-66273000D01*
G75*
G02*
X75175000Y-66073000I200000J0D01*
G01*
X75575000Y-66073000D01*
G75*
G02*
X75775000Y-66273000I0J-200000D01*
G01*
X75775000Y-66823000D01*
G75*
G02*
X75575000Y-67023000I-200000J0D01*
G01*
X75175000Y-67023000D01*
G75*
G02*
X74975000Y-66823000I0J200000D01*
G01*
G37*
G36*
G01*
X92881000Y-66823000D02*
X92881000Y-66273000D01*
G75*
G02*
X93081000Y-66073000I200000J0D01*
G01*
X93481000Y-66073000D01*
G75*
G02*
X93681000Y-66273000I0J-200000D01*
G01*
X93681000Y-66823000D01*
G75*
G02*
X93481000Y-67023000I-200000J0D01*
G01*
X93081000Y-67023000D01*
G75*
G02*
X92881000Y-66823000I0J200000D01*
G01*
G37*
G36*
G01*
X91231000Y-66823000D02*
X91231000Y-66273000D01*
G75*
G02*
X91431000Y-66073000I200000J0D01*
G01*
X91831000Y-66073000D01*
G75*
G02*
X92031000Y-66273000I0J-200000D01*
G01*
X92031000Y-66823000D01*
G75*
G02*
X91831000Y-67023000I-200000J0D01*
G01*
X91431000Y-67023000D01*
G75*
G02*
X91231000Y-66823000I0J200000D01*
G01*
G37*
G36*
G01*
X95929000Y-66823000D02*
X95929000Y-66273000D01*
G75*
G02*
X96129000Y-66073000I200000J0D01*
G01*
X96529000Y-66073000D01*
G75*
G02*
X96729000Y-66273000I0J-200000D01*
G01*
X96729000Y-66823000D01*
G75*
G02*
X96529000Y-67023000I-200000J0D01*
G01*
X96129000Y-67023000D01*
G75*
G02*
X95929000Y-66823000I0J200000D01*
G01*
G37*
G36*
G01*
X94279000Y-66823000D02*
X94279000Y-66273000D01*
G75*
G02*
X94479000Y-66073000I200000J0D01*
G01*
X94879000Y-66073000D01*
G75*
G02*
X95079000Y-66273000I0J-200000D01*
G01*
X95079000Y-66823000D01*
G75*
G02*
X94879000Y-67023000I-200000J0D01*
G01*
X94479000Y-67023000D01*
G75*
G02*
X94279000Y-66823000I0J200000D01*
G01*
G37*
G36*
G01*
X98977000Y-66823000D02*
X98977000Y-66273000D01*
G75*
G02*
X99177000Y-66073000I200000J0D01*
G01*
X99577000Y-66073000D01*
G75*
G02*
X99777000Y-66273000I0J-200000D01*
G01*
X99777000Y-66823000D01*
G75*
G02*
X99577000Y-67023000I-200000J0D01*
G01*
X99177000Y-67023000D01*
G75*
G02*
X98977000Y-66823000I0J200000D01*
G01*
G37*
G36*
G01*
X97327000Y-66823000D02*
X97327000Y-66273000D01*
G75*
G02*
X97527000Y-66073000I200000J0D01*
G01*
X97927000Y-66073000D01*
G75*
G02*
X98127000Y-66273000I0J-200000D01*
G01*
X98127000Y-66823000D01*
G75*
G02*
X97927000Y-67023000I-200000J0D01*
G01*
X97527000Y-67023000D01*
G75*
G02*
X97327000Y-66823000I0J200000D01*
G01*
G37*
G36*
G01*
X102027000Y-66823000D02*
X102027000Y-66273000D01*
G75*
G02*
X102227000Y-66073000I200000J0D01*
G01*
X102627000Y-66073000D01*
G75*
G02*
X102827000Y-66273000I0J-200000D01*
G01*
X102827000Y-66823000D01*
G75*
G02*
X102627000Y-67023000I-200000J0D01*
G01*
X102227000Y-67023000D01*
G75*
G02*
X102027000Y-66823000I0J200000D01*
G01*
G37*
G36*
G01*
X100377000Y-66823000D02*
X100377000Y-66273000D01*
G75*
G02*
X100577000Y-66073000I200000J0D01*
G01*
X100977000Y-66073000D01*
G75*
G02*
X101177000Y-66273000I0J-200000D01*
G01*
X101177000Y-66823000D01*
G75*
G02*
X100977000Y-67023000I-200000J0D01*
G01*
X100577000Y-67023000D01*
G75*
G02*
X100377000Y-66823000I0J200000D01*
G01*
G37*
G36*
G01*
X118279000Y-66823000D02*
X118279000Y-66273000D01*
G75*
G02*
X118479000Y-66073000I200000J0D01*
G01*
X118879000Y-66073000D01*
G75*
G02*
X119079000Y-66273000I0J-200000D01*
G01*
X119079000Y-66823000D01*
G75*
G02*
X118879000Y-67023000I-200000J0D01*
G01*
X118479000Y-67023000D01*
G75*
G02*
X118279000Y-66823000I0J200000D01*
G01*
G37*
G36*
G01*
X116629000Y-66823000D02*
X116629000Y-66273000D01*
G75*
G02*
X116829000Y-66073000I200000J0D01*
G01*
X117229000Y-66073000D01*
G75*
G02*
X117429000Y-66273000I0J-200000D01*
G01*
X117429000Y-66823000D01*
G75*
G02*
X117229000Y-67023000I-200000J0D01*
G01*
X116829000Y-67023000D01*
G75*
G02*
X116629000Y-66823000I0J200000D01*
G01*
G37*
G36*
G01*
X121329000Y-66823000D02*
X121329000Y-66273000D01*
G75*
G02*
X121529000Y-66073000I200000J0D01*
G01*
X121929000Y-66073000D01*
G75*
G02*
X122129000Y-66273000I0J-200000D01*
G01*
X122129000Y-66823000D01*
G75*
G02*
X121929000Y-67023000I-200000J0D01*
G01*
X121529000Y-67023000D01*
G75*
G02*
X121329000Y-66823000I0J200000D01*
G01*
G37*
G36*
G01*
X119679000Y-66823000D02*
X119679000Y-66273000D01*
G75*
G02*
X119879000Y-66073000I200000J0D01*
G01*
X120279000Y-66073000D01*
G75*
G02*
X120479000Y-66273000I0J-200000D01*
G01*
X120479000Y-66823000D01*
G75*
G02*
X120279000Y-67023000I-200000J0D01*
G01*
X119879000Y-67023000D01*
G75*
G02*
X119679000Y-66823000I0J200000D01*
G01*
G37*
G36*
G01*
X124377000Y-66823000D02*
X124377000Y-66273000D01*
G75*
G02*
X124577000Y-66073000I200000J0D01*
G01*
X124977000Y-66073000D01*
G75*
G02*
X125177000Y-66273000I0J-200000D01*
G01*
X125177000Y-66823000D01*
G75*
G02*
X124977000Y-67023000I-200000J0D01*
G01*
X124577000Y-67023000D01*
G75*
G02*
X124377000Y-66823000I0J200000D01*
G01*
G37*
G36*
G01*
X122727000Y-66823000D02*
X122727000Y-66273000D01*
G75*
G02*
X122927000Y-66073000I200000J0D01*
G01*
X123327000Y-66073000D01*
G75*
G02*
X123527000Y-66273000I0J-200000D01*
G01*
X123527000Y-66823000D01*
G75*
G02*
X123327000Y-67023000I-200000J0D01*
G01*
X122927000Y-67023000D01*
G75*
G02*
X122727000Y-66823000I0J200000D01*
G01*
G37*
G36*
G01*
X127425000Y-66823000D02*
X127425000Y-66273000D01*
G75*
G02*
X127625000Y-66073000I200000J0D01*
G01*
X128025000Y-66073000D01*
G75*
G02*
X128225000Y-66273000I0J-200000D01*
G01*
X128225000Y-66823000D01*
G75*
G02*
X128025000Y-67023000I-200000J0D01*
G01*
X127625000Y-67023000D01*
G75*
G02*
X127425000Y-66823000I0J200000D01*
G01*
G37*
G36*
G01*
X125775000Y-66823000D02*
X125775000Y-66273000D01*
G75*
G02*
X125975000Y-66073000I200000J0D01*
G01*
X126375000Y-66073000D01*
G75*
G02*
X126575000Y-66273000I0J-200000D01*
G01*
X126575000Y-66823000D01*
G75*
G02*
X126375000Y-67023000I-200000J0D01*
G01*
X125975000Y-67023000D01*
G75*
G02*
X125775000Y-66823000I0J200000D01*
G01*
G37*
G36*
G01*
X143679000Y-66823000D02*
X143679000Y-66273000D01*
G75*
G02*
X143879000Y-66073000I200000J0D01*
G01*
X144279000Y-66073000D01*
G75*
G02*
X144479000Y-66273000I0J-200000D01*
G01*
X144479000Y-66823000D01*
G75*
G02*
X144279000Y-67023000I-200000J0D01*
G01*
X143879000Y-67023000D01*
G75*
G02*
X143679000Y-66823000I0J200000D01*
G01*
G37*
G36*
G01*
X142029000Y-66823000D02*
X142029000Y-66273000D01*
G75*
G02*
X142229000Y-66073000I200000J0D01*
G01*
X142629000Y-66073000D01*
G75*
G02*
X142829000Y-66273000I0J-200000D01*
G01*
X142829000Y-66823000D01*
G75*
G02*
X142629000Y-67023000I-200000J0D01*
G01*
X142229000Y-67023000D01*
G75*
G02*
X142029000Y-66823000I0J200000D01*
G01*
G37*
G36*
G01*
X146729000Y-66823000D02*
X146729000Y-66273000D01*
G75*
G02*
X146929000Y-66073000I200000J0D01*
G01*
X147329000Y-66073000D01*
G75*
G02*
X147529000Y-66273000I0J-200000D01*
G01*
X147529000Y-66823000D01*
G75*
G02*
X147329000Y-67023000I-200000J0D01*
G01*
X146929000Y-67023000D01*
G75*
G02*
X146729000Y-66823000I0J200000D01*
G01*
G37*
G36*
G01*
X145079000Y-66823000D02*
X145079000Y-66273000D01*
G75*
G02*
X145279000Y-66073000I200000J0D01*
G01*
X145679000Y-66073000D01*
G75*
G02*
X145879000Y-66273000I0J-200000D01*
G01*
X145879000Y-66823000D01*
G75*
G02*
X145679000Y-67023000I-200000J0D01*
G01*
X145279000Y-67023000D01*
G75*
G02*
X145079000Y-66823000I0J200000D01*
G01*
G37*
G36*
G01*
X149775000Y-66823000D02*
X149775000Y-66273000D01*
G75*
G02*
X149975000Y-66073000I200000J0D01*
G01*
X150375000Y-66073000D01*
G75*
G02*
X150575000Y-66273000I0J-200000D01*
G01*
X150575000Y-66823000D01*
G75*
G02*
X150375000Y-67023000I-200000J0D01*
G01*
X149975000Y-67023000D01*
G75*
G02*
X149775000Y-66823000I0J200000D01*
G01*
G37*
G36*
G01*
X148125000Y-66823000D02*
X148125000Y-66273000D01*
G75*
G02*
X148325000Y-66073000I200000J0D01*
G01*
X148725000Y-66073000D01*
G75*
G02*
X148925000Y-66273000I0J-200000D01*
G01*
X148925000Y-66823000D01*
G75*
G02*
X148725000Y-67023000I-200000J0D01*
G01*
X148325000Y-67023000D01*
G75*
G02*
X148125000Y-66823000I0J200000D01*
G01*
G37*
G36*
G01*
X152823000Y-66823000D02*
X152823000Y-66273000D01*
G75*
G02*
X153023000Y-66073000I200000J0D01*
G01*
X153423000Y-66073000D01*
G75*
G02*
X153623000Y-66273000I0J-200000D01*
G01*
X153623000Y-66823000D01*
G75*
G02*
X153423000Y-67023000I-200000J0D01*
G01*
X153023000Y-67023000D01*
G75*
G02*
X152823000Y-66823000I0J200000D01*
G01*
G37*
G36*
G01*
X151173000Y-66823000D02*
X151173000Y-66273000D01*
G75*
G02*
X151373000Y-66073000I200000J0D01*
G01*
X151773000Y-66073000D01*
G75*
G02*
X151973000Y-66273000I0J-200000D01*
G01*
X151973000Y-66823000D01*
G75*
G02*
X151773000Y-67023000I-200000J0D01*
G01*
X151373000Y-67023000D01*
G75*
G02*
X151173000Y-66823000I0J200000D01*
G01*
G37*
G36*
G01*
X156889000Y-66823000D02*
X156889000Y-66273000D01*
G75*
G02*
X157089000Y-66073000I200000J0D01*
G01*
X157489000Y-66073000D01*
G75*
G02*
X157689000Y-66273000I0J-200000D01*
G01*
X157689000Y-66823000D01*
G75*
G02*
X157489000Y-67023000I-200000J0D01*
G01*
X157089000Y-67023000D01*
G75*
G02*
X156889000Y-66823000I0J200000D01*
G01*
G37*
G36*
G01*
X155239000Y-66823000D02*
X155239000Y-66273000D01*
G75*
G02*
X155439000Y-66073000I200000J0D01*
G01*
X155839000Y-66073000D01*
G75*
G02*
X156039000Y-66273000I0J-200000D01*
G01*
X156039000Y-66823000D01*
G75*
G02*
X155839000Y-67023000I-200000J0D01*
G01*
X155439000Y-67023000D01*
G75*
G02*
X155239000Y-66823000I0J200000D01*
G01*
G37*
G36*
G01*
X61978250Y-88601000D02*
X61465750Y-88601000D01*
G75*
G02*
X61247000Y-88382250I0J218750D01*
G01*
X61247000Y-87944750D01*
G75*
G02*
X61465750Y-87726000I218750J0D01*
G01*
X61978250Y-87726000D01*
G75*
G02*
X62197000Y-87944750I0J-218750D01*
G01*
X62197000Y-88382250D01*
G75*
G02*
X61978250Y-88601000I-218750J0D01*
G01*
G37*
G36*
G01*
X61978250Y-87026000D02*
X61465750Y-87026000D01*
G75*
G02*
X61247000Y-86807250I0J218750D01*
G01*
X61247000Y-86369750D01*
G75*
G02*
X61465750Y-86151000I218750J0D01*
G01*
X61978250Y-86151000D01*
G75*
G02*
X62197000Y-86369750I0J-218750D01*
G01*
X62197000Y-86807250D01*
G75*
G02*
X61978250Y-87026000I-218750J0D01*
G01*
G37*
G36*
G01*
X87886250Y-88601000D02*
X87373750Y-88601000D01*
G75*
G02*
X87155000Y-88382250I0J218750D01*
G01*
X87155000Y-87944750D01*
G75*
G02*
X87373750Y-87726000I218750J0D01*
G01*
X87886250Y-87726000D01*
G75*
G02*
X88105000Y-87944750I0J-218750D01*
G01*
X88105000Y-88382250D01*
G75*
G02*
X87886250Y-88601000I-218750J0D01*
G01*
G37*
G36*
G01*
X87886250Y-87026000D02*
X87373750Y-87026000D01*
G75*
G02*
X87155000Y-86807250I0J218750D01*
G01*
X87155000Y-86369750D01*
G75*
G02*
X87373750Y-86151000I218750J0D01*
G01*
X87886250Y-86151000D01*
G75*
G02*
X88105000Y-86369750I0J-218750D01*
G01*
X88105000Y-86807250D01*
G75*
G02*
X87886250Y-87026000I-218750J0D01*
G01*
G37*
G36*
G01*
X112270250Y-87026000D02*
X111757750Y-87026000D01*
G75*
G02*
X111539000Y-86807250I0J218750D01*
G01*
X111539000Y-86369750D01*
G75*
G02*
X111757750Y-86151000I218750J0D01*
G01*
X112270250Y-86151000D01*
G75*
G02*
X112489000Y-86369750I0J-218750D01*
G01*
X112489000Y-86807250D01*
G75*
G02*
X112270250Y-87026000I-218750J0D01*
G01*
G37*
G36*
G01*
X112270250Y-88601000D02*
X111757750Y-88601000D01*
G75*
G02*
X111539000Y-88382250I0J218750D01*
G01*
X111539000Y-87944750D01*
G75*
G02*
X111757750Y-87726000I218750J0D01*
G01*
X112270250Y-87726000D01*
G75*
G02*
X112489000Y-87944750I0J-218750D01*
G01*
X112489000Y-88382250D01*
G75*
G02*
X112270250Y-88601000I-218750J0D01*
G01*
G37*
G36*
G01*
X138178250Y-87026000D02*
X137665750Y-87026000D01*
G75*
G02*
X137447000Y-86807250I0J218750D01*
G01*
X137447000Y-86369750D01*
G75*
G02*
X137665750Y-86151000I218750J0D01*
G01*
X138178250Y-86151000D01*
G75*
G02*
X138397000Y-86369750I0J-218750D01*
G01*
X138397000Y-86807250D01*
G75*
G02*
X138178250Y-87026000I-218750J0D01*
G01*
G37*
G36*
G01*
X138178250Y-88601000D02*
X137665750Y-88601000D01*
G75*
G02*
X137447000Y-88382250I0J218750D01*
G01*
X137447000Y-87944750D01*
G75*
G02*
X137665750Y-87726000I218750J0D01*
G01*
X138178250Y-87726000D01*
G75*
G02*
X138397000Y-87944750I0J-218750D01*
G01*
X138397000Y-88382250D01*
G75*
G02*
X138178250Y-88601000I-218750J0D01*
G01*
G37*
G36*
G01*
X67566250Y-88601000D02*
X67053750Y-88601000D01*
G75*
G02*
X66835000Y-88382250I0J218750D01*
G01*
X66835000Y-87944750D01*
G75*
G02*
X67053750Y-87726000I218750J0D01*
G01*
X67566250Y-87726000D01*
G75*
G02*
X67785000Y-87944750I0J-218750D01*
G01*
X67785000Y-88382250D01*
G75*
G02*
X67566250Y-88601000I-218750J0D01*
G01*
G37*
G36*
G01*
X67566250Y-87026000D02*
X67053750Y-87026000D01*
G75*
G02*
X66835000Y-86807250I0J218750D01*
G01*
X66835000Y-86369750D01*
G75*
G02*
X67053750Y-86151000I218750J0D01*
G01*
X67566250Y-86151000D01*
G75*
G02*
X67785000Y-86369750I0J-218750D01*
G01*
X67785000Y-86807250D01*
G75*
G02*
X67566250Y-87026000I-218750J0D01*
G01*
G37*
G36*
G01*
X92966250Y-88601000D02*
X92453750Y-88601000D01*
G75*
G02*
X92235000Y-88382250I0J218750D01*
G01*
X92235000Y-87944750D01*
G75*
G02*
X92453750Y-87726000I218750J0D01*
G01*
X92966250Y-87726000D01*
G75*
G02*
X93185000Y-87944750I0J-218750D01*
G01*
X93185000Y-88382250D01*
G75*
G02*
X92966250Y-88601000I-218750J0D01*
G01*
G37*
G36*
G01*
X92966250Y-87026000D02*
X92453750Y-87026000D01*
G75*
G02*
X92235000Y-86807250I0J218750D01*
G01*
X92235000Y-86369750D01*
G75*
G02*
X92453750Y-86151000I218750J0D01*
G01*
X92966250Y-86151000D01*
G75*
G02*
X93185000Y-86369750I0J-218750D01*
G01*
X93185000Y-86807250D01*
G75*
G02*
X92966250Y-87026000I-218750J0D01*
G01*
G37*
G36*
G01*
X117350250Y-88601000D02*
X116837750Y-88601000D01*
G75*
G02*
X116619000Y-88382250I0J218750D01*
G01*
X116619000Y-87944750D01*
G75*
G02*
X116837750Y-87726000I218750J0D01*
G01*
X117350250Y-87726000D01*
G75*
G02*
X117569000Y-87944750I0J-218750D01*
G01*
X117569000Y-88382250D01*
G75*
G02*
X117350250Y-88601000I-218750J0D01*
G01*
G37*
G36*
G01*
X117350250Y-87026000D02*
X116837750Y-87026000D01*
G75*
G02*
X116619000Y-86807250I0J218750D01*
G01*
X116619000Y-86369750D01*
G75*
G02*
X116837750Y-86151000I218750J0D01*
G01*
X117350250Y-86151000D01*
G75*
G02*
X117569000Y-86369750I0J-218750D01*
G01*
X117569000Y-86807250D01*
G75*
G02*
X117350250Y-87026000I-218750J0D01*
G01*
G37*
G36*
G01*
X143258250Y-88601000D02*
X142745750Y-88601000D01*
G75*
G02*
X142527000Y-88382250I0J218750D01*
G01*
X142527000Y-87944750D01*
G75*
G02*
X142745750Y-87726000I218750J0D01*
G01*
X143258250Y-87726000D01*
G75*
G02*
X143477000Y-87944750I0J-218750D01*
G01*
X143477000Y-88382250D01*
G75*
G02*
X143258250Y-88601000I-218750J0D01*
G01*
G37*
G36*
G01*
X143258250Y-87026000D02*
X142745750Y-87026000D01*
G75*
G02*
X142527000Y-86807250I0J218750D01*
G01*
X142527000Y-86369750D01*
G75*
G02*
X142745750Y-86151000I218750J0D01*
G01*
X143258250Y-86151000D01*
G75*
G02*
X143477000Y-86369750I0J-218750D01*
G01*
X143477000Y-86807250D01*
G75*
G02*
X143258250Y-87026000I-218750J0D01*
G01*
G37*
G36*
G01*
X72646250Y-87026000D02*
X72133750Y-87026000D01*
G75*
G02*
X71915000Y-86807250I0J218750D01*
G01*
X71915000Y-86369750D01*
G75*
G02*
X72133750Y-86151000I218750J0D01*
G01*
X72646250Y-86151000D01*
G75*
G02*
X72865000Y-86369750I0J-218750D01*
G01*
X72865000Y-86807250D01*
G75*
G02*
X72646250Y-87026000I-218750J0D01*
G01*
G37*
G36*
G01*
X72646250Y-88601000D02*
X72133750Y-88601000D01*
G75*
G02*
X71915000Y-88382250I0J218750D01*
G01*
X71915000Y-87944750D01*
G75*
G02*
X72133750Y-87726000I218750J0D01*
G01*
X72646250Y-87726000D01*
G75*
G02*
X72865000Y-87944750I0J-218750D01*
G01*
X72865000Y-88382250D01*
G75*
G02*
X72646250Y-88601000I-218750J0D01*
G01*
G37*
G36*
G01*
X97538250Y-87026000D02*
X97025750Y-87026000D01*
G75*
G02*
X96807000Y-86807250I0J218750D01*
G01*
X96807000Y-86369750D01*
G75*
G02*
X97025750Y-86151000I218750J0D01*
G01*
X97538250Y-86151000D01*
G75*
G02*
X97757000Y-86369750I0J-218750D01*
G01*
X97757000Y-86807250D01*
G75*
G02*
X97538250Y-87026000I-218750J0D01*
G01*
G37*
G36*
G01*
X97538250Y-88601000D02*
X97025750Y-88601000D01*
G75*
G02*
X96807000Y-88382250I0J218750D01*
G01*
X96807000Y-87944750D01*
G75*
G02*
X97025750Y-87726000I218750J0D01*
G01*
X97538250Y-87726000D01*
G75*
G02*
X97757000Y-87944750I0J-218750D01*
G01*
X97757000Y-88382250D01*
G75*
G02*
X97538250Y-88601000I-218750J0D01*
G01*
G37*
G36*
G01*
X121922250Y-88601000D02*
X121409750Y-88601000D01*
G75*
G02*
X121191000Y-88382250I0J218750D01*
G01*
X121191000Y-87944750D01*
G75*
G02*
X121409750Y-87726000I218750J0D01*
G01*
X121922250Y-87726000D01*
G75*
G02*
X122141000Y-87944750I0J-218750D01*
G01*
X122141000Y-88382250D01*
G75*
G02*
X121922250Y-88601000I-218750J0D01*
G01*
G37*
G36*
G01*
X121922250Y-87026000D02*
X121409750Y-87026000D01*
G75*
G02*
X121191000Y-86807250I0J218750D01*
G01*
X121191000Y-86369750D01*
G75*
G02*
X121409750Y-86151000I218750J0D01*
G01*
X121922250Y-86151000D01*
G75*
G02*
X122141000Y-86369750I0J-218750D01*
G01*
X122141000Y-86807250D01*
G75*
G02*
X121922250Y-87026000I-218750J0D01*
G01*
G37*
G36*
G01*
X148338250Y-87026000D02*
X147825750Y-87026000D01*
G75*
G02*
X147607000Y-86807250I0J218750D01*
G01*
X147607000Y-86369750D01*
G75*
G02*
X147825750Y-86151000I218750J0D01*
G01*
X148338250Y-86151000D01*
G75*
G02*
X148557000Y-86369750I0J-218750D01*
G01*
X148557000Y-86807250D01*
G75*
G02*
X148338250Y-87026000I-218750J0D01*
G01*
G37*
G36*
G01*
X148338250Y-88601000D02*
X147825750Y-88601000D01*
G75*
G02*
X147607000Y-88382250I0J218750D01*
G01*
X147607000Y-87944750D01*
G75*
G02*
X147825750Y-87726000I218750J0D01*
G01*
X148338250Y-87726000D01*
G75*
G02*
X148557000Y-87944750I0J-218750D01*
G01*
X148557000Y-88382250D01*
G75*
G02*
X148338250Y-88601000I-218750J0D01*
G01*
G37*
G36*
G01*
X77218250Y-87026000D02*
X76705750Y-87026000D01*
G75*
G02*
X76487000Y-86807250I0J218750D01*
G01*
X76487000Y-86369750D01*
G75*
G02*
X76705750Y-86151000I218750J0D01*
G01*
X77218250Y-86151000D01*
G75*
G02*
X77437000Y-86369750I0J-218750D01*
G01*
X77437000Y-86807250D01*
G75*
G02*
X77218250Y-87026000I-218750J0D01*
G01*
G37*
G36*
G01*
X77218250Y-88601000D02*
X76705750Y-88601000D01*
G75*
G02*
X76487000Y-88382250I0J218750D01*
G01*
X76487000Y-87944750D01*
G75*
G02*
X76705750Y-87726000I218750J0D01*
G01*
X77218250Y-87726000D01*
G75*
G02*
X77437000Y-87944750I0J-218750D01*
G01*
X77437000Y-88382250D01*
G75*
G02*
X77218250Y-88601000I-218750J0D01*
G01*
G37*
G36*
G01*
X102618250Y-87026000D02*
X102105750Y-87026000D01*
G75*
G02*
X101887000Y-86807250I0J218750D01*
G01*
X101887000Y-86369750D01*
G75*
G02*
X102105750Y-86151000I218750J0D01*
G01*
X102618250Y-86151000D01*
G75*
G02*
X102837000Y-86369750I0J-218750D01*
G01*
X102837000Y-86807250D01*
G75*
G02*
X102618250Y-87026000I-218750J0D01*
G01*
G37*
G36*
G01*
X102618250Y-88601000D02*
X102105750Y-88601000D01*
G75*
G02*
X101887000Y-88382250I0J218750D01*
G01*
X101887000Y-87944750D01*
G75*
G02*
X102105750Y-87726000I218750J0D01*
G01*
X102618250Y-87726000D01*
G75*
G02*
X102837000Y-87944750I0J-218750D01*
G01*
X102837000Y-88382250D01*
G75*
G02*
X102618250Y-88601000I-218750J0D01*
G01*
G37*
G36*
G01*
X127510250Y-87026000D02*
X126997750Y-87026000D01*
G75*
G02*
X126779000Y-86807250I0J218750D01*
G01*
X126779000Y-86369750D01*
G75*
G02*
X126997750Y-86151000I218750J0D01*
G01*
X127510250Y-86151000D01*
G75*
G02*
X127729000Y-86369750I0J-218750D01*
G01*
X127729000Y-86807250D01*
G75*
G02*
X127510250Y-87026000I-218750J0D01*
G01*
G37*
G36*
G01*
X127510250Y-88601000D02*
X126997750Y-88601000D01*
G75*
G02*
X126779000Y-88382250I0J218750D01*
G01*
X126779000Y-87944750D01*
G75*
G02*
X126997750Y-87726000I218750J0D01*
G01*
X127510250Y-87726000D01*
G75*
G02*
X127729000Y-87944750I0J-218750D01*
G01*
X127729000Y-88382250D01*
G75*
G02*
X127510250Y-88601000I-218750J0D01*
G01*
G37*
G36*
G01*
X153418250Y-88601000D02*
X152905750Y-88601000D01*
G75*
G02*
X152687000Y-88382250I0J218750D01*
G01*
X152687000Y-87944750D01*
G75*
G02*
X152905750Y-87726000I218750J0D01*
G01*
X153418250Y-87726000D01*
G75*
G02*
X153637000Y-87944750I0J-218750D01*
G01*
X153637000Y-88382250D01*
G75*
G02*
X153418250Y-88601000I-218750J0D01*
G01*
G37*
G36*
G01*
X153418250Y-87026000D02*
X152905750Y-87026000D01*
G75*
G02*
X152687000Y-86807250I0J218750D01*
G01*
X152687000Y-86369750D01*
G75*
G02*
X152905750Y-86151000I218750J0D01*
G01*
X153418250Y-86151000D01*
G75*
G02*
X153637000Y-86369750I0J-218750D01*
G01*
X153637000Y-86807250D01*
G75*
G02*
X153418250Y-87026000I-218750J0D01*
G01*
G37*
M02*
