G04 #@! TF.GenerationSoftware,KiCad,Pcbnew,(5.1.10)-1*
G04 #@! TF.CreationDate,2021-09-21T14:09:16-07:00*
G04 #@! TF.ProjectId,Adapter,41646170-7465-4722-9e6b-696361645f70,rev?*
G04 #@! TF.SameCoordinates,Original*
G04 #@! TF.FileFunction,Soldermask,Top*
G04 #@! TF.FilePolarity,Negative*
%FSLAX46Y46*%
G04 Gerber Fmt 4.6, Leading zero omitted, Abs format (unit mm)*
G04 Created by KiCad (PCBNEW (5.1.10)-1) date 2021-09-21 14:09:16*
%MOMM*%
%LPD*%
G01*
G04 APERTURE LIST*
%ADD10O,1.802000X1.802000*%
G04 APERTURE END LIST*
G36*
G01*
X62022500Y-85604000D02*
X61421500Y-85604000D01*
G75*
G02*
X61196000Y-85378500I0J225500D01*
G01*
X61196000Y-84927500D01*
G75*
G02*
X61421500Y-84702000I225500J0D01*
G01*
X62022500Y-84702000D01*
G75*
G02*
X62248000Y-84927500I0J-225500D01*
G01*
X62248000Y-85378500D01*
G75*
G02*
X62022500Y-85604000I-225500J0D01*
G01*
G37*
G36*
G01*
X62022500Y-83954000D02*
X61421500Y-83954000D01*
G75*
G02*
X61196000Y-83728500I0J225500D01*
G01*
X61196000Y-83277500D01*
G75*
G02*
X61421500Y-83052000I225500J0D01*
G01*
X62022500Y-83052000D01*
G75*
G02*
X62248000Y-83277500I0J-225500D01*
G01*
X62248000Y-83728500D01*
G75*
G02*
X62022500Y-83954000I-225500J0D01*
G01*
G37*
G36*
G01*
X87930500Y-85604000D02*
X87329500Y-85604000D01*
G75*
G02*
X87104000Y-85378500I0J225500D01*
G01*
X87104000Y-84927500D01*
G75*
G02*
X87329500Y-84702000I225500J0D01*
G01*
X87930500Y-84702000D01*
G75*
G02*
X88156000Y-84927500I0J-225500D01*
G01*
X88156000Y-85378500D01*
G75*
G02*
X87930500Y-85604000I-225500J0D01*
G01*
G37*
G36*
G01*
X87930500Y-83954000D02*
X87329500Y-83954000D01*
G75*
G02*
X87104000Y-83728500I0J225500D01*
G01*
X87104000Y-83277500D01*
G75*
G02*
X87329500Y-83052000I225500J0D01*
G01*
X87930500Y-83052000D01*
G75*
G02*
X88156000Y-83277500I0J-225500D01*
G01*
X88156000Y-83728500D01*
G75*
G02*
X87930500Y-83954000I-225500J0D01*
G01*
G37*
G36*
G01*
X112314500Y-85604000D02*
X111713500Y-85604000D01*
G75*
G02*
X111488000Y-85378500I0J225500D01*
G01*
X111488000Y-84927500D01*
G75*
G02*
X111713500Y-84702000I225500J0D01*
G01*
X112314500Y-84702000D01*
G75*
G02*
X112540000Y-84927500I0J-225500D01*
G01*
X112540000Y-85378500D01*
G75*
G02*
X112314500Y-85604000I-225500J0D01*
G01*
G37*
G36*
G01*
X112314500Y-83954000D02*
X111713500Y-83954000D01*
G75*
G02*
X111488000Y-83728500I0J225500D01*
G01*
X111488000Y-83277500D01*
G75*
G02*
X111713500Y-83052000I225500J0D01*
G01*
X112314500Y-83052000D01*
G75*
G02*
X112540000Y-83277500I0J-225500D01*
G01*
X112540000Y-83728500D01*
G75*
G02*
X112314500Y-83954000I-225500J0D01*
G01*
G37*
G36*
G01*
X138222500Y-83954000D02*
X137621500Y-83954000D01*
G75*
G02*
X137396000Y-83728500I0J225500D01*
G01*
X137396000Y-83277500D01*
G75*
G02*
X137621500Y-83052000I225500J0D01*
G01*
X138222500Y-83052000D01*
G75*
G02*
X138448000Y-83277500I0J-225500D01*
G01*
X138448000Y-83728500D01*
G75*
G02*
X138222500Y-83954000I-225500J0D01*
G01*
G37*
G36*
G01*
X138222500Y-85604000D02*
X137621500Y-85604000D01*
G75*
G02*
X137396000Y-85378500I0J225500D01*
G01*
X137396000Y-84927500D01*
G75*
G02*
X137621500Y-84702000I225500J0D01*
G01*
X138222500Y-84702000D01*
G75*
G02*
X138448000Y-84927500I0J-225500D01*
G01*
X138448000Y-85378500D01*
G75*
G02*
X138222500Y-85604000I-225500J0D01*
G01*
G37*
G36*
G01*
X67610500Y-85604000D02*
X67009500Y-85604000D01*
G75*
G02*
X66784000Y-85378500I0J225500D01*
G01*
X66784000Y-84927500D01*
G75*
G02*
X67009500Y-84702000I225500J0D01*
G01*
X67610500Y-84702000D01*
G75*
G02*
X67836000Y-84927500I0J-225500D01*
G01*
X67836000Y-85378500D01*
G75*
G02*
X67610500Y-85604000I-225500J0D01*
G01*
G37*
G36*
G01*
X67610500Y-83954000D02*
X67009500Y-83954000D01*
G75*
G02*
X66784000Y-83728500I0J225500D01*
G01*
X66784000Y-83277500D01*
G75*
G02*
X67009500Y-83052000I225500J0D01*
G01*
X67610500Y-83052000D01*
G75*
G02*
X67836000Y-83277500I0J-225500D01*
G01*
X67836000Y-83728500D01*
G75*
G02*
X67610500Y-83954000I-225500J0D01*
G01*
G37*
G36*
G01*
X93010500Y-85604000D02*
X92409500Y-85604000D01*
G75*
G02*
X92184000Y-85378500I0J225500D01*
G01*
X92184000Y-84927500D01*
G75*
G02*
X92409500Y-84702000I225500J0D01*
G01*
X93010500Y-84702000D01*
G75*
G02*
X93236000Y-84927500I0J-225500D01*
G01*
X93236000Y-85378500D01*
G75*
G02*
X93010500Y-85604000I-225500J0D01*
G01*
G37*
G36*
G01*
X93010500Y-83954000D02*
X92409500Y-83954000D01*
G75*
G02*
X92184000Y-83728500I0J225500D01*
G01*
X92184000Y-83277500D01*
G75*
G02*
X92409500Y-83052000I225500J0D01*
G01*
X93010500Y-83052000D01*
G75*
G02*
X93236000Y-83277500I0J-225500D01*
G01*
X93236000Y-83728500D01*
G75*
G02*
X93010500Y-83954000I-225500J0D01*
G01*
G37*
G36*
G01*
X117394500Y-85604000D02*
X116793500Y-85604000D01*
G75*
G02*
X116568000Y-85378500I0J225500D01*
G01*
X116568000Y-84927500D01*
G75*
G02*
X116793500Y-84702000I225500J0D01*
G01*
X117394500Y-84702000D01*
G75*
G02*
X117620000Y-84927500I0J-225500D01*
G01*
X117620000Y-85378500D01*
G75*
G02*
X117394500Y-85604000I-225500J0D01*
G01*
G37*
G36*
G01*
X117394500Y-83954000D02*
X116793500Y-83954000D01*
G75*
G02*
X116568000Y-83728500I0J225500D01*
G01*
X116568000Y-83277500D01*
G75*
G02*
X116793500Y-83052000I225500J0D01*
G01*
X117394500Y-83052000D01*
G75*
G02*
X117620000Y-83277500I0J-225500D01*
G01*
X117620000Y-83728500D01*
G75*
G02*
X117394500Y-83954000I-225500J0D01*
G01*
G37*
G36*
G01*
X143302500Y-83954000D02*
X142701500Y-83954000D01*
G75*
G02*
X142476000Y-83728500I0J225500D01*
G01*
X142476000Y-83277500D01*
G75*
G02*
X142701500Y-83052000I225500J0D01*
G01*
X143302500Y-83052000D01*
G75*
G02*
X143528000Y-83277500I0J-225500D01*
G01*
X143528000Y-83728500D01*
G75*
G02*
X143302500Y-83954000I-225500J0D01*
G01*
G37*
G36*
G01*
X143302500Y-85604000D02*
X142701500Y-85604000D01*
G75*
G02*
X142476000Y-85378500I0J225500D01*
G01*
X142476000Y-84927500D01*
G75*
G02*
X142701500Y-84702000I225500J0D01*
G01*
X143302500Y-84702000D01*
G75*
G02*
X143528000Y-84927500I0J-225500D01*
G01*
X143528000Y-85378500D01*
G75*
G02*
X143302500Y-85604000I-225500J0D01*
G01*
G37*
G36*
G01*
X72690500Y-85604000D02*
X72089500Y-85604000D01*
G75*
G02*
X71864000Y-85378500I0J225500D01*
G01*
X71864000Y-84927500D01*
G75*
G02*
X72089500Y-84702000I225500J0D01*
G01*
X72690500Y-84702000D01*
G75*
G02*
X72916000Y-84927500I0J-225500D01*
G01*
X72916000Y-85378500D01*
G75*
G02*
X72690500Y-85604000I-225500J0D01*
G01*
G37*
G36*
G01*
X72690500Y-83954000D02*
X72089500Y-83954000D01*
G75*
G02*
X71864000Y-83728500I0J225500D01*
G01*
X71864000Y-83277500D01*
G75*
G02*
X72089500Y-83052000I225500J0D01*
G01*
X72690500Y-83052000D01*
G75*
G02*
X72916000Y-83277500I0J-225500D01*
G01*
X72916000Y-83728500D01*
G75*
G02*
X72690500Y-83954000I-225500J0D01*
G01*
G37*
G36*
G01*
X97582500Y-85604000D02*
X96981500Y-85604000D01*
G75*
G02*
X96756000Y-85378500I0J225500D01*
G01*
X96756000Y-84927500D01*
G75*
G02*
X96981500Y-84702000I225500J0D01*
G01*
X97582500Y-84702000D01*
G75*
G02*
X97808000Y-84927500I0J-225500D01*
G01*
X97808000Y-85378500D01*
G75*
G02*
X97582500Y-85604000I-225500J0D01*
G01*
G37*
G36*
G01*
X97582500Y-83954000D02*
X96981500Y-83954000D01*
G75*
G02*
X96756000Y-83728500I0J225500D01*
G01*
X96756000Y-83277500D01*
G75*
G02*
X96981500Y-83052000I225500J0D01*
G01*
X97582500Y-83052000D01*
G75*
G02*
X97808000Y-83277500I0J-225500D01*
G01*
X97808000Y-83728500D01*
G75*
G02*
X97582500Y-83954000I-225500J0D01*
G01*
G37*
G36*
G01*
X121966500Y-85604000D02*
X121365500Y-85604000D01*
G75*
G02*
X121140000Y-85378500I0J225500D01*
G01*
X121140000Y-84927500D01*
G75*
G02*
X121365500Y-84702000I225500J0D01*
G01*
X121966500Y-84702000D01*
G75*
G02*
X122192000Y-84927500I0J-225500D01*
G01*
X122192000Y-85378500D01*
G75*
G02*
X121966500Y-85604000I-225500J0D01*
G01*
G37*
G36*
G01*
X121966500Y-83954000D02*
X121365500Y-83954000D01*
G75*
G02*
X121140000Y-83728500I0J225500D01*
G01*
X121140000Y-83277500D01*
G75*
G02*
X121365500Y-83052000I225500J0D01*
G01*
X121966500Y-83052000D01*
G75*
G02*
X122192000Y-83277500I0J-225500D01*
G01*
X122192000Y-83728500D01*
G75*
G02*
X121966500Y-83954000I-225500J0D01*
G01*
G37*
G36*
G01*
X148382500Y-83954000D02*
X147781500Y-83954000D01*
G75*
G02*
X147556000Y-83728500I0J225500D01*
G01*
X147556000Y-83277500D01*
G75*
G02*
X147781500Y-83052000I225500J0D01*
G01*
X148382500Y-83052000D01*
G75*
G02*
X148608000Y-83277500I0J-225500D01*
G01*
X148608000Y-83728500D01*
G75*
G02*
X148382500Y-83954000I-225500J0D01*
G01*
G37*
G36*
G01*
X148382500Y-85604000D02*
X147781500Y-85604000D01*
G75*
G02*
X147556000Y-85378500I0J225500D01*
G01*
X147556000Y-84927500D01*
G75*
G02*
X147781500Y-84702000I225500J0D01*
G01*
X148382500Y-84702000D01*
G75*
G02*
X148608000Y-84927500I0J-225500D01*
G01*
X148608000Y-85378500D01*
G75*
G02*
X148382500Y-85604000I-225500J0D01*
G01*
G37*
G36*
G01*
X77262500Y-83954000D02*
X76661500Y-83954000D01*
G75*
G02*
X76436000Y-83728500I0J225500D01*
G01*
X76436000Y-83277500D01*
G75*
G02*
X76661500Y-83052000I225500J0D01*
G01*
X77262500Y-83052000D01*
G75*
G02*
X77488000Y-83277500I0J-225500D01*
G01*
X77488000Y-83728500D01*
G75*
G02*
X77262500Y-83954000I-225500J0D01*
G01*
G37*
G36*
G01*
X77262500Y-85604000D02*
X76661500Y-85604000D01*
G75*
G02*
X76436000Y-85378500I0J225500D01*
G01*
X76436000Y-84927500D01*
G75*
G02*
X76661500Y-84702000I225500J0D01*
G01*
X77262500Y-84702000D01*
G75*
G02*
X77488000Y-84927500I0J-225500D01*
G01*
X77488000Y-85378500D01*
G75*
G02*
X77262500Y-85604000I-225500J0D01*
G01*
G37*
G36*
G01*
X102662500Y-85604000D02*
X102061500Y-85604000D01*
G75*
G02*
X101836000Y-85378500I0J225500D01*
G01*
X101836000Y-84927500D01*
G75*
G02*
X102061500Y-84702000I225500J0D01*
G01*
X102662500Y-84702000D01*
G75*
G02*
X102888000Y-84927500I0J-225500D01*
G01*
X102888000Y-85378500D01*
G75*
G02*
X102662500Y-85604000I-225500J0D01*
G01*
G37*
G36*
G01*
X102662500Y-83954000D02*
X102061500Y-83954000D01*
G75*
G02*
X101836000Y-83728500I0J225500D01*
G01*
X101836000Y-83277500D01*
G75*
G02*
X102061500Y-83052000I225500J0D01*
G01*
X102662500Y-83052000D01*
G75*
G02*
X102888000Y-83277500I0J-225500D01*
G01*
X102888000Y-83728500D01*
G75*
G02*
X102662500Y-83954000I-225500J0D01*
G01*
G37*
G36*
G01*
X127554500Y-85604000D02*
X126953500Y-85604000D01*
G75*
G02*
X126728000Y-85378500I0J225500D01*
G01*
X126728000Y-84927500D01*
G75*
G02*
X126953500Y-84702000I225500J0D01*
G01*
X127554500Y-84702000D01*
G75*
G02*
X127780000Y-84927500I0J-225500D01*
G01*
X127780000Y-85378500D01*
G75*
G02*
X127554500Y-85604000I-225500J0D01*
G01*
G37*
G36*
G01*
X127554500Y-83954000D02*
X126953500Y-83954000D01*
G75*
G02*
X126728000Y-83728500I0J225500D01*
G01*
X126728000Y-83277500D01*
G75*
G02*
X126953500Y-83052000I225500J0D01*
G01*
X127554500Y-83052000D01*
G75*
G02*
X127780000Y-83277500I0J-225500D01*
G01*
X127780000Y-83728500D01*
G75*
G02*
X127554500Y-83954000I-225500J0D01*
G01*
G37*
G36*
G01*
X153462500Y-83954000D02*
X152861500Y-83954000D01*
G75*
G02*
X152636000Y-83728500I0J225500D01*
G01*
X152636000Y-83277500D01*
G75*
G02*
X152861500Y-83052000I225500J0D01*
G01*
X153462500Y-83052000D01*
G75*
G02*
X153688000Y-83277500I0J-225500D01*
G01*
X153688000Y-83728500D01*
G75*
G02*
X153462500Y-83954000I-225500J0D01*
G01*
G37*
G36*
G01*
X153462500Y-85604000D02*
X152861500Y-85604000D01*
G75*
G02*
X152636000Y-85378500I0J225500D01*
G01*
X152636000Y-84927500D01*
G75*
G02*
X152861500Y-84702000I225500J0D01*
G01*
X153462500Y-84702000D01*
G75*
G02*
X153688000Y-84927500I0J-225500D01*
G01*
X153688000Y-85378500D01*
G75*
G02*
X153462500Y-85604000I-225500J0D01*
G01*
G37*
G36*
G01*
X67430000Y-66848500D02*
X67430000Y-66247500D01*
G75*
G02*
X67655500Y-66022000I225500J0D01*
G01*
X68106500Y-66022000D01*
G75*
G02*
X68332000Y-66247500I0J-225500D01*
G01*
X68332000Y-66848500D01*
G75*
G02*
X68106500Y-67074000I-225500J0D01*
G01*
X67655500Y-67074000D01*
G75*
G02*
X67430000Y-66848500I0J225500D01*
G01*
G37*
G36*
G01*
X65780000Y-66848500D02*
X65780000Y-66247500D01*
G75*
G02*
X66005500Y-66022000I225500J0D01*
G01*
X66456500Y-66022000D01*
G75*
G02*
X66682000Y-66247500I0J-225500D01*
G01*
X66682000Y-66848500D01*
G75*
G02*
X66456500Y-67074000I-225500J0D01*
G01*
X66005500Y-67074000D01*
G75*
G02*
X65780000Y-66848500I0J225500D01*
G01*
G37*
G36*
G01*
X70478000Y-66848500D02*
X70478000Y-66247500D01*
G75*
G02*
X70703500Y-66022000I225500J0D01*
G01*
X71154500Y-66022000D01*
G75*
G02*
X71380000Y-66247500I0J-225500D01*
G01*
X71380000Y-66848500D01*
G75*
G02*
X71154500Y-67074000I-225500J0D01*
G01*
X70703500Y-67074000D01*
G75*
G02*
X70478000Y-66848500I0J225500D01*
G01*
G37*
G36*
G01*
X68828000Y-66848500D02*
X68828000Y-66247500D01*
G75*
G02*
X69053500Y-66022000I225500J0D01*
G01*
X69504500Y-66022000D01*
G75*
G02*
X69730000Y-66247500I0J-225500D01*
G01*
X69730000Y-66848500D01*
G75*
G02*
X69504500Y-67074000I-225500J0D01*
G01*
X69053500Y-67074000D01*
G75*
G02*
X68828000Y-66848500I0J225500D01*
G01*
G37*
G36*
G01*
X73526000Y-66848500D02*
X73526000Y-66247500D01*
G75*
G02*
X73751500Y-66022000I225500J0D01*
G01*
X74202500Y-66022000D01*
G75*
G02*
X74428000Y-66247500I0J-225500D01*
G01*
X74428000Y-66848500D01*
G75*
G02*
X74202500Y-67074000I-225500J0D01*
G01*
X73751500Y-67074000D01*
G75*
G02*
X73526000Y-66848500I0J225500D01*
G01*
G37*
G36*
G01*
X71876000Y-66848500D02*
X71876000Y-66247500D01*
G75*
G02*
X72101500Y-66022000I225500J0D01*
G01*
X72552500Y-66022000D01*
G75*
G02*
X72778000Y-66247500I0J-225500D01*
G01*
X72778000Y-66848500D01*
G75*
G02*
X72552500Y-67074000I-225500J0D01*
G01*
X72101500Y-67074000D01*
G75*
G02*
X71876000Y-66848500I0J225500D01*
G01*
G37*
G36*
G01*
X76574000Y-66848500D02*
X76574000Y-66247500D01*
G75*
G02*
X76799500Y-66022000I225500J0D01*
G01*
X77250500Y-66022000D01*
G75*
G02*
X77476000Y-66247500I0J-225500D01*
G01*
X77476000Y-66848500D01*
G75*
G02*
X77250500Y-67074000I-225500J0D01*
G01*
X76799500Y-67074000D01*
G75*
G02*
X76574000Y-66848500I0J225500D01*
G01*
G37*
G36*
G01*
X74924000Y-66848500D02*
X74924000Y-66247500D01*
G75*
G02*
X75149500Y-66022000I225500J0D01*
G01*
X75600500Y-66022000D01*
G75*
G02*
X75826000Y-66247500I0J-225500D01*
G01*
X75826000Y-66848500D01*
G75*
G02*
X75600500Y-67074000I-225500J0D01*
G01*
X75149500Y-67074000D01*
G75*
G02*
X74924000Y-66848500I0J225500D01*
G01*
G37*
G36*
G01*
X92830000Y-66848500D02*
X92830000Y-66247500D01*
G75*
G02*
X93055500Y-66022000I225500J0D01*
G01*
X93506500Y-66022000D01*
G75*
G02*
X93732000Y-66247500I0J-225500D01*
G01*
X93732000Y-66848500D01*
G75*
G02*
X93506500Y-67074000I-225500J0D01*
G01*
X93055500Y-67074000D01*
G75*
G02*
X92830000Y-66848500I0J225500D01*
G01*
G37*
G36*
G01*
X91180000Y-66848500D02*
X91180000Y-66247500D01*
G75*
G02*
X91405500Y-66022000I225500J0D01*
G01*
X91856500Y-66022000D01*
G75*
G02*
X92082000Y-66247500I0J-225500D01*
G01*
X92082000Y-66848500D01*
G75*
G02*
X91856500Y-67074000I-225500J0D01*
G01*
X91405500Y-67074000D01*
G75*
G02*
X91180000Y-66848500I0J225500D01*
G01*
G37*
G36*
G01*
X95878000Y-66848500D02*
X95878000Y-66247500D01*
G75*
G02*
X96103500Y-66022000I225500J0D01*
G01*
X96554500Y-66022000D01*
G75*
G02*
X96780000Y-66247500I0J-225500D01*
G01*
X96780000Y-66848500D01*
G75*
G02*
X96554500Y-67074000I-225500J0D01*
G01*
X96103500Y-67074000D01*
G75*
G02*
X95878000Y-66848500I0J225500D01*
G01*
G37*
G36*
G01*
X94228000Y-66848500D02*
X94228000Y-66247500D01*
G75*
G02*
X94453500Y-66022000I225500J0D01*
G01*
X94904500Y-66022000D01*
G75*
G02*
X95130000Y-66247500I0J-225500D01*
G01*
X95130000Y-66848500D01*
G75*
G02*
X94904500Y-67074000I-225500J0D01*
G01*
X94453500Y-67074000D01*
G75*
G02*
X94228000Y-66848500I0J225500D01*
G01*
G37*
G36*
G01*
X98926000Y-66848500D02*
X98926000Y-66247500D01*
G75*
G02*
X99151500Y-66022000I225500J0D01*
G01*
X99602500Y-66022000D01*
G75*
G02*
X99828000Y-66247500I0J-225500D01*
G01*
X99828000Y-66848500D01*
G75*
G02*
X99602500Y-67074000I-225500J0D01*
G01*
X99151500Y-67074000D01*
G75*
G02*
X98926000Y-66848500I0J225500D01*
G01*
G37*
G36*
G01*
X97276000Y-66848500D02*
X97276000Y-66247500D01*
G75*
G02*
X97501500Y-66022000I225500J0D01*
G01*
X97952500Y-66022000D01*
G75*
G02*
X98178000Y-66247500I0J-225500D01*
G01*
X98178000Y-66848500D01*
G75*
G02*
X97952500Y-67074000I-225500J0D01*
G01*
X97501500Y-67074000D01*
G75*
G02*
X97276000Y-66848500I0J225500D01*
G01*
G37*
G36*
G01*
X101976000Y-66848500D02*
X101976000Y-66247500D01*
G75*
G02*
X102201500Y-66022000I225500J0D01*
G01*
X102652500Y-66022000D01*
G75*
G02*
X102878000Y-66247500I0J-225500D01*
G01*
X102878000Y-66848500D01*
G75*
G02*
X102652500Y-67074000I-225500J0D01*
G01*
X102201500Y-67074000D01*
G75*
G02*
X101976000Y-66848500I0J225500D01*
G01*
G37*
G36*
G01*
X100326000Y-66848500D02*
X100326000Y-66247500D01*
G75*
G02*
X100551500Y-66022000I225500J0D01*
G01*
X101002500Y-66022000D01*
G75*
G02*
X101228000Y-66247500I0J-225500D01*
G01*
X101228000Y-66848500D01*
G75*
G02*
X101002500Y-67074000I-225500J0D01*
G01*
X100551500Y-67074000D01*
G75*
G02*
X100326000Y-66848500I0J225500D01*
G01*
G37*
G36*
G01*
X118228000Y-66848500D02*
X118228000Y-66247500D01*
G75*
G02*
X118453500Y-66022000I225500J0D01*
G01*
X118904500Y-66022000D01*
G75*
G02*
X119130000Y-66247500I0J-225500D01*
G01*
X119130000Y-66848500D01*
G75*
G02*
X118904500Y-67074000I-225500J0D01*
G01*
X118453500Y-67074000D01*
G75*
G02*
X118228000Y-66848500I0J225500D01*
G01*
G37*
G36*
G01*
X116578000Y-66848500D02*
X116578000Y-66247500D01*
G75*
G02*
X116803500Y-66022000I225500J0D01*
G01*
X117254500Y-66022000D01*
G75*
G02*
X117480000Y-66247500I0J-225500D01*
G01*
X117480000Y-66848500D01*
G75*
G02*
X117254500Y-67074000I-225500J0D01*
G01*
X116803500Y-67074000D01*
G75*
G02*
X116578000Y-66848500I0J225500D01*
G01*
G37*
G36*
G01*
X121278000Y-66848500D02*
X121278000Y-66247500D01*
G75*
G02*
X121503500Y-66022000I225500J0D01*
G01*
X121954500Y-66022000D01*
G75*
G02*
X122180000Y-66247500I0J-225500D01*
G01*
X122180000Y-66848500D01*
G75*
G02*
X121954500Y-67074000I-225500J0D01*
G01*
X121503500Y-67074000D01*
G75*
G02*
X121278000Y-66848500I0J225500D01*
G01*
G37*
G36*
G01*
X119628000Y-66848500D02*
X119628000Y-66247500D01*
G75*
G02*
X119853500Y-66022000I225500J0D01*
G01*
X120304500Y-66022000D01*
G75*
G02*
X120530000Y-66247500I0J-225500D01*
G01*
X120530000Y-66848500D01*
G75*
G02*
X120304500Y-67074000I-225500J0D01*
G01*
X119853500Y-67074000D01*
G75*
G02*
X119628000Y-66848500I0J225500D01*
G01*
G37*
G36*
G01*
X124326000Y-66848500D02*
X124326000Y-66247500D01*
G75*
G02*
X124551500Y-66022000I225500J0D01*
G01*
X125002500Y-66022000D01*
G75*
G02*
X125228000Y-66247500I0J-225500D01*
G01*
X125228000Y-66848500D01*
G75*
G02*
X125002500Y-67074000I-225500J0D01*
G01*
X124551500Y-67074000D01*
G75*
G02*
X124326000Y-66848500I0J225500D01*
G01*
G37*
G36*
G01*
X122676000Y-66848500D02*
X122676000Y-66247500D01*
G75*
G02*
X122901500Y-66022000I225500J0D01*
G01*
X123352500Y-66022000D01*
G75*
G02*
X123578000Y-66247500I0J-225500D01*
G01*
X123578000Y-66848500D01*
G75*
G02*
X123352500Y-67074000I-225500J0D01*
G01*
X122901500Y-67074000D01*
G75*
G02*
X122676000Y-66848500I0J225500D01*
G01*
G37*
G36*
G01*
X127374000Y-66848500D02*
X127374000Y-66247500D01*
G75*
G02*
X127599500Y-66022000I225500J0D01*
G01*
X128050500Y-66022000D01*
G75*
G02*
X128276000Y-66247500I0J-225500D01*
G01*
X128276000Y-66848500D01*
G75*
G02*
X128050500Y-67074000I-225500J0D01*
G01*
X127599500Y-67074000D01*
G75*
G02*
X127374000Y-66848500I0J225500D01*
G01*
G37*
G36*
G01*
X125724000Y-66848500D02*
X125724000Y-66247500D01*
G75*
G02*
X125949500Y-66022000I225500J0D01*
G01*
X126400500Y-66022000D01*
G75*
G02*
X126626000Y-66247500I0J-225500D01*
G01*
X126626000Y-66848500D01*
G75*
G02*
X126400500Y-67074000I-225500J0D01*
G01*
X125949500Y-67074000D01*
G75*
G02*
X125724000Y-66848500I0J225500D01*
G01*
G37*
G36*
G01*
X143628000Y-66848500D02*
X143628000Y-66247500D01*
G75*
G02*
X143853500Y-66022000I225500J0D01*
G01*
X144304500Y-66022000D01*
G75*
G02*
X144530000Y-66247500I0J-225500D01*
G01*
X144530000Y-66848500D01*
G75*
G02*
X144304500Y-67074000I-225500J0D01*
G01*
X143853500Y-67074000D01*
G75*
G02*
X143628000Y-66848500I0J225500D01*
G01*
G37*
G36*
G01*
X141978000Y-66848500D02*
X141978000Y-66247500D01*
G75*
G02*
X142203500Y-66022000I225500J0D01*
G01*
X142654500Y-66022000D01*
G75*
G02*
X142880000Y-66247500I0J-225500D01*
G01*
X142880000Y-66848500D01*
G75*
G02*
X142654500Y-67074000I-225500J0D01*
G01*
X142203500Y-67074000D01*
G75*
G02*
X141978000Y-66848500I0J225500D01*
G01*
G37*
G36*
G01*
X146678000Y-66848500D02*
X146678000Y-66247500D01*
G75*
G02*
X146903500Y-66022000I225500J0D01*
G01*
X147354500Y-66022000D01*
G75*
G02*
X147580000Y-66247500I0J-225500D01*
G01*
X147580000Y-66848500D01*
G75*
G02*
X147354500Y-67074000I-225500J0D01*
G01*
X146903500Y-67074000D01*
G75*
G02*
X146678000Y-66848500I0J225500D01*
G01*
G37*
G36*
G01*
X145028000Y-66848500D02*
X145028000Y-66247500D01*
G75*
G02*
X145253500Y-66022000I225500J0D01*
G01*
X145704500Y-66022000D01*
G75*
G02*
X145930000Y-66247500I0J-225500D01*
G01*
X145930000Y-66848500D01*
G75*
G02*
X145704500Y-67074000I-225500J0D01*
G01*
X145253500Y-67074000D01*
G75*
G02*
X145028000Y-66848500I0J225500D01*
G01*
G37*
G36*
G01*
X149724000Y-66848500D02*
X149724000Y-66247500D01*
G75*
G02*
X149949500Y-66022000I225500J0D01*
G01*
X150400500Y-66022000D01*
G75*
G02*
X150626000Y-66247500I0J-225500D01*
G01*
X150626000Y-66848500D01*
G75*
G02*
X150400500Y-67074000I-225500J0D01*
G01*
X149949500Y-67074000D01*
G75*
G02*
X149724000Y-66848500I0J225500D01*
G01*
G37*
G36*
G01*
X148074000Y-66848500D02*
X148074000Y-66247500D01*
G75*
G02*
X148299500Y-66022000I225500J0D01*
G01*
X148750500Y-66022000D01*
G75*
G02*
X148976000Y-66247500I0J-225500D01*
G01*
X148976000Y-66848500D01*
G75*
G02*
X148750500Y-67074000I-225500J0D01*
G01*
X148299500Y-67074000D01*
G75*
G02*
X148074000Y-66848500I0J225500D01*
G01*
G37*
G36*
G01*
X152772000Y-66848500D02*
X152772000Y-66247500D01*
G75*
G02*
X152997500Y-66022000I225500J0D01*
G01*
X153448500Y-66022000D01*
G75*
G02*
X153674000Y-66247500I0J-225500D01*
G01*
X153674000Y-66848500D01*
G75*
G02*
X153448500Y-67074000I-225500J0D01*
G01*
X152997500Y-67074000D01*
G75*
G02*
X152772000Y-66848500I0J225500D01*
G01*
G37*
G36*
G01*
X151122000Y-66848500D02*
X151122000Y-66247500D01*
G75*
G02*
X151347500Y-66022000I225500J0D01*
G01*
X151798500Y-66022000D01*
G75*
G02*
X152024000Y-66247500I0J-225500D01*
G01*
X152024000Y-66848500D01*
G75*
G02*
X151798500Y-67074000I-225500J0D01*
G01*
X151347500Y-67074000D01*
G75*
G02*
X151122000Y-66848500I0J225500D01*
G01*
G37*
G36*
G01*
X156838000Y-66848500D02*
X156838000Y-66247500D01*
G75*
G02*
X157063500Y-66022000I225500J0D01*
G01*
X157514500Y-66022000D01*
G75*
G02*
X157740000Y-66247500I0J-225500D01*
G01*
X157740000Y-66848500D01*
G75*
G02*
X157514500Y-67074000I-225500J0D01*
G01*
X157063500Y-67074000D01*
G75*
G02*
X156838000Y-66848500I0J225500D01*
G01*
G37*
G36*
G01*
X155188000Y-66848500D02*
X155188000Y-66247500D01*
G75*
G02*
X155413500Y-66022000I225500J0D01*
G01*
X155864500Y-66022000D01*
G75*
G02*
X156090000Y-66247500I0J-225500D01*
G01*
X156090000Y-66848500D01*
G75*
G02*
X155864500Y-67074000I-225500J0D01*
G01*
X155413500Y-67074000D01*
G75*
G02*
X155188000Y-66848500I0J225500D01*
G01*
G37*
G36*
G01*
X138772000Y-75196000D02*
X137072000Y-75196000D01*
G75*
G02*
X137021000Y-75145000I0J51000D01*
G01*
X137021000Y-73445000D01*
G75*
G02*
X137072000Y-73394000I51000J0D01*
G01*
X138772000Y-73394000D01*
G75*
G02*
X138823000Y-73445000I0J-51000D01*
G01*
X138823000Y-75145000D01*
G75*
G02*
X138772000Y-75196000I-51000J0D01*
G01*
G37*
D10*
X137922000Y-71755000D03*
X140462000Y-74295000D03*
X140462000Y-71755000D03*
X143002000Y-74295000D03*
X143002000Y-71755000D03*
X145542000Y-74295000D03*
X145542000Y-71755000D03*
X148082000Y-74295000D03*
X148082000Y-71755000D03*
X150622000Y-74295000D03*
X150622000Y-71755000D03*
X153162000Y-74295000D03*
X153162000Y-71755000D03*
X76962000Y-71755000D03*
X76962000Y-74295000D03*
X74422000Y-71755000D03*
X74422000Y-74295000D03*
X71882000Y-71755000D03*
X71882000Y-74295000D03*
X69342000Y-71755000D03*
X69342000Y-74295000D03*
X66802000Y-71755000D03*
X66802000Y-74295000D03*
X64262000Y-71755000D03*
X64262000Y-74295000D03*
X61722000Y-71755000D03*
G36*
G01*
X62572000Y-75196000D02*
X60872000Y-75196000D01*
G75*
G02*
X60821000Y-75145000I0J51000D01*
G01*
X60821000Y-73445000D01*
G75*
G02*
X60872000Y-73394000I51000J0D01*
G01*
X62572000Y-73394000D01*
G75*
G02*
X62623000Y-73445000I0J-51000D01*
G01*
X62623000Y-75145000D01*
G75*
G02*
X62572000Y-75196000I-51000J0D01*
G01*
G37*
X102362000Y-71755000D03*
X102362000Y-74295000D03*
X99822000Y-71755000D03*
X99822000Y-74295000D03*
X97282000Y-71755000D03*
X97282000Y-74295000D03*
X94742000Y-71755000D03*
X94742000Y-74295000D03*
X92202000Y-71755000D03*
X92202000Y-74295000D03*
X89662000Y-71755000D03*
X89662000Y-74295000D03*
X87122000Y-71755000D03*
G36*
G01*
X87972000Y-75196000D02*
X86272000Y-75196000D01*
G75*
G02*
X86221000Y-75145000I0J51000D01*
G01*
X86221000Y-73445000D01*
G75*
G02*
X86272000Y-73394000I51000J0D01*
G01*
X87972000Y-73394000D01*
G75*
G02*
X88023000Y-73445000I0J-51000D01*
G01*
X88023000Y-75145000D01*
G75*
G02*
X87972000Y-75196000I-51000J0D01*
G01*
G37*
G36*
G01*
X113372000Y-75196000D02*
X111672000Y-75196000D01*
G75*
G02*
X111621000Y-75145000I0J51000D01*
G01*
X111621000Y-73445000D01*
G75*
G02*
X111672000Y-73394000I51000J0D01*
G01*
X113372000Y-73394000D01*
G75*
G02*
X113423000Y-73445000I0J-51000D01*
G01*
X113423000Y-75145000D01*
G75*
G02*
X113372000Y-75196000I-51000J0D01*
G01*
G37*
X112522000Y-71755000D03*
X115062000Y-74295000D03*
X115062000Y-71755000D03*
X117602000Y-74295000D03*
X117602000Y-71755000D03*
X120142000Y-74295000D03*
X120142000Y-71755000D03*
X122682000Y-74295000D03*
X122682000Y-71755000D03*
X125222000Y-74295000D03*
X125222000Y-71755000D03*
X127762000Y-74295000D03*
X127762000Y-71755000D03*
G36*
G01*
X62003750Y-88652000D02*
X61440250Y-88652000D01*
G75*
G02*
X61196000Y-88407750I0J244250D01*
G01*
X61196000Y-87919250D01*
G75*
G02*
X61440250Y-87675000I244250J0D01*
G01*
X62003750Y-87675000D01*
G75*
G02*
X62248000Y-87919250I0J-244250D01*
G01*
X62248000Y-88407750D01*
G75*
G02*
X62003750Y-88652000I-244250J0D01*
G01*
G37*
G36*
G01*
X62003750Y-87077000D02*
X61440250Y-87077000D01*
G75*
G02*
X61196000Y-86832750I0J244250D01*
G01*
X61196000Y-86344250D01*
G75*
G02*
X61440250Y-86100000I244250J0D01*
G01*
X62003750Y-86100000D01*
G75*
G02*
X62248000Y-86344250I0J-244250D01*
G01*
X62248000Y-86832750D01*
G75*
G02*
X62003750Y-87077000I-244250J0D01*
G01*
G37*
G36*
G01*
X87911750Y-88652000D02*
X87348250Y-88652000D01*
G75*
G02*
X87104000Y-88407750I0J244250D01*
G01*
X87104000Y-87919250D01*
G75*
G02*
X87348250Y-87675000I244250J0D01*
G01*
X87911750Y-87675000D01*
G75*
G02*
X88156000Y-87919250I0J-244250D01*
G01*
X88156000Y-88407750D01*
G75*
G02*
X87911750Y-88652000I-244250J0D01*
G01*
G37*
G36*
G01*
X87911750Y-87077000D02*
X87348250Y-87077000D01*
G75*
G02*
X87104000Y-86832750I0J244250D01*
G01*
X87104000Y-86344250D01*
G75*
G02*
X87348250Y-86100000I244250J0D01*
G01*
X87911750Y-86100000D01*
G75*
G02*
X88156000Y-86344250I0J-244250D01*
G01*
X88156000Y-86832750D01*
G75*
G02*
X87911750Y-87077000I-244250J0D01*
G01*
G37*
G36*
G01*
X112295750Y-87077000D02*
X111732250Y-87077000D01*
G75*
G02*
X111488000Y-86832750I0J244250D01*
G01*
X111488000Y-86344250D01*
G75*
G02*
X111732250Y-86100000I244250J0D01*
G01*
X112295750Y-86100000D01*
G75*
G02*
X112540000Y-86344250I0J-244250D01*
G01*
X112540000Y-86832750D01*
G75*
G02*
X112295750Y-87077000I-244250J0D01*
G01*
G37*
G36*
G01*
X112295750Y-88652000D02*
X111732250Y-88652000D01*
G75*
G02*
X111488000Y-88407750I0J244250D01*
G01*
X111488000Y-87919250D01*
G75*
G02*
X111732250Y-87675000I244250J0D01*
G01*
X112295750Y-87675000D01*
G75*
G02*
X112540000Y-87919250I0J-244250D01*
G01*
X112540000Y-88407750D01*
G75*
G02*
X112295750Y-88652000I-244250J0D01*
G01*
G37*
G36*
G01*
X138203750Y-87077000D02*
X137640250Y-87077000D01*
G75*
G02*
X137396000Y-86832750I0J244250D01*
G01*
X137396000Y-86344250D01*
G75*
G02*
X137640250Y-86100000I244250J0D01*
G01*
X138203750Y-86100000D01*
G75*
G02*
X138448000Y-86344250I0J-244250D01*
G01*
X138448000Y-86832750D01*
G75*
G02*
X138203750Y-87077000I-244250J0D01*
G01*
G37*
G36*
G01*
X138203750Y-88652000D02*
X137640250Y-88652000D01*
G75*
G02*
X137396000Y-88407750I0J244250D01*
G01*
X137396000Y-87919250D01*
G75*
G02*
X137640250Y-87675000I244250J0D01*
G01*
X138203750Y-87675000D01*
G75*
G02*
X138448000Y-87919250I0J-244250D01*
G01*
X138448000Y-88407750D01*
G75*
G02*
X138203750Y-88652000I-244250J0D01*
G01*
G37*
G36*
G01*
X67591750Y-88652000D02*
X67028250Y-88652000D01*
G75*
G02*
X66784000Y-88407750I0J244250D01*
G01*
X66784000Y-87919250D01*
G75*
G02*
X67028250Y-87675000I244250J0D01*
G01*
X67591750Y-87675000D01*
G75*
G02*
X67836000Y-87919250I0J-244250D01*
G01*
X67836000Y-88407750D01*
G75*
G02*
X67591750Y-88652000I-244250J0D01*
G01*
G37*
G36*
G01*
X67591750Y-87077000D02*
X67028250Y-87077000D01*
G75*
G02*
X66784000Y-86832750I0J244250D01*
G01*
X66784000Y-86344250D01*
G75*
G02*
X67028250Y-86100000I244250J0D01*
G01*
X67591750Y-86100000D01*
G75*
G02*
X67836000Y-86344250I0J-244250D01*
G01*
X67836000Y-86832750D01*
G75*
G02*
X67591750Y-87077000I-244250J0D01*
G01*
G37*
G36*
G01*
X92991750Y-88652000D02*
X92428250Y-88652000D01*
G75*
G02*
X92184000Y-88407750I0J244250D01*
G01*
X92184000Y-87919250D01*
G75*
G02*
X92428250Y-87675000I244250J0D01*
G01*
X92991750Y-87675000D01*
G75*
G02*
X93236000Y-87919250I0J-244250D01*
G01*
X93236000Y-88407750D01*
G75*
G02*
X92991750Y-88652000I-244250J0D01*
G01*
G37*
G36*
G01*
X92991750Y-87077000D02*
X92428250Y-87077000D01*
G75*
G02*
X92184000Y-86832750I0J244250D01*
G01*
X92184000Y-86344250D01*
G75*
G02*
X92428250Y-86100000I244250J0D01*
G01*
X92991750Y-86100000D01*
G75*
G02*
X93236000Y-86344250I0J-244250D01*
G01*
X93236000Y-86832750D01*
G75*
G02*
X92991750Y-87077000I-244250J0D01*
G01*
G37*
G36*
G01*
X117375750Y-88652000D02*
X116812250Y-88652000D01*
G75*
G02*
X116568000Y-88407750I0J244250D01*
G01*
X116568000Y-87919250D01*
G75*
G02*
X116812250Y-87675000I244250J0D01*
G01*
X117375750Y-87675000D01*
G75*
G02*
X117620000Y-87919250I0J-244250D01*
G01*
X117620000Y-88407750D01*
G75*
G02*
X117375750Y-88652000I-244250J0D01*
G01*
G37*
G36*
G01*
X117375750Y-87077000D02*
X116812250Y-87077000D01*
G75*
G02*
X116568000Y-86832750I0J244250D01*
G01*
X116568000Y-86344250D01*
G75*
G02*
X116812250Y-86100000I244250J0D01*
G01*
X117375750Y-86100000D01*
G75*
G02*
X117620000Y-86344250I0J-244250D01*
G01*
X117620000Y-86832750D01*
G75*
G02*
X117375750Y-87077000I-244250J0D01*
G01*
G37*
G36*
G01*
X143283750Y-88652000D02*
X142720250Y-88652000D01*
G75*
G02*
X142476000Y-88407750I0J244250D01*
G01*
X142476000Y-87919250D01*
G75*
G02*
X142720250Y-87675000I244250J0D01*
G01*
X143283750Y-87675000D01*
G75*
G02*
X143528000Y-87919250I0J-244250D01*
G01*
X143528000Y-88407750D01*
G75*
G02*
X143283750Y-88652000I-244250J0D01*
G01*
G37*
G36*
G01*
X143283750Y-87077000D02*
X142720250Y-87077000D01*
G75*
G02*
X142476000Y-86832750I0J244250D01*
G01*
X142476000Y-86344250D01*
G75*
G02*
X142720250Y-86100000I244250J0D01*
G01*
X143283750Y-86100000D01*
G75*
G02*
X143528000Y-86344250I0J-244250D01*
G01*
X143528000Y-86832750D01*
G75*
G02*
X143283750Y-87077000I-244250J0D01*
G01*
G37*
G36*
G01*
X72671750Y-87077000D02*
X72108250Y-87077000D01*
G75*
G02*
X71864000Y-86832750I0J244250D01*
G01*
X71864000Y-86344250D01*
G75*
G02*
X72108250Y-86100000I244250J0D01*
G01*
X72671750Y-86100000D01*
G75*
G02*
X72916000Y-86344250I0J-244250D01*
G01*
X72916000Y-86832750D01*
G75*
G02*
X72671750Y-87077000I-244250J0D01*
G01*
G37*
G36*
G01*
X72671750Y-88652000D02*
X72108250Y-88652000D01*
G75*
G02*
X71864000Y-88407750I0J244250D01*
G01*
X71864000Y-87919250D01*
G75*
G02*
X72108250Y-87675000I244250J0D01*
G01*
X72671750Y-87675000D01*
G75*
G02*
X72916000Y-87919250I0J-244250D01*
G01*
X72916000Y-88407750D01*
G75*
G02*
X72671750Y-88652000I-244250J0D01*
G01*
G37*
G36*
G01*
X97563750Y-87077000D02*
X97000250Y-87077000D01*
G75*
G02*
X96756000Y-86832750I0J244250D01*
G01*
X96756000Y-86344250D01*
G75*
G02*
X97000250Y-86100000I244250J0D01*
G01*
X97563750Y-86100000D01*
G75*
G02*
X97808000Y-86344250I0J-244250D01*
G01*
X97808000Y-86832750D01*
G75*
G02*
X97563750Y-87077000I-244250J0D01*
G01*
G37*
G36*
G01*
X97563750Y-88652000D02*
X97000250Y-88652000D01*
G75*
G02*
X96756000Y-88407750I0J244250D01*
G01*
X96756000Y-87919250D01*
G75*
G02*
X97000250Y-87675000I244250J0D01*
G01*
X97563750Y-87675000D01*
G75*
G02*
X97808000Y-87919250I0J-244250D01*
G01*
X97808000Y-88407750D01*
G75*
G02*
X97563750Y-88652000I-244250J0D01*
G01*
G37*
G36*
G01*
X121947750Y-88652000D02*
X121384250Y-88652000D01*
G75*
G02*
X121140000Y-88407750I0J244250D01*
G01*
X121140000Y-87919250D01*
G75*
G02*
X121384250Y-87675000I244250J0D01*
G01*
X121947750Y-87675000D01*
G75*
G02*
X122192000Y-87919250I0J-244250D01*
G01*
X122192000Y-88407750D01*
G75*
G02*
X121947750Y-88652000I-244250J0D01*
G01*
G37*
G36*
G01*
X121947750Y-87077000D02*
X121384250Y-87077000D01*
G75*
G02*
X121140000Y-86832750I0J244250D01*
G01*
X121140000Y-86344250D01*
G75*
G02*
X121384250Y-86100000I244250J0D01*
G01*
X121947750Y-86100000D01*
G75*
G02*
X122192000Y-86344250I0J-244250D01*
G01*
X122192000Y-86832750D01*
G75*
G02*
X121947750Y-87077000I-244250J0D01*
G01*
G37*
G36*
G01*
X148363750Y-87077000D02*
X147800250Y-87077000D01*
G75*
G02*
X147556000Y-86832750I0J244250D01*
G01*
X147556000Y-86344250D01*
G75*
G02*
X147800250Y-86100000I244250J0D01*
G01*
X148363750Y-86100000D01*
G75*
G02*
X148608000Y-86344250I0J-244250D01*
G01*
X148608000Y-86832750D01*
G75*
G02*
X148363750Y-87077000I-244250J0D01*
G01*
G37*
G36*
G01*
X148363750Y-88652000D02*
X147800250Y-88652000D01*
G75*
G02*
X147556000Y-88407750I0J244250D01*
G01*
X147556000Y-87919250D01*
G75*
G02*
X147800250Y-87675000I244250J0D01*
G01*
X148363750Y-87675000D01*
G75*
G02*
X148608000Y-87919250I0J-244250D01*
G01*
X148608000Y-88407750D01*
G75*
G02*
X148363750Y-88652000I-244250J0D01*
G01*
G37*
G36*
G01*
X77243750Y-87077000D02*
X76680250Y-87077000D01*
G75*
G02*
X76436000Y-86832750I0J244250D01*
G01*
X76436000Y-86344250D01*
G75*
G02*
X76680250Y-86100000I244250J0D01*
G01*
X77243750Y-86100000D01*
G75*
G02*
X77488000Y-86344250I0J-244250D01*
G01*
X77488000Y-86832750D01*
G75*
G02*
X77243750Y-87077000I-244250J0D01*
G01*
G37*
G36*
G01*
X77243750Y-88652000D02*
X76680250Y-88652000D01*
G75*
G02*
X76436000Y-88407750I0J244250D01*
G01*
X76436000Y-87919250D01*
G75*
G02*
X76680250Y-87675000I244250J0D01*
G01*
X77243750Y-87675000D01*
G75*
G02*
X77488000Y-87919250I0J-244250D01*
G01*
X77488000Y-88407750D01*
G75*
G02*
X77243750Y-88652000I-244250J0D01*
G01*
G37*
G36*
G01*
X102643750Y-87077000D02*
X102080250Y-87077000D01*
G75*
G02*
X101836000Y-86832750I0J244250D01*
G01*
X101836000Y-86344250D01*
G75*
G02*
X102080250Y-86100000I244250J0D01*
G01*
X102643750Y-86100000D01*
G75*
G02*
X102888000Y-86344250I0J-244250D01*
G01*
X102888000Y-86832750D01*
G75*
G02*
X102643750Y-87077000I-244250J0D01*
G01*
G37*
G36*
G01*
X102643750Y-88652000D02*
X102080250Y-88652000D01*
G75*
G02*
X101836000Y-88407750I0J244250D01*
G01*
X101836000Y-87919250D01*
G75*
G02*
X102080250Y-87675000I244250J0D01*
G01*
X102643750Y-87675000D01*
G75*
G02*
X102888000Y-87919250I0J-244250D01*
G01*
X102888000Y-88407750D01*
G75*
G02*
X102643750Y-88652000I-244250J0D01*
G01*
G37*
G36*
G01*
X127535750Y-87077000D02*
X126972250Y-87077000D01*
G75*
G02*
X126728000Y-86832750I0J244250D01*
G01*
X126728000Y-86344250D01*
G75*
G02*
X126972250Y-86100000I244250J0D01*
G01*
X127535750Y-86100000D01*
G75*
G02*
X127780000Y-86344250I0J-244250D01*
G01*
X127780000Y-86832750D01*
G75*
G02*
X127535750Y-87077000I-244250J0D01*
G01*
G37*
G36*
G01*
X127535750Y-88652000D02*
X126972250Y-88652000D01*
G75*
G02*
X126728000Y-88407750I0J244250D01*
G01*
X126728000Y-87919250D01*
G75*
G02*
X126972250Y-87675000I244250J0D01*
G01*
X127535750Y-87675000D01*
G75*
G02*
X127780000Y-87919250I0J-244250D01*
G01*
X127780000Y-88407750D01*
G75*
G02*
X127535750Y-88652000I-244250J0D01*
G01*
G37*
G36*
G01*
X153443750Y-88652000D02*
X152880250Y-88652000D01*
G75*
G02*
X152636000Y-88407750I0J244250D01*
G01*
X152636000Y-87919250D01*
G75*
G02*
X152880250Y-87675000I244250J0D01*
G01*
X153443750Y-87675000D01*
G75*
G02*
X153688000Y-87919250I0J-244250D01*
G01*
X153688000Y-88407750D01*
G75*
G02*
X153443750Y-88652000I-244250J0D01*
G01*
G37*
G36*
G01*
X153443750Y-87077000D02*
X152880250Y-87077000D01*
G75*
G02*
X152636000Y-86832750I0J244250D01*
G01*
X152636000Y-86344250D01*
G75*
G02*
X152880250Y-86100000I244250J0D01*
G01*
X153443750Y-86100000D01*
G75*
G02*
X153688000Y-86344250I0J-244250D01*
G01*
X153688000Y-86832750D01*
G75*
G02*
X153443750Y-87077000I-244250J0D01*
G01*
G37*
M02*
