M48
; DRILL file {KiCad (5.1.10)-1} date 09/21/21 14:09:15
; FORMAT={-:-/ absolute / metric / decimal}
; #@! TF.CreationDate,2021-09-21T14:09:15-07:00
; #@! TF.GenerationSoftware,Kicad,Pcbnew,(5.1.10)-1
; #@! TF.FileFunction,Plated,1,2,PTH
FMAT,2
METRIC
T1C0.400
T2C1.000
%
G90
G05
T1
X66.04Y-69.215
X71.628Y-82.804
X72.39Y-68.58
X76.2Y-82.804
X96.52Y-82.804
X97.79Y-68.58
X101.6Y-82.804
X121.92Y-82.296
X123.19Y-68.58
X126.238Y-82.55
X147.32Y-82.296
X148.59Y-68.58
X151.892Y-82.804
T2
X61.722Y-71.755
X61.722Y-74.295
X64.262Y-71.755
X64.262Y-74.295
X66.802Y-71.755
X66.802Y-74.295
X69.342Y-71.755
X69.342Y-74.295
X71.882Y-71.755
X71.882Y-74.295
X74.422Y-71.755
X74.422Y-74.295
X76.962Y-71.755
X76.962Y-74.295
X87.122Y-71.755
X87.122Y-74.295
X89.662Y-71.755
X89.662Y-74.295
X92.202Y-71.755
X92.202Y-74.295
X94.742Y-71.755
X94.742Y-74.295
X97.282Y-71.755
X97.282Y-74.295
X99.822Y-71.755
X99.822Y-74.295
X102.362Y-71.755
X102.362Y-74.295
X112.522Y-71.755
X112.522Y-74.295
X115.062Y-71.755
X115.062Y-74.295
X117.602Y-71.755
X117.602Y-74.295
X120.142Y-71.755
X120.142Y-74.295
X122.682Y-71.755
X122.682Y-74.295
X125.222Y-71.755
X125.222Y-74.295
X127.762Y-71.755
X127.762Y-74.295
X137.922Y-71.755
X137.922Y-74.295
X140.462Y-71.755
X140.462Y-74.295
X143.002Y-71.755
X143.002Y-74.295
X145.542Y-71.755
X145.542Y-74.295
X148.082Y-71.755
X148.082Y-74.295
X150.622Y-71.755
X150.622Y-74.295
X153.162Y-71.755
X153.162Y-74.295
T0
M30
