G04 #@! TF.GenerationSoftware,KiCad,Pcbnew,(6.0.0)*
G04 #@! TF.CreationDate,2022-04-14T19:32:56-07:00*
G04 #@! TF.ProjectId,SolenoidController,536f6c65-6e6f-4696-9443-6f6e74726f6c,rev?*
G04 #@! TF.SameCoordinates,Original*
G04 #@! TF.FileFunction,Paste,Top*
G04 #@! TF.FilePolarity,Positive*
%FSLAX46Y46*%
G04 Gerber Fmt 4.6, Leading zero omitted, Abs format (unit mm)*
G04 Created by KiCad (PCBNEW (6.0.0)) date 2022-04-14 19:32:56*
%MOMM*%
%LPD*%
G01*
G04 APERTURE LIST*
G04 Aperture macros list*
%AMRoundRect*
0 Rectangle with rounded corners*
0 $1 Rounding radius*
0 $2 $3 $4 $5 $6 $7 $8 $9 X,Y pos of 4 corners*
0 Add a 4 corners polygon primitive as box body*
4,1,4,$2,$3,$4,$5,$6,$7,$8,$9,$2,$3,0*
0 Add four circle primitives for the rounded corners*
1,1,$1+$1,$2,$3*
1,1,$1+$1,$4,$5*
1,1,$1+$1,$6,$7*
1,1,$1+$1,$8,$9*
0 Add four rect primitives between the rounded corners*
20,1,$1+$1,$2,$3,$4,$5,0*
20,1,$1+$1,$4,$5,$6,$7,0*
20,1,$1+$1,$6,$7,$8,$9,0*
20,1,$1+$1,$8,$9,$2,$3,0*%
G04 Aperture macros list end*
%ADD10RoundRect,0.140000X-0.170000X0.140000X-0.170000X-0.140000X0.170000X-0.140000X0.170000X0.140000X0*%
%ADD11RoundRect,0.140000X0.140000X0.170000X-0.140000X0.170000X-0.140000X-0.170000X0.140000X-0.170000X0*%
%ADD12RoundRect,0.218750X-0.218750X-0.256250X0.218750X-0.256250X0.218750X0.256250X-0.218750X0.256250X0*%
%ADD13RoundRect,0.218750X0.218750X0.256250X-0.218750X0.256250X-0.218750X-0.256250X0.218750X-0.256250X0*%
%ADD14R,1.200000X0.900000*%
%ADD15RoundRect,0.218750X-0.256250X0.218750X-0.256250X-0.218750X0.256250X-0.218750X0.256250X0.218750X0*%
%ADD16RoundRect,0.250000X0.712500X2.475000X-0.712500X2.475000X-0.712500X-2.475000X0.712500X-2.475000X0*%
%ADD17RoundRect,0.250000X-0.625000X0.375000X-0.625000X-0.375000X0.625000X-0.375000X0.625000X0.375000X0*%
%ADD18R,0.900000X0.800000*%
%ADD19RoundRect,0.135000X0.135000X0.185000X-0.135000X0.185000X-0.135000X-0.185000X0.135000X-0.185000X0*%
%ADD20RoundRect,0.135000X-0.135000X-0.185000X0.135000X-0.185000X0.135000X0.185000X-0.135000X0.185000X0*%
%ADD21RoundRect,0.135000X0.185000X-0.135000X0.185000X0.135000X-0.185000X0.135000X-0.185000X-0.135000X0*%
%ADD22RoundRect,0.250000X0.625000X-0.312500X0.625000X0.312500X-0.625000X0.312500X-0.625000X-0.312500X0*%
%ADD23RoundRect,0.250000X-0.625000X0.312500X-0.625000X-0.312500X0.625000X-0.312500X0.625000X0.312500X0*%
%ADD24R,1.550000X0.700000*%
%ADD25RoundRect,0.150000X0.150000X-0.875000X0.150000X0.875000X-0.150000X0.875000X-0.150000X-0.875000X0*%
G04 APERTURE END LIST*
D10*
X146000000Y-67520000D03*
X146000000Y-68480000D03*
D11*
X109980000Y-75250000D03*
X109020000Y-75250000D03*
D12*
X76312500Y-76490000D03*
X77887500Y-76490000D03*
D13*
X88157500Y-76500000D03*
X86582500Y-76500000D03*
D14*
X124500000Y-54350000D03*
X124500000Y-57650000D03*
X123500000Y-63150000D03*
X123500000Y-59850000D03*
X98500000Y-63150000D03*
X98500000Y-59850000D03*
X97500000Y-54350000D03*
X97500000Y-57650000D03*
D15*
X68000000Y-137212500D03*
X68000000Y-138787500D03*
X68000000Y-122212500D03*
X68000000Y-123787500D03*
X68000000Y-107212500D03*
X68000000Y-108787500D03*
X68000000Y-91925000D03*
X68000000Y-93500000D03*
D14*
X56500000Y-131350000D03*
X56500000Y-134650000D03*
X56500000Y-115770000D03*
X56500000Y-119070000D03*
X56500000Y-100850000D03*
X56500000Y-104150000D03*
X56500000Y-85850000D03*
X56500000Y-89150000D03*
D15*
X93000000Y-137212500D03*
X93000000Y-138787500D03*
X93000000Y-122212500D03*
X93000000Y-123787500D03*
X93000000Y-107212500D03*
X93000000Y-108787500D03*
X93000000Y-92212500D03*
X93000000Y-93787500D03*
D14*
X81500000Y-131350000D03*
X81500000Y-134650000D03*
X81500000Y-116350000D03*
X81500000Y-119650000D03*
X81500000Y-100850000D03*
X81500000Y-104150000D03*
X81500000Y-86350000D03*
X81500000Y-89650000D03*
D15*
X118500000Y-137212500D03*
X118500000Y-138787500D03*
X118500000Y-122212500D03*
X118500000Y-123787500D03*
X118500000Y-107212500D03*
X118500000Y-108787500D03*
X118500000Y-92212500D03*
X118500000Y-93787500D03*
D14*
X107000000Y-131350000D03*
X107000000Y-134650000D03*
X107000000Y-116350000D03*
X107000000Y-119650000D03*
X107000000Y-100850000D03*
X107000000Y-104150000D03*
X107000000Y-85850000D03*
X107000000Y-89150000D03*
D15*
X142500000Y-137212500D03*
X142500000Y-138787500D03*
X142500000Y-122212500D03*
X142500000Y-123787500D03*
X142500000Y-107212500D03*
X142500000Y-108787500D03*
X142500000Y-92212500D03*
X142500000Y-93787500D03*
D14*
X131000000Y-131350000D03*
X131000000Y-134650000D03*
X131000000Y-115850000D03*
X131000000Y-119150000D03*
X131000000Y-100850000D03*
X131000000Y-104150000D03*
X131000000Y-85850000D03*
X131000000Y-89150000D03*
D16*
X63387500Y-69000000D03*
X56612500Y-69000000D03*
D17*
X59500000Y-131600000D03*
X59500000Y-134400000D03*
X59500000Y-116100000D03*
X59500000Y-118900000D03*
X59500000Y-101100000D03*
X59500000Y-103900000D03*
X59500000Y-86100000D03*
X59500000Y-88900000D03*
X84500000Y-131600000D03*
X84500000Y-134400000D03*
X84500000Y-116600000D03*
X84500000Y-119400000D03*
X84500000Y-101100000D03*
X84500000Y-103900000D03*
X84500000Y-86600000D03*
X84500000Y-89400000D03*
X110000000Y-131600000D03*
X110000000Y-134400000D03*
X110000000Y-116600000D03*
X110000000Y-119400000D03*
X110000000Y-101100000D03*
X110000000Y-103900000D03*
X110000000Y-86100000D03*
X110000000Y-88900000D03*
X134000000Y-131600000D03*
X134000000Y-134400000D03*
X134000000Y-116100000D03*
X134000000Y-118900000D03*
X134000000Y-101100000D03*
X134000000Y-103900000D03*
X134000000Y-86100000D03*
X134000000Y-88900000D03*
D18*
X64000000Y-133950000D03*
X64000000Y-132050000D03*
X62000000Y-133000000D03*
X64000000Y-118370000D03*
X64000000Y-116470000D03*
X62000000Y-117420000D03*
X64000000Y-103450000D03*
X64000000Y-101550000D03*
X62000000Y-102500000D03*
X64000000Y-88450000D03*
X64000000Y-86550000D03*
X62000000Y-87500000D03*
X89000000Y-133950000D03*
X89000000Y-132050000D03*
X87000000Y-133000000D03*
X89000000Y-118950000D03*
X89000000Y-117050000D03*
X87000000Y-118000000D03*
X89000000Y-103450000D03*
X89000000Y-101550000D03*
X87000000Y-102500000D03*
X89000000Y-88950000D03*
X89000000Y-87050000D03*
X87000000Y-88000000D03*
X114500000Y-133950000D03*
X114500000Y-132050000D03*
X112500000Y-133000000D03*
X114500000Y-118950000D03*
X114500000Y-117050000D03*
X112500000Y-118000000D03*
X114500000Y-103450000D03*
X114500000Y-101550000D03*
X112500000Y-102500000D03*
X114500000Y-88450000D03*
X114500000Y-86550000D03*
X112500000Y-87500000D03*
X138500000Y-133950000D03*
X138500000Y-132050000D03*
X136500000Y-133000000D03*
X138500000Y-118450000D03*
X138500000Y-116550000D03*
X136500000Y-117500000D03*
X138500000Y-103450000D03*
X138500000Y-101550000D03*
X136500000Y-102500000D03*
X138500000Y-88450000D03*
X138500000Y-86550000D03*
X136500000Y-87500000D03*
D19*
X77510000Y-78000000D03*
X76490000Y-78000000D03*
D20*
X86990000Y-78000000D03*
X88010000Y-78000000D03*
D21*
X130000000Y-60260000D03*
X130000000Y-59240000D03*
X130000000Y-57760000D03*
X130000000Y-56740000D03*
X130000000Y-55260000D03*
X130000000Y-54240000D03*
D22*
X121500000Y-57462500D03*
X121500000Y-54537500D03*
D23*
X120500000Y-60037500D03*
X120500000Y-62962500D03*
D19*
X144110000Y-78000000D03*
X143090000Y-78000000D03*
D23*
X95750000Y-60037500D03*
X95750000Y-62962500D03*
D22*
X94500000Y-57462500D03*
X94500000Y-54537500D03*
D19*
X67010000Y-131500000D03*
X65990000Y-131500000D03*
X67010000Y-116000000D03*
X65990000Y-116000000D03*
X67010000Y-101000000D03*
X65990000Y-101000000D03*
X67010000Y-86000000D03*
X65990000Y-86000000D03*
D20*
X65990000Y-133000000D03*
X67010000Y-133000000D03*
X65990000Y-117500000D03*
X67010000Y-117500000D03*
X65990000Y-102500000D03*
X67010000Y-102500000D03*
X65990000Y-87500000D03*
X67010000Y-87500000D03*
X65990000Y-134500000D03*
X67010000Y-134500000D03*
X65990000Y-119000000D03*
X67010000Y-119000000D03*
X65990000Y-104000000D03*
X67010000Y-104000000D03*
X65990000Y-89000000D03*
X67010000Y-89000000D03*
D19*
X92010000Y-131500000D03*
X90990000Y-131500000D03*
X92010000Y-116500000D03*
X90990000Y-116500000D03*
X92010000Y-101000000D03*
X90990000Y-101000000D03*
X92010000Y-86500000D03*
X90990000Y-86500000D03*
D20*
X90990000Y-133000000D03*
X92010000Y-133000000D03*
X90990000Y-118000000D03*
X92010000Y-118000000D03*
X90990000Y-102500000D03*
X92010000Y-102500000D03*
X90990000Y-88000000D03*
X92010000Y-88000000D03*
X90990000Y-134500000D03*
X92010000Y-134500000D03*
X90990000Y-119500000D03*
X92010000Y-119500000D03*
X90990000Y-104000000D03*
X92010000Y-104000000D03*
X90990000Y-89500000D03*
X92010000Y-89500000D03*
D19*
X117510000Y-131500000D03*
X116490000Y-131500000D03*
X117510000Y-116500000D03*
X116490000Y-116500000D03*
X117510000Y-101000000D03*
X116490000Y-101000000D03*
X117510000Y-86000000D03*
X116490000Y-86000000D03*
D20*
X116490000Y-133000000D03*
X117510000Y-133000000D03*
X116490000Y-118000000D03*
X117510000Y-118000000D03*
X116490000Y-102500000D03*
X117510000Y-102500000D03*
X116490000Y-87500000D03*
X117510000Y-87500000D03*
X116490000Y-134500000D03*
X117510000Y-134500000D03*
X116490000Y-119500000D03*
X117510000Y-119500000D03*
X116490000Y-104000000D03*
X117510000Y-104000000D03*
X116490000Y-89000000D03*
X117510000Y-89000000D03*
D19*
X141510000Y-131500000D03*
X140490000Y-131500000D03*
X141510000Y-116000000D03*
X140490000Y-116000000D03*
X141510000Y-101000000D03*
X140490000Y-101000000D03*
X141510000Y-86000000D03*
X140490000Y-86000000D03*
D20*
X140490000Y-133000000D03*
X141510000Y-133000000D03*
X140490000Y-117500000D03*
X141510000Y-117500000D03*
X140490000Y-102500000D03*
X141510000Y-102500000D03*
X140490000Y-87500000D03*
X141510000Y-87500000D03*
X140490000Y-134500000D03*
X141510000Y-134500000D03*
X140490000Y-119000000D03*
X141510000Y-119000000D03*
X140490000Y-104000000D03*
X141510000Y-104000000D03*
X140490000Y-89000000D03*
X141510000Y-89000000D03*
D24*
X112225000Y-73655000D03*
X112225000Y-72385000D03*
X112225000Y-71115000D03*
X112225000Y-69845000D03*
X106775000Y-69845000D03*
X106775000Y-71115000D03*
X106775000Y-72385000D03*
X106775000Y-73655000D03*
D25*
X127745000Y-75650000D03*
X129015000Y-75650000D03*
X130285000Y-75650000D03*
X131555000Y-75650000D03*
X132825000Y-75650000D03*
X134095000Y-75650000D03*
X135365000Y-75650000D03*
X136635000Y-75650000D03*
X137905000Y-75650000D03*
X139175000Y-75650000D03*
X140445000Y-75650000D03*
X141715000Y-75650000D03*
X142985000Y-75650000D03*
X144255000Y-75650000D03*
X144255000Y-66350000D03*
X142985000Y-66350000D03*
X141715000Y-66350000D03*
X140445000Y-66350000D03*
X139175000Y-66350000D03*
X137905000Y-66350000D03*
X136635000Y-66350000D03*
X135365000Y-66350000D03*
X134095000Y-66350000D03*
X132825000Y-66350000D03*
X131555000Y-66350000D03*
X130285000Y-66350000D03*
X129015000Y-66350000D03*
X127745000Y-66350000D03*
D20*
X137990000Y-78000000D03*
X139010000Y-78000000D03*
M02*
