M48
; DRILL file {KiCad (6.0.0)} date Thu Apr 14 19:32:54 2022
; FORMAT={-:-/ absolute / inch / decimal}
; #@! TF.CreationDate,2022-04-14T19:32:54-07:00
; #@! TF.GenerationSoftware,Kicad,Pcbnew,(6.0.0)
; #@! TF.FileFunction,Plated,1,4,PTH
FMAT,2
INCH
; #@! TA.AperFunction,Plated,PTH,ViaDrill
T1C0.0157
; #@! TA.AperFunction,Plated,PTH,ComponentDrill
T2C0.0315
; #@! TA.AperFunction,Plated,PTH,ComponentDrill
T3C0.0354
; #@! TA.AperFunction,Plated,PTH,ComponentDrill
T4C0.0520
; #@! TA.AperFunction,Plated,PTH,ComponentDrill
T5C0.0630
; #@! TA.AperFunction,Plated,PTH,ComponentDrill
T6C0.0709
%
G90
G05
T1
X2.2244Y-3.3268
X2.2244Y-3.9173
X2.2244Y-4.5079
X2.2244Y-5.1181
X2.5591Y-2.6378
X2.5591Y-2.6772
X2.5591Y-2.7165
X2.5591Y-2.7559
X2.5591Y-2.7953
X2.5984Y-2.6378
X2.5984Y-2.6772
X2.5984Y-2.7165
X2.5984Y-2.7559
X2.5984Y-2.7953
X2.6378Y-2.6378
X2.6378Y-2.6772
X2.6378Y-2.7165
X2.6378Y-2.7559
X2.6378Y-2.7953
X2.6673Y-5.1772
X2.6772Y-2.6772
X2.6772Y-2.7165
X2.6772Y-2.7559
X2.6772Y-3.3858
X2.6772Y-3.7402
X2.6772Y-3.9764
X2.6772Y-4.3307
X2.6772Y-4.5669
X2.6772Y-4.9213
X2.6772Y-5.5315
X3.1299Y-3.0118
X3.2087Y-3.3465
X3.2087Y-3.9173
X3.2087Y-4.5276
X3.2087Y-5.1181
X3.3465Y-3.0118
X3.6417Y-2.2638
X3.6614Y-3.4646
X3.6614Y-3.7402
X3.6614Y-4.3307
X3.6614Y-4.6457
X3.6614Y-4.9213
X3.6614Y-5.5315
X3.6713Y-4.0354
X3.6713Y-5.2362
X4.124Y-2.7953
X4.1929Y-2.9626
X4.2126Y-3.3268
X4.2126Y-3.9173
X4.2126Y-4.5276
X4.2126Y-5.1181
X4.4291Y-2.7165
X4.4882Y-2.8445
X4.626Y-4.0059
X4.626Y-4.6063
X4.6264Y-3.4256
X4.6654Y-3.3858
X4.6654Y-3.7402
X4.6654Y-4.3307
X4.6654Y-4.9213
X4.6654Y-5.5315
X4.685Y-2.5492
X4.6949Y-3.9567
X4.7146Y-2.5787
X4.7146Y-4.5669
X4.7244Y-2.2736
X4.7441Y-2.6083
X4.7539Y-5.1673
X4.7736Y-2.6378
X4.8031Y-2.6673
X4.8031Y-3.4646
X4.813Y-4.0453
X4.8425Y-2.6969
X4.8425Y-4.6457
X4.8819Y-2.7264
X4.9114Y-2.7559
X4.9114Y-5.2461
X5.0197Y-3.0217
X5.0295Y-5.2067
X5.0689Y-4.6063
X5.0787Y-3.0217
X5.1083Y-4.0059
X5.128Y-3.0217
X5.1575Y-3.3268
X5.1575Y-3.9173
X5.1575Y-4.5079
X5.1575Y-5.1181
X5.1772Y-3.0217
X5.2165Y-3.4252
X5.2264Y-2.5197
X5.2264Y-3.0217
X5.2756Y-3.0217
X5.2756Y-3.1496
X5.2854Y-2.5492
X5.3248Y-3.0217
X5.3293Y-2.5689
X5.374Y-4.4882
X5.3793Y-2.5984
X5.3839Y-3.0217
X5.4134Y-3.9075
X5.4331Y-2.8937
X5.4331Y-3.3071
X5.5315Y-2.6772
X5.5709Y-3.3169
X5.5709Y-3.9075
X5.5709Y-4.4882
X5.5709Y-5.0984
X5.5807Y-2.5591
X5.6102Y-3.7402
X5.6102Y-4.3307
X5.6102Y-4.9213
X5.6102Y-5.5118
X5.6201Y-5.1772
X5.6791Y-2.5591
X5.7283Y-3.0709
X5.7579Y-3.1496
X5.7579Y-5.0984
T2
X2.7559Y-2.2638
X2.7559Y-2.4016
X5.2528Y-2.1161
X5.2528Y-2.4161
X5.3528Y-2.1161
X5.3528Y-2.4161
X5.4528Y-2.1161
X5.4528Y-2.4161
T3
X4.1382Y-2.5803
X4.1882Y-2.4803
X4.2382Y-2.5803
X4.2882Y-2.4803
X4.3382Y-2.5803
X4.3882Y-2.4803
X4.4382Y-2.5803
X4.4882Y-2.4803
T4
X2.3147Y-5.4278
X2.3213Y-3.6478
X2.3213Y-4.2478
X2.3213Y-4.8425
X2.3213Y-5.7283
X2.5147Y-5.4278
X2.5213Y-3.6478
X2.5213Y-4.2478
X2.5213Y-4.8425
X2.5213Y-5.7283
X3.2858Y-5.4331
X3.2894Y-3.6622
X3.2894Y-4.252
X3.2894Y-4.8425
X3.4858Y-5.4331
X3.4894Y-3.6622
X3.4894Y-4.252
X3.4894Y-4.8425
X4.3094Y-3.6614
X4.3094Y-4.252
X4.3094Y-4.8425
X4.3094Y-5.4331
X4.5094Y-3.6614
X4.5094Y-4.252
X4.5094Y-4.8425
X4.5094Y-5.4331
X5.2543Y-3.6614
X5.2543Y-4.252
X5.2543Y-4.8425
X5.2543Y-5.4331
X5.2937Y-5.7283
X5.4543Y-3.6614
X5.4543Y-4.252
X5.4543Y-4.8425
X5.4543Y-5.4331
X5.4937Y-5.7283
T5
X4.0073Y-2.1102
X4.6191Y-2.1102
T6
X2.2047Y-2.45
X2.4409Y-2.2138
T0
M30
