G04 #@! TF.GenerationSoftware,KiCad,Pcbnew,(6.0.0)*
G04 #@! TF.CreationDate,2022-04-14T19:32:56-07:00*
G04 #@! TF.ProjectId,SolenoidController,536f6c65-6e6f-4696-9443-6f6e74726f6c,rev?*
G04 #@! TF.SameCoordinates,Original*
G04 #@! TF.FileFunction,Soldermask,Bot*
G04 #@! TF.FilePolarity,Negative*
%FSLAX46Y46*%
G04 Gerber Fmt 4.6, Leading zero omitted, Abs format (unit mm)*
G04 Created by KiCad (PCBNEW (6.0.0)) date 2022-04-14 19:32:56*
%MOMM*%
%LPD*%
G01*
G04 APERTURE LIST*
G04 Aperture macros list*
%AMRoundRect*
0 Rectangle with rounded corners*
0 $1 Rounding radius*
0 $2 $3 $4 $5 $6 $7 $8 $9 X,Y pos of 4 corners*
0 Add a 4 corners polygon primitive as box body*
4,1,4,$2,$3,$4,$5,$6,$7,$8,$9,$2,$3,0*
0 Add four circle primitives for the rounded corners*
1,1,$1+$1,$2,$3*
1,1,$1+$1,$4,$5*
1,1,$1+$1,$6,$7*
1,1,$1+$1,$8,$9*
0 Add four rect primitives between the rounded corners*
20,1,$1+$1,$2,$3,$4,$5,0*
20,1,$1+$1,$4,$5,$6,$7,0*
20,1,$1+$1,$6,$7,$8,$9,0*
20,1,$1+$1,$8,$9,$2,$3,0*%
G04 Aperture macros list end*
%ADD10C,2.082000*%
%ADD11C,3.702000*%
%ADD12RoundRect,0.051000X0.800000X-0.800000X0.800000X0.800000X-0.800000X0.800000X-0.800000X-0.800000X0*%
%ADD13C,1.702000*%
%ADD14RoundRect,0.051000X-0.800000X0.800000X-0.800000X-0.800000X0.800000X-0.800000X0.800000X0.800000X0*%
%ADD15O,1.702000X1.702000*%
%ADD16C,3.352000*%
%ADD17RoundRect,0.051000X-0.750000X-0.750000X0.750000X-0.750000X0.750000X0.750000X-0.750000X0.750000X0*%
%ADD18C,1.602000*%
%ADD19C,3.102000*%
%ADD20C,3.302000*%
G04 APERTURE END LIST*
D10*
X139540000Y-145500000D03*
X134460000Y-145500000D03*
X58793000Y-137867000D03*
X63873000Y-137867000D03*
X64040000Y-123000000D03*
X58960000Y-123000000D03*
X58960000Y-107895000D03*
X64040000Y-107895000D03*
X64040000Y-92655000D03*
X58960000Y-92655000D03*
X88540000Y-138000000D03*
X83460000Y-138000000D03*
X88630000Y-123000000D03*
X83550000Y-123000000D03*
X83550000Y-108000000D03*
X88630000Y-108000000D03*
X88630000Y-93020000D03*
X83550000Y-93020000D03*
X109460000Y-138000000D03*
X114540000Y-138000000D03*
X114540000Y-123000000D03*
X109460000Y-123000000D03*
X109460000Y-108000000D03*
X114540000Y-108000000D03*
X109460000Y-93000000D03*
X114540000Y-93000000D03*
X133460000Y-138000000D03*
X138540000Y-138000000D03*
X133460000Y-123000000D03*
X138540000Y-123000000D03*
X133460000Y-108000000D03*
X138540000Y-108000000D03*
X58960000Y-145500000D03*
X64040000Y-145500000D03*
X133460000Y-93000000D03*
X138540000Y-93000000D03*
D11*
X56000000Y-62230000D03*
X62000000Y-56230000D03*
D12*
X70000000Y-61000000D03*
D13*
X70000000Y-57500000D03*
D14*
X138500000Y-53750000D03*
D15*
X135960000Y-53750000D03*
X133420000Y-53750000D03*
X133420000Y-61370000D03*
X135960000Y-61370000D03*
X138500000Y-61370000D03*
D16*
X103840000Y-56650000D03*
X115270000Y-56650000D03*
D17*
X114000000Y-63000000D03*
D18*
X112730000Y-65540000D03*
X111460000Y-63000000D03*
X110190000Y-65540000D03*
X108920000Y-63000000D03*
X107650000Y-65540000D03*
X106380000Y-63000000D03*
X105110000Y-65540000D03*
D19*
X117325000Y-53600000D03*
X101785000Y-53600000D03*
D20*
X74000000Y-146000000D03*
X125000000Y-146000000D03*
M02*
