G04 #@! TF.GenerationSoftware,KiCad,Pcbnew,(5.1.5)-3*
G04 #@! TF.CreationDate,2021-01-13T22:22:19-08:00*
G04 #@! TF.ProjectId,MoistureSensor,4d6f6973-7475-4726-9553-656e736f722e,rev?*
G04 #@! TF.SameCoordinates,Original*
G04 #@! TF.FileFunction,Copper,L2,Bot*
G04 #@! TF.FilePolarity,Positive*
%FSLAX46Y46*%
G04 Gerber Fmt 4.6, Leading zero omitted, Abs format (unit mm)*
G04 Created by KiCad (PCBNEW (5.1.5)-3) date 2021-01-13 22:22:19*
%MOMM*%
%LPD*%
G04 APERTURE LIST*
%ADD10R,1.700000X1.700000*%
%ADD11O,1.700000X1.700000*%
%ADD12C,0.600000*%
%ADD13C,0.800000*%
%ADD14C,0.800000*%
%ADD15C,0.254000*%
G04 APERTURE END LIST*
D10*
X138049000Y-61595000D03*
D11*
X140589000Y-61595000D03*
X143129000Y-61595000D03*
D12*
X149860000Y-76200000D03*
X142875000Y-73660000D03*
X142875000Y-71755000D03*
X142875000Y-69850000D03*
X145415000Y-73660000D03*
X137795000Y-76200000D03*
X147955000Y-69215000D03*
D13*
X136715500Y-75057000D03*
X137477500Y-71247000D03*
D14*
X136715500Y-73406000D02*
X136715500Y-75057000D01*
X137477500Y-71247000D02*
X137477500Y-72644000D01*
X137477500Y-72644000D02*
X136715500Y-73406000D01*
D15*
G36*
X150753001Y-76708000D02*
G01*
X130425000Y-76708000D01*
X130425000Y-73406000D01*
X135675494Y-73406000D01*
X135680500Y-73456828D01*
X135680501Y-74955056D01*
X135680500Y-74955061D01*
X135680500Y-75158939D01*
X135690471Y-75209067D01*
X135695477Y-75259895D01*
X135710303Y-75308768D01*
X135720274Y-75358898D01*
X135739835Y-75406122D01*
X135754660Y-75454993D01*
X135778735Y-75500034D01*
X135798295Y-75547256D01*
X135826691Y-75589753D01*
X135850767Y-75634797D01*
X135883168Y-75674278D01*
X135911563Y-75716774D01*
X135947703Y-75752914D01*
X135980105Y-75792396D01*
X136019587Y-75824798D01*
X136055726Y-75860937D01*
X136098221Y-75889331D01*
X136137704Y-75921734D01*
X136182750Y-75945812D01*
X136225244Y-75974205D01*
X136272462Y-75993763D01*
X136317508Y-76017841D01*
X136366384Y-76032668D01*
X136413602Y-76052226D01*
X136463726Y-76062196D01*
X136512606Y-76077024D01*
X136563442Y-76082031D01*
X136613561Y-76092000D01*
X136664662Y-76092000D01*
X136715500Y-76097007D01*
X136766338Y-76092000D01*
X136817439Y-76092000D01*
X136867557Y-76082031D01*
X136918395Y-76077024D01*
X136967277Y-76062196D01*
X137017398Y-76052226D01*
X137064613Y-76032669D01*
X137113493Y-76017841D01*
X137158542Y-75993762D01*
X137205756Y-75974205D01*
X137248246Y-75945814D01*
X137293297Y-75921734D01*
X137332784Y-75889328D01*
X137375274Y-75860937D01*
X137411408Y-75824803D01*
X137450896Y-75792396D01*
X137483303Y-75752908D01*
X137519437Y-75716774D01*
X137547828Y-75674284D01*
X137580234Y-75634797D01*
X137604314Y-75589746D01*
X137632705Y-75547256D01*
X137652262Y-75500042D01*
X137676341Y-75454993D01*
X137691169Y-75406113D01*
X137710726Y-75358898D01*
X137720696Y-75308777D01*
X137735524Y-75259895D01*
X137740531Y-75209057D01*
X137750500Y-75158939D01*
X137750500Y-73834710D01*
X138173408Y-73411803D01*
X138212896Y-73379396D01*
X138245303Y-73339908D01*
X138342234Y-73221798D01*
X138438340Y-73041994D01*
X138438341Y-73041993D01*
X138497524Y-72846895D01*
X138512500Y-72694838D01*
X138512500Y-72694835D01*
X138517507Y-72644000D01*
X138512500Y-72593165D01*
X138512500Y-71145061D01*
X138502531Y-71094943D01*
X138497524Y-71044105D01*
X138482696Y-70995223D01*
X138472726Y-70945102D01*
X138453169Y-70897887D01*
X138438341Y-70849007D01*
X138414262Y-70803958D01*
X138394705Y-70756744D01*
X138366314Y-70714254D01*
X138342234Y-70669203D01*
X138309828Y-70629716D01*
X138281437Y-70587226D01*
X138245303Y-70551092D01*
X138212896Y-70511604D01*
X138173408Y-70479197D01*
X138137274Y-70443063D01*
X138094784Y-70414672D01*
X138055297Y-70382266D01*
X138010247Y-70358186D01*
X137967756Y-70329795D01*
X137920539Y-70310237D01*
X137875492Y-70286159D01*
X137826616Y-70271332D01*
X137779398Y-70251774D01*
X137729274Y-70241804D01*
X137680394Y-70226976D01*
X137629558Y-70221969D01*
X137579439Y-70212000D01*
X137528338Y-70212000D01*
X137477500Y-70206993D01*
X137426662Y-70212000D01*
X137375561Y-70212000D01*
X137325443Y-70221969D01*
X137274605Y-70226976D01*
X137225723Y-70241804D01*
X137175602Y-70251774D01*
X137128387Y-70271331D01*
X137079507Y-70286159D01*
X137034458Y-70310238D01*
X136987244Y-70329795D01*
X136944754Y-70358186D01*
X136899703Y-70382266D01*
X136860216Y-70414672D01*
X136817726Y-70443063D01*
X136781592Y-70479197D01*
X136742104Y-70511604D01*
X136709697Y-70551092D01*
X136673563Y-70587226D01*
X136645172Y-70629716D01*
X136612766Y-70669203D01*
X136588686Y-70714253D01*
X136560295Y-70756744D01*
X136540737Y-70803961D01*
X136516659Y-70849008D01*
X136501832Y-70897884D01*
X136482274Y-70945102D01*
X136472304Y-70995226D01*
X136457476Y-71044106D01*
X136452469Y-71094942D01*
X136442500Y-71145061D01*
X136442500Y-71196163D01*
X136442501Y-72215289D01*
X136019597Y-72638193D01*
X135980104Y-72670604D01*
X135850766Y-72828203D01*
X135754659Y-73008008D01*
X135695476Y-73203106D01*
X135680500Y-73355163D01*
X135680500Y-73355172D01*
X135675494Y-73406000D01*
X130425000Y-73406000D01*
X130425000Y-60745000D01*
X136560928Y-60745000D01*
X136560928Y-62445000D01*
X136573188Y-62569482D01*
X136609498Y-62689180D01*
X136668463Y-62799494D01*
X136747815Y-62896185D01*
X136844506Y-62975537D01*
X136954820Y-63034502D01*
X137074518Y-63070812D01*
X137199000Y-63083072D01*
X138899000Y-63083072D01*
X139023482Y-63070812D01*
X139143180Y-63034502D01*
X139253494Y-62975537D01*
X139350185Y-62896185D01*
X139429537Y-62799494D01*
X139488502Y-62689180D01*
X139512966Y-62608534D01*
X139588731Y-62692588D01*
X139822080Y-62866641D01*
X140084901Y-62991825D01*
X140232110Y-63036476D01*
X140462000Y-62915155D01*
X140462000Y-61722000D01*
X140442000Y-61722000D01*
X140442000Y-61468000D01*
X140462000Y-61468000D01*
X140462000Y-60274845D01*
X140716000Y-60274845D01*
X140716000Y-61468000D01*
X140736000Y-61468000D01*
X140736000Y-61722000D01*
X140716000Y-61722000D01*
X140716000Y-62915155D01*
X140945890Y-63036476D01*
X141093099Y-62991825D01*
X141355920Y-62866641D01*
X141589269Y-62692588D01*
X141784178Y-62476355D01*
X141853805Y-62359466D01*
X141975525Y-62541632D01*
X142182368Y-62748475D01*
X142425589Y-62910990D01*
X142695842Y-63022932D01*
X142982740Y-63080000D01*
X143275260Y-63080000D01*
X143562158Y-63022932D01*
X143832411Y-62910990D01*
X144075632Y-62748475D01*
X144282475Y-62541632D01*
X144444990Y-62298411D01*
X144556932Y-62028158D01*
X144614000Y-61741260D01*
X144614000Y-61448740D01*
X144556932Y-61161842D01*
X144444990Y-60891589D01*
X144282475Y-60648368D01*
X144075632Y-60441525D01*
X143832411Y-60279010D01*
X143562158Y-60167068D01*
X143275260Y-60110000D01*
X142982740Y-60110000D01*
X142695842Y-60167068D01*
X142425589Y-60279010D01*
X142182368Y-60441525D01*
X141975525Y-60648368D01*
X141853805Y-60830534D01*
X141784178Y-60713645D01*
X141589269Y-60497412D01*
X141355920Y-60323359D01*
X141093099Y-60198175D01*
X140945890Y-60153524D01*
X140716000Y-60274845D01*
X140462000Y-60274845D01*
X140232110Y-60153524D01*
X140084901Y-60198175D01*
X139822080Y-60323359D01*
X139588731Y-60497412D01*
X139512966Y-60581466D01*
X139488502Y-60500820D01*
X139429537Y-60390506D01*
X139350185Y-60293815D01*
X139253494Y-60214463D01*
X139143180Y-60155498D01*
X139023482Y-60119188D01*
X138899000Y-60106928D01*
X137199000Y-60106928D01*
X137074518Y-60119188D01*
X136954820Y-60155498D01*
X136844506Y-60214463D01*
X136747815Y-60293815D01*
X136668463Y-60390506D01*
X136609498Y-60500820D01*
X136573188Y-60620518D01*
X136560928Y-60745000D01*
X130425000Y-60745000D01*
X130425000Y-55876000D01*
X150753001Y-55876000D01*
X150753001Y-76708000D01*
G37*
X150753001Y-76708000D02*
X130425000Y-76708000D01*
X130425000Y-73406000D01*
X135675494Y-73406000D01*
X135680500Y-73456828D01*
X135680501Y-74955056D01*
X135680500Y-74955061D01*
X135680500Y-75158939D01*
X135690471Y-75209067D01*
X135695477Y-75259895D01*
X135710303Y-75308768D01*
X135720274Y-75358898D01*
X135739835Y-75406122D01*
X135754660Y-75454993D01*
X135778735Y-75500034D01*
X135798295Y-75547256D01*
X135826691Y-75589753D01*
X135850767Y-75634797D01*
X135883168Y-75674278D01*
X135911563Y-75716774D01*
X135947703Y-75752914D01*
X135980105Y-75792396D01*
X136019587Y-75824798D01*
X136055726Y-75860937D01*
X136098221Y-75889331D01*
X136137704Y-75921734D01*
X136182750Y-75945812D01*
X136225244Y-75974205D01*
X136272462Y-75993763D01*
X136317508Y-76017841D01*
X136366384Y-76032668D01*
X136413602Y-76052226D01*
X136463726Y-76062196D01*
X136512606Y-76077024D01*
X136563442Y-76082031D01*
X136613561Y-76092000D01*
X136664662Y-76092000D01*
X136715500Y-76097007D01*
X136766338Y-76092000D01*
X136817439Y-76092000D01*
X136867557Y-76082031D01*
X136918395Y-76077024D01*
X136967277Y-76062196D01*
X137017398Y-76052226D01*
X137064613Y-76032669D01*
X137113493Y-76017841D01*
X137158542Y-75993762D01*
X137205756Y-75974205D01*
X137248246Y-75945814D01*
X137293297Y-75921734D01*
X137332784Y-75889328D01*
X137375274Y-75860937D01*
X137411408Y-75824803D01*
X137450896Y-75792396D01*
X137483303Y-75752908D01*
X137519437Y-75716774D01*
X137547828Y-75674284D01*
X137580234Y-75634797D01*
X137604314Y-75589746D01*
X137632705Y-75547256D01*
X137652262Y-75500042D01*
X137676341Y-75454993D01*
X137691169Y-75406113D01*
X137710726Y-75358898D01*
X137720696Y-75308777D01*
X137735524Y-75259895D01*
X137740531Y-75209057D01*
X137750500Y-75158939D01*
X137750500Y-73834710D01*
X138173408Y-73411803D01*
X138212896Y-73379396D01*
X138245303Y-73339908D01*
X138342234Y-73221798D01*
X138438340Y-73041994D01*
X138438341Y-73041993D01*
X138497524Y-72846895D01*
X138512500Y-72694838D01*
X138512500Y-72694835D01*
X138517507Y-72644000D01*
X138512500Y-72593165D01*
X138512500Y-71145061D01*
X138502531Y-71094943D01*
X138497524Y-71044105D01*
X138482696Y-70995223D01*
X138472726Y-70945102D01*
X138453169Y-70897887D01*
X138438341Y-70849007D01*
X138414262Y-70803958D01*
X138394705Y-70756744D01*
X138366314Y-70714254D01*
X138342234Y-70669203D01*
X138309828Y-70629716D01*
X138281437Y-70587226D01*
X138245303Y-70551092D01*
X138212896Y-70511604D01*
X138173408Y-70479197D01*
X138137274Y-70443063D01*
X138094784Y-70414672D01*
X138055297Y-70382266D01*
X138010247Y-70358186D01*
X137967756Y-70329795D01*
X137920539Y-70310237D01*
X137875492Y-70286159D01*
X137826616Y-70271332D01*
X137779398Y-70251774D01*
X137729274Y-70241804D01*
X137680394Y-70226976D01*
X137629558Y-70221969D01*
X137579439Y-70212000D01*
X137528338Y-70212000D01*
X137477500Y-70206993D01*
X137426662Y-70212000D01*
X137375561Y-70212000D01*
X137325443Y-70221969D01*
X137274605Y-70226976D01*
X137225723Y-70241804D01*
X137175602Y-70251774D01*
X137128387Y-70271331D01*
X137079507Y-70286159D01*
X137034458Y-70310238D01*
X136987244Y-70329795D01*
X136944754Y-70358186D01*
X136899703Y-70382266D01*
X136860216Y-70414672D01*
X136817726Y-70443063D01*
X136781592Y-70479197D01*
X136742104Y-70511604D01*
X136709697Y-70551092D01*
X136673563Y-70587226D01*
X136645172Y-70629716D01*
X136612766Y-70669203D01*
X136588686Y-70714253D01*
X136560295Y-70756744D01*
X136540737Y-70803961D01*
X136516659Y-70849008D01*
X136501832Y-70897884D01*
X136482274Y-70945102D01*
X136472304Y-70995226D01*
X136457476Y-71044106D01*
X136452469Y-71094942D01*
X136442500Y-71145061D01*
X136442500Y-71196163D01*
X136442501Y-72215289D01*
X136019597Y-72638193D01*
X135980104Y-72670604D01*
X135850766Y-72828203D01*
X135754659Y-73008008D01*
X135695476Y-73203106D01*
X135680500Y-73355163D01*
X135680500Y-73355172D01*
X135675494Y-73406000D01*
X130425000Y-73406000D01*
X130425000Y-60745000D01*
X136560928Y-60745000D01*
X136560928Y-62445000D01*
X136573188Y-62569482D01*
X136609498Y-62689180D01*
X136668463Y-62799494D01*
X136747815Y-62896185D01*
X136844506Y-62975537D01*
X136954820Y-63034502D01*
X137074518Y-63070812D01*
X137199000Y-63083072D01*
X138899000Y-63083072D01*
X139023482Y-63070812D01*
X139143180Y-63034502D01*
X139253494Y-62975537D01*
X139350185Y-62896185D01*
X139429537Y-62799494D01*
X139488502Y-62689180D01*
X139512966Y-62608534D01*
X139588731Y-62692588D01*
X139822080Y-62866641D01*
X140084901Y-62991825D01*
X140232110Y-63036476D01*
X140462000Y-62915155D01*
X140462000Y-61722000D01*
X140442000Y-61722000D01*
X140442000Y-61468000D01*
X140462000Y-61468000D01*
X140462000Y-60274845D01*
X140716000Y-60274845D01*
X140716000Y-61468000D01*
X140736000Y-61468000D01*
X140736000Y-61722000D01*
X140716000Y-61722000D01*
X140716000Y-62915155D01*
X140945890Y-63036476D01*
X141093099Y-62991825D01*
X141355920Y-62866641D01*
X141589269Y-62692588D01*
X141784178Y-62476355D01*
X141853805Y-62359466D01*
X141975525Y-62541632D01*
X142182368Y-62748475D01*
X142425589Y-62910990D01*
X142695842Y-63022932D01*
X142982740Y-63080000D01*
X143275260Y-63080000D01*
X143562158Y-63022932D01*
X143832411Y-62910990D01*
X144075632Y-62748475D01*
X144282475Y-62541632D01*
X144444990Y-62298411D01*
X144556932Y-62028158D01*
X144614000Y-61741260D01*
X144614000Y-61448740D01*
X144556932Y-61161842D01*
X144444990Y-60891589D01*
X144282475Y-60648368D01*
X144075632Y-60441525D01*
X143832411Y-60279010D01*
X143562158Y-60167068D01*
X143275260Y-60110000D01*
X142982740Y-60110000D01*
X142695842Y-60167068D01*
X142425589Y-60279010D01*
X142182368Y-60441525D01*
X141975525Y-60648368D01*
X141853805Y-60830534D01*
X141784178Y-60713645D01*
X141589269Y-60497412D01*
X141355920Y-60323359D01*
X141093099Y-60198175D01*
X140945890Y-60153524D01*
X140716000Y-60274845D01*
X140462000Y-60274845D01*
X140232110Y-60153524D01*
X140084901Y-60198175D01*
X139822080Y-60323359D01*
X139588731Y-60497412D01*
X139512966Y-60581466D01*
X139488502Y-60500820D01*
X139429537Y-60390506D01*
X139350185Y-60293815D01*
X139253494Y-60214463D01*
X139143180Y-60155498D01*
X139023482Y-60119188D01*
X138899000Y-60106928D01*
X137199000Y-60106928D01*
X137074518Y-60119188D01*
X136954820Y-60155498D01*
X136844506Y-60214463D01*
X136747815Y-60293815D01*
X136668463Y-60390506D01*
X136609498Y-60500820D01*
X136573188Y-60620518D01*
X136560928Y-60745000D01*
X130425000Y-60745000D01*
X130425000Y-55876000D01*
X150753001Y-55876000D01*
X150753001Y-76708000D01*
M02*
