G04 #@! TF.GenerationSoftware,KiCad,Pcbnew,(5.1.5)-3*
G04 #@! TF.CreationDate,2021-01-13T22:22:19-08:00*
G04 #@! TF.ProjectId,MoistureSensor,4d6f6973-7475-4726-9553-656e736f722e,rev?*
G04 #@! TF.SameCoordinates,Original*
G04 #@! TF.FileFunction,Copper,L1,Top*
G04 #@! TF.FilePolarity,Positive*
%FSLAX46Y46*%
G04 Gerber Fmt 4.6, Leading zero omitted, Abs format (unit mm)*
G04 Created by KiCad (PCBNEW (5.1.5)-3) date 2021-01-13 22:22:19*
%MOMM*%
%LPD*%
G04 APERTURE LIST*
%ADD10R,0.482600X1.397000*%
%ADD11R,0.558800X1.397000*%
%ADD12R,2.000000X1.000000*%
%ADD13C,0.100000*%
%ADD14R,0.500000X0.500000*%
%ADD15R,1.700000X1.700000*%
%ADD16O,1.700000X1.700000*%
%ADD17C,0.600000*%
%ADD18C,0.800000*%
%ADD19C,4.000000*%
%ADD20C,0.800000*%
%ADD21C,0.600000*%
%ADD22C,7.000000*%
%ADD23C,0.254000*%
G04 APERTURE END LIST*
D10*
X134137400Y-68846700D03*
D11*
X135636000Y-68846700D03*
D10*
X137134600Y-68846700D03*
D12*
X135636000Y-64262000D03*
G04 #@! TA.AperFunction,SMDPad,CuDef*
D13*
G36*
X135461203Y-74757722D02*
G01*
X135475764Y-74759882D01*
X135490043Y-74763459D01*
X135503903Y-74768418D01*
X135517210Y-74774712D01*
X135529836Y-74782280D01*
X135541659Y-74791048D01*
X135552566Y-74800934D01*
X135562452Y-74811841D01*
X135571220Y-74823664D01*
X135578788Y-74836290D01*
X135585082Y-74849597D01*
X135590041Y-74863457D01*
X135593618Y-74877736D01*
X135595778Y-74892297D01*
X135596500Y-74907000D01*
X135596500Y-75207000D01*
X135595778Y-75221703D01*
X135593618Y-75236264D01*
X135590041Y-75250543D01*
X135585082Y-75264403D01*
X135578788Y-75277710D01*
X135571220Y-75290336D01*
X135562452Y-75302159D01*
X135552566Y-75313066D01*
X135541659Y-75322952D01*
X135529836Y-75331720D01*
X135517210Y-75339288D01*
X135503903Y-75345582D01*
X135490043Y-75350541D01*
X135475764Y-75354118D01*
X135461203Y-75356278D01*
X135446500Y-75357000D01*
X133796500Y-75357000D01*
X133781797Y-75356278D01*
X133767236Y-75354118D01*
X133752957Y-75350541D01*
X133739097Y-75345582D01*
X133725790Y-75339288D01*
X133713164Y-75331720D01*
X133701341Y-75322952D01*
X133690434Y-75313066D01*
X133680548Y-75302159D01*
X133671780Y-75290336D01*
X133664212Y-75277710D01*
X133657918Y-75264403D01*
X133652959Y-75250543D01*
X133649382Y-75236264D01*
X133647222Y-75221703D01*
X133646500Y-75207000D01*
X133646500Y-74907000D01*
X133647222Y-74892297D01*
X133649382Y-74877736D01*
X133652959Y-74863457D01*
X133657918Y-74849597D01*
X133664212Y-74836290D01*
X133671780Y-74823664D01*
X133680548Y-74811841D01*
X133690434Y-74800934D01*
X133701341Y-74791048D01*
X133713164Y-74782280D01*
X133725790Y-74774712D01*
X133739097Y-74768418D01*
X133752957Y-74763459D01*
X133767236Y-74759882D01*
X133781797Y-74757722D01*
X133796500Y-74757000D01*
X135446500Y-74757000D01*
X135461203Y-74757722D01*
G37*
G04 #@! TD.AperFunction*
G04 #@! TA.AperFunction,SMDPad,CuDef*
G36*
X135461203Y-73487722D02*
G01*
X135475764Y-73489882D01*
X135490043Y-73493459D01*
X135503903Y-73498418D01*
X135517210Y-73504712D01*
X135529836Y-73512280D01*
X135541659Y-73521048D01*
X135552566Y-73530934D01*
X135562452Y-73541841D01*
X135571220Y-73553664D01*
X135578788Y-73566290D01*
X135585082Y-73579597D01*
X135590041Y-73593457D01*
X135593618Y-73607736D01*
X135595778Y-73622297D01*
X135596500Y-73637000D01*
X135596500Y-73937000D01*
X135595778Y-73951703D01*
X135593618Y-73966264D01*
X135590041Y-73980543D01*
X135585082Y-73994403D01*
X135578788Y-74007710D01*
X135571220Y-74020336D01*
X135562452Y-74032159D01*
X135552566Y-74043066D01*
X135541659Y-74052952D01*
X135529836Y-74061720D01*
X135517210Y-74069288D01*
X135503903Y-74075582D01*
X135490043Y-74080541D01*
X135475764Y-74084118D01*
X135461203Y-74086278D01*
X135446500Y-74087000D01*
X133796500Y-74087000D01*
X133781797Y-74086278D01*
X133767236Y-74084118D01*
X133752957Y-74080541D01*
X133739097Y-74075582D01*
X133725790Y-74069288D01*
X133713164Y-74061720D01*
X133701341Y-74052952D01*
X133690434Y-74043066D01*
X133680548Y-74032159D01*
X133671780Y-74020336D01*
X133664212Y-74007710D01*
X133657918Y-73994403D01*
X133652959Y-73980543D01*
X133649382Y-73966264D01*
X133647222Y-73951703D01*
X133646500Y-73937000D01*
X133646500Y-73637000D01*
X133647222Y-73622297D01*
X133649382Y-73607736D01*
X133652959Y-73593457D01*
X133657918Y-73579597D01*
X133664212Y-73566290D01*
X133671780Y-73553664D01*
X133680548Y-73541841D01*
X133690434Y-73530934D01*
X133701341Y-73521048D01*
X133713164Y-73512280D01*
X133725790Y-73504712D01*
X133739097Y-73498418D01*
X133752957Y-73493459D01*
X133767236Y-73489882D01*
X133781797Y-73487722D01*
X133796500Y-73487000D01*
X135446500Y-73487000D01*
X135461203Y-73487722D01*
G37*
G04 #@! TD.AperFunction*
G04 #@! TA.AperFunction,SMDPad,CuDef*
G36*
X135461203Y-72217722D02*
G01*
X135475764Y-72219882D01*
X135490043Y-72223459D01*
X135503903Y-72228418D01*
X135517210Y-72234712D01*
X135529836Y-72242280D01*
X135541659Y-72251048D01*
X135552566Y-72260934D01*
X135562452Y-72271841D01*
X135571220Y-72283664D01*
X135578788Y-72296290D01*
X135585082Y-72309597D01*
X135590041Y-72323457D01*
X135593618Y-72337736D01*
X135595778Y-72352297D01*
X135596500Y-72367000D01*
X135596500Y-72667000D01*
X135595778Y-72681703D01*
X135593618Y-72696264D01*
X135590041Y-72710543D01*
X135585082Y-72724403D01*
X135578788Y-72737710D01*
X135571220Y-72750336D01*
X135562452Y-72762159D01*
X135552566Y-72773066D01*
X135541659Y-72782952D01*
X135529836Y-72791720D01*
X135517210Y-72799288D01*
X135503903Y-72805582D01*
X135490043Y-72810541D01*
X135475764Y-72814118D01*
X135461203Y-72816278D01*
X135446500Y-72817000D01*
X133796500Y-72817000D01*
X133781797Y-72816278D01*
X133767236Y-72814118D01*
X133752957Y-72810541D01*
X133739097Y-72805582D01*
X133725790Y-72799288D01*
X133713164Y-72791720D01*
X133701341Y-72782952D01*
X133690434Y-72773066D01*
X133680548Y-72762159D01*
X133671780Y-72750336D01*
X133664212Y-72737710D01*
X133657918Y-72724403D01*
X133652959Y-72710543D01*
X133649382Y-72696264D01*
X133647222Y-72681703D01*
X133646500Y-72667000D01*
X133646500Y-72367000D01*
X133647222Y-72352297D01*
X133649382Y-72337736D01*
X133652959Y-72323457D01*
X133657918Y-72309597D01*
X133664212Y-72296290D01*
X133671780Y-72283664D01*
X133680548Y-72271841D01*
X133690434Y-72260934D01*
X133701341Y-72251048D01*
X133713164Y-72242280D01*
X133725790Y-72234712D01*
X133739097Y-72228418D01*
X133752957Y-72223459D01*
X133767236Y-72219882D01*
X133781797Y-72217722D01*
X133796500Y-72217000D01*
X135446500Y-72217000D01*
X135461203Y-72217722D01*
G37*
G04 #@! TD.AperFunction*
G04 #@! TA.AperFunction,SMDPad,CuDef*
G36*
X135461203Y-70947722D02*
G01*
X135475764Y-70949882D01*
X135490043Y-70953459D01*
X135503903Y-70958418D01*
X135517210Y-70964712D01*
X135529836Y-70972280D01*
X135541659Y-70981048D01*
X135552566Y-70990934D01*
X135562452Y-71001841D01*
X135571220Y-71013664D01*
X135578788Y-71026290D01*
X135585082Y-71039597D01*
X135590041Y-71053457D01*
X135593618Y-71067736D01*
X135595778Y-71082297D01*
X135596500Y-71097000D01*
X135596500Y-71397000D01*
X135595778Y-71411703D01*
X135593618Y-71426264D01*
X135590041Y-71440543D01*
X135585082Y-71454403D01*
X135578788Y-71467710D01*
X135571220Y-71480336D01*
X135562452Y-71492159D01*
X135552566Y-71503066D01*
X135541659Y-71512952D01*
X135529836Y-71521720D01*
X135517210Y-71529288D01*
X135503903Y-71535582D01*
X135490043Y-71540541D01*
X135475764Y-71544118D01*
X135461203Y-71546278D01*
X135446500Y-71547000D01*
X133796500Y-71547000D01*
X133781797Y-71546278D01*
X133767236Y-71544118D01*
X133752957Y-71540541D01*
X133739097Y-71535582D01*
X133725790Y-71529288D01*
X133713164Y-71521720D01*
X133701341Y-71512952D01*
X133690434Y-71503066D01*
X133680548Y-71492159D01*
X133671780Y-71480336D01*
X133664212Y-71467710D01*
X133657918Y-71454403D01*
X133652959Y-71440543D01*
X133649382Y-71426264D01*
X133647222Y-71411703D01*
X133646500Y-71397000D01*
X133646500Y-71097000D01*
X133647222Y-71082297D01*
X133649382Y-71067736D01*
X133652959Y-71053457D01*
X133657918Y-71039597D01*
X133664212Y-71026290D01*
X133671780Y-71013664D01*
X133680548Y-71001841D01*
X133690434Y-70990934D01*
X133701341Y-70981048D01*
X133713164Y-70972280D01*
X133725790Y-70964712D01*
X133739097Y-70958418D01*
X133752957Y-70953459D01*
X133767236Y-70949882D01*
X133781797Y-70947722D01*
X133796500Y-70947000D01*
X135446500Y-70947000D01*
X135461203Y-70947722D01*
G37*
G04 #@! TD.AperFunction*
G04 #@! TA.AperFunction,SMDPad,CuDef*
G36*
X140411203Y-70947722D02*
G01*
X140425764Y-70949882D01*
X140440043Y-70953459D01*
X140453903Y-70958418D01*
X140467210Y-70964712D01*
X140479836Y-70972280D01*
X140491659Y-70981048D01*
X140502566Y-70990934D01*
X140512452Y-71001841D01*
X140521220Y-71013664D01*
X140528788Y-71026290D01*
X140535082Y-71039597D01*
X140540041Y-71053457D01*
X140543618Y-71067736D01*
X140545778Y-71082297D01*
X140546500Y-71097000D01*
X140546500Y-71397000D01*
X140545778Y-71411703D01*
X140543618Y-71426264D01*
X140540041Y-71440543D01*
X140535082Y-71454403D01*
X140528788Y-71467710D01*
X140521220Y-71480336D01*
X140512452Y-71492159D01*
X140502566Y-71503066D01*
X140491659Y-71512952D01*
X140479836Y-71521720D01*
X140467210Y-71529288D01*
X140453903Y-71535582D01*
X140440043Y-71540541D01*
X140425764Y-71544118D01*
X140411203Y-71546278D01*
X140396500Y-71547000D01*
X138746500Y-71547000D01*
X138731797Y-71546278D01*
X138717236Y-71544118D01*
X138702957Y-71540541D01*
X138689097Y-71535582D01*
X138675790Y-71529288D01*
X138663164Y-71521720D01*
X138651341Y-71512952D01*
X138640434Y-71503066D01*
X138630548Y-71492159D01*
X138621780Y-71480336D01*
X138614212Y-71467710D01*
X138607918Y-71454403D01*
X138602959Y-71440543D01*
X138599382Y-71426264D01*
X138597222Y-71411703D01*
X138596500Y-71397000D01*
X138596500Y-71097000D01*
X138597222Y-71082297D01*
X138599382Y-71067736D01*
X138602959Y-71053457D01*
X138607918Y-71039597D01*
X138614212Y-71026290D01*
X138621780Y-71013664D01*
X138630548Y-71001841D01*
X138640434Y-70990934D01*
X138651341Y-70981048D01*
X138663164Y-70972280D01*
X138675790Y-70964712D01*
X138689097Y-70958418D01*
X138702957Y-70953459D01*
X138717236Y-70949882D01*
X138731797Y-70947722D01*
X138746500Y-70947000D01*
X140396500Y-70947000D01*
X140411203Y-70947722D01*
G37*
G04 #@! TD.AperFunction*
G04 #@! TA.AperFunction,SMDPad,CuDef*
G36*
X140411203Y-72217722D02*
G01*
X140425764Y-72219882D01*
X140440043Y-72223459D01*
X140453903Y-72228418D01*
X140467210Y-72234712D01*
X140479836Y-72242280D01*
X140491659Y-72251048D01*
X140502566Y-72260934D01*
X140512452Y-72271841D01*
X140521220Y-72283664D01*
X140528788Y-72296290D01*
X140535082Y-72309597D01*
X140540041Y-72323457D01*
X140543618Y-72337736D01*
X140545778Y-72352297D01*
X140546500Y-72367000D01*
X140546500Y-72667000D01*
X140545778Y-72681703D01*
X140543618Y-72696264D01*
X140540041Y-72710543D01*
X140535082Y-72724403D01*
X140528788Y-72737710D01*
X140521220Y-72750336D01*
X140512452Y-72762159D01*
X140502566Y-72773066D01*
X140491659Y-72782952D01*
X140479836Y-72791720D01*
X140467210Y-72799288D01*
X140453903Y-72805582D01*
X140440043Y-72810541D01*
X140425764Y-72814118D01*
X140411203Y-72816278D01*
X140396500Y-72817000D01*
X138746500Y-72817000D01*
X138731797Y-72816278D01*
X138717236Y-72814118D01*
X138702957Y-72810541D01*
X138689097Y-72805582D01*
X138675790Y-72799288D01*
X138663164Y-72791720D01*
X138651341Y-72782952D01*
X138640434Y-72773066D01*
X138630548Y-72762159D01*
X138621780Y-72750336D01*
X138614212Y-72737710D01*
X138607918Y-72724403D01*
X138602959Y-72710543D01*
X138599382Y-72696264D01*
X138597222Y-72681703D01*
X138596500Y-72667000D01*
X138596500Y-72367000D01*
X138597222Y-72352297D01*
X138599382Y-72337736D01*
X138602959Y-72323457D01*
X138607918Y-72309597D01*
X138614212Y-72296290D01*
X138621780Y-72283664D01*
X138630548Y-72271841D01*
X138640434Y-72260934D01*
X138651341Y-72251048D01*
X138663164Y-72242280D01*
X138675790Y-72234712D01*
X138689097Y-72228418D01*
X138702957Y-72223459D01*
X138717236Y-72219882D01*
X138731797Y-72217722D01*
X138746500Y-72217000D01*
X140396500Y-72217000D01*
X140411203Y-72217722D01*
G37*
G04 #@! TD.AperFunction*
G04 #@! TA.AperFunction,SMDPad,CuDef*
G36*
X140411203Y-73487722D02*
G01*
X140425764Y-73489882D01*
X140440043Y-73493459D01*
X140453903Y-73498418D01*
X140467210Y-73504712D01*
X140479836Y-73512280D01*
X140491659Y-73521048D01*
X140502566Y-73530934D01*
X140512452Y-73541841D01*
X140521220Y-73553664D01*
X140528788Y-73566290D01*
X140535082Y-73579597D01*
X140540041Y-73593457D01*
X140543618Y-73607736D01*
X140545778Y-73622297D01*
X140546500Y-73637000D01*
X140546500Y-73937000D01*
X140545778Y-73951703D01*
X140543618Y-73966264D01*
X140540041Y-73980543D01*
X140535082Y-73994403D01*
X140528788Y-74007710D01*
X140521220Y-74020336D01*
X140512452Y-74032159D01*
X140502566Y-74043066D01*
X140491659Y-74052952D01*
X140479836Y-74061720D01*
X140467210Y-74069288D01*
X140453903Y-74075582D01*
X140440043Y-74080541D01*
X140425764Y-74084118D01*
X140411203Y-74086278D01*
X140396500Y-74087000D01*
X138746500Y-74087000D01*
X138731797Y-74086278D01*
X138717236Y-74084118D01*
X138702957Y-74080541D01*
X138689097Y-74075582D01*
X138675790Y-74069288D01*
X138663164Y-74061720D01*
X138651341Y-74052952D01*
X138640434Y-74043066D01*
X138630548Y-74032159D01*
X138621780Y-74020336D01*
X138614212Y-74007710D01*
X138607918Y-73994403D01*
X138602959Y-73980543D01*
X138599382Y-73966264D01*
X138597222Y-73951703D01*
X138596500Y-73937000D01*
X138596500Y-73637000D01*
X138597222Y-73622297D01*
X138599382Y-73607736D01*
X138602959Y-73593457D01*
X138607918Y-73579597D01*
X138614212Y-73566290D01*
X138621780Y-73553664D01*
X138630548Y-73541841D01*
X138640434Y-73530934D01*
X138651341Y-73521048D01*
X138663164Y-73512280D01*
X138675790Y-73504712D01*
X138689097Y-73498418D01*
X138702957Y-73493459D01*
X138717236Y-73489882D01*
X138731797Y-73487722D01*
X138746500Y-73487000D01*
X140396500Y-73487000D01*
X140411203Y-73487722D01*
G37*
G04 #@! TD.AperFunction*
G04 #@! TA.AperFunction,SMDPad,CuDef*
G36*
X140411203Y-74757722D02*
G01*
X140425764Y-74759882D01*
X140440043Y-74763459D01*
X140453903Y-74768418D01*
X140467210Y-74774712D01*
X140479836Y-74782280D01*
X140491659Y-74791048D01*
X140502566Y-74800934D01*
X140512452Y-74811841D01*
X140521220Y-74823664D01*
X140528788Y-74836290D01*
X140535082Y-74849597D01*
X140540041Y-74863457D01*
X140543618Y-74877736D01*
X140545778Y-74892297D01*
X140546500Y-74907000D01*
X140546500Y-75207000D01*
X140545778Y-75221703D01*
X140543618Y-75236264D01*
X140540041Y-75250543D01*
X140535082Y-75264403D01*
X140528788Y-75277710D01*
X140521220Y-75290336D01*
X140512452Y-75302159D01*
X140502566Y-75313066D01*
X140491659Y-75322952D01*
X140479836Y-75331720D01*
X140467210Y-75339288D01*
X140453903Y-75345582D01*
X140440043Y-75350541D01*
X140425764Y-75354118D01*
X140411203Y-75356278D01*
X140396500Y-75357000D01*
X138746500Y-75357000D01*
X138731797Y-75356278D01*
X138717236Y-75354118D01*
X138702957Y-75350541D01*
X138689097Y-75345582D01*
X138675790Y-75339288D01*
X138663164Y-75331720D01*
X138651341Y-75322952D01*
X138640434Y-75313066D01*
X138630548Y-75302159D01*
X138621780Y-75290336D01*
X138614212Y-75277710D01*
X138607918Y-75264403D01*
X138602959Y-75250543D01*
X138599382Y-75236264D01*
X138597222Y-75221703D01*
X138596500Y-75207000D01*
X138596500Y-74907000D01*
X138597222Y-74892297D01*
X138599382Y-74877736D01*
X138602959Y-74863457D01*
X138607918Y-74849597D01*
X138614212Y-74836290D01*
X138621780Y-74823664D01*
X138630548Y-74811841D01*
X138640434Y-74800934D01*
X138651341Y-74791048D01*
X138663164Y-74782280D01*
X138675790Y-74774712D01*
X138689097Y-74768418D01*
X138702957Y-74763459D01*
X138717236Y-74759882D01*
X138731797Y-74757722D01*
X138746500Y-74757000D01*
X140396500Y-74757000D01*
X140411203Y-74757722D01*
G37*
G04 #@! TD.AperFunction*
G04 #@! TA.AperFunction,SMDPad,CuDef*
G36*
X133031222Y-71953674D02*
G01*
X133044813Y-71955690D01*
X133058140Y-71959028D01*
X133071076Y-71963657D01*
X133083496Y-71969531D01*
X133095280Y-71976594D01*
X133106315Y-71984779D01*
X133116495Y-71994005D01*
X133125721Y-72004185D01*
X133133906Y-72015220D01*
X133140969Y-72027004D01*
X133146843Y-72039424D01*
X133151472Y-72052360D01*
X133154810Y-72065687D01*
X133156826Y-72079278D01*
X133157500Y-72093000D01*
X133157500Y-72433000D01*
X133156826Y-72446722D01*
X133154810Y-72460313D01*
X133151472Y-72473640D01*
X133146843Y-72486576D01*
X133140969Y-72498996D01*
X133133906Y-72510780D01*
X133125721Y-72521815D01*
X133116495Y-72531995D01*
X133106315Y-72541221D01*
X133095280Y-72549406D01*
X133083496Y-72556469D01*
X133071076Y-72562343D01*
X133058140Y-72566972D01*
X133044813Y-72570310D01*
X133031222Y-72572326D01*
X133017500Y-72573000D01*
X132737500Y-72573000D01*
X132723778Y-72572326D01*
X132710187Y-72570310D01*
X132696860Y-72566972D01*
X132683924Y-72562343D01*
X132671504Y-72556469D01*
X132659720Y-72549406D01*
X132648685Y-72541221D01*
X132638505Y-72531995D01*
X132629279Y-72521815D01*
X132621094Y-72510780D01*
X132614031Y-72498996D01*
X132608157Y-72486576D01*
X132603528Y-72473640D01*
X132600190Y-72460313D01*
X132598174Y-72446722D01*
X132597500Y-72433000D01*
X132597500Y-72093000D01*
X132598174Y-72079278D01*
X132600190Y-72065687D01*
X132603528Y-72052360D01*
X132608157Y-72039424D01*
X132614031Y-72027004D01*
X132621094Y-72015220D01*
X132629279Y-72004185D01*
X132638505Y-71994005D01*
X132648685Y-71984779D01*
X132659720Y-71976594D01*
X132671504Y-71969531D01*
X132683924Y-71963657D01*
X132696860Y-71959028D01*
X132710187Y-71955690D01*
X132723778Y-71953674D01*
X132737500Y-71953000D01*
X133017500Y-71953000D01*
X133031222Y-71953674D01*
G37*
G04 #@! TD.AperFunction*
G04 #@! TA.AperFunction,SMDPad,CuDef*
G36*
X132071222Y-71953674D02*
G01*
X132084813Y-71955690D01*
X132098140Y-71959028D01*
X132111076Y-71963657D01*
X132123496Y-71969531D01*
X132135280Y-71976594D01*
X132146315Y-71984779D01*
X132156495Y-71994005D01*
X132165721Y-72004185D01*
X132173906Y-72015220D01*
X132180969Y-72027004D01*
X132186843Y-72039424D01*
X132191472Y-72052360D01*
X132194810Y-72065687D01*
X132196826Y-72079278D01*
X132197500Y-72093000D01*
X132197500Y-72433000D01*
X132196826Y-72446722D01*
X132194810Y-72460313D01*
X132191472Y-72473640D01*
X132186843Y-72486576D01*
X132180969Y-72498996D01*
X132173906Y-72510780D01*
X132165721Y-72521815D01*
X132156495Y-72531995D01*
X132146315Y-72541221D01*
X132135280Y-72549406D01*
X132123496Y-72556469D01*
X132111076Y-72562343D01*
X132098140Y-72566972D01*
X132084813Y-72570310D01*
X132071222Y-72572326D01*
X132057500Y-72573000D01*
X131777500Y-72573000D01*
X131763778Y-72572326D01*
X131750187Y-72570310D01*
X131736860Y-72566972D01*
X131723924Y-72562343D01*
X131711504Y-72556469D01*
X131699720Y-72549406D01*
X131688685Y-72541221D01*
X131678505Y-72531995D01*
X131669279Y-72521815D01*
X131661094Y-72510780D01*
X131654031Y-72498996D01*
X131648157Y-72486576D01*
X131643528Y-72473640D01*
X131640190Y-72460313D01*
X131638174Y-72446722D01*
X131637500Y-72433000D01*
X131637500Y-72093000D01*
X131638174Y-72079278D01*
X131640190Y-72065687D01*
X131643528Y-72052360D01*
X131648157Y-72039424D01*
X131654031Y-72027004D01*
X131661094Y-72015220D01*
X131669279Y-72004185D01*
X131678505Y-71994005D01*
X131688685Y-71984779D01*
X131699720Y-71976594D01*
X131711504Y-71969531D01*
X131723924Y-71963657D01*
X131736860Y-71959028D01*
X131750187Y-71955690D01*
X131763778Y-71953674D01*
X131777500Y-71953000D01*
X132057500Y-71953000D01*
X132071222Y-71953674D01*
G37*
G04 #@! TD.AperFunction*
G04 #@! TA.AperFunction,SMDPad,CuDef*
G36*
X132325504Y-65861204D02*
G01*
X132349773Y-65864804D01*
X132373571Y-65870765D01*
X132396671Y-65879030D01*
X132418849Y-65889520D01*
X132439893Y-65902133D01*
X132459598Y-65916747D01*
X132477777Y-65933223D01*
X132494253Y-65951402D01*
X132508867Y-65971107D01*
X132521480Y-65992151D01*
X132531970Y-66014329D01*
X132540235Y-66037429D01*
X132546196Y-66061227D01*
X132549796Y-66085496D01*
X132551000Y-66110000D01*
X132551000Y-66610000D01*
X132549796Y-66634504D01*
X132546196Y-66658773D01*
X132540235Y-66682571D01*
X132531970Y-66705671D01*
X132521480Y-66727849D01*
X132508867Y-66748893D01*
X132494253Y-66768598D01*
X132477777Y-66786777D01*
X132459598Y-66803253D01*
X132439893Y-66817867D01*
X132418849Y-66830480D01*
X132396671Y-66840970D01*
X132373571Y-66849235D01*
X132349773Y-66855196D01*
X132325504Y-66858796D01*
X132301000Y-66860000D01*
X131351000Y-66860000D01*
X131326496Y-66858796D01*
X131302227Y-66855196D01*
X131278429Y-66849235D01*
X131255329Y-66840970D01*
X131233151Y-66830480D01*
X131212107Y-66817867D01*
X131192402Y-66803253D01*
X131174223Y-66786777D01*
X131157747Y-66768598D01*
X131143133Y-66748893D01*
X131130520Y-66727849D01*
X131120030Y-66705671D01*
X131111765Y-66682571D01*
X131105804Y-66658773D01*
X131102204Y-66634504D01*
X131101000Y-66610000D01*
X131101000Y-66110000D01*
X131102204Y-66085496D01*
X131105804Y-66061227D01*
X131111765Y-66037429D01*
X131120030Y-66014329D01*
X131130520Y-65992151D01*
X131143133Y-65971107D01*
X131157747Y-65951402D01*
X131174223Y-65933223D01*
X131192402Y-65916747D01*
X131212107Y-65902133D01*
X131233151Y-65889520D01*
X131255329Y-65879030D01*
X131278429Y-65870765D01*
X131302227Y-65864804D01*
X131326496Y-65861204D01*
X131351000Y-65860000D01*
X132301000Y-65860000D01*
X132325504Y-65861204D01*
G37*
G04 #@! TD.AperFunction*
G04 #@! TA.AperFunction,SMDPad,CuDef*
G36*
X132325504Y-67761204D02*
G01*
X132349773Y-67764804D01*
X132373571Y-67770765D01*
X132396671Y-67779030D01*
X132418849Y-67789520D01*
X132439893Y-67802133D01*
X132459598Y-67816747D01*
X132477777Y-67833223D01*
X132494253Y-67851402D01*
X132508867Y-67871107D01*
X132521480Y-67892151D01*
X132531970Y-67914329D01*
X132540235Y-67937429D01*
X132546196Y-67961227D01*
X132549796Y-67985496D01*
X132551000Y-68010000D01*
X132551000Y-68510000D01*
X132549796Y-68534504D01*
X132546196Y-68558773D01*
X132540235Y-68582571D01*
X132531970Y-68605671D01*
X132521480Y-68627849D01*
X132508867Y-68648893D01*
X132494253Y-68668598D01*
X132477777Y-68686777D01*
X132459598Y-68703253D01*
X132439893Y-68717867D01*
X132418849Y-68730480D01*
X132396671Y-68740970D01*
X132373571Y-68749235D01*
X132349773Y-68755196D01*
X132325504Y-68758796D01*
X132301000Y-68760000D01*
X131351000Y-68760000D01*
X131326496Y-68758796D01*
X131302227Y-68755196D01*
X131278429Y-68749235D01*
X131255329Y-68740970D01*
X131233151Y-68730480D01*
X131212107Y-68717867D01*
X131192402Y-68703253D01*
X131174223Y-68686777D01*
X131157747Y-68668598D01*
X131143133Y-68648893D01*
X131130520Y-68627849D01*
X131120030Y-68605671D01*
X131111765Y-68582571D01*
X131105804Y-68558773D01*
X131102204Y-68534504D01*
X131101000Y-68510000D01*
X131101000Y-68010000D01*
X131102204Y-67985496D01*
X131105804Y-67961227D01*
X131111765Y-67937429D01*
X131120030Y-67914329D01*
X131130520Y-67892151D01*
X131143133Y-67871107D01*
X131157747Y-67851402D01*
X131174223Y-67833223D01*
X131192402Y-67816747D01*
X131212107Y-67802133D01*
X131233151Y-67789520D01*
X131255329Y-67779030D01*
X131278429Y-67770765D01*
X131302227Y-67764804D01*
X131326496Y-67761204D01*
X131351000Y-67760000D01*
X132301000Y-67760000D01*
X132325504Y-67761204D01*
G37*
G04 #@! TD.AperFunction*
G04 #@! TA.AperFunction,SMDPad,CuDef*
G36*
X139945504Y-67761204D02*
G01*
X139969773Y-67764804D01*
X139993571Y-67770765D01*
X140016671Y-67779030D01*
X140038849Y-67789520D01*
X140059893Y-67802133D01*
X140079598Y-67816747D01*
X140097777Y-67833223D01*
X140114253Y-67851402D01*
X140128867Y-67871107D01*
X140141480Y-67892151D01*
X140151970Y-67914329D01*
X140160235Y-67937429D01*
X140166196Y-67961227D01*
X140169796Y-67985496D01*
X140171000Y-68010000D01*
X140171000Y-68510000D01*
X140169796Y-68534504D01*
X140166196Y-68558773D01*
X140160235Y-68582571D01*
X140151970Y-68605671D01*
X140141480Y-68627849D01*
X140128867Y-68648893D01*
X140114253Y-68668598D01*
X140097777Y-68686777D01*
X140079598Y-68703253D01*
X140059893Y-68717867D01*
X140038849Y-68730480D01*
X140016671Y-68740970D01*
X139993571Y-68749235D01*
X139969773Y-68755196D01*
X139945504Y-68758796D01*
X139921000Y-68760000D01*
X138971000Y-68760000D01*
X138946496Y-68758796D01*
X138922227Y-68755196D01*
X138898429Y-68749235D01*
X138875329Y-68740970D01*
X138853151Y-68730480D01*
X138832107Y-68717867D01*
X138812402Y-68703253D01*
X138794223Y-68686777D01*
X138777747Y-68668598D01*
X138763133Y-68648893D01*
X138750520Y-68627849D01*
X138740030Y-68605671D01*
X138731765Y-68582571D01*
X138725804Y-68558773D01*
X138722204Y-68534504D01*
X138721000Y-68510000D01*
X138721000Y-68010000D01*
X138722204Y-67985496D01*
X138725804Y-67961227D01*
X138731765Y-67937429D01*
X138740030Y-67914329D01*
X138750520Y-67892151D01*
X138763133Y-67871107D01*
X138777747Y-67851402D01*
X138794223Y-67833223D01*
X138812402Y-67816747D01*
X138832107Y-67802133D01*
X138853151Y-67789520D01*
X138875329Y-67779030D01*
X138898429Y-67770765D01*
X138922227Y-67764804D01*
X138946496Y-67761204D01*
X138971000Y-67760000D01*
X139921000Y-67760000D01*
X139945504Y-67761204D01*
G37*
G04 #@! TD.AperFunction*
G04 #@! TA.AperFunction,SMDPad,CuDef*
G36*
X139945504Y-65861204D02*
G01*
X139969773Y-65864804D01*
X139993571Y-65870765D01*
X140016671Y-65879030D01*
X140038849Y-65889520D01*
X140059893Y-65902133D01*
X140079598Y-65916747D01*
X140097777Y-65933223D01*
X140114253Y-65951402D01*
X140128867Y-65971107D01*
X140141480Y-65992151D01*
X140151970Y-66014329D01*
X140160235Y-66037429D01*
X140166196Y-66061227D01*
X140169796Y-66085496D01*
X140171000Y-66110000D01*
X140171000Y-66610000D01*
X140169796Y-66634504D01*
X140166196Y-66658773D01*
X140160235Y-66682571D01*
X140151970Y-66705671D01*
X140141480Y-66727849D01*
X140128867Y-66748893D01*
X140114253Y-66768598D01*
X140097777Y-66786777D01*
X140079598Y-66803253D01*
X140059893Y-66817867D01*
X140038849Y-66830480D01*
X140016671Y-66840970D01*
X139993571Y-66849235D01*
X139969773Y-66855196D01*
X139945504Y-66858796D01*
X139921000Y-66860000D01*
X138971000Y-66860000D01*
X138946496Y-66858796D01*
X138922227Y-66855196D01*
X138898429Y-66849235D01*
X138875329Y-66840970D01*
X138853151Y-66830480D01*
X138832107Y-66817867D01*
X138812402Y-66803253D01*
X138794223Y-66786777D01*
X138777747Y-66768598D01*
X138763133Y-66748893D01*
X138750520Y-66727849D01*
X138740030Y-66705671D01*
X138731765Y-66682571D01*
X138725804Y-66658773D01*
X138722204Y-66634504D01*
X138721000Y-66610000D01*
X138721000Y-66110000D01*
X138722204Y-66085496D01*
X138725804Y-66061227D01*
X138731765Y-66037429D01*
X138740030Y-66014329D01*
X138750520Y-65992151D01*
X138763133Y-65971107D01*
X138777747Y-65951402D01*
X138794223Y-65933223D01*
X138812402Y-65916747D01*
X138832107Y-65902133D01*
X138853151Y-65889520D01*
X138875329Y-65879030D01*
X138898429Y-65870765D01*
X138922227Y-65864804D01*
X138946496Y-65861204D01*
X138971000Y-65860000D01*
X139921000Y-65860000D01*
X139945504Y-65861204D01*
G37*
G04 #@! TD.AperFunction*
G04 #@! TA.AperFunction,SMDPad,CuDef*
G36*
X141534722Y-69979674D02*
G01*
X141548313Y-69981690D01*
X141561640Y-69985028D01*
X141574576Y-69989657D01*
X141586996Y-69995531D01*
X141598780Y-70002594D01*
X141609815Y-70010779D01*
X141619995Y-70020005D01*
X141629221Y-70030185D01*
X141637406Y-70041220D01*
X141644469Y-70053004D01*
X141650343Y-70065424D01*
X141654972Y-70078360D01*
X141658310Y-70091687D01*
X141660326Y-70105278D01*
X141661000Y-70119000D01*
X141661000Y-70399000D01*
X141660326Y-70412722D01*
X141658310Y-70426313D01*
X141654972Y-70439640D01*
X141650343Y-70452576D01*
X141644469Y-70464996D01*
X141637406Y-70476780D01*
X141629221Y-70487815D01*
X141619995Y-70497995D01*
X141609815Y-70507221D01*
X141598780Y-70515406D01*
X141586996Y-70522469D01*
X141574576Y-70528343D01*
X141561640Y-70532972D01*
X141548313Y-70536310D01*
X141534722Y-70538326D01*
X141521000Y-70539000D01*
X141181000Y-70539000D01*
X141167278Y-70538326D01*
X141153687Y-70536310D01*
X141140360Y-70532972D01*
X141127424Y-70528343D01*
X141115004Y-70522469D01*
X141103220Y-70515406D01*
X141092185Y-70507221D01*
X141082005Y-70497995D01*
X141072779Y-70487815D01*
X141064594Y-70476780D01*
X141057531Y-70464996D01*
X141051657Y-70452576D01*
X141047028Y-70439640D01*
X141043690Y-70426313D01*
X141041674Y-70412722D01*
X141041000Y-70399000D01*
X141041000Y-70119000D01*
X141041674Y-70105278D01*
X141043690Y-70091687D01*
X141047028Y-70078360D01*
X141051657Y-70065424D01*
X141057531Y-70053004D01*
X141064594Y-70041220D01*
X141072779Y-70030185D01*
X141082005Y-70020005D01*
X141092185Y-70010779D01*
X141103220Y-70002594D01*
X141115004Y-69995531D01*
X141127424Y-69989657D01*
X141140360Y-69985028D01*
X141153687Y-69981690D01*
X141167278Y-69979674D01*
X141181000Y-69979000D01*
X141521000Y-69979000D01*
X141534722Y-69979674D01*
G37*
G04 #@! TD.AperFunction*
G04 #@! TA.AperFunction,SMDPad,CuDef*
G36*
X141534722Y-70939674D02*
G01*
X141548313Y-70941690D01*
X141561640Y-70945028D01*
X141574576Y-70949657D01*
X141586996Y-70955531D01*
X141598780Y-70962594D01*
X141609815Y-70970779D01*
X141619995Y-70980005D01*
X141629221Y-70990185D01*
X141637406Y-71001220D01*
X141644469Y-71013004D01*
X141650343Y-71025424D01*
X141654972Y-71038360D01*
X141658310Y-71051687D01*
X141660326Y-71065278D01*
X141661000Y-71079000D01*
X141661000Y-71359000D01*
X141660326Y-71372722D01*
X141658310Y-71386313D01*
X141654972Y-71399640D01*
X141650343Y-71412576D01*
X141644469Y-71424996D01*
X141637406Y-71436780D01*
X141629221Y-71447815D01*
X141619995Y-71457995D01*
X141609815Y-71467221D01*
X141598780Y-71475406D01*
X141586996Y-71482469D01*
X141574576Y-71488343D01*
X141561640Y-71492972D01*
X141548313Y-71496310D01*
X141534722Y-71498326D01*
X141521000Y-71499000D01*
X141181000Y-71499000D01*
X141167278Y-71498326D01*
X141153687Y-71496310D01*
X141140360Y-71492972D01*
X141127424Y-71488343D01*
X141115004Y-71482469D01*
X141103220Y-71475406D01*
X141092185Y-71467221D01*
X141082005Y-71457995D01*
X141072779Y-71447815D01*
X141064594Y-71436780D01*
X141057531Y-71424996D01*
X141051657Y-71412576D01*
X141047028Y-71399640D01*
X141043690Y-71386313D01*
X141041674Y-71372722D01*
X141041000Y-71359000D01*
X141041000Y-71079000D01*
X141041674Y-71065278D01*
X141043690Y-71051687D01*
X141047028Y-71038360D01*
X141051657Y-71025424D01*
X141057531Y-71013004D01*
X141064594Y-71001220D01*
X141072779Y-70990185D01*
X141082005Y-70980005D01*
X141092185Y-70970779D01*
X141103220Y-70962594D01*
X141115004Y-70955531D01*
X141127424Y-70949657D01*
X141140360Y-70945028D01*
X141153687Y-70941690D01*
X141167278Y-70939674D01*
X141181000Y-70939000D01*
X141521000Y-70939000D01*
X141534722Y-70939674D01*
G37*
G04 #@! TD.AperFunction*
G04 #@! TA.AperFunction,SMDPad,CuDef*
G36*
X132071222Y-70429674D02*
G01*
X132084813Y-70431690D01*
X132098140Y-70435028D01*
X132111076Y-70439657D01*
X132123496Y-70445531D01*
X132135280Y-70452594D01*
X132146315Y-70460779D01*
X132156495Y-70470005D01*
X132165721Y-70480185D01*
X132173906Y-70491220D01*
X132180969Y-70503004D01*
X132186843Y-70515424D01*
X132191472Y-70528360D01*
X132194810Y-70541687D01*
X132196826Y-70555278D01*
X132197500Y-70569000D01*
X132197500Y-70909000D01*
X132196826Y-70922722D01*
X132194810Y-70936313D01*
X132191472Y-70949640D01*
X132186843Y-70962576D01*
X132180969Y-70974996D01*
X132173906Y-70986780D01*
X132165721Y-70997815D01*
X132156495Y-71007995D01*
X132146315Y-71017221D01*
X132135280Y-71025406D01*
X132123496Y-71032469D01*
X132111076Y-71038343D01*
X132098140Y-71042972D01*
X132084813Y-71046310D01*
X132071222Y-71048326D01*
X132057500Y-71049000D01*
X131777500Y-71049000D01*
X131763778Y-71048326D01*
X131750187Y-71046310D01*
X131736860Y-71042972D01*
X131723924Y-71038343D01*
X131711504Y-71032469D01*
X131699720Y-71025406D01*
X131688685Y-71017221D01*
X131678505Y-71007995D01*
X131669279Y-70997815D01*
X131661094Y-70986780D01*
X131654031Y-70974996D01*
X131648157Y-70962576D01*
X131643528Y-70949640D01*
X131640190Y-70936313D01*
X131638174Y-70922722D01*
X131637500Y-70909000D01*
X131637500Y-70569000D01*
X131638174Y-70555278D01*
X131640190Y-70541687D01*
X131643528Y-70528360D01*
X131648157Y-70515424D01*
X131654031Y-70503004D01*
X131661094Y-70491220D01*
X131669279Y-70480185D01*
X131678505Y-70470005D01*
X131688685Y-70460779D01*
X131699720Y-70452594D01*
X131711504Y-70445531D01*
X131723924Y-70439657D01*
X131736860Y-70435028D01*
X131750187Y-70431690D01*
X131763778Y-70429674D01*
X131777500Y-70429000D01*
X132057500Y-70429000D01*
X132071222Y-70429674D01*
G37*
G04 #@! TD.AperFunction*
G04 #@! TA.AperFunction,SMDPad,CuDef*
G36*
X133031222Y-70429674D02*
G01*
X133044813Y-70431690D01*
X133058140Y-70435028D01*
X133071076Y-70439657D01*
X133083496Y-70445531D01*
X133095280Y-70452594D01*
X133106315Y-70460779D01*
X133116495Y-70470005D01*
X133125721Y-70480185D01*
X133133906Y-70491220D01*
X133140969Y-70503004D01*
X133146843Y-70515424D01*
X133151472Y-70528360D01*
X133154810Y-70541687D01*
X133156826Y-70555278D01*
X133157500Y-70569000D01*
X133157500Y-70909000D01*
X133156826Y-70922722D01*
X133154810Y-70936313D01*
X133151472Y-70949640D01*
X133146843Y-70962576D01*
X133140969Y-70974996D01*
X133133906Y-70986780D01*
X133125721Y-70997815D01*
X133116495Y-71007995D01*
X133106315Y-71017221D01*
X133095280Y-71025406D01*
X133083496Y-71032469D01*
X133071076Y-71038343D01*
X133058140Y-71042972D01*
X133044813Y-71046310D01*
X133031222Y-71048326D01*
X133017500Y-71049000D01*
X132737500Y-71049000D01*
X132723778Y-71048326D01*
X132710187Y-71046310D01*
X132696860Y-71042972D01*
X132683924Y-71038343D01*
X132671504Y-71032469D01*
X132659720Y-71025406D01*
X132648685Y-71017221D01*
X132638505Y-71007995D01*
X132629279Y-70997815D01*
X132621094Y-70986780D01*
X132614031Y-70974996D01*
X132608157Y-70962576D01*
X132603528Y-70949640D01*
X132600190Y-70936313D01*
X132598174Y-70922722D01*
X132597500Y-70909000D01*
X132597500Y-70569000D01*
X132598174Y-70555278D01*
X132600190Y-70541687D01*
X132603528Y-70528360D01*
X132608157Y-70515424D01*
X132614031Y-70503004D01*
X132621094Y-70491220D01*
X132629279Y-70480185D01*
X132638505Y-70470005D01*
X132648685Y-70460779D01*
X132659720Y-70452594D01*
X132671504Y-70445531D01*
X132683924Y-70439657D01*
X132696860Y-70435028D01*
X132710187Y-70431690D01*
X132723778Y-70429674D01*
X132737500Y-70429000D01*
X133017500Y-70429000D01*
X133031222Y-70429674D01*
G37*
G04 #@! TD.AperFunction*
G04 #@! TA.AperFunction,SMDPad,CuDef*
G36*
X147173054Y-73186083D02*
G01*
X147194895Y-73189323D01*
X147216314Y-73194688D01*
X147237104Y-73202127D01*
X147257064Y-73211568D01*
X147276003Y-73222919D01*
X147293738Y-73236073D01*
X147310099Y-73250901D01*
X147324927Y-73267262D01*
X147338081Y-73284997D01*
X147349432Y-73303936D01*
X147358873Y-73323896D01*
X147366312Y-73344686D01*
X147371677Y-73366105D01*
X147374917Y-73387946D01*
X147376000Y-73410000D01*
X147376000Y-73910000D01*
X147374917Y-73932054D01*
X147371677Y-73953895D01*
X147366312Y-73975314D01*
X147358873Y-73996104D01*
X147349432Y-74016064D01*
X147338081Y-74035003D01*
X147324927Y-74052738D01*
X147310099Y-74069099D01*
X147293738Y-74083927D01*
X147276003Y-74097081D01*
X147257064Y-74108432D01*
X147237104Y-74117873D01*
X147216314Y-74125312D01*
X147194895Y-74130677D01*
X147173054Y-74133917D01*
X147151000Y-74135000D01*
X146701000Y-74135000D01*
X146678946Y-74133917D01*
X146657105Y-74130677D01*
X146635686Y-74125312D01*
X146614896Y-74117873D01*
X146594936Y-74108432D01*
X146575997Y-74097081D01*
X146558262Y-74083927D01*
X146541901Y-74069099D01*
X146527073Y-74052738D01*
X146513919Y-74035003D01*
X146502568Y-74016064D01*
X146493127Y-73996104D01*
X146485688Y-73975314D01*
X146480323Y-73953895D01*
X146477083Y-73932054D01*
X146476000Y-73910000D01*
X146476000Y-73410000D01*
X146477083Y-73387946D01*
X146480323Y-73366105D01*
X146485688Y-73344686D01*
X146493127Y-73323896D01*
X146502568Y-73303936D01*
X146513919Y-73284997D01*
X146527073Y-73267262D01*
X146541901Y-73250901D01*
X146558262Y-73236073D01*
X146575997Y-73222919D01*
X146594936Y-73211568D01*
X146614896Y-73202127D01*
X146635686Y-73194688D01*
X146657105Y-73189323D01*
X146678946Y-73186083D01*
X146701000Y-73185000D01*
X147151000Y-73185000D01*
X147173054Y-73186083D01*
G37*
G04 #@! TD.AperFunction*
G04 #@! TA.AperFunction,SMDPad,CuDef*
G36*
X148723054Y-73186083D02*
G01*
X148744895Y-73189323D01*
X148766314Y-73194688D01*
X148787104Y-73202127D01*
X148807064Y-73211568D01*
X148826003Y-73222919D01*
X148843738Y-73236073D01*
X148860099Y-73250901D01*
X148874927Y-73267262D01*
X148888081Y-73284997D01*
X148899432Y-73303936D01*
X148908873Y-73323896D01*
X148916312Y-73344686D01*
X148921677Y-73366105D01*
X148924917Y-73387946D01*
X148926000Y-73410000D01*
X148926000Y-73910000D01*
X148924917Y-73932054D01*
X148921677Y-73953895D01*
X148916312Y-73975314D01*
X148908873Y-73996104D01*
X148899432Y-74016064D01*
X148888081Y-74035003D01*
X148874927Y-74052738D01*
X148860099Y-74069099D01*
X148843738Y-74083927D01*
X148826003Y-74097081D01*
X148807064Y-74108432D01*
X148787104Y-74117873D01*
X148766314Y-74125312D01*
X148744895Y-74130677D01*
X148723054Y-74133917D01*
X148701000Y-74135000D01*
X148251000Y-74135000D01*
X148228946Y-74133917D01*
X148207105Y-74130677D01*
X148185686Y-74125312D01*
X148164896Y-74117873D01*
X148144936Y-74108432D01*
X148125997Y-74097081D01*
X148108262Y-74083927D01*
X148091901Y-74069099D01*
X148077073Y-74052738D01*
X148063919Y-74035003D01*
X148052568Y-74016064D01*
X148043127Y-73996104D01*
X148035688Y-73975314D01*
X148030323Y-73953895D01*
X148027083Y-73932054D01*
X148026000Y-73910000D01*
X148026000Y-73410000D01*
X148027083Y-73387946D01*
X148030323Y-73366105D01*
X148035688Y-73344686D01*
X148043127Y-73323896D01*
X148052568Y-73303936D01*
X148063919Y-73284997D01*
X148077073Y-73267262D01*
X148091901Y-73250901D01*
X148108262Y-73236073D01*
X148125997Y-73222919D01*
X148144936Y-73211568D01*
X148164896Y-73202127D01*
X148185686Y-73194688D01*
X148207105Y-73189323D01*
X148228946Y-73186083D01*
X148251000Y-73185000D01*
X148701000Y-73185000D01*
X148723054Y-73186083D01*
G37*
G04 #@! TD.AperFunction*
G04 #@! TA.AperFunction,SMDPad,CuDef*
G36*
X143947722Y-66550674D02*
G01*
X143961313Y-66552690D01*
X143974640Y-66556028D01*
X143987576Y-66560657D01*
X143999996Y-66566531D01*
X144011780Y-66573594D01*
X144022815Y-66581779D01*
X144032995Y-66591005D01*
X144042221Y-66601185D01*
X144050406Y-66612220D01*
X144057469Y-66624004D01*
X144063343Y-66636424D01*
X144067972Y-66649360D01*
X144071310Y-66662687D01*
X144073326Y-66676278D01*
X144074000Y-66690000D01*
X144074000Y-66970000D01*
X144073326Y-66983722D01*
X144071310Y-66997313D01*
X144067972Y-67010640D01*
X144063343Y-67023576D01*
X144057469Y-67035996D01*
X144050406Y-67047780D01*
X144042221Y-67058815D01*
X144032995Y-67068995D01*
X144022815Y-67078221D01*
X144011780Y-67086406D01*
X143999996Y-67093469D01*
X143987576Y-67099343D01*
X143974640Y-67103972D01*
X143961313Y-67107310D01*
X143947722Y-67109326D01*
X143934000Y-67110000D01*
X143594000Y-67110000D01*
X143580278Y-67109326D01*
X143566687Y-67107310D01*
X143553360Y-67103972D01*
X143540424Y-67099343D01*
X143528004Y-67093469D01*
X143516220Y-67086406D01*
X143505185Y-67078221D01*
X143495005Y-67068995D01*
X143485779Y-67058815D01*
X143477594Y-67047780D01*
X143470531Y-67035996D01*
X143464657Y-67023576D01*
X143460028Y-67010640D01*
X143456690Y-66997313D01*
X143454674Y-66983722D01*
X143454000Y-66970000D01*
X143454000Y-66690000D01*
X143454674Y-66676278D01*
X143456690Y-66662687D01*
X143460028Y-66649360D01*
X143464657Y-66636424D01*
X143470531Y-66624004D01*
X143477594Y-66612220D01*
X143485779Y-66601185D01*
X143495005Y-66591005D01*
X143505185Y-66581779D01*
X143516220Y-66573594D01*
X143528004Y-66566531D01*
X143540424Y-66560657D01*
X143553360Y-66556028D01*
X143566687Y-66552690D01*
X143580278Y-66550674D01*
X143594000Y-66550000D01*
X143934000Y-66550000D01*
X143947722Y-66550674D01*
G37*
G04 #@! TD.AperFunction*
G04 #@! TA.AperFunction,SMDPad,CuDef*
G36*
X143947722Y-67510674D02*
G01*
X143961313Y-67512690D01*
X143974640Y-67516028D01*
X143987576Y-67520657D01*
X143999996Y-67526531D01*
X144011780Y-67533594D01*
X144022815Y-67541779D01*
X144032995Y-67551005D01*
X144042221Y-67561185D01*
X144050406Y-67572220D01*
X144057469Y-67584004D01*
X144063343Y-67596424D01*
X144067972Y-67609360D01*
X144071310Y-67622687D01*
X144073326Y-67636278D01*
X144074000Y-67650000D01*
X144074000Y-67930000D01*
X144073326Y-67943722D01*
X144071310Y-67957313D01*
X144067972Y-67970640D01*
X144063343Y-67983576D01*
X144057469Y-67995996D01*
X144050406Y-68007780D01*
X144042221Y-68018815D01*
X144032995Y-68028995D01*
X144022815Y-68038221D01*
X144011780Y-68046406D01*
X143999996Y-68053469D01*
X143987576Y-68059343D01*
X143974640Y-68063972D01*
X143961313Y-68067310D01*
X143947722Y-68069326D01*
X143934000Y-68070000D01*
X143594000Y-68070000D01*
X143580278Y-68069326D01*
X143566687Y-68067310D01*
X143553360Y-68063972D01*
X143540424Y-68059343D01*
X143528004Y-68053469D01*
X143516220Y-68046406D01*
X143505185Y-68038221D01*
X143495005Y-68028995D01*
X143485779Y-68018815D01*
X143477594Y-68007780D01*
X143470531Y-67995996D01*
X143464657Y-67983576D01*
X143460028Y-67970640D01*
X143456690Y-67957313D01*
X143454674Y-67943722D01*
X143454000Y-67930000D01*
X143454000Y-67650000D01*
X143454674Y-67636278D01*
X143456690Y-67622687D01*
X143460028Y-67609360D01*
X143464657Y-67596424D01*
X143470531Y-67584004D01*
X143477594Y-67572220D01*
X143485779Y-67561185D01*
X143495005Y-67551005D01*
X143505185Y-67541779D01*
X143516220Y-67533594D01*
X143528004Y-67526531D01*
X143540424Y-67520657D01*
X143553360Y-67516028D01*
X143566687Y-67512690D01*
X143580278Y-67510674D01*
X143594000Y-67510000D01*
X143934000Y-67510000D01*
X143947722Y-67510674D01*
G37*
G04 #@! TD.AperFunction*
D14*
X143594000Y-75311000D03*
X141394000Y-75311000D03*
D15*
X138049000Y-61595000D03*
D16*
X140589000Y-61595000D03*
X143129000Y-61595000D03*
G04 #@! TA.AperFunction,SMDPad,CuDef*
D13*
G36*
X132035732Y-75118650D02*
G01*
X132048837Y-75120594D01*
X132061688Y-75123813D01*
X132074162Y-75128276D01*
X132086139Y-75133941D01*
X132097502Y-75140752D01*
X132108143Y-75148644D01*
X132117959Y-75157541D01*
X132126856Y-75167357D01*
X132134748Y-75177998D01*
X132141559Y-75189361D01*
X132147224Y-75201338D01*
X132151687Y-75213812D01*
X132154906Y-75226663D01*
X132156850Y-75239768D01*
X132157500Y-75253000D01*
X132157500Y-75623000D01*
X132156850Y-75636232D01*
X132154906Y-75649337D01*
X132151687Y-75662188D01*
X132147224Y-75674662D01*
X132141559Y-75686639D01*
X132134748Y-75698002D01*
X132126856Y-75708643D01*
X132117959Y-75718459D01*
X132108143Y-75727356D01*
X132097502Y-75735248D01*
X132086139Y-75742059D01*
X132074162Y-75747724D01*
X132061688Y-75752187D01*
X132048837Y-75755406D01*
X132035732Y-75757350D01*
X132022500Y-75758000D01*
X131752500Y-75758000D01*
X131739268Y-75757350D01*
X131726163Y-75755406D01*
X131713312Y-75752187D01*
X131700838Y-75747724D01*
X131688861Y-75742059D01*
X131677498Y-75735248D01*
X131666857Y-75727356D01*
X131657041Y-75718459D01*
X131648144Y-75708643D01*
X131640252Y-75698002D01*
X131633441Y-75686639D01*
X131627776Y-75674662D01*
X131623313Y-75662188D01*
X131620094Y-75649337D01*
X131618150Y-75636232D01*
X131617500Y-75623000D01*
X131617500Y-75253000D01*
X131618150Y-75239768D01*
X131620094Y-75226663D01*
X131623313Y-75213812D01*
X131627776Y-75201338D01*
X131633441Y-75189361D01*
X131640252Y-75177998D01*
X131648144Y-75167357D01*
X131657041Y-75157541D01*
X131666857Y-75148644D01*
X131677498Y-75140752D01*
X131688861Y-75133941D01*
X131700838Y-75128276D01*
X131713312Y-75123813D01*
X131726163Y-75120594D01*
X131739268Y-75118650D01*
X131752500Y-75118000D01*
X132022500Y-75118000D01*
X132035732Y-75118650D01*
G37*
G04 #@! TD.AperFunction*
G04 #@! TA.AperFunction,SMDPad,CuDef*
G36*
X133055732Y-75118650D02*
G01*
X133068837Y-75120594D01*
X133081688Y-75123813D01*
X133094162Y-75128276D01*
X133106139Y-75133941D01*
X133117502Y-75140752D01*
X133128143Y-75148644D01*
X133137959Y-75157541D01*
X133146856Y-75167357D01*
X133154748Y-75177998D01*
X133161559Y-75189361D01*
X133167224Y-75201338D01*
X133171687Y-75213812D01*
X133174906Y-75226663D01*
X133176850Y-75239768D01*
X133177500Y-75253000D01*
X133177500Y-75623000D01*
X133176850Y-75636232D01*
X133174906Y-75649337D01*
X133171687Y-75662188D01*
X133167224Y-75674662D01*
X133161559Y-75686639D01*
X133154748Y-75698002D01*
X133146856Y-75708643D01*
X133137959Y-75718459D01*
X133128143Y-75727356D01*
X133117502Y-75735248D01*
X133106139Y-75742059D01*
X133094162Y-75747724D01*
X133081688Y-75752187D01*
X133068837Y-75755406D01*
X133055732Y-75757350D01*
X133042500Y-75758000D01*
X132772500Y-75758000D01*
X132759268Y-75757350D01*
X132746163Y-75755406D01*
X132733312Y-75752187D01*
X132720838Y-75747724D01*
X132708861Y-75742059D01*
X132697498Y-75735248D01*
X132686857Y-75727356D01*
X132677041Y-75718459D01*
X132668144Y-75708643D01*
X132660252Y-75698002D01*
X132653441Y-75686639D01*
X132647776Y-75674662D01*
X132643313Y-75662188D01*
X132640094Y-75649337D01*
X132638150Y-75636232D01*
X132637500Y-75623000D01*
X132637500Y-75253000D01*
X132638150Y-75239768D01*
X132640094Y-75226663D01*
X132643313Y-75213812D01*
X132647776Y-75201338D01*
X132653441Y-75189361D01*
X132660252Y-75177998D01*
X132668144Y-75167357D01*
X132677041Y-75157541D01*
X132686857Y-75148644D01*
X132697498Y-75140752D01*
X132708861Y-75133941D01*
X132720838Y-75128276D01*
X132733312Y-75123813D01*
X132746163Y-75120594D01*
X132759268Y-75118650D01*
X132772500Y-75118000D01*
X133042500Y-75118000D01*
X133055732Y-75118650D01*
G37*
G04 #@! TD.AperFunction*
G04 #@! TA.AperFunction,SMDPad,CuDef*
G36*
X132035732Y-73467650D02*
G01*
X132048837Y-73469594D01*
X132061688Y-73472813D01*
X132074162Y-73477276D01*
X132086139Y-73482941D01*
X132097502Y-73489752D01*
X132108143Y-73497644D01*
X132117959Y-73506541D01*
X132126856Y-73516357D01*
X132134748Y-73526998D01*
X132141559Y-73538361D01*
X132147224Y-73550338D01*
X132151687Y-73562812D01*
X132154906Y-73575663D01*
X132156850Y-73588768D01*
X132157500Y-73602000D01*
X132157500Y-73972000D01*
X132156850Y-73985232D01*
X132154906Y-73998337D01*
X132151687Y-74011188D01*
X132147224Y-74023662D01*
X132141559Y-74035639D01*
X132134748Y-74047002D01*
X132126856Y-74057643D01*
X132117959Y-74067459D01*
X132108143Y-74076356D01*
X132097502Y-74084248D01*
X132086139Y-74091059D01*
X132074162Y-74096724D01*
X132061688Y-74101187D01*
X132048837Y-74104406D01*
X132035732Y-74106350D01*
X132022500Y-74107000D01*
X131752500Y-74107000D01*
X131739268Y-74106350D01*
X131726163Y-74104406D01*
X131713312Y-74101187D01*
X131700838Y-74096724D01*
X131688861Y-74091059D01*
X131677498Y-74084248D01*
X131666857Y-74076356D01*
X131657041Y-74067459D01*
X131648144Y-74057643D01*
X131640252Y-74047002D01*
X131633441Y-74035639D01*
X131627776Y-74023662D01*
X131623313Y-74011188D01*
X131620094Y-73998337D01*
X131618150Y-73985232D01*
X131617500Y-73972000D01*
X131617500Y-73602000D01*
X131618150Y-73588768D01*
X131620094Y-73575663D01*
X131623313Y-73562812D01*
X131627776Y-73550338D01*
X131633441Y-73538361D01*
X131640252Y-73526998D01*
X131648144Y-73516357D01*
X131657041Y-73506541D01*
X131666857Y-73497644D01*
X131677498Y-73489752D01*
X131688861Y-73482941D01*
X131700838Y-73477276D01*
X131713312Y-73472813D01*
X131726163Y-73469594D01*
X131739268Y-73467650D01*
X131752500Y-73467000D01*
X132022500Y-73467000D01*
X132035732Y-73467650D01*
G37*
G04 #@! TD.AperFunction*
G04 #@! TA.AperFunction,SMDPad,CuDef*
G36*
X133055732Y-73467650D02*
G01*
X133068837Y-73469594D01*
X133081688Y-73472813D01*
X133094162Y-73477276D01*
X133106139Y-73482941D01*
X133117502Y-73489752D01*
X133128143Y-73497644D01*
X133137959Y-73506541D01*
X133146856Y-73516357D01*
X133154748Y-73526998D01*
X133161559Y-73538361D01*
X133167224Y-73550338D01*
X133171687Y-73562812D01*
X133174906Y-73575663D01*
X133176850Y-73588768D01*
X133177500Y-73602000D01*
X133177500Y-73972000D01*
X133176850Y-73985232D01*
X133174906Y-73998337D01*
X133171687Y-74011188D01*
X133167224Y-74023662D01*
X133161559Y-74035639D01*
X133154748Y-74047002D01*
X133146856Y-74057643D01*
X133137959Y-74067459D01*
X133128143Y-74076356D01*
X133117502Y-74084248D01*
X133106139Y-74091059D01*
X133094162Y-74096724D01*
X133081688Y-74101187D01*
X133068837Y-74104406D01*
X133055732Y-74106350D01*
X133042500Y-74107000D01*
X132772500Y-74107000D01*
X132759268Y-74106350D01*
X132746163Y-74104406D01*
X132733312Y-74101187D01*
X132720838Y-74096724D01*
X132708861Y-74091059D01*
X132697498Y-74084248D01*
X132686857Y-74076356D01*
X132677041Y-74067459D01*
X132668144Y-74057643D01*
X132660252Y-74047002D01*
X132653441Y-74035639D01*
X132647776Y-74023662D01*
X132643313Y-74011188D01*
X132640094Y-73998337D01*
X132638150Y-73985232D01*
X132637500Y-73972000D01*
X132637500Y-73602000D01*
X132638150Y-73588768D01*
X132640094Y-73575663D01*
X132643313Y-73562812D01*
X132647776Y-73550338D01*
X132653441Y-73538361D01*
X132660252Y-73526998D01*
X132668144Y-73516357D01*
X132677041Y-73506541D01*
X132686857Y-73497644D01*
X132697498Y-73489752D01*
X132708861Y-73482941D01*
X132720838Y-73477276D01*
X132733312Y-73472813D01*
X132746163Y-73469594D01*
X132759268Y-73467650D01*
X132772500Y-73467000D01*
X133042500Y-73467000D01*
X133055732Y-73467650D01*
G37*
G04 #@! TD.AperFunction*
G04 #@! TA.AperFunction,SMDPad,CuDef*
G36*
X141549232Y-72245650D02*
G01*
X141562337Y-72247594D01*
X141575188Y-72250813D01*
X141587662Y-72255276D01*
X141599639Y-72260941D01*
X141611002Y-72267752D01*
X141621643Y-72275644D01*
X141631459Y-72284541D01*
X141640356Y-72294357D01*
X141648248Y-72304998D01*
X141655059Y-72316361D01*
X141660724Y-72328338D01*
X141665187Y-72340812D01*
X141668406Y-72353663D01*
X141670350Y-72366768D01*
X141671000Y-72380000D01*
X141671000Y-72650000D01*
X141670350Y-72663232D01*
X141668406Y-72676337D01*
X141665187Y-72689188D01*
X141660724Y-72701662D01*
X141655059Y-72713639D01*
X141648248Y-72725002D01*
X141640356Y-72735643D01*
X141631459Y-72745459D01*
X141621643Y-72754356D01*
X141611002Y-72762248D01*
X141599639Y-72769059D01*
X141587662Y-72774724D01*
X141575188Y-72779187D01*
X141562337Y-72782406D01*
X141549232Y-72784350D01*
X141536000Y-72785000D01*
X141166000Y-72785000D01*
X141152768Y-72784350D01*
X141139663Y-72782406D01*
X141126812Y-72779187D01*
X141114338Y-72774724D01*
X141102361Y-72769059D01*
X141090998Y-72762248D01*
X141080357Y-72754356D01*
X141070541Y-72745459D01*
X141061644Y-72735643D01*
X141053752Y-72725002D01*
X141046941Y-72713639D01*
X141041276Y-72701662D01*
X141036813Y-72689188D01*
X141033594Y-72676337D01*
X141031650Y-72663232D01*
X141031000Y-72650000D01*
X141031000Y-72380000D01*
X141031650Y-72366768D01*
X141033594Y-72353663D01*
X141036813Y-72340812D01*
X141041276Y-72328338D01*
X141046941Y-72316361D01*
X141053752Y-72304998D01*
X141061644Y-72294357D01*
X141070541Y-72284541D01*
X141080357Y-72275644D01*
X141090998Y-72267752D01*
X141102361Y-72260941D01*
X141114338Y-72255276D01*
X141126812Y-72250813D01*
X141139663Y-72247594D01*
X141152768Y-72245650D01*
X141166000Y-72245000D01*
X141536000Y-72245000D01*
X141549232Y-72245650D01*
G37*
G04 #@! TD.AperFunction*
G04 #@! TA.AperFunction,SMDPad,CuDef*
G36*
X141549232Y-73265650D02*
G01*
X141562337Y-73267594D01*
X141575188Y-73270813D01*
X141587662Y-73275276D01*
X141599639Y-73280941D01*
X141611002Y-73287752D01*
X141621643Y-73295644D01*
X141631459Y-73304541D01*
X141640356Y-73314357D01*
X141648248Y-73324998D01*
X141655059Y-73336361D01*
X141660724Y-73348338D01*
X141665187Y-73360812D01*
X141668406Y-73373663D01*
X141670350Y-73386768D01*
X141671000Y-73400000D01*
X141671000Y-73670000D01*
X141670350Y-73683232D01*
X141668406Y-73696337D01*
X141665187Y-73709188D01*
X141660724Y-73721662D01*
X141655059Y-73733639D01*
X141648248Y-73745002D01*
X141640356Y-73755643D01*
X141631459Y-73765459D01*
X141621643Y-73774356D01*
X141611002Y-73782248D01*
X141599639Y-73789059D01*
X141587662Y-73794724D01*
X141575188Y-73799187D01*
X141562337Y-73802406D01*
X141549232Y-73804350D01*
X141536000Y-73805000D01*
X141166000Y-73805000D01*
X141152768Y-73804350D01*
X141139663Y-73802406D01*
X141126812Y-73799187D01*
X141114338Y-73794724D01*
X141102361Y-73789059D01*
X141090998Y-73782248D01*
X141080357Y-73774356D01*
X141070541Y-73765459D01*
X141061644Y-73755643D01*
X141053752Y-73745002D01*
X141046941Y-73733639D01*
X141041276Y-73721662D01*
X141036813Y-73709188D01*
X141033594Y-73696337D01*
X141031650Y-73683232D01*
X141031000Y-73670000D01*
X141031000Y-73400000D01*
X141031650Y-73386768D01*
X141033594Y-73373663D01*
X141036813Y-73360812D01*
X141041276Y-73348338D01*
X141046941Y-73336361D01*
X141053752Y-73324998D01*
X141061644Y-73314357D01*
X141070541Y-73304541D01*
X141080357Y-73295644D01*
X141090998Y-73287752D01*
X141102361Y-73280941D01*
X141114338Y-73275276D01*
X141126812Y-73270813D01*
X141139663Y-73267594D01*
X141152768Y-73265650D01*
X141166000Y-73265000D01*
X141536000Y-73265000D01*
X141549232Y-73265650D01*
G37*
G04 #@! TD.AperFunction*
G04 #@! TA.AperFunction,SMDPad,CuDef*
G36*
X148105232Y-74864650D02*
G01*
X148118337Y-74866594D01*
X148131188Y-74869813D01*
X148143662Y-74874276D01*
X148155639Y-74879941D01*
X148167002Y-74886752D01*
X148177643Y-74894644D01*
X148187459Y-74903541D01*
X148196356Y-74913357D01*
X148204248Y-74923998D01*
X148211059Y-74935361D01*
X148216724Y-74947338D01*
X148221187Y-74959812D01*
X148224406Y-74972663D01*
X148226350Y-74985768D01*
X148227000Y-74999000D01*
X148227000Y-75369000D01*
X148226350Y-75382232D01*
X148224406Y-75395337D01*
X148221187Y-75408188D01*
X148216724Y-75420662D01*
X148211059Y-75432639D01*
X148204248Y-75444002D01*
X148196356Y-75454643D01*
X148187459Y-75464459D01*
X148177643Y-75473356D01*
X148167002Y-75481248D01*
X148155639Y-75488059D01*
X148143662Y-75493724D01*
X148131188Y-75498187D01*
X148118337Y-75501406D01*
X148105232Y-75503350D01*
X148092000Y-75504000D01*
X147822000Y-75504000D01*
X147808768Y-75503350D01*
X147795663Y-75501406D01*
X147782812Y-75498187D01*
X147770338Y-75493724D01*
X147758361Y-75488059D01*
X147746998Y-75481248D01*
X147736357Y-75473356D01*
X147726541Y-75464459D01*
X147717644Y-75454643D01*
X147709752Y-75444002D01*
X147702941Y-75432639D01*
X147697276Y-75420662D01*
X147692813Y-75408188D01*
X147689594Y-75395337D01*
X147687650Y-75382232D01*
X147687000Y-75369000D01*
X147687000Y-74999000D01*
X147687650Y-74985768D01*
X147689594Y-74972663D01*
X147692813Y-74959812D01*
X147697276Y-74947338D01*
X147702941Y-74935361D01*
X147709752Y-74923998D01*
X147717644Y-74913357D01*
X147726541Y-74903541D01*
X147736357Y-74894644D01*
X147746998Y-74886752D01*
X147758361Y-74879941D01*
X147770338Y-74874276D01*
X147782812Y-74869813D01*
X147795663Y-74866594D01*
X147808768Y-74864650D01*
X147822000Y-74864000D01*
X148092000Y-74864000D01*
X148105232Y-74864650D01*
G37*
G04 #@! TD.AperFunction*
G04 #@! TA.AperFunction,SMDPad,CuDef*
G36*
X147085232Y-74864650D02*
G01*
X147098337Y-74866594D01*
X147111188Y-74869813D01*
X147123662Y-74874276D01*
X147135639Y-74879941D01*
X147147002Y-74886752D01*
X147157643Y-74894644D01*
X147167459Y-74903541D01*
X147176356Y-74913357D01*
X147184248Y-74923998D01*
X147191059Y-74935361D01*
X147196724Y-74947338D01*
X147201187Y-74959812D01*
X147204406Y-74972663D01*
X147206350Y-74985768D01*
X147207000Y-74999000D01*
X147207000Y-75369000D01*
X147206350Y-75382232D01*
X147204406Y-75395337D01*
X147201187Y-75408188D01*
X147196724Y-75420662D01*
X147191059Y-75432639D01*
X147184248Y-75444002D01*
X147176356Y-75454643D01*
X147167459Y-75464459D01*
X147157643Y-75473356D01*
X147147002Y-75481248D01*
X147135639Y-75488059D01*
X147123662Y-75493724D01*
X147111188Y-75498187D01*
X147098337Y-75501406D01*
X147085232Y-75503350D01*
X147072000Y-75504000D01*
X146802000Y-75504000D01*
X146788768Y-75503350D01*
X146775663Y-75501406D01*
X146762812Y-75498187D01*
X146750338Y-75493724D01*
X146738361Y-75488059D01*
X146726998Y-75481248D01*
X146716357Y-75473356D01*
X146706541Y-75464459D01*
X146697644Y-75454643D01*
X146689752Y-75444002D01*
X146682941Y-75432639D01*
X146677276Y-75420662D01*
X146672813Y-75408188D01*
X146669594Y-75395337D01*
X146667650Y-75382232D01*
X146667000Y-75369000D01*
X146667000Y-74999000D01*
X146667650Y-74985768D01*
X146669594Y-74972663D01*
X146672813Y-74959812D01*
X146677276Y-74947338D01*
X146682941Y-74935361D01*
X146689752Y-74923998D01*
X146697644Y-74913357D01*
X146706541Y-74903541D01*
X146716357Y-74894644D01*
X146726998Y-74886752D01*
X146738361Y-74879941D01*
X146750338Y-74874276D01*
X146762812Y-74869813D01*
X146775663Y-74866594D01*
X146788768Y-74864650D01*
X146802000Y-74864000D01*
X147072000Y-74864000D01*
X147085232Y-74864650D01*
G37*
G04 #@! TD.AperFunction*
G04 #@! TA.AperFunction,SMDPad,CuDef*
G36*
X145325703Y-65511722D02*
G01*
X145340264Y-65513882D01*
X145354543Y-65517459D01*
X145368403Y-65522418D01*
X145381710Y-65528712D01*
X145394336Y-65536280D01*
X145406159Y-65545048D01*
X145417066Y-65554934D01*
X145426952Y-65565841D01*
X145435720Y-65577664D01*
X145443288Y-65590290D01*
X145449582Y-65603597D01*
X145454541Y-65617457D01*
X145458118Y-65631736D01*
X145460278Y-65646297D01*
X145461000Y-65661000D01*
X145461000Y-67311000D01*
X145460278Y-67325703D01*
X145458118Y-67340264D01*
X145454541Y-67354543D01*
X145449582Y-67368403D01*
X145443288Y-67381710D01*
X145435720Y-67394336D01*
X145426952Y-67406159D01*
X145417066Y-67417066D01*
X145406159Y-67426952D01*
X145394336Y-67435720D01*
X145381710Y-67443288D01*
X145368403Y-67449582D01*
X145354543Y-67454541D01*
X145340264Y-67458118D01*
X145325703Y-67460278D01*
X145311000Y-67461000D01*
X145011000Y-67461000D01*
X144996297Y-67460278D01*
X144981736Y-67458118D01*
X144967457Y-67454541D01*
X144953597Y-67449582D01*
X144940290Y-67443288D01*
X144927664Y-67435720D01*
X144915841Y-67426952D01*
X144904934Y-67417066D01*
X144895048Y-67406159D01*
X144886280Y-67394336D01*
X144878712Y-67381710D01*
X144872418Y-67368403D01*
X144867459Y-67354543D01*
X144863882Y-67340264D01*
X144861722Y-67325703D01*
X144861000Y-67311000D01*
X144861000Y-65661000D01*
X144861722Y-65646297D01*
X144863882Y-65631736D01*
X144867459Y-65617457D01*
X144872418Y-65603597D01*
X144878712Y-65590290D01*
X144886280Y-65577664D01*
X144895048Y-65565841D01*
X144904934Y-65554934D01*
X144915841Y-65545048D01*
X144927664Y-65536280D01*
X144940290Y-65528712D01*
X144953597Y-65522418D01*
X144967457Y-65517459D01*
X144981736Y-65513882D01*
X144996297Y-65511722D01*
X145011000Y-65511000D01*
X145311000Y-65511000D01*
X145325703Y-65511722D01*
G37*
G04 #@! TD.AperFunction*
G04 #@! TA.AperFunction,SMDPad,CuDef*
G36*
X146595703Y-65511722D02*
G01*
X146610264Y-65513882D01*
X146624543Y-65517459D01*
X146638403Y-65522418D01*
X146651710Y-65528712D01*
X146664336Y-65536280D01*
X146676159Y-65545048D01*
X146687066Y-65554934D01*
X146696952Y-65565841D01*
X146705720Y-65577664D01*
X146713288Y-65590290D01*
X146719582Y-65603597D01*
X146724541Y-65617457D01*
X146728118Y-65631736D01*
X146730278Y-65646297D01*
X146731000Y-65661000D01*
X146731000Y-67311000D01*
X146730278Y-67325703D01*
X146728118Y-67340264D01*
X146724541Y-67354543D01*
X146719582Y-67368403D01*
X146713288Y-67381710D01*
X146705720Y-67394336D01*
X146696952Y-67406159D01*
X146687066Y-67417066D01*
X146676159Y-67426952D01*
X146664336Y-67435720D01*
X146651710Y-67443288D01*
X146638403Y-67449582D01*
X146624543Y-67454541D01*
X146610264Y-67458118D01*
X146595703Y-67460278D01*
X146581000Y-67461000D01*
X146281000Y-67461000D01*
X146266297Y-67460278D01*
X146251736Y-67458118D01*
X146237457Y-67454541D01*
X146223597Y-67449582D01*
X146210290Y-67443288D01*
X146197664Y-67435720D01*
X146185841Y-67426952D01*
X146174934Y-67417066D01*
X146165048Y-67406159D01*
X146156280Y-67394336D01*
X146148712Y-67381710D01*
X146142418Y-67368403D01*
X146137459Y-67354543D01*
X146133882Y-67340264D01*
X146131722Y-67325703D01*
X146131000Y-67311000D01*
X146131000Y-65661000D01*
X146131722Y-65646297D01*
X146133882Y-65631736D01*
X146137459Y-65617457D01*
X146142418Y-65603597D01*
X146148712Y-65590290D01*
X146156280Y-65577664D01*
X146165048Y-65565841D01*
X146174934Y-65554934D01*
X146185841Y-65545048D01*
X146197664Y-65536280D01*
X146210290Y-65528712D01*
X146223597Y-65522418D01*
X146237457Y-65517459D01*
X146251736Y-65513882D01*
X146266297Y-65511722D01*
X146281000Y-65511000D01*
X146581000Y-65511000D01*
X146595703Y-65511722D01*
G37*
G04 #@! TD.AperFunction*
G04 #@! TA.AperFunction,SMDPad,CuDef*
G36*
X147865703Y-65511722D02*
G01*
X147880264Y-65513882D01*
X147894543Y-65517459D01*
X147908403Y-65522418D01*
X147921710Y-65528712D01*
X147934336Y-65536280D01*
X147946159Y-65545048D01*
X147957066Y-65554934D01*
X147966952Y-65565841D01*
X147975720Y-65577664D01*
X147983288Y-65590290D01*
X147989582Y-65603597D01*
X147994541Y-65617457D01*
X147998118Y-65631736D01*
X148000278Y-65646297D01*
X148001000Y-65661000D01*
X148001000Y-67311000D01*
X148000278Y-67325703D01*
X147998118Y-67340264D01*
X147994541Y-67354543D01*
X147989582Y-67368403D01*
X147983288Y-67381710D01*
X147975720Y-67394336D01*
X147966952Y-67406159D01*
X147957066Y-67417066D01*
X147946159Y-67426952D01*
X147934336Y-67435720D01*
X147921710Y-67443288D01*
X147908403Y-67449582D01*
X147894543Y-67454541D01*
X147880264Y-67458118D01*
X147865703Y-67460278D01*
X147851000Y-67461000D01*
X147551000Y-67461000D01*
X147536297Y-67460278D01*
X147521736Y-67458118D01*
X147507457Y-67454541D01*
X147493597Y-67449582D01*
X147480290Y-67443288D01*
X147467664Y-67435720D01*
X147455841Y-67426952D01*
X147444934Y-67417066D01*
X147435048Y-67406159D01*
X147426280Y-67394336D01*
X147418712Y-67381710D01*
X147412418Y-67368403D01*
X147407459Y-67354543D01*
X147403882Y-67340264D01*
X147401722Y-67325703D01*
X147401000Y-67311000D01*
X147401000Y-65661000D01*
X147401722Y-65646297D01*
X147403882Y-65631736D01*
X147407459Y-65617457D01*
X147412418Y-65603597D01*
X147418712Y-65590290D01*
X147426280Y-65577664D01*
X147435048Y-65565841D01*
X147444934Y-65554934D01*
X147455841Y-65545048D01*
X147467664Y-65536280D01*
X147480290Y-65528712D01*
X147493597Y-65522418D01*
X147507457Y-65517459D01*
X147521736Y-65513882D01*
X147536297Y-65511722D01*
X147551000Y-65511000D01*
X147851000Y-65511000D01*
X147865703Y-65511722D01*
G37*
G04 #@! TD.AperFunction*
G04 #@! TA.AperFunction,SMDPad,CuDef*
G36*
X149135703Y-65511722D02*
G01*
X149150264Y-65513882D01*
X149164543Y-65517459D01*
X149178403Y-65522418D01*
X149191710Y-65528712D01*
X149204336Y-65536280D01*
X149216159Y-65545048D01*
X149227066Y-65554934D01*
X149236952Y-65565841D01*
X149245720Y-65577664D01*
X149253288Y-65590290D01*
X149259582Y-65603597D01*
X149264541Y-65617457D01*
X149268118Y-65631736D01*
X149270278Y-65646297D01*
X149271000Y-65661000D01*
X149271000Y-67311000D01*
X149270278Y-67325703D01*
X149268118Y-67340264D01*
X149264541Y-67354543D01*
X149259582Y-67368403D01*
X149253288Y-67381710D01*
X149245720Y-67394336D01*
X149236952Y-67406159D01*
X149227066Y-67417066D01*
X149216159Y-67426952D01*
X149204336Y-67435720D01*
X149191710Y-67443288D01*
X149178403Y-67449582D01*
X149164543Y-67454541D01*
X149150264Y-67458118D01*
X149135703Y-67460278D01*
X149121000Y-67461000D01*
X148821000Y-67461000D01*
X148806297Y-67460278D01*
X148791736Y-67458118D01*
X148777457Y-67454541D01*
X148763597Y-67449582D01*
X148750290Y-67443288D01*
X148737664Y-67435720D01*
X148725841Y-67426952D01*
X148714934Y-67417066D01*
X148705048Y-67406159D01*
X148696280Y-67394336D01*
X148688712Y-67381710D01*
X148682418Y-67368403D01*
X148677459Y-67354543D01*
X148673882Y-67340264D01*
X148671722Y-67325703D01*
X148671000Y-67311000D01*
X148671000Y-65661000D01*
X148671722Y-65646297D01*
X148673882Y-65631736D01*
X148677459Y-65617457D01*
X148682418Y-65603597D01*
X148688712Y-65590290D01*
X148696280Y-65577664D01*
X148705048Y-65565841D01*
X148714934Y-65554934D01*
X148725841Y-65545048D01*
X148737664Y-65536280D01*
X148750290Y-65528712D01*
X148763597Y-65522418D01*
X148777457Y-65517459D01*
X148791736Y-65513882D01*
X148806297Y-65511722D01*
X148821000Y-65511000D01*
X149121000Y-65511000D01*
X149135703Y-65511722D01*
G37*
G04 #@! TD.AperFunction*
G04 #@! TA.AperFunction,SMDPad,CuDef*
G36*
X149135703Y-70461722D02*
G01*
X149150264Y-70463882D01*
X149164543Y-70467459D01*
X149178403Y-70472418D01*
X149191710Y-70478712D01*
X149204336Y-70486280D01*
X149216159Y-70495048D01*
X149227066Y-70504934D01*
X149236952Y-70515841D01*
X149245720Y-70527664D01*
X149253288Y-70540290D01*
X149259582Y-70553597D01*
X149264541Y-70567457D01*
X149268118Y-70581736D01*
X149270278Y-70596297D01*
X149271000Y-70611000D01*
X149271000Y-72261000D01*
X149270278Y-72275703D01*
X149268118Y-72290264D01*
X149264541Y-72304543D01*
X149259582Y-72318403D01*
X149253288Y-72331710D01*
X149245720Y-72344336D01*
X149236952Y-72356159D01*
X149227066Y-72367066D01*
X149216159Y-72376952D01*
X149204336Y-72385720D01*
X149191710Y-72393288D01*
X149178403Y-72399582D01*
X149164543Y-72404541D01*
X149150264Y-72408118D01*
X149135703Y-72410278D01*
X149121000Y-72411000D01*
X148821000Y-72411000D01*
X148806297Y-72410278D01*
X148791736Y-72408118D01*
X148777457Y-72404541D01*
X148763597Y-72399582D01*
X148750290Y-72393288D01*
X148737664Y-72385720D01*
X148725841Y-72376952D01*
X148714934Y-72367066D01*
X148705048Y-72356159D01*
X148696280Y-72344336D01*
X148688712Y-72331710D01*
X148682418Y-72318403D01*
X148677459Y-72304543D01*
X148673882Y-72290264D01*
X148671722Y-72275703D01*
X148671000Y-72261000D01*
X148671000Y-70611000D01*
X148671722Y-70596297D01*
X148673882Y-70581736D01*
X148677459Y-70567457D01*
X148682418Y-70553597D01*
X148688712Y-70540290D01*
X148696280Y-70527664D01*
X148705048Y-70515841D01*
X148714934Y-70504934D01*
X148725841Y-70495048D01*
X148737664Y-70486280D01*
X148750290Y-70478712D01*
X148763597Y-70472418D01*
X148777457Y-70467459D01*
X148791736Y-70463882D01*
X148806297Y-70461722D01*
X148821000Y-70461000D01*
X149121000Y-70461000D01*
X149135703Y-70461722D01*
G37*
G04 #@! TD.AperFunction*
G04 #@! TA.AperFunction,SMDPad,CuDef*
G36*
X147865703Y-70461722D02*
G01*
X147880264Y-70463882D01*
X147894543Y-70467459D01*
X147908403Y-70472418D01*
X147921710Y-70478712D01*
X147934336Y-70486280D01*
X147946159Y-70495048D01*
X147957066Y-70504934D01*
X147966952Y-70515841D01*
X147975720Y-70527664D01*
X147983288Y-70540290D01*
X147989582Y-70553597D01*
X147994541Y-70567457D01*
X147998118Y-70581736D01*
X148000278Y-70596297D01*
X148001000Y-70611000D01*
X148001000Y-72261000D01*
X148000278Y-72275703D01*
X147998118Y-72290264D01*
X147994541Y-72304543D01*
X147989582Y-72318403D01*
X147983288Y-72331710D01*
X147975720Y-72344336D01*
X147966952Y-72356159D01*
X147957066Y-72367066D01*
X147946159Y-72376952D01*
X147934336Y-72385720D01*
X147921710Y-72393288D01*
X147908403Y-72399582D01*
X147894543Y-72404541D01*
X147880264Y-72408118D01*
X147865703Y-72410278D01*
X147851000Y-72411000D01*
X147551000Y-72411000D01*
X147536297Y-72410278D01*
X147521736Y-72408118D01*
X147507457Y-72404541D01*
X147493597Y-72399582D01*
X147480290Y-72393288D01*
X147467664Y-72385720D01*
X147455841Y-72376952D01*
X147444934Y-72367066D01*
X147435048Y-72356159D01*
X147426280Y-72344336D01*
X147418712Y-72331710D01*
X147412418Y-72318403D01*
X147407459Y-72304543D01*
X147403882Y-72290264D01*
X147401722Y-72275703D01*
X147401000Y-72261000D01*
X147401000Y-70611000D01*
X147401722Y-70596297D01*
X147403882Y-70581736D01*
X147407459Y-70567457D01*
X147412418Y-70553597D01*
X147418712Y-70540290D01*
X147426280Y-70527664D01*
X147435048Y-70515841D01*
X147444934Y-70504934D01*
X147455841Y-70495048D01*
X147467664Y-70486280D01*
X147480290Y-70478712D01*
X147493597Y-70472418D01*
X147507457Y-70467459D01*
X147521736Y-70463882D01*
X147536297Y-70461722D01*
X147551000Y-70461000D01*
X147851000Y-70461000D01*
X147865703Y-70461722D01*
G37*
G04 #@! TD.AperFunction*
G04 #@! TA.AperFunction,SMDPad,CuDef*
G36*
X146595703Y-70461722D02*
G01*
X146610264Y-70463882D01*
X146624543Y-70467459D01*
X146638403Y-70472418D01*
X146651710Y-70478712D01*
X146664336Y-70486280D01*
X146676159Y-70495048D01*
X146687066Y-70504934D01*
X146696952Y-70515841D01*
X146705720Y-70527664D01*
X146713288Y-70540290D01*
X146719582Y-70553597D01*
X146724541Y-70567457D01*
X146728118Y-70581736D01*
X146730278Y-70596297D01*
X146731000Y-70611000D01*
X146731000Y-72261000D01*
X146730278Y-72275703D01*
X146728118Y-72290264D01*
X146724541Y-72304543D01*
X146719582Y-72318403D01*
X146713288Y-72331710D01*
X146705720Y-72344336D01*
X146696952Y-72356159D01*
X146687066Y-72367066D01*
X146676159Y-72376952D01*
X146664336Y-72385720D01*
X146651710Y-72393288D01*
X146638403Y-72399582D01*
X146624543Y-72404541D01*
X146610264Y-72408118D01*
X146595703Y-72410278D01*
X146581000Y-72411000D01*
X146281000Y-72411000D01*
X146266297Y-72410278D01*
X146251736Y-72408118D01*
X146237457Y-72404541D01*
X146223597Y-72399582D01*
X146210290Y-72393288D01*
X146197664Y-72385720D01*
X146185841Y-72376952D01*
X146174934Y-72367066D01*
X146165048Y-72356159D01*
X146156280Y-72344336D01*
X146148712Y-72331710D01*
X146142418Y-72318403D01*
X146137459Y-72304543D01*
X146133882Y-72290264D01*
X146131722Y-72275703D01*
X146131000Y-72261000D01*
X146131000Y-70611000D01*
X146131722Y-70596297D01*
X146133882Y-70581736D01*
X146137459Y-70567457D01*
X146142418Y-70553597D01*
X146148712Y-70540290D01*
X146156280Y-70527664D01*
X146165048Y-70515841D01*
X146174934Y-70504934D01*
X146185841Y-70495048D01*
X146197664Y-70486280D01*
X146210290Y-70478712D01*
X146223597Y-70472418D01*
X146237457Y-70467459D01*
X146251736Y-70463882D01*
X146266297Y-70461722D01*
X146281000Y-70461000D01*
X146581000Y-70461000D01*
X146595703Y-70461722D01*
G37*
G04 #@! TD.AperFunction*
G04 #@! TA.AperFunction,SMDPad,CuDef*
G36*
X145325703Y-70461722D02*
G01*
X145340264Y-70463882D01*
X145354543Y-70467459D01*
X145368403Y-70472418D01*
X145381710Y-70478712D01*
X145394336Y-70486280D01*
X145406159Y-70495048D01*
X145417066Y-70504934D01*
X145426952Y-70515841D01*
X145435720Y-70527664D01*
X145443288Y-70540290D01*
X145449582Y-70553597D01*
X145454541Y-70567457D01*
X145458118Y-70581736D01*
X145460278Y-70596297D01*
X145461000Y-70611000D01*
X145461000Y-72261000D01*
X145460278Y-72275703D01*
X145458118Y-72290264D01*
X145454541Y-72304543D01*
X145449582Y-72318403D01*
X145443288Y-72331710D01*
X145435720Y-72344336D01*
X145426952Y-72356159D01*
X145417066Y-72367066D01*
X145406159Y-72376952D01*
X145394336Y-72385720D01*
X145381710Y-72393288D01*
X145368403Y-72399582D01*
X145354543Y-72404541D01*
X145340264Y-72408118D01*
X145325703Y-72410278D01*
X145311000Y-72411000D01*
X145011000Y-72411000D01*
X144996297Y-72410278D01*
X144981736Y-72408118D01*
X144967457Y-72404541D01*
X144953597Y-72399582D01*
X144940290Y-72393288D01*
X144927664Y-72385720D01*
X144915841Y-72376952D01*
X144904934Y-72367066D01*
X144895048Y-72356159D01*
X144886280Y-72344336D01*
X144878712Y-72331710D01*
X144872418Y-72318403D01*
X144867459Y-72304543D01*
X144863882Y-72290264D01*
X144861722Y-72275703D01*
X144861000Y-72261000D01*
X144861000Y-70611000D01*
X144861722Y-70596297D01*
X144863882Y-70581736D01*
X144867459Y-70567457D01*
X144872418Y-70553597D01*
X144878712Y-70540290D01*
X144886280Y-70527664D01*
X144895048Y-70515841D01*
X144904934Y-70504934D01*
X144915841Y-70495048D01*
X144927664Y-70486280D01*
X144940290Y-70478712D01*
X144953597Y-70472418D01*
X144967457Y-70467459D01*
X144981736Y-70463882D01*
X144996297Y-70461722D01*
X145011000Y-70461000D01*
X145311000Y-70461000D01*
X145325703Y-70461722D01*
G37*
G04 #@! TD.AperFunction*
D17*
X149860000Y-76200000D03*
X142875000Y-73660000D03*
X142875000Y-71755000D03*
X142875000Y-69850000D03*
X145415000Y-73660000D03*
X137795000Y-76200000D03*
X147955000Y-69215000D03*
D18*
X136715500Y-75057000D03*
X137477500Y-71247000D03*
D19*
X148145500Y-124904500D02*
X148145500Y-79748501D01*
D20*
X148142001Y-79752000D02*
X148142001Y-76647999D01*
X132902001Y-79752000D02*
X132902001Y-76835000D01*
D19*
X148142001Y-140147999D02*
X148142001Y-124907999D01*
X144780000Y-143510000D02*
X148142001Y-140147999D01*
X136525000Y-143510000D02*
X144780000Y-143510000D01*
X132902001Y-79752000D02*
X132902001Y-139887001D01*
X132902001Y-139887001D02*
X136525000Y-143510000D01*
D20*
X134621500Y-72517000D02*
X135953500Y-72517000D01*
X137223500Y-73787000D02*
X139571500Y-73787000D01*
X135953500Y-72517000D02*
X137223500Y-73787000D01*
D21*
X131887500Y-73660000D02*
X131887500Y-73408000D01*
X132877500Y-72545000D02*
X132877500Y-72263000D01*
X131887500Y-73535000D02*
X132877500Y-72545000D01*
X133131500Y-72517000D02*
X132877500Y-72263000D01*
X134621500Y-72517000D02*
X133131500Y-72517000D01*
D20*
X131826000Y-66360000D02*
X133670000Y-66360000D01*
X135636000Y-64008000D02*
X138049000Y-61595000D01*
X135636000Y-68326000D02*
X133670000Y-66360000D01*
X135636000Y-68846700D02*
X135636000Y-68326000D01*
X135636000Y-68846700D02*
X135636000Y-64262000D01*
X139599500Y-71219000D02*
X139571500Y-71247000D01*
X141414500Y-71219000D02*
X139599500Y-71219000D01*
X134621500Y-75057000D02*
X134621500Y-75057000D01*
X136715500Y-75057000D02*
X134621500Y-75057000D01*
X139571500Y-71247000D02*
X137477500Y-71247000D01*
X134240500Y-75438000D02*
X134621500Y-75057000D01*
X132907500Y-75438000D02*
X134240500Y-75438000D01*
X137160000Y-68453000D02*
X137160000Y-69215000D01*
X146431000Y-67818000D02*
X146431000Y-66486000D01*
X145989000Y-68260000D02*
X146431000Y-67818000D01*
X143825000Y-67851000D02*
X143764000Y-67790000D01*
X143825000Y-68260000D02*
X143825000Y-67851000D01*
X143825000Y-68260000D02*
X145989000Y-68260000D01*
X137467300Y-68260000D02*
X143825000Y-68260000D01*
X137477500Y-69532500D02*
X137160000Y-69215000D01*
X137477500Y-71247000D02*
X137477500Y-69532500D01*
X132877500Y-70739000D02*
X132877500Y-70901500D01*
X133223000Y-71247000D02*
X134621500Y-71247000D01*
X132877500Y-70901500D02*
X133223000Y-71247000D01*
X146926000Y-73660000D02*
X146926000Y-73419000D01*
X147701000Y-72644000D02*
X147701000Y-71436000D01*
X146926000Y-73419000D02*
X147701000Y-72644000D01*
X146926000Y-75173000D02*
X146937000Y-75184000D01*
X146926000Y-73660000D02*
X146926000Y-75173000D01*
X143721000Y-75311000D02*
X143594000Y-75184000D01*
X146937000Y-75184000D02*
X143848000Y-75184000D01*
X147701000Y-65405000D02*
X147701000Y-66486000D01*
X143129000Y-61468000D02*
X143764000Y-61468000D01*
X143764000Y-61468000D02*
X147701000Y-65405000D01*
D21*
X132907500Y-73787000D02*
X132907500Y-74039000D01*
X131887500Y-74932000D02*
X131887500Y-75311000D01*
X132907500Y-74039000D02*
X131887500Y-75059000D01*
X132907500Y-73787000D02*
X134621500Y-73787000D01*
D20*
X141394000Y-73578000D02*
X141351000Y-73535000D01*
X141394000Y-75311000D02*
X141394000Y-73578000D01*
X141394000Y-75819000D02*
X141394000Y-75311000D01*
X140522001Y-82038000D02*
X140522001Y-76563999D01*
X140522001Y-76690999D02*
X141394000Y-75819000D01*
D22*
X140522001Y-81276000D02*
X140522001Y-135890000D01*
D20*
X139573500Y-72515000D02*
X139571500Y-72517000D01*
X141414500Y-72515000D02*
X139573500Y-72515000D01*
D23*
G36*
X150753001Y-76708000D02*
G01*
X141968711Y-76708000D01*
X142089908Y-76586803D01*
X142129396Y-76554396D01*
X142163237Y-76513161D01*
X142258734Y-76396798D01*
X142325525Y-76271840D01*
X142354841Y-76216993D01*
X142414024Y-76021895D01*
X142429000Y-75869838D01*
X142429000Y-75869835D01*
X142434007Y-75819000D01*
X142429000Y-75768165D01*
X142429000Y-75184000D01*
X142553994Y-75184000D01*
X142573977Y-75386895D01*
X142633160Y-75581993D01*
X142729266Y-75761797D01*
X142748416Y-75785132D01*
X142754498Y-75805180D01*
X142813463Y-75915494D01*
X142892815Y-76012185D01*
X142989506Y-76091537D01*
X143099820Y-76150502D01*
X143119868Y-76156584D01*
X143143203Y-76175734D01*
X143323007Y-76271840D01*
X143518105Y-76331023D01*
X143720999Y-76351006D01*
X143923895Y-76331023D01*
X144118993Y-76271840D01*
X144217851Y-76219000D01*
X146886171Y-76219000D01*
X146936999Y-76224006D01*
X146987827Y-76219000D01*
X146987838Y-76219000D01*
X147139895Y-76204024D01*
X147334993Y-76144841D01*
X147436318Y-76090682D01*
X147554798Y-76128226D01*
X147671250Y-76139000D01*
X147830000Y-75980250D01*
X147830000Y-75708915D01*
X147897841Y-75581993D01*
X147957024Y-75386895D01*
X147964498Y-75311000D01*
X148084000Y-75311000D01*
X148084000Y-75980250D01*
X148242750Y-76139000D01*
X148359202Y-76128226D01*
X148478442Y-76090441D01*
X148588020Y-76030118D01*
X148683724Y-75949578D01*
X148761876Y-75851914D01*
X148819473Y-75740879D01*
X148854301Y-75620742D01*
X148865023Y-75496119D01*
X148862000Y-75469750D01*
X148703250Y-75311000D01*
X148084000Y-75311000D01*
X147964498Y-75311000D01*
X147977007Y-75184000D01*
X147962529Y-75037000D01*
X148084000Y-75037000D01*
X148084000Y-75057000D01*
X148703250Y-75057000D01*
X148862000Y-74898250D01*
X148865023Y-74871881D01*
X148856410Y-74771770D01*
X148926000Y-74773072D01*
X149050482Y-74760812D01*
X149170180Y-74724502D01*
X149280494Y-74665537D01*
X149377185Y-74586185D01*
X149456537Y-74489494D01*
X149515502Y-74379180D01*
X149551812Y-74259482D01*
X149564072Y-74135000D01*
X149561000Y-73945750D01*
X149402250Y-73787000D01*
X148603000Y-73787000D01*
X148603000Y-73807000D01*
X148349000Y-73807000D01*
X148349000Y-73787000D01*
X148329000Y-73787000D01*
X148329000Y-73533000D01*
X148349000Y-73533000D01*
X148349000Y-73513000D01*
X148603000Y-73513000D01*
X148603000Y-73533000D01*
X149402250Y-73533000D01*
X149561000Y-73374250D01*
X149564072Y-73185000D01*
X149551812Y-73060518D01*
X149531035Y-72992027D01*
X149625494Y-72941537D01*
X149722185Y-72862185D01*
X149801537Y-72765494D01*
X149860502Y-72655180D01*
X149896812Y-72535482D01*
X149909072Y-72411000D01*
X149906000Y-71721750D01*
X149747250Y-71563000D01*
X149098000Y-71563000D01*
X149098000Y-71583000D01*
X148844000Y-71583000D01*
X148844000Y-71563000D01*
X148824000Y-71563000D01*
X148824000Y-71309000D01*
X148844000Y-71309000D01*
X148844000Y-69984750D01*
X149098000Y-69984750D01*
X149098000Y-71309000D01*
X149747250Y-71309000D01*
X149906000Y-71150250D01*
X149909072Y-70461000D01*
X149896812Y-70336518D01*
X149860502Y-70216820D01*
X149801537Y-70106506D01*
X149722185Y-70009815D01*
X149625494Y-69930463D01*
X149515180Y-69871498D01*
X149395482Y-69835188D01*
X149271000Y-69822928D01*
X149256750Y-69826000D01*
X149098000Y-69984750D01*
X148844000Y-69984750D01*
X148685250Y-69826000D01*
X148671000Y-69822928D01*
X148546518Y-69835188D01*
X148426820Y-69871498D01*
X148316506Y-69930463D01*
X148286936Y-69954730D01*
X148152582Y-69882916D01*
X148004745Y-69838071D01*
X147851000Y-69822928D01*
X147551000Y-69822928D01*
X147397255Y-69838071D01*
X147249418Y-69882916D01*
X147113171Y-69955742D01*
X147066000Y-69994454D01*
X147018829Y-69955742D01*
X146882582Y-69882916D01*
X146734745Y-69838071D01*
X146581000Y-69822928D01*
X146281000Y-69822928D01*
X146127255Y-69838071D01*
X145979418Y-69882916D01*
X145843171Y-69955742D01*
X145796000Y-69994454D01*
X145748829Y-69955742D01*
X145612582Y-69882916D01*
X145464745Y-69838071D01*
X145311000Y-69822928D01*
X145011000Y-69822928D01*
X144857255Y-69838071D01*
X144709418Y-69882916D01*
X144573171Y-69955742D01*
X144453749Y-70053749D01*
X144355742Y-70173171D01*
X144282916Y-70309418D01*
X144238071Y-70457255D01*
X144222928Y-70611000D01*
X144222928Y-72261000D01*
X144238071Y-72414745D01*
X144282916Y-72562582D01*
X144355742Y-72698829D01*
X144453749Y-72818251D01*
X144573171Y-72916258D01*
X144709418Y-72989084D01*
X144857255Y-73033929D01*
X145011000Y-73049072D01*
X145311000Y-73049072D01*
X145464745Y-73033929D01*
X145612582Y-72989084D01*
X145748829Y-72916258D01*
X145796000Y-72877546D01*
X145843171Y-72916258D01*
X145958147Y-72977714D01*
X145903625Y-73079717D01*
X145854512Y-73241623D01*
X145837928Y-73410000D01*
X145837928Y-73910000D01*
X145854512Y-74078377D01*
X145875935Y-74149000D01*
X143797162Y-74149000D01*
X143720995Y-74156502D01*
X143594000Y-74143994D01*
X143391105Y-74163977D01*
X143196007Y-74223160D01*
X143016203Y-74319266D01*
X142858604Y-74448604D01*
X142729266Y-74606203D01*
X142633160Y-74786007D01*
X142573977Y-74981105D01*
X142553994Y-75184000D01*
X142429000Y-75184000D01*
X142429000Y-73628827D01*
X142434006Y-73577999D01*
X142429000Y-73527171D01*
X142429000Y-73527162D01*
X142414024Y-73375105D01*
X142354841Y-73180007D01*
X142293730Y-73065676D01*
X142375341Y-72912993D01*
X142434524Y-72717895D01*
X142454507Y-72515000D01*
X142434524Y-72312105D01*
X142375341Y-72117007D01*
X142279234Y-71937203D01*
X142221620Y-71867000D01*
X142279234Y-71796797D01*
X142375341Y-71616993D01*
X142434524Y-71421895D01*
X142454507Y-71219000D01*
X142434524Y-71016105D01*
X142375341Y-70821007D01*
X142287076Y-70655875D01*
X142296000Y-70544750D01*
X142137250Y-70386000D01*
X142030965Y-70386000D01*
X141992297Y-70354266D01*
X141812493Y-70258159D01*
X141617395Y-70198976D01*
X141465338Y-70184000D01*
X141204000Y-70184000D01*
X141204000Y-70132000D01*
X141224000Y-70132000D01*
X141224000Y-69502750D01*
X141478000Y-69502750D01*
X141478000Y-70132000D01*
X142137250Y-70132000D01*
X142296000Y-69973250D01*
X142286235Y-69851652D01*
X142249377Y-69732122D01*
X142189908Y-69622079D01*
X142110113Y-69525753D01*
X142013059Y-69446844D01*
X141902476Y-69388386D01*
X141782613Y-69352625D01*
X141658077Y-69340935D01*
X141636750Y-69344000D01*
X141478000Y-69502750D01*
X141224000Y-69502750D01*
X141065250Y-69344000D01*
X141043923Y-69340935D01*
X140919387Y-69352625D01*
X140799524Y-69388386D01*
X140688941Y-69446844D01*
X140591887Y-69525753D01*
X140512092Y-69622079D01*
X140452623Y-69732122D01*
X140415765Y-69851652D01*
X140406000Y-69973250D01*
X140564748Y-70131998D01*
X140406000Y-70131998D01*
X140406000Y-70184000D01*
X139650335Y-70184000D01*
X139599500Y-70178993D01*
X139548665Y-70184000D01*
X139548662Y-70184000D01*
X139396605Y-70198976D01*
X139353671Y-70212000D01*
X138512500Y-70212000D01*
X138512500Y-69583335D01*
X138517507Y-69532500D01*
X138512500Y-69481662D01*
X138497524Y-69329605D01*
X138487027Y-69295000D01*
X138564787Y-69295000D01*
X138631150Y-69330472D01*
X138797746Y-69381008D01*
X138971000Y-69398072D01*
X139921000Y-69398072D01*
X140094254Y-69381008D01*
X140260850Y-69330472D01*
X140327213Y-69295000D01*
X143774162Y-69295000D01*
X143825000Y-69300007D01*
X143875838Y-69295000D01*
X145938172Y-69295000D01*
X145989000Y-69300006D01*
X146039828Y-69295000D01*
X146039838Y-69295000D01*
X146191895Y-69280024D01*
X146386993Y-69220841D01*
X146566797Y-69124734D01*
X146724396Y-68995396D01*
X146756807Y-68955903D01*
X147126903Y-68585807D01*
X147166396Y-68553396D01*
X147295734Y-68395797D01*
X147391841Y-68215993D01*
X147430897Y-68087243D01*
X147551000Y-68099072D01*
X147851000Y-68099072D01*
X148004745Y-68083929D01*
X148152582Y-68039084D01*
X148288829Y-67966258D01*
X148336000Y-67927546D01*
X148383171Y-67966258D01*
X148519418Y-68039084D01*
X148667255Y-68083929D01*
X148821000Y-68099072D01*
X149121000Y-68099072D01*
X149274745Y-68083929D01*
X149422582Y-68039084D01*
X149558829Y-67966258D01*
X149678251Y-67868251D01*
X149776258Y-67748829D01*
X149849084Y-67612582D01*
X149893929Y-67464745D01*
X149909072Y-67311000D01*
X149909072Y-65661000D01*
X149893929Y-65507255D01*
X149849084Y-65359418D01*
X149776258Y-65223171D01*
X149678251Y-65103749D01*
X149558829Y-65005742D01*
X149422582Y-64932916D01*
X149274745Y-64888071D01*
X149121000Y-64872928D01*
X148821000Y-64872928D01*
X148667255Y-64888071D01*
X148607893Y-64906078D01*
X148597419Y-64886482D01*
X148565734Y-64827202D01*
X148468803Y-64709092D01*
X148436396Y-64669604D01*
X148396908Y-64637197D01*
X144531807Y-60772097D01*
X144499396Y-60732604D01*
X144341797Y-60603266D01*
X144161993Y-60507159D01*
X144132241Y-60498134D01*
X144075632Y-60441525D01*
X143832411Y-60279010D01*
X143562158Y-60167068D01*
X143275260Y-60110000D01*
X142982740Y-60110000D01*
X142695842Y-60167068D01*
X142425589Y-60279010D01*
X142182368Y-60441525D01*
X141975525Y-60648368D01*
X141853805Y-60830534D01*
X141784178Y-60713645D01*
X141589269Y-60497412D01*
X141355920Y-60323359D01*
X141093099Y-60198175D01*
X140945890Y-60153524D01*
X140716000Y-60274845D01*
X140716000Y-61468000D01*
X140736000Y-61468000D01*
X140736000Y-61722000D01*
X140716000Y-61722000D01*
X140716000Y-62915155D01*
X140945890Y-63036476D01*
X141093099Y-62991825D01*
X141355920Y-62866641D01*
X141589269Y-62692588D01*
X141784178Y-62476355D01*
X141853805Y-62359466D01*
X141975525Y-62541632D01*
X142182368Y-62748475D01*
X142425589Y-62910990D01*
X142695842Y-63022932D01*
X142982740Y-63080000D01*
X143275260Y-63080000D01*
X143562158Y-63022932D01*
X143769386Y-62937096D01*
X145840348Y-65008059D01*
X145796000Y-65044454D01*
X145748829Y-65005742D01*
X145612582Y-64932916D01*
X145464745Y-64888071D01*
X145311000Y-64872928D01*
X145011000Y-64872928D01*
X144857255Y-64888071D01*
X144709418Y-64932916D01*
X144573171Y-65005742D01*
X144453749Y-65103749D01*
X144355742Y-65223171D01*
X144282916Y-65359418D01*
X144238071Y-65507255D01*
X144222928Y-65661000D01*
X144222928Y-65931774D01*
X144195613Y-65923625D01*
X144071077Y-65911935D01*
X144049750Y-65915000D01*
X143891000Y-66073750D01*
X143891000Y-66703000D01*
X143911000Y-66703000D01*
X143911000Y-66764472D01*
X143764000Y-66749994D01*
X143561105Y-66769977D01*
X143366007Y-66829160D01*
X143186203Y-66925266D01*
X143147535Y-66957000D01*
X142977750Y-66957000D01*
X142819000Y-67115750D01*
X142827773Y-67225000D01*
X140692915Y-67225000D01*
X140701537Y-67214494D01*
X140760502Y-67104180D01*
X140796812Y-66984482D01*
X140809072Y-66860000D01*
X140806000Y-66645750D01*
X140704500Y-66544250D01*
X142819000Y-66544250D01*
X142977750Y-66703000D01*
X143637000Y-66703000D01*
X143637000Y-66073750D01*
X143478250Y-65915000D01*
X143456923Y-65911935D01*
X143332387Y-65923625D01*
X143212524Y-65959386D01*
X143101941Y-66017844D01*
X143004887Y-66096753D01*
X142925092Y-66193079D01*
X142865623Y-66303122D01*
X142828765Y-66422652D01*
X142819000Y-66544250D01*
X140704500Y-66544250D01*
X140647250Y-66487000D01*
X139573000Y-66487000D01*
X139573000Y-66507000D01*
X139319000Y-66507000D01*
X139319000Y-66487000D01*
X138244750Y-66487000D01*
X138086000Y-66645750D01*
X138082928Y-66860000D01*
X138095188Y-66984482D01*
X138131498Y-67104180D01*
X138190463Y-67214494D01*
X138199085Y-67225000D01*
X137416462Y-67225000D01*
X137264405Y-67239976D01*
X137069307Y-67299159D01*
X136889503Y-67395266D01*
X136776969Y-67487620D01*
X136762007Y-67492159D01*
X136671000Y-67540803D01*
X136671000Y-65860000D01*
X138082928Y-65860000D01*
X138086000Y-66074250D01*
X138244750Y-66233000D01*
X139319000Y-66233000D01*
X139319000Y-65383750D01*
X139573000Y-65383750D01*
X139573000Y-66233000D01*
X140647250Y-66233000D01*
X140806000Y-66074250D01*
X140809072Y-65860000D01*
X140796812Y-65735518D01*
X140760502Y-65615820D01*
X140701537Y-65505506D01*
X140622185Y-65408815D01*
X140525494Y-65329463D01*
X140415180Y-65270498D01*
X140295482Y-65234188D01*
X140171000Y-65221928D01*
X139731750Y-65225000D01*
X139573000Y-65383750D01*
X139319000Y-65383750D01*
X139160250Y-65225000D01*
X138721000Y-65221928D01*
X138596518Y-65234188D01*
X138476820Y-65270498D01*
X138366506Y-65329463D01*
X138269815Y-65408815D01*
X138190463Y-65505506D01*
X138131498Y-65615820D01*
X138095188Y-65735518D01*
X138082928Y-65860000D01*
X136671000Y-65860000D01*
X136671000Y-65396625D01*
X136760482Y-65387812D01*
X136880180Y-65351502D01*
X136990494Y-65292537D01*
X137087185Y-65213185D01*
X137166537Y-65116494D01*
X137225502Y-65006180D01*
X137261812Y-64886482D01*
X137274072Y-64762000D01*
X137274072Y-63833638D01*
X138024639Y-63083072D01*
X138899000Y-63083072D01*
X139023482Y-63070812D01*
X139143180Y-63034502D01*
X139253494Y-62975537D01*
X139350185Y-62896185D01*
X139429537Y-62799494D01*
X139488502Y-62689180D01*
X139512966Y-62608534D01*
X139588731Y-62692588D01*
X139822080Y-62866641D01*
X140084901Y-62991825D01*
X140232110Y-63036476D01*
X140462000Y-62915155D01*
X140462000Y-61722000D01*
X140442000Y-61722000D01*
X140442000Y-61468000D01*
X140462000Y-61468000D01*
X140462000Y-60274845D01*
X140232110Y-60153524D01*
X140084901Y-60198175D01*
X139822080Y-60323359D01*
X139588731Y-60497412D01*
X139512966Y-60581466D01*
X139488502Y-60500820D01*
X139429537Y-60390506D01*
X139350185Y-60293815D01*
X139253494Y-60214463D01*
X139143180Y-60155498D01*
X139023482Y-60119188D01*
X138899000Y-60106928D01*
X137199000Y-60106928D01*
X137074518Y-60119188D01*
X136954820Y-60155498D01*
X136844506Y-60214463D01*
X136747815Y-60293815D01*
X136668463Y-60390506D01*
X136609498Y-60500820D01*
X136573188Y-60620518D01*
X136560928Y-60745000D01*
X136560928Y-61619361D01*
X135056362Y-63123928D01*
X134636000Y-63123928D01*
X134511518Y-63136188D01*
X134391820Y-63172498D01*
X134281506Y-63231463D01*
X134184815Y-63310815D01*
X134105463Y-63407506D01*
X134046498Y-63517820D01*
X134010188Y-63637518D01*
X133997928Y-63762000D01*
X133997928Y-64762000D01*
X134010188Y-64886482D01*
X134046498Y-65006180D01*
X134105463Y-65116494D01*
X134184815Y-65213185D01*
X134281506Y-65292537D01*
X134391820Y-65351502D01*
X134511518Y-65387812D01*
X134601001Y-65396625D01*
X134601001Y-65827291D01*
X134437807Y-65664097D01*
X134405396Y-65624604D01*
X134247797Y-65495266D01*
X134067993Y-65399159D01*
X133872895Y-65339976D01*
X133720838Y-65325000D01*
X133720828Y-65325000D01*
X133670000Y-65319994D01*
X133619172Y-65325000D01*
X132707213Y-65325000D01*
X132640850Y-65289528D01*
X132474254Y-65238992D01*
X132301000Y-65221928D01*
X131351000Y-65221928D01*
X131177746Y-65238992D01*
X131011150Y-65289528D01*
X130857614Y-65371595D01*
X130723038Y-65482038D01*
X130612595Y-65616614D01*
X130530528Y-65770150D01*
X130479992Y-65936746D01*
X130462928Y-66110000D01*
X130462928Y-66610000D01*
X130479992Y-66783254D01*
X130530528Y-66949850D01*
X130612595Y-67103386D01*
X130723038Y-67237962D01*
X130729594Y-67243342D01*
X130649815Y-67308815D01*
X130570463Y-67405506D01*
X130511498Y-67515820D01*
X130475188Y-67635518D01*
X130462928Y-67760000D01*
X130466000Y-67974250D01*
X130624750Y-68133000D01*
X131699000Y-68133000D01*
X131699000Y-68113000D01*
X131953000Y-68113000D01*
X131953000Y-68133000D01*
X133027250Y-68133000D01*
X133186000Y-67974250D01*
X133189072Y-67760000D01*
X133176812Y-67635518D01*
X133140502Y-67515820D01*
X133081537Y-67405506D01*
X133072915Y-67395000D01*
X133241290Y-67395000D01*
X133498819Y-67652529D01*
X133437921Y-67704119D01*
X133360089Y-67802038D01*
X133302855Y-67913260D01*
X133268420Y-68033511D01*
X133258106Y-68158169D01*
X133261100Y-68560950D01*
X133419850Y-68719700D01*
X134023100Y-68719700D01*
X134023100Y-68699700D01*
X134251700Y-68699700D01*
X134251700Y-68719700D01*
X134284400Y-68719700D01*
X134284400Y-68973700D01*
X134251700Y-68973700D01*
X134251700Y-70021450D01*
X134410450Y-70180200D01*
X134512944Y-70168990D01*
X134632060Y-70130815D01*
X134741439Y-70070134D01*
X134836879Y-69989281D01*
X134867731Y-69950467D01*
X134905415Y-69996385D01*
X135002106Y-70075737D01*
X135112420Y-70134702D01*
X135232118Y-70171012D01*
X135356600Y-70183272D01*
X135915400Y-70183272D01*
X136039882Y-70171012D01*
X136159580Y-70134702D01*
X136269894Y-70075737D01*
X136366585Y-69996385D01*
X136404350Y-69950368D01*
X136442115Y-69996385D01*
X136442501Y-69996702D01*
X136442500Y-71145061D01*
X136442500Y-71196162D01*
X136437493Y-71247000D01*
X136442500Y-71297837D01*
X136442500Y-71348939D01*
X136452469Y-71399057D01*
X136457476Y-71449895D01*
X136472304Y-71498777D01*
X136482274Y-71548898D01*
X136501831Y-71596113D01*
X136516459Y-71644335D01*
X136351493Y-71556159D01*
X136222743Y-71517103D01*
X136234572Y-71397000D01*
X136234572Y-71097000D01*
X136219429Y-70943255D01*
X136174584Y-70795418D01*
X136101758Y-70659171D01*
X136003751Y-70539749D01*
X135884329Y-70441742D01*
X135748082Y-70368916D01*
X135600245Y-70324071D01*
X135446500Y-70308928D01*
X135062091Y-70308928D01*
X135019493Y-70286159D01*
X134824395Y-70226976D01*
X134672338Y-70212000D01*
X133769385Y-70212000D01*
X133743200Y-70163011D01*
X133761856Y-70168990D01*
X133864350Y-70180200D01*
X134023100Y-70021450D01*
X134023100Y-68973700D01*
X133419850Y-68973700D01*
X133261100Y-69132450D01*
X133258106Y-69535231D01*
X133268420Y-69659889D01*
X133302855Y-69780140D01*
X133311831Y-69797582D01*
X133275492Y-69778159D01*
X133080394Y-69718976D01*
X132877500Y-69698993D01*
X132674605Y-69718976D01*
X132479507Y-69778159D01*
X132392546Y-69824640D01*
X132324848Y-69803765D01*
X132203250Y-69794000D01*
X132044500Y-69952750D01*
X132044500Y-70122535D01*
X132012766Y-70161203D01*
X131916659Y-70341008D01*
X131857476Y-70536106D01*
X131842500Y-70688163D01*
X131842500Y-70850672D01*
X131837494Y-70901500D01*
X131842500Y-70952328D01*
X131842500Y-70952338D01*
X131857476Y-71104395D01*
X131916659Y-71299493D01*
X132012766Y-71479297D01*
X132044500Y-71517965D01*
X132044500Y-71746892D01*
X132018655Y-71795245D01*
X131974378Y-71941206D01*
X131963001Y-72056726D01*
X131956029Y-72079708D01*
X131955591Y-72084158D01*
X131948985Y-72151225D01*
X131710211Y-72390000D01*
X131161250Y-72390000D01*
X131002500Y-72548750D01*
X130999435Y-72570077D01*
X131011125Y-72694613D01*
X131046886Y-72814476D01*
X131095453Y-72906348D01*
X131019493Y-73048460D01*
X130966029Y-73224708D01*
X130952500Y-73362068D01*
X130952500Y-73489068D01*
X130947976Y-73535000D01*
X130952500Y-73580932D01*
X130952500Y-73705931D01*
X130966029Y-73843291D01*
X130979428Y-73887462D01*
X130979428Y-73972000D01*
X130994282Y-74122819D01*
X131038275Y-74267842D01*
X131109714Y-74401496D01*
X131111515Y-74403691D01*
X131106314Y-74410029D01*
X131019493Y-74572461D01*
X130966029Y-74748709D01*
X130952500Y-74886069D01*
X130952500Y-75013068D01*
X130947976Y-75059000D01*
X130952500Y-75104932D01*
X130952500Y-75356932D01*
X130966029Y-75494292D01*
X130979428Y-75538463D01*
X130979428Y-75623000D01*
X130994282Y-75773819D01*
X131038275Y-75918842D01*
X131109714Y-76052496D01*
X131205856Y-76169644D01*
X131323004Y-76265786D01*
X131456658Y-76337225D01*
X131601681Y-76381218D01*
X131752500Y-76396072D01*
X132022500Y-76396072D01*
X132173319Y-76381218D01*
X132318342Y-76337225D01*
X132356287Y-76316943D01*
X132509507Y-76398841D01*
X132704605Y-76458024D01*
X132856662Y-76473000D01*
X134189672Y-76473000D01*
X134240500Y-76478006D01*
X134291328Y-76473000D01*
X134291338Y-76473000D01*
X134443395Y-76458024D01*
X134638493Y-76398841D01*
X134818297Y-76302734D01*
X134975896Y-76173396D01*
X135008307Y-76133903D01*
X135050210Y-76092000D01*
X136817439Y-76092000D01*
X136867557Y-76082031D01*
X136918395Y-76077024D01*
X136967277Y-76062196D01*
X137017398Y-76052226D01*
X137064613Y-76032669D01*
X137113493Y-76017841D01*
X137158542Y-75993762D01*
X137205756Y-75974205D01*
X137248246Y-75945814D01*
X137293297Y-75921734D01*
X137332784Y-75889328D01*
X137375274Y-75860937D01*
X137411408Y-75824803D01*
X137450896Y-75792396D01*
X137483304Y-75752907D01*
X137519437Y-75716774D01*
X137547828Y-75674284D01*
X137580234Y-75634797D01*
X137604314Y-75589746D01*
X137632705Y-75547256D01*
X137652262Y-75500042D01*
X137676341Y-75454993D01*
X137691169Y-75406113D01*
X137710726Y-75358898D01*
X137711103Y-75357000D01*
X137958428Y-75357000D01*
X137970688Y-75481482D01*
X138006998Y-75601180D01*
X138065963Y-75711494D01*
X138145315Y-75808185D01*
X138242006Y-75887537D01*
X138352320Y-75946502D01*
X138472018Y-75982812D01*
X138596500Y-75995072D01*
X139285750Y-75992000D01*
X139444500Y-75833250D01*
X139444500Y-75184000D01*
X138120250Y-75184000D01*
X137961500Y-75342750D01*
X137958428Y-75357000D01*
X137711103Y-75357000D01*
X137720696Y-75308777D01*
X137735524Y-75259895D01*
X137740531Y-75209057D01*
X137750500Y-75158939D01*
X137750500Y-75107838D01*
X137755507Y-75057000D01*
X137750500Y-75006162D01*
X137750500Y-74955061D01*
X137740531Y-74904943D01*
X137735524Y-74854105D01*
X137725785Y-74822000D01*
X138012250Y-74822000D01*
X138120250Y-74930000D01*
X139444500Y-74930000D01*
X139444500Y-74910000D01*
X139698500Y-74910000D01*
X139698500Y-74930000D01*
X139718500Y-74930000D01*
X139718500Y-75184000D01*
X139698500Y-75184000D01*
X139698500Y-75833250D01*
X139744797Y-75879547D01*
X139657268Y-75986202D01*
X139561161Y-76166006D01*
X139501978Y-76361104D01*
X139487002Y-76513161D01*
X139487002Y-76640161D01*
X139481995Y-76690999D01*
X139483669Y-76708000D01*
X130425000Y-76708000D01*
X130425000Y-71046077D01*
X130999435Y-71046077D01*
X131011125Y-71170613D01*
X131046886Y-71290476D01*
X131105344Y-71401059D01*
X131184253Y-71498113D01*
X131187738Y-71501000D01*
X131184253Y-71503887D01*
X131105344Y-71600941D01*
X131046886Y-71711524D01*
X131011125Y-71831387D01*
X130999435Y-71955923D01*
X131002500Y-71977250D01*
X131161250Y-72136000D01*
X131790500Y-72136000D01*
X131790500Y-70866000D01*
X131161250Y-70866000D01*
X131002500Y-71024750D01*
X130999435Y-71046077D01*
X130425000Y-71046077D01*
X130425000Y-70431923D01*
X130999435Y-70431923D01*
X131002500Y-70453250D01*
X131161250Y-70612000D01*
X131790500Y-70612000D01*
X131790500Y-69952750D01*
X131631750Y-69794000D01*
X131510152Y-69803765D01*
X131390622Y-69840623D01*
X131280579Y-69900092D01*
X131184253Y-69979887D01*
X131105344Y-70076941D01*
X131046886Y-70187524D01*
X131011125Y-70307387D01*
X130999435Y-70431923D01*
X130425000Y-70431923D01*
X130425000Y-68760000D01*
X130462928Y-68760000D01*
X130475188Y-68884482D01*
X130511498Y-69004180D01*
X130570463Y-69114494D01*
X130649815Y-69211185D01*
X130746506Y-69290537D01*
X130856820Y-69349502D01*
X130976518Y-69385812D01*
X131101000Y-69398072D01*
X131540250Y-69395000D01*
X131699000Y-69236250D01*
X131699000Y-68387000D01*
X131953000Y-68387000D01*
X131953000Y-69236250D01*
X132111750Y-69395000D01*
X132551000Y-69398072D01*
X132675482Y-69385812D01*
X132795180Y-69349502D01*
X132905494Y-69290537D01*
X133002185Y-69211185D01*
X133081537Y-69114494D01*
X133140502Y-69004180D01*
X133176812Y-68884482D01*
X133189072Y-68760000D01*
X133186000Y-68545750D01*
X133027250Y-68387000D01*
X131953000Y-68387000D01*
X131699000Y-68387000D01*
X130624750Y-68387000D01*
X130466000Y-68545750D01*
X130462928Y-68760000D01*
X130425000Y-68760000D01*
X130425000Y-55876000D01*
X150753001Y-55876000D01*
X150753001Y-76708000D01*
G37*
X150753001Y-76708000D02*
X141968711Y-76708000D01*
X142089908Y-76586803D01*
X142129396Y-76554396D01*
X142163237Y-76513161D01*
X142258734Y-76396798D01*
X142325525Y-76271840D01*
X142354841Y-76216993D01*
X142414024Y-76021895D01*
X142429000Y-75869838D01*
X142429000Y-75869835D01*
X142434007Y-75819000D01*
X142429000Y-75768165D01*
X142429000Y-75184000D01*
X142553994Y-75184000D01*
X142573977Y-75386895D01*
X142633160Y-75581993D01*
X142729266Y-75761797D01*
X142748416Y-75785132D01*
X142754498Y-75805180D01*
X142813463Y-75915494D01*
X142892815Y-76012185D01*
X142989506Y-76091537D01*
X143099820Y-76150502D01*
X143119868Y-76156584D01*
X143143203Y-76175734D01*
X143323007Y-76271840D01*
X143518105Y-76331023D01*
X143720999Y-76351006D01*
X143923895Y-76331023D01*
X144118993Y-76271840D01*
X144217851Y-76219000D01*
X146886171Y-76219000D01*
X146936999Y-76224006D01*
X146987827Y-76219000D01*
X146987838Y-76219000D01*
X147139895Y-76204024D01*
X147334993Y-76144841D01*
X147436318Y-76090682D01*
X147554798Y-76128226D01*
X147671250Y-76139000D01*
X147830000Y-75980250D01*
X147830000Y-75708915D01*
X147897841Y-75581993D01*
X147957024Y-75386895D01*
X147964498Y-75311000D01*
X148084000Y-75311000D01*
X148084000Y-75980250D01*
X148242750Y-76139000D01*
X148359202Y-76128226D01*
X148478442Y-76090441D01*
X148588020Y-76030118D01*
X148683724Y-75949578D01*
X148761876Y-75851914D01*
X148819473Y-75740879D01*
X148854301Y-75620742D01*
X148865023Y-75496119D01*
X148862000Y-75469750D01*
X148703250Y-75311000D01*
X148084000Y-75311000D01*
X147964498Y-75311000D01*
X147977007Y-75184000D01*
X147962529Y-75037000D01*
X148084000Y-75037000D01*
X148084000Y-75057000D01*
X148703250Y-75057000D01*
X148862000Y-74898250D01*
X148865023Y-74871881D01*
X148856410Y-74771770D01*
X148926000Y-74773072D01*
X149050482Y-74760812D01*
X149170180Y-74724502D01*
X149280494Y-74665537D01*
X149377185Y-74586185D01*
X149456537Y-74489494D01*
X149515502Y-74379180D01*
X149551812Y-74259482D01*
X149564072Y-74135000D01*
X149561000Y-73945750D01*
X149402250Y-73787000D01*
X148603000Y-73787000D01*
X148603000Y-73807000D01*
X148349000Y-73807000D01*
X148349000Y-73787000D01*
X148329000Y-73787000D01*
X148329000Y-73533000D01*
X148349000Y-73533000D01*
X148349000Y-73513000D01*
X148603000Y-73513000D01*
X148603000Y-73533000D01*
X149402250Y-73533000D01*
X149561000Y-73374250D01*
X149564072Y-73185000D01*
X149551812Y-73060518D01*
X149531035Y-72992027D01*
X149625494Y-72941537D01*
X149722185Y-72862185D01*
X149801537Y-72765494D01*
X149860502Y-72655180D01*
X149896812Y-72535482D01*
X149909072Y-72411000D01*
X149906000Y-71721750D01*
X149747250Y-71563000D01*
X149098000Y-71563000D01*
X149098000Y-71583000D01*
X148844000Y-71583000D01*
X148844000Y-71563000D01*
X148824000Y-71563000D01*
X148824000Y-71309000D01*
X148844000Y-71309000D01*
X148844000Y-69984750D01*
X149098000Y-69984750D01*
X149098000Y-71309000D01*
X149747250Y-71309000D01*
X149906000Y-71150250D01*
X149909072Y-70461000D01*
X149896812Y-70336518D01*
X149860502Y-70216820D01*
X149801537Y-70106506D01*
X149722185Y-70009815D01*
X149625494Y-69930463D01*
X149515180Y-69871498D01*
X149395482Y-69835188D01*
X149271000Y-69822928D01*
X149256750Y-69826000D01*
X149098000Y-69984750D01*
X148844000Y-69984750D01*
X148685250Y-69826000D01*
X148671000Y-69822928D01*
X148546518Y-69835188D01*
X148426820Y-69871498D01*
X148316506Y-69930463D01*
X148286936Y-69954730D01*
X148152582Y-69882916D01*
X148004745Y-69838071D01*
X147851000Y-69822928D01*
X147551000Y-69822928D01*
X147397255Y-69838071D01*
X147249418Y-69882916D01*
X147113171Y-69955742D01*
X147066000Y-69994454D01*
X147018829Y-69955742D01*
X146882582Y-69882916D01*
X146734745Y-69838071D01*
X146581000Y-69822928D01*
X146281000Y-69822928D01*
X146127255Y-69838071D01*
X145979418Y-69882916D01*
X145843171Y-69955742D01*
X145796000Y-69994454D01*
X145748829Y-69955742D01*
X145612582Y-69882916D01*
X145464745Y-69838071D01*
X145311000Y-69822928D01*
X145011000Y-69822928D01*
X144857255Y-69838071D01*
X144709418Y-69882916D01*
X144573171Y-69955742D01*
X144453749Y-70053749D01*
X144355742Y-70173171D01*
X144282916Y-70309418D01*
X144238071Y-70457255D01*
X144222928Y-70611000D01*
X144222928Y-72261000D01*
X144238071Y-72414745D01*
X144282916Y-72562582D01*
X144355742Y-72698829D01*
X144453749Y-72818251D01*
X144573171Y-72916258D01*
X144709418Y-72989084D01*
X144857255Y-73033929D01*
X145011000Y-73049072D01*
X145311000Y-73049072D01*
X145464745Y-73033929D01*
X145612582Y-72989084D01*
X145748829Y-72916258D01*
X145796000Y-72877546D01*
X145843171Y-72916258D01*
X145958147Y-72977714D01*
X145903625Y-73079717D01*
X145854512Y-73241623D01*
X145837928Y-73410000D01*
X145837928Y-73910000D01*
X145854512Y-74078377D01*
X145875935Y-74149000D01*
X143797162Y-74149000D01*
X143720995Y-74156502D01*
X143594000Y-74143994D01*
X143391105Y-74163977D01*
X143196007Y-74223160D01*
X143016203Y-74319266D01*
X142858604Y-74448604D01*
X142729266Y-74606203D01*
X142633160Y-74786007D01*
X142573977Y-74981105D01*
X142553994Y-75184000D01*
X142429000Y-75184000D01*
X142429000Y-73628827D01*
X142434006Y-73577999D01*
X142429000Y-73527171D01*
X142429000Y-73527162D01*
X142414024Y-73375105D01*
X142354841Y-73180007D01*
X142293730Y-73065676D01*
X142375341Y-72912993D01*
X142434524Y-72717895D01*
X142454507Y-72515000D01*
X142434524Y-72312105D01*
X142375341Y-72117007D01*
X142279234Y-71937203D01*
X142221620Y-71867000D01*
X142279234Y-71796797D01*
X142375341Y-71616993D01*
X142434524Y-71421895D01*
X142454507Y-71219000D01*
X142434524Y-71016105D01*
X142375341Y-70821007D01*
X142287076Y-70655875D01*
X142296000Y-70544750D01*
X142137250Y-70386000D01*
X142030965Y-70386000D01*
X141992297Y-70354266D01*
X141812493Y-70258159D01*
X141617395Y-70198976D01*
X141465338Y-70184000D01*
X141204000Y-70184000D01*
X141204000Y-70132000D01*
X141224000Y-70132000D01*
X141224000Y-69502750D01*
X141478000Y-69502750D01*
X141478000Y-70132000D01*
X142137250Y-70132000D01*
X142296000Y-69973250D01*
X142286235Y-69851652D01*
X142249377Y-69732122D01*
X142189908Y-69622079D01*
X142110113Y-69525753D01*
X142013059Y-69446844D01*
X141902476Y-69388386D01*
X141782613Y-69352625D01*
X141658077Y-69340935D01*
X141636750Y-69344000D01*
X141478000Y-69502750D01*
X141224000Y-69502750D01*
X141065250Y-69344000D01*
X141043923Y-69340935D01*
X140919387Y-69352625D01*
X140799524Y-69388386D01*
X140688941Y-69446844D01*
X140591887Y-69525753D01*
X140512092Y-69622079D01*
X140452623Y-69732122D01*
X140415765Y-69851652D01*
X140406000Y-69973250D01*
X140564748Y-70131998D01*
X140406000Y-70131998D01*
X140406000Y-70184000D01*
X139650335Y-70184000D01*
X139599500Y-70178993D01*
X139548665Y-70184000D01*
X139548662Y-70184000D01*
X139396605Y-70198976D01*
X139353671Y-70212000D01*
X138512500Y-70212000D01*
X138512500Y-69583335D01*
X138517507Y-69532500D01*
X138512500Y-69481662D01*
X138497524Y-69329605D01*
X138487027Y-69295000D01*
X138564787Y-69295000D01*
X138631150Y-69330472D01*
X138797746Y-69381008D01*
X138971000Y-69398072D01*
X139921000Y-69398072D01*
X140094254Y-69381008D01*
X140260850Y-69330472D01*
X140327213Y-69295000D01*
X143774162Y-69295000D01*
X143825000Y-69300007D01*
X143875838Y-69295000D01*
X145938172Y-69295000D01*
X145989000Y-69300006D01*
X146039828Y-69295000D01*
X146039838Y-69295000D01*
X146191895Y-69280024D01*
X146386993Y-69220841D01*
X146566797Y-69124734D01*
X146724396Y-68995396D01*
X146756807Y-68955903D01*
X147126903Y-68585807D01*
X147166396Y-68553396D01*
X147295734Y-68395797D01*
X147391841Y-68215993D01*
X147430897Y-68087243D01*
X147551000Y-68099072D01*
X147851000Y-68099072D01*
X148004745Y-68083929D01*
X148152582Y-68039084D01*
X148288829Y-67966258D01*
X148336000Y-67927546D01*
X148383171Y-67966258D01*
X148519418Y-68039084D01*
X148667255Y-68083929D01*
X148821000Y-68099072D01*
X149121000Y-68099072D01*
X149274745Y-68083929D01*
X149422582Y-68039084D01*
X149558829Y-67966258D01*
X149678251Y-67868251D01*
X149776258Y-67748829D01*
X149849084Y-67612582D01*
X149893929Y-67464745D01*
X149909072Y-67311000D01*
X149909072Y-65661000D01*
X149893929Y-65507255D01*
X149849084Y-65359418D01*
X149776258Y-65223171D01*
X149678251Y-65103749D01*
X149558829Y-65005742D01*
X149422582Y-64932916D01*
X149274745Y-64888071D01*
X149121000Y-64872928D01*
X148821000Y-64872928D01*
X148667255Y-64888071D01*
X148607893Y-64906078D01*
X148597419Y-64886482D01*
X148565734Y-64827202D01*
X148468803Y-64709092D01*
X148436396Y-64669604D01*
X148396908Y-64637197D01*
X144531807Y-60772097D01*
X144499396Y-60732604D01*
X144341797Y-60603266D01*
X144161993Y-60507159D01*
X144132241Y-60498134D01*
X144075632Y-60441525D01*
X143832411Y-60279010D01*
X143562158Y-60167068D01*
X143275260Y-60110000D01*
X142982740Y-60110000D01*
X142695842Y-60167068D01*
X142425589Y-60279010D01*
X142182368Y-60441525D01*
X141975525Y-60648368D01*
X141853805Y-60830534D01*
X141784178Y-60713645D01*
X141589269Y-60497412D01*
X141355920Y-60323359D01*
X141093099Y-60198175D01*
X140945890Y-60153524D01*
X140716000Y-60274845D01*
X140716000Y-61468000D01*
X140736000Y-61468000D01*
X140736000Y-61722000D01*
X140716000Y-61722000D01*
X140716000Y-62915155D01*
X140945890Y-63036476D01*
X141093099Y-62991825D01*
X141355920Y-62866641D01*
X141589269Y-62692588D01*
X141784178Y-62476355D01*
X141853805Y-62359466D01*
X141975525Y-62541632D01*
X142182368Y-62748475D01*
X142425589Y-62910990D01*
X142695842Y-63022932D01*
X142982740Y-63080000D01*
X143275260Y-63080000D01*
X143562158Y-63022932D01*
X143769386Y-62937096D01*
X145840348Y-65008059D01*
X145796000Y-65044454D01*
X145748829Y-65005742D01*
X145612582Y-64932916D01*
X145464745Y-64888071D01*
X145311000Y-64872928D01*
X145011000Y-64872928D01*
X144857255Y-64888071D01*
X144709418Y-64932916D01*
X144573171Y-65005742D01*
X144453749Y-65103749D01*
X144355742Y-65223171D01*
X144282916Y-65359418D01*
X144238071Y-65507255D01*
X144222928Y-65661000D01*
X144222928Y-65931774D01*
X144195613Y-65923625D01*
X144071077Y-65911935D01*
X144049750Y-65915000D01*
X143891000Y-66073750D01*
X143891000Y-66703000D01*
X143911000Y-66703000D01*
X143911000Y-66764472D01*
X143764000Y-66749994D01*
X143561105Y-66769977D01*
X143366007Y-66829160D01*
X143186203Y-66925266D01*
X143147535Y-66957000D01*
X142977750Y-66957000D01*
X142819000Y-67115750D01*
X142827773Y-67225000D01*
X140692915Y-67225000D01*
X140701537Y-67214494D01*
X140760502Y-67104180D01*
X140796812Y-66984482D01*
X140809072Y-66860000D01*
X140806000Y-66645750D01*
X140704500Y-66544250D01*
X142819000Y-66544250D01*
X142977750Y-66703000D01*
X143637000Y-66703000D01*
X143637000Y-66073750D01*
X143478250Y-65915000D01*
X143456923Y-65911935D01*
X143332387Y-65923625D01*
X143212524Y-65959386D01*
X143101941Y-66017844D01*
X143004887Y-66096753D01*
X142925092Y-66193079D01*
X142865623Y-66303122D01*
X142828765Y-66422652D01*
X142819000Y-66544250D01*
X140704500Y-66544250D01*
X140647250Y-66487000D01*
X139573000Y-66487000D01*
X139573000Y-66507000D01*
X139319000Y-66507000D01*
X139319000Y-66487000D01*
X138244750Y-66487000D01*
X138086000Y-66645750D01*
X138082928Y-66860000D01*
X138095188Y-66984482D01*
X138131498Y-67104180D01*
X138190463Y-67214494D01*
X138199085Y-67225000D01*
X137416462Y-67225000D01*
X137264405Y-67239976D01*
X137069307Y-67299159D01*
X136889503Y-67395266D01*
X136776969Y-67487620D01*
X136762007Y-67492159D01*
X136671000Y-67540803D01*
X136671000Y-65860000D01*
X138082928Y-65860000D01*
X138086000Y-66074250D01*
X138244750Y-66233000D01*
X139319000Y-66233000D01*
X139319000Y-65383750D01*
X139573000Y-65383750D01*
X139573000Y-66233000D01*
X140647250Y-66233000D01*
X140806000Y-66074250D01*
X140809072Y-65860000D01*
X140796812Y-65735518D01*
X140760502Y-65615820D01*
X140701537Y-65505506D01*
X140622185Y-65408815D01*
X140525494Y-65329463D01*
X140415180Y-65270498D01*
X140295482Y-65234188D01*
X140171000Y-65221928D01*
X139731750Y-65225000D01*
X139573000Y-65383750D01*
X139319000Y-65383750D01*
X139160250Y-65225000D01*
X138721000Y-65221928D01*
X138596518Y-65234188D01*
X138476820Y-65270498D01*
X138366506Y-65329463D01*
X138269815Y-65408815D01*
X138190463Y-65505506D01*
X138131498Y-65615820D01*
X138095188Y-65735518D01*
X138082928Y-65860000D01*
X136671000Y-65860000D01*
X136671000Y-65396625D01*
X136760482Y-65387812D01*
X136880180Y-65351502D01*
X136990494Y-65292537D01*
X137087185Y-65213185D01*
X137166537Y-65116494D01*
X137225502Y-65006180D01*
X137261812Y-64886482D01*
X137274072Y-64762000D01*
X137274072Y-63833638D01*
X138024639Y-63083072D01*
X138899000Y-63083072D01*
X139023482Y-63070812D01*
X139143180Y-63034502D01*
X139253494Y-62975537D01*
X139350185Y-62896185D01*
X139429537Y-62799494D01*
X139488502Y-62689180D01*
X139512966Y-62608534D01*
X139588731Y-62692588D01*
X139822080Y-62866641D01*
X140084901Y-62991825D01*
X140232110Y-63036476D01*
X140462000Y-62915155D01*
X140462000Y-61722000D01*
X140442000Y-61722000D01*
X140442000Y-61468000D01*
X140462000Y-61468000D01*
X140462000Y-60274845D01*
X140232110Y-60153524D01*
X140084901Y-60198175D01*
X139822080Y-60323359D01*
X139588731Y-60497412D01*
X139512966Y-60581466D01*
X139488502Y-60500820D01*
X139429537Y-60390506D01*
X139350185Y-60293815D01*
X139253494Y-60214463D01*
X139143180Y-60155498D01*
X139023482Y-60119188D01*
X138899000Y-60106928D01*
X137199000Y-60106928D01*
X137074518Y-60119188D01*
X136954820Y-60155498D01*
X136844506Y-60214463D01*
X136747815Y-60293815D01*
X136668463Y-60390506D01*
X136609498Y-60500820D01*
X136573188Y-60620518D01*
X136560928Y-60745000D01*
X136560928Y-61619361D01*
X135056362Y-63123928D01*
X134636000Y-63123928D01*
X134511518Y-63136188D01*
X134391820Y-63172498D01*
X134281506Y-63231463D01*
X134184815Y-63310815D01*
X134105463Y-63407506D01*
X134046498Y-63517820D01*
X134010188Y-63637518D01*
X133997928Y-63762000D01*
X133997928Y-64762000D01*
X134010188Y-64886482D01*
X134046498Y-65006180D01*
X134105463Y-65116494D01*
X134184815Y-65213185D01*
X134281506Y-65292537D01*
X134391820Y-65351502D01*
X134511518Y-65387812D01*
X134601001Y-65396625D01*
X134601001Y-65827291D01*
X134437807Y-65664097D01*
X134405396Y-65624604D01*
X134247797Y-65495266D01*
X134067993Y-65399159D01*
X133872895Y-65339976D01*
X133720838Y-65325000D01*
X133720828Y-65325000D01*
X133670000Y-65319994D01*
X133619172Y-65325000D01*
X132707213Y-65325000D01*
X132640850Y-65289528D01*
X132474254Y-65238992D01*
X132301000Y-65221928D01*
X131351000Y-65221928D01*
X131177746Y-65238992D01*
X131011150Y-65289528D01*
X130857614Y-65371595D01*
X130723038Y-65482038D01*
X130612595Y-65616614D01*
X130530528Y-65770150D01*
X130479992Y-65936746D01*
X130462928Y-66110000D01*
X130462928Y-66610000D01*
X130479992Y-66783254D01*
X130530528Y-66949850D01*
X130612595Y-67103386D01*
X130723038Y-67237962D01*
X130729594Y-67243342D01*
X130649815Y-67308815D01*
X130570463Y-67405506D01*
X130511498Y-67515820D01*
X130475188Y-67635518D01*
X130462928Y-67760000D01*
X130466000Y-67974250D01*
X130624750Y-68133000D01*
X131699000Y-68133000D01*
X131699000Y-68113000D01*
X131953000Y-68113000D01*
X131953000Y-68133000D01*
X133027250Y-68133000D01*
X133186000Y-67974250D01*
X133189072Y-67760000D01*
X133176812Y-67635518D01*
X133140502Y-67515820D01*
X133081537Y-67405506D01*
X133072915Y-67395000D01*
X133241290Y-67395000D01*
X133498819Y-67652529D01*
X133437921Y-67704119D01*
X133360089Y-67802038D01*
X133302855Y-67913260D01*
X133268420Y-68033511D01*
X133258106Y-68158169D01*
X133261100Y-68560950D01*
X133419850Y-68719700D01*
X134023100Y-68719700D01*
X134023100Y-68699700D01*
X134251700Y-68699700D01*
X134251700Y-68719700D01*
X134284400Y-68719700D01*
X134284400Y-68973700D01*
X134251700Y-68973700D01*
X134251700Y-70021450D01*
X134410450Y-70180200D01*
X134512944Y-70168990D01*
X134632060Y-70130815D01*
X134741439Y-70070134D01*
X134836879Y-69989281D01*
X134867731Y-69950467D01*
X134905415Y-69996385D01*
X135002106Y-70075737D01*
X135112420Y-70134702D01*
X135232118Y-70171012D01*
X135356600Y-70183272D01*
X135915400Y-70183272D01*
X136039882Y-70171012D01*
X136159580Y-70134702D01*
X136269894Y-70075737D01*
X136366585Y-69996385D01*
X136404350Y-69950368D01*
X136442115Y-69996385D01*
X136442501Y-69996702D01*
X136442500Y-71145061D01*
X136442500Y-71196162D01*
X136437493Y-71247000D01*
X136442500Y-71297837D01*
X136442500Y-71348939D01*
X136452469Y-71399057D01*
X136457476Y-71449895D01*
X136472304Y-71498777D01*
X136482274Y-71548898D01*
X136501831Y-71596113D01*
X136516459Y-71644335D01*
X136351493Y-71556159D01*
X136222743Y-71517103D01*
X136234572Y-71397000D01*
X136234572Y-71097000D01*
X136219429Y-70943255D01*
X136174584Y-70795418D01*
X136101758Y-70659171D01*
X136003751Y-70539749D01*
X135884329Y-70441742D01*
X135748082Y-70368916D01*
X135600245Y-70324071D01*
X135446500Y-70308928D01*
X135062091Y-70308928D01*
X135019493Y-70286159D01*
X134824395Y-70226976D01*
X134672338Y-70212000D01*
X133769385Y-70212000D01*
X133743200Y-70163011D01*
X133761856Y-70168990D01*
X133864350Y-70180200D01*
X134023100Y-70021450D01*
X134023100Y-68973700D01*
X133419850Y-68973700D01*
X133261100Y-69132450D01*
X133258106Y-69535231D01*
X133268420Y-69659889D01*
X133302855Y-69780140D01*
X133311831Y-69797582D01*
X133275492Y-69778159D01*
X133080394Y-69718976D01*
X132877500Y-69698993D01*
X132674605Y-69718976D01*
X132479507Y-69778159D01*
X132392546Y-69824640D01*
X132324848Y-69803765D01*
X132203250Y-69794000D01*
X132044500Y-69952750D01*
X132044500Y-70122535D01*
X132012766Y-70161203D01*
X131916659Y-70341008D01*
X131857476Y-70536106D01*
X131842500Y-70688163D01*
X131842500Y-70850672D01*
X131837494Y-70901500D01*
X131842500Y-70952328D01*
X131842500Y-70952338D01*
X131857476Y-71104395D01*
X131916659Y-71299493D01*
X132012766Y-71479297D01*
X132044500Y-71517965D01*
X132044500Y-71746892D01*
X132018655Y-71795245D01*
X131974378Y-71941206D01*
X131963001Y-72056726D01*
X131956029Y-72079708D01*
X131955591Y-72084158D01*
X131948985Y-72151225D01*
X131710211Y-72390000D01*
X131161250Y-72390000D01*
X131002500Y-72548750D01*
X130999435Y-72570077D01*
X131011125Y-72694613D01*
X131046886Y-72814476D01*
X131095453Y-72906348D01*
X131019493Y-73048460D01*
X130966029Y-73224708D01*
X130952500Y-73362068D01*
X130952500Y-73489068D01*
X130947976Y-73535000D01*
X130952500Y-73580932D01*
X130952500Y-73705931D01*
X130966029Y-73843291D01*
X130979428Y-73887462D01*
X130979428Y-73972000D01*
X130994282Y-74122819D01*
X131038275Y-74267842D01*
X131109714Y-74401496D01*
X131111515Y-74403691D01*
X131106314Y-74410029D01*
X131019493Y-74572461D01*
X130966029Y-74748709D01*
X130952500Y-74886069D01*
X130952500Y-75013068D01*
X130947976Y-75059000D01*
X130952500Y-75104932D01*
X130952500Y-75356932D01*
X130966029Y-75494292D01*
X130979428Y-75538463D01*
X130979428Y-75623000D01*
X130994282Y-75773819D01*
X131038275Y-75918842D01*
X131109714Y-76052496D01*
X131205856Y-76169644D01*
X131323004Y-76265786D01*
X131456658Y-76337225D01*
X131601681Y-76381218D01*
X131752500Y-76396072D01*
X132022500Y-76396072D01*
X132173319Y-76381218D01*
X132318342Y-76337225D01*
X132356287Y-76316943D01*
X132509507Y-76398841D01*
X132704605Y-76458024D01*
X132856662Y-76473000D01*
X134189672Y-76473000D01*
X134240500Y-76478006D01*
X134291328Y-76473000D01*
X134291338Y-76473000D01*
X134443395Y-76458024D01*
X134638493Y-76398841D01*
X134818297Y-76302734D01*
X134975896Y-76173396D01*
X135008307Y-76133903D01*
X135050210Y-76092000D01*
X136817439Y-76092000D01*
X136867557Y-76082031D01*
X136918395Y-76077024D01*
X136967277Y-76062196D01*
X137017398Y-76052226D01*
X137064613Y-76032669D01*
X137113493Y-76017841D01*
X137158542Y-75993762D01*
X137205756Y-75974205D01*
X137248246Y-75945814D01*
X137293297Y-75921734D01*
X137332784Y-75889328D01*
X137375274Y-75860937D01*
X137411408Y-75824803D01*
X137450896Y-75792396D01*
X137483304Y-75752907D01*
X137519437Y-75716774D01*
X137547828Y-75674284D01*
X137580234Y-75634797D01*
X137604314Y-75589746D01*
X137632705Y-75547256D01*
X137652262Y-75500042D01*
X137676341Y-75454993D01*
X137691169Y-75406113D01*
X137710726Y-75358898D01*
X137711103Y-75357000D01*
X137958428Y-75357000D01*
X137970688Y-75481482D01*
X138006998Y-75601180D01*
X138065963Y-75711494D01*
X138145315Y-75808185D01*
X138242006Y-75887537D01*
X138352320Y-75946502D01*
X138472018Y-75982812D01*
X138596500Y-75995072D01*
X139285750Y-75992000D01*
X139444500Y-75833250D01*
X139444500Y-75184000D01*
X138120250Y-75184000D01*
X137961500Y-75342750D01*
X137958428Y-75357000D01*
X137711103Y-75357000D01*
X137720696Y-75308777D01*
X137735524Y-75259895D01*
X137740531Y-75209057D01*
X137750500Y-75158939D01*
X137750500Y-75107838D01*
X137755507Y-75057000D01*
X137750500Y-75006162D01*
X137750500Y-74955061D01*
X137740531Y-74904943D01*
X137735524Y-74854105D01*
X137725785Y-74822000D01*
X138012250Y-74822000D01*
X138120250Y-74930000D01*
X139444500Y-74930000D01*
X139444500Y-74910000D01*
X139698500Y-74910000D01*
X139698500Y-74930000D01*
X139718500Y-74930000D01*
X139718500Y-75184000D01*
X139698500Y-75184000D01*
X139698500Y-75833250D01*
X139744797Y-75879547D01*
X139657268Y-75986202D01*
X139561161Y-76166006D01*
X139501978Y-76361104D01*
X139487002Y-76513161D01*
X139487002Y-76640161D01*
X139481995Y-76690999D01*
X139483669Y-76708000D01*
X130425000Y-76708000D01*
X130425000Y-71046077D01*
X130999435Y-71046077D01*
X131011125Y-71170613D01*
X131046886Y-71290476D01*
X131105344Y-71401059D01*
X131184253Y-71498113D01*
X131187738Y-71501000D01*
X131184253Y-71503887D01*
X131105344Y-71600941D01*
X131046886Y-71711524D01*
X131011125Y-71831387D01*
X130999435Y-71955923D01*
X131002500Y-71977250D01*
X131161250Y-72136000D01*
X131790500Y-72136000D01*
X131790500Y-70866000D01*
X131161250Y-70866000D01*
X131002500Y-71024750D01*
X130999435Y-71046077D01*
X130425000Y-71046077D01*
X130425000Y-70431923D01*
X130999435Y-70431923D01*
X131002500Y-70453250D01*
X131161250Y-70612000D01*
X131790500Y-70612000D01*
X131790500Y-69952750D01*
X131631750Y-69794000D01*
X131510152Y-69803765D01*
X131390622Y-69840623D01*
X131280579Y-69900092D01*
X131184253Y-69979887D01*
X131105344Y-70076941D01*
X131046886Y-70187524D01*
X131011125Y-70307387D01*
X130999435Y-70431923D01*
X130425000Y-70431923D01*
X130425000Y-68760000D01*
X130462928Y-68760000D01*
X130475188Y-68884482D01*
X130511498Y-69004180D01*
X130570463Y-69114494D01*
X130649815Y-69211185D01*
X130746506Y-69290537D01*
X130856820Y-69349502D01*
X130976518Y-69385812D01*
X131101000Y-69398072D01*
X131540250Y-69395000D01*
X131699000Y-69236250D01*
X131699000Y-68387000D01*
X131953000Y-68387000D01*
X131953000Y-69236250D01*
X132111750Y-69395000D01*
X132551000Y-69398072D01*
X132675482Y-69385812D01*
X132795180Y-69349502D01*
X132905494Y-69290537D01*
X133002185Y-69211185D01*
X133081537Y-69114494D01*
X133140502Y-69004180D01*
X133176812Y-68884482D01*
X133189072Y-68760000D01*
X133186000Y-68545750D01*
X133027250Y-68387000D01*
X131953000Y-68387000D01*
X131699000Y-68387000D01*
X130624750Y-68387000D01*
X130466000Y-68545750D01*
X130462928Y-68760000D01*
X130425000Y-68760000D01*
X130425000Y-55876000D01*
X150753001Y-55876000D01*
X150753001Y-76708000D01*
M02*
