G04 #@! TF.GenerationSoftware,KiCad,Pcbnew,(5.1.5)-3*
G04 #@! TF.CreationDate,2021-01-13T22:22:19-08:00*
G04 #@! TF.ProjectId,MoistureSensor,4d6f6973-7475-4726-9553-656e736f722e,rev?*
G04 #@! TF.SameCoordinates,Original*
G04 #@! TF.FileFunction,Soldermask,Top*
G04 #@! TF.FilePolarity,Negative*
%FSLAX46Y46*%
G04 Gerber Fmt 4.6, Leading zero omitted, Abs format (unit mm)*
G04 Created by KiCad (PCBNEW (5.1.5)-3) date 2021-01-13 22:22:19*
%MOMM*%
%LPD*%
G04 APERTURE LIST*
%ADD10C,0.152400*%
%ADD11C,0.100000*%
G04 APERTURE END LIST*
D10*
X135356600Y-68148200D02*
X135356600Y-68148200D01*
X135356600Y-68148200D02*
X134721600Y-67513200D01*
X134721600Y-67513200D02*
X134721600Y-63931800D01*
X134721600Y-63931800D02*
X136550400Y-63931800D01*
X136550400Y-63931800D02*
X136550400Y-67513200D01*
X136550400Y-67513200D02*
X135915400Y-68148200D01*
X135915400Y-68148200D02*
X135915400Y-68148200D01*
X135915400Y-68148200D02*
X135356600Y-68148200D01*
D11*
G36*
X133149497Y-75069476D02*
G01*
X133167774Y-75075020D01*
X133184608Y-75084018D01*
X133199368Y-75096132D01*
X133211482Y-75110892D01*
X133220480Y-75127726D01*
X133226024Y-75146003D01*
X133228500Y-75171140D01*
X133228500Y-75704860D01*
X133226024Y-75729997D01*
X133220480Y-75748274D01*
X133211482Y-75765108D01*
X133199368Y-75779868D01*
X133184608Y-75791982D01*
X133167774Y-75800980D01*
X133149497Y-75806524D01*
X133124360Y-75809000D01*
X132690640Y-75809000D01*
X132665503Y-75806524D01*
X132647226Y-75800980D01*
X132630392Y-75791982D01*
X132615632Y-75779868D01*
X132603518Y-75765108D01*
X132594520Y-75748274D01*
X132588976Y-75729997D01*
X132586500Y-75704860D01*
X132586500Y-75171140D01*
X132588976Y-75146003D01*
X132594520Y-75127726D01*
X132603518Y-75110892D01*
X132615632Y-75096132D01*
X132630392Y-75084018D01*
X132647226Y-75075020D01*
X132665503Y-75069476D01*
X132690640Y-75067000D01*
X133124360Y-75067000D01*
X133149497Y-75069476D01*
G37*
G36*
X132129497Y-75069476D02*
G01*
X132147774Y-75075020D01*
X132164608Y-75084018D01*
X132179368Y-75096132D01*
X132191482Y-75110892D01*
X132200480Y-75127726D01*
X132206024Y-75146003D01*
X132208500Y-75171140D01*
X132208500Y-75704860D01*
X132206024Y-75729997D01*
X132200480Y-75748274D01*
X132191482Y-75765108D01*
X132179368Y-75779868D01*
X132164608Y-75791982D01*
X132147774Y-75800980D01*
X132129497Y-75806524D01*
X132104360Y-75809000D01*
X131670640Y-75809000D01*
X131645503Y-75806524D01*
X131627226Y-75800980D01*
X131610392Y-75791982D01*
X131595632Y-75779868D01*
X131583518Y-75765108D01*
X131574520Y-75748274D01*
X131568976Y-75729997D01*
X131566500Y-75704860D01*
X131566500Y-75171140D01*
X131568976Y-75146003D01*
X131574520Y-75127726D01*
X131583518Y-75110892D01*
X131595632Y-75096132D01*
X131610392Y-75084018D01*
X131627226Y-75075020D01*
X131645503Y-75069476D01*
X131670640Y-75067000D01*
X132104360Y-75067000D01*
X132129497Y-75069476D01*
G37*
G36*
X143895000Y-75612000D02*
G01*
X143293000Y-75612000D01*
X143293000Y-75010000D01*
X143895000Y-75010000D01*
X143895000Y-75612000D01*
G37*
G36*
X141695000Y-75612000D02*
G01*
X141093000Y-75612000D01*
X141093000Y-75010000D01*
X141695000Y-75010000D01*
X141695000Y-75612000D01*
G37*
G36*
X148198997Y-74815476D02*
G01*
X148217274Y-74821020D01*
X148234108Y-74830018D01*
X148248868Y-74842132D01*
X148260982Y-74856892D01*
X148269980Y-74873726D01*
X148275524Y-74892003D01*
X148278000Y-74917140D01*
X148278000Y-75450860D01*
X148275524Y-75475997D01*
X148269980Y-75494274D01*
X148260982Y-75511108D01*
X148248868Y-75525868D01*
X148234108Y-75537982D01*
X148217274Y-75546980D01*
X148198997Y-75552524D01*
X148173860Y-75555000D01*
X147740140Y-75555000D01*
X147715003Y-75552524D01*
X147696726Y-75546980D01*
X147679892Y-75537982D01*
X147665132Y-75525868D01*
X147653018Y-75511108D01*
X147644020Y-75494274D01*
X147638476Y-75475997D01*
X147636000Y-75450860D01*
X147636000Y-74917140D01*
X147638476Y-74892003D01*
X147644020Y-74873726D01*
X147653018Y-74856892D01*
X147665132Y-74842132D01*
X147679892Y-74830018D01*
X147696726Y-74821020D01*
X147715003Y-74815476D01*
X147740140Y-74813000D01*
X148173860Y-74813000D01*
X148198997Y-74815476D01*
G37*
G36*
X147178997Y-74815476D02*
G01*
X147197274Y-74821020D01*
X147214108Y-74830018D01*
X147228868Y-74842132D01*
X147240982Y-74856892D01*
X147249980Y-74873726D01*
X147255524Y-74892003D01*
X147258000Y-74917140D01*
X147258000Y-75450860D01*
X147255524Y-75475997D01*
X147249980Y-75494274D01*
X147240982Y-75511108D01*
X147228868Y-75525868D01*
X147214108Y-75537982D01*
X147197274Y-75546980D01*
X147178997Y-75552524D01*
X147153860Y-75555000D01*
X146720140Y-75555000D01*
X146695003Y-75552524D01*
X146676726Y-75546980D01*
X146659892Y-75537982D01*
X146645132Y-75525868D01*
X146633018Y-75511108D01*
X146624020Y-75494274D01*
X146618476Y-75475997D01*
X146616000Y-75450860D01*
X146616000Y-74917140D01*
X146618476Y-74892003D01*
X146624020Y-74873726D01*
X146633018Y-74856892D01*
X146645132Y-74842132D01*
X146659892Y-74830018D01*
X146676726Y-74821020D01*
X146695003Y-74815476D01*
X146720140Y-74813000D01*
X147153860Y-74813000D01*
X147178997Y-74815476D01*
G37*
G36*
X135556428Y-74708764D02*
G01*
X135577509Y-74715160D01*
X135596945Y-74725548D01*
X135613976Y-74739524D01*
X135627952Y-74756555D01*
X135638340Y-74775991D01*
X135644736Y-74797072D01*
X135647500Y-74825140D01*
X135647500Y-75288860D01*
X135644736Y-75316928D01*
X135638340Y-75338009D01*
X135627952Y-75357445D01*
X135613976Y-75374476D01*
X135596945Y-75388452D01*
X135577509Y-75398840D01*
X135556428Y-75405236D01*
X135528360Y-75408000D01*
X133714640Y-75408000D01*
X133686572Y-75405236D01*
X133665491Y-75398840D01*
X133646055Y-75388452D01*
X133629024Y-75374476D01*
X133615048Y-75357445D01*
X133604660Y-75338009D01*
X133598264Y-75316928D01*
X133595500Y-75288860D01*
X133595500Y-74825140D01*
X133598264Y-74797072D01*
X133604660Y-74775991D01*
X133615048Y-74756555D01*
X133629024Y-74739524D01*
X133646055Y-74725548D01*
X133665491Y-74715160D01*
X133686572Y-74708764D01*
X133714640Y-74706000D01*
X135528360Y-74706000D01*
X135556428Y-74708764D01*
G37*
G36*
X140506428Y-74708764D02*
G01*
X140527509Y-74715160D01*
X140546945Y-74725548D01*
X140563976Y-74739524D01*
X140577952Y-74756555D01*
X140588340Y-74775991D01*
X140594736Y-74797072D01*
X140597500Y-74825140D01*
X140597500Y-75288860D01*
X140594736Y-75316928D01*
X140588340Y-75338009D01*
X140577952Y-75357445D01*
X140563976Y-75374476D01*
X140546945Y-75388452D01*
X140527509Y-75398840D01*
X140506428Y-75405236D01*
X140478360Y-75408000D01*
X138664640Y-75408000D01*
X138636572Y-75405236D01*
X138615491Y-75398840D01*
X138596055Y-75388452D01*
X138579024Y-75374476D01*
X138565048Y-75357445D01*
X138554660Y-75338009D01*
X138548264Y-75316928D01*
X138545500Y-75288860D01*
X138545500Y-74825140D01*
X138548264Y-74797072D01*
X138554660Y-74775991D01*
X138565048Y-74756555D01*
X138579024Y-74739524D01*
X138596055Y-74725548D01*
X138615491Y-74715160D01*
X138636572Y-74708764D01*
X138664640Y-74706000D01*
X140478360Y-74706000D01*
X140506428Y-74708764D01*
G37*
G36*
X148825560Y-73138205D02*
G01*
X148860713Y-73148869D01*
X148893110Y-73166186D01*
X148921509Y-73189491D01*
X148944814Y-73217890D01*
X148962131Y-73250287D01*
X148972795Y-73285440D01*
X148977000Y-73328140D01*
X148977000Y-73991860D01*
X148972795Y-74034560D01*
X148962131Y-74069713D01*
X148944814Y-74102110D01*
X148921509Y-74130509D01*
X148893110Y-74153814D01*
X148860713Y-74171131D01*
X148825560Y-74181795D01*
X148782860Y-74186000D01*
X148169140Y-74186000D01*
X148126440Y-74181795D01*
X148091287Y-74171131D01*
X148058890Y-74153814D01*
X148030491Y-74130509D01*
X148007186Y-74102110D01*
X147989869Y-74069713D01*
X147979205Y-74034560D01*
X147975000Y-73991860D01*
X147975000Y-73328140D01*
X147979205Y-73285440D01*
X147989869Y-73250287D01*
X148007186Y-73217890D01*
X148030491Y-73189491D01*
X148058890Y-73166186D01*
X148091287Y-73148869D01*
X148126440Y-73138205D01*
X148169140Y-73134000D01*
X148782860Y-73134000D01*
X148825560Y-73138205D01*
G37*
G36*
X147275560Y-73138205D02*
G01*
X147310713Y-73148869D01*
X147343110Y-73166186D01*
X147371509Y-73189491D01*
X147394814Y-73217890D01*
X147412131Y-73250287D01*
X147422795Y-73285440D01*
X147427000Y-73328140D01*
X147427000Y-73991860D01*
X147422795Y-74034560D01*
X147412131Y-74069713D01*
X147394814Y-74102110D01*
X147371509Y-74130509D01*
X147343110Y-74153814D01*
X147310713Y-74171131D01*
X147275560Y-74181795D01*
X147232860Y-74186000D01*
X146619140Y-74186000D01*
X146576440Y-74181795D01*
X146541287Y-74171131D01*
X146508890Y-74153814D01*
X146480491Y-74130509D01*
X146457186Y-74102110D01*
X146439869Y-74069713D01*
X146429205Y-74034560D01*
X146425000Y-73991860D01*
X146425000Y-73328140D01*
X146429205Y-73285440D01*
X146439869Y-73250287D01*
X146457186Y-73217890D01*
X146480491Y-73189491D01*
X146508890Y-73166186D01*
X146541287Y-73148869D01*
X146576440Y-73138205D01*
X146619140Y-73134000D01*
X147232860Y-73134000D01*
X147275560Y-73138205D01*
G37*
G36*
X133149497Y-73418476D02*
G01*
X133167774Y-73424020D01*
X133184608Y-73433018D01*
X133199368Y-73445132D01*
X133211482Y-73459892D01*
X133220480Y-73476726D01*
X133226024Y-73495003D01*
X133228500Y-73520140D01*
X133228500Y-74053860D01*
X133226024Y-74078997D01*
X133220480Y-74097274D01*
X133211482Y-74114108D01*
X133199368Y-74128868D01*
X133184608Y-74140982D01*
X133167774Y-74149980D01*
X133149497Y-74155524D01*
X133124360Y-74158000D01*
X132690640Y-74158000D01*
X132665503Y-74155524D01*
X132647226Y-74149980D01*
X132630392Y-74140982D01*
X132615632Y-74128868D01*
X132603518Y-74114108D01*
X132594520Y-74097274D01*
X132588976Y-74078997D01*
X132586500Y-74053860D01*
X132586500Y-73520140D01*
X132588976Y-73495003D01*
X132594520Y-73476726D01*
X132603518Y-73459892D01*
X132615632Y-73445132D01*
X132630392Y-73433018D01*
X132647226Y-73424020D01*
X132665503Y-73418476D01*
X132690640Y-73416000D01*
X133124360Y-73416000D01*
X133149497Y-73418476D01*
G37*
G36*
X132129497Y-73418476D02*
G01*
X132147774Y-73424020D01*
X132164608Y-73433018D01*
X132179368Y-73445132D01*
X132191482Y-73459892D01*
X132200480Y-73476726D01*
X132206024Y-73495003D01*
X132208500Y-73520140D01*
X132208500Y-74053860D01*
X132206024Y-74078997D01*
X132200480Y-74097274D01*
X132191482Y-74114108D01*
X132179368Y-74128868D01*
X132164608Y-74140982D01*
X132147774Y-74149980D01*
X132129497Y-74155524D01*
X132104360Y-74158000D01*
X131670640Y-74158000D01*
X131645503Y-74155524D01*
X131627226Y-74149980D01*
X131610392Y-74140982D01*
X131595632Y-74128868D01*
X131583518Y-74114108D01*
X131574520Y-74097274D01*
X131568976Y-74078997D01*
X131566500Y-74053860D01*
X131566500Y-73520140D01*
X131568976Y-73495003D01*
X131574520Y-73476726D01*
X131583518Y-73459892D01*
X131595632Y-73445132D01*
X131610392Y-73433018D01*
X131627226Y-73424020D01*
X131645503Y-73418476D01*
X131670640Y-73416000D01*
X132104360Y-73416000D01*
X132129497Y-73418476D01*
G37*
G36*
X135556428Y-73438764D02*
G01*
X135577509Y-73445160D01*
X135596945Y-73455548D01*
X135613976Y-73469524D01*
X135627952Y-73486555D01*
X135638340Y-73505991D01*
X135644736Y-73527072D01*
X135647500Y-73555140D01*
X135647500Y-74018860D01*
X135644736Y-74046928D01*
X135638340Y-74068009D01*
X135627952Y-74087445D01*
X135613976Y-74104476D01*
X135596945Y-74118452D01*
X135577509Y-74128840D01*
X135556428Y-74135236D01*
X135528360Y-74138000D01*
X133714640Y-74138000D01*
X133686572Y-74135236D01*
X133665491Y-74128840D01*
X133646055Y-74118452D01*
X133629024Y-74104476D01*
X133615048Y-74087445D01*
X133604660Y-74068009D01*
X133598264Y-74046928D01*
X133595500Y-74018860D01*
X133595500Y-73555140D01*
X133598264Y-73527072D01*
X133604660Y-73505991D01*
X133615048Y-73486555D01*
X133629024Y-73469524D01*
X133646055Y-73455548D01*
X133665491Y-73445160D01*
X133686572Y-73438764D01*
X133714640Y-73436000D01*
X135528360Y-73436000D01*
X135556428Y-73438764D01*
G37*
G36*
X140506428Y-73438764D02*
G01*
X140527509Y-73445160D01*
X140546945Y-73455548D01*
X140563976Y-73469524D01*
X140577952Y-73486555D01*
X140588340Y-73505991D01*
X140594736Y-73527072D01*
X140597500Y-73555140D01*
X140597500Y-74018860D01*
X140594736Y-74046928D01*
X140588340Y-74068009D01*
X140577952Y-74087445D01*
X140563976Y-74104476D01*
X140546945Y-74118452D01*
X140527509Y-74128840D01*
X140506428Y-74135236D01*
X140478360Y-74138000D01*
X138664640Y-74138000D01*
X138636572Y-74135236D01*
X138615491Y-74128840D01*
X138596055Y-74118452D01*
X138579024Y-74104476D01*
X138565048Y-74087445D01*
X138554660Y-74068009D01*
X138548264Y-74046928D01*
X138545500Y-74018860D01*
X138545500Y-73555140D01*
X138548264Y-73527072D01*
X138554660Y-73505991D01*
X138565048Y-73486555D01*
X138579024Y-73469524D01*
X138596055Y-73455548D01*
X138615491Y-73445160D01*
X138636572Y-73438764D01*
X138664640Y-73436000D01*
X140478360Y-73436000D01*
X140506428Y-73438764D01*
G37*
G36*
X141642997Y-73216476D02*
G01*
X141661274Y-73222020D01*
X141678108Y-73231018D01*
X141692868Y-73243132D01*
X141704982Y-73257892D01*
X141713980Y-73274726D01*
X141719524Y-73293003D01*
X141722000Y-73318140D01*
X141722000Y-73751860D01*
X141719524Y-73776997D01*
X141713980Y-73795274D01*
X141704982Y-73812108D01*
X141692868Y-73826868D01*
X141678108Y-73838982D01*
X141661274Y-73847980D01*
X141642997Y-73853524D01*
X141617860Y-73856000D01*
X141084140Y-73856000D01*
X141059003Y-73853524D01*
X141040726Y-73847980D01*
X141023892Y-73838982D01*
X141009132Y-73826868D01*
X140997018Y-73812108D01*
X140988020Y-73795274D01*
X140982476Y-73776997D01*
X140980000Y-73751860D01*
X140980000Y-73318140D01*
X140982476Y-73293003D01*
X140988020Y-73274726D01*
X140997018Y-73257892D01*
X141009132Y-73243132D01*
X141023892Y-73231018D01*
X141040726Y-73222020D01*
X141059003Y-73216476D01*
X141084140Y-73214000D01*
X141617860Y-73214000D01*
X141642997Y-73216476D01*
G37*
G36*
X140506428Y-72168764D02*
G01*
X140527509Y-72175160D01*
X140546945Y-72185548D01*
X140563976Y-72199524D01*
X140577952Y-72216555D01*
X140588340Y-72235991D01*
X140594736Y-72257072D01*
X140597500Y-72285140D01*
X140597500Y-72748860D01*
X140594736Y-72776928D01*
X140588340Y-72798009D01*
X140577952Y-72817445D01*
X140563976Y-72834476D01*
X140546945Y-72848452D01*
X140527509Y-72858840D01*
X140506428Y-72865236D01*
X140478360Y-72868000D01*
X138664640Y-72868000D01*
X138636572Y-72865236D01*
X138615491Y-72858840D01*
X138596055Y-72848452D01*
X138579024Y-72834476D01*
X138565048Y-72817445D01*
X138554660Y-72798009D01*
X138548264Y-72776928D01*
X138545500Y-72748860D01*
X138545500Y-72285140D01*
X138548264Y-72257072D01*
X138554660Y-72235991D01*
X138565048Y-72216555D01*
X138579024Y-72199524D01*
X138596055Y-72185548D01*
X138615491Y-72175160D01*
X138636572Y-72168764D01*
X138664640Y-72166000D01*
X140478360Y-72166000D01*
X140506428Y-72168764D01*
G37*
G36*
X135556428Y-72168764D02*
G01*
X135577509Y-72175160D01*
X135596945Y-72185548D01*
X135613976Y-72199524D01*
X135627952Y-72216555D01*
X135638340Y-72235991D01*
X135644736Y-72257072D01*
X135647500Y-72285140D01*
X135647500Y-72748860D01*
X135644736Y-72776928D01*
X135638340Y-72798009D01*
X135627952Y-72817445D01*
X135613976Y-72834476D01*
X135596945Y-72848452D01*
X135577509Y-72858840D01*
X135556428Y-72865236D01*
X135528360Y-72868000D01*
X133714640Y-72868000D01*
X133686572Y-72865236D01*
X133665491Y-72858840D01*
X133646055Y-72848452D01*
X133629024Y-72834476D01*
X133615048Y-72817445D01*
X133604660Y-72798009D01*
X133598264Y-72776928D01*
X133595500Y-72748860D01*
X133595500Y-72285140D01*
X133598264Y-72257072D01*
X133604660Y-72235991D01*
X133615048Y-72216555D01*
X133629024Y-72199524D01*
X133646055Y-72185548D01*
X133665491Y-72175160D01*
X133686572Y-72168764D01*
X133714640Y-72166000D01*
X135528360Y-72166000D01*
X135556428Y-72168764D01*
G37*
G36*
X141642997Y-72196476D02*
G01*
X141661274Y-72202020D01*
X141678108Y-72211018D01*
X141692868Y-72223132D01*
X141704982Y-72237892D01*
X141713980Y-72254726D01*
X141719524Y-72273003D01*
X141722000Y-72298140D01*
X141722000Y-72731860D01*
X141719524Y-72756997D01*
X141713980Y-72775274D01*
X141704982Y-72792108D01*
X141692868Y-72806868D01*
X141678108Y-72818982D01*
X141661274Y-72827980D01*
X141642997Y-72833524D01*
X141617860Y-72836000D01*
X141084140Y-72836000D01*
X141059003Y-72833524D01*
X141040726Y-72827980D01*
X141023892Y-72818982D01*
X141009132Y-72806868D01*
X140997018Y-72792108D01*
X140988020Y-72775274D01*
X140982476Y-72756997D01*
X140980000Y-72731860D01*
X140980000Y-72298140D01*
X140982476Y-72273003D01*
X140988020Y-72254726D01*
X140997018Y-72237892D01*
X141009132Y-72223132D01*
X141023892Y-72211018D01*
X141040726Y-72202020D01*
X141059003Y-72196476D01*
X141084140Y-72194000D01*
X141617860Y-72194000D01*
X141642997Y-72196476D01*
G37*
G36*
X132165476Y-71904572D02*
G01*
X132184681Y-71910398D01*
X132202393Y-71919865D01*
X132217905Y-71932595D01*
X132230635Y-71948107D01*
X132240102Y-71965819D01*
X132245928Y-71985024D01*
X132248500Y-72011140D01*
X132248500Y-72514860D01*
X132245928Y-72540976D01*
X132240102Y-72560181D01*
X132230635Y-72577893D01*
X132217905Y-72593405D01*
X132202393Y-72606135D01*
X132184681Y-72615602D01*
X132165476Y-72621428D01*
X132139360Y-72624000D01*
X131695640Y-72624000D01*
X131669524Y-72621428D01*
X131650319Y-72615602D01*
X131632607Y-72606135D01*
X131617095Y-72593405D01*
X131604365Y-72577893D01*
X131594898Y-72560181D01*
X131589072Y-72540976D01*
X131586500Y-72514860D01*
X131586500Y-72011140D01*
X131589072Y-71985024D01*
X131594898Y-71965819D01*
X131604365Y-71948107D01*
X131617095Y-71932595D01*
X131632607Y-71919865D01*
X131650319Y-71910398D01*
X131669524Y-71904572D01*
X131695640Y-71902000D01*
X132139360Y-71902000D01*
X132165476Y-71904572D01*
G37*
G36*
X133125476Y-71904572D02*
G01*
X133144681Y-71910398D01*
X133162393Y-71919865D01*
X133177905Y-71932595D01*
X133190635Y-71948107D01*
X133200102Y-71965819D01*
X133205928Y-71985024D01*
X133208500Y-72011140D01*
X133208500Y-72514860D01*
X133205928Y-72540976D01*
X133200102Y-72560181D01*
X133190635Y-72577893D01*
X133177905Y-72593405D01*
X133162393Y-72606135D01*
X133144681Y-72615602D01*
X133125476Y-72621428D01*
X133099360Y-72624000D01*
X132655640Y-72624000D01*
X132629524Y-72621428D01*
X132610319Y-72615602D01*
X132592607Y-72606135D01*
X132577095Y-72593405D01*
X132564365Y-72577893D01*
X132554898Y-72560181D01*
X132549072Y-72540976D01*
X132546500Y-72514860D01*
X132546500Y-72011140D01*
X132549072Y-71985024D01*
X132554898Y-71965819D01*
X132564365Y-71948107D01*
X132577095Y-71932595D01*
X132592607Y-71919865D01*
X132610319Y-71910398D01*
X132629524Y-71904572D01*
X132655640Y-71902000D01*
X133099360Y-71902000D01*
X133125476Y-71904572D01*
G37*
G36*
X145420928Y-70412764D02*
G01*
X145442009Y-70419160D01*
X145461445Y-70429548D01*
X145478476Y-70443524D01*
X145492452Y-70460555D01*
X145502840Y-70479991D01*
X145509236Y-70501072D01*
X145512000Y-70529140D01*
X145512000Y-72342860D01*
X145509236Y-72370928D01*
X145502840Y-72392009D01*
X145492452Y-72411445D01*
X145478476Y-72428476D01*
X145461445Y-72442452D01*
X145442009Y-72452840D01*
X145420928Y-72459236D01*
X145392860Y-72462000D01*
X144929140Y-72462000D01*
X144901072Y-72459236D01*
X144879991Y-72452840D01*
X144860555Y-72442452D01*
X144843524Y-72428476D01*
X144829548Y-72411445D01*
X144819160Y-72392009D01*
X144812764Y-72370928D01*
X144810000Y-72342860D01*
X144810000Y-70529140D01*
X144812764Y-70501072D01*
X144819160Y-70479991D01*
X144829548Y-70460555D01*
X144843524Y-70443524D01*
X144860555Y-70429548D01*
X144879991Y-70419160D01*
X144901072Y-70412764D01*
X144929140Y-70410000D01*
X145392860Y-70410000D01*
X145420928Y-70412764D01*
G37*
G36*
X146690928Y-70412764D02*
G01*
X146712009Y-70419160D01*
X146731445Y-70429548D01*
X146748476Y-70443524D01*
X146762452Y-70460555D01*
X146772840Y-70479991D01*
X146779236Y-70501072D01*
X146782000Y-70529140D01*
X146782000Y-72342860D01*
X146779236Y-72370928D01*
X146772840Y-72392009D01*
X146762452Y-72411445D01*
X146748476Y-72428476D01*
X146731445Y-72442452D01*
X146712009Y-72452840D01*
X146690928Y-72459236D01*
X146662860Y-72462000D01*
X146199140Y-72462000D01*
X146171072Y-72459236D01*
X146149991Y-72452840D01*
X146130555Y-72442452D01*
X146113524Y-72428476D01*
X146099548Y-72411445D01*
X146089160Y-72392009D01*
X146082764Y-72370928D01*
X146080000Y-72342860D01*
X146080000Y-70529140D01*
X146082764Y-70501072D01*
X146089160Y-70479991D01*
X146099548Y-70460555D01*
X146113524Y-70443524D01*
X146130555Y-70429548D01*
X146149991Y-70419160D01*
X146171072Y-70412764D01*
X146199140Y-70410000D01*
X146662860Y-70410000D01*
X146690928Y-70412764D01*
G37*
G36*
X149230928Y-70412764D02*
G01*
X149252009Y-70419160D01*
X149271445Y-70429548D01*
X149288476Y-70443524D01*
X149302452Y-70460555D01*
X149312840Y-70479991D01*
X149319236Y-70501072D01*
X149322000Y-70529140D01*
X149322000Y-72342860D01*
X149319236Y-72370928D01*
X149312840Y-72392009D01*
X149302452Y-72411445D01*
X149288476Y-72428476D01*
X149271445Y-72442452D01*
X149252009Y-72452840D01*
X149230928Y-72459236D01*
X149202860Y-72462000D01*
X148739140Y-72462000D01*
X148711072Y-72459236D01*
X148689991Y-72452840D01*
X148670555Y-72442452D01*
X148653524Y-72428476D01*
X148639548Y-72411445D01*
X148629160Y-72392009D01*
X148622764Y-72370928D01*
X148620000Y-72342860D01*
X148620000Y-70529140D01*
X148622764Y-70501072D01*
X148629160Y-70479991D01*
X148639548Y-70460555D01*
X148653524Y-70443524D01*
X148670555Y-70429548D01*
X148689991Y-70419160D01*
X148711072Y-70412764D01*
X148739140Y-70410000D01*
X149202860Y-70410000D01*
X149230928Y-70412764D01*
G37*
G36*
X147960928Y-70412764D02*
G01*
X147982009Y-70419160D01*
X148001445Y-70429548D01*
X148018476Y-70443524D01*
X148032452Y-70460555D01*
X148042840Y-70479991D01*
X148049236Y-70501072D01*
X148052000Y-70529140D01*
X148052000Y-72342860D01*
X148049236Y-72370928D01*
X148042840Y-72392009D01*
X148032452Y-72411445D01*
X148018476Y-72428476D01*
X148001445Y-72442452D01*
X147982009Y-72452840D01*
X147960928Y-72459236D01*
X147932860Y-72462000D01*
X147469140Y-72462000D01*
X147441072Y-72459236D01*
X147419991Y-72452840D01*
X147400555Y-72442452D01*
X147383524Y-72428476D01*
X147369548Y-72411445D01*
X147359160Y-72392009D01*
X147352764Y-72370928D01*
X147350000Y-72342860D01*
X147350000Y-70529140D01*
X147352764Y-70501072D01*
X147359160Y-70479991D01*
X147369548Y-70460555D01*
X147383524Y-70443524D01*
X147400555Y-70429548D01*
X147419991Y-70419160D01*
X147441072Y-70412764D01*
X147469140Y-70410000D01*
X147932860Y-70410000D01*
X147960928Y-70412764D01*
G37*
G36*
X140506428Y-70898764D02*
G01*
X140527509Y-70905160D01*
X140546945Y-70915548D01*
X140563976Y-70929524D01*
X140577952Y-70946555D01*
X140588340Y-70965991D01*
X140594736Y-70987072D01*
X140597500Y-71015140D01*
X140597500Y-71478860D01*
X140594736Y-71506928D01*
X140588340Y-71528009D01*
X140577952Y-71547445D01*
X140563976Y-71564476D01*
X140546945Y-71578452D01*
X140527509Y-71588840D01*
X140506428Y-71595236D01*
X140478360Y-71598000D01*
X138664640Y-71598000D01*
X138636572Y-71595236D01*
X138615491Y-71588840D01*
X138596055Y-71578452D01*
X138579024Y-71564476D01*
X138565048Y-71547445D01*
X138554660Y-71528009D01*
X138548264Y-71506928D01*
X138545500Y-71478860D01*
X138545500Y-71015140D01*
X138548264Y-70987072D01*
X138554660Y-70965991D01*
X138565048Y-70946555D01*
X138579024Y-70929524D01*
X138596055Y-70915548D01*
X138615491Y-70905160D01*
X138636572Y-70898764D01*
X138664640Y-70896000D01*
X140478360Y-70896000D01*
X140506428Y-70898764D01*
G37*
G36*
X135556428Y-70898764D02*
G01*
X135577509Y-70905160D01*
X135596945Y-70915548D01*
X135613976Y-70929524D01*
X135627952Y-70946555D01*
X135638340Y-70965991D01*
X135644736Y-70987072D01*
X135647500Y-71015140D01*
X135647500Y-71478860D01*
X135644736Y-71506928D01*
X135638340Y-71528009D01*
X135627952Y-71547445D01*
X135613976Y-71564476D01*
X135596945Y-71578452D01*
X135577509Y-71588840D01*
X135556428Y-71595236D01*
X135528360Y-71598000D01*
X133714640Y-71598000D01*
X133686572Y-71595236D01*
X133665491Y-71588840D01*
X133646055Y-71578452D01*
X133629024Y-71564476D01*
X133615048Y-71547445D01*
X133604660Y-71528009D01*
X133598264Y-71506928D01*
X133595500Y-71478860D01*
X133595500Y-71015140D01*
X133598264Y-70987072D01*
X133604660Y-70965991D01*
X133615048Y-70946555D01*
X133629024Y-70929524D01*
X133646055Y-70915548D01*
X133665491Y-70905160D01*
X133686572Y-70898764D01*
X133714640Y-70896000D01*
X135528360Y-70896000D01*
X135556428Y-70898764D01*
G37*
G36*
X141628976Y-70890572D02*
G01*
X141648181Y-70896398D01*
X141665893Y-70905865D01*
X141681405Y-70918595D01*
X141694135Y-70934107D01*
X141703602Y-70951819D01*
X141709428Y-70971024D01*
X141712000Y-70997140D01*
X141712000Y-71440860D01*
X141709428Y-71466976D01*
X141703602Y-71486181D01*
X141694135Y-71503893D01*
X141681405Y-71519405D01*
X141665893Y-71532135D01*
X141648181Y-71541602D01*
X141628976Y-71547428D01*
X141602860Y-71550000D01*
X141099140Y-71550000D01*
X141073024Y-71547428D01*
X141053819Y-71541602D01*
X141036107Y-71532135D01*
X141020595Y-71519405D01*
X141007865Y-71503893D01*
X140998398Y-71486181D01*
X140992572Y-71466976D01*
X140990000Y-71440860D01*
X140990000Y-70997140D01*
X140992572Y-70971024D01*
X140998398Y-70951819D01*
X141007865Y-70934107D01*
X141020595Y-70918595D01*
X141036107Y-70905865D01*
X141053819Y-70896398D01*
X141073024Y-70890572D01*
X141099140Y-70888000D01*
X141602860Y-70888000D01*
X141628976Y-70890572D01*
G37*
G36*
X132165476Y-70380572D02*
G01*
X132184681Y-70386398D01*
X132202393Y-70395865D01*
X132217905Y-70408595D01*
X132230635Y-70424107D01*
X132240102Y-70441819D01*
X132245928Y-70461024D01*
X132248500Y-70487140D01*
X132248500Y-70990860D01*
X132245928Y-71016976D01*
X132240102Y-71036181D01*
X132230635Y-71053893D01*
X132217905Y-71069405D01*
X132202393Y-71082135D01*
X132184681Y-71091602D01*
X132165476Y-71097428D01*
X132139360Y-71100000D01*
X131695640Y-71100000D01*
X131669524Y-71097428D01*
X131650319Y-71091602D01*
X131632607Y-71082135D01*
X131617095Y-71069405D01*
X131604365Y-71053893D01*
X131594898Y-71036181D01*
X131589072Y-71016976D01*
X131586500Y-70990860D01*
X131586500Y-70487140D01*
X131589072Y-70461024D01*
X131594898Y-70441819D01*
X131604365Y-70424107D01*
X131617095Y-70408595D01*
X131632607Y-70395865D01*
X131650319Y-70386398D01*
X131669524Y-70380572D01*
X131695640Y-70378000D01*
X132139360Y-70378000D01*
X132165476Y-70380572D01*
G37*
G36*
X133125476Y-70380572D02*
G01*
X133144681Y-70386398D01*
X133162393Y-70395865D01*
X133177905Y-70408595D01*
X133190635Y-70424107D01*
X133200102Y-70441819D01*
X133205928Y-70461024D01*
X133208500Y-70487140D01*
X133208500Y-70990860D01*
X133205928Y-71016976D01*
X133200102Y-71036181D01*
X133190635Y-71053893D01*
X133177905Y-71069405D01*
X133162393Y-71082135D01*
X133144681Y-71091602D01*
X133125476Y-71097428D01*
X133099360Y-71100000D01*
X132655640Y-71100000D01*
X132629524Y-71097428D01*
X132610319Y-71091602D01*
X132592607Y-71082135D01*
X132577095Y-71069405D01*
X132564365Y-71053893D01*
X132554898Y-71036181D01*
X132549072Y-71016976D01*
X132546500Y-70990860D01*
X132546500Y-70487140D01*
X132549072Y-70461024D01*
X132554898Y-70441819D01*
X132564365Y-70424107D01*
X132577095Y-70408595D01*
X132592607Y-70395865D01*
X132610319Y-70386398D01*
X132629524Y-70380572D01*
X132655640Y-70378000D01*
X133099360Y-70378000D01*
X133125476Y-70380572D01*
G37*
G36*
X141628976Y-69930572D02*
G01*
X141648181Y-69936398D01*
X141665893Y-69945865D01*
X141681405Y-69958595D01*
X141694135Y-69974107D01*
X141703602Y-69991819D01*
X141709428Y-70011024D01*
X141712000Y-70037140D01*
X141712000Y-70480860D01*
X141709428Y-70506976D01*
X141703602Y-70526181D01*
X141694135Y-70543893D01*
X141681405Y-70559405D01*
X141665893Y-70572135D01*
X141648181Y-70581602D01*
X141628976Y-70587428D01*
X141602860Y-70590000D01*
X141099140Y-70590000D01*
X141073024Y-70587428D01*
X141053819Y-70581602D01*
X141036107Y-70572135D01*
X141020595Y-70559405D01*
X141007865Y-70543893D01*
X140998398Y-70526181D01*
X140992572Y-70506976D01*
X140990000Y-70480860D01*
X140990000Y-70037140D01*
X140992572Y-70011024D01*
X140998398Y-69991819D01*
X141007865Y-69974107D01*
X141020595Y-69958595D01*
X141036107Y-69945865D01*
X141053819Y-69936398D01*
X141073024Y-69930572D01*
X141099140Y-69928000D01*
X141602860Y-69928000D01*
X141628976Y-69930572D01*
G37*
G36*
X137426900Y-69596200D02*
G01*
X136842300Y-69596200D01*
X136842300Y-68097200D01*
X137426900Y-68097200D01*
X137426900Y-69596200D01*
G37*
G36*
X135966400Y-69596200D02*
G01*
X135305600Y-69596200D01*
X135305600Y-68097200D01*
X135966400Y-68097200D01*
X135966400Y-69596200D01*
G37*
G36*
X134429700Y-69596200D02*
G01*
X133845100Y-69596200D01*
X133845100Y-68097200D01*
X134429700Y-68097200D01*
X134429700Y-69596200D01*
G37*
G36*
X140050434Y-67713686D02*
G01*
X140090284Y-67725774D01*
X140126999Y-67745399D01*
X140159186Y-67771814D01*
X140185601Y-67804001D01*
X140205226Y-67840716D01*
X140217314Y-67880566D01*
X140222000Y-67928141D01*
X140222000Y-68591859D01*
X140217314Y-68639434D01*
X140205226Y-68679284D01*
X140185601Y-68715999D01*
X140159186Y-68748186D01*
X140126999Y-68774601D01*
X140090284Y-68794226D01*
X140050434Y-68806314D01*
X140002859Y-68811000D01*
X138889141Y-68811000D01*
X138841566Y-68806314D01*
X138801716Y-68794226D01*
X138765001Y-68774601D01*
X138732814Y-68748186D01*
X138706399Y-68715999D01*
X138686774Y-68679284D01*
X138674686Y-68639434D01*
X138670000Y-68591859D01*
X138670000Y-67928141D01*
X138674686Y-67880566D01*
X138686774Y-67840716D01*
X138706399Y-67804001D01*
X138732814Y-67771814D01*
X138765001Y-67745399D01*
X138801716Y-67725774D01*
X138841566Y-67713686D01*
X138889141Y-67709000D01*
X140002859Y-67709000D01*
X140050434Y-67713686D01*
G37*
G36*
X132430434Y-67713686D02*
G01*
X132470284Y-67725774D01*
X132506999Y-67745399D01*
X132539186Y-67771814D01*
X132565601Y-67804001D01*
X132585226Y-67840716D01*
X132597314Y-67880566D01*
X132602000Y-67928141D01*
X132602000Y-68591859D01*
X132597314Y-68639434D01*
X132585226Y-68679284D01*
X132565601Y-68715999D01*
X132539186Y-68748186D01*
X132506999Y-68774601D01*
X132470284Y-68794226D01*
X132430434Y-68806314D01*
X132382859Y-68811000D01*
X131269141Y-68811000D01*
X131221566Y-68806314D01*
X131181716Y-68794226D01*
X131145001Y-68774601D01*
X131112814Y-68748186D01*
X131086399Y-68715999D01*
X131066774Y-68679284D01*
X131054686Y-68639434D01*
X131050000Y-68591859D01*
X131050000Y-67928141D01*
X131054686Y-67880566D01*
X131066774Y-67840716D01*
X131086399Y-67804001D01*
X131112814Y-67771814D01*
X131145001Y-67745399D01*
X131181716Y-67725774D01*
X131221566Y-67713686D01*
X131269141Y-67709000D01*
X132382859Y-67709000D01*
X132430434Y-67713686D01*
G37*
G36*
X144041976Y-67461572D02*
G01*
X144061181Y-67467398D01*
X144078893Y-67476865D01*
X144094405Y-67489595D01*
X144107135Y-67505107D01*
X144116602Y-67522819D01*
X144122428Y-67542024D01*
X144125000Y-67568140D01*
X144125000Y-68011860D01*
X144122428Y-68037976D01*
X144116602Y-68057181D01*
X144107135Y-68074893D01*
X144094405Y-68090405D01*
X144078893Y-68103135D01*
X144061181Y-68112602D01*
X144041976Y-68118428D01*
X144015860Y-68121000D01*
X143512140Y-68121000D01*
X143486024Y-68118428D01*
X143466819Y-68112602D01*
X143449107Y-68103135D01*
X143433595Y-68090405D01*
X143420865Y-68074893D01*
X143411398Y-68057181D01*
X143405572Y-68037976D01*
X143403000Y-68011860D01*
X143403000Y-67568140D01*
X143405572Y-67542024D01*
X143411398Y-67522819D01*
X143420865Y-67505107D01*
X143433595Y-67489595D01*
X143449107Y-67476865D01*
X143466819Y-67467398D01*
X143486024Y-67461572D01*
X143512140Y-67459000D01*
X144015860Y-67459000D01*
X144041976Y-67461572D01*
G37*
G36*
X146690928Y-65462764D02*
G01*
X146712009Y-65469160D01*
X146731445Y-65479548D01*
X146748476Y-65493524D01*
X146762452Y-65510555D01*
X146772840Y-65529991D01*
X146779236Y-65551072D01*
X146782000Y-65579140D01*
X146782000Y-67392860D01*
X146779236Y-67420928D01*
X146772840Y-67442009D01*
X146762452Y-67461445D01*
X146748476Y-67478476D01*
X146731445Y-67492452D01*
X146712009Y-67502840D01*
X146690928Y-67509236D01*
X146662860Y-67512000D01*
X146199140Y-67512000D01*
X146171072Y-67509236D01*
X146149991Y-67502840D01*
X146130555Y-67492452D01*
X146113524Y-67478476D01*
X146099548Y-67461445D01*
X146089160Y-67442009D01*
X146082764Y-67420928D01*
X146080000Y-67392860D01*
X146080000Y-65579140D01*
X146082764Y-65551072D01*
X146089160Y-65529991D01*
X146099548Y-65510555D01*
X146113524Y-65493524D01*
X146130555Y-65479548D01*
X146149991Y-65469160D01*
X146171072Y-65462764D01*
X146199140Y-65460000D01*
X146662860Y-65460000D01*
X146690928Y-65462764D01*
G37*
G36*
X149230928Y-65462764D02*
G01*
X149252009Y-65469160D01*
X149271445Y-65479548D01*
X149288476Y-65493524D01*
X149302452Y-65510555D01*
X149312840Y-65529991D01*
X149319236Y-65551072D01*
X149322000Y-65579140D01*
X149322000Y-67392860D01*
X149319236Y-67420928D01*
X149312840Y-67442009D01*
X149302452Y-67461445D01*
X149288476Y-67478476D01*
X149271445Y-67492452D01*
X149252009Y-67502840D01*
X149230928Y-67509236D01*
X149202860Y-67512000D01*
X148739140Y-67512000D01*
X148711072Y-67509236D01*
X148689991Y-67502840D01*
X148670555Y-67492452D01*
X148653524Y-67478476D01*
X148639548Y-67461445D01*
X148629160Y-67442009D01*
X148622764Y-67420928D01*
X148620000Y-67392860D01*
X148620000Y-65579140D01*
X148622764Y-65551072D01*
X148629160Y-65529991D01*
X148639548Y-65510555D01*
X148653524Y-65493524D01*
X148670555Y-65479548D01*
X148689991Y-65469160D01*
X148711072Y-65462764D01*
X148739140Y-65460000D01*
X149202860Y-65460000D01*
X149230928Y-65462764D01*
G37*
G36*
X147960928Y-65462764D02*
G01*
X147982009Y-65469160D01*
X148001445Y-65479548D01*
X148018476Y-65493524D01*
X148032452Y-65510555D01*
X148042840Y-65529991D01*
X148049236Y-65551072D01*
X148052000Y-65579140D01*
X148052000Y-67392860D01*
X148049236Y-67420928D01*
X148042840Y-67442009D01*
X148032452Y-67461445D01*
X148018476Y-67478476D01*
X148001445Y-67492452D01*
X147982009Y-67502840D01*
X147960928Y-67509236D01*
X147932860Y-67512000D01*
X147469140Y-67512000D01*
X147441072Y-67509236D01*
X147419991Y-67502840D01*
X147400555Y-67492452D01*
X147383524Y-67478476D01*
X147369548Y-67461445D01*
X147359160Y-67442009D01*
X147352764Y-67420928D01*
X147350000Y-67392860D01*
X147350000Y-65579140D01*
X147352764Y-65551072D01*
X147359160Y-65529991D01*
X147369548Y-65510555D01*
X147383524Y-65493524D01*
X147400555Y-65479548D01*
X147419991Y-65469160D01*
X147441072Y-65462764D01*
X147469140Y-65460000D01*
X147932860Y-65460000D01*
X147960928Y-65462764D01*
G37*
G36*
X145420928Y-65462764D02*
G01*
X145442009Y-65469160D01*
X145461445Y-65479548D01*
X145478476Y-65493524D01*
X145492452Y-65510555D01*
X145502840Y-65529991D01*
X145509236Y-65551072D01*
X145512000Y-65579140D01*
X145512000Y-67392860D01*
X145509236Y-67420928D01*
X145502840Y-67442009D01*
X145492452Y-67461445D01*
X145478476Y-67478476D01*
X145461445Y-67492452D01*
X145442009Y-67502840D01*
X145420928Y-67509236D01*
X145392860Y-67512000D01*
X144929140Y-67512000D01*
X144901072Y-67509236D01*
X144879991Y-67502840D01*
X144860555Y-67492452D01*
X144843524Y-67478476D01*
X144829548Y-67461445D01*
X144819160Y-67442009D01*
X144812764Y-67420928D01*
X144810000Y-67392860D01*
X144810000Y-65579140D01*
X144812764Y-65551072D01*
X144819160Y-65529991D01*
X144829548Y-65510555D01*
X144843524Y-65493524D01*
X144860555Y-65479548D01*
X144879991Y-65469160D01*
X144901072Y-65462764D01*
X144929140Y-65460000D01*
X145392860Y-65460000D01*
X145420928Y-65462764D01*
G37*
G36*
X144041976Y-66501572D02*
G01*
X144061181Y-66507398D01*
X144078893Y-66516865D01*
X144094405Y-66529595D01*
X144107135Y-66545107D01*
X144116602Y-66562819D01*
X144122428Y-66582024D01*
X144125000Y-66608140D01*
X144125000Y-67051860D01*
X144122428Y-67077976D01*
X144116602Y-67097181D01*
X144107135Y-67114893D01*
X144094405Y-67130405D01*
X144078893Y-67143135D01*
X144061181Y-67152602D01*
X144041976Y-67158428D01*
X144015860Y-67161000D01*
X143512140Y-67161000D01*
X143486024Y-67158428D01*
X143466819Y-67152602D01*
X143449107Y-67143135D01*
X143433595Y-67130405D01*
X143420865Y-67114893D01*
X143411398Y-67097181D01*
X143405572Y-67077976D01*
X143403000Y-67051860D01*
X143403000Y-66608140D01*
X143405572Y-66582024D01*
X143411398Y-66562819D01*
X143420865Y-66545107D01*
X143433595Y-66529595D01*
X143449107Y-66516865D01*
X143466819Y-66507398D01*
X143486024Y-66501572D01*
X143512140Y-66499000D01*
X144015860Y-66499000D01*
X144041976Y-66501572D01*
G37*
G36*
X132430434Y-65813686D02*
G01*
X132470284Y-65825774D01*
X132506999Y-65845399D01*
X132539186Y-65871814D01*
X132565601Y-65904001D01*
X132585226Y-65940716D01*
X132597314Y-65980566D01*
X132602000Y-66028141D01*
X132602000Y-66691859D01*
X132597314Y-66739434D01*
X132585226Y-66779284D01*
X132565601Y-66815999D01*
X132539186Y-66848186D01*
X132506999Y-66874601D01*
X132470284Y-66894226D01*
X132430434Y-66906314D01*
X132382859Y-66911000D01*
X131269141Y-66911000D01*
X131221566Y-66906314D01*
X131181716Y-66894226D01*
X131145001Y-66874601D01*
X131112814Y-66848186D01*
X131086399Y-66815999D01*
X131066774Y-66779284D01*
X131054686Y-66739434D01*
X131050000Y-66691859D01*
X131050000Y-66028141D01*
X131054686Y-65980566D01*
X131066774Y-65940716D01*
X131086399Y-65904001D01*
X131112814Y-65871814D01*
X131145001Y-65845399D01*
X131181716Y-65825774D01*
X131221566Y-65813686D01*
X131269141Y-65809000D01*
X132382859Y-65809000D01*
X132430434Y-65813686D01*
G37*
G36*
X140050434Y-65813686D02*
G01*
X140090284Y-65825774D01*
X140126999Y-65845399D01*
X140159186Y-65871814D01*
X140185601Y-65904001D01*
X140205226Y-65940716D01*
X140217314Y-65980566D01*
X140222000Y-66028141D01*
X140222000Y-66691859D01*
X140217314Y-66739434D01*
X140205226Y-66779284D01*
X140185601Y-66815999D01*
X140159186Y-66848186D01*
X140126999Y-66874601D01*
X140090284Y-66894226D01*
X140050434Y-66906314D01*
X140002859Y-66911000D01*
X138889141Y-66911000D01*
X138841566Y-66906314D01*
X138801716Y-66894226D01*
X138765001Y-66874601D01*
X138732814Y-66848186D01*
X138706399Y-66815999D01*
X138686774Y-66779284D01*
X138674686Y-66739434D01*
X138670000Y-66691859D01*
X138670000Y-66028141D01*
X138674686Y-65980566D01*
X138686774Y-65940716D01*
X138706399Y-65904001D01*
X138732814Y-65871814D01*
X138765001Y-65845399D01*
X138801716Y-65825774D01*
X138841566Y-65813686D01*
X138889141Y-65809000D01*
X140002859Y-65809000D01*
X140050434Y-65813686D01*
G37*
G36*
X136687000Y-64813000D02*
G01*
X134585000Y-64813000D01*
X134585000Y-63711000D01*
X136687000Y-63711000D01*
X136687000Y-64813000D01*
G37*
G36*
X140702512Y-60698927D02*
G01*
X140851812Y-60728624D01*
X141015784Y-60796544D01*
X141163354Y-60895147D01*
X141288853Y-61020646D01*
X141387456Y-61168216D01*
X141455376Y-61332188D01*
X141490000Y-61506259D01*
X141490000Y-61683741D01*
X141455376Y-61857812D01*
X141387456Y-62021784D01*
X141288853Y-62169354D01*
X141163354Y-62294853D01*
X141015784Y-62393456D01*
X140851812Y-62461376D01*
X140702512Y-62491073D01*
X140677742Y-62496000D01*
X140500258Y-62496000D01*
X140475488Y-62491073D01*
X140326188Y-62461376D01*
X140162216Y-62393456D01*
X140014646Y-62294853D01*
X139889147Y-62169354D01*
X139790544Y-62021784D01*
X139722624Y-61857812D01*
X139688000Y-61683741D01*
X139688000Y-61506259D01*
X139722624Y-61332188D01*
X139790544Y-61168216D01*
X139889147Y-61020646D01*
X140014646Y-60895147D01*
X140162216Y-60796544D01*
X140326188Y-60728624D01*
X140475488Y-60698927D01*
X140500258Y-60694000D01*
X140677742Y-60694000D01*
X140702512Y-60698927D01*
G37*
G36*
X138950000Y-62496000D02*
G01*
X137148000Y-62496000D01*
X137148000Y-60694000D01*
X138950000Y-60694000D01*
X138950000Y-62496000D01*
G37*
G36*
X143242512Y-60698927D02*
G01*
X143391812Y-60728624D01*
X143555784Y-60796544D01*
X143703354Y-60895147D01*
X143828853Y-61020646D01*
X143927456Y-61168216D01*
X143995376Y-61332188D01*
X144030000Y-61506259D01*
X144030000Y-61683741D01*
X143995376Y-61857812D01*
X143927456Y-62021784D01*
X143828853Y-62169354D01*
X143703354Y-62294853D01*
X143555784Y-62393456D01*
X143391812Y-62461376D01*
X143242512Y-62491073D01*
X143217742Y-62496000D01*
X143040258Y-62496000D01*
X143015488Y-62491073D01*
X142866188Y-62461376D01*
X142702216Y-62393456D01*
X142554646Y-62294853D01*
X142429147Y-62169354D01*
X142330544Y-62021784D01*
X142262624Y-61857812D01*
X142228000Y-61683741D01*
X142228000Y-61506259D01*
X142262624Y-61332188D01*
X142330544Y-61168216D01*
X142429147Y-61020646D01*
X142554646Y-60895147D01*
X142702216Y-60796544D01*
X142866188Y-60728624D01*
X143015488Y-60698927D01*
X143040258Y-60694000D01*
X143217742Y-60694000D01*
X143242512Y-60698927D01*
G37*
M02*
