<?xml version="1.0" standalone="no"?>
<!DOCTYPE svg PUBLIC "-//W3C//DTD SVG 20010904//EN"
 "http://www.w3.org/TR/2001/REC-SVG-20010904/DTD/svg10.dtd">
<svg version="1.0" xmlns="http://www.w3.org/2000/svg"
 width="5341.000000pt" height="1221.000000pt" viewBox="0 0 5341.000000 1221.000000"
 preserveAspectRatio="xMidYMid meet">

<g transform="translate(0.000000,1221.000000) scale(0.100000,-0.100000)"
fill="#000000" stroke="none">
<path d="M2705 11759 c-237 -17 -523 -118 -648 -230 -45 -40 -57 -57 -57 -80
0 -146 197 -518 466 -878 186 -250 375 -448 604 -632 248 -199 566 -348 995
-469 83 -23 151 -43 152 -44 7 -7 119 -492 153 -664 95 -473 126 -787 136
-1362 9 -450 -11 -856 -61 -1290 -26 -216 -22 -210 -61 -100 -110 310 -317
626 -643 984 -263 288 -482 468 -709 584 -113 58 -357 153 -454 178 -38 9 -68
20 -68 25 0 14 152 10 271 -6 327 -43 609 -163 812 -345 55 -50 58 -51 51 -24
-46 199 -176 430 -339 602 -430 455 -1120 607 -1644 361 -146 -68 -277 -169
-356 -272 -38 -50 -45 -66 -45 -105 0 -44 2 -47 107 -152 221 -219 565 -444
856 -559 111 -44 257 -86 372 -107 120 -21 426 -24 578 -6 86 11 101 10 130
-4 51 -26 354 -337 451 -464 185 -239 415 -615 487 -794 79 -199 108 -434 89
-714 -19 -296 -69 -529 -240 -1127 -38 -132 -101 -355 -140 -495 -39 -140 -74
-258 -79 -263 -4 -4 -39 59 -77 140 -113 241 -242 448 -450 723 -423 559 -616
705 -1184 891 l-145 47 60 1 c33 0 112 -4 175 -9 350 -31 648 -147 874 -339
33 -28 61 -49 64 -47 2 2 -10 45 -27 95 -120 359 -401 668 -761 840 -213 101
-372 140 -606 148 -243 8 -429 -29 -616 -123 -216 -109 -406 -301 -384 -390
17 -68 331 -339 552 -476 260 -161 581 -287 809 -318 103 -14 430 -14 564 0
l104 11 65 -63 c266 -262 557 -676 738 -1053 198 -412 194 -606 -25 -1260
-171 -512 -256 -828 -291 -1085 -15 -111 -26 -137 -62 -149 -17 -6 -44 -11
-60 -11 -67 0 -246 46 -490 126 -294 96 -380 118 -528 135 -265 30 -582 -31
-751 -145 -84 -56 -146 -134 -248 -314 -103 -181 -158 -253 -225 -297 -62 -41
-100 -50 -276 -65 -214 -17 -269 -28 -330 -62 -73 -41 -180 -122 -260 -197
l-65 -60 4104 -1 c3550 0 4102 2 4092 14 -25 30 -119 96 -191 135 -111 59
-227 94 -505 151 -301 61 -378 81 -453 119 -74 38 -220 134 -462 306 -440 313
-634 420 -885 492 -99 28 -103 28 -365 27 -264 -1 -266 -1 -455 -38 -321 -64
-586 -107 -666 -109 -64 -2 -80 1 -99 18 -60 54 -79 161 -60 345 19 190 69
385 186 719 248 707 453 1081 758 1387 138 138 253 230 453 362 167 110 164
109 325 78 235 -45 280 -50 448 -50 243 -1 439 37 705 136 273 101 677 339
776 456 26 32 30 43 26 80 -6 57 -58 133 -161 237 -214 213 -454 321 -771 344
-171 13 -337 0 -486 -38 -433 -109 -768 -366 -969 -743 -67 -127 -64 -142 18
-88 149 96 307 159 502 201 92 20 135 23 335 24 159 0 236 -4 250 -12 23 -13
31 -11 -130 -43 -200 -41 -499 -142 -666 -225 -233 -118 -574 -402 -814 -680
-174 -202 -357 -465 -499 -720 -37 -66 -69 -122 -72 -124 -32 -32 30 210 293
1144 179 638 240 879 318 1270 72 357 108 491 183 690 187 493 478 963 825
1331 l86 91 308 6 c261 5 322 9 396 26 376 87 823 336 1131 631 94 90 136 144
136 177 0 68 -106 188 -251 284 -112 75 -185 110 -299 147 -148 47 -224 55
-447 49 -269 -7 -411 -40 -619 -145 -333 -167 -607 -460 -728 -777 -35 -93
-52 -155 -42 -155 3 0 42 28 85 63 262 206 555 310 921 323 l145 5 -145 -49
c-261 -89 -440 -171 -600 -277 -98 -64 -358 -325 -474 -475 -170 -220 -319
-459 -423 -677 -30 -62 -55 -113 -57 -113 -1 0 -1 141 2 313 15 992 -104 1767
-385 2517 -142 380 -241 566 -418 785 -134 166 -418 428 -638 589 -106 79 -90
79 98 1 491 -203 876 -539 1101 -959 l42 -79 8 59 c8 70 -2 370 -16 469 -69
471 -365 972 -765 1294 -174 140 -442 288 -644 355 -196 65 -488 100 -706 85z"/>
<path d="M30950 7555 c-305 -19 -556 -34 -558 -34 -1 -1 -1 -58 0 -128 l3
-128 220 -5 c197 -4 224 -7 255 -25 46 -27 68 -75 81 -176 6 -55 9 -698 7
-1839 l-3 -1755 -21 -45 c-25 -54 -70 -95 -122 -110 -20 -7 -108 -14 -194 -17
l-158 -6 0 -108 0 -109 785 0 785 0 0 110 0 110 -127 0 c-214 0 -313 34 -352
119 -15 33 -16 210 -19 2109 -2 1638 -5 2072 -15 2071 -6 -1 -262 -16 -567
-34z"/>
<path d="M9580 7356 l0 -143 143 -5 c116 -4 153 -9 202 -28 83 -32 142 -96
202 -218 27 -53 397 -971 823 -2040 l775 -1942 119 2 119 3 719 1855 c395
1020 736 1891 756 1935 69 149 107 209 169 276 106 112 224 158 406 159 l87 0
0 145 0 145 -825 0 -825 0 0 -145 0 -145 110 0 c349 0 526 -140 490 -388 -5
-37 -22 -112 -38 -167 -27 -93 -967 -2622 -981 -2637 -8 -9 -1158 2934 -1172
2999 -9 46 -8 58 8 90 38 79 139 103 431 103 l192 0 0 145 0 145 -955 0 -955
0 0 -144z"/>
<path d="M35910 7356 l0 -143 233 -6 c250 -5 299 -13 362 -61 20 -15 41 -45
52 -73 17 -46 18 -123 18 -1793 0 -1414 -2 -1752 -13 -1782 -7 -20 -29 -51
-47 -67 -61 -53 -114 -63 -372 -68 l-233 -6 0 -143 0 -144 1050 0 1050 0 0
145 0 145 -227 0 c-262 1 -355 10 -429 44 -96 44 -89 -33 -92 955 l-2 864 217
-6 c249 -7 332 -20 439 -72 210 -102 344 -388 344 -737 l0 -68 145 0 145 0 0
1005 0 1005 -145 0 -145 0 0 -42 c0 -24 -7 -83 -15 -133 -78 -475 -318 -665
-842 -665 l-143 0 0 753 c0 840 -1 828 65 886 62 54 81 56 540 55 384 0 432
-2 564 -22 277 -44 420 -108 566 -256 168 -170 265 -399 346 -819 17 -89 33
-168 35 -174 2 -10 38 -13 135 -13 l132 0 -6 88 c-4 48 -23 389 -42 757 -20
369 -38 685 -41 703 l-5 32 -1819 0 -1820 0 0 -144z"/>
<path d="M23122 7450 c-191 -40 -314 -251 -258 -444 22 -75 52 -122 111 -174
62 -54 130 -77 225 -75 170 2 294 100 336 263 32 126 -7 251 -107 344 -83 77
-197 109 -307 86z"/>
<path d="M20765 7073 c-50 -510 -193 -863 -418 -1030 -106 -79 -275 -143 -376
-143 l-31 0 0 -120 0 -120 255 0 255 0 0 -942 c0 -941 4 -1089 36 -1238 39
-186 160 -350 314 -423 96 -46 168 -64 307 -78 195 -20 377 11 542 92 284 140
479 544 469 974 l-3 130 -126 3 -126 3 -7 -103 c-26 -383 -124 -606 -305 -695
-51 -25 -66 -28 -166 -28 -101 0 -114 2 -165 28 -100 51 -134 98 -173 235 -21
76 -22 87 -25 1060 l-3 982 451 0 450 0 0 130 0 130 -450 0 -450 0 0 610 0
610 -124 0 -124 0 -7 -67z"/>
<path d="M15488 6009 c-742 -92 -1250 -785 -1215 -1659 21 -509 222 -901 587
-1142 424 -281 1056 -301 1481 -48 146 87 296 234 406 398 43 63 158 282 151
286 -52 36 -213 116 -216 108 -2 -6 -25 -47 -52 -92 -178 -296 -344 -443 -585
-516 -82 -25 -105 -27 -260 -28 -191 -1 -246 9 -373 69 -198 93 -350 276 -433
521 -37 108 -56 229 -65 407 l-7 137 997 0 996 0 0 73 c-1 171 -46 427 -107
600 -124 358 -350 632 -640 777 -147 73 -290 107 -477 114 -61 3 -145 1 -188
-5z m287 -264 c91 -24 174 -73 245 -145 152 -154 227 -380 218 -657 -4 -135
-18 -171 -78 -200 -32 -17 -85 -18 -641 -21 l-607 -3 5 88 c7 122 36 259 84
399 107 311 263 485 484 540 71 18 220 17 290 -1z"/>
<path d="M19135 6009 c-232 -36 -453 -195 -612 -441 -51 -80 -134 -241 -168
-330 l-24 -63 -1 373 c0 347 -1 372 -17 372 -10 0 -243 -14 -518 -30 -275 -16
-512 -30 -527 -30 l-28 0 0 -123 0 -124 187 -6 c166 -6 192 -9 233 -29 32 -16
51 -35 65 -63 20 -39 20 -60 20 -1055 l0 -1015 -22 -42 c-45 -83 -100 -103
-300 -110 l-153 -6 0 -108 0 -109 815 0 815 0 0 109 0 109 -197 5 c-220 5
-270 16 -322 69 -51 52 -54 79 -48 510 5 423 17 555 73 819 52 247 159 527
265 689 60 92 210 238 284 276 60 32 131 57 193 69 l33 7 -45 -66 c-103 -150
-85 -351 40 -465 173 -158 460 -95 560 124 55 119 55 302 -1 422 -50 111 -179
213 -309 247 -75 20 -215 27 -291 15z"/>
<path d="M25610 6013 c-157 -12 -331 -63 -480 -139 -321 -164 -551 -445 -679
-830 -58 -172 -82 -315 -88 -529 -11 -340 38 -586 167 -850 162 -330 445 -564
784 -650 321 -81 680 -39 906 107 93 60 245 216 320 328 57 86 227 416 219
425 -2 2 -54 23 -116 48 l-111 45 -50 -98 c-76 -148 -138 -237 -231 -330 -137
-137 -264 -190 -453 -190 -291 0 -513 150 -658 445 -94 191 -129 361 -137 656
-14 540 99 911 350 1146 121 112 248 163 408 163 175 0 339 -85 339 -175 0
-36 -25 -81 -76 -138 -54 -61 -74 -119 -74 -222 0 -113 20 -167 89 -236 74
-74 143 -101 261 -102 47 -1 103 5 125 12 240 80 325 384 186 667 -149 302
-552 482 -1001 447z"/>
<path d="M28320 6009 c-267 -23 -547 -118 -726 -245 -133 -94 -246 -255 -274
-390 -7 -32 -10 -99 -8 -148 8 -188 105 -305 277 -336 157 -28 307 37 373 163
19 34 23 58 23 132 0 79 -4 98 -29 153 -16 35 -44 82 -63 105 -80 101 -7 208
184 271 115 38 210 49 358 43 277 -11 489 -118 567 -284 46 -97 59 -199 56
-429 l-3 -199 -280 -52 c-342 -64 -477 -97 -710 -174 -436 -144 -721 -341
-840 -582 -25 -50 -53 -121 -62 -157 -23 -87 -23 -271 0 -360 69 -263 280
-444 597 -511 138 -29 377 -31 525 -5 283 51 526 175 726 373 l86 84 18 -48
c80 -213 188 -323 355 -364 77 -19 249 -16 335 5 107 26 229 90 297 157 66 65
90 112 90 178 0 81 -37 87 -182 32 -173 -67 -302 -21 -341 122 -26 96 -29 192
-29 878 0 749 -5 877 -41 1019 -49 193 -170 335 -374 437 -220 111 -568 161
-905 132z m740 -1716 c-1 -207 -5 -322 -14 -375 -43 -237 -296 -489 -581 -578
-99 -31 -270 -39 -350 -15 -129 37 -234 117 -298 225 -78 133 -76 353 4 512
92 182 292 307 646 404 85 23 545 121 581 123 9 1 12 -65 12 -296z"/>
<path d="M41280 6009 c-267 -23 -547 -118 -726 -245 -133 -94 -246 -255 -274
-390 -7 -32 -10 -99 -8 -148 8 -188 105 -305 277 -336 157 -28 307 37 373 163
19 34 23 58 23 132 0 79 -4 98 -29 153 -16 35 -44 82 -63 105 -80 101 -7 208
184 271 115 38 210 49 358 43 277 -11 489 -118 567 -284 46 -97 59 -199 56
-429 l-3 -199 -280 -52 c-342 -64 -477 -97 -710 -174 -436 -144 -721 -341
-840 -582 -25 -50 -53 -121 -62 -157 -23 -87 -23 -271 0 -360 69 -263 280
-444 597 -511 138 -29 377 -31 525 -5 283 51 526 175 726 373 l86 84 18 -48
c80 -213 188 -323 355 -364 77 -19 249 -16 335 5 107 26 229 90 297 157 66 65
90 112 90 178 0 81 -37 87 -182 32 -173 -67 -302 -21 -341 122 -26 96 -29 192
-29 878 0 749 -5 877 -41 1019 -49 193 -170 335 -374 437 -220 111 -568 161
-905 132z m740 -1716 c-1 -207 -5 -322 -14 -375 -43 -237 -296 -489 -581 -578
-99 -31 -270 -39 -350 -15 -129 37 -234 117 -298 225 -78 133 -76 353 4 512
92 182 292 307 646 404 85 23 545 121 581 123 9 1 12 -65 12 -296z"/>
<path d="M45265 6009 c-232 -36 -453 -195 -612 -441 -51 -80 -134 -241 -168
-330 l-24 -63 -1 373 c0 347 -1 372 -17 372 -10 0 -243 -14 -518 -30 -275 -16
-512 -30 -527 -30 l-28 0 0 -125 c0 -123 0 -125 23 -125 12 0 96 -2 186 -5
145 -4 170 -7 210 -27 33 -16 52 -35 66 -63 20 -39 20 -60 20 -1055 l0 -1015
-22 -42 c-45 -83 -100 -103 -300 -110 l-153 -6 0 -108 0 -109 815 0 815 0 0
109 0 109 -197 5 c-220 5 -270 16 -322 69 -51 52 -54 79 -48 510 5 423 17 555
73 819 52 247 159 527 265 689 60 92 210 238 284 276 60 32 131 57 193 69 l33
7 -45 -66 c-103 -150 -85 -351 40 -465 173 -158 460 -95 560 124 55 119 55
302 -1 422 -50 111 -179 213 -309 247 -75 20 -215 27 -291 15z"/>
<path d="M47946 6009 c-158 -21 -298 -77 -413 -164 -84 -62 -209 -196 -274
-293 -30 -45 -57 -81 -61 -82 -5 0 -8 101 -8 225 l0 225 -27 0 c-16 0 -253
-14 -528 -30 -275 -16 -508 -30 -517 -30 -16 0 -18 -13 -18 -124 l0 -123 189
-5 c158 -4 195 -8 227 -24 50 -25 81 -72 89 -137 3 -29 5 -491 3 -1027 -3
-966 -3 -975 -24 -1015 -23 -44 -68 -79 -123 -96 -20 -6 -100 -13 -178 -16
l-143 -6 0 -108 0 -109 765 0 765 0 0 110 0 110 -97 0 c-183 0 -305 34 -343
95 -37 60 -42 159 -37 836 4 618 5 648 26 742 69 308 212 524 414 626 268 134
584 39 702 -211 83 -177 86 -216 83 -1143 -3 -767 -4 -791 -23 -830 -22 -43
-67 -78 -124 -96 -20 -6 -105 -13 -188 -16 l-153 -5 0 -109 0 -109 775 0 775
0 0 109 0 108 -152 6 c-202 6 -260 28 -306 112 -15 27 -17 98 -20 690 -2 446
1 692 8 759 40 347 190 615 410 730 97 51 183 69 307 64 93 -4 109 -8 175 -41
149 -73 240 -199 295 -407 15 -58 17 -152 21 -880 2 -597 0 -829 -8 -868 -14
-64 -64 -120 -125 -141 -23 -7 -106 -15 -192 -18 l-153 -5 0 -109 0 -109 770
0 770 0 0 109 0 108 -142 6 c-163 6 -231 22 -283 68 -19 17 -40 47 -47 67 -9
28 -14 269 -18 942 -6 882 -6 907 -27 980 -30 105 -56 163 -118 255 -253 380
-716 513 -1164 334 -169 -68 -359 -235 -491 -431 -36 -54 -67 -97 -70 -98 -3
0 -17 33 -32 73 -95 251 -302 436 -564 502 -107 28 -276 38 -378 24z"/>
<path d="M22885 5885 c-302 -18 -551 -34 -552 -34 -2 -1 -3 -57 -3 -125 l0
-124 228 -4 c265 -4 279 -8 322 -93 l25 -50 0 -1005 c0 -1000 0 -1005 -21
-1045 -23 -44 -67 -79 -123 -96 -20 -6 -109 -14 -198 -16 l-163 -5 0 -109 0
-109 795 0 795 0 0 109 0 108 -162 6 c-184 5 -237 18 -285 70 -61 65 -58 -9
-61 1330 l-3 1227 -22 -1 c-12 -1 -269 -16 -572 -34z"/>
</g>
</svg>
