M48
; DRILL file {KiCad (5.1.10)-1} date 09/15/21 13:24:59
; FORMAT={-:-/ absolute / inch / decimal}
; #@! TF.CreationDate,2021-09-15T13:24:59-07:00
; #@! TF.GenerationSoftware,Kicad,Pcbnew,(5.1.10)-1
; #@! TF.FileFunction,Plated,1,2,PTH
FMAT,2
INCH
T1C0.0157
T2C0.0394
%
G90
G05
T1
X2.6Y-2.725
X2.84Y-3.28
X2.85Y-2.7
X3.0Y-3.28
X3.8Y-3.26
X3.85Y-2.7
X4.0Y-3.28
X4.78Y-3.26
X4.85Y-2.7
X4.97Y-3.25
X5.82Y-3.2815
X5.85Y-2.7
X5.9991Y-3.2809
T2
X2.43Y-2.825
X2.43Y-2.925
X2.53Y-2.825
X2.53Y-2.925
X2.63Y-2.825
X2.63Y-2.925
X2.73Y-2.825
X2.73Y-2.925
X2.83Y-2.825
X2.83Y-2.925
X2.93Y-2.825
X2.93Y-2.925
X3.03Y-2.825
X3.03Y-2.925
X3.43Y-2.825
X3.43Y-2.925
X3.53Y-2.825
X3.53Y-2.925
X3.63Y-2.825
X3.63Y-2.925
X3.73Y-2.825
X3.73Y-2.925
X3.83Y-2.825
X3.83Y-2.925
X3.93Y-2.825
X3.93Y-2.925
X4.03Y-2.825
X4.03Y-2.925
X4.43Y-2.825
X4.43Y-2.925
X4.53Y-2.825
X4.53Y-2.925
X4.63Y-2.825
X4.63Y-2.925
X4.73Y-2.825
X4.73Y-2.925
X4.83Y-2.825
X4.83Y-2.925
X4.93Y-2.825
X4.93Y-2.925
X5.03Y-2.825
X5.03Y-2.925
X5.43Y-2.825
X5.43Y-2.925
X5.53Y-2.825
X5.53Y-2.925
X5.63Y-2.825
X5.63Y-2.925
X5.73Y-2.825
X5.73Y-2.925
X5.83Y-2.825
X5.83Y-2.925
X5.93Y-2.825
X5.93Y-2.925
X6.03Y-2.825
X6.03Y-2.925
T0
M30
