G04 #@! TF.GenerationSoftware,KiCad,Pcbnew,(5.1.10)-1*
G04 #@! TF.CreationDate,2021-09-15T13:26:17-07:00*
G04 #@! TF.ProjectId,Adapter,41646170-7465-4722-9e6b-696361645f70,rev?*
G04 #@! TF.SameCoordinates,Original*
G04 #@! TF.FileFunction,Paste,Top*
G04 #@! TF.FilePolarity,Positive*
%FSLAX46Y46*%
G04 Gerber Fmt 4.6, Leading zero omitted, Abs format (unit mm)*
G04 Created by KiCad (PCBNEW (5.1.10)-1) date 2021-09-15 13:26:17*
%MOMM*%
%LPD*%
G01*
G04 APERTURE LIST*
G04 APERTURE END LIST*
G36*
G01*
X61978250Y-88601000D02*
X61465750Y-88601000D01*
G75*
G02*
X61247000Y-88382250I0J218750D01*
G01*
X61247000Y-87944750D01*
G75*
G02*
X61465750Y-87726000I218750J0D01*
G01*
X61978250Y-87726000D01*
G75*
G02*
X62197000Y-87944750I0J-218750D01*
G01*
X62197000Y-88382250D01*
G75*
G02*
X61978250Y-88601000I-218750J0D01*
G01*
G37*
G36*
G01*
X61978250Y-87026000D02*
X61465750Y-87026000D01*
G75*
G02*
X61247000Y-86807250I0J218750D01*
G01*
X61247000Y-86369750D01*
G75*
G02*
X61465750Y-86151000I218750J0D01*
G01*
X61978250Y-86151000D01*
G75*
G02*
X62197000Y-86369750I0J-218750D01*
G01*
X62197000Y-86807250D01*
G75*
G02*
X61978250Y-87026000I-218750J0D01*
G01*
G37*
G36*
G01*
X87886250Y-88601000D02*
X87373750Y-88601000D01*
G75*
G02*
X87155000Y-88382250I0J218750D01*
G01*
X87155000Y-87944750D01*
G75*
G02*
X87373750Y-87726000I218750J0D01*
G01*
X87886250Y-87726000D01*
G75*
G02*
X88105000Y-87944750I0J-218750D01*
G01*
X88105000Y-88382250D01*
G75*
G02*
X87886250Y-88601000I-218750J0D01*
G01*
G37*
G36*
G01*
X87886250Y-87026000D02*
X87373750Y-87026000D01*
G75*
G02*
X87155000Y-86807250I0J218750D01*
G01*
X87155000Y-86369750D01*
G75*
G02*
X87373750Y-86151000I218750J0D01*
G01*
X87886250Y-86151000D01*
G75*
G02*
X88105000Y-86369750I0J-218750D01*
G01*
X88105000Y-86807250D01*
G75*
G02*
X87886250Y-87026000I-218750J0D01*
G01*
G37*
G36*
G01*
X112270250Y-87026000D02*
X111757750Y-87026000D01*
G75*
G02*
X111539000Y-86807250I0J218750D01*
G01*
X111539000Y-86369750D01*
G75*
G02*
X111757750Y-86151000I218750J0D01*
G01*
X112270250Y-86151000D01*
G75*
G02*
X112489000Y-86369750I0J-218750D01*
G01*
X112489000Y-86807250D01*
G75*
G02*
X112270250Y-87026000I-218750J0D01*
G01*
G37*
G36*
G01*
X112270250Y-88601000D02*
X111757750Y-88601000D01*
G75*
G02*
X111539000Y-88382250I0J218750D01*
G01*
X111539000Y-87944750D01*
G75*
G02*
X111757750Y-87726000I218750J0D01*
G01*
X112270250Y-87726000D01*
G75*
G02*
X112489000Y-87944750I0J-218750D01*
G01*
X112489000Y-88382250D01*
G75*
G02*
X112270250Y-88601000I-218750J0D01*
G01*
G37*
G36*
G01*
X138178250Y-87026000D02*
X137665750Y-87026000D01*
G75*
G02*
X137447000Y-86807250I0J218750D01*
G01*
X137447000Y-86369750D01*
G75*
G02*
X137665750Y-86151000I218750J0D01*
G01*
X138178250Y-86151000D01*
G75*
G02*
X138397000Y-86369750I0J-218750D01*
G01*
X138397000Y-86807250D01*
G75*
G02*
X138178250Y-87026000I-218750J0D01*
G01*
G37*
G36*
G01*
X138178250Y-88601000D02*
X137665750Y-88601000D01*
G75*
G02*
X137447000Y-88382250I0J218750D01*
G01*
X137447000Y-87944750D01*
G75*
G02*
X137665750Y-87726000I218750J0D01*
G01*
X138178250Y-87726000D01*
G75*
G02*
X138397000Y-87944750I0J-218750D01*
G01*
X138397000Y-88382250D01*
G75*
G02*
X138178250Y-88601000I-218750J0D01*
G01*
G37*
G36*
G01*
X67566250Y-88601000D02*
X67053750Y-88601000D01*
G75*
G02*
X66835000Y-88382250I0J218750D01*
G01*
X66835000Y-87944750D01*
G75*
G02*
X67053750Y-87726000I218750J0D01*
G01*
X67566250Y-87726000D01*
G75*
G02*
X67785000Y-87944750I0J-218750D01*
G01*
X67785000Y-88382250D01*
G75*
G02*
X67566250Y-88601000I-218750J0D01*
G01*
G37*
G36*
G01*
X67566250Y-87026000D02*
X67053750Y-87026000D01*
G75*
G02*
X66835000Y-86807250I0J218750D01*
G01*
X66835000Y-86369750D01*
G75*
G02*
X67053750Y-86151000I218750J0D01*
G01*
X67566250Y-86151000D01*
G75*
G02*
X67785000Y-86369750I0J-218750D01*
G01*
X67785000Y-86807250D01*
G75*
G02*
X67566250Y-87026000I-218750J0D01*
G01*
G37*
G36*
G01*
X92966250Y-88601000D02*
X92453750Y-88601000D01*
G75*
G02*
X92235000Y-88382250I0J218750D01*
G01*
X92235000Y-87944750D01*
G75*
G02*
X92453750Y-87726000I218750J0D01*
G01*
X92966250Y-87726000D01*
G75*
G02*
X93185000Y-87944750I0J-218750D01*
G01*
X93185000Y-88382250D01*
G75*
G02*
X92966250Y-88601000I-218750J0D01*
G01*
G37*
G36*
G01*
X92966250Y-87026000D02*
X92453750Y-87026000D01*
G75*
G02*
X92235000Y-86807250I0J218750D01*
G01*
X92235000Y-86369750D01*
G75*
G02*
X92453750Y-86151000I218750J0D01*
G01*
X92966250Y-86151000D01*
G75*
G02*
X93185000Y-86369750I0J-218750D01*
G01*
X93185000Y-86807250D01*
G75*
G02*
X92966250Y-87026000I-218750J0D01*
G01*
G37*
G36*
G01*
X117350250Y-88601000D02*
X116837750Y-88601000D01*
G75*
G02*
X116619000Y-88382250I0J218750D01*
G01*
X116619000Y-87944750D01*
G75*
G02*
X116837750Y-87726000I218750J0D01*
G01*
X117350250Y-87726000D01*
G75*
G02*
X117569000Y-87944750I0J-218750D01*
G01*
X117569000Y-88382250D01*
G75*
G02*
X117350250Y-88601000I-218750J0D01*
G01*
G37*
G36*
G01*
X117350250Y-87026000D02*
X116837750Y-87026000D01*
G75*
G02*
X116619000Y-86807250I0J218750D01*
G01*
X116619000Y-86369750D01*
G75*
G02*
X116837750Y-86151000I218750J0D01*
G01*
X117350250Y-86151000D01*
G75*
G02*
X117569000Y-86369750I0J-218750D01*
G01*
X117569000Y-86807250D01*
G75*
G02*
X117350250Y-87026000I-218750J0D01*
G01*
G37*
G36*
G01*
X143258250Y-88601000D02*
X142745750Y-88601000D01*
G75*
G02*
X142527000Y-88382250I0J218750D01*
G01*
X142527000Y-87944750D01*
G75*
G02*
X142745750Y-87726000I218750J0D01*
G01*
X143258250Y-87726000D01*
G75*
G02*
X143477000Y-87944750I0J-218750D01*
G01*
X143477000Y-88382250D01*
G75*
G02*
X143258250Y-88601000I-218750J0D01*
G01*
G37*
G36*
G01*
X143258250Y-87026000D02*
X142745750Y-87026000D01*
G75*
G02*
X142527000Y-86807250I0J218750D01*
G01*
X142527000Y-86369750D01*
G75*
G02*
X142745750Y-86151000I218750J0D01*
G01*
X143258250Y-86151000D01*
G75*
G02*
X143477000Y-86369750I0J-218750D01*
G01*
X143477000Y-86807250D01*
G75*
G02*
X143258250Y-87026000I-218750J0D01*
G01*
G37*
G36*
G01*
X72646250Y-87026000D02*
X72133750Y-87026000D01*
G75*
G02*
X71915000Y-86807250I0J218750D01*
G01*
X71915000Y-86369750D01*
G75*
G02*
X72133750Y-86151000I218750J0D01*
G01*
X72646250Y-86151000D01*
G75*
G02*
X72865000Y-86369750I0J-218750D01*
G01*
X72865000Y-86807250D01*
G75*
G02*
X72646250Y-87026000I-218750J0D01*
G01*
G37*
G36*
G01*
X72646250Y-88601000D02*
X72133750Y-88601000D01*
G75*
G02*
X71915000Y-88382250I0J218750D01*
G01*
X71915000Y-87944750D01*
G75*
G02*
X72133750Y-87726000I218750J0D01*
G01*
X72646250Y-87726000D01*
G75*
G02*
X72865000Y-87944750I0J-218750D01*
G01*
X72865000Y-88382250D01*
G75*
G02*
X72646250Y-88601000I-218750J0D01*
G01*
G37*
G36*
G01*
X97538250Y-87026000D02*
X97025750Y-87026000D01*
G75*
G02*
X96807000Y-86807250I0J218750D01*
G01*
X96807000Y-86369750D01*
G75*
G02*
X97025750Y-86151000I218750J0D01*
G01*
X97538250Y-86151000D01*
G75*
G02*
X97757000Y-86369750I0J-218750D01*
G01*
X97757000Y-86807250D01*
G75*
G02*
X97538250Y-87026000I-218750J0D01*
G01*
G37*
G36*
G01*
X97538250Y-88601000D02*
X97025750Y-88601000D01*
G75*
G02*
X96807000Y-88382250I0J218750D01*
G01*
X96807000Y-87944750D01*
G75*
G02*
X97025750Y-87726000I218750J0D01*
G01*
X97538250Y-87726000D01*
G75*
G02*
X97757000Y-87944750I0J-218750D01*
G01*
X97757000Y-88382250D01*
G75*
G02*
X97538250Y-88601000I-218750J0D01*
G01*
G37*
G36*
G01*
X121922250Y-88601000D02*
X121409750Y-88601000D01*
G75*
G02*
X121191000Y-88382250I0J218750D01*
G01*
X121191000Y-87944750D01*
G75*
G02*
X121409750Y-87726000I218750J0D01*
G01*
X121922250Y-87726000D01*
G75*
G02*
X122141000Y-87944750I0J-218750D01*
G01*
X122141000Y-88382250D01*
G75*
G02*
X121922250Y-88601000I-218750J0D01*
G01*
G37*
G36*
G01*
X121922250Y-87026000D02*
X121409750Y-87026000D01*
G75*
G02*
X121191000Y-86807250I0J218750D01*
G01*
X121191000Y-86369750D01*
G75*
G02*
X121409750Y-86151000I218750J0D01*
G01*
X121922250Y-86151000D01*
G75*
G02*
X122141000Y-86369750I0J-218750D01*
G01*
X122141000Y-86807250D01*
G75*
G02*
X121922250Y-87026000I-218750J0D01*
G01*
G37*
G36*
G01*
X148338250Y-87026000D02*
X147825750Y-87026000D01*
G75*
G02*
X147607000Y-86807250I0J218750D01*
G01*
X147607000Y-86369750D01*
G75*
G02*
X147825750Y-86151000I218750J0D01*
G01*
X148338250Y-86151000D01*
G75*
G02*
X148557000Y-86369750I0J-218750D01*
G01*
X148557000Y-86807250D01*
G75*
G02*
X148338250Y-87026000I-218750J0D01*
G01*
G37*
G36*
G01*
X148338250Y-88601000D02*
X147825750Y-88601000D01*
G75*
G02*
X147607000Y-88382250I0J218750D01*
G01*
X147607000Y-87944750D01*
G75*
G02*
X147825750Y-87726000I218750J0D01*
G01*
X148338250Y-87726000D01*
G75*
G02*
X148557000Y-87944750I0J-218750D01*
G01*
X148557000Y-88382250D01*
G75*
G02*
X148338250Y-88601000I-218750J0D01*
G01*
G37*
G36*
G01*
X77218250Y-87026000D02*
X76705750Y-87026000D01*
G75*
G02*
X76487000Y-86807250I0J218750D01*
G01*
X76487000Y-86369750D01*
G75*
G02*
X76705750Y-86151000I218750J0D01*
G01*
X77218250Y-86151000D01*
G75*
G02*
X77437000Y-86369750I0J-218750D01*
G01*
X77437000Y-86807250D01*
G75*
G02*
X77218250Y-87026000I-218750J0D01*
G01*
G37*
G36*
G01*
X77218250Y-88601000D02*
X76705750Y-88601000D01*
G75*
G02*
X76487000Y-88382250I0J218750D01*
G01*
X76487000Y-87944750D01*
G75*
G02*
X76705750Y-87726000I218750J0D01*
G01*
X77218250Y-87726000D01*
G75*
G02*
X77437000Y-87944750I0J-218750D01*
G01*
X77437000Y-88382250D01*
G75*
G02*
X77218250Y-88601000I-218750J0D01*
G01*
G37*
G36*
G01*
X102618250Y-87026000D02*
X102105750Y-87026000D01*
G75*
G02*
X101887000Y-86807250I0J218750D01*
G01*
X101887000Y-86369750D01*
G75*
G02*
X102105750Y-86151000I218750J0D01*
G01*
X102618250Y-86151000D01*
G75*
G02*
X102837000Y-86369750I0J-218750D01*
G01*
X102837000Y-86807250D01*
G75*
G02*
X102618250Y-87026000I-218750J0D01*
G01*
G37*
G36*
G01*
X102618250Y-88601000D02*
X102105750Y-88601000D01*
G75*
G02*
X101887000Y-88382250I0J218750D01*
G01*
X101887000Y-87944750D01*
G75*
G02*
X102105750Y-87726000I218750J0D01*
G01*
X102618250Y-87726000D01*
G75*
G02*
X102837000Y-87944750I0J-218750D01*
G01*
X102837000Y-88382250D01*
G75*
G02*
X102618250Y-88601000I-218750J0D01*
G01*
G37*
G36*
G01*
X127510250Y-87026000D02*
X126997750Y-87026000D01*
G75*
G02*
X126779000Y-86807250I0J218750D01*
G01*
X126779000Y-86369750D01*
G75*
G02*
X126997750Y-86151000I218750J0D01*
G01*
X127510250Y-86151000D01*
G75*
G02*
X127729000Y-86369750I0J-218750D01*
G01*
X127729000Y-86807250D01*
G75*
G02*
X127510250Y-87026000I-218750J0D01*
G01*
G37*
G36*
G01*
X127510250Y-88601000D02*
X126997750Y-88601000D01*
G75*
G02*
X126779000Y-88382250I0J218750D01*
G01*
X126779000Y-87944750D01*
G75*
G02*
X126997750Y-87726000I218750J0D01*
G01*
X127510250Y-87726000D01*
G75*
G02*
X127729000Y-87944750I0J-218750D01*
G01*
X127729000Y-88382250D01*
G75*
G02*
X127510250Y-88601000I-218750J0D01*
G01*
G37*
G36*
G01*
X153418250Y-88601000D02*
X152905750Y-88601000D01*
G75*
G02*
X152687000Y-88382250I0J218750D01*
G01*
X152687000Y-87944750D01*
G75*
G02*
X152905750Y-87726000I218750J0D01*
G01*
X153418250Y-87726000D01*
G75*
G02*
X153637000Y-87944750I0J-218750D01*
G01*
X153637000Y-88382250D01*
G75*
G02*
X153418250Y-88601000I-218750J0D01*
G01*
G37*
G36*
G01*
X153418250Y-87026000D02*
X152905750Y-87026000D01*
G75*
G02*
X152687000Y-86807250I0J218750D01*
G01*
X152687000Y-86369750D01*
G75*
G02*
X152905750Y-86151000I218750J0D01*
G01*
X153418250Y-86151000D01*
G75*
G02*
X153637000Y-86369750I0J-218750D01*
G01*
X153637000Y-86807250D01*
G75*
G02*
X153418250Y-87026000I-218750J0D01*
G01*
G37*
G36*
G01*
X61907000Y-85616000D02*
X61537000Y-85616000D01*
G75*
G02*
X61402000Y-85481000I0J135000D01*
G01*
X61402000Y-85211000D01*
G75*
G02*
X61537000Y-85076000I135000J0D01*
G01*
X61907000Y-85076000D01*
G75*
G02*
X62042000Y-85211000I0J-135000D01*
G01*
X62042000Y-85481000D01*
G75*
G02*
X61907000Y-85616000I-135000J0D01*
G01*
G37*
G36*
G01*
X61907000Y-84596000D02*
X61537000Y-84596000D01*
G75*
G02*
X61402000Y-84461000I0J135000D01*
G01*
X61402000Y-84191000D01*
G75*
G02*
X61537000Y-84056000I135000J0D01*
G01*
X61907000Y-84056000D01*
G75*
G02*
X62042000Y-84191000I0J-135000D01*
G01*
X62042000Y-84461000D01*
G75*
G02*
X61907000Y-84596000I-135000J0D01*
G01*
G37*
G36*
G01*
X87815000Y-85616000D02*
X87445000Y-85616000D01*
G75*
G02*
X87310000Y-85481000I0J135000D01*
G01*
X87310000Y-85211000D01*
G75*
G02*
X87445000Y-85076000I135000J0D01*
G01*
X87815000Y-85076000D01*
G75*
G02*
X87950000Y-85211000I0J-135000D01*
G01*
X87950000Y-85481000D01*
G75*
G02*
X87815000Y-85616000I-135000J0D01*
G01*
G37*
G36*
G01*
X87815000Y-84596000D02*
X87445000Y-84596000D01*
G75*
G02*
X87310000Y-84461000I0J135000D01*
G01*
X87310000Y-84191000D01*
G75*
G02*
X87445000Y-84056000I135000J0D01*
G01*
X87815000Y-84056000D01*
G75*
G02*
X87950000Y-84191000I0J-135000D01*
G01*
X87950000Y-84461000D01*
G75*
G02*
X87815000Y-84596000I-135000J0D01*
G01*
G37*
G36*
G01*
X112199000Y-84596000D02*
X111829000Y-84596000D01*
G75*
G02*
X111694000Y-84461000I0J135000D01*
G01*
X111694000Y-84191000D01*
G75*
G02*
X111829000Y-84056000I135000J0D01*
G01*
X112199000Y-84056000D01*
G75*
G02*
X112334000Y-84191000I0J-135000D01*
G01*
X112334000Y-84461000D01*
G75*
G02*
X112199000Y-84596000I-135000J0D01*
G01*
G37*
G36*
G01*
X112199000Y-85616000D02*
X111829000Y-85616000D01*
G75*
G02*
X111694000Y-85481000I0J135000D01*
G01*
X111694000Y-85211000D01*
G75*
G02*
X111829000Y-85076000I135000J0D01*
G01*
X112199000Y-85076000D01*
G75*
G02*
X112334000Y-85211000I0J-135000D01*
G01*
X112334000Y-85481000D01*
G75*
G02*
X112199000Y-85616000I-135000J0D01*
G01*
G37*
G36*
G01*
X138107000Y-84596000D02*
X137737000Y-84596000D01*
G75*
G02*
X137602000Y-84461000I0J135000D01*
G01*
X137602000Y-84191000D01*
G75*
G02*
X137737000Y-84056000I135000J0D01*
G01*
X138107000Y-84056000D01*
G75*
G02*
X138242000Y-84191000I0J-135000D01*
G01*
X138242000Y-84461000D01*
G75*
G02*
X138107000Y-84596000I-135000J0D01*
G01*
G37*
G36*
G01*
X138107000Y-85616000D02*
X137737000Y-85616000D01*
G75*
G02*
X137602000Y-85481000I0J135000D01*
G01*
X137602000Y-85211000D01*
G75*
G02*
X137737000Y-85076000I135000J0D01*
G01*
X138107000Y-85076000D01*
G75*
G02*
X138242000Y-85211000I0J-135000D01*
G01*
X138242000Y-85481000D01*
G75*
G02*
X138107000Y-85616000I-135000J0D01*
G01*
G37*
G36*
G01*
X67495000Y-84596000D02*
X67125000Y-84596000D01*
G75*
G02*
X66990000Y-84461000I0J135000D01*
G01*
X66990000Y-84191000D01*
G75*
G02*
X67125000Y-84056000I135000J0D01*
G01*
X67495000Y-84056000D01*
G75*
G02*
X67630000Y-84191000I0J-135000D01*
G01*
X67630000Y-84461000D01*
G75*
G02*
X67495000Y-84596000I-135000J0D01*
G01*
G37*
G36*
G01*
X67495000Y-85616000D02*
X67125000Y-85616000D01*
G75*
G02*
X66990000Y-85481000I0J135000D01*
G01*
X66990000Y-85211000D01*
G75*
G02*
X67125000Y-85076000I135000J0D01*
G01*
X67495000Y-85076000D01*
G75*
G02*
X67630000Y-85211000I0J-135000D01*
G01*
X67630000Y-85481000D01*
G75*
G02*
X67495000Y-85616000I-135000J0D01*
G01*
G37*
G36*
G01*
X92895000Y-84596000D02*
X92525000Y-84596000D01*
G75*
G02*
X92390000Y-84461000I0J135000D01*
G01*
X92390000Y-84191000D01*
G75*
G02*
X92525000Y-84056000I135000J0D01*
G01*
X92895000Y-84056000D01*
G75*
G02*
X93030000Y-84191000I0J-135000D01*
G01*
X93030000Y-84461000D01*
G75*
G02*
X92895000Y-84596000I-135000J0D01*
G01*
G37*
G36*
G01*
X92895000Y-85616000D02*
X92525000Y-85616000D01*
G75*
G02*
X92390000Y-85481000I0J135000D01*
G01*
X92390000Y-85211000D01*
G75*
G02*
X92525000Y-85076000I135000J0D01*
G01*
X92895000Y-85076000D01*
G75*
G02*
X93030000Y-85211000I0J-135000D01*
G01*
X93030000Y-85481000D01*
G75*
G02*
X92895000Y-85616000I-135000J0D01*
G01*
G37*
G36*
G01*
X117279000Y-85616000D02*
X116909000Y-85616000D01*
G75*
G02*
X116774000Y-85481000I0J135000D01*
G01*
X116774000Y-85211000D01*
G75*
G02*
X116909000Y-85076000I135000J0D01*
G01*
X117279000Y-85076000D01*
G75*
G02*
X117414000Y-85211000I0J-135000D01*
G01*
X117414000Y-85481000D01*
G75*
G02*
X117279000Y-85616000I-135000J0D01*
G01*
G37*
G36*
G01*
X117279000Y-84596000D02*
X116909000Y-84596000D01*
G75*
G02*
X116774000Y-84461000I0J135000D01*
G01*
X116774000Y-84191000D01*
G75*
G02*
X116909000Y-84056000I135000J0D01*
G01*
X117279000Y-84056000D01*
G75*
G02*
X117414000Y-84191000I0J-135000D01*
G01*
X117414000Y-84461000D01*
G75*
G02*
X117279000Y-84596000I-135000J0D01*
G01*
G37*
G36*
G01*
X143187000Y-85616000D02*
X142817000Y-85616000D01*
G75*
G02*
X142682000Y-85481000I0J135000D01*
G01*
X142682000Y-85211000D01*
G75*
G02*
X142817000Y-85076000I135000J0D01*
G01*
X143187000Y-85076000D01*
G75*
G02*
X143322000Y-85211000I0J-135000D01*
G01*
X143322000Y-85481000D01*
G75*
G02*
X143187000Y-85616000I-135000J0D01*
G01*
G37*
G36*
G01*
X143187000Y-84596000D02*
X142817000Y-84596000D01*
G75*
G02*
X142682000Y-84461000I0J135000D01*
G01*
X142682000Y-84191000D01*
G75*
G02*
X142817000Y-84056000I135000J0D01*
G01*
X143187000Y-84056000D01*
G75*
G02*
X143322000Y-84191000I0J-135000D01*
G01*
X143322000Y-84461000D01*
G75*
G02*
X143187000Y-84596000I-135000J0D01*
G01*
G37*
G36*
G01*
X72575000Y-85616000D02*
X72205000Y-85616000D01*
G75*
G02*
X72070000Y-85481000I0J135000D01*
G01*
X72070000Y-85211000D01*
G75*
G02*
X72205000Y-85076000I135000J0D01*
G01*
X72575000Y-85076000D01*
G75*
G02*
X72710000Y-85211000I0J-135000D01*
G01*
X72710000Y-85481000D01*
G75*
G02*
X72575000Y-85616000I-135000J0D01*
G01*
G37*
G36*
G01*
X72575000Y-84596000D02*
X72205000Y-84596000D01*
G75*
G02*
X72070000Y-84461000I0J135000D01*
G01*
X72070000Y-84191000D01*
G75*
G02*
X72205000Y-84056000I135000J0D01*
G01*
X72575000Y-84056000D01*
G75*
G02*
X72710000Y-84191000I0J-135000D01*
G01*
X72710000Y-84461000D01*
G75*
G02*
X72575000Y-84596000I-135000J0D01*
G01*
G37*
G36*
G01*
X97467000Y-85616000D02*
X97097000Y-85616000D01*
G75*
G02*
X96962000Y-85481000I0J135000D01*
G01*
X96962000Y-85211000D01*
G75*
G02*
X97097000Y-85076000I135000J0D01*
G01*
X97467000Y-85076000D01*
G75*
G02*
X97602000Y-85211000I0J-135000D01*
G01*
X97602000Y-85481000D01*
G75*
G02*
X97467000Y-85616000I-135000J0D01*
G01*
G37*
G36*
G01*
X97467000Y-84596000D02*
X97097000Y-84596000D01*
G75*
G02*
X96962000Y-84461000I0J135000D01*
G01*
X96962000Y-84191000D01*
G75*
G02*
X97097000Y-84056000I135000J0D01*
G01*
X97467000Y-84056000D01*
G75*
G02*
X97602000Y-84191000I0J-135000D01*
G01*
X97602000Y-84461000D01*
G75*
G02*
X97467000Y-84596000I-135000J0D01*
G01*
G37*
G36*
G01*
X121851000Y-84596000D02*
X121481000Y-84596000D01*
G75*
G02*
X121346000Y-84461000I0J135000D01*
G01*
X121346000Y-84191000D01*
G75*
G02*
X121481000Y-84056000I135000J0D01*
G01*
X121851000Y-84056000D01*
G75*
G02*
X121986000Y-84191000I0J-135000D01*
G01*
X121986000Y-84461000D01*
G75*
G02*
X121851000Y-84596000I-135000J0D01*
G01*
G37*
G36*
G01*
X121851000Y-85616000D02*
X121481000Y-85616000D01*
G75*
G02*
X121346000Y-85481000I0J135000D01*
G01*
X121346000Y-85211000D01*
G75*
G02*
X121481000Y-85076000I135000J0D01*
G01*
X121851000Y-85076000D01*
G75*
G02*
X121986000Y-85211000I0J-135000D01*
G01*
X121986000Y-85481000D01*
G75*
G02*
X121851000Y-85616000I-135000J0D01*
G01*
G37*
G36*
G01*
X148267000Y-84596000D02*
X147897000Y-84596000D01*
G75*
G02*
X147762000Y-84461000I0J135000D01*
G01*
X147762000Y-84191000D01*
G75*
G02*
X147897000Y-84056000I135000J0D01*
G01*
X148267000Y-84056000D01*
G75*
G02*
X148402000Y-84191000I0J-135000D01*
G01*
X148402000Y-84461000D01*
G75*
G02*
X148267000Y-84596000I-135000J0D01*
G01*
G37*
G36*
G01*
X148267000Y-85616000D02*
X147897000Y-85616000D01*
G75*
G02*
X147762000Y-85481000I0J135000D01*
G01*
X147762000Y-85211000D01*
G75*
G02*
X147897000Y-85076000I135000J0D01*
G01*
X148267000Y-85076000D01*
G75*
G02*
X148402000Y-85211000I0J-135000D01*
G01*
X148402000Y-85481000D01*
G75*
G02*
X148267000Y-85616000I-135000J0D01*
G01*
G37*
G36*
G01*
X77147000Y-84596000D02*
X76777000Y-84596000D01*
G75*
G02*
X76642000Y-84461000I0J135000D01*
G01*
X76642000Y-84191000D01*
G75*
G02*
X76777000Y-84056000I135000J0D01*
G01*
X77147000Y-84056000D01*
G75*
G02*
X77282000Y-84191000I0J-135000D01*
G01*
X77282000Y-84461000D01*
G75*
G02*
X77147000Y-84596000I-135000J0D01*
G01*
G37*
G36*
G01*
X77147000Y-85616000D02*
X76777000Y-85616000D01*
G75*
G02*
X76642000Y-85481000I0J135000D01*
G01*
X76642000Y-85211000D01*
G75*
G02*
X76777000Y-85076000I135000J0D01*
G01*
X77147000Y-85076000D01*
G75*
G02*
X77282000Y-85211000I0J-135000D01*
G01*
X77282000Y-85481000D01*
G75*
G02*
X77147000Y-85616000I-135000J0D01*
G01*
G37*
G36*
G01*
X102547000Y-84596000D02*
X102177000Y-84596000D01*
G75*
G02*
X102042000Y-84461000I0J135000D01*
G01*
X102042000Y-84191000D01*
G75*
G02*
X102177000Y-84056000I135000J0D01*
G01*
X102547000Y-84056000D01*
G75*
G02*
X102682000Y-84191000I0J-135000D01*
G01*
X102682000Y-84461000D01*
G75*
G02*
X102547000Y-84596000I-135000J0D01*
G01*
G37*
G36*
G01*
X102547000Y-85616000D02*
X102177000Y-85616000D01*
G75*
G02*
X102042000Y-85481000I0J135000D01*
G01*
X102042000Y-85211000D01*
G75*
G02*
X102177000Y-85076000I135000J0D01*
G01*
X102547000Y-85076000D01*
G75*
G02*
X102682000Y-85211000I0J-135000D01*
G01*
X102682000Y-85481000D01*
G75*
G02*
X102547000Y-85616000I-135000J0D01*
G01*
G37*
G36*
G01*
X127439000Y-85616000D02*
X127069000Y-85616000D01*
G75*
G02*
X126934000Y-85481000I0J135000D01*
G01*
X126934000Y-85211000D01*
G75*
G02*
X127069000Y-85076000I135000J0D01*
G01*
X127439000Y-85076000D01*
G75*
G02*
X127574000Y-85211000I0J-135000D01*
G01*
X127574000Y-85481000D01*
G75*
G02*
X127439000Y-85616000I-135000J0D01*
G01*
G37*
G36*
G01*
X127439000Y-84596000D02*
X127069000Y-84596000D01*
G75*
G02*
X126934000Y-84461000I0J135000D01*
G01*
X126934000Y-84191000D01*
G75*
G02*
X127069000Y-84056000I135000J0D01*
G01*
X127439000Y-84056000D01*
G75*
G02*
X127574000Y-84191000I0J-135000D01*
G01*
X127574000Y-84461000D01*
G75*
G02*
X127439000Y-84596000I-135000J0D01*
G01*
G37*
G36*
G01*
X153347000Y-85616000D02*
X152977000Y-85616000D01*
G75*
G02*
X152842000Y-85481000I0J135000D01*
G01*
X152842000Y-85211000D01*
G75*
G02*
X152977000Y-85076000I135000J0D01*
G01*
X153347000Y-85076000D01*
G75*
G02*
X153482000Y-85211000I0J-135000D01*
G01*
X153482000Y-85481000D01*
G75*
G02*
X153347000Y-85616000I-135000J0D01*
G01*
G37*
G36*
G01*
X153347000Y-84596000D02*
X152977000Y-84596000D01*
G75*
G02*
X152842000Y-84461000I0J135000D01*
G01*
X152842000Y-84191000D01*
G75*
G02*
X152977000Y-84056000I135000J0D01*
G01*
X153347000Y-84056000D01*
G75*
G02*
X153482000Y-84191000I0J-135000D01*
G01*
X153482000Y-84461000D01*
G75*
G02*
X153347000Y-84596000I-135000J0D01*
G01*
G37*
G36*
G01*
X66276000Y-66733000D02*
X66276000Y-66363000D01*
G75*
G02*
X66411000Y-66228000I135000J0D01*
G01*
X66681000Y-66228000D01*
G75*
G02*
X66816000Y-66363000I0J-135000D01*
G01*
X66816000Y-66733000D01*
G75*
G02*
X66681000Y-66868000I-135000J0D01*
G01*
X66411000Y-66868000D01*
G75*
G02*
X66276000Y-66733000I0J135000D01*
G01*
G37*
G36*
G01*
X67296000Y-66733000D02*
X67296000Y-66363000D01*
G75*
G02*
X67431000Y-66228000I135000J0D01*
G01*
X67701000Y-66228000D01*
G75*
G02*
X67836000Y-66363000I0J-135000D01*
G01*
X67836000Y-66733000D01*
G75*
G02*
X67701000Y-66868000I-135000J0D01*
G01*
X67431000Y-66868000D01*
G75*
G02*
X67296000Y-66733000I0J135000D01*
G01*
G37*
G36*
G01*
X69324000Y-66733000D02*
X69324000Y-66363000D01*
G75*
G02*
X69459000Y-66228000I135000J0D01*
G01*
X69729000Y-66228000D01*
G75*
G02*
X69864000Y-66363000I0J-135000D01*
G01*
X69864000Y-66733000D01*
G75*
G02*
X69729000Y-66868000I-135000J0D01*
G01*
X69459000Y-66868000D01*
G75*
G02*
X69324000Y-66733000I0J135000D01*
G01*
G37*
G36*
G01*
X70344000Y-66733000D02*
X70344000Y-66363000D01*
G75*
G02*
X70479000Y-66228000I135000J0D01*
G01*
X70749000Y-66228000D01*
G75*
G02*
X70884000Y-66363000I0J-135000D01*
G01*
X70884000Y-66733000D01*
G75*
G02*
X70749000Y-66868000I-135000J0D01*
G01*
X70479000Y-66868000D01*
G75*
G02*
X70344000Y-66733000I0J135000D01*
G01*
G37*
G36*
G01*
X73392000Y-66733000D02*
X73392000Y-66363000D01*
G75*
G02*
X73527000Y-66228000I135000J0D01*
G01*
X73797000Y-66228000D01*
G75*
G02*
X73932000Y-66363000I0J-135000D01*
G01*
X73932000Y-66733000D01*
G75*
G02*
X73797000Y-66868000I-135000J0D01*
G01*
X73527000Y-66868000D01*
G75*
G02*
X73392000Y-66733000I0J135000D01*
G01*
G37*
G36*
G01*
X72372000Y-66733000D02*
X72372000Y-66363000D01*
G75*
G02*
X72507000Y-66228000I135000J0D01*
G01*
X72777000Y-66228000D01*
G75*
G02*
X72912000Y-66363000I0J-135000D01*
G01*
X72912000Y-66733000D01*
G75*
G02*
X72777000Y-66868000I-135000J0D01*
G01*
X72507000Y-66868000D01*
G75*
G02*
X72372000Y-66733000I0J135000D01*
G01*
G37*
G36*
G01*
X75420000Y-66733000D02*
X75420000Y-66363000D01*
G75*
G02*
X75555000Y-66228000I135000J0D01*
G01*
X75825000Y-66228000D01*
G75*
G02*
X75960000Y-66363000I0J-135000D01*
G01*
X75960000Y-66733000D01*
G75*
G02*
X75825000Y-66868000I-135000J0D01*
G01*
X75555000Y-66868000D01*
G75*
G02*
X75420000Y-66733000I0J135000D01*
G01*
G37*
G36*
G01*
X76440000Y-66733000D02*
X76440000Y-66363000D01*
G75*
G02*
X76575000Y-66228000I135000J0D01*
G01*
X76845000Y-66228000D01*
G75*
G02*
X76980000Y-66363000I0J-135000D01*
G01*
X76980000Y-66733000D01*
G75*
G02*
X76845000Y-66868000I-135000J0D01*
G01*
X76575000Y-66868000D01*
G75*
G02*
X76440000Y-66733000I0J135000D01*
G01*
G37*
G36*
G01*
X91676000Y-66733000D02*
X91676000Y-66363000D01*
G75*
G02*
X91811000Y-66228000I135000J0D01*
G01*
X92081000Y-66228000D01*
G75*
G02*
X92216000Y-66363000I0J-135000D01*
G01*
X92216000Y-66733000D01*
G75*
G02*
X92081000Y-66868000I-135000J0D01*
G01*
X91811000Y-66868000D01*
G75*
G02*
X91676000Y-66733000I0J135000D01*
G01*
G37*
G36*
G01*
X92696000Y-66733000D02*
X92696000Y-66363000D01*
G75*
G02*
X92831000Y-66228000I135000J0D01*
G01*
X93101000Y-66228000D01*
G75*
G02*
X93236000Y-66363000I0J-135000D01*
G01*
X93236000Y-66733000D01*
G75*
G02*
X93101000Y-66868000I-135000J0D01*
G01*
X92831000Y-66868000D01*
G75*
G02*
X92696000Y-66733000I0J135000D01*
G01*
G37*
G36*
G01*
X94724000Y-66733000D02*
X94724000Y-66363000D01*
G75*
G02*
X94859000Y-66228000I135000J0D01*
G01*
X95129000Y-66228000D01*
G75*
G02*
X95264000Y-66363000I0J-135000D01*
G01*
X95264000Y-66733000D01*
G75*
G02*
X95129000Y-66868000I-135000J0D01*
G01*
X94859000Y-66868000D01*
G75*
G02*
X94724000Y-66733000I0J135000D01*
G01*
G37*
G36*
G01*
X95744000Y-66733000D02*
X95744000Y-66363000D01*
G75*
G02*
X95879000Y-66228000I135000J0D01*
G01*
X96149000Y-66228000D01*
G75*
G02*
X96284000Y-66363000I0J-135000D01*
G01*
X96284000Y-66733000D01*
G75*
G02*
X96149000Y-66868000I-135000J0D01*
G01*
X95879000Y-66868000D01*
G75*
G02*
X95744000Y-66733000I0J135000D01*
G01*
G37*
G36*
G01*
X98792000Y-66733000D02*
X98792000Y-66363000D01*
G75*
G02*
X98927000Y-66228000I135000J0D01*
G01*
X99197000Y-66228000D01*
G75*
G02*
X99332000Y-66363000I0J-135000D01*
G01*
X99332000Y-66733000D01*
G75*
G02*
X99197000Y-66868000I-135000J0D01*
G01*
X98927000Y-66868000D01*
G75*
G02*
X98792000Y-66733000I0J135000D01*
G01*
G37*
G36*
G01*
X97772000Y-66733000D02*
X97772000Y-66363000D01*
G75*
G02*
X97907000Y-66228000I135000J0D01*
G01*
X98177000Y-66228000D01*
G75*
G02*
X98312000Y-66363000I0J-135000D01*
G01*
X98312000Y-66733000D01*
G75*
G02*
X98177000Y-66868000I-135000J0D01*
G01*
X97907000Y-66868000D01*
G75*
G02*
X97772000Y-66733000I0J135000D01*
G01*
G37*
G36*
G01*
X100822000Y-66733000D02*
X100822000Y-66363000D01*
G75*
G02*
X100957000Y-66228000I135000J0D01*
G01*
X101227000Y-66228000D01*
G75*
G02*
X101362000Y-66363000I0J-135000D01*
G01*
X101362000Y-66733000D01*
G75*
G02*
X101227000Y-66868000I-135000J0D01*
G01*
X100957000Y-66868000D01*
G75*
G02*
X100822000Y-66733000I0J135000D01*
G01*
G37*
G36*
G01*
X101842000Y-66733000D02*
X101842000Y-66363000D01*
G75*
G02*
X101977000Y-66228000I135000J0D01*
G01*
X102247000Y-66228000D01*
G75*
G02*
X102382000Y-66363000I0J-135000D01*
G01*
X102382000Y-66733000D01*
G75*
G02*
X102247000Y-66868000I-135000J0D01*
G01*
X101977000Y-66868000D01*
G75*
G02*
X101842000Y-66733000I0J135000D01*
G01*
G37*
G36*
G01*
X118094000Y-66733000D02*
X118094000Y-66363000D01*
G75*
G02*
X118229000Y-66228000I135000J0D01*
G01*
X118499000Y-66228000D01*
G75*
G02*
X118634000Y-66363000I0J-135000D01*
G01*
X118634000Y-66733000D01*
G75*
G02*
X118499000Y-66868000I-135000J0D01*
G01*
X118229000Y-66868000D01*
G75*
G02*
X118094000Y-66733000I0J135000D01*
G01*
G37*
G36*
G01*
X117074000Y-66733000D02*
X117074000Y-66363000D01*
G75*
G02*
X117209000Y-66228000I135000J0D01*
G01*
X117479000Y-66228000D01*
G75*
G02*
X117614000Y-66363000I0J-135000D01*
G01*
X117614000Y-66733000D01*
G75*
G02*
X117479000Y-66868000I-135000J0D01*
G01*
X117209000Y-66868000D01*
G75*
G02*
X117074000Y-66733000I0J135000D01*
G01*
G37*
G36*
G01*
X121144000Y-66733000D02*
X121144000Y-66363000D01*
G75*
G02*
X121279000Y-66228000I135000J0D01*
G01*
X121549000Y-66228000D01*
G75*
G02*
X121684000Y-66363000I0J-135000D01*
G01*
X121684000Y-66733000D01*
G75*
G02*
X121549000Y-66868000I-135000J0D01*
G01*
X121279000Y-66868000D01*
G75*
G02*
X121144000Y-66733000I0J135000D01*
G01*
G37*
G36*
G01*
X120124000Y-66733000D02*
X120124000Y-66363000D01*
G75*
G02*
X120259000Y-66228000I135000J0D01*
G01*
X120529000Y-66228000D01*
G75*
G02*
X120664000Y-66363000I0J-135000D01*
G01*
X120664000Y-66733000D01*
G75*
G02*
X120529000Y-66868000I-135000J0D01*
G01*
X120259000Y-66868000D01*
G75*
G02*
X120124000Y-66733000I0J135000D01*
G01*
G37*
G36*
G01*
X124192000Y-66733000D02*
X124192000Y-66363000D01*
G75*
G02*
X124327000Y-66228000I135000J0D01*
G01*
X124597000Y-66228000D01*
G75*
G02*
X124732000Y-66363000I0J-135000D01*
G01*
X124732000Y-66733000D01*
G75*
G02*
X124597000Y-66868000I-135000J0D01*
G01*
X124327000Y-66868000D01*
G75*
G02*
X124192000Y-66733000I0J135000D01*
G01*
G37*
G36*
G01*
X123172000Y-66733000D02*
X123172000Y-66363000D01*
G75*
G02*
X123307000Y-66228000I135000J0D01*
G01*
X123577000Y-66228000D01*
G75*
G02*
X123712000Y-66363000I0J-135000D01*
G01*
X123712000Y-66733000D01*
G75*
G02*
X123577000Y-66868000I-135000J0D01*
G01*
X123307000Y-66868000D01*
G75*
G02*
X123172000Y-66733000I0J135000D01*
G01*
G37*
G36*
G01*
X127240000Y-66733000D02*
X127240000Y-66363000D01*
G75*
G02*
X127375000Y-66228000I135000J0D01*
G01*
X127645000Y-66228000D01*
G75*
G02*
X127780000Y-66363000I0J-135000D01*
G01*
X127780000Y-66733000D01*
G75*
G02*
X127645000Y-66868000I-135000J0D01*
G01*
X127375000Y-66868000D01*
G75*
G02*
X127240000Y-66733000I0J135000D01*
G01*
G37*
G36*
G01*
X126220000Y-66733000D02*
X126220000Y-66363000D01*
G75*
G02*
X126355000Y-66228000I135000J0D01*
G01*
X126625000Y-66228000D01*
G75*
G02*
X126760000Y-66363000I0J-135000D01*
G01*
X126760000Y-66733000D01*
G75*
G02*
X126625000Y-66868000I-135000J0D01*
G01*
X126355000Y-66868000D01*
G75*
G02*
X126220000Y-66733000I0J135000D01*
G01*
G37*
G36*
G01*
X142474000Y-66733000D02*
X142474000Y-66363000D01*
G75*
G02*
X142609000Y-66228000I135000J0D01*
G01*
X142879000Y-66228000D01*
G75*
G02*
X143014000Y-66363000I0J-135000D01*
G01*
X143014000Y-66733000D01*
G75*
G02*
X142879000Y-66868000I-135000J0D01*
G01*
X142609000Y-66868000D01*
G75*
G02*
X142474000Y-66733000I0J135000D01*
G01*
G37*
G36*
G01*
X143494000Y-66733000D02*
X143494000Y-66363000D01*
G75*
G02*
X143629000Y-66228000I135000J0D01*
G01*
X143899000Y-66228000D01*
G75*
G02*
X144034000Y-66363000I0J-135000D01*
G01*
X144034000Y-66733000D01*
G75*
G02*
X143899000Y-66868000I-135000J0D01*
G01*
X143629000Y-66868000D01*
G75*
G02*
X143494000Y-66733000I0J135000D01*
G01*
G37*
G36*
G01*
X146544000Y-66733000D02*
X146544000Y-66363000D01*
G75*
G02*
X146679000Y-66228000I135000J0D01*
G01*
X146949000Y-66228000D01*
G75*
G02*
X147084000Y-66363000I0J-135000D01*
G01*
X147084000Y-66733000D01*
G75*
G02*
X146949000Y-66868000I-135000J0D01*
G01*
X146679000Y-66868000D01*
G75*
G02*
X146544000Y-66733000I0J135000D01*
G01*
G37*
G36*
G01*
X145524000Y-66733000D02*
X145524000Y-66363000D01*
G75*
G02*
X145659000Y-66228000I135000J0D01*
G01*
X145929000Y-66228000D01*
G75*
G02*
X146064000Y-66363000I0J-135000D01*
G01*
X146064000Y-66733000D01*
G75*
G02*
X145929000Y-66868000I-135000J0D01*
G01*
X145659000Y-66868000D01*
G75*
G02*
X145524000Y-66733000I0J135000D01*
G01*
G37*
G36*
G01*
X148570000Y-66733000D02*
X148570000Y-66363000D01*
G75*
G02*
X148705000Y-66228000I135000J0D01*
G01*
X148975000Y-66228000D01*
G75*
G02*
X149110000Y-66363000I0J-135000D01*
G01*
X149110000Y-66733000D01*
G75*
G02*
X148975000Y-66868000I-135000J0D01*
G01*
X148705000Y-66868000D01*
G75*
G02*
X148570000Y-66733000I0J135000D01*
G01*
G37*
G36*
G01*
X149590000Y-66733000D02*
X149590000Y-66363000D01*
G75*
G02*
X149725000Y-66228000I135000J0D01*
G01*
X149995000Y-66228000D01*
G75*
G02*
X150130000Y-66363000I0J-135000D01*
G01*
X150130000Y-66733000D01*
G75*
G02*
X149995000Y-66868000I-135000J0D01*
G01*
X149725000Y-66868000D01*
G75*
G02*
X149590000Y-66733000I0J135000D01*
G01*
G37*
G36*
G01*
X152638000Y-66733000D02*
X152638000Y-66363000D01*
G75*
G02*
X152773000Y-66228000I135000J0D01*
G01*
X153043000Y-66228000D01*
G75*
G02*
X153178000Y-66363000I0J-135000D01*
G01*
X153178000Y-66733000D01*
G75*
G02*
X153043000Y-66868000I-135000J0D01*
G01*
X152773000Y-66868000D01*
G75*
G02*
X152638000Y-66733000I0J135000D01*
G01*
G37*
G36*
G01*
X151618000Y-66733000D02*
X151618000Y-66363000D01*
G75*
G02*
X151753000Y-66228000I135000J0D01*
G01*
X152023000Y-66228000D01*
G75*
G02*
X152158000Y-66363000I0J-135000D01*
G01*
X152158000Y-66733000D01*
G75*
G02*
X152023000Y-66868000I-135000J0D01*
G01*
X151753000Y-66868000D01*
G75*
G02*
X151618000Y-66733000I0J135000D01*
G01*
G37*
G36*
G01*
X155684000Y-66733000D02*
X155684000Y-66363000D01*
G75*
G02*
X155819000Y-66228000I135000J0D01*
G01*
X156089000Y-66228000D01*
G75*
G02*
X156224000Y-66363000I0J-135000D01*
G01*
X156224000Y-66733000D01*
G75*
G02*
X156089000Y-66868000I-135000J0D01*
G01*
X155819000Y-66868000D01*
G75*
G02*
X155684000Y-66733000I0J135000D01*
G01*
G37*
G36*
G01*
X156704000Y-66733000D02*
X156704000Y-66363000D01*
G75*
G02*
X156839000Y-66228000I135000J0D01*
G01*
X157109000Y-66228000D01*
G75*
G02*
X157244000Y-66363000I0J-135000D01*
G01*
X157244000Y-66733000D01*
G75*
G02*
X157109000Y-66868000I-135000J0D01*
G01*
X156839000Y-66868000D01*
G75*
G02*
X156704000Y-66733000I0J135000D01*
G01*
G37*
M02*
