M48
; DRILL file {KiCad (5.1.5)-3} date 3/17/2021 3:19:25 PM
; FORMAT={-:-/ absolute / inch / decimal}
; #@! TF.CreationDate,2021-03-17T15:19:25-07:00
; #@! TF.GenerationSoftware,Kicad,Pcbnew,(5.1.5)-3
FMAT,2
INCH
T1C0.0157
T2C0.0354
T3C0.0394
T4C0.1358
%
G90
G05
T1
X4.75Y-4.47
X4.85Y-4.54
X4.95Y-4.97
X5.01Y-5.04
X5.07Y-5.1
X5.09Y-5.24
X5.24Y-5.29
X5.28Y-4.85
X5.78Y-5.13
X5.82Y-5.34
X5.92Y-4.9
X6.29Y-5.15
X8.03Y-4.56
T2
X4.43Y-4.79
X4.48Y-4.89
X4.53Y-4.79
X4.58Y-4.89
X4.63Y-4.79
X4.68Y-4.89
X4.73Y-4.79
X4.78Y-4.89
X7.79Y-4.79
X7.84Y-4.89
X7.89Y-4.79
X7.94Y-4.89
X7.99Y-4.79
X8.04Y-4.89
X8.09Y-4.79
X8.14Y-4.89
X2.74Y-4.79
X2.79Y-4.89
X2.84Y-4.79
X2.89Y-4.89
X2.94Y-4.79
X2.99Y-4.89
X3.04Y-4.79
X3.09Y-4.89
X6.11Y-4.79
X6.16Y-4.89
X6.21Y-4.79
X6.26Y-4.89
X6.31Y-4.79
X6.36Y-4.89
X6.41Y-4.79
X6.46Y-4.89
T3
X5.39Y-4.75
X5.39Y-4.85
X5.39Y-4.95
X5.39Y-5.05
X5.39Y-5.15
X5.39Y-5.25
X5.39Y-5.35
X5.49Y-4.75
X5.49Y-4.85
X5.49Y-4.95
X5.49Y-5.05
X5.49Y-5.15
X5.49Y-5.25
X5.49Y-5.35
T4
X4.38Y-5.14
X4.83Y-5.14
X7.74Y-5.14
X8.19Y-5.14
X2.69Y-5.14
X3.14Y-5.14
X6.06Y-5.14
X6.51Y-5.14
T0
M30
