G04 #@! TF.GenerationSoftware,KiCad,Pcbnew,(5.1.5)-3*
G04 #@! TF.CreationDate,2021-03-17T15:19:28-07:00*
G04 #@! TF.ProjectId,Daughterboard,44617567-6874-4657-9262-6f6172642e6b,rev?*
G04 #@! TF.SameCoordinates,Original*
G04 #@! TF.FileFunction,Paste,Top*
G04 #@! TF.FilePolarity,Positive*
%FSLAX46Y46*%
G04 Gerber Fmt 4.6, Leading zero omitted, Abs format (unit mm)*
G04 Created by KiCad (PCBNEW (5.1.5)-3) date 2021-03-17 15:19:28*
%MOMM*%
%LPD*%
G04 APERTURE LIST*
%ADD10R,0.475000X0.300000*%
%ADD11C,0.100000*%
G04 APERTURE END LIST*
D10*
X131013000Y-131580000D03*
X131013000Y-132080000D03*
X131013000Y-132580000D03*
X129337000Y-132580000D03*
X129337000Y-132080000D03*
X129337000Y-131580000D03*
D11*
G36*
X202410142Y-113481174D02*
G01*
X202433803Y-113484684D01*
X202457007Y-113490496D01*
X202479529Y-113498554D01*
X202501153Y-113508782D01*
X202521670Y-113521079D01*
X202540883Y-113535329D01*
X202558607Y-113551393D01*
X202574671Y-113569117D01*
X202588921Y-113588330D01*
X202601218Y-113608847D01*
X202611446Y-113630471D01*
X202619504Y-113652993D01*
X202625316Y-113676197D01*
X202628826Y-113699858D01*
X202630000Y-113723750D01*
X202630000Y-114211250D01*
X202628826Y-114235142D01*
X202625316Y-114258803D01*
X202619504Y-114282007D01*
X202611446Y-114304529D01*
X202601218Y-114326153D01*
X202588921Y-114346670D01*
X202574671Y-114365883D01*
X202558607Y-114383607D01*
X202540883Y-114399671D01*
X202521670Y-114413921D01*
X202501153Y-114426218D01*
X202479529Y-114436446D01*
X202457007Y-114444504D01*
X202433803Y-114450316D01*
X202410142Y-114453826D01*
X202386250Y-114455000D01*
X201473750Y-114455000D01*
X201449858Y-114453826D01*
X201426197Y-114450316D01*
X201402993Y-114444504D01*
X201380471Y-114436446D01*
X201358847Y-114426218D01*
X201338330Y-114413921D01*
X201319117Y-114399671D01*
X201301393Y-114383607D01*
X201285329Y-114365883D01*
X201271079Y-114346670D01*
X201258782Y-114326153D01*
X201248554Y-114304529D01*
X201240496Y-114282007D01*
X201234684Y-114258803D01*
X201231174Y-114235142D01*
X201230000Y-114211250D01*
X201230000Y-113723750D01*
X201231174Y-113699858D01*
X201234684Y-113676197D01*
X201240496Y-113652993D01*
X201248554Y-113630471D01*
X201258782Y-113608847D01*
X201271079Y-113588330D01*
X201285329Y-113569117D01*
X201301393Y-113551393D01*
X201319117Y-113535329D01*
X201338330Y-113521079D01*
X201358847Y-113508782D01*
X201380471Y-113498554D01*
X201402993Y-113490496D01*
X201426197Y-113484684D01*
X201449858Y-113481174D01*
X201473750Y-113480000D01*
X202386250Y-113480000D01*
X202410142Y-113481174D01*
G37*
G36*
X202410142Y-111606174D02*
G01*
X202433803Y-111609684D01*
X202457007Y-111615496D01*
X202479529Y-111623554D01*
X202501153Y-111633782D01*
X202521670Y-111646079D01*
X202540883Y-111660329D01*
X202558607Y-111676393D01*
X202574671Y-111694117D01*
X202588921Y-111713330D01*
X202601218Y-111733847D01*
X202611446Y-111755471D01*
X202619504Y-111777993D01*
X202625316Y-111801197D01*
X202628826Y-111824858D01*
X202630000Y-111848750D01*
X202630000Y-112336250D01*
X202628826Y-112360142D01*
X202625316Y-112383803D01*
X202619504Y-112407007D01*
X202611446Y-112429529D01*
X202601218Y-112451153D01*
X202588921Y-112471670D01*
X202574671Y-112490883D01*
X202558607Y-112508607D01*
X202540883Y-112524671D01*
X202521670Y-112538921D01*
X202501153Y-112551218D01*
X202479529Y-112561446D01*
X202457007Y-112569504D01*
X202433803Y-112575316D01*
X202410142Y-112578826D01*
X202386250Y-112580000D01*
X201473750Y-112580000D01*
X201449858Y-112578826D01*
X201426197Y-112575316D01*
X201402993Y-112569504D01*
X201380471Y-112561446D01*
X201358847Y-112551218D01*
X201338330Y-112538921D01*
X201319117Y-112524671D01*
X201301393Y-112508607D01*
X201285329Y-112490883D01*
X201271079Y-112471670D01*
X201258782Y-112451153D01*
X201248554Y-112429529D01*
X201240496Y-112407007D01*
X201234684Y-112383803D01*
X201231174Y-112360142D01*
X201230000Y-112336250D01*
X201230000Y-111848750D01*
X201231174Y-111824858D01*
X201234684Y-111801197D01*
X201240496Y-111777993D01*
X201248554Y-111755471D01*
X201258782Y-111733847D01*
X201271079Y-111713330D01*
X201285329Y-111694117D01*
X201301393Y-111676393D01*
X201319117Y-111660329D01*
X201338330Y-111646079D01*
X201358847Y-111633782D01*
X201380471Y-111623554D01*
X201402993Y-111615496D01*
X201426197Y-111609684D01*
X201449858Y-111606174D01*
X201473750Y-111605000D01*
X202386250Y-111605000D01*
X202410142Y-111606174D01*
G37*
G36*
X117320142Y-111606174D02*
G01*
X117343803Y-111609684D01*
X117367007Y-111615496D01*
X117389529Y-111623554D01*
X117411153Y-111633782D01*
X117431670Y-111646079D01*
X117450883Y-111660329D01*
X117468607Y-111676393D01*
X117484671Y-111694117D01*
X117498921Y-111713330D01*
X117511218Y-111733847D01*
X117521446Y-111755471D01*
X117529504Y-111777993D01*
X117535316Y-111801197D01*
X117538826Y-111824858D01*
X117540000Y-111848750D01*
X117540000Y-112336250D01*
X117538826Y-112360142D01*
X117535316Y-112383803D01*
X117529504Y-112407007D01*
X117521446Y-112429529D01*
X117511218Y-112451153D01*
X117498921Y-112471670D01*
X117484671Y-112490883D01*
X117468607Y-112508607D01*
X117450883Y-112524671D01*
X117431670Y-112538921D01*
X117411153Y-112551218D01*
X117389529Y-112561446D01*
X117367007Y-112569504D01*
X117343803Y-112575316D01*
X117320142Y-112578826D01*
X117296250Y-112580000D01*
X116383750Y-112580000D01*
X116359858Y-112578826D01*
X116336197Y-112575316D01*
X116312993Y-112569504D01*
X116290471Y-112561446D01*
X116268847Y-112551218D01*
X116248330Y-112538921D01*
X116229117Y-112524671D01*
X116211393Y-112508607D01*
X116195329Y-112490883D01*
X116181079Y-112471670D01*
X116168782Y-112451153D01*
X116158554Y-112429529D01*
X116150496Y-112407007D01*
X116144684Y-112383803D01*
X116141174Y-112360142D01*
X116140000Y-112336250D01*
X116140000Y-111848750D01*
X116141174Y-111824858D01*
X116144684Y-111801197D01*
X116150496Y-111777993D01*
X116158554Y-111755471D01*
X116168782Y-111733847D01*
X116181079Y-111713330D01*
X116195329Y-111694117D01*
X116211393Y-111676393D01*
X116229117Y-111660329D01*
X116248330Y-111646079D01*
X116268847Y-111633782D01*
X116290471Y-111623554D01*
X116312993Y-111615496D01*
X116336197Y-111609684D01*
X116359858Y-111606174D01*
X116383750Y-111605000D01*
X117296250Y-111605000D01*
X117320142Y-111606174D01*
G37*
G36*
X117320142Y-113481174D02*
G01*
X117343803Y-113484684D01*
X117367007Y-113490496D01*
X117389529Y-113498554D01*
X117411153Y-113508782D01*
X117431670Y-113521079D01*
X117450883Y-113535329D01*
X117468607Y-113551393D01*
X117484671Y-113569117D01*
X117498921Y-113588330D01*
X117511218Y-113608847D01*
X117521446Y-113630471D01*
X117529504Y-113652993D01*
X117535316Y-113676197D01*
X117538826Y-113699858D01*
X117540000Y-113723750D01*
X117540000Y-114211250D01*
X117538826Y-114235142D01*
X117535316Y-114258803D01*
X117529504Y-114282007D01*
X117521446Y-114304529D01*
X117511218Y-114326153D01*
X117498921Y-114346670D01*
X117484671Y-114365883D01*
X117468607Y-114383607D01*
X117450883Y-114399671D01*
X117431670Y-114413921D01*
X117411153Y-114426218D01*
X117389529Y-114436446D01*
X117367007Y-114444504D01*
X117343803Y-114450316D01*
X117320142Y-114453826D01*
X117296250Y-114455000D01*
X116383750Y-114455000D01*
X116359858Y-114453826D01*
X116336197Y-114450316D01*
X116312993Y-114444504D01*
X116290471Y-114436446D01*
X116268847Y-114426218D01*
X116248330Y-114413921D01*
X116229117Y-114399671D01*
X116211393Y-114383607D01*
X116195329Y-114365883D01*
X116181079Y-114346670D01*
X116168782Y-114326153D01*
X116158554Y-114304529D01*
X116150496Y-114282007D01*
X116144684Y-114258803D01*
X116141174Y-114235142D01*
X116140000Y-114211250D01*
X116140000Y-113723750D01*
X116141174Y-113699858D01*
X116144684Y-113676197D01*
X116150496Y-113652993D01*
X116158554Y-113630471D01*
X116168782Y-113608847D01*
X116181079Y-113588330D01*
X116195329Y-113569117D01*
X116211393Y-113551393D01*
X116229117Y-113535329D01*
X116248330Y-113521079D01*
X116268847Y-113508782D01*
X116290471Y-113498554D01*
X116312993Y-113490496D01*
X116336197Y-113484684D01*
X116359858Y-113481174D01*
X116383750Y-113480000D01*
X117296250Y-113480000D01*
X117320142Y-113481174D01*
G37*
G36*
X159865142Y-111606174D02*
G01*
X159888803Y-111609684D01*
X159912007Y-111615496D01*
X159934529Y-111623554D01*
X159956153Y-111633782D01*
X159976670Y-111646079D01*
X159995883Y-111660329D01*
X160013607Y-111676393D01*
X160029671Y-111694117D01*
X160043921Y-111713330D01*
X160056218Y-111733847D01*
X160066446Y-111755471D01*
X160074504Y-111777993D01*
X160080316Y-111801197D01*
X160083826Y-111824858D01*
X160085000Y-111848750D01*
X160085000Y-112336250D01*
X160083826Y-112360142D01*
X160080316Y-112383803D01*
X160074504Y-112407007D01*
X160066446Y-112429529D01*
X160056218Y-112451153D01*
X160043921Y-112471670D01*
X160029671Y-112490883D01*
X160013607Y-112508607D01*
X159995883Y-112524671D01*
X159976670Y-112538921D01*
X159956153Y-112551218D01*
X159934529Y-112561446D01*
X159912007Y-112569504D01*
X159888803Y-112575316D01*
X159865142Y-112578826D01*
X159841250Y-112580000D01*
X158928750Y-112580000D01*
X158904858Y-112578826D01*
X158881197Y-112575316D01*
X158857993Y-112569504D01*
X158835471Y-112561446D01*
X158813847Y-112551218D01*
X158793330Y-112538921D01*
X158774117Y-112524671D01*
X158756393Y-112508607D01*
X158740329Y-112490883D01*
X158726079Y-112471670D01*
X158713782Y-112451153D01*
X158703554Y-112429529D01*
X158695496Y-112407007D01*
X158689684Y-112383803D01*
X158686174Y-112360142D01*
X158685000Y-112336250D01*
X158685000Y-111848750D01*
X158686174Y-111824858D01*
X158689684Y-111801197D01*
X158695496Y-111777993D01*
X158703554Y-111755471D01*
X158713782Y-111733847D01*
X158726079Y-111713330D01*
X158740329Y-111694117D01*
X158756393Y-111676393D01*
X158774117Y-111660329D01*
X158793330Y-111646079D01*
X158813847Y-111633782D01*
X158835471Y-111623554D01*
X158857993Y-111615496D01*
X158881197Y-111609684D01*
X158904858Y-111606174D01*
X158928750Y-111605000D01*
X159841250Y-111605000D01*
X159865142Y-111606174D01*
G37*
G36*
X159865142Y-113481174D02*
G01*
X159888803Y-113484684D01*
X159912007Y-113490496D01*
X159934529Y-113498554D01*
X159956153Y-113508782D01*
X159976670Y-113521079D01*
X159995883Y-113535329D01*
X160013607Y-113551393D01*
X160029671Y-113569117D01*
X160043921Y-113588330D01*
X160056218Y-113608847D01*
X160066446Y-113630471D01*
X160074504Y-113652993D01*
X160080316Y-113676197D01*
X160083826Y-113699858D01*
X160085000Y-113723750D01*
X160085000Y-114211250D01*
X160083826Y-114235142D01*
X160080316Y-114258803D01*
X160074504Y-114282007D01*
X160066446Y-114304529D01*
X160056218Y-114326153D01*
X160043921Y-114346670D01*
X160029671Y-114365883D01*
X160013607Y-114383607D01*
X159995883Y-114399671D01*
X159976670Y-114413921D01*
X159956153Y-114426218D01*
X159934529Y-114436446D01*
X159912007Y-114444504D01*
X159888803Y-114450316D01*
X159865142Y-114453826D01*
X159841250Y-114455000D01*
X158928750Y-114455000D01*
X158904858Y-114453826D01*
X158881197Y-114450316D01*
X158857993Y-114444504D01*
X158835471Y-114436446D01*
X158813847Y-114426218D01*
X158793330Y-114413921D01*
X158774117Y-114399671D01*
X158756393Y-114383607D01*
X158740329Y-114365883D01*
X158726079Y-114346670D01*
X158713782Y-114326153D01*
X158703554Y-114304529D01*
X158695496Y-114282007D01*
X158689684Y-114258803D01*
X158686174Y-114235142D01*
X158685000Y-114211250D01*
X158685000Y-113723750D01*
X158686174Y-113699858D01*
X158689684Y-113676197D01*
X158695496Y-113652993D01*
X158703554Y-113630471D01*
X158713782Y-113608847D01*
X158726079Y-113588330D01*
X158740329Y-113569117D01*
X158756393Y-113551393D01*
X158774117Y-113535329D01*
X158793330Y-113521079D01*
X158813847Y-113508782D01*
X158835471Y-113498554D01*
X158857993Y-113490496D01*
X158881197Y-113484684D01*
X158904858Y-113481174D01*
X158928750Y-113480000D01*
X159841250Y-113480000D01*
X159865142Y-113481174D01*
G37*
G36*
X74140142Y-113481174D02*
G01*
X74163803Y-113484684D01*
X74187007Y-113490496D01*
X74209529Y-113498554D01*
X74231153Y-113508782D01*
X74251670Y-113521079D01*
X74270883Y-113535329D01*
X74288607Y-113551393D01*
X74304671Y-113569117D01*
X74318921Y-113588330D01*
X74331218Y-113608847D01*
X74341446Y-113630471D01*
X74349504Y-113652993D01*
X74355316Y-113676197D01*
X74358826Y-113699858D01*
X74360000Y-113723750D01*
X74360000Y-114211250D01*
X74358826Y-114235142D01*
X74355316Y-114258803D01*
X74349504Y-114282007D01*
X74341446Y-114304529D01*
X74331218Y-114326153D01*
X74318921Y-114346670D01*
X74304671Y-114365883D01*
X74288607Y-114383607D01*
X74270883Y-114399671D01*
X74251670Y-114413921D01*
X74231153Y-114426218D01*
X74209529Y-114436446D01*
X74187007Y-114444504D01*
X74163803Y-114450316D01*
X74140142Y-114453826D01*
X74116250Y-114455000D01*
X73203750Y-114455000D01*
X73179858Y-114453826D01*
X73156197Y-114450316D01*
X73132993Y-114444504D01*
X73110471Y-114436446D01*
X73088847Y-114426218D01*
X73068330Y-114413921D01*
X73049117Y-114399671D01*
X73031393Y-114383607D01*
X73015329Y-114365883D01*
X73001079Y-114346670D01*
X72988782Y-114326153D01*
X72978554Y-114304529D01*
X72970496Y-114282007D01*
X72964684Y-114258803D01*
X72961174Y-114235142D01*
X72960000Y-114211250D01*
X72960000Y-113723750D01*
X72961174Y-113699858D01*
X72964684Y-113676197D01*
X72970496Y-113652993D01*
X72978554Y-113630471D01*
X72988782Y-113608847D01*
X73001079Y-113588330D01*
X73015329Y-113569117D01*
X73031393Y-113551393D01*
X73049117Y-113535329D01*
X73068330Y-113521079D01*
X73088847Y-113508782D01*
X73110471Y-113498554D01*
X73132993Y-113490496D01*
X73156197Y-113484684D01*
X73179858Y-113481174D01*
X73203750Y-113480000D01*
X74116250Y-113480000D01*
X74140142Y-113481174D01*
G37*
G36*
X74140142Y-111606174D02*
G01*
X74163803Y-111609684D01*
X74187007Y-111615496D01*
X74209529Y-111623554D01*
X74231153Y-111633782D01*
X74251670Y-111646079D01*
X74270883Y-111660329D01*
X74288607Y-111676393D01*
X74304671Y-111694117D01*
X74318921Y-111713330D01*
X74331218Y-111733847D01*
X74341446Y-111755471D01*
X74349504Y-111777993D01*
X74355316Y-111801197D01*
X74358826Y-111824858D01*
X74360000Y-111848750D01*
X74360000Y-112336250D01*
X74358826Y-112360142D01*
X74355316Y-112383803D01*
X74349504Y-112407007D01*
X74341446Y-112429529D01*
X74331218Y-112451153D01*
X74318921Y-112471670D01*
X74304671Y-112490883D01*
X74288607Y-112508607D01*
X74270883Y-112524671D01*
X74251670Y-112538921D01*
X74231153Y-112551218D01*
X74209529Y-112561446D01*
X74187007Y-112569504D01*
X74163803Y-112575316D01*
X74140142Y-112578826D01*
X74116250Y-112580000D01*
X73203750Y-112580000D01*
X73179858Y-112578826D01*
X73156197Y-112575316D01*
X73132993Y-112569504D01*
X73110471Y-112561446D01*
X73088847Y-112551218D01*
X73068330Y-112538921D01*
X73049117Y-112524671D01*
X73031393Y-112508607D01*
X73015329Y-112490883D01*
X73001079Y-112471670D01*
X72988782Y-112451153D01*
X72978554Y-112429529D01*
X72970496Y-112407007D01*
X72964684Y-112383803D01*
X72961174Y-112360142D01*
X72960000Y-112336250D01*
X72960000Y-111848750D01*
X72961174Y-111824858D01*
X72964684Y-111801197D01*
X72970496Y-111777993D01*
X72978554Y-111755471D01*
X72988782Y-111733847D01*
X73001079Y-111713330D01*
X73015329Y-111694117D01*
X73031393Y-111676393D01*
X73049117Y-111660329D01*
X73068330Y-111646079D01*
X73088847Y-111633782D01*
X73110471Y-111623554D01*
X73132993Y-111615496D01*
X73156197Y-111609684D01*
X73179858Y-111606174D01*
X73203750Y-111605000D01*
X74116250Y-111605000D01*
X74140142Y-111606174D01*
G37*
G36*
X153930779Y-140051144D02*
G01*
X153953834Y-140054563D01*
X153976443Y-140060227D01*
X153998387Y-140068079D01*
X154019457Y-140078044D01*
X154039448Y-140090026D01*
X154058168Y-140103910D01*
X154075438Y-140119562D01*
X154091090Y-140136832D01*
X154104974Y-140155552D01*
X154116956Y-140175543D01*
X154126921Y-140196613D01*
X154134773Y-140218557D01*
X154140437Y-140241166D01*
X154143856Y-140264221D01*
X154145000Y-140287500D01*
X154145000Y-140862500D01*
X154143856Y-140885779D01*
X154140437Y-140908834D01*
X154134773Y-140931443D01*
X154126921Y-140953387D01*
X154116956Y-140974457D01*
X154104974Y-140994448D01*
X154091090Y-141013168D01*
X154075438Y-141030438D01*
X154058168Y-141046090D01*
X154039448Y-141059974D01*
X154019457Y-141071956D01*
X153998387Y-141081921D01*
X153976443Y-141089773D01*
X153953834Y-141095437D01*
X153930779Y-141098856D01*
X153907500Y-141100000D01*
X153432500Y-141100000D01*
X153409221Y-141098856D01*
X153386166Y-141095437D01*
X153363557Y-141089773D01*
X153341613Y-141081921D01*
X153320543Y-141071956D01*
X153300552Y-141059974D01*
X153281832Y-141046090D01*
X153264562Y-141030438D01*
X153248910Y-141013168D01*
X153235026Y-140994448D01*
X153223044Y-140974457D01*
X153213079Y-140953387D01*
X153205227Y-140931443D01*
X153199563Y-140908834D01*
X153196144Y-140885779D01*
X153195000Y-140862500D01*
X153195000Y-140287500D01*
X153196144Y-140264221D01*
X153199563Y-140241166D01*
X153205227Y-140218557D01*
X153213079Y-140196613D01*
X153223044Y-140175543D01*
X153235026Y-140155552D01*
X153248910Y-140136832D01*
X153264562Y-140119562D01*
X153281832Y-140103910D01*
X153300552Y-140090026D01*
X153320543Y-140078044D01*
X153341613Y-140068079D01*
X153363557Y-140060227D01*
X153386166Y-140054563D01*
X153409221Y-140051144D01*
X153432500Y-140050000D01*
X153907500Y-140050000D01*
X153930779Y-140051144D01*
G37*
G36*
X153930779Y-138301144D02*
G01*
X153953834Y-138304563D01*
X153976443Y-138310227D01*
X153998387Y-138318079D01*
X154019457Y-138328044D01*
X154039448Y-138340026D01*
X154058168Y-138353910D01*
X154075438Y-138369562D01*
X154091090Y-138386832D01*
X154104974Y-138405552D01*
X154116956Y-138425543D01*
X154126921Y-138446613D01*
X154134773Y-138468557D01*
X154140437Y-138491166D01*
X154143856Y-138514221D01*
X154145000Y-138537500D01*
X154145000Y-139112500D01*
X154143856Y-139135779D01*
X154140437Y-139158834D01*
X154134773Y-139181443D01*
X154126921Y-139203387D01*
X154116956Y-139224457D01*
X154104974Y-139244448D01*
X154091090Y-139263168D01*
X154075438Y-139280438D01*
X154058168Y-139296090D01*
X154039448Y-139309974D01*
X154019457Y-139321956D01*
X153998387Y-139331921D01*
X153976443Y-139339773D01*
X153953834Y-139345437D01*
X153930779Y-139348856D01*
X153907500Y-139350000D01*
X153432500Y-139350000D01*
X153409221Y-139348856D01*
X153386166Y-139345437D01*
X153363557Y-139339773D01*
X153341613Y-139331921D01*
X153320543Y-139321956D01*
X153300552Y-139309974D01*
X153281832Y-139296090D01*
X153264562Y-139280438D01*
X153248910Y-139263168D01*
X153235026Y-139244448D01*
X153223044Y-139224457D01*
X153213079Y-139203387D01*
X153205227Y-139181443D01*
X153199563Y-139158834D01*
X153196144Y-139135779D01*
X153195000Y-139112500D01*
X153195000Y-138537500D01*
X153196144Y-138514221D01*
X153199563Y-138491166D01*
X153205227Y-138468557D01*
X153213079Y-138446613D01*
X153223044Y-138425543D01*
X153235026Y-138405552D01*
X153248910Y-138386832D01*
X153264562Y-138369562D01*
X153281832Y-138353910D01*
X153300552Y-138340026D01*
X153320543Y-138328044D01*
X153341613Y-138318079D01*
X153363557Y-138310227D01*
X153386166Y-138304563D01*
X153409221Y-138301144D01*
X153432500Y-138300000D01*
X153907500Y-138300000D01*
X153930779Y-138301144D01*
G37*
G36*
X195840779Y-138301144D02*
G01*
X195863834Y-138304563D01*
X195886443Y-138310227D01*
X195908387Y-138318079D01*
X195929457Y-138328044D01*
X195949448Y-138340026D01*
X195968168Y-138353910D01*
X195985438Y-138369562D01*
X196001090Y-138386832D01*
X196014974Y-138405552D01*
X196026956Y-138425543D01*
X196036921Y-138446613D01*
X196044773Y-138468557D01*
X196050437Y-138491166D01*
X196053856Y-138514221D01*
X196055000Y-138537500D01*
X196055000Y-139112500D01*
X196053856Y-139135779D01*
X196050437Y-139158834D01*
X196044773Y-139181443D01*
X196036921Y-139203387D01*
X196026956Y-139224457D01*
X196014974Y-139244448D01*
X196001090Y-139263168D01*
X195985438Y-139280438D01*
X195968168Y-139296090D01*
X195949448Y-139309974D01*
X195929457Y-139321956D01*
X195908387Y-139331921D01*
X195886443Y-139339773D01*
X195863834Y-139345437D01*
X195840779Y-139348856D01*
X195817500Y-139350000D01*
X195342500Y-139350000D01*
X195319221Y-139348856D01*
X195296166Y-139345437D01*
X195273557Y-139339773D01*
X195251613Y-139331921D01*
X195230543Y-139321956D01*
X195210552Y-139309974D01*
X195191832Y-139296090D01*
X195174562Y-139280438D01*
X195158910Y-139263168D01*
X195145026Y-139244448D01*
X195133044Y-139224457D01*
X195123079Y-139203387D01*
X195115227Y-139181443D01*
X195109563Y-139158834D01*
X195106144Y-139135779D01*
X195105000Y-139112500D01*
X195105000Y-138537500D01*
X195106144Y-138514221D01*
X195109563Y-138491166D01*
X195115227Y-138468557D01*
X195123079Y-138446613D01*
X195133044Y-138425543D01*
X195145026Y-138405552D01*
X195158910Y-138386832D01*
X195174562Y-138369562D01*
X195191832Y-138353910D01*
X195210552Y-138340026D01*
X195230543Y-138328044D01*
X195251613Y-138318079D01*
X195273557Y-138310227D01*
X195296166Y-138304563D01*
X195319221Y-138301144D01*
X195342500Y-138300000D01*
X195817500Y-138300000D01*
X195840779Y-138301144D01*
G37*
G36*
X195840779Y-140051144D02*
G01*
X195863834Y-140054563D01*
X195886443Y-140060227D01*
X195908387Y-140068079D01*
X195929457Y-140078044D01*
X195949448Y-140090026D01*
X195968168Y-140103910D01*
X195985438Y-140119562D01*
X196001090Y-140136832D01*
X196014974Y-140155552D01*
X196026956Y-140175543D01*
X196036921Y-140196613D01*
X196044773Y-140218557D01*
X196050437Y-140241166D01*
X196053856Y-140264221D01*
X196055000Y-140287500D01*
X196055000Y-140862500D01*
X196053856Y-140885779D01*
X196050437Y-140908834D01*
X196044773Y-140931443D01*
X196036921Y-140953387D01*
X196026956Y-140974457D01*
X196014974Y-140994448D01*
X196001090Y-141013168D01*
X195985438Y-141030438D01*
X195968168Y-141046090D01*
X195949448Y-141059974D01*
X195929457Y-141071956D01*
X195908387Y-141081921D01*
X195886443Y-141089773D01*
X195863834Y-141095437D01*
X195840779Y-141098856D01*
X195817500Y-141100000D01*
X195342500Y-141100000D01*
X195319221Y-141098856D01*
X195296166Y-141095437D01*
X195273557Y-141089773D01*
X195251613Y-141081921D01*
X195230543Y-141071956D01*
X195210552Y-141059974D01*
X195191832Y-141046090D01*
X195174562Y-141030438D01*
X195158910Y-141013168D01*
X195145026Y-140994448D01*
X195133044Y-140974457D01*
X195123079Y-140953387D01*
X195115227Y-140931443D01*
X195109563Y-140908834D01*
X195106144Y-140885779D01*
X195105000Y-140862500D01*
X195105000Y-140287500D01*
X195106144Y-140264221D01*
X195109563Y-140241166D01*
X195115227Y-140218557D01*
X195123079Y-140196613D01*
X195133044Y-140175543D01*
X195145026Y-140155552D01*
X195158910Y-140136832D01*
X195174562Y-140119562D01*
X195191832Y-140103910D01*
X195210552Y-140090026D01*
X195230543Y-140078044D01*
X195251613Y-140068079D01*
X195273557Y-140060227D01*
X195296166Y-140054563D01*
X195319221Y-140051144D01*
X195342500Y-140050000D01*
X195817500Y-140050000D01*
X195840779Y-140051144D01*
G37*
G36*
X70019779Y-138718144D02*
G01*
X70042834Y-138721563D01*
X70065443Y-138727227D01*
X70087387Y-138735079D01*
X70108457Y-138745044D01*
X70128448Y-138757026D01*
X70147168Y-138770910D01*
X70164438Y-138786562D01*
X70180090Y-138803832D01*
X70193974Y-138822552D01*
X70205956Y-138842543D01*
X70215921Y-138863613D01*
X70223773Y-138885557D01*
X70229437Y-138908166D01*
X70232856Y-138931221D01*
X70234000Y-138954500D01*
X70234000Y-139429500D01*
X70232856Y-139452779D01*
X70229437Y-139475834D01*
X70223773Y-139498443D01*
X70215921Y-139520387D01*
X70205956Y-139541457D01*
X70193974Y-139561448D01*
X70180090Y-139580168D01*
X70164438Y-139597438D01*
X70147168Y-139613090D01*
X70128448Y-139626974D01*
X70108457Y-139638956D01*
X70087387Y-139648921D01*
X70065443Y-139656773D01*
X70042834Y-139662437D01*
X70019779Y-139665856D01*
X69996500Y-139667000D01*
X69421500Y-139667000D01*
X69398221Y-139665856D01*
X69375166Y-139662437D01*
X69352557Y-139656773D01*
X69330613Y-139648921D01*
X69309543Y-139638956D01*
X69289552Y-139626974D01*
X69270832Y-139613090D01*
X69253562Y-139597438D01*
X69237910Y-139580168D01*
X69224026Y-139561448D01*
X69212044Y-139541457D01*
X69202079Y-139520387D01*
X69194227Y-139498443D01*
X69188563Y-139475834D01*
X69185144Y-139452779D01*
X69184000Y-139429500D01*
X69184000Y-138954500D01*
X69185144Y-138931221D01*
X69188563Y-138908166D01*
X69194227Y-138885557D01*
X69202079Y-138863613D01*
X69212044Y-138842543D01*
X69224026Y-138822552D01*
X69237910Y-138803832D01*
X69253562Y-138786562D01*
X69270832Y-138770910D01*
X69289552Y-138757026D01*
X69309543Y-138745044D01*
X69330613Y-138735079D01*
X69352557Y-138727227D01*
X69375166Y-138721563D01*
X69398221Y-138718144D01*
X69421500Y-138717000D01*
X69996500Y-138717000D01*
X70019779Y-138718144D01*
G37*
G36*
X68269779Y-138718144D02*
G01*
X68292834Y-138721563D01*
X68315443Y-138727227D01*
X68337387Y-138735079D01*
X68358457Y-138745044D01*
X68378448Y-138757026D01*
X68397168Y-138770910D01*
X68414438Y-138786562D01*
X68430090Y-138803832D01*
X68443974Y-138822552D01*
X68455956Y-138842543D01*
X68465921Y-138863613D01*
X68473773Y-138885557D01*
X68479437Y-138908166D01*
X68482856Y-138931221D01*
X68484000Y-138954500D01*
X68484000Y-139429500D01*
X68482856Y-139452779D01*
X68479437Y-139475834D01*
X68473773Y-139498443D01*
X68465921Y-139520387D01*
X68455956Y-139541457D01*
X68443974Y-139561448D01*
X68430090Y-139580168D01*
X68414438Y-139597438D01*
X68397168Y-139613090D01*
X68378448Y-139626974D01*
X68358457Y-139638956D01*
X68337387Y-139648921D01*
X68315443Y-139656773D01*
X68292834Y-139662437D01*
X68269779Y-139665856D01*
X68246500Y-139667000D01*
X67671500Y-139667000D01*
X67648221Y-139665856D01*
X67625166Y-139662437D01*
X67602557Y-139656773D01*
X67580613Y-139648921D01*
X67559543Y-139638956D01*
X67539552Y-139626974D01*
X67520832Y-139613090D01*
X67503562Y-139597438D01*
X67487910Y-139580168D01*
X67474026Y-139561448D01*
X67462044Y-139541457D01*
X67452079Y-139520387D01*
X67444227Y-139498443D01*
X67438563Y-139475834D01*
X67435144Y-139452779D01*
X67434000Y-139429500D01*
X67434000Y-138954500D01*
X67435144Y-138931221D01*
X67438563Y-138908166D01*
X67444227Y-138885557D01*
X67452079Y-138863613D01*
X67462044Y-138842543D01*
X67474026Y-138822552D01*
X67487910Y-138803832D01*
X67503562Y-138786562D01*
X67520832Y-138770910D01*
X67539552Y-138757026D01*
X67559543Y-138745044D01*
X67580613Y-138735079D01*
X67602557Y-138727227D01*
X67625166Y-138721563D01*
X67648221Y-138718144D01*
X67671500Y-138717000D01*
X68246500Y-138717000D01*
X68269779Y-138718144D01*
G37*
G36*
X111385779Y-138301144D02*
G01*
X111408834Y-138304563D01*
X111431443Y-138310227D01*
X111453387Y-138318079D01*
X111474457Y-138328044D01*
X111494448Y-138340026D01*
X111513168Y-138353910D01*
X111530438Y-138369562D01*
X111546090Y-138386832D01*
X111559974Y-138405552D01*
X111571956Y-138425543D01*
X111581921Y-138446613D01*
X111589773Y-138468557D01*
X111595437Y-138491166D01*
X111598856Y-138514221D01*
X111600000Y-138537500D01*
X111600000Y-139112500D01*
X111598856Y-139135779D01*
X111595437Y-139158834D01*
X111589773Y-139181443D01*
X111581921Y-139203387D01*
X111571956Y-139224457D01*
X111559974Y-139244448D01*
X111546090Y-139263168D01*
X111530438Y-139280438D01*
X111513168Y-139296090D01*
X111494448Y-139309974D01*
X111474457Y-139321956D01*
X111453387Y-139331921D01*
X111431443Y-139339773D01*
X111408834Y-139345437D01*
X111385779Y-139348856D01*
X111362500Y-139350000D01*
X110887500Y-139350000D01*
X110864221Y-139348856D01*
X110841166Y-139345437D01*
X110818557Y-139339773D01*
X110796613Y-139331921D01*
X110775543Y-139321956D01*
X110755552Y-139309974D01*
X110736832Y-139296090D01*
X110719562Y-139280438D01*
X110703910Y-139263168D01*
X110690026Y-139244448D01*
X110678044Y-139224457D01*
X110668079Y-139203387D01*
X110660227Y-139181443D01*
X110654563Y-139158834D01*
X110651144Y-139135779D01*
X110650000Y-139112500D01*
X110650000Y-138537500D01*
X110651144Y-138514221D01*
X110654563Y-138491166D01*
X110660227Y-138468557D01*
X110668079Y-138446613D01*
X110678044Y-138425543D01*
X110690026Y-138405552D01*
X110703910Y-138386832D01*
X110719562Y-138369562D01*
X110736832Y-138353910D01*
X110755552Y-138340026D01*
X110775543Y-138328044D01*
X110796613Y-138318079D01*
X110818557Y-138310227D01*
X110841166Y-138304563D01*
X110864221Y-138301144D01*
X110887500Y-138300000D01*
X111362500Y-138300000D01*
X111385779Y-138301144D01*
G37*
G36*
X111385779Y-140051144D02*
G01*
X111408834Y-140054563D01*
X111431443Y-140060227D01*
X111453387Y-140068079D01*
X111474457Y-140078044D01*
X111494448Y-140090026D01*
X111513168Y-140103910D01*
X111530438Y-140119562D01*
X111546090Y-140136832D01*
X111559974Y-140155552D01*
X111571956Y-140175543D01*
X111581921Y-140196613D01*
X111589773Y-140218557D01*
X111595437Y-140241166D01*
X111598856Y-140264221D01*
X111600000Y-140287500D01*
X111600000Y-140862500D01*
X111598856Y-140885779D01*
X111595437Y-140908834D01*
X111589773Y-140931443D01*
X111581921Y-140953387D01*
X111571956Y-140974457D01*
X111559974Y-140994448D01*
X111546090Y-141013168D01*
X111530438Y-141030438D01*
X111513168Y-141046090D01*
X111494448Y-141059974D01*
X111474457Y-141071956D01*
X111453387Y-141081921D01*
X111431443Y-141089773D01*
X111408834Y-141095437D01*
X111385779Y-141098856D01*
X111362500Y-141100000D01*
X110887500Y-141100000D01*
X110864221Y-141098856D01*
X110841166Y-141095437D01*
X110818557Y-141089773D01*
X110796613Y-141081921D01*
X110775543Y-141071956D01*
X110755552Y-141059974D01*
X110736832Y-141046090D01*
X110719562Y-141030438D01*
X110703910Y-141013168D01*
X110690026Y-140994448D01*
X110678044Y-140974457D01*
X110668079Y-140953387D01*
X110660227Y-140931443D01*
X110654563Y-140908834D01*
X110651144Y-140885779D01*
X110650000Y-140862500D01*
X110650000Y-140287500D01*
X110651144Y-140264221D01*
X110654563Y-140241166D01*
X110660227Y-140218557D01*
X110668079Y-140196613D01*
X110678044Y-140175543D01*
X110690026Y-140155552D01*
X110703910Y-140136832D01*
X110719562Y-140119562D01*
X110736832Y-140103910D01*
X110755552Y-140090026D01*
X110775543Y-140078044D01*
X110796613Y-140068079D01*
X110818557Y-140060227D01*
X110841166Y-140054563D01*
X110864221Y-140051144D01*
X110887500Y-140050000D01*
X111362500Y-140050000D01*
X111385779Y-140051144D01*
G37*
G36*
X199864505Y-111606204D02*
G01*
X199888773Y-111609804D01*
X199912572Y-111615765D01*
X199935671Y-111624030D01*
X199957850Y-111634520D01*
X199978893Y-111647132D01*
X199998599Y-111661747D01*
X200016777Y-111678223D01*
X200033253Y-111696401D01*
X200047868Y-111716107D01*
X200060480Y-111737150D01*
X200070970Y-111759329D01*
X200079235Y-111782428D01*
X200085196Y-111806227D01*
X200088796Y-111830495D01*
X200090000Y-111854999D01*
X200090000Y-112380001D01*
X200088796Y-112404505D01*
X200085196Y-112428773D01*
X200079235Y-112452572D01*
X200070970Y-112475671D01*
X200060480Y-112497850D01*
X200047868Y-112518893D01*
X200033253Y-112538599D01*
X200016777Y-112556777D01*
X199998599Y-112573253D01*
X199978893Y-112587868D01*
X199957850Y-112600480D01*
X199935671Y-112610970D01*
X199912572Y-112619235D01*
X199888773Y-112625196D01*
X199864505Y-112628796D01*
X199840001Y-112630000D01*
X198939999Y-112630000D01*
X198915495Y-112628796D01*
X198891227Y-112625196D01*
X198867428Y-112619235D01*
X198844329Y-112610970D01*
X198822150Y-112600480D01*
X198801107Y-112587868D01*
X198781401Y-112573253D01*
X198763223Y-112556777D01*
X198746747Y-112538599D01*
X198732132Y-112518893D01*
X198719520Y-112497850D01*
X198709030Y-112475671D01*
X198700765Y-112452572D01*
X198694804Y-112428773D01*
X198691204Y-112404505D01*
X198690000Y-112380001D01*
X198690000Y-111854999D01*
X198691204Y-111830495D01*
X198694804Y-111806227D01*
X198700765Y-111782428D01*
X198709030Y-111759329D01*
X198719520Y-111737150D01*
X198732132Y-111716107D01*
X198746747Y-111696401D01*
X198763223Y-111678223D01*
X198781401Y-111661747D01*
X198801107Y-111647132D01*
X198822150Y-111634520D01*
X198844329Y-111624030D01*
X198867428Y-111615765D01*
X198891227Y-111609804D01*
X198915495Y-111606204D01*
X198939999Y-111605000D01*
X199840001Y-111605000D01*
X199864505Y-111606204D01*
G37*
G36*
X199864505Y-113431204D02*
G01*
X199888773Y-113434804D01*
X199912572Y-113440765D01*
X199935671Y-113449030D01*
X199957850Y-113459520D01*
X199978893Y-113472132D01*
X199998599Y-113486747D01*
X200016777Y-113503223D01*
X200033253Y-113521401D01*
X200047868Y-113541107D01*
X200060480Y-113562150D01*
X200070970Y-113584329D01*
X200079235Y-113607428D01*
X200085196Y-113631227D01*
X200088796Y-113655495D01*
X200090000Y-113679999D01*
X200090000Y-114205001D01*
X200088796Y-114229505D01*
X200085196Y-114253773D01*
X200079235Y-114277572D01*
X200070970Y-114300671D01*
X200060480Y-114322850D01*
X200047868Y-114343893D01*
X200033253Y-114363599D01*
X200016777Y-114381777D01*
X199998599Y-114398253D01*
X199978893Y-114412868D01*
X199957850Y-114425480D01*
X199935671Y-114435970D01*
X199912572Y-114444235D01*
X199888773Y-114450196D01*
X199864505Y-114453796D01*
X199840001Y-114455000D01*
X198939999Y-114455000D01*
X198915495Y-114453796D01*
X198891227Y-114450196D01*
X198867428Y-114444235D01*
X198844329Y-114435970D01*
X198822150Y-114425480D01*
X198801107Y-114412868D01*
X198781401Y-114398253D01*
X198763223Y-114381777D01*
X198746747Y-114363599D01*
X198732132Y-114343893D01*
X198719520Y-114322850D01*
X198709030Y-114300671D01*
X198700765Y-114277572D01*
X198694804Y-114253773D01*
X198691204Y-114229505D01*
X198690000Y-114205001D01*
X198690000Y-113679999D01*
X198691204Y-113655495D01*
X198694804Y-113631227D01*
X198700765Y-113607428D01*
X198709030Y-113584329D01*
X198719520Y-113562150D01*
X198732132Y-113541107D01*
X198746747Y-113521401D01*
X198763223Y-113503223D01*
X198781401Y-113486747D01*
X198801107Y-113472132D01*
X198822150Y-113459520D01*
X198844329Y-113449030D01*
X198867428Y-113440765D01*
X198891227Y-113434804D01*
X198915495Y-113431204D01*
X198939999Y-113430000D01*
X199840001Y-113430000D01*
X199864505Y-113431204D01*
G37*
G36*
X114774505Y-113431204D02*
G01*
X114798773Y-113434804D01*
X114822572Y-113440765D01*
X114845671Y-113449030D01*
X114867850Y-113459520D01*
X114888893Y-113472132D01*
X114908599Y-113486747D01*
X114926777Y-113503223D01*
X114943253Y-113521401D01*
X114957868Y-113541107D01*
X114970480Y-113562150D01*
X114980970Y-113584329D01*
X114989235Y-113607428D01*
X114995196Y-113631227D01*
X114998796Y-113655495D01*
X115000000Y-113679999D01*
X115000000Y-114205001D01*
X114998796Y-114229505D01*
X114995196Y-114253773D01*
X114989235Y-114277572D01*
X114980970Y-114300671D01*
X114970480Y-114322850D01*
X114957868Y-114343893D01*
X114943253Y-114363599D01*
X114926777Y-114381777D01*
X114908599Y-114398253D01*
X114888893Y-114412868D01*
X114867850Y-114425480D01*
X114845671Y-114435970D01*
X114822572Y-114444235D01*
X114798773Y-114450196D01*
X114774505Y-114453796D01*
X114750001Y-114455000D01*
X113849999Y-114455000D01*
X113825495Y-114453796D01*
X113801227Y-114450196D01*
X113777428Y-114444235D01*
X113754329Y-114435970D01*
X113732150Y-114425480D01*
X113711107Y-114412868D01*
X113691401Y-114398253D01*
X113673223Y-114381777D01*
X113656747Y-114363599D01*
X113642132Y-114343893D01*
X113629520Y-114322850D01*
X113619030Y-114300671D01*
X113610765Y-114277572D01*
X113604804Y-114253773D01*
X113601204Y-114229505D01*
X113600000Y-114205001D01*
X113600000Y-113679999D01*
X113601204Y-113655495D01*
X113604804Y-113631227D01*
X113610765Y-113607428D01*
X113619030Y-113584329D01*
X113629520Y-113562150D01*
X113642132Y-113541107D01*
X113656747Y-113521401D01*
X113673223Y-113503223D01*
X113691401Y-113486747D01*
X113711107Y-113472132D01*
X113732150Y-113459520D01*
X113754329Y-113449030D01*
X113777428Y-113440765D01*
X113801227Y-113434804D01*
X113825495Y-113431204D01*
X113849999Y-113430000D01*
X114750001Y-113430000D01*
X114774505Y-113431204D01*
G37*
G36*
X114774505Y-111606204D02*
G01*
X114798773Y-111609804D01*
X114822572Y-111615765D01*
X114845671Y-111624030D01*
X114867850Y-111634520D01*
X114888893Y-111647132D01*
X114908599Y-111661747D01*
X114926777Y-111678223D01*
X114943253Y-111696401D01*
X114957868Y-111716107D01*
X114970480Y-111737150D01*
X114980970Y-111759329D01*
X114989235Y-111782428D01*
X114995196Y-111806227D01*
X114998796Y-111830495D01*
X115000000Y-111854999D01*
X115000000Y-112380001D01*
X114998796Y-112404505D01*
X114995196Y-112428773D01*
X114989235Y-112452572D01*
X114980970Y-112475671D01*
X114970480Y-112497850D01*
X114957868Y-112518893D01*
X114943253Y-112538599D01*
X114926777Y-112556777D01*
X114908599Y-112573253D01*
X114888893Y-112587868D01*
X114867850Y-112600480D01*
X114845671Y-112610970D01*
X114822572Y-112619235D01*
X114798773Y-112625196D01*
X114774505Y-112628796D01*
X114750001Y-112630000D01*
X113849999Y-112630000D01*
X113825495Y-112628796D01*
X113801227Y-112625196D01*
X113777428Y-112619235D01*
X113754329Y-112610970D01*
X113732150Y-112600480D01*
X113711107Y-112587868D01*
X113691401Y-112573253D01*
X113673223Y-112556777D01*
X113656747Y-112538599D01*
X113642132Y-112518893D01*
X113629520Y-112497850D01*
X113619030Y-112475671D01*
X113610765Y-112452572D01*
X113604804Y-112428773D01*
X113601204Y-112404505D01*
X113600000Y-112380001D01*
X113600000Y-111854999D01*
X113601204Y-111830495D01*
X113604804Y-111806227D01*
X113610765Y-111782428D01*
X113619030Y-111759329D01*
X113629520Y-111737150D01*
X113642132Y-111716107D01*
X113656747Y-111696401D01*
X113673223Y-111678223D01*
X113691401Y-111661747D01*
X113711107Y-111647132D01*
X113732150Y-111634520D01*
X113754329Y-111624030D01*
X113777428Y-111615765D01*
X113801227Y-111609804D01*
X113825495Y-111606204D01*
X113849999Y-111605000D01*
X114750001Y-111605000D01*
X114774505Y-111606204D01*
G37*
G36*
X157319505Y-113431204D02*
G01*
X157343773Y-113434804D01*
X157367572Y-113440765D01*
X157390671Y-113449030D01*
X157412850Y-113459520D01*
X157433893Y-113472132D01*
X157453599Y-113486747D01*
X157471777Y-113503223D01*
X157488253Y-113521401D01*
X157502868Y-113541107D01*
X157515480Y-113562150D01*
X157525970Y-113584329D01*
X157534235Y-113607428D01*
X157540196Y-113631227D01*
X157543796Y-113655495D01*
X157545000Y-113679999D01*
X157545000Y-114205001D01*
X157543796Y-114229505D01*
X157540196Y-114253773D01*
X157534235Y-114277572D01*
X157525970Y-114300671D01*
X157515480Y-114322850D01*
X157502868Y-114343893D01*
X157488253Y-114363599D01*
X157471777Y-114381777D01*
X157453599Y-114398253D01*
X157433893Y-114412868D01*
X157412850Y-114425480D01*
X157390671Y-114435970D01*
X157367572Y-114444235D01*
X157343773Y-114450196D01*
X157319505Y-114453796D01*
X157295001Y-114455000D01*
X156394999Y-114455000D01*
X156370495Y-114453796D01*
X156346227Y-114450196D01*
X156322428Y-114444235D01*
X156299329Y-114435970D01*
X156277150Y-114425480D01*
X156256107Y-114412868D01*
X156236401Y-114398253D01*
X156218223Y-114381777D01*
X156201747Y-114363599D01*
X156187132Y-114343893D01*
X156174520Y-114322850D01*
X156164030Y-114300671D01*
X156155765Y-114277572D01*
X156149804Y-114253773D01*
X156146204Y-114229505D01*
X156145000Y-114205001D01*
X156145000Y-113679999D01*
X156146204Y-113655495D01*
X156149804Y-113631227D01*
X156155765Y-113607428D01*
X156164030Y-113584329D01*
X156174520Y-113562150D01*
X156187132Y-113541107D01*
X156201747Y-113521401D01*
X156218223Y-113503223D01*
X156236401Y-113486747D01*
X156256107Y-113472132D01*
X156277150Y-113459520D01*
X156299329Y-113449030D01*
X156322428Y-113440765D01*
X156346227Y-113434804D01*
X156370495Y-113431204D01*
X156394999Y-113430000D01*
X157295001Y-113430000D01*
X157319505Y-113431204D01*
G37*
G36*
X157319505Y-111606204D02*
G01*
X157343773Y-111609804D01*
X157367572Y-111615765D01*
X157390671Y-111624030D01*
X157412850Y-111634520D01*
X157433893Y-111647132D01*
X157453599Y-111661747D01*
X157471777Y-111678223D01*
X157488253Y-111696401D01*
X157502868Y-111716107D01*
X157515480Y-111737150D01*
X157525970Y-111759329D01*
X157534235Y-111782428D01*
X157540196Y-111806227D01*
X157543796Y-111830495D01*
X157545000Y-111854999D01*
X157545000Y-112380001D01*
X157543796Y-112404505D01*
X157540196Y-112428773D01*
X157534235Y-112452572D01*
X157525970Y-112475671D01*
X157515480Y-112497850D01*
X157502868Y-112518893D01*
X157488253Y-112538599D01*
X157471777Y-112556777D01*
X157453599Y-112573253D01*
X157433893Y-112587868D01*
X157412850Y-112600480D01*
X157390671Y-112610970D01*
X157367572Y-112619235D01*
X157343773Y-112625196D01*
X157319505Y-112628796D01*
X157295001Y-112630000D01*
X156394999Y-112630000D01*
X156370495Y-112628796D01*
X156346227Y-112625196D01*
X156322428Y-112619235D01*
X156299329Y-112610970D01*
X156277150Y-112600480D01*
X156256107Y-112587868D01*
X156236401Y-112573253D01*
X156218223Y-112556777D01*
X156201747Y-112538599D01*
X156187132Y-112518893D01*
X156174520Y-112497850D01*
X156164030Y-112475671D01*
X156155765Y-112452572D01*
X156149804Y-112428773D01*
X156146204Y-112404505D01*
X156145000Y-112380001D01*
X156145000Y-111854999D01*
X156146204Y-111830495D01*
X156149804Y-111806227D01*
X156155765Y-111782428D01*
X156164030Y-111759329D01*
X156174520Y-111737150D01*
X156187132Y-111716107D01*
X156201747Y-111696401D01*
X156218223Y-111678223D01*
X156236401Y-111661747D01*
X156256107Y-111647132D01*
X156277150Y-111634520D01*
X156299329Y-111624030D01*
X156322428Y-111615765D01*
X156346227Y-111609804D01*
X156370495Y-111606204D01*
X156394999Y-111605000D01*
X157295001Y-111605000D01*
X157319505Y-111606204D01*
G37*
G36*
X71594505Y-111606204D02*
G01*
X71618773Y-111609804D01*
X71642572Y-111615765D01*
X71665671Y-111624030D01*
X71687850Y-111634520D01*
X71708893Y-111647132D01*
X71728599Y-111661747D01*
X71746777Y-111678223D01*
X71763253Y-111696401D01*
X71777868Y-111716107D01*
X71790480Y-111737150D01*
X71800970Y-111759329D01*
X71809235Y-111782428D01*
X71815196Y-111806227D01*
X71818796Y-111830495D01*
X71820000Y-111854999D01*
X71820000Y-112380001D01*
X71818796Y-112404505D01*
X71815196Y-112428773D01*
X71809235Y-112452572D01*
X71800970Y-112475671D01*
X71790480Y-112497850D01*
X71777868Y-112518893D01*
X71763253Y-112538599D01*
X71746777Y-112556777D01*
X71728599Y-112573253D01*
X71708893Y-112587868D01*
X71687850Y-112600480D01*
X71665671Y-112610970D01*
X71642572Y-112619235D01*
X71618773Y-112625196D01*
X71594505Y-112628796D01*
X71570001Y-112630000D01*
X70669999Y-112630000D01*
X70645495Y-112628796D01*
X70621227Y-112625196D01*
X70597428Y-112619235D01*
X70574329Y-112610970D01*
X70552150Y-112600480D01*
X70531107Y-112587868D01*
X70511401Y-112573253D01*
X70493223Y-112556777D01*
X70476747Y-112538599D01*
X70462132Y-112518893D01*
X70449520Y-112497850D01*
X70439030Y-112475671D01*
X70430765Y-112452572D01*
X70424804Y-112428773D01*
X70421204Y-112404505D01*
X70420000Y-112380001D01*
X70420000Y-111854999D01*
X70421204Y-111830495D01*
X70424804Y-111806227D01*
X70430765Y-111782428D01*
X70439030Y-111759329D01*
X70449520Y-111737150D01*
X70462132Y-111716107D01*
X70476747Y-111696401D01*
X70493223Y-111678223D01*
X70511401Y-111661747D01*
X70531107Y-111647132D01*
X70552150Y-111634520D01*
X70574329Y-111624030D01*
X70597428Y-111615765D01*
X70621227Y-111609804D01*
X70645495Y-111606204D01*
X70669999Y-111605000D01*
X71570001Y-111605000D01*
X71594505Y-111606204D01*
G37*
G36*
X71594505Y-113431204D02*
G01*
X71618773Y-113434804D01*
X71642572Y-113440765D01*
X71665671Y-113449030D01*
X71687850Y-113459520D01*
X71708893Y-113472132D01*
X71728599Y-113486747D01*
X71746777Y-113503223D01*
X71763253Y-113521401D01*
X71777868Y-113541107D01*
X71790480Y-113562150D01*
X71800970Y-113584329D01*
X71809235Y-113607428D01*
X71815196Y-113631227D01*
X71818796Y-113655495D01*
X71820000Y-113679999D01*
X71820000Y-114205001D01*
X71818796Y-114229505D01*
X71815196Y-114253773D01*
X71809235Y-114277572D01*
X71800970Y-114300671D01*
X71790480Y-114322850D01*
X71777868Y-114343893D01*
X71763253Y-114363599D01*
X71746777Y-114381777D01*
X71728599Y-114398253D01*
X71708893Y-114412868D01*
X71687850Y-114425480D01*
X71665671Y-114435970D01*
X71642572Y-114444235D01*
X71618773Y-114450196D01*
X71594505Y-114453796D01*
X71570001Y-114455000D01*
X70669999Y-114455000D01*
X70645495Y-114453796D01*
X70621227Y-114450196D01*
X70597428Y-114444235D01*
X70574329Y-114435970D01*
X70552150Y-114425480D01*
X70531107Y-114412868D01*
X70511401Y-114398253D01*
X70493223Y-114381777D01*
X70476747Y-114363599D01*
X70462132Y-114343893D01*
X70449520Y-114322850D01*
X70439030Y-114300671D01*
X70430765Y-114277572D01*
X70424804Y-114253773D01*
X70421204Y-114229505D01*
X70420000Y-114205001D01*
X70420000Y-113679999D01*
X70421204Y-113655495D01*
X70424804Y-113631227D01*
X70430765Y-113607428D01*
X70439030Y-113584329D01*
X70449520Y-113562150D01*
X70462132Y-113541107D01*
X70476747Y-113521401D01*
X70493223Y-113503223D01*
X70511401Y-113486747D01*
X70531107Y-113472132D01*
X70552150Y-113459520D01*
X70574329Y-113449030D01*
X70597428Y-113440765D01*
X70621227Y-113434804D01*
X70645495Y-113431204D01*
X70669999Y-113430000D01*
X71570001Y-113430000D01*
X71594505Y-113431204D01*
G37*
G36*
X157954505Y-115416204D02*
G01*
X157978773Y-115419804D01*
X158002572Y-115425765D01*
X158025671Y-115434030D01*
X158047850Y-115444520D01*
X158068893Y-115457132D01*
X158088599Y-115471747D01*
X158106777Y-115488223D01*
X158123253Y-115506401D01*
X158137868Y-115526107D01*
X158150480Y-115547150D01*
X158160970Y-115569329D01*
X158169235Y-115592428D01*
X158175196Y-115616227D01*
X158178796Y-115640495D01*
X158180000Y-115664999D01*
X158180000Y-116190001D01*
X158178796Y-116214505D01*
X158175196Y-116238773D01*
X158169235Y-116262572D01*
X158160970Y-116285671D01*
X158150480Y-116307850D01*
X158137868Y-116328893D01*
X158123253Y-116348599D01*
X158106777Y-116366777D01*
X158088599Y-116383253D01*
X158068893Y-116397868D01*
X158047850Y-116410480D01*
X158025671Y-116420970D01*
X158002572Y-116429235D01*
X157978773Y-116435196D01*
X157954505Y-116438796D01*
X157930001Y-116440000D01*
X157029999Y-116440000D01*
X157005495Y-116438796D01*
X156981227Y-116435196D01*
X156957428Y-116429235D01*
X156934329Y-116420970D01*
X156912150Y-116410480D01*
X156891107Y-116397868D01*
X156871401Y-116383253D01*
X156853223Y-116366777D01*
X156836747Y-116348599D01*
X156822132Y-116328893D01*
X156809520Y-116307850D01*
X156799030Y-116285671D01*
X156790765Y-116262572D01*
X156784804Y-116238773D01*
X156781204Y-116214505D01*
X156780000Y-116190001D01*
X156780000Y-115664999D01*
X156781204Y-115640495D01*
X156784804Y-115616227D01*
X156790765Y-115592428D01*
X156799030Y-115569329D01*
X156809520Y-115547150D01*
X156822132Y-115526107D01*
X156836747Y-115506401D01*
X156853223Y-115488223D01*
X156871401Y-115471747D01*
X156891107Y-115457132D01*
X156912150Y-115444520D01*
X156934329Y-115434030D01*
X156957428Y-115425765D01*
X156981227Y-115419804D01*
X157005495Y-115416204D01*
X157029999Y-115415000D01*
X157930001Y-115415000D01*
X157954505Y-115416204D01*
G37*
G36*
X157954505Y-117241204D02*
G01*
X157978773Y-117244804D01*
X158002572Y-117250765D01*
X158025671Y-117259030D01*
X158047850Y-117269520D01*
X158068893Y-117282132D01*
X158088599Y-117296747D01*
X158106777Y-117313223D01*
X158123253Y-117331401D01*
X158137868Y-117351107D01*
X158150480Y-117372150D01*
X158160970Y-117394329D01*
X158169235Y-117417428D01*
X158175196Y-117441227D01*
X158178796Y-117465495D01*
X158180000Y-117489999D01*
X158180000Y-118015001D01*
X158178796Y-118039505D01*
X158175196Y-118063773D01*
X158169235Y-118087572D01*
X158160970Y-118110671D01*
X158150480Y-118132850D01*
X158137868Y-118153893D01*
X158123253Y-118173599D01*
X158106777Y-118191777D01*
X158088599Y-118208253D01*
X158068893Y-118222868D01*
X158047850Y-118235480D01*
X158025671Y-118245970D01*
X158002572Y-118254235D01*
X157978773Y-118260196D01*
X157954505Y-118263796D01*
X157930001Y-118265000D01*
X157029999Y-118265000D01*
X157005495Y-118263796D01*
X156981227Y-118260196D01*
X156957428Y-118254235D01*
X156934329Y-118245970D01*
X156912150Y-118235480D01*
X156891107Y-118222868D01*
X156871401Y-118208253D01*
X156853223Y-118191777D01*
X156836747Y-118173599D01*
X156822132Y-118153893D01*
X156809520Y-118132850D01*
X156799030Y-118110671D01*
X156790765Y-118087572D01*
X156784804Y-118063773D01*
X156781204Y-118039505D01*
X156780000Y-118015001D01*
X156780000Y-117489999D01*
X156781204Y-117465495D01*
X156784804Y-117441227D01*
X156790765Y-117417428D01*
X156799030Y-117394329D01*
X156809520Y-117372150D01*
X156822132Y-117351107D01*
X156836747Y-117331401D01*
X156853223Y-117313223D01*
X156871401Y-117296747D01*
X156891107Y-117282132D01*
X156912150Y-117269520D01*
X156934329Y-117259030D01*
X156957428Y-117250765D01*
X156981227Y-117244804D01*
X157005495Y-117241204D01*
X157029999Y-117240000D01*
X157930001Y-117240000D01*
X157954505Y-117241204D01*
G37*
G36*
X201134505Y-117241204D02*
G01*
X201158773Y-117244804D01*
X201182572Y-117250765D01*
X201205671Y-117259030D01*
X201227850Y-117269520D01*
X201248893Y-117282132D01*
X201268599Y-117296747D01*
X201286777Y-117313223D01*
X201303253Y-117331401D01*
X201317868Y-117351107D01*
X201330480Y-117372150D01*
X201340970Y-117394329D01*
X201349235Y-117417428D01*
X201355196Y-117441227D01*
X201358796Y-117465495D01*
X201360000Y-117489999D01*
X201360000Y-118015001D01*
X201358796Y-118039505D01*
X201355196Y-118063773D01*
X201349235Y-118087572D01*
X201340970Y-118110671D01*
X201330480Y-118132850D01*
X201317868Y-118153893D01*
X201303253Y-118173599D01*
X201286777Y-118191777D01*
X201268599Y-118208253D01*
X201248893Y-118222868D01*
X201227850Y-118235480D01*
X201205671Y-118245970D01*
X201182572Y-118254235D01*
X201158773Y-118260196D01*
X201134505Y-118263796D01*
X201110001Y-118265000D01*
X200209999Y-118265000D01*
X200185495Y-118263796D01*
X200161227Y-118260196D01*
X200137428Y-118254235D01*
X200114329Y-118245970D01*
X200092150Y-118235480D01*
X200071107Y-118222868D01*
X200051401Y-118208253D01*
X200033223Y-118191777D01*
X200016747Y-118173599D01*
X200002132Y-118153893D01*
X199989520Y-118132850D01*
X199979030Y-118110671D01*
X199970765Y-118087572D01*
X199964804Y-118063773D01*
X199961204Y-118039505D01*
X199960000Y-118015001D01*
X199960000Y-117489999D01*
X199961204Y-117465495D01*
X199964804Y-117441227D01*
X199970765Y-117417428D01*
X199979030Y-117394329D01*
X199989520Y-117372150D01*
X200002132Y-117351107D01*
X200016747Y-117331401D01*
X200033223Y-117313223D01*
X200051401Y-117296747D01*
X200071107Y-117282132D01*
X200092150Y-117269520D01*
X200114329Y-117259030D01*
X200137428Y-117250765D01*
X200161227Y-117244804D01*
X200185495Y-117241204D01*
X200209999Y-117240000D01*
X201110001Y-117240000D01*
X201134505Y-117241204D01*
G37*
G36*
X201134505Y-115416204D02*
G01*
X201158773Y-115419804D01*
X201182572Y-115425765D01*
X201205671Y-115434030D01*
X201227850Y-115444520D01*
X201248893Y-115457132D01*
X201268599Y-115471747D01*
X201286777Y-115488223D01*
X201303253Y-115506401D01*
X201317868Y-115526107D01*
X201330480Y-115547150D01*
X201340970Y-115569329D01*
X201349235Y-115592428D01*
X201355196Y-115616227D01*
X201358796Y-115640495D01*
X201360000Y-115664999D01*
X201360000Y-116190001D01*
X201358796Y-116214505D01*
X201355196Y-116238773D01*
X201349235Y-116262572D01*
X201340970Y-116285671D01*
X201330480Y-116307850D01*
X201317868Y-116328893D01*
X201303253Y-116348599D01*
X201286777Y-116366777D01*
X201268599Y-116383253D01*
X201248893Y-116397868D01*
X201227850Y-116410480D01*
X201205671Y-116420970D01*
X201182572Y-116429235D01*
X201158773Y-116435196D01*
X201134505Y-116438796D01*
X201110001Y-116440000D01*
X200209999Y-116440000D01*
X200185495Y-116438796D01*
X200161227Y-116435196D01*
X200137428Y-116429235D01*
X200114329Y-116420970D01*
X200092150Y-116410480D01*
X200071107Y-116397868D01*
X200051401Y-116383253D01*
X200033223Y-116366777D01*
X200016747Y-116348599D01*
X200002132Y-116328893D01*
X199989520Y-116307850D01*
X199979030Y-116285671D01*
X199970765Y-116262572D01*
X199964804Y-116238773D01*
X199961204Y-116214505D01*
X199960000Y-116190001D01*
X199960000Y-115664999D01*
X199961204Y-115640495D01*
X199964804Y-115616227D01*
X199970765Y-115592428D01*
X199979030Y-115569329D01*
X199989520Y-115547150D01*
X200002132Y-115526107D01*
X200016747Y-115506401D01*
X200033223Y-115488223D01*
X200051401Y-115471747D01*
X200071107Y-115457132D01*
X200092150Y-115444520D01*
X200114329Y-115434030D01*
X200137428Y-115425765D01*
X200161227Y-115419804D01*
X200185495Y-115416204D01*
X200209999Y-115415000D01*
X201110001Y-115415000D01*
X201134505Y-115416204D01*
G37*
G36*
X72864505Y-117241204D02*
G01*
X72888773Y-117244804D01*
X72912572Y-117250765D01*
X72935671Y-117259030D01*
X72957850Y-117269520D01*
X72978893Y-117282132D01*
X72998599Y-117296747D01*
X73016777Y-117313223D01*
X73033253Y-117331401D01*
X73047868Y-117351107D01*
X73060480Y-117372150D01*
X73070970Y-117394329D01*
X73079235Y-117417428D01*
X73085196Y-117441227D01*
X73088796Y-117465495D01*
X73090000Y-117489999D01*
X73090000Y-118015001D01*
X73088796Y-118039505D01*
X73085196Y-118063773D01*
X73079235Y-118087572D01*
X73070970Y-118110671D01*
X73060480Y-118132850D01*
X73047868Y-118153893D01*
X73033253Y-118173599D01*
X73016777Y-118191777D01*
X72998599Y-118208253D01*
X72978893Y-118222868D01*
X72957850Y-118235480D01*
X72935671Y-118245970D01*
X72912572Y-118254235D01*
X72888773Y-118260196D01*
X72864505Y-118263796D01*
X72840001Y-118265000D01*
X71939999Y-118265000D01*
X71915495Y-118263796D01*
X71891227Y-118260196D01*
X71867428Y-118254235D01*
X71844329Y-118245970D01*
X71822150Y-118235480D01*
X71801107Y-118222868D01*
X71781401Y-118208253D01*
X71763223Y-118191777D01*
X71746747Y-118173599D01*
X71732132Y-118153893D01*
X71719520Y-118132850D01*
X71709030Y-118110671D01*
X71700765Y-118087572D01*
X71694804Y-118063773D01*
X71691204Y-118039505D01*
X71690000Y-118015001D01*
X71690000Y-117489999D01*
X71691204Y-117465495D01*
X71694804Y-117441227D01*
X71700765Y-117417428D01*
X71709030Y-117394329D01*
X71719520Y-117372150D01*
X71732132Y-117351107D01*
X71746747Y-117331401D01*
X71763223Y-117313223D01*
X71781401Y-117296747D01*
X71801107Y-117282132D01*
X71822150Y-117269520D01*
X71844329Y-117259030D01*
X71867428Y-117250765D01*
X71891227Y-117244804D01*
X71915495Y-117241204D01*
X71939999Y-117240000D01*
X72840001Y-117240000D01*
X72864505Y-117241204D01*
G37*
G36*
X72864505Y-115416204D02*
G01*
X72888773Y-115419804D01*
X72912572Y-115425765D01*
X72935671Y-115434030D01*
X72957850Y-115444520D01*
X72978893Y-115457132D01*
X72998599Y-115471747D01*
X73016777Y-115488223D01*
X73033253Y-115506401D01*
X73047868Y-115526107D01*
X73060480Y-115547150D01*
X73070970Y-115569329D01*
X73079235Y-115592428D01*
X73085196Y-115616227D01*
X73088796Y-115640495D01*
X73090000Y-115664999D01*
X73090000Y-116190001D01*
X73088796Y-116214505D01*
X73085196Y-116238773D01*
X73079235Y-116262572D01*
X73070970Y-116285671D01*
X73060480Y-116307850D01*
X73047868Y-116328893D01*
X73033253Y-116348599D01*
X73016777Y-116366777D01*
X72998599Y-116383253D01*
X72978893Y-116397868D01*
X72957850Y-116410480D01*
X72935671Y-116420970D01*
X72912572Y-116429235D01*
X72888773Y-116435196D01*
X72864505Y-116438796D01*
X72840001Y-116440000D01*
X71939999Y-116440000D01*
X71915495Y-116438796D01*
X71891227Y-116435196D01*
X71867428Y-116429235D01*
X71844329Y-116420970D01*
X71822150Y-116410480D01*
X71801107Y-116397868D01*
X71781401Y-116383253D01*
X71763223Y-116366777D01*
X71746747Y-116348599D01*
X71732132Y-116328893D01*
X71719520Y-116307850D01*
X71709030Y-116285671D01*
X71700765Y-116262572D01*
X71694804Y-116238773D01*
X71691204Y-116214505D01*
X71690000Y-116190001D01*
X71690000Y-115664999D01*
X71691204Y-115640495D01*
X71694804Y-115616227D01*
X71700765Y-115592428D01*
X71709030Y-115569329D01*
X71719520Y-115547150D01*
X71732132Y-115526107D01*
X71746747Y-115506401D01*
X71763223Y-115488223D01*
X71781401Y-115471747D01*
X71801107Y-115457132D01*
X71822150Y-115444520D01*
X71844329Y-115434030D01*
X71867428Y-115425765D01*
X71891227Y-115419804D01*
X71915495Y-115416204D01*
X71939999Y-115415000D01*
X72840001Y-115415000D01*
X72864505Y-115416204D01*
G37*
G36*
X115409505Y-115416204D02*
G01*
X115433773Y-115419804D01*
X115457572Y-115425765D01*
X115480671Y-115434030D01*
X115502850Y-115444520D01*
X115523893Y-115457132D01*
X115543599Y-115471747D01*
X115561777Y-115488223D01*
X115578253Y-115506401D01*
X115592868Y-115526107D01*
X115605480Y-115547150D01*
X115615970Y-115569329D01*
X115624235Y-115592428D01*
X115630196Y-115616227D01*
X115633796Y-115640495D01*
X115635000Y-115664999D01*
X115635000Y-116190001D01*
X115633796Y-116214505D01*
X115630196Y-116238773D01*
X115624235Y-116262572D01*
X115615970Y-116285671D01*
X115605480Y-116307850D01*
X115592868Y-116328893D01*
X115578253Y-116348599D01*
X115561777Y-116366777D01*
X115543599Y-116383253D01*
X115523893Y-116397868D01*
X115502850Y-116410480D01*
X115480671Y-116420970D01*
X115457572Y-116429235D01*
X115433773Y-116435196D01*
X115409505Y-116438796D01*
X115385001Y-116440000D01*
X114484999Y-116440000D01*
X114460495Y-116438796D01*
X114436227Y-116435196D01*
X114412428Y-116429235D01*
X114389329Y-116420970D01*
X114367150Y-116410480D01*
X114346107Y-116397868D01*
X114326401Y-116383253D01*
X114308223Y-116366777D01*
X114291747Y-116348599D01*
X114277132Y-116328893D01*
X114264520Y-116307850D01*
X114254030Y-116285671D01*
X114245765Y-116262572D01*
X114239804Y-116238773D01*
X114236204Y-116214505D01*
X114235000Y-116190001D01*
X114235000Y-115664999D01*
X114236204Y-115640495D01*
X114239804Y-115616227D01*
X114245765Y-115592428D01*
X114254030Y-115569329D01*
X114264520Y-115547150D01*
X114277132Y-115526107D01*
X114291747Y-115506401D01*
X114308223Y-115488223D01*
X114326401Y-115471747D01*
X114346107Y-115457132D01*
X114367150Y-115444520D01*
X114389329Y-115434030D01*
X114412428Y-115425765D01*
X114436227Y-115419804D01*
X114460495Y-115416204D01*
X114484999Y-115415000D01*
X115385001Y-115415000D01*
X115409505Y-115416204D01*
G37*
G36*
X115409505Y-117241204D02*
G01*
X115433773Y-117244804D01*
X115457572Y-117250765D01*
X115480671Y-117259030D01*
X115502850Y-117269520D01*
X115523893Y-117282132D01*
X115543599Y-117296747D01*
X115561777Y-117313223D01*
X115578253Y-117331401D01*
X115592868Y-117351107D01*
X115605480Y-117372150D01*
X115615970Y-117394329D01*
X115624235Y-117417428D01*
X115630196Y-117441227D01*
X115633796Y-117465495D01*
X115635000Y-117489999D01*
X115635000Y-118015001D01*
X115633796Y-118039505D01*
X115630196Y-118063773D01*
X115624235Y-118087572D01*
X115615970Y-118110671D01*
X115605480Y-118132850D01*
X115592868Y-118153893D01*
X115578253Y-118173599D01*
X115561777Y-118191777D01*
X115543599Y-118208253D01*
X115523893Y-118222868D01*
X115502850Y-118235480D01*
X115480671Y-118245970D01*
X115457572Y-118254235D01*
X115433773Y-118260196D01*
X115409505Y-118263796D01*
X115385001Y-118265000D01*
X114484999Y-118265000D01*
X114460495Y-118263796D01*
X114436227Y-118260196D01*
X114412428Y-118254235D01*
X114389329Y-118245970D01*
X114367150Y-118235480D01*
X114346107Y-118222868D01*
X114326401Y-118208253D01*
X114308223Y-118191777D01*
X114291747Y-118173599D01*
X114277132Y-118153893D01*
X114264520Y-118132850D01*
X114254030Y-118110671D01*
X114245765Y-118087572D01*
X114239804Y-118063773D01*
X114236204Y-118039505D01*
X114235000Y-118015001D01*
X114235000Y-117489999D01*
X114236204Y-117465495D01*
X114239804Y-117441227D01*
X114245765Y-117417428D01*
X114254030Y-117394329D01*
X114264520Y-117372150D01*
X114277132Y-117351107D01*
X114291747Y-117331401D01*
X114308223Y-117313223D01*
X114326401Y-117296747D01*
X114346107Y-117282132D01*
X114367150Y-117269520D01*
X114389329Y-117259030D01*
X114412428Y-117250765D01*
X114436227Y-117244804D01*
X114460495Y-117241204D01*
X114484999Y-117240000D01*
X115385001Y-117240000D01*
X115409505Y-117241204D01*
G37*
D10*
X130226000Y-121928000D03*
X130226000Y-122428000D03*
X130226000Y-122928000D03*
X131902000Y-122928000D03*
X131902000Y-122428000D03*
X131902000Y-121928000D03*
M02*
