G04 #@! TF.GenerationSoftware,KiCad,Pcbnew,(6.0.0)*
G04 #@! TF.CreationDate,2022-04-05T21:53:00-07:00*
G04 #@! TF.ProjectId,MoistureSensor,4d6f6973-7475-4726-9553-656e736f722e,rev?*
G04 #@! TF.SameCoordinates,Original*
G04 #@! TF.FileFunction,Legend,Top*
G04 #@! TF.FilePolarity,Positive*
%FSLAX46Y46*%
G04 Gerber Fmt 4.6, Leading zero omitted, Abs format (unit mm)*
G04 Created by KiCad (PCBNEW (6.0.0)) date 2022-04-05 21:53:00*
%MOMM*%
%LPD*%
G01*
G04 APERTURE LIST*
%ADD10C,0.279400*%
%ADD11C,0.120000*%
%ADD12C,0.200000*%
%ADD13C,0.312500*%
%ADD14C,0.150000*%
%ADD15C,0.152400*%
G04 APERTURE END LIST*
D10*
X133223000Y-69342000D02*
G75*
G03*
X133223000Y-69342000I-127000J0D01*
G01*
D11*
X150431500Y-59245500D02*
X150812500Y-59245500D01*
X150622000Y-59055000D02*
X150622000Y-59436000D01*
D10*
X139763500Y-75692000D02*
G75*
G03*
X139763500Y-75692000I-127000J0D01*
G01*
D11*
X132651500Y-58991500D02*
X133032500Y-58991500D01*
D12*
X130810000Y-79375000D02*
X150495000Y-79375000D01*
D11*
X141732000Y-75057000D02*
X141732000Y-75438000D01*
X141541500Y-75247500D02*
X141922500Y-75247500D01*
X132842000Y-58801000D02*
X132842000Y-59182000D01*
D10*
X144399000Y-71501000D02*
G75*
G03*
X144399000Y-71501000I-127000J0D01*
G01*
D13*
X148058380Y-58628333D02*
X148653619Y-58628333D01*
X147939333Y-58985476D02*
X148356000Y-57735476D01*
X148772666Y-58985476D01*
X149189333Y-57735476D02*
X149189333Y-58747380D01*
X149248857Y-58866428D01*
X149308380Y-58925952D01*
X149427428Y-58985476D01*
X149665523Y-58985476D01*
X149784571Y-58925952D01*
X149844095Y-58866428D01*
X149903619Y-58747380D01*
X149903619Y-57735476D01*
X150379809Y-57735476D02*
X151213142Y-58985476D01*
X151213142Y-57735476D02*
X150379809Y-58985476D01*
X130413333Y-58985476D02*
X130413333Y-57735476D01*
X130889523Y-57735476D01*
X131008571Y-57795000D01*
X131068095Y-57854523D01*
X131127619Y-57973571D01*
X131127619Y-58152142D01*
X131068095Y-58271190D01*
X131008571Y-58330714D01*
X130889523Y-58390238D01*
X130413333Y-58390238D01*
X131544285Y-57735476D02*
X131841904Y-58985476D01*
X132080000Y-58092619D01*
X132318095Y-58985476D01*
X132615714Y-57735476D01*
X133806190Y-58985476D02*
X133389523Y-58390238D01*
X133091904Y-58985476D02*
X133091904Y-57735476D01*
X133568095Y-57735476D01*
X133687142Y-57795000D01*
X133746666Y-57854523D01*
X133806190Y-57973571D01*
X133806190Y-58152142D01*
X133746666Y-58271190D01*
X133687142Y-58330714D01*
X133568095Y-58390238D01*
X133091904Y-58390238D01*
D14*
X137085000Y-79079285D02*
X137085000Y-78329285D01*
X137263571Y-78329285D01*
X137370714Y-78365000D01*
X137442142Y-78436428D01*
X137477857Y-78507857D01*
X137513571Y-78650714D01*
X137513571Y-78757857D01*
X137477857Y-78900714D01*
X137442142Y-78972142D01*
X137370714Y-79043571D01*
X137263571Y-79079285D01*
X137085000Y-79079285D01*
X137835000Y-78686428D02*
X138085000Y-78686428D01*
X138192142Y-79079285D02*
X137835000Y-79079285D01*
X137835000Y-78329285D01*
X138192142Y-78329285D01*
X138513571Y-79079285D02*
X138513571Y-78329285D01*
X138799285Y-78329285D01*
X138870714Y-78365000D01*
X138906428Y-78400714D01*
X138942142Y-78472142D01*
X138942142Y-78579285D01*
X138906428Y-78650714D01*
X138870714Y-78686428D01*
X138799285Y-78722142D01*
X138513571Y-78722142D01*
X139156428Y-78329285D02*
X139585000Y-78329285D01*
X139370714Y-79079285D02*
X139370714Y-78329285D01*
X139835000Y-79079285D02*
X139835000Y-78329285D01*
X139835000Y-78686428D02*
X140263571Y-78686428D01*
X140263571Y-79079285D02*
X140263571Y-78329285D01*
X141549285Y-79079285D02*
X141192142Y-79079285D01*
X141192142Y-78329285D01*
X141799285Y-79079285D02*
X141799285Y-78329285D01*
X142156428Y-79079285D02*
X142156428Y-78329285D01*
X142406428Y-78865000D01*
X142656428Y-78329285D01*
X142656428Y-79079285D01*
X143013571Y-79079285D02*
X143013571Y-78329285D01*
X143263571Y-78329285D02*
X143692142Y-78329285D01*
X143477857Y-79079285D02*
X143477857Y-78329285D01*
X130452833Y-72620142D02*
X130405214Y-72667761D01*
X130262357Y-72715380D01*
X130167119Y-72715380D01*
X130024261Y-72667761D01*
X129929023Y-72572523D01*
X129881404Y-72477285D01*
X129833785Y-72286809D01*
X129833785Y-72143952D01*
X129881404Y-71953476D01*
X129929023Y-71858238D01*
X130024261Y-71763000D01*
X130167119Y-71715380D01*
X130262357Y-71715380D01*
X130405214Y-71763000D01*
X130452833Y-71810619D01*
X131405214Y-72715380D02*
X130833785Y-72715380D01*
X131119500Y-72715380D02*
X131119500Y-71715380D01*
X131024261Y-71858238D01*
X130929023Y-71953476D01*
X130833785Y-72001095D01*
X131659333Y-65635142D02*
X131611714Y-65682761D01*
X131468857Y-65730380D01*
X131373619Y-65730380D01*
X131230761Y-65682761D01*
X131135523Y-65587523D01*
X131087904Y-65492285D01*
X131040285Y-65301809D01*
X131040285Y-65158952D01*
X131087904Y-64968476D01*
X131135523Y-64873238D01*
X131230761Y-64778000D01*
X131373619Y-64730380D01*
X131468857Y-64730380D01*
X131611714Y-64778000D01*
X131659333Y-64825619D01*
X132040285Y-64825619D02*
X132087904Y-64778000D01*
X132183142Y-64730380D01*
X132421238Y-64730380D01*
X132516476Y-64778000D01*
X132564095Y-64825619D01*
X132611714Y-64920857D01*
X132611714Y-65016095D01*
X132564095Y-65158952D01*
X131992666Y-65730380D01*
X132611714Y-65730380D01*
X140041333Y-65635142D02*
X139993714Y-65682761D01*
X139850857Y-65730380D01*
X139755619Y-65730380D01*
X139612761Y-65682761D01*
X139517523Y-65587523D01*
X139469904Y-65492285D01*
X139422285Y-65301809D01*
X139422285Y-65158952D01*
X139469904Y-64968476D01*
X139517523Y-64873238D01*
X139612761Y-64778000D01*
X139755619Y-64730380D01*
X139850857Y-64730380D01*
X139993714Y-64778000D01*
X140041333Y-64825619D01*
X140374666Y-64730380D02*
X140993714Y-64730380D01*
X140660380Y-65111333D01*
X140803238Y-65111333D01*
X140898476Y-65158952D01*
X140946095Y-65206571D01*
X140993714Y-65301809D01*
X140993714Y-65539904D01*
X140946095Y-65635142D01*
X140898476Y-65682761D01*
X140803238Y-65730380D01*
X140517523Y-65730380D01*
X140422285Y-65682761D01*
X140374666Y-65635142D01*
X142581333Y-71223142D02*
X142533714Y-71270761D01*
X142390857Y-71318380D01*
X142295619Y-71318380D01*
X142152761Y-71270761D01*
X142057523Y-71175523D01*
X142009904Y-71080285D01*
X141962285Y-70889809D01*
X141962285Y-70746952D01*
X142009904Y-70556476D01*
X142057523Y-70461238D01*
X142152761Y-70366000D01*
X142295619Y-70318380D01*
X142390857Y-70318380D01*
X142533714Y-70366000D01*
X142581333Y-70413619D01*
X143438476Y-70651714D02*
X143438476Y-71318380D01*
X143200380Y-70270761D02*
X142962285Y-70985047D01*
X143581333Y-70985047D01*
X130452833Y-71096142D02*
X130405214Y-71143761D01*
X130262357Y-71191380D01*
X130167119Y-71191380D01*
X130024261Y-71143761D01*
X129929023Y-71048523D01*
X129881404Y-70953285D01*
X129833785Y-70762809D01*
X129833785Y-70619952D01*
X129881404Y-70429476D01*
X129929023Y-70334238D01*
X130024261Y-70239000D01*
X130167119Y-70191380D01*
X130262357Y-70191380D01*
X130405214Y-70239000D01*
X130452833Y-70286619D01*
X131357595Y-70191380D02*
X130881404Y-70191380D01*
X130833785Y-70667571D01*
X130881404Y-70619952D01*
X130976642Y-70572333D01*
X131214738Y-70572333D01*
X131309976Y-70619952D01*
X131357595Y-70667571D01*
X131405214Y-70762809D01*
X131405214Y-71000904D01*
X131357595Y-71096142D01*
X131309976Y-71143761D01*
X131214738Y-71191380D01*
X130976642Y-71191380D01*
X130881404Y-71143761D01*
X130833785Y-71096142D01*
X149693333Y-74017142D02*
X149645714Y-74064761D01*
X149502857Y-74112380D01*
X149407619Y-74112380D01*
X149264761Y-74064761D01*
X149169523Y-73969523D01*
X149121904Y-73874285D01*
X149074285Y-73683809D01*
X149074285Y-73540952D01*
X149121904Y-73350476D01*
X149169523Y-73255238D01*
X149264761Y-73160000D01*
X149407619Y-73112380D01*
X149502857Y-73112380D01*
X149645714Y-73160000D01*
X149693333Y-73207619D01*
X150550476Y-73112380D02*
X150360000Y-73112380D01*
X150264761Y-73160000D01*
X150217142Y-73207619D01*
X150121904Y-73350476D01*
X150074285Y-73540952D01*
X150074285Y-73921904D01*
X150121904Y-74017142D01*
X150169523Y-74064761D01*
X150264761Y-74112380D01*
X150455238Y-74112380D01*
X150550476Y-74064761D01*
X150598095Y-74017142D01*
X150645714Y-73921904D01*
X150645714Y-73683809D01*
X150598095Y-73588571D01*
X150550476Y-73540952D01*
X150455238Y-73493333D01*
X150264761Y-73493333D01*
X150169523Y-73540952D01*
X150121904Y-73588571D01*
X150074285Y-73683809D01*
X142200333Y-67667142D02*
X142152714Y-67714761D01*
X142009857Y-67762380D01*
X141914619Y-67762380D01*
X141771761Y-67714761D01*
X141676523Y-67619523D01*
X141628904Y-67524285D01*
X141581285Y-67333809D01*
X141581285Y-67190952D01*
X141628904Y-67000476D01*
X141676523Y-66905238D01*
X141771761Y-66810000D01*
X141914619Y-66762380D01*
X142009857Y-66762380D01*
X142152714Y-66810000D01*
X142200333Y-66857619D01*
X142533666Y-66762380D02*
X143200333Y-66762380D01*
X142771761Y-67762380D01*
X142771904Y-77287380D02*
X142771904Y-76287380D01*
X143010000Y-76287380D01*
X143152857Y-76335000D01*
X143248095Y-76430238D01*
X143295714Y-76525476D01*
X143343333Y-76715952D01*
X143343333Y-76858809D01*
X143295714Y-77049285D01*
X143248095Y-77144523D01*
X143152857Y-77239761D01*
X143010000Y-77287380D01*
X142771904Y-77287380D01*
X144295714Y-77287380D02*
X143724285Y-77287380D01*
X144010000Y-77287380D02*
X144010000Y-76287380D01*
X143914761Y-76430238D01*
X143819523Y-76525476D01*
X143724285Y-76573095D01*
X130452833Y-75890380D02*
X130119500Y-75414190D01*
X129881404Y-75890380D02*
X129881404Y-74890380D01*
X130262357Y-74890380D01*
X130357595Y-74938000D01*
X130405214Y-74985619D01*
X130452833Y-75080857D01*
X130452833Y-75223714D01*
X130405214Y-75318952D01*
X130357595Y-75366571D01*
X130262357Y-75414190D01*
X129881404Y-75414190D01*
X131405214Y-75890380D02*
X130833785Y-75890380D01*
X131119500Y-75890380D02*
X131119500Y-74890380D01*
X131024261Y-75033238D01*
X130929023Y-75128476D01*
X130833785Y-75176095D01*
X130452833Y-74239380D02*
X130119500Y-73763190D01*
X129881404Y-74239380D02*
X129881404Y-73239380D01*
X130262357Y-73239380D01*
X130357595Y-73287000D01*
X130405214Y-73334619D01*
X130452833Y-73429857D01*
X130452833Y-73572714D01*
X130405214Y-73667952D01*
X130357595Y-73715571D01*
X130262357Y-73763190D01*
X129881404Y-73763190D01*
X130833785Y-73334619D02*
X130881404Y-73287000D01*
X130976642Y-73239380D01*
X131214738Y-73239380D01*
X131309976Y-73287000D01*
X131357595Y-73334619D01*
X131405214Y-73429857D01*
X131405214Y-73525095D01*
X131357595Y-73667952D01*
X130786166Y-74239380D01*
X131405214Y-74239380D01*
X142581333Y-73477380D02*
X142248000Y-73001190D01*
X142009904Y-73477380D02*
X142009904Y-72477380D01*
X142390857Y-72477380D01*
X142486095Y-72525000D01*
X142533714Y-72572619D01*
X142581333Y-72667857D01*
X142581333Y-72810714D01*
X142533714Y-72905952D01*
X142486095Y-72953571D01*
X142390857Y-73001190D01*
X142009904Y-73001190D01*
X142914666Y-72477380D02*
X143533714Y-72477380D01*
X143200380Y-72858333D01*
X143343238Y-72858333D01*
X143438476Y-72905952D01*
X143486095Y-72953571D01*
X143533714Y-73048809D01*
X143533714Y-73286904D01*
X143486095Y-73382142D01*
X143438476Y-73429761D01*
X143343238Y-73477380D01*
X143057523Y-73477380D01*
X142962285Y-73429761D01*
X142914666Y-73382142D01*
X148931333Y-75636380D02*
X148598000Y-75160190D01*
X148359904Y-75636380D02*
X148359904Y-74636380D01*
X148740857Y-74636380D01*
X148836095Y-74684000D01*
X148883714Y-74731619D01*
X148931333Y-74826857D01*
X148931333Y-74969714D01*
X148883714Y-75064952D01*
X148836095Y-75112571D01*
X148740857Y-75160190D01*
X148359904Y-75160190D01*
X149788476Y-74969714D02*
X149788476Y-75636380D01*
X149550380Y-74588761D02*
X149312285Y-75303047D01*
X149931333Y-75303047D01*
X137160095Y-63968380D02*
X137160095Y-64777904D01*
X137207714Y-64873142D01*
X137255333Y-64920761D01*
X137350571Y-64968380D01*
X137541047Y-64968380D01*
X137636285Y-64920761D01*
X137683904Y-64873142D01*
X137731523Y-64777904D01*
X137731523Y-63968380D01*
X138731523Y-64968380D02*
X138160095Y-64968380D01*
X138445809Y-64968380D02*
X138445809Y-63968380D01*
X138350571Y-64111238D01*
X138255333Y-64206476D01*
X138160095Y-64254095D01*
X135636000Y-66254380D02*
X135636000Y-66492476D01*
X135397904Y-66397238D02*
X135636000Y-66492476D01*
X135874095Y-66397238D01*
X135493142Y-66682952D02*
X135636000Y-66492476D01*
X135778857Y-66682952D01*
X136334595Y-76004380D02*
X136334595Y-76813904D01*
X136382214Y-76909142D01*
X136429833Y-76956761D01*
X136525071Y-77004380D01*
X136715547Y-77004380D01*
X136810785Y-76956761D01*
X136858404Y-76909142D01*
X136906023Y-76813904D01*
X136906023Y-76004380D01*
X137334595Y-76099619D02*
X137382214Y-76052000D01*
X137477452Y-76004380D01*
X137715547Y-76004380D01*
X137810785Y-76052000D01*
X137858404Y-76099619D01*
X137906023Y-76194857D01*
X137906023Y-76290095D01*
X137858404Y-76432952D01*
X137286976Y-77004380D01*
X137906023Y-77004380D01*
X149860095Y-68286380D02*
X149860095Y-69095904D01*
X149907714Y-69191142D01*
X149955333Y-69238761D01*
X150050571Y-69286380D01*
X150241047Y-69286380D01*
X150336285Y-69238761D01*
X150383904Y-69191142D01*
X150431523Y-69095904D01*
X150431523Y-68286380D01*
X150812476Y-68286380D02*
X151431523Y-68286380D01*
X151098190Y-68667333D01*
X151241047Y-68667333D01*
X151336285Y-68714952D01*
X151383904Y-68762571D01*
X151431523Y-68857809D01*
X151431523Y-69095904D01*
X151383904Y-69191142D01*
X151336285Y-69238761D01*
X151241047Y-69286380D01*
X150955333Y-69286380D01*
X150860095Y-69238761D01*
X150812476Y-69191142D01*
X147153333Y-63698380D02*
X146820000Y-63222190D01*
X146581904Y-63698380D02*
X146581904Y-62698380D01*
X146962857Y-62698380D01*
X147058095Y-62746000D01*
X147105714Y-62793619D01*
X147153333Y-62888857D01*
X147153333Y-63031714D01*
X147105714Y-63126952D01*
X147058095Y-63174571D01*
X146962857Y-63222190D01*
X146581904Y-63222190D01*
X148010476Y-62698380D02*
X147820000Y-62698380D01*
X147724761Y-62746000D01*
X147677142Y-62793619D01*
X147581904Y-62936476D01*
X147534285Y-63126952D01*
X147534285Y-63507904D01*
X147581904Y-63603142D01*
X147629523Y-63650761D01*
X147724761Y-63698380D01*
X147915238Y-63698380D01*
X148010476Y-63650761D01*
X148058095Y-63603142D01*
X148105714Y-63507904D01*
X148105714Y-63269809D01*
X148058095Y-63174571D01*
X148010476Y-63126952D01*
X147915238Y-63079333D01*
X147724761Y-63079333D01*
X147629523Y-63126952D01*
X147581904Y-63174571D01*
X147534285Y-63269809D01*
X142198333Y-59507380D02*
X141865000Y-59031190D01*
X141626904Y-59507380D02*
X141626904Y-58507380D01*
X142007857Y-58507380D01*
X142103095Y-58555000D01*
X142150714Y-58602619D01*
X142198333Y-58697857D01*
X142198333Y-58840714D01*
X142150714Y-58935952D01*
X142103095Y-58983571D01*
X142007857Y-59031190D01*
X141626904Y-59031190D01*
X142531666Y-58507380D02*
X143198333Y-58507380D01*
X142769761Y-59507380D01*
X141382761Y-62015619D02*
X141287523Y-61968000D01*
X141192285Y-61872761D01*
X141049428Y-61729904D01*
X140954190Y-61682285D01*
X140858952Y-61682285D01*
X140906571Y-61920380D02*
X140811333Y-61872761D01*
X140716095Y-61777523D01*
X140668476Y-61587047D01*
X140668476Y-61253714D01*
X140716095Y-61063238D01*
X140811333Y-60968000D01*
X140906571Y-60920380D01*
X141097047Y-60920380D01*
X141192285Y-60968000D01*
X141287523Y-61063238D01*
X141335142Y-61253714D01*
X141335142Y-61587047D01*
X141287523Y-61777523D01*
X141192285Y-61872761D01*
X141097047Y-61920380D01*
X140906571Y-61920380D01*
X142287523Y-61920380D02*
X141716095Y-61920380D01*
X142001809Y-61920380D02*
X142001809Y-60920380D01*
X141906571Y-61063238D01*
X141811333Y-61158476D01*
X141716095Y-61206095D01*
X137461666Y-57840571D02*
X137128333Y-57840571D01*
X137128333Y-58364380D02*
X137128333Y-57364380D01*
X137604523Y-57364380D01*
X138509285Y-58364380D02*
X137937857Y-58364380D01*
X138223571Y-58364380D02*
X138223571Y-57364380D01*
X138128333Y-57507238D01*
X138033095Y-57602476D01*
X137937857Y-57650095D01*
X131087904Y-63698380D02*
X131087904Y-62698380D01*
X131326000Y-62698380D01*
X131468857Y-62746000D01*
X131564095Y-62841238D01*
X131611714Y-62936476D01*
X131659333Y-63126952D01*
X131659333Y-63269809D01*
X131611714Y-63460285D01*
X131564095Y-63555523D01*
X131468857Y-63650761D01*
X131326000Y-63698380D01*
X131087904Y-63698380D01*
X132040285Y-62793619D02*
X132087904Y-62746000D01*
X132183142Y-62698380D01*
X132421238Y-62698380D01*
X132516476Y-62746000D01*
X132564095Y-62793619D01*
X132611714Y-62888857D01*
X132611714Y-62984095D01*
X132564095Y-63126952D01*
X131992666Y-63698380D01*
X132611714Y-63698380D01*
X148867904Y-63952380D02*
X148867904Y-62952380D01*
X149106000Y-62952380D01*
X149248857Y-63000000D01*
X149344095Y-63095238D01*
X149391714Y-63190476D01*
X149439333Y-63380952D01*
X149439333Y-63523809D01*
X149391714Y-63714285D01*
X149344095Y-63809523D01*
X149248857Y-63904761D01*
X149106000Y-63952380D01*
X148867904Y-63952380D01*
X149772666Y-62952380D02*
X150391714Y-62952380D01*
X150058380Y-63333333D01*
X150201238Y-63333333D01*
X150296476Y-63380952D01*
X150344095Y-63428571D01*
X150391714Y-63523809D01*
X150391714Y-63761904D01*
X150344095Y-63857142D01*
X150296476Y-63904761D01*
X150201238Y-63952380D01*
X149915523Y-63952380D01*
X149820285Y-63904761D01*
X149772666Y-63857142D01*
X134453333Y-63190380D02*
X134120000Y-62714190D01*
X133881904Y-63190380D02*
X133881904Y-62190380D01*
X134262857Y-62190380D01*
X134358095Y-62238000D01*
X134405714Y-62285619D01*
X134453333Y-62380857D01*
X134453333Y-62523714D01*
X134405714Y-62618952D01*
X134358095Y-62666571D01*
X134262857Y-62714190D01*
X133881904Y-62714190D01*
X135358095Y-62190380D02*
X134881904Y-62190380D01*
X134834285Y-62666571D01*
X134881904Y-62618952D01*
X134977142Y-62571333D01*
X135215238Y-62571333D01*
X135310476Y-62618952D01*
X135358095Y-62666571D01*
X135405714Y-62761809D01*
X135405714Y-62999904D01*
X135358095Y-63095142D01*
X135310476Y-63142761D01*
X135215238Y-63190380D01*
X134977142Y-63190380D01*
X134881904Y-63142761D01*
X134834285Y-63095142D01*
D11*
X132505336Y-72623000D02*
X132289664Y-72623000D01*
X132505336Y-71903000D02*
X132289664Y-71903000D01*
X132561000Y-67048748D02*
X132561000Y-67571252D01*
X131091000Y-67048748D02*
X131091000Y-67571252D01*
X139473000Y-67571252D02*
X139473000Y-67048748D01*
X140943000Y-67571252D02*
X140943000Y-67048748D01*
X140991000Y-70631164D02*
X140991000Y-70846836D01*
X141711000Y-70631164D02*
X141711000Y-70846836D01*
X132505336Y-71099000D02*
X132289664Y-71099000D01*
X132505336Y-70379000D02*
X132289664Y-70379000D01*
X147560420Y-74170000D02*
X147841580Y-74170000D01*
X147560420Y-73150000D02*
X147841580Y-73150000D01*
X144124000Y-67202164D02*
X144124000Y-67417836D01*
X143404000Y-67202164D02*
X143404000Y-67417836D01*
X145010000Y-76161000D02*
X142460000Y-76161000D01*
X145010000Y-76161000D02*
X145010000Y-74461000D01*
X145010000Y-74461000D02*
X142460000Y-74461000D01*
X132551141Y-75058000D02*
X132243859Y-75058000D01*
X132551141Y-75818000D02*
X132243859Y-75818000D01*
X132551141Y-73407000D02*
X132243859Y-73407000D01*
X132551141Y-74167000D02*
X132243859Y-74167000D01*
X141731000Y-73178641D02*
X141731000Y-72871359D01*
X140971000Y-73178641D02*
X140971000Y-72871359D01*
X147293359Y-75564000D02*
X147600641Y-75564000D01*
X147293359Y-74804000D02*
X147600641Y-74804000D01*
D15*
X137708640Y-68275200D02*
X138112500Y-68275200D01*
X134711440Y-68275200D02*
X135003619Y-68275200D01*
X133159500Y-68275200D02*
X133563360Y-68275200D01*
X133159500Y-65328800D02*
X133159500Y-68275200D01*
X136289805Y-68275200D02*
X136560560Y-68275200D01*
X138112500Y-65328800D02*
X136908540Y-65328800D01*
X134363460Y-65328800D02*
X133159500Y-65328800D01*
X138112500Y-68275200D02*
X138112500Y-65328800D01*
X132143500Y-69405500D02*
G75*
G03*
X132143500Y-69405500I-127000J0D01*
G01*
D11*
X137096500Y-70592000D02*
X139046500Y-70592000D01*
X137096500Y-70592000D02*
X135146500Y-70592000D01*
X137096500Y-75712000D02*
X135146500Y-75712000D01*
X137096500Y-75712000D02*
X140546500Y-75712000D01*
X149626000Y-68961000D02*
X149626000Y-70911000D01*
X144506000Y-68961000D02*
X144506000Y-72411000D01*
X144506000Y-68961000D02*
X144506000Y-67011000D01*
X149626000Y-68961000D02*
X149626000Y-67011000D01*
X146797500Y-61197258D02*
X146797500Y-60722742D01*
X147842500Y-61197258D02*
X147842500Y-60722742D01*
X144423641Y-58675000D02*
X144116359Y-58675000D01*
X144423641Y-59435000D02*
X144116359Y-59435000D01*
X144905000Y-63175000D02*
X143445000Y-63175000D01*
X144905000Y-60015000D02*
X144905000Y-60945000D01*
X144905000Y-60015000D02*
X142745000Y-60015000D01*
X144905000Y-63175000D02*
X144905000Y-62245000D01*
X136885000Y-61562064D02*
X136885000Y-60357936D01*
X138705000Y-61562064D02*
X138705000Y-60357936D01*
X130866000Y-62391000D02*
X132786000Y-62391000D01*
X132786000Y-62391000D02*
X132786000Y-59706000D01*
X130866000Y-59706000D02*
X130866000Y-62391000D01*
X150566000Y-62645000D02*
X150566000Y-59960000D01*
X148646000Y-59960000D02*
X148646000Y-62645000D01*
X148646000Y-62645000D02*
X150566000Y-62645000D01*
X134097500Y-60943258D02*
X134097500Y-60468742D01*
X135142500Y-60943258D02*
X135142500Y-60468742D01*
M02*
