G04 #@! TF.GenerationSoftware,KiCad,Pcbnew,(5.1.5)-3*
G04 #@! TF.CreationDate,2021-02-08T22:28:45-08:00*
G04 #@! TF.ProjectId,MoistureSensor,4d6f6973-7475-4726-9553-656e736f722e,rev?*
G04 #@! TF.SameCoordinates,Original*
G04 #@! TF.FileFunction,Soldermask,Top*
G04 #@! TF.FilePolarity,Negative*
%FSLAX46Y46*%
G04 Gerber Fmt 4.6, Leading zero omitted, Abs format (unit mm)*
G04 Created by KiCad (PCBNEW (5.1.5)-3) date 2021-02-08 22:28:45*
%MOMM*%
%LPD*%
G04 APERTURE LIST*
%ADD10C,0.152400*%
%ADD11C,0.100000*%
G04 APERTURE END LIST*
D10*
X135915400Y-68148200D02*
X135356600Y-68148200D01*
X135915400Y-68148200D02*
X135915400Y-68148200D01*
X136550400Y-67513200D02*
X135915400Y-68148200D01*
X136550400Y-63931800D02*
X136550400Y-67513200D01*
X134721600Y-63931800D02*
X136550400Y-63931800D01*
X134721600Y-67513200D02*
X134721600Y-63931800D01*
X135356600Y-68148200D02*
X134721600Y-67513200D01*
X135356600Y-68148200D02*
X135356600Y-68148200D01*
D11*
G36*
X132129497Y-75069476D02*
G01*
X132147774Y-75075020D01*
X132164608Y-75084018D01*
X132179368Y-75096132D01*
X132191482Y-75110892D01*
X132200480Y-75127726D01*
X132206024Y-75146003D01*
X132208500Y-75171140D01*
X132208500Y-75704860D01*
X132206024Y-75729997D01*
X132200480Y-75748274D01*
X132191482Y-75765108D01*
X132179368Y-75779868D01*
X132164608Y-75791982D01*
X132147774Y-75800980D01*
X132129497Y-75806524D01*
X132104360Y-75809000D01*
X131670640Y-75809000D01*
X131645503Y-75806524D01*
X131627226Y-75800980D01*
X131610392Y-75791982D01*
X131595632Y-75779868D01*
X131583518Y-75765108D01*
X131574520Y-75748274D01*
X131568976Y-75729997D01*
X131566500Y-75704860D01*
X131566500Y-75171140D01*
X131568976Y-75146003D01*
X131574520Y-75127726D01*
X131583518Y-75110892D01*
X131595632Y-75096132D01*
X131610392Y-75084018D01*
X131627226Y-75075020D01*
X131645503Y-75069476D01*
X131670640Y-75067000D01*
X132104360Y-75067000D01*
X132129497Y-75069476D01*
G37*
G36*
X133149497Y-75069476D02*
G01*
X133167774Y-75075020D01*
X133184608Y-75084018D01*
X133199368Y-75096132D01*
X133211482Y-75110892D01*
X133220480Y-75127726D01*
X133226024Y-75146003D01*
X133228500Y-75171140D01*
X133228500Y-75704860D01*
X133226024Y-75729997D01*
X133220480Y-75748274D01*
X133211482Y-75765108D01*
X133199368Y-75779868D01*
X133184608Y-75791982D01*
X133167774Y-75800980D01*
X133149497Y-75806524D01*
X133124360Y-75809000D01*
X132690640Y-75809000D01*
X132665503Y-75806524D01*
X132647226Y-75800980D01*
X132630392Y-75791982D01*
X132615632Y-75779868D01*
X132603518Y-75765108D01*
X132594520Y-75748274D01*
X132588976Y-75729997D01*
X132586500Y-75704860D01*
X132586500Y-75171140D01*
X132588976Y-75146003D01*
X132594520Y-75127726D01*
X132603518Y-75110892D01*
X132615632Y-75096132D01*
X132630392Y-75084018D01*
X132647226Y-75075020D01*
X132665503Y-75069476D01*
X132690640Y-75067000D01*
X133124360Y-75067000D01*
X133149497Y-75069476D01*
G37*
G36*
X144911000Y-75612000D02*
G01*
X144309000Y-75612000D01*
X144309000Y-75010000D01*
X144911000Y-75010000D01*
X144911000Y-75612000D01*
G37*
G36*
X142711000Y-75612000D02*
G01*
X142109000Y-75612000D01*
X142109000Y-75010000D01*
X142711000Y-75010000D01*
X142711000Y-75612000D01*
G37*
G36*
X148198997Y-74815476D02*
G01*
X148217274Y-74821020D01*
X148234108Y-74830018D01*
X148248868Y-74842132D01*
X148260982Y-74856892D01*
X148269980Y-74873726D01*
X148275524Y-74892003D01*
X148278000Y-74917140D01*
X148278000Y-75450860D01*
X148275524Y-75475997D01*
X148269980Y-75494274D01*
X148260982Y-75511108D01*
X148248868Y-75525868D01*
X148234108Y-75537982D01*
X148217274Y-75546980D01*
X148198997Y-75552524D01*
X148173860Y-75555000D01*
X147740140Y-75555000D01*
X147715003Y-75552524D01*
X147696726Y-75546980D01*
X147679892Y-75537982D01*
X147665132Y-75525868D01*
X147653018Y-75511108D01*
X147644020Y-75494274D01*
X147638476Y-75475997D01*
X147636000Y-75450860D01*
X147636000Y-74917140D01*
X147638476Y-74892003D01*
X147644020Y-74873726D01*
X147653018Y-74856892D01*
X147665132Y-74842132D01*
X147679892Y-74830018D01*
X147696726Y-74821020D01*
X147715003Y-74815476D01*
X147740140Y-74813000D01*
X148173860Y-74813000D01*
X148198997Y-74815476D01*
G37*
G36*
X147178997Y-74815476D02*
G01*
X147197274Y-74821020D01*
X147214108Y-74830018D01*
X147228868Y-74842132D01*
X147240982Y-74856892D01*
X147249980Y-74873726D01*
X147255524Y-74892003D01*
X147258000Y-74917140D01*
X147258000Y-75450860D01*
X147255524Y-75475997D01*
X147249980Y-75494274D01*
X147240982Y-75511108D01*
X147228868Y-75525868D01*
X147214108Y-75537982D01*
X147197274Y-75546980D01*
X147178997Y-75552524D01*
X147153860Y-75555000D01*
X146720140Y-75555000D01*
X146695003Y-75552524D01*
X146676726Y-75546980D01*
X146659892Y-75537982D01*
X146645132Y-75525868D01*
X146633018Y-75511108D01*
X146624020Y-75494274D01*
X146618476Y-75475997D01*
X146616000Y-75450860D01*
X146616000Y-74917140D01*
X146618476Y-74892003D01*
X146624020Y-74873726D01*
X146633018Y-74856892D01*
X146645132Y-74842132D01*
X146659892Y-74830018D01*
X146676726Y-74821020D01*
X146695003Y-74815476D01*
X146720140Y-74813000D01*
X147153860Y-74813000D01*
X147178997Y-74815476D01*
G37*
G36*
X140506428Y-74708764D02*
G01*
X140527509Y-74715160D01*
X140546945Y-74725548D01*
X140563976Y-74739524D01*
X140577952Y-74756555D01*
X140588340Y-74775991D01*
X140594736Y-74797072D01*
X140597500Y-74825140D01*
X140597500Y-75288860D01*
X140594736Y-75316928D01*
X140588340Y-75338009D01*
X140577952Y-75357445D01*
X140563976Y-75374476D01*
X140546945Y-75388452D01*
X140527509Y-75398840D01*
X140506428Y-75405236D01*
X140478360Y-75408000D01*
X138664640Y-75408000D01*
X138636572Y-75405236D01*
X138615491Y-75398840D01*
X138596055Y-75388452D01*
X138579024Y-75374476D01*
X138565048Y-75357445D01*
X138554660Y-75338009D01*
X138548264Y-75316928D01*
X138545500Y-75288860D01*
X138545500Y-74825140D01*
X138548264Y-74797072D01*
X138554660Y-74775991D01*
X138565048Y-74756555D01*
X138579024Y-74739524D01*
X138596055Y-74725548D01*
X138615491Y-74715160D01*
X138636572Y-74708764D01*
X138664640Y-74706000D01*
X140478360Y-74706000D01*
X140506428Y-74708764D01*
G37*
G36*
X135556428Y-74708764D02*
G01*
X135577509Y-74715160D01*
X135596945Y-74725548D01*
X135613976Y-74739524D01*
X135627952Y-74756555D01*
X135638340Y-74775991D01*
X135644736Y-74797072D01*
X135647500Y-74825140D01*
X135647500Y-75288860D01*
X135644736Y-75316928D01*
X135638340Y-75338009D01*
X135627952Y-75357445D01*
X135613976Y-75374476D01*
X135596945Y-75388452D01*
X135577509Y-75398840D01*
X135556428Y-75405236D01*
X135528360Y-75408000D01*
X133714640Y-75408000D01*
X133686572Y-75405236D01*
X133665491Y-75398840D01*
X133646055Y-75388452D01*
X133629024Y-75374476D01*
X133615048Y-75357445D01*
X133604660Y-75338009D01*
X133598264Y-75316928D01*
X133595500Y-75288860D01*
X133595500Y-74825140D01*
X133598264Y-74797072D01*
X133604660Y-74775991D01*
X133615048Y-74756555D01*
X133629024Y-74739524D01*
X133646055Y-74725548D01*
X133665491Y-74715160D01*
X133686572Y-74708764D01*
X133714640Y-74706000D01*
X135528360Y-74706000D01*
X135556428Y-74708764D01*
G37*
G36*
X148825560Y-73138205D02*
G01*
X148860713Y-73148869D01*
X148893110Y-73166186D01*
X148921509Y-73189491D01*
X148944814Y-73217890D01*
X148962131Y-73250287D01*
X148972795Y-73285440D01*
X148977000Y-73328140D01*
X148977000Y-73991860D01*
X148972795Y-74034560D01*
X148962131Y-74069713D01*
X148944814Y-74102110D01*
X148921509Y-74130509D01*
X148893110Y-74153814D01*
X148860713Y-74171131D01*
X148825560Y-74181795D01*
X148782860Y-74186000D01*
X148169140Y-74186000D01*
X148126440Y-74181795D01*
X148091287Y-74171131D01*
X148058890Y-74153814D01*
X148030491Y-74130509D01*
X148007186Y-74102110D01*
X147989869Y-74069713D01*
X147979205Y-74034560D01*
X147975000Y-73991860D01*
X147975000Y-73328140D01*
X147979205Y-73285440D01*
X147989869Y-73250287D01*
X148007186Y-73217890D01*
X148030491Y-73189491D01*
X148058890Y-73166186D01*
X148091287Y-73148869D01*
X148126440Y-73138205D01*
X148169140Y-73134000D01*
X148782860Y-73134000D01*
X148825560Y-73138205D01*
G37*
G36*
X147275560Y-73138205D02*
G01*
X147310713Y-73148869D01*
X147343110Y-73166186D01*
X147371509Y-73189491D01*
X147394814Y-73217890D01*
X147412131Y-73250287D01*
X147422795Y-73285440D01*
X147427000Y-73328140D01*
X147427000Y-73991860D01*
X147422795Y-74034560D01*
X147412131Y-74069713D01*
X147394814Y-74102110D01*
X147371509Y-74130509D01*
X147343110Y-74153814D01*
X147310713Y-74171131D01*
X147275560Y-74181795D01*
X147232860Y-74186000D01*
X146619140Y-74186000D01*
X146576440Y-74181795D01*
X146541287Y-74171131D01*
X146508890Y-74153814D01*
X146480491Y-74130509D01*
X146457186Y-74102110D01*
X146439869Y-74069713D01*
X146429205Y-74034560D01*
X146425000Y-73991860D01*
X146425000Y-73328140D01*
X146429205Y-73285440D01*
X146439869Y-73250287D01*
X146457186Y-73217890D01*
X146480491Y-73189491D01*
X146508890Y-73166186D01*
X146541287Y-73148869D01*
X146576440Y-73138205D01*
X146619140Y-73134000D01*
X147232860Y-73134000D01*
X147275560Y-73138205D01*
G37*
G36*
X132129497Y-73418476D02*
G01*
X132147774Y-73424020D01*
X132164608Y-73433018D01*
X132179368Y-73445132D01*
X132191482Y-73459892D01*
X132200480Y-73476726D01*
X132206024Y-73495003D01*
X132208500Y-73520140D01*
X132208500Y-74053860D01*
X132206024Y-74078997D01*
X132200480Y-74097274D01*
X132191482Y-74114108D01*
X132179368Y-74128868D01*
X132164608Y-74140982D01*
X132147774Y-74149980D01*
X132129497Y-74155524D01*
X132104360Y-74158000D01*
X131670640Y-74158000D01*
X131645503Y-74155524D01*
X131627226Y-74149980D01*
X131610392Y-74140982D01*
X131595632Y-74128868D01*
X131583518Y-74114108D01*
X131574520Y-74097274D01*
X131568976Y-74078997D01*
X131566500Y-74053860D01*
X131566500Y-73520140D01*
X131568976Y-73495003D01*
X131574520Y-73476726D01*
X131583518Y-73459892D01*
X131595632Y-73445132D01*
X131610392Y-73433018D01*
X131627226Y-73424020D01*
X131645503Y-73418476D01*
X131670640Y-73416000D01*
X132104360Y-73416000D01*
X132129497Y-73418476D01*
G37*
G36*
X133149497Y-73418476D02*
G01*
X133167774Y-73424020D01*
X133184608Y-73433018D01*
X133199368Y-73445132D01*
X133211482Y-73459892D01*
X133220480Y-73476726D01*
X133226024Y-73495003D01*
X133228500Y-73520140D01*
X133228500Y-74053860D01*
X133226024Y-74078997D01*
X133220480Y-74097274D01*
X133211482Y-74114108D01*
X133199368Y-74128868D01*
X133184608Y-74140982D01*
X133167774Y-74149980D01*
X133149497Y-74155524D01*
X133124360Y-74158000D01*
X132690640Y-74158000D01*
X132665503Y-74155524D01*
X132647226Y-74149980D01*
X132630392Y-74140982D01*
X132615632Y-74128868D01*
X132603518Y-74114108D01*
X132594520Y-74097274D01*
X132588976Y-74078997D01*
X132586500Y-74053860D01*
X132586500Y-73520140D01*
X132588976Y-73495003D01*
X132594520Y-73476726D01*
X132603518Y-73459892D01*
X132615632Y-73445132D01*
X132630392Y-73433018D01*
X132647226Y-73424020D01*
X132665503Y-73418476D01*
X132690640Y-73416000D01*
X133124360Y-73416000D01*
X133149497Y-73418476D01*
G37*
G36*
X135556428Y-73438764D02*
G01*
X135577509Y-73445160D01*
X135596945Y-73455548D01*
X135613976Y-73469524D01*
X135627952Y-73486555D01*
X135638340Y-73505991D01*
X135644736Y-73527072D01*
X135647500Y-73555140D01*
X135647500Y-74018860D01*
X135644736Y-74046928D01*
X135638340Y-74068009D01*
X135627952Y-74087445D01*
X135613976Y-74104476D01*
X135596945Y-74118452D01*
X135577509Y-74128840D01*
X135556428Y-74135236D01*
X135528360Y-74138000D01*
X133714640Y-74138000D01*
X133686572Y-74135236D01*
X133665491Y-74128840D01*
X133646055Y-74118452D01*
X133629024Y-74104476D01*
X133615048Y-74087445D01*
X133604660Y-74068009D01*
X133598264Y-74046928D01*
X133595500Y-74018860D01*
X133595500Y-73555140D01*
X133598264Y-73527072D01*
X133604660Y-73505991D01*
X133615048Y-73486555D01*
X133629024Y-73469524D01*
X133646055Y-73455548D01*
X133665491Y-73445160D01*
X133686572Y-73438764D01*
X133714640Y-73436000D01*
X135528360Y-73436000D01*
X135556428Y-73438764D01*
G37*
G36*
X140506428Y-73438764D02*
G01*
X140527509Y-73445160D01*
X140546945Y-73455548D01*
X140563976Y-73469524D01*
X140577952Y-73486555D01*
X140588340Y-73505991D01*
X140594736Y-73527072D01*
X140597500Y-73555140D01*
X140597500Y-74018860D01*
X140594736Y-74046928D01*
X140588340Y-74068009D01*
X140577952Y-74087445D01*
X140563976Y-74104476D01*
X140546945Y-74118452D01*
X140527509Y-74128840D01*
X140506428Y-74135236D01*
X140478360Y-74138000D01*
X138664640Y-74138000D01*
X138636572Y-74135236D01*
X138615491Y-74128840D01*
X138596055Y-74118452D01*
X138579024Y-74104476D01*
X138565048Y-74087445D01*
X138554660Y-74068009D01*
X138548264Y-74046928D01*
X138545500Y-74018860D01*
X138545500Y-73555140D01*
X138548264Y-73527072D01*
X138554660Y-73505991D01*
X138565048Y-73486555D01*
X138579024Y-73469524D01*
X138596055Y-73455548D01*
X138615491Y-73445160D01*
X138636572Y-73438764D01*
X138664640Y-73436000D01*
X140478360Y-73436000D01*
X140506428Y-73438764D01*
G37*
G36*
X141642997Y-73216476D02*
G01*
X141661274Y-73222020D01*
X141678108Y-73231018D01*
X141692868Y-73243132D01*
X141704982Y-73257892D01*
X141713980Y-73274726D01*
X141719524Y-73293003D01*
X141722000Y-73318140D01*
X141722000Y-73751860D01*
X141719524Y-73776997D01*
X141713980Y-73795274D01*
X141704982Y-73812108D01*
X141692868Y-73826868D01*
X141678108Y-73838982D01*
X141661274Y-73847980D01*
X141642997Y-73853524D01*
X141617860Y-73856000D01*
X141084140Y-73856000D01*
X141059003Y-73853524D01*
X141040726Y-73847980D01*
X141023892Y-73838982D01*
X141009132Y-73826868D01*
X140997018Y-73812108D01*
X140988020Y-73795274D01*
X140982476Y-73776997D01*
X140980000Y-73751860D01*
X140980000Y-73318140D01*
X140982476Y-73293003D01*
X140988020Y-73274726D01*
X140997018Y-73257892D01*
X141009132Y-73243132D01*
X141023892Y-73231018D01*
X141040726Y-73222020D01*
X141059003Y-73216476D01*
X141084140Y-73214000D01*
X141617860Y-73214000D01*
X141642997Y-73216476D01*
G37*
G36*
X140506428Y-72168764D02*
G01*
X140527509Y-72175160D01*
X140546945Y-72185548D01*
X140563976Y-72199524D01*
X140577952Y-72216555D01*
X140588340Y-72235991D01*
X140594736Y-72257072D01*
X140597500Y-72285140D01*
X140597500Y-72748860D01*
X140594736Y-72776928D01*
X140588340Y-72798009D01*
X140577952Y-72817445D01*
X140563976Y-72834476D01*
X140546945Y-72848452D01*
X140527509Y-72858840D01*
X140506428Y-72865236D01*
X140478360Y-72868000D01*
X138664640Y-72868000D01*
X138636572Y-72865236D01*
X138615491Y-72858840D01*
X138596055Y-72848452D01*
X138579024Y-72834476D01*
X138565048Y-72817445D01*
X138554660Y-72798009D01*
X138548264Y-72776928D01*
X138545500Y-72748860D01*
X138545500Y-72285140D01*
X138548264Y-72257072D01*
X138554660Y-72235991D01*
X138565048Y-72216555D01*
X138579024Y-72199524D01*
X138596055Y-72185548D01*
X138615491Y-72175160D01*
X138636572Y-72168764D01*
X138664640Y-72166000D01*
X140478360Y-72166000D01*
X140506428Y-72168764D01*
G37*
G36*
X135556428Y-72168764D02*
G01*
X135577509Y-72175160D01*
X135596945Y-72185548D01*
X135613976Y-72199524D01*
X135627952Y-72216555D01*
X135638340Y-72235991D01*
X135644736Y-72257072D01*
X135647500Y-72285140D01*
X135647500Y-72748860D01*
X135644736Y-72776928D01*
X135638340Y-72798009D01*
X135627952Y-72817445D01*
X135613976Y-72834476D01*
X135596945Y-72848452D01*
X135577509Y-72858840D01*
X135556428Y-72865236D01*
X135528360Y-72868000D01*
X133714640Y-72868000D01*
X133686572Y-72865236D01*
X133665491Y-72858840D01*
X133646055Y-72848452D01*
X133629024Y-72834476D01*
X133615048Y-72817445D01*
X133604660Y-72798009D01*
X133598264Y-72776928D01*
X133595500Y-72748860D01*
X133595500Y-72285140D01*
X133598264Y-72257072D01*
X133604660Y-72235991D01*
X133615048Y-72216555D01*
X133629024Y-72199524D01*
X133646055Y-72185548D01*
X133665491Y-72175160D01*
X133686572Y-72168764D01*
X133714640Y-72166000D01*
X135528360Y-72166000D01*
X135556428Y-72168764D01*
G37*
G36*
X141642997Y-72196476D02*
G01*
X141661274Y-72202020D01*
X141678108Y-72211018D01*
X141692868Y-72223132D01*
X141704982Y-72237892D01*
X141713980Y-72254726D01*
X141719524Y-72273003D01*
X141722000Y-72298140D01*
X141722000Y-72731860D01*
X141719524Y-72756997D01*
X141713980Y-72775274D01*
X141704982Y-72792108D01*
X141692868Y-72806868D01*
X141678108Y-72818982D01*
X141661274Y-72827980D01*
X141642997Y-72833524D01*
X141617860Y-72836000D01*
X141084140Y-72836000D01*
X141059003Y-72833524D01*
X141040726Y-72827980D01*
X141023892Y-72818982D01*
X141009132Y-72806868D01*
X140997018Y-72792108D01*
X140988020Y-72775274D01*
X140982476Y-72756997D01*
X140980000Y-72731860D01*
X140980000Y-72298140D01*
X140982476Y-72273003D01*
X140988020Y-72254726D01*
X140997018Y-72237892D01*
X141009132Y-72223132D01*
X141023892Y-72211018D01*
X141040726Y-72202020D01*
X141059003Y-72196476D01*
X141084140Y-72194000D01*
X141617860Y-72194000D01*
X141642997Y-72196476D01*
G37*
G36*
X132165476Y-71904572D02*
G01*
X132184681Y-71910398D01*
X132202393Y-71919865D01*
X132217905Y-71932595D01*
X132230635Y-71948107D01*
X132240102Y-71965819D01*
X132245928Y-71985024D01*
X132248500Y-72011140D01*
X132248500Y-72514860D01*
X132245928Y-72540976D01*
X132240102Y-72560181D01*
X132230635Y-72577893D01*
X132217905Y-72593405D01*
X132202393Y-72606135D01*
X132184681Y-72615602D01*
X132165476Y-72621428D01*
X132139360Y-72624000D01*
X131695640Y-72624000D01*
X131669524Y-72621428D01*
X131650319Y-72615602D01*
X131632607Y-72606135D01*
X131617095Y-72593405D01*
X131604365Y-72577893D01*
X131594898Y-72560181D01*
X131589072Y-72540976D01*
X131586500Y-72514860D01*
X131586500Y-72011140D01*
X131589072Y-71985024D01*
X131594898Y-71965819D01*
X131604365Y-71948107D01*
X131617095Y-71932595D01*
X131632607Y-71919865D01*
X131650319Y-71910398D01*
X131669524Y-71904572D01*
X131695640Y-71902000D01*
X132139360Y-71902000D01*
X132165476Y-71904572D01*
G37*
G36*
X133125476Y-71904572D02*
G01*
X133144681Y-71910398D01*
X133162393Y-71919865D01*
X133177905Y-71932595D01*
X133190635Y-71948107D01*
X133200102Y-71965819D01*
X133205928Y-71985024D01*
X133208500Y-72011140D01*
X133208500Y-72514860D01*
X133205928Y-72540976D01*
X133200102Y-72560181D01*
X133190635Y-72577893D01*
X133177905Y-72593405D01*
X133162393Y-72606135D01*
X133144681Y-72615602D01*
X133125476Y-72621428D01*
X133099360Y-72624000D01*
X132655640Y-72624000D01*
X132629524Y-72621428D01*
X132610319Y-72615602D01*
X132592607Y-72606135D01*
X132577095Y-72593405D01*
X132564365Y-72577893D01*
X132554898Y-72560181D01*
X132549072Y-72540976D01*
X132546500Y-72514860D01*
X132546500Y-72011140D01*
X132549072Y-71985024D01*
X132554898Y-71965819D01*
X132564365Y-71948107D01*
X132577095Y-71932595D01*
X132592607Y-71919865D01*
X132610319Y-71910398D01*
X132629524Y-71904572D01*
X132655640Y-71902000D01*
X133099360Y-71902000D01*
X133125476Y-71904572D01*
G37*
G36*
X146690928Y-70412764D02*
G01*
X146712009Y-70419160D01*
X146731445Y-70429548D01*
X146748476Y-70443524D01*
X146762452Y-70460555D01*
X146772840Y-70479991D01*
X146779236Y-70501072D01*
X146782000Y-70529140D01*
X146782000Y-72342860D01*
X146779236Y-72370928D01*
X146772840Y-72392009D01*
X146762452Y-72411445D01*
X146748476Y-72428476D01*
X146731445Y-72442452D01*
X146712009Y-72452840D01*
X146690928Y-72459236D01*
X146662860Y-72462000D01*
X146199140Y-72462000D01*
X146171072Y-72459236D01*
X146149991Y-72452840D01*
X146130555Y-72442452D01*
X146113524Y-72428476D01*
X146099548Y-72411445D01*
X146089160Y-72392009D01*
X146082764Y-72370928D01*
X146080000Y-72342860D01*
X146080000Y-70529140D01*
X146082764Y-70501072D01*
X146089160Y-70479991D01*
X146099548Y-70460555D01*
X146113524Y-70443524D01*
X146130555Y-70429548D01*
X146149991Y-70419160D01*
X146171072Y-70412764D01*
X146199140Y-70410000D01*
X146662860Y-70410000D01*
X146690928Y-70412764D01*
G37*
G36*
X145420928Y-70412764D02*
G01*
X145442009Y-70419160D01*
X145461445Y-70429548D01*
X145478476Y-70443524D01*
X145492452Y-70460555D01*
X145502840Y-70479991D01*
X145509236Y-70501072D01*
X145512000Y-70529140D01*
X145512000Y-72342860D01*
X145509236Y-72370928D01*
X145502840Y-72392009D01*
X145492452Y-72411445D01*
X145478476Y-72428476D01*
X145461445Y-72442452D01*
X145442009Y-72452840D01*
X145420928Y-72459236D01*
X145392860Y-72462000D01*
X144929140Y-72462000D01*
X144901072Y-72459236D01*
X144879991Y-72452840D01*
X144860555Y-72442452D01*
X144843524Y-72428476D01*
X144829548Y-72411445D01*
X144819160Y-72392009D01*
X144812764Y-72370928D01*
X144810000Y-72342860D01*
X144810000Y-70529140D01*
X144812764Y-70501072D01*
X144819160Y-70479991D01*
X144829548Y-70460555D01*
X144843524Y-70443524D01*
X144860555Y-70429548D01*
X144879991Y-70419160D01*
X144901072Y-70412764D01*
X144929140Y-70410000D01*
X145392860Y-70410000D01*
X145420928Y-70412764D01*
G37*
G36*
X149230928Y-70412764D02*
G01*
X149252009Y-70419160D01*
X149271445Y-70429548D01*
X149288476Y-70443524D01*
X149302452Y-70460555D01*
X149312840Y-70479991D01*
X149319236Y-70501072D01*
X149322000Y-70529140D01*
X149322000Y-72342860D01*
X149319236Y-72370928D01*
X149312840Y-72392009D01*
X149302452Y-72411445D01*
X149288476Y-72428476D01*
X149271445Y-72442452D01*
X149252009Y-72452840D01*
X149230928Y-72459236D01*
X149202860Y-72462000D01*
X148739140Y-72462000D01*
X148711072Y-72459236D01*
X148689991Y-72452840D01*
X148670555Y-72442452D01*
X148653524Y-72428476D01*
X148639548Y-72411445D01*
X148629160Y-72392009D01*
X148622764Y-72370928D01*
X148620000Y-72342860D01*
X148620000Y-70529140D01*
X148622764Y-70501072D01*
X148629160Y-70479991D01*
X148639548Y-70460555D01*
X148653524Y-70443524D01*
X148670555Y-70429548D01*
X148689991Y-70419160D01*
X148711072Y-70412764D01*
X148739140Y-70410000D01*
X149202860Y-70410000D01*
X149230928Y-70412764D01*
G37*
G36*
X147960928Y-70412764D02*
G01*
X147982009Y-70419160D01*
X148001445Y-70429548D01*
X148018476Y-70443524D01*
X148032452Y-70460555D01*
X148042840Y-70479991D01*
X148049236Y-70501072D01*
X148052000Y-70529140D01*
X148052000Y-72342860D01*
X148049236Y-72370928D01*
X148042840Y-72392009D01*
X148032452Y-72411445D01*
X148018476Y-72428476D01*
X148001445Y-72442452D01*
X147982009Y-72452840D01*
X147960928Y-72459236D01*
X147932860Y-72462000D01*
X147469140Y-72462000D01*
X147441072Y-72459236D01*
X147419991Y-72452840D01*
X147400555Y-72442452D01*
X147383524Y-72428476D01*
X147369548Y-72411445D01*
X147359160Y-72392009D01*
X147352764Y-72370928D01*
X147350000Y-72342860D01*
X147350000Y-70529140D01*
X147352764Y-70501072D01*
X147359160Y-70479991D01*
X147369548Y-70460555D01*
X147383524Y-70443524D01*
X147400555Y-70429548D01*
X147419991Y-70419160D01*
X147441072Y-70412764D01*
X147469140Y-70410000D01*
X147932860Y-70410000D01*
X147960928Y-70412764D01*
G37*
G36*
X135556428Y-70898764D02*
G01*
X135577509Y-70905160D01*
X135596945Y-70915548D01*
X135613976Y-70929524D01*
X135627952Y-70946555D01*
X135638340Y-70965991D01*
X135644736Y-70987072D01*
X135647500Y-71015140D01*
X135647500Y-71478860D01*
X135644736Y-71506928D01*
X135638340Y-71528009D01*
X135627952Y-71547445D01*
X135613976Y-71564476D01*
X135596945Y-71578452D01*
X135577509Y-71588840D01*
X135556428Y-71595236D01*
X135528360Y-71598000D01*
X133714640Y-71598000D01*
X133686572Y-71595236D01*
X133665491Y-71588840D01*
X133646055Y-71578452D01*
X133629024Y-71564476D01*
X133615048Y-71547445D01*
X133604660Y-71528009D01*
X133598264Y-71506928D01*
X133595500Y-71478860D01*
X133595500Y-71015140D01*
X133598264Y-70987072D01*
X133604660Y-70965991D01*
X133615048Y-70946555D01*
X133629024Y-70929524D01*
X133646055Y-70915548D01*
X133665491Y-70905160D01*
X133686572Y-70898764D01*
X133714640Y-70896000D01*
X135528360Y-70896000D01*
X135556428Y-70898764D01*
G37*
G36*
X140506428Y-70898764D02*
G01*
X140527509Y-70905160D01*
X140546945Y-70915548D01*
X140563976Y-70929524D01*
X140577952Y-70946555D01*
X140588340Y-70965991D01*
X140594736Y-70987072D01*
X140597500Y-71015140D01*
X140597500Y-71478860D01*
X140594736Y-71506928D01*
X140588340Y-71528009D01*
X140577952Y-71547445D01*
X140563976Y-71564476D01*
X140546945Y-71578452D01*
X140527509Y-71588840D01*
X140506428Y-71595236D01*
X140478360Y-71598000D01*
X138664640Y-71598000D01*
X138636572Y-71595236D01*
X138615491Y-71588840D01*
X138596055Y-71578452D01*
X138579024Y-71564476D01*
X138565048Y-71547445D01*
X138554660Y-71528009D01*
X138548264Y-71506928D01*
X138545500Y-71478860D01*
X138545500Y-71015140D01*
X138548264Y-70987072D01*
X138554660Y-70965991D01*
X138565048Y-70946555D01*
X138579024Y-70929524D01*
X138596055Y-70915548D01*
X138615491Y-70905160D01*
X138636572Y-70898764D01*
X138664640Y-70896000D01*
X140478360Y-70896000D01*
X140506428Y-70898764D01*
G37*
G36*
X141628976Y-70890572D02*
G01*
X141648181Y-70896398D01*
X141665893Y-70905865D01*
X141681405Y-70918595D01*
X141694135Y-70934107D01*
X141703602Y-70951819D01*
X141709428Y-70971024D01*
X141712000Y-70997140D01*
X141712000Y-71440860D01*
X141709428Y-71466976D01*
X141703602Y-71486181D01*
X141694135Y-71503893D01*
X141681405Y-71519405D01*
X141665893Y-71532135D01*
X141648181Y-71541602D01*
X141628976Y-71547428D01*
X141602860Y-71550000D01*
X141099140Y-71550000D01*
X141073024Y-71547428D01*
X141053819Y-71541602D01*
X141036107Y-71532135D01*
X141020595Y-71519405D01*
X141007865Y-71503893D01*
X140998398Y-71486181D01*
X140992572Y-71466976D01*
X140990000Y-71440860D01*
X140990000Y-70997140D01*
X140992572Y-70971024D01*
X140998398Y-70951819D01*
X141007865Y-70934107D01*
X141020595Y-70918595D01*
X141036107Y-70905865D01*
X141053819Y-70896398D01*
X141073024Y-70890572D01*
X141099140Y-70888000D01*
X141602860Y-70888000D01*
X141628976Y-70890572D01*
G37*
G36*
X133125476Y-70380572D02*
G01*
X133144681Y-70386398D01*
X133162393Y-70395865D01*
X133177905Y-70408595D01*
X133190635Y-70424107D01*
X133200102Y-70441819D01*
X133205928Y-70461024D01*
X133208500Y-70487140D01*
X133208500Y-70990860D01*
X133205928Y-71016976D01*
X133200102Y-71036181D01*
X133190635Y-71053893D01*
X133177905Y-71069405D01*
X133162393Y-71082135D01*
X133144681Y-71091602D01*
X133125476Y-71097428D01*
X133099360Y-71100000D01*
X132655640Y-71100000D01*
X132629524Y-71097428D01*
X132610319Y-71091602D01*
X132592607Y-71082135D01*
X132577095Y-71069405D01*
X132564365Y-71053893D01*
X132554898Y-71036181D01*
X132549072Y-71016976D01*
X132546500Y-70990860D01*
X132546500Y-70487140D01*
X132549072Y-70461024D01*
X132554898Y-70441819D01*
X132564365Y-70424107D01*
X132577095Y-70408595D01*
X132592607Y-70395865D01*
X132610319Y-70386398D01*
X132629524Y-70380572D01*
X132655640Y-70378000D01*
X133099360Y-70378000D01*
X133125476Y-70380572D01*
G37*
G36*
X132165476Y-70380572D02*
G01*
X132184681Y-70386398D01*
X132202393Y-70395865D01*
X132217905Y-70408595D01*
X132230635Y-70424107D01*
X132240102Y-70441819D01*
X132245928Y-70461024D01*
X132248500Y-70487140D01*
X132248500Y-70990860D01*
X132245928Y-71016976D01*
X132240102Y-71036181D01*
X132230635Y-71053893D01*
X132217905Y-71069405D01*
X132202393Y-71082135D01*
X132184681Y-71091602D01*
X132165476Y-71097428D01*
X132139360Y-71100000D01*
X131695640Y-71100000D01*
X131669524Y-71097428D01*
X131650319Y-71091602D01*
X131632607Y-71082135D01*
X131617095Y-71069405D01*
X131604365Y-71053893D01*
X131594898Y-71036181D01*
X131589072Y-71016976D01*
X131586500Y-70990860D01*
X131586500Y-70487140D01*
X131589072Y-70461024D01*
X131594898Y-70441819D01*
X131604365Y-70424107D01*
X131617095Y-70408595D01*
X131632607Y-70395865D01*
X131650319Y-70386398D01*
X131669524Y-70380572D01*
X131695640Y-70378000D01*
X132139360Y-70378000D01*
X132165476Y-70380572D01*
G37*
G36*
X141628976Y-69930572D02*
G01*
X141648181Y-69936398D01*
X141665893Y-69945865D01*
X141681405Y-69958595D01*
X141694135Y-69974107D01*
X141703602Y-69991819D01*
X141709428Y-70011024D01*
X141712000Y-70037140D01*
X141712000Y-70480860D01*
X141709428Y-70506976D01*
X141703602Y-70526181D01*
X141694135Y-70543893D01*
X141681405Y-70559405D01*
X141665893Y-70572135D01*
X141648181Y-70581602D01*
X141628976Y-70587428D01*
X141602860Y-70590000D01*
X141099140Y-70590000D01*
X141073024Y-70587428D01*
X141053819Y-70581602D01*
X141036107Y-70572135D01*
X141020595Y-70559405D01*
X141007865Y-70543893D01*
X140998398Y-70526181D01*
X140992572Y-70506976D01*
X140990000Y-70480860D01*
X140990000Y-70037140D01*
X140992572Y-70011024D01*
X140998398Y-69991819D01*
X141007865Y-69974107D01*
X141020595Y-69958595D01*
X141036107Y-69945865D01*
X141053819Y-69936398D01*
X141073024Y-69930572D01*
X141099140Y-69928000D01*
X141602860Y-69928000D01*
X141628976Y-69930572D01*
G37*
G36*
X134429700Y-69596200D02*
G01*
X133845100Y-69596200D01*
X133845100Y-68097200D01*
X134429700Y-68097200D01*
X134429700Y-69596200D01*
G37*
G36*
X135966400Y-69596200D02*
G01*
X135305600Y-69596200D01*
X135305600Y-68097200D01*
X135966400Y-68097200D01*
X135966400Y-69596200D01*
G37*
G36*
X137426900Y-69596200D02*
G01*
X136842300Y-69596200D01*
X136842300Y-68097200D01*
X137426900Y-68097200D01*
X137426900Y-69596200D01*
G37*
G36*
X140812434Y-67713686D02*
G01*
X140852284Y-67725774D01*
X140888999Y-67745399D01*
X140921186Y-67771814D01*
X140947601Y-67804001D01*
X140967226Y-67840716D01*
X140979314Y-67880566D01*
X140984000Y-67928141D01*
X140984000Y-68591859D01*
X140979314Y-68639434D01*
X140967226Y-68679284D01*
X140947601Y-68715999D01*
X140921186Y-68748186D01*
X140888999Y-68774601D01*
X140852284Y-68794226D01*
X140812434Y-68806314D01*
X140764859Y-68811000D01*
X139651141Y-68811000D01*
X139603566Y-68806314D01*
X139563716Y-68794226D01*
X139527001Y-68774601D01*
X139494814Y-68748186D01*
X139468399Y-68715999D01*
X139448774Y-68679284D01*
X139436686Y-68639434D01*
X139432000Y-68591859D01*
X139432000Y-67928141D01*
X139436686Y-67880566D01*
X139448774Y-67840716D01*
X139468399Y-67804001D01*
X139494814Y-67771814D01*
X139527001Y-67745399D01*
X139563716Y-67725774D01*
X139603566Y-67713686D01*
X139651141Y-67709000D01*
X140764859Y-67709000D01*
X140812434Y-67713686D01*
G37*
G36*
X132430434Y-67713686D02*
G01*
X132470284Y-67725774D01*
X132506999Y-67745399D01*
X132539186Y-67771814D01*
X132565601Y-67804001D01*
X132585226Y-67840716D01*
X132597314Y-67880566D01*
X132602000Y-67928141D01*
X132602000Y-68591859D01*
X132597314Y-68639434D01*
X132585226Y-68679284D01*
X132565601Y-68715999D01*
X132539186Y-68748186D01*
X132506999Y-68774601D01*
X132470284Y-68794226D01*
X132430434Y-68806314D01*
X132382859Y-68811000D01*
X131269141Y-68811000D01*
X131221566Y-68806314D01*
X131181716Y-68794226D01*
X131145001Y-68774601D01*
X131112814Y-68748186D01*
X131086399Y-68715999D01*
X131066774Y-68679284D01*
X131054686Y-68639434D01*
X131050000Y-68591859D01*
X131050000Y-67928141D01*
X131054686Y-67880566D01*
X131066774Y-67840716D01*
X131086399Y-67804001D01*
X131112814Y-67771814D01*
X131145001Y-67745399D01*
X131181716Y-67725774D01*
X131221566Y-67713686D01*
X131269141Y-67709000D01*
X132382859Y-67709000D01*
X132430434Y-67713686D01*
G37*
G36*
X144041976Y-67461572D02*
G01*
X144061181Y-67467398D01*
X144078893Y-67476865D01*
X144094405Y-67489595D01*
X144107135Y-67505107D01*
X144116602Y-67522819D01*
X144122428Y-67542024D01*
X144125000Y-67568140D01*
X144125000Y-68011860D01*
X144122428Y-68037976D01*
X144116602Y-68057181D01*
X144107135Y-68074893D01*
X144094405Y-68090405D01*
X144078893Y-68103135D01*
X144061181Y-68112602D01*
X144041976Y-68118428D01*
X144015860Y-68121000D01*
X143512140Y-68121000D01*
X143486024Y-68118428D01*
X143466819Y-68112602D01*
X143449107Y-68103135D01*
X143433595Y-68090405D01*
X143420865Y-68074893D01*
X143411398Y-68057181D01*
X143405572Y-68037976D01*
X143403000Y-68011860D01*
X143403000Y-67568140D01*
X143405572Y-67542024D01*
X143411398Y-67522819D01*
X143420865Y-67505107D01*
X143433595Y-67489595D01*
X143449107Y-67476865D01*
X143466819Y-67467398D01*
X143486024Y-67461572D01*
X143512140Y-67459000D01*
X144015860Y-67459000D01*
X144041976Y-67461572D01*
G37*
G36*
X147960928Y-65462764D02*
G01*
X147982009Y-65469160D01*
X148001445Y-65479548D01*
X148018476Y-65493524D01*
X148032452Y-65510555D01*
X148042840Y-65529991D01*
X148049236Y-65551072D01*
X148052000Y-65579140D01*
X148052000Y-67392860D01*
X148049236Y-67420928D01*
X148042840Y-67442009D01*
X148032452Y-67461445D01*
X148018476Y-67478476D01*
X148001445Y-67492452D01*
X147982009Y-67502840D01*
X147960928Y-67509236D01*
X147932860Y-67512000D01*
X147469140Y-67512000D01*
X147441072Y-67509236D01*
X147419991Y-67502840D01*
X147400555Y-67492452D01*
X147383524Y-67478476D01*
X147369548Y-67461445D01*
X147359160Y-67442009D01*
X147352764Y-67420928D01*
X147350000Y-67392860D01*
X147350000Y-65579140D01*
X147352764Y-65551072D01*
X147359160Y-65529991D01*
X147369548Y-65510555D01*
X147383524Y-65493524D01*
X147400555Y-65479548D01*
X147419991Y-65469160D01*
X147441072Y-65462764D01*
X147469140Y-65460000D01*
X147932860Y-65460000D01*
X147960928Y-65462764D01*
G37*
G36*
X146690928Y-65462764D02*
G01*
X146712009Y-65469160D01*
X146731445Y-65479548D01*
X146748476Y-65493524D01*
X146762452Y-65510555D01*
X146772840Y-65529991D01*
X146779236Y-65551072D01*
X146782000Y-65579140D01*
X146782000Y-67392860D01*
X146779236Y-67420928D01*
X146772840Y-67442009D01*
X146762452Y-67461445D01*
X146748476Y-67478476D01*
X146731445Y-67492452D01*
X146712009Y-67502840D01*
X146690928Y-67509236D01*
X146662860Y-67512000D01*
X146199140Y-67512000D01*
X146171072Y-67509236D01*
X146149991Y-67502840D01*
X146130555Y-67492452D01*
X146113524Y-67478476D01*
X146099548Y-67461445D01*
X146089160Y-67442009D01*
X146082764Y-67420928D01*
X146080000Y-67392860D01*
X146080000Y-65579140D01*
X146082764Y-65551072D01*
X146089160Y-65529991D01*
X146099548Y-65510555D01*
X146113524Y-65493524D01*
X146130555Y-65479548D01*
X146149991Y-65469160D01*
X146171072Y-65462764D01*
X146199140Y-65460000D01*
X146662860Y-65460000D01*
X146690928Y-65462764D01*
G37*
G36*
X149230928Y-65462764D02*
G01*
X149252009Y-65469160D01*
X149271445Y-65479548D01*
X149288476Y-65493524D01*
X149302452Y-65510555D01*
X149312840Y-65529991D01*
X149319236Y-65551072D01*
X149322000Y-65579140D01*
X149322000Y-67392860D01*
X149319236Y-67420928D01*
X149312840Y-67442009D01*
X149302452Y-67461445D01*
X149288476Y-67478476D01*
X149271445Y-67492452D01*
X149252009Y-67502840D01*
X149230928Y-67509236D01*
X149202860Y-67512000D01*
X148739140Y-67512000D01*
X148711072Y-67509236D01*
X148689991Y-67502840D01*
X148670555Y-67492452D01*
X148653524Y-67478476D01*
X148639548Y-67461445D01*
X148629160Y-67442009D01*
X148622764Y-67420928D01*
X148620000Y-67392860D01*
X148620000Y-65579140D01*
X148622764Y-65551072D01*
X148629160Y-65529991D01*
X148639548Y-65510555D01*
X148653524Y-65493524D01*
X148670555Y-65479548D01*
X148689991Y-65469160D01*
X148711072Y-65462764D01*
X148739140Y-65460000D01*
X149202860Y-65460000D01*
X149230928Y-65462764D01*
G37*
G36*
X145420928Y-65462764D02*
G01*
X145442009Y-65469160D01*
X145461445Y-65479548D01*
X145478476Y-65493524D01*
X145492452Y-65510555D01*
X145502840Y-65529991D01*
X145509236Y-65551072D01*
X145512000Y-65579140D01*
X145512000Y-67392860D01*
X145509236Y-67420928D01*
X145502840Y-67442009D01*
X145492452Y-67461445D01*
X145478476Y-67478476D01*
X145461445Y-67492452D01*
X145442009Y-67502840D01*
X145420928Y-67509236D01*
X145392860Y-67512000D01*
X144929140Y-67512000D01*
X144901072Y-67509236D01*
X144879991Y-67502840D01*
X144860555Y-67492452D01*
X144843524Y-67478476D01*
X144829548Y-67461445D01*
X144819160Y-67442009D01*
X144812764Y-67420928D01*
X144810000Y-67392860D01*
X144810000Y-65579140D01*
X144812764Y-65551072D01*
X144819160Y-65529991D01*
X144829548Y-65510555D01*
X144843524Y-65493524D01*
X144860555Y-65479548D01*
X144879991Y-65469160D01*
X144901072Y-65462764D01*
X144929140Y-65460000D01*
X145392860Y-65460000D01*
X145420928Y-65462764D01*
G37*
G36*
X144041976Y-66501572D02*
G01*
X144061181Y-66507398D01*
X144078893Y-66516865D01*
X144094405Y-66529595D01*
X144107135Y-66545107D01*
X144116602Y-66562819D01*
X144122428Y-66582024D01*
X144125000Y-66608140D01*
X144125000Y-67051860D01*
X144122428Y-67077976D01*
X144116602Y-67097181D01*
X144107135Y-67114893D01*
X144094405Y-67130405D01*
X144078893Y-67143135D01*
X144061181Y-67152602D01*
X144041976Y-67158428D01*
X144015860Y-67161000D01*
X143512140Y-67161000D01*
X143486024Y-67158428D01*
X143466819Y-67152602D01*
X143449107Y-67143135D01*
X143433595Y-67130405D01*
X143420865Y-67114893D01*
X143411398Y-67097181D01*
X143405572Y-67077976D01*
X143403000Y-67051860D01*
X143403000Y-66608140D01*
X143405572Y-66582024D01*
X143411398Y-66562819D01*
X143420865Y-66545107D01*
X143433595Y-66529595D01*
X143449107Y-66516865D01*
X143466819Y-66507398D01*
X143486024Y-66501572D01*
X143512140Y-66499000D01*
X144015860Y-66499000D01*
X144041976Y-66501572D01*
G37*
G36*
X140812434Y-65813686D02*
G01*
X140852284Y-65825774D01*
X140888999Y-65845399D01*
X140921186Y-65871814D01*
X140947601Y-65904001D01*
X140967226Y-65940716D01*
X140979314Y-65980566D01*
X140984000Y-66028141D01*
X140984000Y-66691859D01*
X140979314Y-66739434D01*
X140967226Y-66779284D01*
X140947601Y-66815999D01*
X140921186Y-66848186D01*
X140888999Y-66874601D01*
X140852284Y-66894226D01*
X140812434Y-66906314D01*
X140764859Y-66911000D01*
X139651141Y-66911000D01*
X139603566Y-66906314D01*
X139563716Y-66894226D01*
X139527001Y-66874601D01*
X139494814Y-66848186D01*
X139468399Y-66815999D01*
X139448774Y-66779284D01*
X139436686Y-66739434D01*
X139432000Y-66691859D01*
X139432000Y-66028141D01*
X139436686Y-65980566D01*
X139448774Y-65940716D01*
X139468399Y-65904001D01*
X139494814Y-65871814D01*
X139527001Y-65845399D01*
X139563716Y-65825774D01*
X139603566Y-65813686D01*
X139651141Y-65809000D01*
X140764859Y-65809000D01*
X140812434Y-65813686D01*
G37*
G36*
X132430434Y-65813686D02*
G01*
X132470284Y-65825774D01*
X132506999Y-65845399D01*
X132539186Y-65871814D01*
X132565601Y-65904001D01*
X132585226Y-65940716D01*
X132597314Y-65980566D01*
X132602000Y-66028141D01*
X132602000Y-66691859D01*
X132597314Y-66739434D01*
X132585226Y-66779284D01*
X132565601Y-66815999D01*
X132539186Y-66848186D01*
X132506999Y-66874601D01*
X132470284Y-66894226D01*
X132430434Y-66906314D01*
X132382859Y-66911000D01*
X131269141Y-66911000D01*
X131221566Y-66906314D01*
X131181716Y-66894226D01*
X131145001Y-66874601D01*
X131112814Y-66848186D01*
X131086399Y-66815999D01*
X131066774Y-66779284D01*
X131054686Y-66739434D01*
X131050000Y-66691859D01*
X131050000Y-66028141D01*
X131054686Y-65980566D01*
X131066774Y-65940716D01*
X131086399Y-65904001D01*
X131112814Y-65871814D01*
X131145001Y-65845399D01*
X131181716Y-65825774D01*
X131221566Y-65813686D01*
X131269141Y-65809000D01*
X132382859Y-65809000D01*
X132430434Y-65813686D01*
G37*
G36*
X138563604Y-61688347D02*
G01*
X138600144Y-61699432D01*
X138633821Y-61717433D01*
X138663341Y-61741659D01*
X138687567Y-61771179D01*
X138705568Y-61804856D01*
X138716653Y-61841396D01*
X138721000Y-61885538D01*
X138721000Y-62834462D01*
X138716653Y-62878604D01*
X138705568Y-62915144D01*
X138687567Y-62948821D01*
X138663341Y-62978341D01*
X138633821Y-63002567D01*
X138600144Y-63020568D01*
X138563604Y-63031653D01*
X138519462Y-63036000D01*
X137070538Y-63036000D01*
X137026396Y-63031653D01*
X136989856Y-63020568D01*
X136956179Y-63002567D01*
X136926659Y-62978341D01*
X136902433Y-62948821D01*
X136884432Y-62915144D01*
X136873347Y-62878604D01*
X136869000Y-62834462D01*
X136869000Y-61885538D01*
X136873347Y-61841396D01*
X136884432Y-61804856D01*
X136902433Y-61771179D01*
X136926659Y-61741659D01*
X136956179Y-61717433D01*
X136989856Y-61699432D01*
X137026396Y-61688347D01*
X137070538Y-61684000D01*
X138519462Y-61684000D01*
X138563604Y-61688347D01*
G37*
G36*
X143646000Y-62996000D02*
G01*
X142644000Y-62996000D01*
X142644000Y-62094000D01*
X143646000Y-62094000D01*
X143646000Y-62996000D01*
G37*
G36*
X150190468Y-61363565D02*
G01*
X150229138Y-61375296D01*
X150264777Y-61394346D01*
X150296017Y-61419983D01*
X150321654Y-61451223D01*
X150340704Y-61486862D01*
X150352435Y-61525532D01*
X150357000Y-61571888D01*
X150357000Y-62223112D01*
X150352435Y-62269468D01*
X150340704Y-62308138D01*
X150321654Y-62343777D01*
X150296017Y-62375017D01*
X150264777Y-62400654D01*
X150229138Y-62419704D01*
X150190468Y-62431435D01*
X150144112Y-62436000D01*
X149067888Y-62436000D01*
X149021532Y-62431435D01*
X148982862Y-62419704D01*
X148947223Y-62400654D01*
X148915983Y-62375017D01*
X148890346Y-62343777D01*
X148871296Y-62308138D01*
X148859565Y-62269468D01*
X148855000Y-62223112D01*
X148855000Y-61571888D01*
X148859565Y-61525532D01*
X148871296Y-61486862D01*
X148890346Y-61451223D01*
X148915983Y-61419983D01*
X148947223Y-61394346D01*
X148982862Y-61375296D01*
X149021532Y-61363565D01*
X149067888Y-61359000D01*
X150144112Y-61359000D01*
X150190468Y-61363565D01*
G37*
G36*
X147714683Y-61337725D02*
G01*
X147745143Y-61346966D01*
X147773223Y-61361974D01*
X147797831Y-61382169D01*
X147818026Y-61406777D01*
X147833034Y-61434857D01*
X147842275Y-61465317D01*
X147846000Y-61503140D01*
X147846000Y-62066860D01*
X147842275Y-62104683D01*
X147833034Y-62135143D01*
X147818026Y-62163223D01*
X147797831Y-62187831D01*
X147773223Y-62208026D01*
X147745143Y-62223034D01*
X147714683Y-62232275D01*
X147676860Y-62236000D01*
X146963140Y-62236000D01*
X146925317Y-62232275D01*
X146894857Y-62223034D01*
X146866777Y-62208026D01*
X146842169Y-62187831D01*
X146821974Y-62163223D01*
X146806966Y-62135143D01*
X146797725Y-62104683D01*
X146794000Y-62066860D01*
X146794000Y-61503140D01*
X146797725Y-61465317D01*
X146806966Y-61434857D01*
X146821974Y-61406777D01*
X146842169Y-61382169D01*
X146866777Y-61361974D01*
X146894857Y-61346966D01*
X146925317Y-61337725D01*
X146963140Y-61334000D01*
X147676860Y-61334000D01*
X147714683Y-61337725D01*
G37*
G36*
X132410468Y-61109565D02*
G01*
X132449138Y-61121296D01*
X132484777Y-61140346D01*
X132516017Y-61165983D01*
X132541654Y-61197223D01*
X132560704Y-61232862D01*
X132572435Y-61271532D01*
X132577000Y-61317888D01*
X132577000Y-61969112D01*
X132572435Y-62015468D01*
X132560704Y-62054138D01*
X132541654Y-62089777D01*
X132516017Y-62121017D01*
X132484777Y-62146654D01*
X132449138Y-62165704D01*
X132410468Y-62177435D01*
X132364112Y-62182000D01*
X131287888Y-62182000D01*
X131241532Y-62177435D01*
X131202862Y-62165704D01*
X131167223Y-62146654D01*
X131135983Y-62121017D01*
X131110346Y-62089777D01*
X131091296Y-62054138D01*
X131079565Y-62015468D01*
X131075000Y-61969112D01*
X131075000Y-61317888D01*
X131079565Y-61271532D01*
X131091296Y-61232862D01*
X131110346Y-61197223D01*
X131135983Y-61165983D01*
X131167223Y-61140346D01*
X131202862Y-61121296D01*
X131241532Y-61109565D01*
X131287888Y-61105000D01*
X132364112Y-61105000D01*
X132410468Y-61109565D01*
G37*
G36*
X145646000Y-62046000D02*
G01*
X144644000Y-62046000D01*
X144644000Y-61144000D01*
X145646000Y-61144000D01*
X145646000Y-62046000D01*
G37*
G36*
X135014683Y-61083725D02*
G01*
X135045143Y-61092966D01*
X135073223Y-61107974D01*
X135097831Y-61128169D01*
X135118026Y-61152777D01*
X135133034Y-61180857D01*
X135142275Y-61211317D01*
X135146000Y-61249140D01*
X135146000Y-61812860D01*
X135142275Y-61850683D01*
X135133034Y-61881143D01*
X135118026Y-61909223D01*
X135097831Y-61933831D01*
X135073223Y-61954026D01*
X135045143Y-61969034D01*
X135014683Y-61978275D01*
X134976860Y-61982000D01*
X134263140Y-61982000D01*
X134225317Y-61978275D01*
X134194857Y-61969034D01*
X134166777Y-61954026D01*
X134142169Y-61933831D01*
X134121974Y-61909223D01*
X134106966Y-61881143D01*
X134097725Y-61850683D01*
X134094000Y-61812860D01*
X134094000Y-61249140D01*
X134097725Y-61211317D01*
X134106966Y-61180857D01*
X134121974Y-61152777D01*
X134142169Y-61128169D01*
X134166777Y-61107974D01*
X134194857Y-61092966D01*
X134225317Y-61083725D01*
X134263140Y-61080000D01*
X134976860Y-61080000D01*
X135014683Y-61083725D01*
G37*
G36*
X143646000Y-61096000D02*
G01*
X142644000Y-61096000D01*
X142644000Y-60194000D01*
X143646000Y-60194000D01*
X143646000Y-61096000D01*
G37*
G36*
X147714683Y-59687725D02*
G01*
X147745143Y-59696966D01*
X147773223Y-59711974D01*
X147797831Y-59732169D01*
X147818026Y-59756777D01*
X147833034Y-59784857D01*
X147842275Y-59815317D01*
X147846000Y-59853140D01*
X147846000Y-60416860D01*
X147842275Y-60454683D01*
X147833034Y-60485143D01*
X147818026Y-60513223D01*
X147797831Y-60537831D01*
X147773223Y-60558026D01*
X147745143Y-60573034D01*
X147714683Y-60582275D01*
X147676860Y-60586000D01*
X146963140Y-60586000D01*
X146925317Y-60582275D01*
X146894857Y-60573034D01*
X146866777Y-60558026D01*
X146842169Y-60537831D01*
X146821974Y-60513223D01*
X146806966Y-60485143D01*
X146797725Y-60454683D01*
X146794000Y-60416860D01*
X146794000Y-59853140D01*
X146797725Y-59815317D01*
X146806966Y-59784857D01*
X146821974Y-59756777D01*
X146842169Y-59732169D01*
X146866777Y-59711974D01*
X146894857Y-59696966D01*
X146925317Y-59687725D01*
X146963140Y-59684000D01*
X147676860Y-59684000D01*
X147714683Y-59687725D01*
G37*
G36*
X150190468Y-59488565D02*
G01*
X150229138Y-59500296D01*
X150264777Y-59519346D01*
X150296017Y-59544983D01*
X150321654Y-59576223D01*
X150340704Y-59611862D01*
X150352435Y-59650532D01*
X150357000Y-59696888D01*
X150357000Y-60348112D01*
X150352435Y-60394468D01*
X150340704Y-60433138D01*
X150321654Y-60468777D01*
X150296017Y-60500017D01*
X150264777Y-60525654D01*
X150229138Y-60544704D01*
X150190468Y-60556435D01*
X150144112Y-60561000D01*
X149067888Y-60561000D01*
X149021532Y-60556435D01*
X148982862Y-60544704D01*
X148947223Y-60525654D01*
X148915983Y-60500017D01*
X148890346Y-60468777D01*
X148871296Y-60433138D01*
X148859565Y-60394468D01*
X148855000Y-60348112D01*
X148855000Y-59696888D01*
X148859565Y-59650532D01*
X148871296Y-59611862D01*
X148890346Y-59576223D01*
X148915983Y-59544983D01*
X148947223Y-59519346D01*
X148982862Y-59500296D01*
X149021532Y-59488565D01*
X149067888Y-59484000D01*
X150144112Y-59484000D01*
X150190468Y-59488565D01*
G37*
G36*
X135014683Y-59433725D02*
G01*
X135045143Y-59442966D01*
X135073223Y-59457974D01*
X135097831Y-59478169D01*
X135118026Y-59502777D01*
X135133034Y-59530857D01*
X135142275Y-59561317D01*
X135146000Y-59599140D01*
X135146000Y-60162860D01*
X135142275Y-60200683D01*
X135133034Y-60231143D01*
X135118026Y-60259223D01*
X135097831Y-60283831D01*
X135073223Y-60304026D01*
X135045143Y-60319034D01*
X135014683Y-60328275D01*
X134976860Y-60332000D01*
X134263140Y-60332000D01*
X134225317Y-60328275D01*
X134194857Y-60319034D01*
X134166777Y-60304026D01*
X134142169Y-60283831D01*
X134121974Y-60259223D01*
X134106966Y-60231143D01*
X134097725Y-60200683D01*
X134094000Y-60162860D01*
X134094000Y-59599140D01*
X134097725Y-59561317D01*
X134106966Y-59530857D01*
X134121974Y-59502777D01*
X134142169Y-59478169D01*
X134166777Y-59457974D01*
X134194857Y-59442966D01*
X134225317Y-59433725D01*
X134263140Y-59430000D01*
X134976860Y-59430000D01*
X135014683Y-59433725D01*
G37*
G36*
X132410468Y-59234565D02*
G01*
X132449138Y-59246296D01*
X132484777Y-59265346D01*
X132516017Y-59290983D01*
X132541654Y-59322223D01*
X132560704Y-59357862D01*
X132572435Y-59396532D01*
X132577000Y-59442888D01*
X132577000Y-60094112D01*
X132572435Y-60140468D01*
X132560704Y-60179138D01*
X132541654Y-60214777D01*
X132516017Y-60246017D01*
X132484777Y-60271654D01*
X132449138Y-60290704D01*
X132410468Y-60302435D01*
X132364112Y-60307000D01*
X131287888Y-60307000D01*
X131241532Y-60302435D01*
X131202862Y-60290704D01*
X131167223Y-60271654D01*
X131135983Y-60246017D01*
X131110346Y-60214777D01*
X131091296Y-60179138D01*
X131079565Y-60140468D01*
X131075000Y-60094112D01*
X131075000Y-59442888D01*
X131079565Y-59396532D01*
X131091296Y-59357862D01*
X131110346Y-59322223D01*
X131135983Y-59290983D01*
X131167223Y-59265346D01*
X131202862Y-59246296D01*
X131241532Y-59234565D01*
X131287888Y-59230000D01*
X132364112Y-59230000D01*
X132410468Y-59234565D01*
G37*
G36*
X138563604Y-58888347D02*
G01*
X138600144Y-58899432D01*
X138633821Y-58917433D01*
X138663341Y-58941659D01*
X138687567Y-58971179D01*
X138705568Y-59004856D01*
X138716653Y-59041396D01*
X138721000Y-59085538D01*
X138721000Y-60034462D01*
X138716653Y-60078604D01*
X138705568Y-60115144D01*
X138687567Y-60148821D01*
X138663341Y-60178341D01*
X138633821Y-60202567D01*
X138600144Y-60220568D01*
X138563604Y-60231653D01*
X138519462Y-60236000D01*
X137070538Y-60236000D01*
X137026396Y-60231653D01*
X136989856Y-60220568D01*
X136956179Y-60202567D01*
X136926659Y-60178341D01*
X136902433Y-60148821D01*
X136884432Y-60115144D01*
X136873347Y-60078604D01*
X136869000Y-60034462D01*
X136869000Y-59085538D01*
X136873347Y-59041396D01*
X136884432Y-59004856D01*
X136902433Y-58971179D01*
X136926659Y-58941659D01*
X136956179Y-58917433D01*
X136989856Y-58899432D01*
X137026396Y-58888347D01*
X137070538Y-58884000D01*
X138519462Y-58884000D01*
X138563604Y-58888347D01*
G37*
G36*
X144001997Y-58686476D02*
G01*
X144020274Y-58692020D01*
X144037108Y-58701018D01*
X144051868Y-58713132D01*
X144063982Y-58727892D01*
X144072980Y-58744726D01*
X144078524Y-58763003D01*
X144081000Y-58788140D01*
X144081000Y-59321860D01*
X144078524Y-59346997D01*
X144072980Y-59365274D01*
X144063982Y-59382108D01*
X144051868Y-59396868D01*
X144037108Y-59408982D01*
X144020274Y-59417980D01*
X144001997Y-59423524D01*
X143976860Y-59426000D01*
X143543140Y-59426000D01*
X143518003Y-59423524D01*
X143499726Y-59417980D01*
X143482892Y-59408982D01*
X143468132Y-59396868D01*
X143456018Y-59382108D01*
X143447020Y-59365274D01*
X143441476Y-59346997D01*
X143439000Y-59321860D01*
X143439000Y-58788140D01*
X143441476Y-58763003D01*
X143447020Y-58744726D01*
X143456018Y-58727892D01*
X143468132Y-58713132D01*
X143482892Y-58701018D01*
X143499726Y-58692020D01*
X143518003Y-58686476D01*
X143543140Y-58684000D01*
X143976860Y-58684000D01*
X144001997Y-58686476D01*
G37*
G36*
X145021997Y-58686476D02*
G01*
X145040274Y-58692020D01*
X145057108Y-58701018D01*
X145071868Y-58713132D01*
X145083982Y-58727892D01*
X145092980Y-58744726D01*
X145098524Y-58763003D01*
X145101000Y-58788140D01*
X145101000Y-59321860D01*
X145098524Y-59346997D01*
X145092980Y-59365274D01*
X145083982Y-59382108D01*
X145071868Y-59396868D01*
X145057108Y-59408982D01*
X145040274Y-59417980D01*
X145021997Y-59423524D01*
X144996860Y-59426000D01*
X144563140Y-59426000D01*
X144538003Y-59423524D01*
X144519726Y-59417980D01*
X144502892Y-59408982D01*
X144488132Y-59396868D01*
X144476018Y-59382108D01*
X144467020Y-59365274D01*
X144461476Y-59346997D01*
X144459000Y-59321860D01*
X144459000Y-58788140D01*
X144461476Y-58763003D01*
X144467020Y-58744726D01*
X144476018Y-58727892D01*
X144488132Y-58713132D01*
X144502892Y-58701018D01*
X144519726Y-58692020D01*
X144538003Y-58686476D01*
X144563140Y-58684000D01*
X144996860Y-58684000D01*
X145021997Y-58686476D01*
G37*
G36*
X144979806Y-55221324D02*
G01*
X145104467Y-55272960D01*
X145104469Y-55272961D01*
X145216662Y-55347926D01*
X145312074Y-55443338D01*
X145312075Y-55443340D01*
X145387040Y-55555533D01*
X145438676Y-55680194D01*
X145465000Y-55812532D01*
X145465000Y-55947468D01*
X145438676Y-56079806D01*
X145387040Y-56204467D01*
X145387039Y-56204469D01*
X145312074Y-56316662D01*
X145216662Y-56412074D01*
X145104469Y-56487039D01*
X145104468Y-56487040D01*
X145104467Y-56487040D01*
X144979806Y-56538676D01*
X144847468Y-56565000D01*
X144712532Y-56565000D01*
X144580194Y-56538676D01*
X144455533Y-56487040D01*
X144455532Y-56487040D01*
X144455531Y-56487039D01*
X144343338Y-56412074D01*
X144247926Y-56316662D01*
X144172961Y-56204469D01*
X144172960Y-56204467D01*
X144121324Y-56079806D01*
X144095000Y-55947468D01*
X144095000Y-55812532D01*
X144121324Y-55680194D01*
X144172960Y-55555533D01*
X144247925Y-55443340D01*
X144247926Y-55443338D01*
X144343338Y-55347926D01*
X144455531Y-55272961D01*
X144455533Y-55272960D01*
X144580194Y-55221324D01*
X144712532Y-55195000D01*
X144847468Y-55195000D01*
X144979806Y-55221324D01*
G37*
G36*
X142439806Y-55221324D02*
G01*
X142564467Y-55272960D01*
X142564469Y-55272961D01*
X142676662Y-55347926D01*
X142772074Y-55443338D01*
X142772075Y-55443340D01*
X142847040Y-55555533D01*
X142898676Y-55680194D01*
X142925000Y-55812532D01*
X142925000Y-55947468D01*
X142898676Y-56079806D01*
X142847040Y-56204467D01*
X142847039Y-56204469D01*
X142772074Y-56316662D01*
X142676662Y-56412074D01*
X142564469Y-56487039D01*
X142564468Y-56487040D01*
X142564467Y-56487040D01*
X142439806Y-56538676D01*
X142307468Y-56565000D01*
X142172532Y-56565000D01*
X142040194Y-56538676D01*
X141915533Y-56487040D01*
X141915532Y-56487040D01*
X141915531Y-56487039D01*
X141803338Y-56412074D01*
X141707926Y-56316662D01*
X141632961Y-56204469D01*
X141632960Y-56204467D01*
X141581324Y-56079806D01*
X141555000Y-55947468D01*
X141555000Y-55812532D01*
X141581324Y-55680194D01*
X141632960Y-55555533D01*
X141707925Y-55443340D01*
X141707926Y-55443338D01*
X141803338Y-55347926D01*
X141915531Y-55272961D01*
X141915533Y-55272960D01*
X142040194Y-55221324D01*
X142172532Y-55195000D01*
X142307468Y-55195000D01*
X142439806Y-55221324D01*
G37*
G36*
X139899806Y-55221324D02*
G01*
X140024467Y-55272960D01*
X140024469Y-55272961D01*
X140136662Y-55347926D01*
X140232074Y-55443338D01*
X140232075Y-55443340D01*
X140307040Y-55555533D01*
X140358676Y-55680194D01*
X140385000Y-55812532D01*
X140385000Y-55947468D01*
X140358676Y-56079806D01*
X140307040Y-56204467D01*
X140307039Y-56204469D01*
X140232074Y-56316662D01*
X140136662Y-56412074D01*
X140024469Y-56487039D01*
X140024468Y-56487040D01*
X140024467Y-56487040D01*
X139899806Y-56538676D01*
X139767468Y-56565000D01*
X139632532Y-56565000D01*
X139500194Y-56538676D01*
X139375533Y-56487040D01*
X139375532Y-56487040D01*
X139375531Y-56487039D01*
X139263338Y-56412074D01*
X139167926Y-56316662D01*
X139092961Y-56204469D01*
X139092960Y-56204467D01*
X139041324Y-56079806D01*
X139015000Y-55947468D01*
X139015000Y-55812532D01*
X139041324Y-55680194D01*
X139092960Y-55555533D01*
X139167925Y-55443340D01*
X139167926Y-55443338D01*
X139263338Y-55347926D01*
X139375531Y-55272961D01*
X139375533Y-55272960D01*
X139500194Y-55221324D01*
X139632532Y-55195000D01*
X139767468Y-55195000D01*
X139899806Y-55221324D01*
G37*
G36*
X137359806Y-55221324D02*
G01*
X137484467Y-55272960D01*
X137484469Y-55272961D01*
X137596662Y-55347926D01*
X137692074Y-55443338D01*
X137692075Y-55443340D01*
X137767040Y-55555533D01*
X137818676Y-55680194D01*
X137845000Y-55812532D01*
X137845000Y-55947468D01*
X137818676Y-56079806D01*
X137767040Y-56204467D01*
X137767039Y-56204469D01*
X137692074Y-56316662D01*
X137596662Y-56412074D01*
X137484469Y-56487039D01*
X137484468Y-56487040D01*
X137484467Y-56487040D01*
X137359806Y-56538676D01*
X137227468Y-56565000D01*
X137092532Y-56565000D01*
X136960194Y-56538676D01*
X136835533Y-56487040D01*
X136835532Y-56487040D01*
X136835531Y-56487039D01*
X136723338Y-56412074D01*
X136627926Y-56316662D01*
X136552961Y-56204469D01*
X136552960Y-56204467D01*
X136501324Y-56079806D01*
X136475000Y-55947468D01*
X136475000Y-55812532D01*
X136501324Y-55680194D01*
X136552960Y-55555533D01*
X136627925Y-55443340D01*
X136627926Y-55443338D01*
X136723338Y-55347926D01*
X136835531Y-55272961D01*
X136835533Y-55272960D01*
X136960194Y-55221324D01*
X137092532Y-55195000D01*
X137227468Y-55195000D01*
X137359806Y-55221324D01*
G37*
G36*
X141169806Y-52681324D02*
G01*
X141294467Y-52732960D01*
X141294469Y-52732961D01*
X141406662Y-52807926D01*
X141502074Y-52903338D01*
X141502075Y-52903340D01*
X141577040Y-53015533D01*
X141628676Y-53140194D01*
X141655000Y-53272532D01*
X141655000Y-53407468D01*
X141628676Y-53539806D01*
X141577040Y-53664467D01*
X141577039Y-53664469D01*
X141502074Y-53776662D01*
X141406662Y-53872074D01*
X141294469Y-53947039D01*
X141294468Y-53947040D01*
X141294467Y-53947040D01*
X141169806Y-53998676D01*
X141037468Y-54025000D01*
X140902532Y-54025000D01*
X140770194Y-53998676D01*
X140645533Y-53947040D01*
X140645532Y-53947040D01*
X140645531Y-53947039D01*
X140533338Y-53872074D01*
X140437926Y-53776662D01*
X140362961Y-53664469D01*
X140362960Y-53664467D01*
X140311324Y-53539806D01*
X140285000Y-53407468D01*
X140285000Y-53272532D01*
X140311324Y-53140194D01*
X140362960Y-53015533D01*
X140437925Y-52903340D01*
X140437926Y-52903338D01*
X140533338Y-52807926D01*
X140645531Y-52732961D01*
X140645533Y-52732960D01*
X140770194Y-52681324D01*
X140902532Y-52655000D01*
X141037468Y-52655000D01*
X141169806Y-52681324D01*
G37*
G36*
X138629806Y-52681324D02*
G01*
X138754467Y-52732960D01*
X138754469Y-52732961D01*
X138866662Y-52807926D01*
X138962074Y-52903338D01*
X138962075Y-52903340D01*
X139037040Y-53015533D01*
X139088676Y-53140194D01*
X139115000Y-53272532D01*
X139115000Y-53407468D01*
X139088676Y-53539806D01*
X139037040Y-53664467D01*
X139037039Y-53664469D01*
X138962074Y-53776662D01*
X138866662Y-53872074D01*
X138754469Y-53947039D01*
X138754468Y-53947040D01*
X138754467Y-53947040D01*
X138629806Y-53998676D01*
X138497468Y-54025000D01*
X138362532Y-54025000D01*
X138230194Y-53998676D01*
X138105533Y-53947040D01*
X138105532Y-53947040D01*
X138105531Y-53947039D01*
X137993338Y-53872074D01*
X137897926Y-53776662D01*
X137822961Y-53664469D01*
X137822960Y-53664467D01*
X137771324Y-53539806D01*
X137745000Y-53407468D01*
X137745000Y-53272532D01*
X137771324Y-53140194D01*
X137822960Y-53015533D01*
X137897925Y-52903340D01*
X137897926Y-52903338D01*
X137993338Y-52807926D01*
X138105531Y-52732961D01*
X138105533Y-52732960D01*
X138230194Y-52681324D01*
X138362532Y-52655000D01*
X138497468Y-52655000D01*
X138629806Y-52681324D01*
G37*
G36*
X136575000Y-54025000D02*
G01*
X135205000Y-54025000D01*
X135205000Y-52655000D01*
X136575000Y-52655000D01*
X136575000Y-54025000D01*
G37*
G36*
X143709806Y-52681324D02*
G01*
X143834467Y-52732960D01*
X143834469Y-52732961D01*
X143946662Y-52807926D01*
X144042074Y-52903338D01*
X144042075Y-52903340D01*
X144117040Y-53015533D01*
X144168676Y-53140194D01*
X144195000Y-53272532D01*
X144195000Y-53407468D01*
X144168676Y-53539806D01*
X144117040Y-53664467D01*
X144117039Y-53664469D01*
X144042074Y-53776662D01*
X143946662Y-53872074D01*
X143834469Y-53947039D01*
X143834468Y-53947040D01*
X143834467Y-53947040D01*
X143709806Y-53998676D01*
X143577468Y-54025000D01*
X143442532Y-54025000D01*
X143310194Y-53998676D01*
X143185533Y-53947040D01*
X143185532Y-53947040D01*
X143185531Y-53947039D01*
X143073338Y-53872074D01*
X142977926Y-53776662D01*
X142902961Y-53664469D01*
X142902960Y-53664467D01*
X142851324Y-53539806D01*
X142825000Y-53407468D01*
X142825000Y-53272532D01*
X142851324Y-53140194D01*
X142902960Y-53015533D01*
X142977925Y-52903340D01*
X142977926Y-52903338D01*
X143073338Y-52807926D01*
X143185531Y-52732961D01*
X143185533Y-52732960D01*
X143310194Y-52681324D01*
X143442532Y-52655000D01*
X143577468Y-52655000D01*
X143709806Y-52681324D01*
G37*
G36*
X134995256Y-45381298D02*
G01*
X135101579Y-45402447D01*
X135402042Y-45526903D01*
X135672451Y-45707585D01*
X135902415Y-45937549D01*
X136083097Y-46207958D01*
X136207553Y-46508421D01*
X136271000Y-46827391D01*
X136271000Y-47152609D01*
X136207553Y-47471579D01*
X136083097Y-47772042D01*
X135902415Y-48042451D01*
X135672451Y-48272415D01*
X135402042Y-48453097D01*
X135101579Y-48577553D01*
X134995256Y-48598702D01*
X134782611Y-48641000D01*
X134457389Y-48641000D01*
X134244744Y-48598702D01*
X134138421Y-48577553D01*
X133837958Y-48453097D01*
X133567549Y-48272415D01*
X133337585Y-48042451D01*
X133156903Y-47772042D01*
X133032447Y-47471579D01*
X132969000Y-47152609D01*
X132969000Y-46827391D01*
X133032447Y-46508421D01*
X133156903Y-46207958D01*
X133337585Y-45937549D01*
X133567549Y-45707585D01*
X133837958Y-45526903D01*
X134138421Y-45402447D01*
X134244744Y-45381298D01*
X134457389Y-45339000D01*
X134782611Y-45339000D01*
X134995256Y-45381298D01*
G37*
G36*
X146425256Y-45381298D02*
G01*
X146531579Y-45402447D01*
X146832042Y-45526903D01*
X147102451Y-45707585D01*
X147332415Y-45937549D01*
X147513097Y-46207958D01*
X147637553Y-46508421D01*
X147701000Y-46827391D01*
X147701000Y-47152609D01*
X147637553Y-47471579D01*
X147513097Y-47772042D01*
X147332415Y-48042451D01*
X147102451Y-48272415D01*
X146832042Y-48453097D01*
X146531579Y-48577553D01*
X146425256Y-48598702D01*
X146212611Y-48641000D01*
X145887389Y-48641000D01*
X145674744Y-48598702D01*
X145568421Y-48577553D01*
X145267958Y-48453097D01*
X144997549Y-48272415D01*
X144767585Y-48042451D01*
X144586903Y-47772042D01*
X144462447Y-47471579D01*
X144399000Y-47152609D01*
X144399000Y-46827391D01*
X144462447Y-46508421D01*
X144586903Y-46207958D01*
X144767585Y-45937549D01*
X144997549Y-45707585D01*
X145267958Y-45526903D01*
X145568421Y-45402447D01*
X145674744Y-45381298D01*
X145887389Y-45339000D01*
X146212611Y-45339000D01*
X146425256Y-45381298D01*
G37*
G36*
X137359806Y-39981324D02*
G01*
X137484467Y-40032960D01*
X137484469Y-40032961D01*
X137596662Y-40107926D01*
X137692074Y-40203338D01*
X137692075Y-40203340D01*
X137767040Y-40315533D01*
X137818676Y-40440194D01*
X137845000Y-40572532D01*
X137845000Y-40707468D01*
X137818676Y-40839806D01*
X137767040Y-40964467D01*
X137767039Y-40964469D01*
X137692074Y-41076662D01*
X137596662Y-41172074D01*
X137484469Y-41247039D01*
X137484468Y-41247040D01*
X137484467Y-41247040D01*
X137359806Y-41298676D01*
X137227468Y-41325000D01*
X137092532Y-41325000D01*
X136960194Y-41298676D01*
X136835533Y-41247040D01*
X136835532Y-41247040D01*
X136835531Y-41247039D01*
X136723338Y-41172074D01*
X136627926Y-41076662D01*
X136552961Y-40964469D01*
X136552960Y-40964467D01*
X136501324Y-40839806D01*
X136475000Y-40707468D01*
X136475000Y-40572532D01*
X136501324Y-40440194D01*
X136552960Y-40315533D01*
X136627925Y-40203340D01*
X136627926Y-40203338D01*
X136723338Y-40107926D01*
X136835531Y-40032961D01*
X136835533Y-40032960D01*
X136960194Y-39981324D01*
X137092532Y-39955000D01*
X137227468Y-39955000D01*
X137359806Y-39981324D01*
G37*
G36*
X145465000Y-41325000D02*
G01*
X144095000Y-41325000D01*
X144095000Y-39955000D01*
X145465000Y-39955000D01*
X145465000Y-41325000D01*
G37*
G36*
X142439806Y-39981324D02*
G01*
X142564467Y-40032960D01*
X142564469Y-40032961D01*
X142676662Y-40107926D01*
X142772074Y-40203338D01*
X142772075Y-40203340D01*
X142847040Y-40315533D01*
X142898676Y-40440194D01*
X142925000Y-40572532D01*
X142925000Y-40707468D01*
X142898676Y-40839806D01*
X142847040Y-40964467D01*
X142847039Y-40964469D01*
X142772074Y-41076662D01*
X142676662Y-41172074D01*
X142564469Y-41247039D01*
X142564468Y-41247040D01*
X142564467Y-41247040D01*
X142439806Y-41298676D01*
X142307468Y-41325000D01*
X142172532Y-41325000D01*
X142040194Y-41298676D01*
X141915533Y-41247040D01*
X141915532Y-41247040D01*
X141915531Y-41247039D01*
X141803338Y-41172074D01*
X141707926Y-41076662D01*
X141632961Y-40964469D01*
X141632960Y-40964467D01*
X141581324Y-40839806D01*
X141555000Y-40707468D01*
X141555000Y-40572532D01*
X141581324Y-40440194D01*
X141632960Y-40315533D01*
X141707925Y-40203340D01*
X141707926Y-40203338D01*
X141803338Y-40107926D01*
X141915531Y-40032961D01*
X141915533Y-40032960D01*
X142040194Y-39981324D01*
X142172532Y-39955000D01*
X142307468Y-39955000D01*
X142439806Y-39981324D01*
G37*
G36*
X139899806Y-39981324D02*
G01*
X140024467Y-40032960D01*
X140024469Y-40032961D01*
X140136662Y-40107926D01*
X140232074Y-40203338D01*
X140232075Y-40203340D01*
X140307040Y-40315533D01*
X140358676Y-40440194D01*
X140385000Y-40572532D01*
X140385000Y-40707468D01*
X140358676Y-40839806D01*
X140307040Y-40964467D01*
X140307039Y-40964469D01*
X140232074Y-41076662D01*
X140136662Y-41172074D01*
X140024469Y-41247039D01*
X140024468Y-41247040D01*
X140024467Y-41247040D01*
X139899806Y-41298676D01*
X139767468Y-41325000D01*
X139632532Y-41325000D01*
X139500194Y-41298676D01*
X139375533Y-41247040D01*
X139375532Y-41247040D01*
X139375531Y-41247039D01*
X139263338Y-41172074D01*
X139167926Y-41076662D01*
X139092961Y-40964469D01*
X139092960Y-40964467D01*
X139041324Y-40839806D01*
X139015000Y-40707468D01*
X139015000Y-40572532D01*
X139041324Y-40440194D01*
X139092960Y-40315533D01*
X139167925Y-40203340D01*
X139167926Y-40203338D01*
X139263338Y-40107926D01*
X139375531Y-40032961D01*
X139375533Y-40032960D01*
X139500194Y-39981324D01*
X139632532Y-39955000D01*
X139767468Y-39955000D01*
X139899806Y-39981324D01*
G37*
G36*
X143709806Y-37441324D02*
G01*
X143834467Y-37492960D01*
X143834469Y-37492961D01*
X143946662Y-37567926D01*
X144042074Y-37663338D01*
X144042075Y-37663340D01*
X144117040Y-37775533D01*
X144168676Y-37900194D01*
X144195000Y-38032532D01*
X144195000Y-38167468D01*
X144168676Y-38299806D01*
X144117040Y-38424467D01*
X144117039Y-38424469D01*
X144042074Y-38536662D01*
X143946662Y-38632074D01*
X143834469Y-38707039D01*
X143834468Y-38707040D01*
X143834467Y-38707040D01*
X143709806Y-38758676D01*
X143577468Y-38785000D01*
X143442532Y-38785000D01*
X143310194Y-38758676D01*
X143185533Y-38707040D01*
X143185532Y-38707040D01*
X143185531Y-38707039D01*
X143073338Y-38632074D01*
X142977926Y-38536662D01*
X142902961Y-38424469D01*
X142902960Y-38424467D01*
X142851324Y-38299806D01*
X142825000Y-38167468D01*
X142825000Y-38032532D01*
X142851324Y-37900194D01*
X142902960Y-37775533D01*
X142977925Y-37663340D01*
X142977926Y-37663338D01*
X143073338Y-37567926D01*
X143185531Y-37492961D01*
X143185533Y-37492960D01*
X143310194Y-37441324D01*
X143442532Y-37415000D01*
X143577468Y-37415000D01*
X143709806Y-37441324D01*
G37*
G36*
X141169806Y-37441324D02*
G01*
X141294467Y-37492960D01*
X141294469Y-37492961D01*
X141406662Y-37567926D01*
X141502074Y-37663338D01*
X141502075Y-37663340D01*
X141577040Y-37775533D01*
X141628676Y-37900194D01*
X141655000Y-38032532D01*
X141655000Y-38167468D01*
X141628676Y-38299806D01*
X141577040Y-38424467D01*
X141577039Y-38424469D01*
X141502074Y-38536662D01*
X141406662Y-38632074D01*
X141294469Y-38707039D01*
X141294468Y-38707040D01*
X141294467Y-38707040D01*
X141169806Y-38758676D01*
X141037468Y-38785000D01*
X140902532Y-38785000D01*
X140770194Y-38758676D01*
X140645533Y-38707040D01*
X140645532Y-38707040D01*
X140645531Y-38707039D01*
X140533338Y-38632074D01*
X140437926Y-38536662D01*
X140362961Y-38424469D01*
X140362960Y-38424467D01*
X140311324Y-38299806D01*
X140285000Y-38167468D01*
X140285000Y-38032532D01*
X140311324Y-37900194D01*
X140362960Y-37775533D01*
X140437925Y-37663340D01*
X140437926Y-37663338D01*
X140533338Y-37567926D01*
X140645531Y-37492961D01*
X140645533Y-37492960D01*
X140770194Y-37441324D01*
X140902532Y-37415000D01*
X141037468Y-37415000D01*
X141169806Y-37441324D01*
G37*
G36*
X138629806Y-37441324D02*
G01*
X138754467Y-37492960D01*
X138754469Y-37492961D01*
X138866662Y-37567926D01*
X138962074Y-37663338D01*
X138962075Y-37663340D01*
X139037040Y-37775533D01*
X139088676Y-37900194D01*
X139115000Y-38032532D01*
X139115000Y-38167468D01*
X139088676Y-38299806D01*
X139037040Y-38424467D01*
X139037039Y-38424469D01*
X138962074Y-38536662D01*
X138866662Y-38632074D01*
X138754469Y-38707039D01*
X138754468Y-38707040D01*
X138754467Y-38707040D01*
X138629806Y-38758676D01*
X138497468Y-38785000D01*
X138362532Y-38785000D01*
X138230194Y-38758676D01*
X138105533Y-38707040D01*
X138105532Y-38707040D01*
X138105531Y-38707039D01*
X137993338Y-38632074D01*
X137897926Y-38536662D01*
X137822961Y-38424469D01*
X137822960Y-38424467D01*
X137771324Y-38299806D01*
X137745000Y-38167468D01*
X137745000Y-38032532D01*
X137771324Y-37900194D01*
X137822960Y-37775533D01*
X137897925Y-37663340D01*
X137897926Y-37663338D01*
X137993338Y-37567926D01*
X138105531Y-37492961D01*
X138105533Y-37492960D01*
X138230194Y-37441324D01*
X138362532Y-37415000D01*
X138497468Y-37415000D01*
X138629806Y-37441324D01*
G37*
G36*
X136089806Y-37441324D02*
G01*
X136214467Y-37492960D01*
X136214469Y-37492961D01*
X136326662Y-37567926D01*
X136422074Y-37663338D01*
X136422075Y-37663340D01*
X136497040Y-37775533D01*
X136548676Y-37900194D01*
X136575000Y-38032532D01*
X136575000Y-38167468D01*
X136548676Y-38299806D01*
X136497040Y-38424467D01*
X136497039Y-38424469D01*
X136422074Y-38536662D01*
X136326662Y-38632074D01*
X136214469Y-38707039D01*
X136214468Y-38707040D01*
X136214467Y-38707040D01*
X136089806Y-38758676D01*
X135957468Y-38785000D01*
X135822532Y-38785000D01*
X135690194Y-38758676D01*
X135565533Y-38707040D01*
X135565532Y-38707040D01*
X135565531Y-38707039D01*
X135453338Y-38632074D01*
X135357926Y-38536662D01*
X135282961Y-38424469D01*
X135282960Y-38424467D01*
X135231324Y-38299806D01*
X135205000Y-38167468D01*
X135205000Y-38032532D01*
X135231324Y-37900194D01*
X135282960Y-37775533D01*
X135357925Y-37663340D01*
X135357926Y-37663338D01*
X135453338Y-37567926D01*
X135565531Y-37492961D01*
X135565533Y-37492960D01*
X135690194Y-37441324D01*
X135822532Y-37415000D01*
X135957468Y-37415000D01*
X136089806Y-37441324D01*
G37*
M02*
