M48
; DRILL file {KiCad (5.1.5)-3} date 2/8/2021 10:13:36 PM
; FORMAT={-:-/ absolute / inch / decimal}
; #@! TF.CreationDate,2021-02-08T22:13:36-08:00
; #@! TF.GenerationSoftware,Kicad,Pcbnew,(5.1.5)-3
FMAT,2
INCH
T1C0.0118
T2C0.0157
T3C0.0299
T4C0.1260
%
G90
G05
T1
X5.425Y-3.0
X5.625Y-2.75
X5.625Y-2.825
X5.65Y-2.89
X5.867Y-2.712
X5.9Y-3.0
T2
X5.175Y-2.3
X5.3825Y-2.955
X5.4Y-1.925
X5.4125Y-2.805
X5.425Y-2.3
X5.45Y-1.84
X5.4876Y-2.6874
X5.6Y-1.84
X5.65Y-1.92
X5.815Y-2.5422
X5.9Y-2.3
T3
X5.35Y-1.5
X5.4Y-1.6
X5.45Y-1.5
X5.5Y-1.6
X5.55Y-1.5
X5.6Y-1.6
X5.65Y-1.5
X5.7Y-1.6
X5.35Y-2.1
X5.4Y-2.2
X5.45Y-2.1
X5.5Y-2.2
X5.55Y-2.1
X5.6Y-2.2
X5.65Y-2.1
X5.7Y-2.2
T4
X5.3Y-1.85
X5.75Y-1.85
X5.3Y-1.85
X5.75Y-1.85
T0
M30
