G04 #@! TF.GenerationSoftware,KiCad,Pcbnew,(6.0.0)*
G04 #@! TF.CreationDate,2022-04-05T21:53:00-07:00*
G04 #@! TF.ProjectId,MoistureSensor,4d6f6973-7475-4726-9553-656e736f722e,rev?*
G04 #@! TF.SameCoordinates,Original*
G04 #@! TF.FileFunction,Paste,Top*
G04 #@! TF.FilePolarity,Positive*
%FSLAX46Y46*%
G04 Gerber Fmt 4.6, Leading zero omitted, Abs format (unit mm)*
G04 Created by KiCad (PCBNEW (6.0.0)) date 2022-04-05 21:53:00*
%MOMM*%
%LPD*%
G01*
G04 APERTURE LIST*
G04 Aperture macros list*
%AMRoundRect*
0 Rectangle with rounded corners*
0 $1 Rounding radius*
0 $2 $3 $4 $5 $6 $7 $8 $9 X,Y pos of 4 corners*
0 Add a 4 corners polygon primitive as box body*
4,1,4,$2,$3,$4,$5,$6,$7,$8,$9,$2,$3,0*
0 Add four circle primitives for the rounded corners*
1,1,$1+$1,$2,$3*
1,1,$1+$1,$4,$5*
1,1,$1+$1,$6,$7*
1,1,$1+$1,$8,$9*
0 Add four rect primitives between the rounded corners*
20,1,$1+$1,$2,$3,$4,$5,0*
20,1,$1+$1,$4,$5,$6,$7,0*
20,1,$1+$1,$6,$7,$8,$9,0*
20,1,$1+$1,$8,$9,$2,$3,0*%
G04 Aperture macros list end*
%ADD10C,0.152400*%
%ADD11RoundRect,0.140000X0.140000X0.170000X-0.140000X0.170000X-0.140000X-0.170000X0.140000X-0.170000X0*%
%ADD12RoundRect,0.250000X-0.475000X0.250000X-0.475000X-0.250000X0.475000X-0.250000X0.475000X0.250000X0*%
%ADD13RoundRect,0.250000X0.475000X-0.250000X0.475000X0.250000X-0.475000X0.250000X-0.475000X-0.250000X0*%
%ADD14RoundRect,0.140000X-0.170000X0.140000X-0.170000X-0.140000X0.170000X-0.140000X0.170000X0.140000X0*%
%ADD15RoundRect,0.225000X-0.225000X-0.250000X0.225000X-0.250000X0.225000X0.250000X-0.225000X0.250000X0*%
%ADD16R,0.500000X0.500000*%
%ADD17RoundRect,0.135000X0.135000X0.185000X-0.135000X0.185000X-0.135000X-0.185000X0.135000X-0.185000X0*%
%ADD18RoundRect,0.135000X0.185000X-0.135000X0.185000X0.135000X-0.185000X0.135000X-0.185000X-0.135000X0*%
%ADD19RoundRect,0.135000X-0.135000X-0.185000X0.135000X-0.185000X0.135000X0.185000X-0.135000X0.185000X0*%
%ADD20R,0.482600X1.397000*%
%ADD21R,0.558800X1.397000*%
%ADD22RoundRect,0.150000X0.825000X0.150000X-0.825000X0.150000X-0.825000X-0.150000X0.825000X-0.150000X0*%
%ADD23RoundRect,0.150000X0.150000X-0.825000X0.150000X0.825000X-0.150000X0.825000X-0.150000X-0.825000X0*%
%ADD24RoundRect,0.200000X0.275000X-0.200000X0.275000X0.200000X-0.275000X0.200000X-0.275000X-0.200000X0*%
%ADD25R,0.900000X0.800000*%
%ADD26RoundRect,0.250000X0.625000X-0.375000X0.625000X0.375000X-0.625000X0.375000X-0.625000X-0.375000X0*%
%ADD27RoundRect,0.243750X0.456250X-0.243750X0.456250X0.243750X-0.456250X0.243750X-0.456250X-0.243750X0*%
G04 APERTURE END LIST*
D10*
X135915400Y-68148200D02*
X135356600Y-68148200D01*
X136550400Y-63931800D02*
X136550400Y-67513200D01*
X136550400Y-67513200D02*
X135915400Y-68148200D01*
X134721600Y-67513200D02*
X134721600Y-63931800D01*
X135356600Y-68148200D02*
X134721600Y-67513200D01*
X134721600Y-63931800D02*
X136550400Y-63931800D01*
X135356600Y-68148200D02*
X135356600Y-68148200D01*
X135915400Y-68148200D02*
X135915400Y-68148200D01*
D11*
X132877500Y-72263000D03*
X131917500Y-72263000D03*
D12*
X131826000Y-66360000D03*
X131826000Y-68260000D03*
D13*
X140208000Y-68260000D03*
X140208000Y-66360000D03*
D14*
X141351000Y-70259000D03*
X141351000Y-71219000D03*
D11*
X132877500Y-70739000D03*
X131917500Y-70739000D03*
D15*
X146926000Y-73660000D03*
X148476000Y-73660000D03*
D14*
X143764000Y-66830000D03*
X143764000Y-67790000D03*
D16*
X144610000Y-75311000D03*
X142410000Y-75311000D03*
D17*
X132907500Y-75438000D03*
X131887500Y-75438000D03*
X132907500Y-73787000D03*
X131887500Y-73787000D03*
D18*
X141351000Y-73535000D03*
X141351000Y-72515000D03*
D19*
X146937000Y-75184000D03*
X147957000Y-75184000D03*
D20*
X134137400Y-68846700D03*
D21*
X135636000Y-68846700D03*
D20*
X137134600Y-68846700D03*
D22*
X139571500Y-75057000D03*
X139571500Y-73787000D03*
X139571500Y-72517000D03*
X139571500Y-71247000D03*
X134621500Y-71247000D03*
X134621500Y-72517000D03*
X134621500Y-73787000D03*
X134621500Y-75057000D03*
D23*
X145161000Y-71436000D03*
X146431000Y-71436000D03*
X147701000Y-71436000D03*
X148971000Y-71436000D03*
X148971000Y-66486000D03*
X147701000Y-66486000D03*
X146431000Y-66486000D03*
X145161000Y-66486000D03*
D24*
X147320000Y-61785000D03*
X147320000Y-60135000D03*
D17*
X144780000Y-59055000D03*
X143760000Y-59055000D03*
D25*
X143145000Y-60645000D03*
X143145000Y-62545000D03*
X145145000Y-61595000D03*
D26*
X137795000Y-62360000D03*
X137795000Y-59560000D03*
D27*
X131826000Y-61643500D03*
X131826000Y-59768500D03*
X149606000Y-61897500D03*
X149606000Y-60022500D03*
D24*
X134620000Y-61531000D03*
X134620000Y-59881000D03*
M02*
