G04 #@! TF.GenerationSoftware,KiCad,Pcbnew,(5.1.5)-3*
G04 #@! TF.CreationDate,2021-02-08T22:28:45-08:00*
G04 #@! TF.ProjectId,MoistureSensor,4d6f6973-7475-4726-9553-656e736f722e,rev?*
G04 #@! TF.SameCoordinates,Original*
G04 #@! TF.FileFunction,Paste,Top*
G04 #@! TF.FilePolarity,Positive*
%FSLAX46Y46*%
G04 Gerber Fmt 4.6, Leading zero omitted, Abs format (unit mm)*
G04 Created by KiCad (PCBNEW (5.1.5)-3) date 2021-02-08 22:28:45*
%MOMM*%
%LPD*%
G04 APERTURE LIST*
%ADD10C,0.152400*%
%ADD11R,0.482600X1.397000*%
%ADD12R,0.558800X1.397000*%
%ADD13C,0.100000*%
%ADD14R,0.500000X0.500000*%
%ADD15R,0.900000X0.800000*%
G04 APERTURE END LIST*
D10*
X135915400Y-68148200D02*
X135356600Y-68148200D01*
X135915400Y-68148200D02*
X135915400Y-68148200D01*
X136550400Y-67513200D02*
X135915400Y-68148200D01*
X136550400Y-63931800D02*
X136550400Y-67513200D01*
X134721600Y-63931800D02*
X136550400Y-63931800D01*
X134721600Y-67513200D02*
X134721600Y-63931800D01*
X135356600Y-68148200D02*
X134721600Y-67513200D01*
X135356600Y-68148200D02*
X135356600Y-68148200D01*
D11*
X137134600Y-68846700D03*
D12*
X135636000Y-68846700D03*
D11*
X134137400Y-68846700D03*
D13*
G36*
X135461203Y-74757722D02*
G01*
X135475764Y-74759882D01*
X135490043Y-74763459D01*
X135503903Y-74768418D01*
X135517210Y-74774712D01*
X135529836Y-74782280D01*
X135541659Y-74791048D01*
X135552566Y-74800934D01*
X135562452Y-74811841D01*
X135571220Y-74823664D01*
X135578788Y-74836290D01*
X135585082Y-74849597D01*
X135590041Y-74863457D01*
X135593618Y-74877736D01*
X135595778Y-74892297D01*
X135596500Y-74907000D01*
X135596500Y-75207000D01*
X135595778Y-75221703D01*
X135593618Y-75236264D01*
X135590041Y-75250543D01*
X135585082Y-75264403D01*
X135578788Y-75277710D01*
X135571220Y-75290336D01*
X135562452Y-75302159D01*
X135552566Y-75313066D01*
X135541659Y-75322952D01*
X135529836Y-75331720D01*
X135517210Y-75339288D01*
X135503903Y-75345582D01*
X135490043Y-75350541D01*
X135475764Y-75354118D01*
X135461203Y-75356278D01*
X135446500Y-75357000D01*
X133796500Y-75357000D01*
X133781797Y-75356278D01*
X133767236Y-75354118D01*
X133752957Y-75350541D01*
X133739097Y-75345582D01*
X133725790Y-75339288D01*
X133713164Y-75331720D01*
X133701341Y-75322952D01*
X133690434Y-75313066D01*
X133680548Y-75302159D01*
X133671780Y-75290336D01*
X133664212Y-75277710D01*
X133657918Y-75264403D01*
X133652959Y-75250543D01*
X133649382Y-75236264D01*
X133647222Y-75221703D01*
X133646500Y-75207000D01*
X133646500Y-74907000D01*
X133647222Y-74892297D01*
X133649382Y-74877736D01*
X133652959Y-74863457D01*
X133657918Y-74849597D01*
X133664212Y-74836290D01*
X133671780Y-74823664D01*
X133680548Y-74811841D01*
X133690434Y-74800934D01*
X133701341Y-74791048D01*
X133713164Y-74782280D01*
X133725790Y-74774712D01*
X133739097Y-74768418D01*
X133752957Y-74763459D01*
X133767236Y-74759882D01*
X133781797Y-74757722D01*
X133796500Y-74757000D01*
X135446500Y-74757000D01*
X135461203Y-74757722D01*
G37*
G36*
X135461203Y-73487722D02*
G01*
X135475764Y-73489882D01*
X135490043Y-73493459D01*
X135503903Y-73498418D01*
X135517210Y-73504712D01*
X135529836Y-73512280D01*
X135541659Y-73521048D01*
X135552566Y-73530934D01*
X135562452Y-73541841D01*
X135571220Y-73553664D01*
X135578788Y-73566290D01*
X135585082Y-73579597D01*
X135590041Y-73593457D01*
X135593618Y-73607736D01*
X135595778Y-73622297D01*
X135596500Y-73637000D01*
X135596500Y-73937000D01*
X135595778Y-73951703D01*
X135593618Y-73966264D01*
X135590041Y-73980543D01*
X135585082Y-73994403D01*
X135578788Y-74007710D01*
X135571220Y-74020336D01*
X135562452Y-74032159D01*
X135552566Y-74043066D01*
X135541659Y-74052952D01*
X135529836Y-74061720D01*
X135517210Y-74069288D01*
X135503903Y-74075582D01*
X135490043Y-74080541D01*
X135475764Y-74084118D01*
X135461203Y-74086278D01*
X135446500Y-74087000D01*
X133796500Y-74087000D01*
X133781797Y-74086278D01*
X133767236Y-74084118D01*
X133752957Y-74080541D01*
X133739097Y-74075582D01*
X133725790Y-74069288D01*
X133713164Y-74061720D01*
X133701341Y-74052952D01*
X133690434Y-74043066D01*
X133680548Y-74032159D01*
X133671780Y-74020336D01*
X133664212Y-74007710D01*
X133657918Y-73994403D01*
X133652959Y-73980543D01*
X133649382Y-73966264D01*
X133647222Y-73951703D01*
X133646500Y-73937000D01*
X133646500Y-73637000D01*
X133647222Y-73622297D01*
X133649382Y-73607736D01*
X133652959Y-73593457D01*
X133657918Y-73579597D01*
X133664212Y-73566290D01*
X133671780Y-73553664D01*
X133680548Y-73541841D01*
X133690434Y-73530934D01*
X133701341Y-73521048D01*
X133713164Y-73512280D01*
X133725790Y-73504712D01*
X133739097Y-73498418D01*
X133752957Y-73493459D01*
X133767236Y-73489882D01*
X133781797Y-73487722D01*
X133796500Y-73487000D01*
X135446500Y-73487000D01*
X135461203Y-73487722D01*
G37*
G36*
X135461203Y-72217722D02*
G01*
X135475764Y-72219882D01*
X135490043Y-72223459D01*
X135503903Y-72228418D01*
X135517210Y-72234712D01*
X135529836Y-72242280D01*
X135541659Y-72251048D01*
X135552566Y-72260934D01*
X135562452Y-72271841D01*
X135571220Y-72283664D01*
X135578788Y-72296290D01*
X135585082Y-72309597D01*
X135590041Y-72323457D01*
X135593618Y-72337736D01*
X135595778Y-72352297D01*
X135596500Y-72367000D01*
X135596500Y-72667000D01*
X135595778Y-72681703D01*
X135593618Y-72696264D01*
X135590041Y-72710543D01*
X135585082Y-72724403D01*
X135578788Y-72737710D01*
X135571220Y-72750336D01*
X135562452Y-72762159D01*
X135552566Y-72773066D01*
X135541659Y-72782952D01*
X135529836Y-72791720D01*
X135517210Y-72799288D01*
X135503903Y-72805582D01*
X135490043Y-72810541D01*
X135475764Y-72814118D01*
X135461203Y-72816278D01*
X135446500Y-72817000D01*
X133796500Y-72817000D01*
X133781797Y-72816278D01*
X133767236Y-72814118D01*
X133752957Y-72810541D01*
X133739097Y-72805582D01*
X133725790Y-72799288D01*
X133713164Y-72791720D01*
X133701341Y-72782952D01*
X133690434Y-72773066D01*
X133680548Y-72762159D01*
X133671780Y-72750336D01*
X133664212Y-72737710D01*
X133657918Y-72724403D01*
X133652959Y-72710543D01*
X133649382Y-72696264D01*
X133647222Y-72681703D01*
X133646500Y-72667000D01*
X133646500Y-72367000D01*
X133647222Y-72352297D01*
X133649382Y-72337736D01*
X133652959Y-72323457D01*
X133657918Y-72309597D01*
X133664212Y-72296290D01*
X133671780Y-72283664D01*
X133680548Y-72271841D01*
X133690434Y-72260934D01*
X133701341Y-72251048D01*
X133713164Y-72242280D01*
X133725790Y-72234712D01*
X133739097Y-72228418D01*
X133752957Y-72223459D01*
X133767236Y-72219882D01*
X133781797Y-72217722D01*
X133796500Y-72217000D01*
X135446500Y-72217000D01*
X135461203Y-72217722D01*
G37*
G36*
X135461203Y-70947722D02*
G01*
X135475764Y-70949882D01*
X135490043Y-70953459D01*
X135503903Y-70958418D01*
X135517210Y-70964712D01*
X135529836Y-70972280D01*
X135541659Y-70981048D01*
X135552566Y-70990934D01*
X135562452Y-71001841D01*
X135571220Y-71013664D01*
X135578788Y-71026290D01*
X135585082Y-71039597D01*
X135590041Y-71053457D01*
X135593618Y-71067736D01*
X135595778Y-71082297D01*
X135596500Y-71097000D01*
X135596500Y-71397000D01*
X135595778Y-71411703D01*
X135593618Y-71426264D01*
X135590041Y-71440543D01*
X135585082Y-71454403D01*
X135578788Y-71467710D01*
X135571220Y-71480336D01*
X135562452Y-71492159D01*
X135552566Y-71503066D01*
X135541659Y-71512952D01*
X135529836Y-71521720D01*
X135517210Y-71529288D01*
X135503903Y-71535582D01*
X135490043Y-71540541D01*
X135475764Y-71544118D01*
X135461203Y-71546278D01*
X135446500Y-71547000D01*
X133796500Y-71547000D01*
X133781797Y-71546278D01*
X133767236Y-71544118D01*
X133752957Y-71540541D01*
X133739097Y-71535582D01*
X133725790Y-71529288D01*
X133713164Y-71521720D01*
X133701341Y-71512952D01*
X133690434Y-71503066D01*
X133680548Y-71492159D01*
X133671780Y-71480336D01*
X133664212Y-71467710D01*
X133657918Y-71454403D01*
X133652959Y-71440543D01*
X133649382Y-71426264D01*
X133647222Y-71411703D01*
X133646500Y-71397000D01*
X133646500Y-71097000D01*
X133647222Y-71082297D01*
X133649382Y-71067736D01*
X133652959Y-71053457D01*
X133657918Y-71039597D01*
X133664212Y-71026290D01*
X133671780Y-71013664D01*
X133680548Y-71001841D01*
X133690434Y-70990934D01*
X133701341Y-70981048D01*
X133713164Y-70972280D01*
X133725790Y-70964712D01*
X133739097Y-70958418D01*
X133752957Y-70953459D01*
X133767236Y-70949882D01*
X133781797Y-70947722D01*
X133796500Y-70947000D01*
X135446500Y-70947000D01*
X135461203Y-70947722D01*
G37*
G36*
X140411203Y-70947722D02*
G01*
X140425764Y-70949882D01*
X140440043Y-70953459D01*
X140453903Y-70958418D01*
X140467210Y-70964712D01*
X140479836Y-70972280D01*
X140491659Y-70981048D01*
X140502566Y-70990934D01*
X140512452Y-71001841D01*
X140521220Y-71013664D01*
X140528788Y-71026290D01*
X140535082Y-71039597D01*
X140540041Y-71053457D01*
X140543618Y-71067736D01*
X140545778Y-71082297D01*
X140546500Y-71097000D01*
X140546500Y-71397000D01*
X140545778Y-71411703D01*
X140543618Y-71426264D01*
X140540041Y-71440543D01*
X140535082Y-71454403D01*
X140528788Y-71467710D01*
X140521220Y-71480336D01*
X140512452Y-71492159D01*
X140502566Y-71503066D01*
X140491659Y-71512952D01*
X140479836Y-71521720D01*
X140467210Y-71529288D01*
X140453903Y-71535582D01*
X140440043Y-71540541D01*
X140425764Y-71544118D01*
X140411203Y-71546278D01*
X140396500Y-71547000D01*
X138746500Y-71547000D01*
X138731797Y-71546278D01*
X138717236Y-71544118D01*
X138702957Y-71540541D01*
X138689097Y-71535582D01*
X138675790Y-71529288D01*
X138663164Y-71521720D01*
X138651341Y-71512952D01*
X138640434Y-71503066D01*
X138630548Y-71492159D01*
X138621780Y-71480336D01*
X138614212Y-71467710D01*
X138607918Y-71454403D01*
X138602959Y-71440543D01*
X138599382Y-71426264D01*
X138597222Y-71411703D01*
X138596500Y-71397000D01*
X138596500Y-71097000D01*
X138597222Y-71082297D01*
X138599382Y-71067736D01*
X138602959Y-71053457D01*
X138607918Y-71039597D01*
X138614212Y-71026290D01*
X138621780Y-71013664D01*
X138630548Y-71001841D01*
X138640434Y-70990934D01*
X138651341Y-70981048D01*
X138663164Y-70972280D01*
X138675790Y-70964712D01*
X138689097Y-70958418D01*
X138702957Y-70953459D01*
X138717236Y-70949882D01*
X138731797Y-70947722D01*
X138746500Y-70947000D01*
X140396500Y-70947000D01*
X140411203Y-70947722D01*
G37*
G36*
X140411203Y-72217722D02*
G01*
X140425764Y-72219882D01*
X140440043Y-72223459D01*
X140453903Y-72228418D01*
X140467210Y-72234712D01*
X140479836Y-72242280D01*
X140491659Y-72251048D01*
X140502566Y-72260934D01*
X140512452Y-72271841D01*
X140521220Y-72283664D01*
X140528788Y-72296290D01*
X140535082Y-72309597D01*
X140540041Y-72323457D01*
X140543618Y-72337736D01*
X140545778Y-72352297D01*
X140546500Y-72367000D01*
X140546500Y-72667000D01*
X140545778Y-72681703D01*
X140543618Y-72696264D01*
X140540041Y-72710543D01*
X140535082Y-72724403D01*
X140528788Y-72737710D01*
X140521220Y-72750336D01*
X140512452Y-72762159D01*
X140502566Y-72773066D01*
X140491659Y-72782952D01*
X140479836Y-72791720D01*
X140467210Y-72799288D01*
X140453903Y-72805582D01*
X140440043Y-72810541D01*
X140425764Y-72814118D01*
X140411203Y-72816278D01*
X140396500Y-72817000D01*
X138746500Y-72817000D01*
X138731797Y-72816278D01*
X138717236Y-72814118D01*
X138702957Y-72810541D01*
X138689097Y-72805582D01*
X138675790Y-72799288D01*
X138663164Y-72791720D01*
X138651341Y-72782952D01*
X138640434Y-72773066D01*
X138630548Y-72762159D01*
X138621780Y-72750336D01*
X138614212Y-72737710D01*
X138607918Y-72724403D01*
X138602959Y-72710543D01*
X138599382Y-72696264D01*
X138597222Y-72681703D01*
X138596500Y-72667000D01*
X138596500Y-72367000D01*
X138597222Y-72352297D01*
X138599382Y-72337736D01*
X138602959Y-72323457D01*
X138607918Y-72309597D01*
X138614212Y-72296290D01*
X138621780Y-72283664D01*
X138630548Y-72271841D01*
X138640434Y-72260934D01*
X138651341Y-72251048D01*
X138663164Y-72242280D01*
X138675790Y-72234712D01*
X138689097Y-72228418D01*
X138702957Y-72223459D01*
X138717236Y-72219882D01*
X138731797Y-72217722D01*
X138746500Y-72217000D01*
X140396500Y-72217000D01*
X140411203Y-72217722D01*
G37*
G36*
X140411203Y-73487722D02*
G01*
X140425764Y-73489882D01*
X140440043Y-73493459D01*
X140453903Y-73498418D01*
X140467210Y-73504712D01*
X140479836Y-73512280D01*
X140491659Y-73521048D01*
X140502566Y-73530934D01*
X140512452Y-73541841D01*
X140521220Y-73553664D01*
X140528788Y-73566290D01*
X140535082Y-73579597D01*
X140540041Y-73593457D01*
X140543618Y-73607736D01*
X140545778Y-73622297D01*
X140546500Y-73637000D01*
X140546500Y-73937000D01*
X140545778Y-73951703D01*
X140543618Y-73966264D01*
X140540041Y-73980543D01*
X140535082Y-73994403D01*
X140528788Y-74007710D01*
X140521220Y-74020336D01*
X140512452Y-74032159D01*
X140502566Y-74043066D01*
X140491659Y-74052952D01*
X140479836Y-74061720D01*
X140467210Y-74069288D01*
X140453903Y-74075582D01*
X140440043Y-74080541D01*
X140425764Y-74084118D01*
X140411203Y-74086278D01*
X140396500Y-74087000D01*
X138746500Y-74087000D01*
X138731797Y-74086278D01*
X138717236Y-74084118D01*
X138702957Y-74080541D01*
X138689097Y-74075582D01*
X138675790Y-74069288D01*
X138663164Y-74061720D01*
X138651341Y-74052952D01*
X138640434Y-74043066D01*
X138630548Y-74032159D01*
X138621780Y-74020336D01*
X138614212Y-74007710D01*
X138607918Y-73994403D01*
X138602959Y-73980543D01*
X138599382Y-73966264D01*
X138597222Y-73951703D01*
X138596500Y-73937000D01*
X138596500Y-73637000D01*
X138597222Y-73622297D01*
X138599382Y-73607736D01*
X138602959Y-73593457D01*
X138607918Y-73579597D01*
X138614212Y-73566290D01*
X138621780Y-73553664D01*
X138630548Y-73541841D01*
X138640434Y-73530934D01*
X138651341Y-73521048D01*
X138663164Y-73512280D01*
X138675790Y-73504712D01*
X138689097Y-73498418D01*
X138702957Y-73493459D01*
X138717236Y-73489882D01*
X138731797Y-73487722D01*
X138746500Y-73487000D01*
X140396500Y-73487000D01*
X140411203Y-73487722D01*
G37*
G36*
X140411203Y-74757722D02*
G01*
X140425764Y-74759882D01*
X140440043Y-74763459D01*
X140453903Y-74768418D01*
X140467210Y-74774712D01*
X140479836Y-74782280D01*
X140491659Y-74791048D01*
X140502566Y-74800934D01*
X140512452Y-74811841D01*
X140521220Y-74823664D01*
X140528788Y-74836290D01*
X140535082Y-74849597D01*
X140540041Y-74863457D01*
X140543618Y-74877736D01*
X140545778Y-74892297D01*
X140546500Y-74907000D01*
X140546500Y-75207000D01*
X140545778Y-75221703D01*
X140543618Y-75236264D01*
X140540041Y-75250543D01*
X140535082Y-75264403D01*
X140528788Y-75277710D01*
X140521220Y-75290336D01*
X140512452Y-75302159D01*
X140502566Y-75313066D01*
X140491659Y-75322952D01*
X140479836Y-75331720D01*
X140467210Y-75339288D01*
X140453903Y-75345582D01*
X140440043Y-75350541D01*
X140425764Y-75354118D01*
X140411203Y-75356278D01*
X140396500Y-75357000D01*
X138746500Y-75357000D01*
X138731797Y-75356278D01*
X138717236Y-75354118D01*
X138702957Y-75350541D01*
X138689097Y-75345582D01*
X138675790Y-75339288D01*
X138663164Y-75331720D01*
X138651341Y-75322952D01*
X138640434Y-75313066D01*
X138630548Y-75302159D01*
X138621780Y-75290336D01*
X138614212Y-75277710D01*
X138607918Y-75264403D01*
X138602959Y-75250543D01*
X138599382Y-75236264D01*
X138597222Y-75221703D01*
X138596500Y-75207000D01*
X138596500Y-74907000D01*
X138597222Y-74892297D01*
X138599382Y-74877736D01*
X138602959Y-74863457D01*
X138607918Y-74849597D01*
X138614212Y-74836290D01*
X138621780Y-74823664D01*
X138630548Y-74811841D01*
X138640434Y-74800934D01*
X138651341Y-74791048D01*
X138663164Y-74782280D01*
X138675790Y-74774712D01*
X138689097Y-74768418D01*
X138702957Y-74763459D01*
X138717236Y-74759882D01*
X138731797Y-74757722D01*
X138746500Y-74757000D01*
X140396500Y-74757000D01*
X140411203Y-74757722D01*
G37*
G36*
X133031222Y-71953674D02*
G01*
X133044813Y-71955690D01*
X133058140Y-71959028D01*
X133071076Y-71963657D01*
X133083496Y-71969531D01*
X133095280Y-71976594D01*
X133106315Y-71984779D01*
X133116495Y-71994005D01*
X133125721Y-72004185D01*
X133133906Y-72015220D01*
X133140969Y-72027004D01*
X133146843Y-72039424D01*
X133151472Y-72052360D01*
X133154810Y-72065687D01*
X133156826Y-72079278D01*
X133157500Y-72093000D01*
X133157500Y-72433000D01*
X133156826Y-72446722D01*
X133154810Y-72460313D01*
X133151472Y-72473640D01*
X133146843Y-72486576D01*
X133140969Y-72498996D01*
X133133906Y-72510780D01*
X133125721Y-72521815D01*
X133116495Y-72531995D01*
X133106315Y-72541221D01*
X133095280Y-72549406D01*
X133083496Y-72556469D01*
X133071076Y-72562343D01*
X133058140Y-72566972D01*
X133044813Y-72570310D01*
X133031222Y-72572326D01*
X133017500Y-72573000D01*
X132737500Y-72573000D01*
X132723778Y-72572326D01*
X132710187Y-72570310D01*
X132696860Y-72566972D01*
X132683924Y-72562343D01*
X132671504Y-72556469D01*
X132659720Y-72549406D01*
X132648685Y-72541221D01*
X132638505Y-72531995D01*
X132629279Y-72521815D01*
X132621094Y-72510780D01*
X132614031Y-72498996D01*
X132608157Y-72486576D01*
X132603528Y-72473640D01*
X132600190Y-72460313D01*
X132598174Y-72446722D01*
X132597500Y-72433000D01*
X132597500Y-72093000D01*
X132598174Y-72079278D01*
X132600190Y-72065687D01*
X132603528Y-72052360D01*
X132608157Y-72039424D01*
X132614031Y-72027004D01*
X132621094Y-72015220D01*
X132629279Y-72004185D01*
X132638505Y-71994005D01*
X132648685Y-71984779D01*
X132659720Y-71976594D01*
X132671504Y-71969531D01*
X132683924Y-71963657D01*
X132696860Y-71959028D01*
X132710187Y-71955690D01*
X132723778Y-71953674D01*
X132737500Y-71953000D01*
X133017500Y-71953000D01*
X133031222Y-71953674D01*
G37*
G36*
X132071222Y-71953674D02*
G01*
X132084813Y-71955690D01*
X132098140Y-71959028D01*
X132111076Y-71963657D01*
X132123496Y-71969531D01*
X132135280Y-71976594D01*
X132146315Y-71984779D01*
X132156495Y-71994005D01*
X132165721Y-72004185D01*
X132173906Y-72015220D01*
X132180969Y-72027004D01*
X132186843Y-72039424D01*
X132191472Y-72052360D01*
X132194810Y-72065687D01*
X132196826Y-72079278D01*
X132197500Y-72093000D01*
X132197500Y-72433000D01*
X132196826Y-72446722D01*
X132194810Y-72460313D01*
X132191472Y-72473640D01*
X132186843Y-72486576D01*
X132180969Y-72498996D01*
X132173906Y-72510780D01*
X132165721Y-72521815D01*
X132156495Y-72531995D01*
X132146315Y-72541221D01*
X132135280Y-72549406D01*
X132123496Y-72556469D01*
X132111076Y-72562343D01*
X132098140Y-72566972D01*
X132084813Y-72570310D01*
X132071222Y-72572326D01*
X132057500Y-72573000D01*
X131777500Y-72573000D01*
X131763778Y-72572326D01*
X131750187Y-72570310D01*
X131736860Y-72566972D01*
X131723924Y-72562343D01*
X131711504Y-72556469D01*
X131699720Y-72549406D01*
X131688685Y-72541221D01*
X131678505Y-72531995D01*
X131669279Y-72521815D01*
X131661094Y-72510780D01*
X131654031Y-72498996D01*
X131648157Y-72486576D01*
X131643528Y-72473640D01*
X131640190Y-72460313D01*
X131638174Y-72446722D01*
X131637500Y-72433000D01*
X131637500Y-72093000D01*
X131638174Y-72079278D01*
X131640190Y-72065687D01*
X131643528Y-72052360D01*
X131648157Y-72039424D01*
X131654031Y-72027004D01*
X131661094Y-72015220D01*
X131669279Y-72004185D01*
X131678505Y-71994005D01*
X131688685Y-71984779D01*
X131699720Y-71976594D01*
X131711504Y-71969531D01*
X131723924Y-71963657D01*
X131736860Y-71959028D01*
X131750187Y-71955690D01*
X131763778Y-71953674D01*
X131777500Y-71953000D01*
X132057500Y-71953000D01*
X132071222Y-71953674D01*
G37*
G36*
X132325504Y-65861204D02*
G01*
X132349773Y-65864804D01*
X132373571Y-65870765D01*
X132396671Y-65879030D01*
X132418849Y-65889520D01*
X132439893Y-65902133D01*
X132459598Y-65916747D01*
X132477777Y-65933223D01*
X132494253Y-65951402D01*
X132508867Y-65971107D01*
X132521480Y-65992151D01*
X132531970Y-66014329D01*
X132540235Y-66037429D01*
X132546196Y-66061227D01*
X132549796Y-66085496D01*
X132551000Y-66110000D01*
X132551000Y-66610000D01*
X132549796Y-66634504D01*
X132546196Y-66658773D01*
X132540235Y-66682571D01*
X132531970Y-66705671D01*
X132521480Y-66727849D01*
X132508867Y-66748893D01*
X132494253Y-66768598D01*
X132477777Y-66786777D01*
X132459598Y-66803253D01*
X132439893Y-66817867D01*
X132418849Y-66830480D01*
X132396671Y-66840970D01*
X132373571Y-66849235D01*
X132349773Y-66855196D01*
X132325504Y-66858796D01*
X132301000Y-66860000D01*
X131351000Y-66860000D01*
X131326496Y-66858796D01*
X131302227Y-66855196D01*
X131278429Y-66849235D01*
X131255329Y-66840970D01*
X131233151Y-66830480D01*
X131212107Y-66817867D01*
X131192402Y-66803253D01*
X131174223Y-66786777D01*
X131157747Y-66768598D01*
X131143133Y-66748893D01*
X131130520Y-66727849D01*
X131120030Y-66705671D01*
X131111765Y-66682571D01*
X131105804Y-66658773D01*
X131102204Y-66634504D01*
X131101000Y-66610000D01*
X131101000Y-66110000D01*
X131102204Y-66085496D01*
X131105804Y-66061227D01*
X131111765Y-66037429D01*
X131120030Y-66014329D01*
X131130520Y-65992151D01*
X131143133Y-65971107D01*
X131157747Y-65951402D01*
X131174223Y-65933223D01*
X131192402Y-65916747D01*
X131212107Y-65902133D01*
X131233151Y-65889520D01*
X131255329Y-65879030D01*
X131278429Y-65870765D01*
X131302227Y-65864804D01*
X131326496Y-65861204D01*
X131351000Y-65860000D01*
X132301000Y-65860000D01*
X132325504Y-65861204D01*
G37*
G36*
X132325504Y-67761204D02*
G01*
X132349773Y-67764804D01*
X132373571Y-67770765D01*
X132396671Y-67779030D01*
X132418849Y-67789520D01*
X132439893Y-67802133D01*
X132459598Y-67816747D01*
X132477777Y-67833223D01*
X132494253Y-67851402D01*
X132508867Y-67871107D01*
X132521480Y-67892151D01*
X132531970Y-67914329D01*
X132540235Y-67937429D01*
X132546196Y-67961227D01*
X132549796Y-67985496D01*
X132551000Y-68010000D01*
X132551000Y-68510000D01*
X132549796Y-68534504D01*
X132546196Y-68558773D01*
X132540235Y-68582571D01*
X132531970Y-68605671D01*
X132521480Y-68627849D01*
X132508867Y-68648893D01*
X132494253Y-68668598D01*
X132477777Y-68686777D01*
X132459598Y-68703253D01*
X132439893Y-68717867D01*
X132418849Y-68730480D01*
X132396671Y-68740970D01*
X132373571Y-68749235D01*
X132349773Y-68755196D01*
X132325504Y-68758796D01*
X132301000Y-68760000D01*
X131351000Y-68760000D01*
X131326496Y-68758796D01*
X131302227Y-68755196D01*
X131278429Y-68749235D01*
X131255329Y-68740970D01*
X131233151Y-68730480D01*
X131212107Y-68717867D01*
X131192402Y-68703253D01*
X131174223Y-68686777D01*
X131157747Y-68668598D01*
X131143133Y-68648893D01*
X131130520Y-68627849D01*
X131120030Y-68605671D01*
X131111765Y-68582571D01*
X131105804Y-68558773D01*
X131102204Y-68534504D01*
X131101000Y-68510000D01*
X131101000Y-68010000D01*
X131102204Y-67985496D01*
X131105804Y-67961227D01*
X131111765Y-67937429D01*
X131120030Y-67914329D01*
X131130520Y-67892151D01*
X131143133Y-67871107D01*
X131157747Y-67851402D01*
X131174223Y-67833223D01*
X131192402Y-67816747D01*
X131212107Y-67802133D01*
X131233151Y-67789520D01*
X131255329Y-67779030D01*
X131278429Y-67770765D01*
X131302227Y-67764804D01*
X131326496Y-67761204D01*
X131351000Y-67760000D01*
X132301000Y-67760000D01*
X132325504Y-67761204D01*
G37*
G36*
X140707504Y-67761204D02*
G01*
X140731773Y-67764804D01*
X140755571Y-67770765D01*
X140778671Y-67779030D01*
X140800849Y-67789520D01*
X140821893Y-67802133D01*
X140841598Y-67816747D01*
X140859777Y-67833223D01*
X140876253Y-67851402D01*
X140890867Y-67871107D01*
X140903480Y-67892151D01*
X140913970Y-67914329D01*
X140922235Y-67937429D01*
X140928196Y-67961227D01*
X140931796Y-67985496D01*
X140933000Y-68010000D01*
X140933000Y-68510000D01*
X140931796Y-68534504D01*
X140928196Y-68558773D01*
X140922235Y-68582571D01*
X140913970Y-68605671D01*
X140903480Y-68627849D01*
X140890867Y-68648893D01*
X140876253Y-68668598D01*
X140859777Y-68686777D01*
X140841598Y-68703253D01*
X140821893Y-68717867D01*
X140800849Y-68730480D01*
X140778671Y-68740970D01*
X140755571Y-68749235D01*
X140731773Y-68755196D01*
X140707504Y-68758796D01*
X140683000Y-68760000D01*
X139733000Y-68760000D01*
X139708496Y-68758796D01*
X139684227Y-68755196D01*
X139660429Y-68749235D01*
X139637329Y-68740970D01*
X139615151Y-68730480D01*
X139594107Y-68717867D01*
X139574402Y-68703253D01*
X139556223Y-68686777D01*
X139539747Y-68668598D01*
X139525133Y-68648893D01*
X139512520Y-68627849D01*
X139502030Y-68605671D01*
X139493765Y-68582571D01*
X139487804Y-68558773D01*
X139484204Y-68534504D01*
X139483000Y-68510000D01*
X139483000Y-68010000D01*
X139484204Y-67985496D01*
X139487804Y-67961227D01*
X139493765Y-67937429D01*
X139502030Y-67914329D01*
X139512520Y-67892151D01*
X139525133Y-67871107D01*
X139539747Y-67851402D01*
X139556223Y-67833223D01*
X139574402Y-67816747D01*
X139594107Y-67802133D01*
X139615151Y-67789520D01*
X139637329Y-67779030D01*
X139660429Y-67770765D01*
X139684227Y-67764804D01*
X139708496Y-67761204D01*
X139733000Y-67760000D01*
X140683000Y-67760000D01*
X140707504Y-67761204D01*
G37*
G36*
X140707504Y-65861204D02*
G01*
X140731773Y-65864804D01*
X140755571Y-65870765D01*
X140778671Y-65879030D01*
X140800849Y-65889520D01*
X140821893Y-65902133D01*
X140841598Y-65916747D01*
X140859777Y-65933223D01*
X140876253Y-65951402D01*
X140890867Y-65971107D01*
X140903480Y-65992151D01*
X140913970Y-66014329D01*
X140922235Y-66037429D01*
X140928196Y-66061227D01*
X140931796Y-66085496D01*
X140933000Y-66110000D01*
X140933000Y-66610000D01*
X140931796Y-66634504D01*
X140928196Y-66658773D01*
X140922235Y-66682571D01*
X140913970Y-66705671D01*
X140903480Y-66727849D01*
X140890867Y-66748893D01*
X140876253Y-66768598D01*
X140859777Y-66786777D01*
X140841598Y-66803253D01*
X140821893Y-66817867D01*
X140800849Y-66830480D01*
X140778671Y-66840970D01*
X140755571Y-66849235D01*
X140731773Y-66855196D01*
X140707504Y-66858796D01*
X140683000Y-66860000D01*
X139733000Y-66860000D01*
X139708496Y-66858796D01*
X139684227Y-66855196D01*
X139660429Y-66849235D01*
X139637329Y-66840970D01*
X139615151Y-66830480D01*
X139594107Y-66817867D01*
X139574402Y-66803253D01*
X139556223Y-66786777D01*
X139539747Y-66768598D01*
X139525133Y-66748893D01*
X139512520Y-66727849D01*
X139502030Y-66705671D01*
X139493765Y-66682571D01*
X139487804Y-66658773D01*
X139484204Y-66634504D01*
X139483000Y-66610000D01*
X139483000Y-66110000D01*
X139484204Y-66085496D01*
X139487804Y-66061227D01*
X139493765Y-66037429D01*
X139502030Y-66014329D01*
X139512520Y-65992151D01*
X139525133Y-65971107D01*
X139539747Y-65951402D01*
X139556223Y-65933223D01*
X139574402Y-65916747D01*
X139594107Y-65902133D01*
X139615151Y-65889520D01*
X139637329Y-65879030D01*
X139660429Y-65870765D01*
X139684227Y-65864804D01*
X139708496Y-65861204D01*
X139733000Y-65860000D01*
X140683000Y-65860000D01*
X140707504Y-65861204D01*
G37*
G36*
X141534722Y-69979674D02*
G01*
X141548313Y-69981690D01*
X141561640Y-69985028D01*
X141574576Y-69989657D01*
X141586996Y-69995531D01*
X141598780Y-70002594D01*
X141609815Y-70010779D01*
X141619995Y-70020005D01*
X141629221Y-70030185D01*
X141637406Y-70041220D01*
X141644469Y-70053004D01*
X141650343Y-70065424D01*
X141654972Y-70078360D01*
X141658310Y-70091687D01*
X141660326Y-70105278D01*
X141661000Y-70119000D01*
X141661000Y-70399000D01*
X141660326Y-70412722D01*
X141658310Y-70426313D01*
X141654972Y-70439640D01*
X141650343Y-70452576D01*
X141644469Y-70464996D01*
X141637406Y-70476780D01*
X141629221Y-70487815D01*
X141619995Y-70497995D01*
X141609815Y-70507221D01*
X141598780Y-70515406D01*
X141586996Y-70522469D01*
X141574576Y-70528343D01*
X141561640Y-70532972D01*
X141548313Y-70536310D01*
X141534722Y-70538326D01*
X141521000Y-70539000D01*
X141181000Y-70539000D01*
X141167278Y-70538326D01*
X141153687Y-70536310D01*
X141140360Y-70532972D01*
X141127424Y-70528343D01*
X141115004Y-70522469D01*
X141103220Y-70515406D01*
X141092185Y-70507221D01*
X141082005Y-70497995D01*
X141072779Y-70487815D01*
X141064594Y-70476780D01*
X141057531Y-70464996D01*
X141051657Y-70452576D01*
X141047028Y-70439640D01*
X141043690Y-70426313D01*
X141041674Y-70412722D01*
X141041000Y-70399000D01*
X141041000Y-70119000D01*
X141041674Y-70105278D01*
X141043690Y-70091687D01*
X141047028Y-70078360D01*
X141051657Y-70065424D01*
X141057531Y-70053004D01*
X141064594Y-70041220D01*
X141072779Y-70030185D01*
X141082005Y-70020005D01*
X141092185Y-70010779D01*
X141103220Y-70002594D01*
X141115004Y-69995531D01*
X141127424Y-69989657D01*
X141140360Y-69985028D01*
X141153687Y-69981690D01*
X141167278Y-69979674D01*
X141181000Y-69979000D01*
X141521000Y-69979000D01*
X141534722Y-69979674D01*
G37*
G36*
X141534722Y-70939674D02*
G01*
X141548313Y-70941690D01*
X141561640Y-70945028D01*
X141574576Y-70949657D01*
X141586996Y-70955531D01*
X141598780Y-70962594D01*
X141609815Y-70970779D01*
X141619995Y-70980005D01*
X141629221Y-70990185D01*
X141637406Y-71001220D01*
X141644469Y-71013004D01*
X141650343Y-71025424D01*
X141654972Y-71038360D01*
X141658310Y-71051687D01*
X141660326Y-71065278D01*
X141661000Y-71079000D01*
X141661000Y-71359000D01*
X141660326Y-71372722D01*
X141658310Y-71386313D01*
X141654972Y-71399640D01*
X141650343Y-71412576D01*
X141644469Y-71424996D01*
X141637406Y-71436780D01*
X141629221Y-71447815D01*
X141619995Y-71457995D01*
X141609815Y-71467221D01*
X141598780Y-71475406D01*
X141586996Y-71482469D01*
X141574576Y-71488343D01*
X141561640Y-71492972D01*
X141548313Y-71496310D01*
X141534722Y-71498326D01*
X141521000Y-71499000D01*
X141181000Y-71499000D01*
X141167278Y-71498326D01*
X141153687Y-71496310D01*
X141140360Y-71492972D01*
X141127424Y-71488343D01*
X141115004Y-71482469D01*
X141103220Y-71475406D01*
X141092185Y-71467221D01*
X141082005Y-71457995D01*
X141072779Y-71447815D01*
X141064594Y-71436780D01*
X141057531Y-71424996D01*
X141051657Y-71412576D01*
X141047028Y-71399640D01*
X141043690Y-71386313D01*
X141041674Y-71372722D01*
X141041000Y-71359000D01*
X141041000Y-71079000D01*
X141041674Y-71065278D01*
X141043690Y-71051687D01*
X141047028Y-71038360D01*
X141051657Y-71025424D01*
X141057531Y-71013004D01*
X141064594Y-71001220D01*
X141072779Y-70990185D01*
X141082005Y-70980005D01*
X141092185Y-70970779D01*
X141103220Y-70962594D01*
X141115004Y-70955531D01*
X141127424Y-70949657D01*
X141140360Y-70945028D01*
X141153687Y-70941690D01*
X141167278Y-70939674D01*
X141181000Y-70939000D01*
X141521000Y-70939000D01*
X141534722Y-70939674D01*
G37*
G36*
X132071222Y-70429674D02*
G01*
X132084813Y-70431690D01*
X132098140Y-70435028D01*
X132111076Y-70439657D01*
X132123496Y-70445531D01*
X132135280Y-70452594D01*
X132146315Y-70460779D01*
X132156495Y-70470005D01*
X132165721Y-70480185D01*
X132173906Y-70491220D01*
X132180969Y-70503004D01*
X132186843Y-70515424D01*
X132191472Y-70528360D01*
X132194810Y-70541687D01*
X132196826Y-70555278D01*
X132197500Y-70569000D01*
X132197500Y-70909000D01*
X132196826Y-70922722D01*
X132194810Y-70936313D01*
X132191472Y-70949640D01*
X132186843Y-70962576D01*
X132180969Y-70974996D01*
X132173906Y-70986780D01*
X132165721Y-70997815D01*
X132156495Y-71007995D01*
X132146315Y-71017221D01*
X132135280Y-71025406D01*
X132123496Y-71032469D01*
X132111076Y-71038343D01*
X132098140Y-71042972D01*
X132084813Y-71046310D01*
X132071222Y-71048326D01*
X132057500Y-71049000D01*
X131777500Y-71049000D01*
X131763778Y-71048326D01*
X131750187Y-71046310D01*
X131736860Y-71042972D01*
X131723924Y-71038343D01*
X131711504Y-71032469D01*
X131699720Y-71025406D01*
X131688685Y-71017221D01*
X131678505Y-71007995D01*
X131669279Y-70997815D01*
X131661094Y-70986780D01*
X131654031Y-70974996D01*
X131648157Y-70962576D01*
X131643528Y-70949640D01*
X131640190Y-70936313D01*
X131638174Y-70922722D01*
X131637500Y-70909000D01*
X131637500Y-70569000D01*
X131638174Y-70555278D01*
X131640190Y-70541687D01*
X131643528Y-70528360D01*
X131648157Y-70515424D01*
X131654031Y-70503004D01*
X131661094Y-70491220D01*
X131669279Y-70480185D01*
X131678505Y-70470005D01*
X131688685Y-70460779D01*
X131699720Y-70452594D01*
X131711504Y-70445531D01*
X131723924Y-70439657D01*
X131736860Y-70435028D01*
X131750187Y-70431690D01*
X131763778Y-70429674D01*
X131777500Y-70429000D01*
X132057500Y-70429000D01*
X132071222Y-70429674D01*
G37*
G36*
X133031222Y-70429674D02*
G01*
X133044813Y-70431690D01*
X133058140Y-70435028D01*
X133071076Y-70439657D01*
X133083496Y-70445531D01*
X133095280Y-70452594D01*
X133106315Y-70460779D01*
X133116495Y-70470005D01*
X133125721Y-70480185D01*
X133133906Y-70491220D01*
X133140969Y-70503004D01*
X133146843Y-70515424D01*
X133151472Y-70528360D01*
X133154810Y-70541687D01*
X133156826Y-70555278D01*
X133157500Y-70569000D01*
X133157500Y-70909000D01*
X133156826Y-70922722D01*
X133154810Y-70936313D01*
X133151472Y-70949640D01*
X133146843Y-70962576D01*
X133140969Y-70974996D01*
X133133906Y-70986780D01*
X133125721Y-70997815D01*
X133116495Y-71007995D01*
X133106315Y-71017221D01*
X133095280Y-71025406D01*
X133083496Y-71032469D01*
X133071076Y-71038343D01*
X133058140Y-71042972D01*
X133044813Y-71046310D01*
X133031222Y-71048326D01*
X133017500Y-71049000D01*
X132737500Y-71049000D01*
X132723778Y-71048326D01*
X132710187Y-71046310D01*
X132696860Y-71042972D01*
X132683924Y-71038343D01*
X132671504Y-71032469D01*
X132659720Y-71025406D01*
X132648685Y-71017221D01*
X132638505Y-71007995D01*
X132629279Y-70997815D01*
X132621094Y-70986780D01*
X132614031Y-70974996D01*
X132608157Y-70962576D01*
X132603528Y-70949640D01*
X132600190Y-70936313D01*
X132598174Y-70922722D01*
X132597500Y-70909000D01*
X132597500Y-70569000D01*
X132598174Y-70555278D01*
X132600190Y-70541687D01*
X132603528Y-70528360D01*
X132608157Y-70515424D01*
X132614031Y-70503004D01*
X132621094Y-70491220D01*
X132629279Y-70480185D01*
X132638505Y-70470005D01*
X132648685Y-70460779D01*
X132659720Y-70452594D01*
X132671504Y-70445531D01*
X132683924Y-70439657D01*
X132696860Y-70435028D01*
X132710187Y-70431690D01*
X132723778Y-70429674D01*
X132737500Y-70429000D01*
X133017500Y-70429000D01*
X133031222Y-70429674D01*
G37*
G36*
X147173054Y-73186083D02*
G01*
X147194895Y-73189323D01*
X147216314Y-73194688D01*
X147237104Y-73202127D01*
X147257064Y-73211568D01*
X147276003Y-73222919D01*
X147293738Y-73236073D01*
X147310099Y-73250901D01*
X147324927Y-73267262D01*
X147338081Y-73284997D01*
X147349432Y-73303936D01*
X147358873Y-73323896D01*
X147366312Y-73344686D01*
X147371677Y-73366105D01*
X147374917Y-73387946D01*
X147376000Y-73410000D01*
X147376000Y-73910000D01*
X147374917Y-73932054D01*
X147371677Y-73953895D01*
X147366312Y-73975314D01*
X147358873Y-73996104D01*
X147349432Y-74016064D01*
X147338081Y-74035003D01*
X147324927Y-74052738D01*
X147310099Y-74069099D01*
X147293738Y-74083927D01*
X147276003Y-74097081D01*
X147257064Y-74108432D01*
X147237104Y-74117873D01*
X147216314Y-74125312D01*
X147194895Y-74130677D01*
X147173054Y-74133917D01*
X147151000Y-74135000D01*
X146701000Y-74135000D01*
X146678946Y-74133917D01*
X146657105Y-74130677D01*
X146635686Y-74125312D01*
X146614896Y-74117873D01*
X146594936Y-74108432D01*
X146575997Y-74097081D01*
X146558262Y-74083927D01*
X146541901Y-74069099D01*
X146527073Y-74052738D01*
X146513919Y-74035003D01*
X146502568Y-74016064D01*
X146493127Y-73996104D01*
X146485688Y-73975314D01*
X146480323Y-73953895D01*
X146477083Y-73932054D01*
X146476000Y-73910000D01*
X146476000Y-73410000D01*
X146477083Y-73387946D01*
X146480323Y-73366105D01*
X146485688Y-73344686D01*
X146493127Y-73323896D01*
X146502568Y-73303936D01*
X146513919Y-73284997D01*
X146527073Y-73267262D01*
X146541901Y-73250901D01*
X146558262Y-73236073D01*
X146575997Y-73222919D01*
X146594936Y-73211568D01*
X146614896Y-73202127D01*
X146635686Y-73194688D01*
X146657105Y-73189323D01*
X146678946Y-73186083D01*
X146701000Y-73185000D01*
X147151000Y-73185000D01*
X147173054Y-73186083D01*
G37*
G36*
X148723054Y-73186083D02*
G01*
X148744895Y-73189323D01*
X148766314Y-73194688D01*
X148787104Y-73202127D01*
X148807064Y-73211568D01*
X148826003Y-73222919D01*
X148843738Y-73236073D01*
X148860099Y-73250901D01*
X148874927Y-73267262D01*
X148888081Y-73284997D01*
X148899432Y-73303936D01*
X148908873Y-73323896D01*
X148916312Y-73344686D01*
X148921677Y-73366105D01*
X148924917Y-73387946D01*
X148926000Y-73410000D01*
X148926000Y-73910000D01*
X148924917Y-73932054D01*
X148921677Y-73953895D01*
X148916312Y-73975314D01*
X148908873Y-73996104D01*
X148899432Y-74016064D01*
X148888081Y-74035003D01*
X148874927Y-74052738D01*
X148860099Y-74069099D01*
X148843738Y-74083927D01*
X148826003Y-74097081D01*
X148807064Y-74108432D01*
X148787104Y-74117873D01*
X148766314Y-74125312D01*
X148744895Y-74130677D01*
X148723054Y-74133917D01*
X148701000Y-74135000D01*
X148251000Y-74135000D01*
X148228946Y-74133917D01*
X148207105Y-74130677D01*
X148185686Y-74125312D01*
X148164896Y-74117873D01*
X148144936Y-74108432D01*
X148125997Y-74097081D01*
X148108262Y-74083927D01*
X148091901Y-74069099D01*
X148077073Y-74052738D01*
X148063919Y-74035003D01*
X148052568Y-74016064D01*
X148043127Y-73996104D01*
X148035688Y-73975314D01*
X148030323Y-73953895D01*
X148027083Y-73932054D01*
X148026000Y-73910000D01*
X148026000Y-73410000D01*
X148027083Y-73387946D01*
X148030323Y-73366105D01*
X148035688Y-73344686D01*
X148043127Y-73323896D01*
X148052568Y-73303936D01*
X148063919Y-73284997D01*
X148077073Y-73267262D01*
X148091901Y-73250901D01*
X148108262Y-73236073D01*
X148125997Y-73222919D01*
X148144936Y-73211568D01*
X148164896Y-73202127D01*
X148185686Y-73194688D01*
X148207105Y-73189323D01*
X148228946Y-73186083D01*
X148251000Y-73185000D01*
X148701000Y-73185000D01*
X148723054Y-73186083D01*
G37*
G36*
X143947722Y-66550674D02*
G01*
X143961313Y-66552690D01*
X143974640Y-66556028D01*
X143987576Y-66560657D01*
X143999996Y-66566531D01*
X144011780Y-66573594D01*
X144022815Y-66581779D01*
X144032995Y-66591005D01*
X144042221Y-66601185D01*
X144050406Y-66612220D01*
X144057469Y-66624004D01*
X144063343Y-66636424D01*
X144067972Y-66649360D01*
X144071310Y-66662687D01*
X144073326Y-66676278D01*
X144074000Y-66690000D01*
X144074000Y-66970000D01*
X144073326Y-66983722D01*
X144071310Y-66997313D01*
X144067972Y-67010640D01*
X144063343Y-67023576D01*
X144057469Y-67035996D01*
X144050406Y-67047780D01*
X144042221Y-67058815D01*
X144032995Y-67068995D01*
X144022815Y-67078221D01*
X144011780Y-67086406D01*
X143999996Y-67093469D01*
X143987576Y-67099343D01*
X143974640Y-67103972D01*
X143961313Y-67107310D01*
X143947722Y-67109326D01*
X143934000Y-67110000D01*
X143594000Y-67110000D01*
X143580278Y-67109326D01*
X143566687Y-67107310D01*
X143553360Y-67103972D01*
X143540424Y-67099343D01*
X143528004Y-67093469D01*
X143516220Y-67086406D01*
X143505185Y-67078221D01*
X143495005Y-67068995D01*
X143485779Y-67058815D01*
X143477594Y-67047780D01*
X143470531Y-67035996D01*
X143464657Y-67023576D01*
X143460028Y-67010640D01*
X143456690Y-66997313D01*
X143454674Y-66983722D01*
X143454000Y-66970000D01*
X143454000Y-66690000D01*
X143454674Y-66676278D01*
X143456690Y-66662687D01*
X143460028Y-66649360D01*
X143464657Y-66636424D01*
X143470531Y-66624004D01*
X143477594Y-66612220D01*
X143485779Y-66601185D01*
X143495005Y-66591005D01*
X143505185Y-66581779D01*
X143516220Y-66573594D01*
X143528004Y-66566531D01*
X143540424Y-66560657D01*
X143553360Y-66556028D01*
X143566687Y-66552690D01*
X143580278Y-66550674D01*
X143594000Y-66550000D01*
X143934000Y-66550000D01*
X143947722Y-66550674D01*
G37*
G36*
X143947722Y-67510674D02*
G01*
X143961313Y-67512690D01*
X143974640Y-67516028D01*
X143987576Y-67520657D01*
X143999996Y-67526531D01*
X144011780Y-67533594D01*
X144022815Y-67541779D01*
X144032995Y-67551005D01*
X144042221Y-67561185D01*
X144050406Y-67572220D01*
X144057469Y-67584004D01*
X144063343Y-67596424D01*
X144067972Y-67609360D01*
X144071310Y-67622687D01*
X144073326Y-67636278D01*
X144074000Y-67650000D01*
X144074000Y-67930000D01*
X144073326Y-67943722D01*
X144071310Y-67957313D01*
X144067972Y-67970640D01*
X144063343Y-67983576D01*
X144057469Y-67995996D01*
X144050406Y-68007780D01*
X144042221Y-68018815D01*
X144032995Y-68028995D01*
X144022815Y-68038221D01*
X144011780Y-68046406D01*
X143999996Y-68053469D01*
X143987576Y-68059343D01*
X143974640Y-68063972D01*
X143961313Y-68067310D01*
X143947722Y-68069326D01*
X143934000Y-68070000D01*
X143594000Y-68070000D01*
X143580278Y-68069326D01*
X143566687Y-68067310D01*
X143553360Y-68063972D01*
X143540424Y-68059343D01*
X143528004Y-68053469D01*
X143516220Y-68046406D01*
X143505185Y-68038221D01*
X143495005Y-68028995D01*
X143485779Y-68018815D01*
X143477594Y-68007780D01*
X143470531Y-67995996D01*
X143464657Y-67983576D01*
X143460028Y-67970640D01*
X143456690Y-67957313D01*
X143454674Y-67943722D01*
X143454000Y-67930000D01*
X143454000Y-67650000D01*
X143454674Y-67636278D01*
X143456690Y-67622687D01*
X143460028Y-67609360D01*
X143464657Y-67596424D01*
X143470531Y-67584004D01*
X143477594Y-67572220D01*
X143485779Y-67561185D01*
X143495005Y-67551005D01*
X143505185Y-67541779D01*
X143516220Y-67533594D01*
X143528004Y-67526531D01*
X143540424Y-67520657D01*
X143553360Y-67516028D01*
X143566687Y-67512690D01*
X143580278Y-67510674D01*
X143594000Y-67510000D01*
X143934000Y-67510000D01*
X143947722Y-67510674D01*
G37*
D14*
X144610000Y-75311000D03*
X142410000Y-75311000D03*
D13*
G36*
X132035732Y-75118650D02*
G01*
X132048837Y-75120594D01*
X132061688Y-75123813D01*
X132074162Y-75128276D01*
X132086139Y-75133941D01*
X132097502Y-75140752D01*
X132108143Y-75148644D01*
X132117959Y-75157541D01*
X132126856Y-75167357D01*
X132134748Y-75177998D01*
X132141559Y-75189361D01*
X132147224Y-75201338D01*
X132151687Y-75213812D01*
X132154906Y-75226663D01*
X132156850Y-75239768D01*
X132157500Y-75253000D01*
X132157500Y-75623000D01*
X132156850Y-75636232D01*
X132154906Y-75649337D01*
X132151687Y-75662188D01*
X132147224Y-75674662D01*
X132141559Y-75686639D01*
X132134748Y-75698002D01*
X132126856Y-75708643D01*
X132117959Y-75718459D01*
X132108143Y-75727356D01*
X132097502Y-75735248D01*
X132086139Y-75742059D01*
X132074162Y-75747724D01*
X132061688Y-75752187D01*
X132048837Y-75755406D01*
X132035732Y-75757350D01*
X132022500Y-75758000D01*
X131752500Y-75758000D01*
X131739268Y-75757350D01*
X131726163Y-75755406D01*
X131713312Y-75752187D01*
X131700838Y-75747724D01*
X131688861Y-75742059D01*
X131677498Y-75735248D01*
X131666857Y-75727356D01*
X131657041Y-75718459D01*
X131648144Y-75708643D01*
X131640252Y-75698002D01*
X131633441Y-75686639D01*
X131627776Y-75674662D01*
X131623313Y-75662188D01*
X131620094Y-75649337D01*
X131618150Y-75636232D01*
X131617500Y-75623000D01*
X131617500Y-75253000D01*
X131618150Y-75239768D01*
X131620094Y-75226663D01*
X131623313Y-75213812D01*
X131627776Y-75201338D01*
X131633441Y-75189361D01*
X131640252Y-75177998D01*
X131648144Y-75167357D01*
X131657041Y-75157541D01*
X131666857Y-75148644D01*
X131677498Y-75140752D01*
X131688861Y-75133941D01*
X131700838Y-75128276D01*
X131713312Y-75123813D01*
X131726163Y-75120594D01*
X131739268Y-75118650D01*
X131752500Y-75118000D01*
X132022500Y-75118000D01*
X132035732Y-75118650D01*
G37*
G36*
X133055732Y-75118650D02*
G01*
X133068837Y-75120594D01*
X133081688Y-75123813D01*
X133094162Y-75128276D01*
X133106139Y-75133941D01*
X133117502Y-75140752D01*
X133128143Y-75148644D01*
X133137959Y-75157541D01*
X133146856Y-75167357D01*
X133154748Y-75177998D01*
X133161559Y-75189361D01*
X133167224Y-75201338D01*
X133171687Y-75213812D01*
X133174906Y-75226663D01*
X133176850Y-75239768D01*
X133177500Y-75253000D01*
X133177500Y-75623000D01*
X133176850Y-75636232D01*
X133174906Y-75649337D01*
X133171687Y-75662188D01*
X133167224Y-75674662D01*
X133161559Y-75686639D01*
X133154748Y-75698002D01*
X133146856Y-75708643D01*
X133137959Y-75718459D01*
X133128143Y-75727356D01*
X133117502Y-75735248D01*
X133106139Y-75742059D01*
X133094162Y-75747724D01*
X133081688Y-75752187D01*
X133068837Y-75755406D01*
X133055732Y-75757350D01*
X133042500Y-75758000D01*
X132772500Y-75758000D01*
X132759268Y-75757350D01*
X132746163Y-75755406D01*
X132733312Y-75752187D01*
X132720838Y-75747724D01*
X132708861Y-75742059D01*
X132697498Y-75735248D01*
X132686857Y-75727356D01*
X132677041Y-75718459D01*
X132668144Y-75708643D01*
X132660252Y-75698002D01*
X132653441Y-75686639D01*
X132647776Y-75674662D01*
X132643313Y-75662188D01*
X132640094Y-75649337D01*
X132638150Y-75636232D01*
X132637500Y-75623000D01*
X132637500Y-75253000D01*
X132638150Y-75239768D01*
X132640094Y-75226663D01*
X132643313Y-75213812D01*
X132647776Y-75201338D01*
X132653441Y-75189361D01*
X132660252Y-75177998D01*
X132668144Y-75167357D01*
X132677041Y-75157541D01*
X132686857Y-75148644D01*
X132697498Y-75140752D01*
X132708861Y-75133941D01*
X132720838Y-75128276D01*
X132733312Y-75123813D01*
X132746163Y-75120594D01*
X132759268Y-75118650D01*
X132772500Y-75118000D01*
X133042500Y-75118000D01*
X133055732Y-75118650D01*
G37*
G36*
X132035732Y-73467650D02*
G01*
X132048837Y-73469594D01*
X132061688Y-73472813D01*
X132074162Y-73477276D01*
X132086139Y-73482941D01*
X132097502Y-73489752D01*
X132108143Y-73497644D01*
X132117959Y-73506541D01*
X132126856Y-73516357D01*
X132134748Y-73526998D01*
X132141559Y-73538361D01*
X132147224Y-73550338D01*
X132151687Y-73562812D01*
X132154906Y-73575663D01*
X132156850Y-73588768D01*
X132157500Y-73602000D01*
X132157500Y-73972000D01*
X132156850Y-73985232D01*
X132154906Y-73998337D01*
X132151687Y-74011188D01*
X132147224Y-74023662D01*
X132141559Y-74035639D01*
X132134748Y-74047002D01*
X132126856Y-74057643D01*
X132117959Y-74067459D01*
X132108143Y-74076356D01*
X132097502Y-74084248D01*
X132086139Y-74091059D01*
X132074162Y-74096724D01*
X132061688Y-74101187D01*
X132048837Y-74104406D01*
X132035732Y-74106350D01*
X132022500Y-74107000D01*
X131752500Y-74107000D01*
X131739268Y-74106350D01*
X131726163Y-74104406D01*
X131713312Y-74101187D01*
X131700838Y-74096724D01*
X131688861Y-74091059D01*
X131677498Y-74084248D01*
X131666857Y-74076356D01*
X131657041Y-74067459D01*
X131648144Y-74057643D01*
X131640252Y-74047002D01*
X131633441Y-74035639D01*
X131627776Y-74023662D01*
X131623313Y-74011188D01*
X131620094Y-73998337D01*
X131618150Y-73985232D01*
X131617500Y-73972000D01*
X131617500Y-73602000D01*
X131618150Y-73588768D01*
X131620094Y-73575663D01*
X131623313Y-73562812D01*
X131627776Y-73550338D01*
X131633441Y-73538361D01*
X131640252Y-73526998D01*
X131648144Y-73516357D01*
X131657041Y-73506541D01*
X131666857Y-73497644D01*
X131677498Y-73489752D01*
X131688861Y-73482941D01*
X131700838Y-73477276D01*
X131713312Y-73472813D01*
X131726163Y-73469594D01*
X131739268Y-73467650D01*
X131752500Y-73467000D01*
X132022500Y-73467000D01*
X132035732Y-73467650D01*
G37*
G36*
X133055732Y-73467650D02*
G01*
X133068837Y-73469594D01*
X133081688Y-73472813D01*
X133094162Y-73477276D01*
X133106139Y-73482941D01*
X133117502Y-73489752D01*
X133128143Y-73497644D01*
X133137959Y-73506541D01*
X133146856Y-73516357D01*
X133154748Y-73526998D01*
X133161559Y-73538361D01*
X133167224Y-73550338D01*
X133171687Y-73562812D01*
X133174906Y-73575663D01*
X133176850Y-73588768D01*
X133177500Y-73602000D01*
X133177500Y-73972000D01*
X133176850Y-73985232D01*
X133174906Y-73998337D01*
X133171687Y-74011188D01*
X133167224Y-74023662D01*
X133161559Y-74035639D01*
X133154748Y-74047002D01*
X133146856Y-74057643D01*
X133137959Y-74067459D01*
X133128143Y-74076356D01*
X133117502Y-74084248D01*
X133106139Y-74091059D01*
X133094162Y-74096724D01*
X133081688Y-74101187D01*
X133068837Y-74104406D01*
X133055732Y-74106350D01*
X133042500Y-74107000D01*
X132772500Y-74107000D01*
X132759268Y-74106350D01*
X132746163Y-74104406D01*
X132733312Y-74101187D01*
X132720838Y-74096724D01*
X132708861Y-74091059D01*
X132697498Y-74084248D01*
X132686857Y-74076356D01*
X132677041Y-74067459D01*
X132668144Y-74057643D01*
X132660252Y-74047002D01*
X132653441Y-74035639D01*
X132647776Y-74023662D01*
X132643313Y-74011188D01*
X132640094Y-73998337D01*
X132638150Y-73985232D01*
X132637500Y-73972000D01*
X132637500Y-73602000D01*
X132638150Y-73588768D01*
X132640094Y-73575663D01*
X132643313Y-73562812D01*
X132647776Y-73550338D01*
X132653441Y-73538361D01*
X132660252Y-73526998D01*
X132668144Y-73516357D01*
X132677041Y-73506541D01*
X132686857Y-73497644D01*
X132697498Y-73489752D01*
X132708861Y-73482941D01*
X132720838Y-73477276D01*
X132733312Y-73472813D01*
X132746163Y-73469594D01*
X132759268Y-73467650D01*
X132772500Y-73467000D01*
X133042500Y-73467000D01*
X133055732Y-73467650D01*
G37*
G36*
X141549232Y-72245650D02*
G01*
X141562337Y-72247594D01*
X141575188Y-72250813D01*
X141587662Y-72255276D01*
X141599639Y-72260941D01*
X141611002Y-72267752D01*
X141621643Y-72275644D01*
X141631459Y-72284541D01*
X141640356Y-72294357D01*
X141648248Y-72304998D01*
X141655059Y-72316361D01*
X141660724Y-72328338D01*
X141665187Y-72340812D01*
X141668406Y-72353663D01*
X141670350Y-72366768D01*
X141671000Y-72380000D01*
X141671000Y-72650000D01*
X141670350Y-72663232D01*
X141668406Y-72676337D01*
X141665187Y-72689188D01*
X141660724Y-72701662D01*
X141655059Y-72713639D01*
X141648248Y-72725002D01*
X141640356Y-72735643D01*
X141631459Y-72745459D01*
X141621643Y-72754356D01*
X141611002Y-72762248D01*
X141599639Y-72769059D01*
X141587662Y-72774724D01*
X141575188Y-72779187D01*
X141562337Y-72782406D01*
X141549232Y-72784350D01*
X141536000Y-72785000D01*
X141166000Y-72785000D01*
X141152768Y-72784350D01*
X141139663Y-72782406D01*
X141126812Y-72779187D01*
X141114338Y-72774724D01*
X141102361Y-72769059D01*
X141090998Y-72762248D01*
X141080357Y-72754356D01*
X141070541Y-72745459D01*
X141061644Y-72735643D01*
X141053752Y-72725002D01*
X141046941Y-72713639D01*
X141041276Y-72701662D01*
X141036813Y-72689188D01*
X141033594Y-72676337D01*
X141031650Y-72663232D01*
X141031000Y-72650000D01*
X141031000Y-72380000D01*
X141031650Y-72366768D01*
X141033594Y-72353663D01*
X141036813Y-72340812D01*
X141041276Y-72328338D01*
X141046941Y-72316361D01*
X141053752Y-72304998D01*
X141061644Y-72294357D01*
X141070541Y-72284541D01*
X141080357Y-72275644D01*
X141090998Y-72267752D01*
X141102361Y-72260941D01*
X141114338Y-72255276D01*
X141126812Y-72250813D01*
X141139663Y-72247594D01*
X141152768Y-72245650D01*
X141166000Y-72245000D01*
X141536000Y-72245000D01*
X141549232Y-72245650D01*
G37*
G36*
X141549232Y-73265650D02*
G01*
X141562337Y-73267594D01*
X141575188Y-73270813D01*
X141587662Y-73275276D01*
X141599639Y-73280941D01*
X141611002Y-73287752D01*
X141621643Y-73295644D01*
X141631459Y-73304541D01*
X141640356Y-73314357D01*
X141648248Y-73324998D01*
X141655059Y-73336361D01*
X141660724Y-73348338D01*
X141665187Y-73360812D01*
X141668406Y-73373663D01*
X141670350Y-73386768D01*
X141671000Y-73400000D01*
X141671000Y-73670000D01*
X141670350Y-73683232D01*
X141668406Y-73696337D01*
X141665187Y-73709188D01*
X141660724Y-73721662D01*
X141655059Y-73733639D01*
X141648248Y-73745002D01*
X141640356Y-73755643D01*
X141631459Y-73765459D01*
X141621643Y-73774356D01*
X141611002Y-73782248D01*
X141599639Y-73789059D01*
X141587662Y-73794724D01*
X141575188Y-73799187D01*
X141562337Y-73802406D01*
X141549232Y-73804350D01*
X141536000Y-73805000D01*
X141166000Y-73805000D01*
X141152768Y-73804350D01*
X141139663Y-73802406D01*
X141126812Y-73799187D01*
X141114338Y-73794724D01*
X141102361Y-73789059D01*
X141090998Y-73782248D01*
X141080357Y-73774356D01*
X141070541Y-73765459D01*
X141061644Y-73755643D01*
X141053752Y-73745002D01*
X141046941Y-73733639D01*
X141041276Y-73721662D01*
X141036813Y-73709188D01*
X141033594Y-73696337D01*
X141031650Y-73683232D01*
X141031000Y-73670000D01*
X141031000Y-73400000D01*
X141031650Y-73386768D01*
X141033594Y-73373663D01*
X141036813Y-73360812D01*
X141041276Y-73348338D01*
X141046941Y-73336361D01*
X141053752Y-73324998D01*
X141061644Y-73314357D01*
X141070541Y-73304541D01*
X141080357Y-73295644D01*
X141090998Y-73287752D01*
X141102361Y-73280941D01*
X141114338Y-73275276D01*
X141126812Y-73270813D01*
X141139663Y-73267594D01*
X141152768Y-73265650D01*
X141166000Y-73265000D01*
X141536000Y-73265000D01*
X141549232Y-73265650D01*
G37*
G36*
X148105232Y-74864650D02*
G01*
X148118337Y-74866594D01*
X148131188Y-74869813D01*
X148143662Y-74874276D01*
X148155639Y-74879941D01*
X148167002Y-74886752D01*
X148177643Y-74894644D01*
X148187459Y-74903541D01*
X148196356Y-74913357D01*
X148204248Y-74923998D01*
X148211059Y-74935361D01*
X148216724Y-74947338D01*
X148221187Y-74959812D01*
X148224406Y-74972663D01*
X148226350Y-74985768D01*
X148227000Y-74999000D01*
X148227000Y-75369000D01*
X148226350Y-75382232D01*
X148224406Y-75395337D01*
X148221187Y-75408188D01*
X148216724Y-75420662D01*
X148211059Y-75432639D01*
X148204248Y-75444002D01*
X148196356Y-75454643D01*
X148187459Y-75464459D01*
X148177643Y-75473356D01*
X148167002Y-75481248D01*
X148155639Y-75488059D01*
X148143662Y-75493724D01*
X148131188Y-75498187D01*
X148118337Y-75501406D01*
X148105232Y-75503350D01*
X148092000Y-75504000D01*
X147822000Y-75504000D01*
X147808768Y-75503350D01*
X147795663Y-75501406D01*
X147782812Y-75498187D01*
X147770338Y-75493724D01*
X147758361Y-75488059D01*
X147746998Y-75481248D01*
X147736357Y-75473356D01*
X147726541Y-75464459D01*
X147717644Y-75454643D01*
X147709752Y-75444002D01*
X147702941Y-75432639D01*
X147697276Y-75420662D01*
X147692813Y-75408188D01*
X147689594Y-75395337D01*
X147687650Y-75382232D01*
X147687000Y-75369000D01*
X147687000Y-74999000D01*
X147687650Y-74985768D01*
X147689594Y-74972663D01*
X147692813Y-74959812D01*
X147697276Y-74947338D01*
X147702941Y-74935361D01*
X147709752Y-74923998D01*
X147717644Y-74913357D01*
X147726541Y-74903541D01*
X147736357Y-74894644D01*
X147746998Y-74886752D01*
X147758361Y-74879941D01*
X147770338Y-74874276D01*
X147782812Y-74869813D01*
X147795663Y-74866594D01*
X147808768Y-74864650D01*
X147822000Y-74864000D01*
X148092000Y-74864000D01*
X148105232Y-74864650D01*
G37*
G36*
X147085232Y-74864650D02*
G01*
X147098337Y-74866594D01*
X147111188Y-74869813D01*
X147123662Y-74874276D01*
X147135639Y-74879941D01*
X147147002Y-74886752D01*
X147157643Y-74894644D01*
X147167459Y-74903541D01*
X147176356Y-74913357D01*
X147184248Y-74923998D01*
X147191059Y-74935361D01*
X147196724Y-74947338D01*
X147201187Y-74959812D01*
X147204406Y-74972663D01*
X147206350Y-74985768D01*
X147207000Y-74999000D01*
X147207000Y-75369000D01*
X147206350Y-75382232D01*
X147204406Y-75395337D01*
X147201187Y-75408188D01*
X147196724Y-75420662D01*
X147191059Y-75432639D01*
X147184248Y-75444002D01*
X147176356Y-75454643D01*
X147167459Y-75464459D01*
X147157643Y-75473356D01*
X147147002Y-75481248D01*
X147135639Y-75488059D01*
X147123662Y-75493724D01*
X147111188Y-75498187D01*
X147098337Y-75501406D01*
X147085232Y-75503350D01*
X147072000Y-75504000D01*
X146802000Y-75504000D01*
X146788768Y-75503350D01*
X146775663Y-75501406D01*
X146762812Y-75498187D01*
X146750338Y-75493724D01*
X146738361Y-75488059D01*
X146726998Y-75481248D01*
X146716357Y-75473356D01*
X146706541Y-75464459D01*
X146697644Y-75454643D01*
X146689752Y-75444002D01*
X146682941Y-75432639D01*
X146677276Y-75420662D01*
X146672813Y-75408188D01*
X146669594Y-75395337D01*
X146667650Y-75382232D01*
X146667000Y-75369000D01*
X146667000Y-74999000D01*
X146667650Y-74985768D01*
X146669594Y-74972663D01*
X146672813Y-74959812D01*
X146677276Y-74947338D01*
X146682941Y-74935361D01*
X146689752Y-74923998D01*
X146697644Y-74913357D01*
X146706541Y-74903541D01*
X146716357Y-74894644D01*
X146726998Y-74886752D01*
X146738361Y-74879941D01*
X146750338Y-74874276D01*
X146762812Y-74869813D01*
X146775663Y-74866594D01*
X146788768Y-74864650D01*
X146802000Y-74864000D01*
X147072000Y-74864000D01*
X147085232Y-74864650D01*
G37*
G36*
X145325703Y-65511722D02*
G01*
X145340264Y-65513882D01*
X145354543Y-65517459D01*
X145368403Y-65522418D01*
X145381710Y-65528712D01*
X145394336Y-65536280D01*
X145406159Y-65545048D01*
X145417066Y-65554934D01*
X145426952Y-65565841D01*
X145435720Y-65577664D01*
X145443288Y-65590290D01*
X145449582Y-65603597D01*
X145454541Y-65617457D01*
X145458118Y-65631736D01*
X145460278Y-65646297D01*
X145461000Y-65661000D01*
X145461000Y-67311000D01*
X145460278Y-67325703D01*
X145458118Y-67340264D01*
X145454541Y-67354543D01*
X145449582Y-67368403D01*
X145443288Y-67381710D01*
X145435720Y-67394336D01*
X145426952Y-67406159D01*
X145417066Y-67417066D01*
X145406159Y-67426952D01*
X145394336Y-67435720D01*
X145381710Y-67443288D01*
X145368403Y-67449582D01*
X145354543Y-67454541D01*
X145340264Y-67458118D01*
X145325703Y-67460278D01*
X145311000Y-67461000D01*
X145011000Y-67461000D01*
X144996297Y-67460278D01*
X144981736Y-67458118D01*
X144967457Y-67454541D01*
X144953597Y-67449582D01*
X144940290Y-67443288D01*
X144927664Y-67435720D01*
X144915841Y-67426952D01*
X144904934Y-67417066D01*
X144895048Y-67406159D01*
X144886280Y-67394336D01*
X144878712Y-67381710D01*
X144872418Y-67368403D01*
X144867459Y-67354543D01*
X144863882Y-67340264D01*
X144861722Y-67325703D01*
X144861000Y-67311000D01*
X144861000Y-65661000D01*
X144861722Y-65646297D01*
X144863882Y-65631736D01*
X144867459Y-65617457D01*
X144872418Y-65603597D01*
X144878712Y-65590290D01*
X144886280Y-65577664D01*
X144895048Y-65565841D01*
X144904934Y-65554934D01*
X144915841Y-65545048D01*
X144927664Y-65536280D01*
X144940290Y-65528712D01*
X144953597Y-65522418D01*
X144967457Y-65517459D01*
X144981736Y-65513882D01*
X144996297Y-65511722D01*
X145011000Y-65511000D01*
X145311000Y-65511000D01*
X145325703Y-65511722D01*
G37*
G36*
X146595703Y-65511722D02*
G01*
X146610264Y-65513882D01*
X146624543Y-65517459D01*
X146638403Y-65522418D01*
X146651710Y-65528712D01*
X146664336Y-65536280D01*
X146676159Y-65545048D01*
X146687066Y-65554934D01*
X146696952Y-65565841D01*
X146705720Y-65577664D01*
X146713288Y-65590290D01*
X146719582Y-65603597D01*
X146724541Y-65617457D01*
X146728118Y-65631736D01*
X146730278Y-65646297D01*
X146731000Y-65661000D01*
X146731000Y-67311000D01*
X146730278Y-67325703D01*
X146728118Y-67340264D01*
X146724541Y-67354543D01*
X146719582Y-67368403D01*
X146713288Y-67381710D01*
X146705720Y-67394336D01*
X146696952Y-67406159D01*
X146687066Y-67417066D01*
X146676159Y-67426952D01*
X146664336Y-67435720D01*
X146651710Y-67443288D01*
X146638403Y-67449582D01*
X146624543Y-67454541D01*
X146610264Y-67458118D01*
X146595703Y-67460278D01*
X146581000Y-67461000D01*
X146281000Y-67461000D01*
X146266297Y-67460278D01*
X146251736Y-67458118D01*
X146237457Y-67454541D01*
X146223597Y-67449582D01*
X146210290Y-67443288D01*
X146197664Y-67435720D01*
X146185841Y-67426952D01*
X146174934Y-67417066D01*
X146165048Y-67406159D01*
X146156280Y-67394336D01*
X146148712Y-67381710D01*
X146142418Y-67368403D01*
X146137459Y-67354543D01*
X146133882Y-67340264D01*
X146131722Y-67325703D01*
X146131000Y-67311000D01*
X146131000Y-65661000D01*
X146131722Y-65646297D01*
X146133882Y-65631736D01*
X146137459Y-65617457D01*
X146142418Y-65603597D01*
X146148712Y-65590290D01*
X146156280Y-65577664D01*
X146165048Y-65565841D01*
X146174934Y-65554934D01*
X146185841Y-65545048D01*
X146197664Y-65536280D01*
X146210290Y-65528712D01*
X146223597Y-65522418D01*
X146237457Y-65517459D01*
X146251736Y-65513882D01*
X146266297Y-65511722D01*
X146281000Y-65511000D01*
X146581000Y-65511000D01*
X146595703Y-65511722D01*
G37*
G36*
X147865703Y-65511722D02*
G01*
X147880264Y-65513882D01*
X147894543Y-65517459D01*
X147908403Y-65522418D01*
X147921710Y-65528712D01*
X147934336Y-65536280D01*
X147946159Y-65545048D01*
X147957066Y-65554934D01*
X147966952Y-65565841D01*
X147975720Y-65577664D01*
X147983288Y-65590290D01*
X147989582Y-65603597D01*
X147994541Y-65617457D01*
X147998118Y-65631736D01*
X148000278Y-65646297D01*
X148001000Y-65661000D01*
X148001000Y-67311000D01*
X148000278Y-67325703D01*
X147998118Y-67340264D01*
X147994541Y-67354543D01*
X147989582Y-67368403D01*
X147983288Y-67381710D01*
X147975720Y-67394336D01*
X147966952Y-67406159D01*
X147957066Y-67417066D01*
X147946159Y-67426952D01*
X147934336Y-67435720D01*
X147921710Y-67443288D01*
X147908403Y-67449582D01*
X147894543Y-67454541D01*
X147880264Y-67458118D01*
X147865703Y-67460278D01*
X147851000Y-67461000D01*
X147551000Y-67461000D01*
X147536297Y-67460278D01*
X147521736Y-67458118D01*
X147507457Y-67454541D01*
X147493597Y-67449582D01*
X147480290Y-67443288D01*
X147467664Y-67435720D01*
X147455841Y-67426952D01*
X147444934Y-67417066D01*
X147435048Y-67406159D01*
X147426280Y-67394336D01*
X147418712Y-67381710D01*
X147412418Y-67368403D01*
X147407459Y-67354543D01*
X147403882Y-67340264D01*
X147401722Y-67325703D01*
X147401000Y-67311000D01*
X147401000Y-65661000D01*
X147401722Y-65646297D01*
X147403882Y-65631736D01*
X147407459Y-65617457D01*
X147412418Y-65603597D01*
X147418712Y-65590290D01*
X147426280Y-65577664D01*
X147435048Y-65565841D01*
X147444934Y-65554934D01*
X147455841Y-65545048D01*
X147467664Y-65536280D01*
X147480290Y-65528712D01*
X147493597Y-65522418D01*
X147507457Y-65517459D01*
X147521736Y-65513882D01*
X147536297Y-65511722D01*
X147551000Y-65511000D01*
X147851000Y-65511000D01*
X147865703Y-65511722D01*
G37*
G36*
X149135703Y-65511722D02*
G01*
X149150264Y-65513882D01*
X149164543Y-65517459D01*
X149178403Y-65522418D01*
X149191710Y-65528712D01*
X149204336Y-65536280D01*
X149216159Y-65545048D01*
X149227066Y-65554934D01*
X149236952Y-65565841D01*
X149245720Y-65577664D01*
X149253288Y-65590290D01*
X149259582Y-65603597D01*
X149264541Y-65617457D01*
X149268118Y-65631736D01*
X149270278Y-65646297D01*
X149271000Y-65661000D01*
X149271000Y-67311000D01*
X149270278Y-67325703D01*
X149268118Y-67340264D01*
X149264541Y-67354543D01*
X149259582Y-67368403D01*
X149253288Y-67381710D01*
X149245720Y-67394336D01*
X149236952Y-67406159D01*
X149227066Y-67417066D01*
X149216159Y-67426952D01*
X149204336Y-67435720D01*
X149191710Y-67443288D01*
X149178403Y-67449582D01*
X149164543Y-67454541D01*
X149150264Y-67458118D01*
X149135703Y-67460278D01*
X149121000Y-67461000D01*
X148821000Y-67461000D01*
X148806297Y-67460278D01*
X148791736Y-67458118D01*
X148777457Y-67454541D01*
X148763597Y-67449582D01*
X148750290Y-67443288D01*
X148737664Y-67435720D01*
X148725841Y-67426952D01*
X148714934Y-67417066D01*
X148705048Y-67406159D01*
X148696280Y-67394336D01*
X148688712Y-67381710D01*
X148682418Y-67368403D01*
X148677459Y-67354543D01*
X148673882Y-67340264D01*
X148671722Y-67325703D01*
X148671000Y-67311000D01*
X148671000Y-65661000D01*
X148671722Y-65646297D01*
X148673882Y-65631736D01*
X148677459Y-65617457D01*
X148682418Y-65603597D01*
X148688712Y-65590290D01*
X148696280Y-65577664D01*
X148705048Y-65565841D01*
X148714934Y-65554934D01*
X148725841Y-65545048D01*
X148737664Y-65536280D01*
X148750290Y-65528712D01*
X148763597Y-65522418D01*
X148777457Y-65517459D01*
X148791736Y-65513882D01*
X148806297Y-65511722D01*
X148821000Y-65511000D01*
X149121000Y-65511000D01*
X149135703Y-65511722D01*
G37*
G36*
X149135703Y-70461722D02*
G01*
X149150264Y-70463882D01*
X149164543Y-70467459D01*
X149178403Y-70472418D01*
X149191710Y-70478712D01*
X149204336Y-70486280D01*
X149216159Y-70495048D01*
X149227066Y-70504934D01*
X149236952Y-70515841D01*
X149245720Y-70527664D01*
X149253288Y-70540290D01*
X149259582Y-70553597D01*
X149264541Y-70567457D01*
X149268118Y-70581736D01*
X149270278Y-70596297D01*
X149271000Y-70611000D01*
X149271000Y-72261000D01*
X149270278Y-72275703D01*
X149268118Y-72290264D01*
X149264541Y-72304543D01*
X149259582Y-72318403D01*
X149253288Y-72331710D01*
X149245720Y-72344336D01*
X149236952Y-72356159D01*
X149227066Y-72367066D01*
X149216159Y-72376952D01*
X149204336Y-72385720D01*
X149191710Y-72393288D01*
X149178403Y-72399582D01*
X149164543Y-72404541D01*
X149150264Y-72408118D01*
X149135703Y-72410278D01*
X149121000Y-72411000D01*
X148821000Y-72411000D01*
X148806297Y-72410278D01*
X148791736Y-72408118D01*
X148777457Y-72404541D01*
X148763597Y-72399582D01*
X148750290Y-72393288D01*
X148737664Y-72385720D01*
X148725841Y-72376952D01*
X148714934Y-72367066D01*
X148705048Y-72356159D01*
X148696280Y-72344336D01*
X148688712Y-72331710D01*
X148682418Y-72318403D01*
X148677459Y-72304543D01*
X148673882Y-72290264D01*
X148671722Y-72275703D01*
X148671000Y-72261000D01*
X148671000Y-70611000D01*
X148671722Y-70596297D01*
X148673882Y-70581736D01*
X148677459Y-70567457D01*
X148682418Y-70553597D01*
X148688712Y-70540290D01*
X148696280Y-70527664D01*
X148705048Y-70515841D01*
X148714934Y-70504934D01*
X148725841Y-70495048D01*
X148737664Y-70486280D01*
X148750290Y-70478712D01*
X148763597Y-70472418D01*
X148777457Y-70467459D01*
X148791736Y-70463882D01*
X148806297Y-70461722D01*
X148821000Y-70461000D01*
X149121000Y-70461000D01*
X149135703Y-70461722D01*
G37*
G36*
X147865703Y-70461722D02*
G01*
X147880264Y-70463882D01*
X147894543Y-70467459D01*
X147908403Y-70472418D01*
X147921710Y-70478712D01*
X147934336Y-70486280D01*
X147946159Y-70495048D01*
X147957066Y-70504934D01*
X147966952Y-70515841D01*
X147975720Y-70527664D01*
X147983288Y-70540290D01*
X147989582Y-70553597D01*
X147994541Y-70567457D01*
X147998118Y-70581736D01*
X148000278Y-70596297D01*
X148001000Y-70611000D01*
X148001000Y-72261000D01*
X148000278Y-72275703D01*
X147998118Y-72290264D01*
X147994541Y-72304543D01*
X147989582Y-72318403D01*
X147983288Y-72331710D01*
X147975720Y-72344336D01*
X147966952Y-72356159D01*
X147957066Y-72367066D01*
X147946159Y-72376952D01*
X147934336Y-72385720D01*
X147921710Y-72393288D01*
X147908403Y-72399582D01*
X147894543Y-72404541D01*
X147880264Y-72408118D01*
X147865703Y-72410278D01*
X147851000Y-72411000D01*
X147551000Y-72411000D01*
X147536297Y-72410278D01*
X147521736Y-72408118D01*
X147507457Y-72404541D01*
X147493597Y-72399582D01*
X147480290Y-72393288D01*
X147467664Y-72385720D01*
X147455841Y-72376952D01*
X147444934Y-72367066D01*
X147435048Y-72356159D01*
X147426280Y-72344336D01*
X147418712Y-72331710D01*
X147412418Y-72318403D01*
X147407459Y-72304543D01*
X147403882Y-72290264D01*
X147401722Y-72275703D01*
X147401000Y-72261000D01*
X147401000Y-70611000D01*
X147401722Y-70596297D01*
X147403882Y-70581736D01*
X147407459Y-70567457D01*
X147412418Y-70553597D01*
X147418712Y-70540290D01*
X147426280Y-70527664D01*
X147435048Y-70515841D01*
X147444934Y-70504934D01*
X147455841Y-70495048D01*
X147467664Y-70486280D01*
X147480290Y-70478712D01*
X147493597Y-70472418D01*
X147507457Y-70467459D01*
X147521736Y-70463882D01*
X147536297Y-70461722D01*
X147551000Y-70461000D01*
X147851000Y-70461000D01*
X147865703Y-70461722D01*
G37*
G36*
X146595703Y-70461722D02*
G01*
X146610264Y-70463882D01*
X146624543Y-70467459D01*
X146638403Y-70472418D01*
X146651710Y-70478712D01*
X146664336Y-70486280D01*
X146676159Y-70495048D01*
X146687066Y-70504934D01*
X146696952Y-70515841D01*
X146705720Y-70527664D01*
X146713288Y-70540290D01*
X146719582Y-70553597D01*
X146724541Y-70567457D01*
X146728118Y-70581736D01*
X146730278Y-70596297D01*
X146731000Y-70611000D01*
X146731000Y-72261000D01*
X146730278Y-72275703D01*
X146728118Y-72290264D01*
X146724541Y-72304543D01*
X146719582Y-72318403D01*
X146713288Y-72331710D01*
X146705720Y-72344336D01*
X146696952Y-72356159D01*
X146687066Y-72367066D01*
X146676159Y-72376952D01*
X146664336Y-72385720D01*
X146651710Y-72393288D01*
X146638403Y-72399582D01*
X146624543Y-72404541D01*
X146610264Y-72408118D01*
X146595703Y-72410278D01*
X146581000Y-72411000D01*
X146281000Y-72411000D01*
X146266297Y-72410278D01*
X146251736Y-72408118D01*
X146237457Y-72404541D01*
X146223597Y-72399582D01*
X146210290Y-72393288D01*
X146197664Y-72385720D01*
X146185841Y-72376952D01*
X146174934Y-72367066D01*
X146165048Y-72356159D01*
X146156280Y-72344336D01*
X146148712Y-72331710D01*
X146142418Y-72318403D01*
X146137459Y-72304543D01*
X146133882Y-72290264D01*
X146131722Y-72275703D01*
X146131000Y-72261000D01*
X146131000Y-70611000D01*
X146131722Y-70596297D01*
X146133882Y-70581736D01*
X146137459Y-70567457D01*
X146142418Y-70553597D01*
X146148712Y-70540290D01*
X146156280Y-70527664D01*
X146165048Y-70515841D01*
X146174934Y-70504934D01*
X146185841Y-70495048D01*
X146197664Y-70486280D01*
X146210290Y-70478712D01*
X146223597Y-70472418D01*
X146237457Y-70467459D01*
X146251736Y-70463882D01*
X146266297Y-70461722D01*
X146281000Y-70461000D01*
X146581000Y-70461000D01*
X146595703Y-70461722D01*
G37*
G36*
X145325703Y-70461722D02*
G01*
X145340264Y-70463882D01*
X145354543Y-70467459D01*
X145368403Y-70472418D01*
X145381710Y-70478712D01*
X145394336Y-70486280D01*
X145406159Y-70495048D01*
X145417066Y-70504934D01*
X145426952Y-70515841D01*
X145435720Y-70527664D01*
X145443288Y-70540290D01*
X145449582Y-70553597D01*
X145454541Y-70567457D01*
X145458118Y-70581736D01*
X145460278Y-70596297D01*
X145461000Y-70611000D01*
X145461000Y-72261000D01*
X145460278Y-72275703D01*
X145458118Y-72290264D01*
X145454541Y-72304543D01*
X145449582Y-72318403D01*
X145443288Y-72331710D01*
X145435720Y-72344336D01*
X145426952Y-72356159D01*
X145417066Y-72367066D01*
X145406159Y-72376952D01*
X145394336Y-72385720D01*
X145381710Y-72393288D01*
X145368403Y-72399582D01*
X145354543Y-72404541D01*
X145340264Y-72408118D01*
X145325703Y-72410278D01*
X145311000Y-72411000D01*
X145011000Y-72411000D01*
X144996297Y-72410278D01*
X144981736Y-72408118D01*
X144967457Y-72404541D01*
X144953597Y-72399582D01*
X144940290Y-72393288D01*
X144927664Y-72385720D01*
X144915841Y-72376952D01*
X144904934Y-72367066D01*
X144895048Y-72356159D01*
X144886280Y-72344336D01*
X144878712Y-72331710D01*
X144872418Y-72318403D01*
X144867459Y-72304543D01*
X144863882Y-72290264D01*
X144861722Y-72275703D01*
X144861000Y-72261000D01*
X144861000Y-70611000D01*
X144861722Y-70596297D01*
X144863882Y-70581736D01*
X144867459Y-70567457D01*
X144872418Y-70553597D01*
X144878712Y-70540290D01*
X144886280Y-70527664D01*
X144895048Y-70515841D01*
X144904934Y-70504934D01*
X144915841Y-70495048D01*
X144927664Y-70486280D01*
X144940290Y-70478712D01*
X144953597Y-70472418D01*
X144967457Y-70467459D01*
X144981736Y-70463882D01*
X144996297Y-70461722D01*
X145011000Y-70461000D01*
X145311000Y-70461000D01*
X145325703Y-70461722D01*
G37*
G36*
X132306142Y-59282174D02*
G01*
X132329803Y-59285684D01*
X132353007Y-59291496D01*
X132375529Y-59299554D01*
X132397153Y-59309782D01*
X132417670Y-59322079D01*
X132436883Y-59336329D01*
X132454607Y-59352393D01*
X132470671Y-59370117D01*
X132484921Y-59389330D01*
X132497218Y-59409847D01*
X132507446Y-59431471D01*
X132515504Y-59453993D01*
X132521316Y-59477197D01*
X132524826Y-59500858D01*
X132526000Y-59524750D01*
X132526000Y-60012250D01*
X132524826Y-60036142D01*
X132521316Y-60059803D01*
X132515504Y-60083007D01*
X132507446Y-60105529D01*
X132497218Y-60127153D01*
X132484921Y-60147670D01*
X132470671Y-60166883D01*
X132454607Y-60184607D01*
X132436883Y-60200671D01*
X132417670Y-60214921D01*
X132397153Y-60227218D01*
X132375529Y-60237446D01*
X132353007Y-60245504D01*
X132329803Y-60251316D01*
X132306142Y-60254826D01*
X132282250Y-60256000D01*
X131369750Y-60256000D01*
X131345858Y-60254826D01*
X131322197Y-60251316D01*
X131298993Y-60245504D01*
X131276471Y-60237446D01*
X131254847Y-60227218D01*
X131234330Y-60214921D01*
X131215117Y-60200671D01*
X131197393Y-60184607D01*
X131181329Y-60166883D01*
X131167079Y-60147670D01*
X131154782Y-60127153D01*
X131144554Y-60105529D01*
X131136496Y-60083007D01*
X131130684Y-60059803D01*
X131127174Y-60036142D01*
X131126000Y-60012250D01*
X131126000Y-59524750D01*
X131127174Y-59500858D01*
X131130684Y-59477197D01*
X131136496Y-59453993D01*
X131144554Y-59431471D01*
X131154782Y-59409847D01*
X131167079Y-59389330D01*
X131181329Y-59370117D01*
X131197393Y-59352393D01*
X131215117Y-59336329D01*
X131234330Y-59322079D01*
X131254847Y-59309782D01*
X131276471Y-59299554D01*
X131298993Y-59291496D01*
X131322197Y-59285684D01*
X131345858Y-59282174D01*
X131369750Y-59281000D01*
X132282250Y-59281000D01*
X132306142Y-59282174D01*
G37*
G36*
X132306142Y-61157174D02*
G01*
X132329803Y-61160684D01*
X132353007Y-61166496D01*
X132375529Y-61174554D01*
X132397153Y-61184782D01*
X132417670Y-61197079D01*
X132436883Y-61211329D01*
X132454607Y-61227393D01*
X132470671Y-61245117D01*
X132484921Y-61264330D01*
X132497218Y-61284847D01*
X132507446Y-61306471D01*
X132515504Y-61328993D01*
X132521316Y-61352197D01*
X132524826Y-61375858D01*
X132526000Y-61399750D01*
X132526000Y-61887250D01*
X132524826Y-61911142D01*
X132521316Y-61934803D01*
X132515504Y-61958007D01*
X132507446Y-61980529D01*
X132497218Y-62002153D01*
X132484921Y-62022670D01*
X132470671Y-62041883D01*
X132454607Y-62059607D01*
X132436883Y-62075671D01*
X132417670Y-62089921D01*
X132397153Y-62102218D01*
X132375529Y-62112446D01*
X132353007Y-62120504D01*
X132329803Y-62126316D01*
X132306142Y-62129826D01*
X132282250Y-62131000D01*
X131369750Y-62131000D01*
X131345858Y-62129826D01*
X131322197Y-62126316D01*
X131298993Y-62120504D01*
X131276471Y-62112446D01*
X131254847Y-62102218D01*
X131234330Y-62089921D01*
X131215117Y-62075671D01*
X131197393Y-62059607D01*
X131181329Y-62041883D01*
X131167079Y-62022670D01*
X131154782Y-62002153D01*
X131144554Y-61980529D01*
X131136496Y-61958007D01*
X131130684Y-61934803D01*
X131127174Y-61911142D01*
X131126000Y-61887250D01*
X131126000Y-61399750D01*
X131127174Y-61375858D01*
X131130684Y-61352197D01*
X131136496Y-61328993D01*
X131144554Y-61306471D01*
X131154782Y-61284847D01*
X131167079Y-61264330D01*
X131181329Y-61245117D01*
X131197393Y-61227393D01*
X131215117Y-61211329D01*
X131234330Y-61197079D01*
X131254847Y-61184782D01*
X131276471Y-61174554D01*
X131298993Y-61166496D01*
X131322197Y-61160684D01*
X131345858Y-61157174D01*
X131369750Y-61156000D01*
X132282250Y-61156000D01*
X132306142Y-61157174D01*
G37*
G36*
X150086142Y-61411174D02*
G01*
X150109803Y-61414684D01*
X150133007Y-61420496D01*
X150155529Y-61428554D01*
X150177153Y-61438782D01*
X150197670Y-61451079D01*
X150216883Y-61465329D01*
X150234607Y-61481393D01*
X150250671Y-61499117D01*
X150264921Y-61518330D01*
X150277218Y-61538847D01*
X150287446Y-61560471D01*
X150295504Y-61582993D01*
X150301316Y-61606197D01*
X150304826Y-61629858D01*
X150306000Y-61653750D01*
X150306000Y-62141250D01*
X150304826Y-62165142D01*
X150301316Y-62188803D01*
X150295504Y-62212007D01*
X150287446Y-62234529D01*
X150277218Y-62256153D01*
X150264921Y-62276670D01*
X150250671Y-62295883D01*
X150234607Y-62313607D01*
X150216883Y-62329671D01*
X150197670Y-62343921D01*
X150177153Y-62356218D01*
X150155529Y-62366446D01*
X150133007Y-62374504D01*
X150109803Y-62380316D01*
X150086142Y-62383826D01*
X150062250Y-62385000D01*
X149149750Y-62385000D01*
X149125858Y-62383826D01*
X149102197Y-62380316D01*
X149078993Y-62374504D01*
X149056471Y-62366446D01*
X149034847Y-62356218D01*
X149014330Y-62343921D01*
X148995117Y-62329671D01*
X148977393Y-62313607D01*
X148961329Y-62295883D01*
X148947079Y-62276670D01*
X148934782Y-62256153D01*
X148924554Y-62234529D01*
X148916496Y-62212007D01*
X148910684Y-62188803D01*
X148907174Y-62165142D01*
X148906000Y-62141250D01*
X148906000Y-61653750D01*
X148907174Y-61629858D01*
X148910684Y-61606197D01*
X148916496Y-61582993D01*
X148924554Y-61560471D01*
X148934782Y-61538847D01*
X148947079Y-61518330D01*
X148961329Y-61499117D01*
X148977393Y-61481393D01*
X148995117Y-61465329D01*
X149014330Y-61451079D01*
X149034847Y-61438782D01*
X149056471Y-61428554D01*
X149078993Y-61420496D01*
X149102197Y-61414684D01*
X149125858Y-61411174D01*
X149149750Y-61410000D01*
X150062250Y-61410000D01*
X150086142Y-61411174D01*
G37*
G36*
X150086142Y-59536174D02*
G01*
X150109803Y-59539684D01*
X150133007Y-59545496D01*
X150155529Y-59553554D01*
X150177153Y-59563782D01*
X150197670Y-59576079D01*
X150216883Y-59590329D01*
X150234607Y-59606393D01*
X150250671Y-59624117D01*
X150264921Y-59643330D01*
X150277218Y-59663847D01*
X150287446Y-59685471D01*
X150295504Y-59707993D01*
X150301316Y-59731197D01*
X150304826Y-59754858D01*
X150306000Y-59778750D01*
X150306000Y-60266250D01*
X150304826Y-60290142D01*
X150301316Y-60313803D01*
X150295504Y-60337007D01*
X150287446Y-60359529D01*
X150277218Y-60381153D01*
X150264921Y-60401670D01*
X150250671Y-60420883D01*
X150234607Y-60438607D01*
X150216883Y-60454671D01*
X150197670Y-60468921D01*
X150177153Y-60481218D01*
X150155529Y-60491446D01*
X150133007Y-60499504D01*
X150109803Y-60505316D01*
X150086142Y-60508826D01*
X150062250Y-60510000D01*
X149149750Y-60510000D01*
X149125858Y-60508826D01*
X149102197Y-60505316D01*
X149078993Y-60499504D01*
X149056471Y-60491446D01*
X149034847Y-60481218D01*
X149014330Y-60468921D01*
X148995117Y-60454671D01*
X148977393Y-60438607D01*
X148961329Y-60420883D01*
X148947079Y-60401670D01*
X148934782Y-60381153D01*
X148924554Y-60359529D01*
X148916496Y-60337007D01*
X148910684Y-60313803D01*
X148907174Y-60290142D01*
X148906000Y-60266250D01*
X148906000Y-59778750D01*
X148907174Y-59754858D01*
X148910684Y-59731197D01*
X148916496Y-59707993D01*
X148924554Y-59685471D01*
X148934782Y-59663847D01*
X148947079Y-59643330D01*
X148961329Y-59624117D01*
X148977393Y-59606393D01*
X148995117Y-59590329D01*
X149014330Y-59576079D01*
X149034847Y-59563782D01*
X149056471Y-59553554D01*
X149078993Y-59545496D01*
X149102197Y-59539684D01*
X149125858Y-59536174D01*
X149149750Y-59535000D01*
X150062250Y-59535000D01*
X150086142Y-59536174D01*
G37*
G36*
X138444504Y-61736204D02*
G01*
X138468773Y-61739804D01*
X138492571Y-61745765D01*
X138515671Y-61754030D01*
X138537849Y-61764520D01*
X138558893Y-61777133D01*
X138578598Y-61791747D01*
X138596777Y-61808223D01*
X138613253Y-61826402D01*
X138627867Y-61846107D01*
X138640480Y-61867151D01*
X138650970Y-61889329D01*
X138659235Y-61912429D01*
X138665196Y-61936227D01*
X138668796Y-61960496D01*
X138670000Y-61985000D01*
X138670000Y-62735000D01*
X138668796Y-62759504D01*
X138665196Y-62783773D01*
X138659235Y-62807571D01*
X138650970Y-62830671D01*
X138640480Y-62852849D01*
X138627867Y-62873893D01*
X138613253Y-62893598D01*
X138596777Y-62911777D01*
X138578598Y-62928253D01*
X138558893Y-62942867D01*
X138537849Y-62955480D01*
X138515671Y-62965970D01*
X138492571Y-62974235D01*
X138468773Y-62980196D01*
X138444504Y-62983796D01*
X138420000Y-62985000D01*
X137170000Y-62985000D01*
X137145496Y-62983796D01*
X137121227Y-62980196D01*
X137097429Y-62974235D01*
X137074329Y-62965970D01*
X137052151Y-62955480D01*
X137031107Y-62942867D01*
X137011402Y-62928253D01*
X136993223Y-62911777D01*
X136976747Y-62893598D01*
X136962133Y-62873893D01*
X136949520Y-62852849D01*
X136939030Y-62830671D01*
X136930765Y-62807571D01*
X136924804Y-62783773D01*
X136921204Y-62759504D01*
X136920000Y-62735000D01*
X136920000Y-61985000D01*
X136921204Y-61960496D01*
X136924804Y-61936227D01*
X136930765Y-61912429D01*
X136939030Y-61889329D01*
X136949520Y-61867151D01*
X136962133Y-61846107D01*
X136976747Y-61826402D01*
X136993223Y-61808223D01*
X137011402Y-61791747D01*
X137031107Y-61777133D01*
X137052151Y-61764520D01*
X137074329Y-61754030D01*
X137097429Y-61745765D01*
X137121227Y-61739804D01*
X137145496Y-61736204D01*
X137170000Y-61735000D01*
X138420000Y-61735000D01*
X138444504Y-61736204D01*
G37*
G36*
X138444504Y-58936204D02*
G01*
X138468773Y-58939804D01*
X138492571Y-58945765D01*
X138515671Y-58954030D01*
X138537849Y-58964520D01*
X138558893Y-58977133D01*
X138578598Y-58991747D01*
X138596777Y-59008223D01*
X138613253Y-59026402D01*
X138627867Y-59046107D01*
X138640480Y-59067151D01*
X138650970Y-59089329D01*
X138659235Y-59112429D01*
X138665196Y-59136227D01*
X138668796Y-59160496D01*
X138670000Y-59185000D01*
X138670000Y-59935000D01*
X138668796Y-59959504D01*
X138665196Y-59983773D01*
X138659235Y-60007571D01*
X138650970Y-60030671D01*
X138640480Y-60052849D01*
X138627867Y-60073893D01*
X138613253Y-60093598D01*
X138596777Y-60111777D01*
X138578598Y-60128253D01*
X138558893Y-60142867D01*
X138537849Y-60155480D01*
X138515671Y-60165970D01*
X138492571Y-60174235D01*
X138468773Y-60180196D01*
X138444504Y-60183796D01*
X138420000Y-60185000D01*
X137170000Y-60185000D01*
X137145496Y-60183796D01*
X137121227Y-60180196D01*
X137097429Y-60174235D01*
X137074329Y-60165970D01*
X137052151Y-60155480D01*
X137031107Y-60142867D01*
X137011402Y-60128253D01*
X136993223Y-60111777D01*
X136976747Y-60093598D01*
X136962133Y-60073893D01*
X136949520Y-60052849D01*
X136939030Y-60030671D01*
X136930765Y-60007571D01*
X136924804Y-59983773D01*
X136921204Y-59959504D01*
X136920000Y-59935000D01*
X136920000Y-59185000D01*
X136921204Y-59160496D01*
X136924804Y-59136227D01*
X136930765Y-59112429D01*
X136939030Y-59089329D01*
X136949520Y-59067151D01*
X136962133Y-59046107D01*
X136976747Y-59026402D01*
X136993223Y-59008223D01*
X137011402Y-58991747D01*
X137031107Y-58977133D01*
X137052151Y-58964520D01*
X137074329Y-58954030D01*
X137097429Y-58945765D01*
X137121227Y-58939804D01*
X137145496Y-58936204D01*
X137170000Y-58935000D01*
X138420000Y-58935000D01*
X138444504Y-58936204D01*
G37*
D15*
X143145000Y-60645000D03*
X143145000Y-62545000D03*
X145145000Y-61595000D03*
D13*
G36*
X134914603Y-61131963D02*
G01*
X134934018Y-61134843D01*
X134953057Y-61139612D01*
X134971537Y-61146224D01*
X134989279Y-61154616D01*
X135006114Y-61164706D01*
X135021879Y-61176398D01*
X135036421Y-61189579D01*
X135049602Y-61204121D01*
X135061294Y-61219886D01*
X135071384Y-61236721D01*
X135079776Y-61254463D01*
X135086388Y-61272943D01*
X135091157Y-61291982D01*
X135094037Y-61311397D01*
X135095000Y-61331000D01*
X135095000Y-61731000D01*
X135094037Y-61750603D01*
X135091157Y-61770018D01*
X135086388Y-61789057D01*
X135079776Y-61807537D01*
X135071384Y-61825279D01*
X135061294Y-61842114D01*
X135049602Y-61857879D01*
X135036421Y-61872421D01*
X135021879Y-61885602D01*
X135006114Y-61897294D01*
X134989279Y-61907384D01*
X134971537Y-61915776D01*
X134953057Y-61922388D01*
X134934018Y-61927157D01*
X134914603Y-61930037D01*
X134895000Y-61931000D01*
X134345000Y-61931000D01*
X134325397Y-61930037D01*
X134305982Y-61927157D01*
X134286943Y-61922388D01*
X134268463Y-61915776D01*
X134250721Y-61907384D01*
X134233886Y-61897294D01*
X134218121Y-61885602D01*
X134203579Y-61872421D01*
X134190398Y-61857879D01*
X134178706Y-61842114D01*
X134168616Y-61825279D01*
X134160224Y-61807537D01*
X134153612Y-61789057D01*
X134148843Y-61770018D01*
X134145963Y-61750603D01*
X134145000Y-61731000D01*
X134145000Y-61331000D01*
X134145963Y-61311397D01*
X134148843Y-61291982D01*
X134153612Y-61272943D01*
X134160224Y-61254463D01*
X134168616Y-61236721D01*
X134178706Y-61219886D01*
X134190398Y-61204121D01*
X134203579Y-61189579D01*
X134218121Y-61176398D01*
X134233886Y-61164706D01*
X134250721Y-61154616D01*
X134268463Y-61146224D01*
X134286943Y-61139612D01*
X134305982Y-61134843D01*
X134325397Y-61131963D01*
X134345000Y-61131000D01*
X134895000Y-61131000D01*
X134914603Y-61131963D01*
G37*
G36*
X134914603Y-59481963D02*
G01*
X134934018Y-59484843D01*
X134953057Y-59489612D01*
X134971537Y-59496224D01*
X134989279Y-59504616D01*
X135006114Y-59514706D01*
X135021879Y-59526398D01*
X135036421Y-59539579D01*
X135049602Y-59554121D01*
X135061294Y-59569886D01*
X135071384Y-59586721D01*
X135079776Y-59604463D01*
X135086388Y-59622943D01*
X135091157Y-59641982D01*
X135094037Y-59661397D01*
X135095000Y-59681000D01*
X135095000Y-60081000D01*
X135094037Y-60100603D01*
X135091157Y-60120018D01*
X135086388Y-60139057D01*
X135079776Y-60157537D01*
X135071384Y-60175279D01*
X135061294Y-60192114D01*
X135049602Y-60207879D01*
X135036421Y-60222421D01*
X135021879Y-60235602D01*
X135006114Y-60247294D01*
X134989279Y-60257384D01*
X134971537Y-60265776D01*
X134953057Y-60272388D01*
X134934018Y-60277157D01*
X134914603Y-60280037D01*
X134895000Y-60281000D01*
X134345000Y-60281000D01*
X134325397Y-60280037D01*
X134305982Y-60277157D01*
X134286943Y-60272388D01*
X134268463Y-60265776D01*
X134250721Y-60257384D01*
X134233886Y-60247294D01*
X134218121Y-60235602D01*
X134203579Y-60222421D01*
X134190398Y-60207879D01*
X134178706Y-60192114D01*
X134168616Y-60175279D01*
X134160224Y-60157537D01*
X134153612Y-60139057D01*
X134148843Y-60120018D01*
X134145963Y-60100603D01*
X134145000Y-60081000D01*
X134145000Y-59681000D01*
X134145963Y-59661397D01*
X134148843Y-59641982D01*
X134153612Y-59622943D01*
X134160224Y-59604463D01*
X134168616Y-59586721D01*
X134178706Y-59569886D01*
X134190398Y-59554121D01*
X134203579Y-59539579D01*
X134218121Y-59526398D01*
X134233886Y-59514706D01*
X134250721Y-59504616D01*
X134268463Y-59496224D01*
X134286943Y-59489612D01*
X134305982Y-59484843D01*
X134325397Y-59481963D01*
X134345000Y-59481000D01*
X134895000Y-59481000D01*
X134914603Y-59481963D01*
G37*
G36*
X147614603Y-59735963D02*
G01*
X147634018Y-59738843D01*
X147653057Y-59743612D01*
X147671537Y-59750224D01*
X147689279Y-59758616D01*
X147706114Y-59768706D01*
X147721879Y-59780398D01*
X147736421Y-59793579D01*
X147749602Y-59808121D01*
X147761294Y-59823886D01*
X147771384Y-59840721D01*
X147779776Y-59858463D01*
X147786388Y-59876943D01*
X147791157Y-59895982D01*
X147794037Y-59915397D01*
X147795000Y-59935000D01*
X147795000Y-60335000D01*
X147794037Y-60354603D01*
X147791157Y-60374018D01*
X147786388Y-60393057D01*
X147779776Y-60411537D01*
X147771384Y-60429279D01*
X147761294Y-60446114D01*
X147749602Y-60461879D01*
X147736421Y-60476421D01*
X147721879Y-60489602D01*
X147706114Y-60501294D01*
X147689279Y-60511384D01*
X147671537Y-60519776D01*
X147653057Y-60526388D01*
X147634018Y-60531157D01*
X147614603Y-60534037D01*
X147595000Y-60535000D01*
X147045000Y-60535000D01*
X147025397Y-60534037D01*
X147005982Y-60531157D01*
X146986943Y-60526388D01*
X146968463Y-60519776D01*
X146950721Y-60511384D01*
X146933886Y-60501294D01*
X146918121Y-60489602D01*
X146903579Y-60476421D01*
X146890398Y-60461879D01*
X146878706Y-60446114D01*
X146868616Y-60429279D01*
X146860224Y-60411537D01*
X146853612Y-60393057D01*
X146848843Y-60374018D01*
X146845963Y-60354603D01*
X146845000Y-60335000D01*
X146845000Y-59935000D01*
X146845963Y-59915397D01*
X146848843Y-59895982D01*
X146853612Y-59876943D01*
X146860224Y-59858463D01*
X146868616Y-59840721D01*
X146878706Y-59823886D01*
X146890398Y-59808121D01*
X146903579Y-59793579D01*
X146918121Y-59780398D01*
X146933886Y-59768706D01*
X146950721Y-59758616D01*
X146968463Y-59750224D01*
X146986943Y-59743612D01*
X147005982Y-59738843D01*
X147025397Y-59735963D01*
X147045000Y-59735000D01*
X147595000Y-59735000D01*
X147614603Y-59735963D01*
G37*
G36*
X147614603Y-61385963D02*
G01*
X147634018Y-61388843D01*
X147653057Y-61393612D01*
X147671537Y-61400224D01*
X147689279Y-61408616D01*
X147706114Y-61418706D01*
X147721879Y-61430398D01*
X147736421Y-61443579D01*
X147749602Y-61458121D01*
X147761294Y-61473886D01*
X147771384Y-61490721D01*
X147779776Y-61508463D01*
X147786388Y-61526943D01*
X147791157Y-61545982D01*
X147794037Y-61565397D01*
X147795000Y-61585000D01*
X147795000Y-61985000D01*
X147794037Y-62004603D01*
X147791157Y-62024018D01*
X147786388Y-62043057D01*
X147779776Y-62061537D01*
X147771384Y-62079279D01*
X147761294Y-62096114D01*
X147749602Y-62111879D01*
X147736421Y-62126421D01*
X147721879Y-62139602D01*
X147706114Y-62151294D01*
X147689279Y-62161384D01*
X147671537Y-62169776D01*
X147653057Y-62176388D01*
X147634018Y-62181157D01*
X147614603Y-62184037D01*
X147595000Y-62185000D01*
X147045000Y-62185000D01*
X147025397Y-62184037D01*
X147005982Y-62181157D01*
X146986943Y-62176388D01*
X146968463Y-62169776D01*
X146950721Y-62161384D01*
X146933886Y-62151294D01*
X146918121Y-62139602D01*
X146903579Y-62126421D01*
X146890398Y-62111879D01*
X146878706Y-62096114D01*
X146868616Y-62079279D01*
X146860224Y-62061537D01*
X146853612Y-62043057D01*
X146848843Y-62024018D01*
X146845963Y-62004603D01*
X146845000Y-61985000D01*
X146845000Y-61585000D01*
X146845963Y-61565397D01*
X146848843Y-61545982D01*
X146853612Y-61526943D01*
X146860224Y-61508463D01*
X146868616Y-61490721D01*
X146878706Y-61473886D01*
X146890398Y-61458121D01*
X146903579Y-61443579D01*
X146918121Y-61430398D01*
X146933886Y-61418706D01*
X146950721Y-61408616D01*
X146968463Y-61400224D01*
X146986943Y-61393612D01*
X147005982Y-61388843D01*
X147025397Y-61385963D01*
X147045000Y-61385000D01*
X147595000Y-61385000D01*
X147614603Y-61385963D01*
G37*
G36*
X143908232Y-58735650D02*
G01*
X143921337Y-58737594D01*
X143934188Y-58740813D01*
X143946662Y-58745276D01*
X143958639Y-58750941D01*
X143970002Y-58757752D01*
X143980643Y-58765644D01*
X143990459Y-58774541D01*
X143999356Y-58784357D01*
X144007248Y-58794998D01*
X144014059Y-58806361D01*
X144019724Y-58818338D01*
X144024187Y-58830812D01*
X144027406Y-58843663D01*
X144029350Y-58856768D01*
X144030000Y-58870000D01*
X144030000Y-59240000D01*
X144029350Y-59253232D01*
X144027406Y-59266337D01*
X144024187Y-59279188D01*
X144019724Y-59291662D01*
X144014059Y-59303639D01*
X144007248Y-59315002D01*
X143999356Y-59325643D01*
X143990459Y-59335459D01*
X143980643Y-59344356D01*
X143970002Y-59352248D01*
X143958639Y-59359059D01*
X143946662Y-59364724D01*
X143934188Y-59369187D01*
X143921337Y-59372406D01*
X143908232Y-59374350D01*
X143895000Y-59375000D01*
X143625000Y-59375000D01*
X143611768Y-59374350D01*
X143598663Y-59372406D01*
X143585812Y-59369187D01*
X143573338Y-59364724D01*
X143561361Y-59359059D01*
X143549998Y-59352248D01*
X143539357Y-59344356D01*
X143529541Y-59335459D01*
X143520644Y-59325643D01*
X143512752Y-59315002D01*
X143505941Y-59303639D01*
X143500276Y-59291662D01*
X143495813Y-59279188D01*
X143492594Y-59266337D01*
X143490650Y-59253232D01*
X143490000Y-59240000D01*
X143490000Y-58870000D01*
X143490650Y-58856768D01*
X143492594Y-58843663D01*
X143495813Y-58830812D01*
X143500276Y-58818338D01*
X143505941Y-58806361D01*
X143512752Y-58794998D01*
X143520644Y-58784357D01*
X143529541Y-58774541D01*
X143539357Y-58765644D01*
X143549998Y-58757752D01*
X143561361Y-58750941D01*
X143573338Y-58745276D01*
X143585812Y-58740813D01*
X143598663Y-58737594D01*
X143611768Y-58735650D01*
X143625000Y-58735000D01*
X143895000Y-58735000D01*
X143908232Y-58735650D01*
G37*
G36*
X144928232Y-58735650D02*
G01*
X144941337Y-58737594D01*
X144954188Y-58740813D01*
X144966662Y-58745276D01*
X144978639Y-58750941D01*
X144990002Y-58757752D01*
X145000643Y-58765644D01*
X145010459Y-58774541D01*
X145019356Y-58784357D01*
X145027248Y-58794998D01*
X145034059Y-58806361D01*
X145039724Y-58818338D01*
X145044187Y-58830812D01*
X145047406Y-58843663D01*
X145049350Y-58856768D01*
X145050000Y-58870000D01*
X145050000Y-59240000D01*
X145049350Y-59253232D01*
X145047406Y-59266337D01*
X145044187Y-59279188D01*
X145039724Y-59291662D01*
X145034059Y-59303639D01*
X145027248Y-59315002D01*
X145019356Y-59325643D01*
X145010459Y-59335459D01*
X145000643Y-59344356D01*
X144990002Y-59352248D01*
X144978639Y-59359059D01*
X144966662Y-59364724D01*
X144954188Y-59369187D01*
X144941337Y-59372406D01*
X144928232Y-59374350D01*
X144915000Y-59375000D01*
X144645000Y-59375000D01*
X144631768Y-59374350D01*
X144618663Y-59372406D01*
X144605812Y-59369187D01*
X144593338Y-59364724D01*
X144581361Y-59359059D01*
X144569998Y-59352248D01*
X144559357Y-59344356D01*
X144549541Y-59335459D01*
X144540644Y-59325643D01*
X144532752Y-59315002D01*
X144525941Y-59303639D01*
X144520276Y-59291662D01*
X144515813Y-59279188D01*
X144512594Y-59266337D01*
X144510650Y-59253232D01*
X144510000Y-59240000D01*
X144510000Y-58870000D01*
X144510650Y-58856768D01*
X144512594Y-58843663D01*
X144515813Y-58830812D01*
X144520276Y-58818338D01*
X144525941Y-58806361D01*
X144532752Y-58794998D01*
X144540644Y-58784357D01*
X144549541Y-58774541D01*
X144559357Y-58765644D01*
X144569998Y-58757752D01*
X144581361Y-58750941D01*
X144593338Y-58745276D01*
X144605812Y-58740813D01*
X144618663Y-58737594D01*
X144631768Y-58735650D01*
X144645000Y-58735000D01*
X144915000Y-58735000D01*
X144928232Y-58735650D01*
G37*
M02*
