G04 #@! TF.GenerationSoftware,KiCad,Pcbnew,(5.1.5)-3*
G04 #@! TF.CreationDate,2021-02-08T22:28:45-08:00*
G04 #@! TF.ProjectId,MoistureSensor,4d6f6973-7475-4726-9553-656e736f722e,rev?*
G04 #@! TF.SameCoordinates,Original*
G04 #@! TF.FileFunction,Legend,Bot*
G04 #@! TF.FilePolarity,Positive*
%FSLAX46Y46*%
G04 Gerber Fmt 4.6, Leading zero omitted, Abs format (unit mm)*
G04 Created by KiCad (PCBNEW (5.1.5)-3) date 2021-02-08 22:28:45*
%MOMM*%
%LPD*%
G04 APERTURE LIST*
%ADD10C,0.125000*%
%ADD11C,0.187500*%
%ADD12C,0.120000*%
%ADD13C,0.150000*%
%ADD14C,0.100000*%
%ADD15C,0.200000*%
%ADD16C,0.010000*%
%ADD17C,0.400000*%
%ADD18C,0.127000*%
%ADD19C,0.015000*%
G04 APERTURE END LIST*
D10*
X133008666Y-73366380D02*
X132842000Y-74366380D01*
X132675333Y-73366380D01*
X133008666Y-69048380D02*
X132842000Y-70048380D01*
X132675333Y-69048380D01*
D11*
X143992142Y-36534285D02*
X144349285Y-36534285D01*
X144349285Y-35784285D01*
X143742142Y-36141428D02*
X143492142Y-36141428D01*
X143385000Y-36534285D02*
X143742142Y-36534285D01*
X143742142Y-35784285D01*
X143385000Y-35784285D01*
X143063571Y-36534285D02*
X143063571Y-35784285D01*
X142885000Y-35784285D01*
X142777857Y-35820000D01*
X142706428Y-35891428D01*
X142670714Y-35962857D01*
X142635000Y-36105714D01*
X142635000Y-36212857D01*
X142670714Y-36355714D01*
X142706428Y-36427142D01*
X142777857Y-36498571D01*
X142885000Y-36534285D01*
X143063571Y-36534285D01*
X139197857Y-36498571D02*
X139090714Y-36534285D01*
X138912142Y-36534285D01*
X138840714Y-36498571D01*
X138805000Y-36462857D01*
X138769285Y-36391428D01*
X138769285Y-36320000D01*
X138805000Y-36248571D01*
X138840714Y-36212857D01*
X138912142Y-36177142D01*
X139055000Y-36141428D01*
X139126428Y-36105714D01*
X139162142Y-36070000D01*
X139197857Y-35998571D01*
X139197857Y-35927142D01*
X139162142Y-35855714D01*
X139126428Y-35820000D01*
X139055000Y-35784285D01*
X138876428Y-35784285D01*
X138769285Y-35820000D01*
X138447857Y-36534285D02*
X138447857Y-35784285D01*
X137697857Y-35820000D02*
X137769285Y-35784285D01*
X137876428Y-35784285D01*
X137983571Y-35820000D01*
X138055000Y-35891428D01*
X138090714Y-35962857D01*
X138126428Y-36105714D01*
X138126428Y-36212857D01*
X138090714Y-36355714D01*
X138055000Y-36427142D01*
X137983571Y-36498571D01*
X137876428Y-36534285D01*
X137805000Y-36534285D01*
X137697857Y-36498571D01*
X137662142Y-36462857D01*
X137662142Y-36212857D01*
X137805000Y-36212857D01*
X141541428Y-35820000D02*
X141612857Y-35784285D01*
X141720000Y-35784285D01*
X141827142Y-35820000D01*
X141898571Y-35891428D01*
X141934285Y-35962857D01*
X141970000Y-36105714D01*
X141970000Y-36212857D01*
X141934285Y-36355714D01*
X141898571Y-36427142D01*
X141827142Y-36498571D01*
X141720000Y-36534285D01*
X141648571Y-36534285D01*
X141541428Y-36498571D01*
X141505714Y-36462857D01*
X141505714Y-36212857D01*
X141648571Y-36212857D01*
X141184285Y-36534285D02*
X141184285Y-35784285D01*
X140755714Y-36534285D01*
X140755714Y-35784285D01*
X140398571Y-36534285D02*
X140398571Y-35784285D01*
X140220000Y-35784285D01*
X140112857Y-35820000D01*
X140041428Y-35891428D01*
X140005714Y-35962857D01*
X139970000Y-36105714D01*
X139970000Y-36212857D01*
X140005714Y-36355714D01*
X140041428Y-36427142D01*
X140112857Y-36498571D01*
X140220000Y-36534285D01*
X140398571Y-36534285D01*
X136032857Y-35784285D02*
X136390000Y-35784285D01*
X136425714Y-36141428D01*
X136390000Y-36105714D01*
X136318571Y-36070000D01*
X136140000Y-36070000D01*
X136068571Y-36105714D01*
X136032857Y-36141428D01*
X135997142Y-36212857D01*
X135997142Y-36391428D01*
X136032857Y-36462857D01*
X136068571Y-36498571D01*
X136140000Y-36534285D01*
X136318571Y-36534285D01*
X136390000Y-36498571D01*
X136425714Y-36462857D01*
X135782857Y-35784285D02*
X135532857Y-36534285D01*
X135282857Y-35784285D01*
D12*
X149225000Y-58420000D02*
X149225000Y-63500000D01*
X131445000Y-58420000D02*
X149225000Y-58420000D01*
X131445000Y-63500000D02*
X131445000Y-58420000D01*
D13*
X155487619Y-110744523D02*
X155487619Y-111411190D01*
X154487619Y-110982619D01*
X155487619Y-112220714D02*
X155487619Y-112030238D01*
X155440000Y-111935000D01*
X155392380Y-111887380D01*
X155249523Y-111792142D01*
X155059047Y-111744523D01*
X154678095Y-111744523D01*
X154582857Y-111792142D01*
X154535238Y-111839761D01*
X154487619Y-111935000D01*
X154487619Y-112125476D01*
X154535238Y-112220714D01*
X154582857Y-112268333D01*
X154678095Y-112315952D01*
X154916190Y-112315952D01*
X155011428Y-112268333D01*
X155059047Y-112220714D01*
X155106666Y-112125476D01*
X155106666Y-111935000D01*
X155059047Y-111839761D01*
X155011428Y-111792142D01*
X154916190Y-111744523D01*
X154582857Y-112744523D02*
X154535238Y-112792142D01*
X154487619Y-112744523D01*
X154535238Y-112696904D01*
X154582857Y-112744523D01*
X154487619Y-112744523D01*
X155392380Y-113173095D02*
X155440000Y-113220714D01*
X155487619Y-113315952D01*
X155487619Y-113554047D01*
X155440000Y-113649285D01*
X155392380Y-113696904D01*
X155297142Y-113744523D01*
X155201904Y-113744523D01*
X155059047Y-113696904D01*
X154487619Y-113125476D01*
X154487619Y-113744523D01*
X155487619Y-114363571D02*
X155487619Y-114458809D01*
X155440000Y-114554047D01*
X155392380Y-114601666D01*
X155297142Y-114649285D01*
X155106666Y-114696904D01*
X154868571Y-114696904D01*
X154678095Y-114649285D01*
X154582857Y-114601666D01*
X154535238Y-114554047D01*
X154487619Y-114458809D01*
X154487619Y-114363571D01*
X154535238Y-114268333D01*
X154582857Y-114220714D01*
X154678095Y-114173095D01*
X154868571Y-114125476D01*
X155106666Y-114125476D01*
X155297142Y-114173095D01*
X155392380Y-114220714D01*
X155440000Y-114268333D01*
X155487619Y-114363571D01*
X155487619Y-115315952D02*
X155487619Y-115411190D01*
X155440000Y-115506428D01*
X155392380Y-115554047D01*
X155297142Y-115601666D01*
X155106666Y-115649285D01*
X154868571Y-115649285D01*
X154678095Y-115601666D01*
X154582857Y-115554047D01*
X154535238Y-115506428D01*
X154487619Y-115411190D01*
X154487619Y-115315952D01*
X154535238Y-115220714D01*
X154582857Y-115173095D01*
X154678095Y-115125476D01*
X154868571Y-115077857D01*
X155106666Y-115077857D01*
X155297142Y-115125476D01*
X155392380Y-115173095D01*
X155440000Y-115220714D01*
X155487619Y-115315952D01*
X154487619Y-116839761D02*
X155154285Y-116839761D01*
X155059047Y-116839761D02*
X155106666Y-116887380D01*
X155154285Y-116982619D01*
X155154285Y-117125476D01*
X155106666Y-117220714D01*
X155011428Y-117268333D01*
X154487619Y-117268333D01*
X155011428Y-117268333D02*
X155106666Y-117315952D01*
X155154285Y-117411190D01*
X155154285Y-117554047D01*
X155106666Y-117649285D01*
X155011428Y-117696904D01*
X154487619Y-117696904D01*
X154487619Y-118173095D02*
X155154285Y-118173095D01*
X155059047Y-118173095D02*
X155106666Y-118220714D01*
X155154285Y-118315952D01*
X155154285Y-118458809D01*
X155106666Y-118554047D01*
X155011428Y-118601666D01*
X154487619Y-118601666D01*
X155011428Y-118601666D02*
X155106666Y-118649285D01*
X155154285Y-118744523D01*
X155154285Y-118887380D01*
X155106666Y-118982619D01*
X155011428Y-119030238D01*
X154487619Y-119030238D01*
D12*
X153670000Y-76835000D02*
X153670000Y-153035000D01*
X151130000Y-76835000D02*
X154256421Y-76835000D01*
X151130000Y-153035000D02*
X154256421Y-153035000D01*
X153670000Y-153035000D02*
X153083579Y-151908496D01*
X153670000Y-153035000D02*
X154256421Y-151908496D01*
X153670000Y-76835000D02*
X153083579Y-77961504D01*
X153670000Y-76835000D02*
X154256421Y-77961504D01*
D14*
G36*
X142875000Y-75565000D02*
G01*
X133350000Y-75565000D01*
X133350000Y-71755000D01*
X142875000Y-71755000D01*
X142875000Y-75565000D01*
G37*
X142875000Y-75565000D02*
X133350000Y-75565000D01*
X133350000Y-71755000D01*
X142875000Y-71755000D01*
X142875000Y-75565000D01*
G36*
X140970000Y-66675000D02*
G01*
X132715000Y-66675000D01*
X132715000Y-59055000D01*
X140970000Y-59055000D01*
X140970000Y-66675000D01*
G37*
X140970000Y-66675000D02*
X132715000Y-66675000D01*
X132715000Y-59055000D01*
X140970000Y-59055000D01*
X140970000Y-66675000D01*
D12*
X131445000Y-76835000D02*
X149225000Y-76835000D01*
X131445000Y-63500000D02*
X131445000Y-76835000D01*
X149225000Y-79375000D02*
X132715000Y-79375000D01*
X149225000Y-76835000D02*
X149225000Y-63500000D01*
D13*
X146716666Y-69667380D02*
X147192857Y-69667380D01*
X147192857Y-68667380D01*
X146240476Y-69667380D02*
X146335714Y-69619761D01*
X146383333Y-69572142D01*
X146430952Y-69476904D01*
X146430952Y-69191190D01*
X146383333Y-69095952D01*
X146335714Y-69048333D01*
X146240476Y-69000714D01*
X146097619Y-69000714D01*
X146002380Y-69048333D01*
X145954761Y-69095952D01*
X145907142Y-69191190D01*
X145907142Y-69476904D01*
X145954761Y-69572142D01*
X146002380Y-69619761D01*
X146097619Y-69667380D01*
X146240476Y-69667380D01*
X145573809Y-69000714D02*
X145383333Y-69667380D01*
X145192857Y-69191190D01*
X145002380Y-69667380D01*
X144811904Y-69000714D01*
X147224571Y-74112380D02*
X147224571Y-73112380D01*
X147224571Y-73588571D02*
X146653142Y-73588571D01*
X146653142Y-74112380D02*
X146653142Y-73112380D01*
X146176952Y-74112380D02*
X146176952Y-73445714D01*
X146176952Y-73112380D02*
X146224571Y-73160000D01*
X146176952Y-73207619D01*
X146129333Y-73160000D01*
X146176952Y-73112380D01*
X146176952Y-73207619D01*
X145272190Y-73445714D02*
X145272190Y-74255238D01*
X145319809Y-74350476D01*
X145367428Y-74398095D01*
X145462666Y-74445714D01*
X145605523Y-74445714D01*
X145700761Y-74398095D01*
X145272190Y-74064761D02*
X145367428Y-74112380D01*
X145557904Y-74112380D01*
X145653142Y-74064761D01*
X145700761Y-74017142D01*
X145748380Y-73921904D01*
X145748380Y-73636190D01*
X145700761Y-73540952D01*
X145653142Y-73493333D01*
X145557904Y-73445714D01*
X145367428Y-73445714D01*
X145272190Y-73493333D01*
X144796000Y-74112380D02*
X144796000Y-73112380D01*
X144367428Y-74112380D02*
X144367428Y-73588571D01*
X144415047Y-73493333D01*
X144510285Y-73445714D01*
X144653142Y-73445714D01*
X144748380Y-73493333D01*
X144796000Y-73540952D01*
X148486380Y-62888761D02*
X148343523Y-62936380D01*
X148105428Y-62936380D01*
X148010190Y-62888761D01*
X147962571Y-62841142D01*
X147914952Y-62745904D01*
X147914952Y-62650666D01*
X147962571Y-62555428D01*
X148010190Y-62507809D01*
X148105428Y-62460190D01*
X148295904Y-62412571D01*
X148391142Y-62364952D01*
X148438761Y-62317333D01*
X148486380Y-62222095D01*
X148486380Y-62126857D01*
X148438761Y-62031619D01*
X148391142Y-61984000D01*
X148295904Y-61936380D01*
X148057809Y-61936380D01*
X147914952Y-61984000D01*
X147105428Y-62888761D02*
X147200666Y-62936380D01*
X147391142Y-62936380D01*
X147486380Y-62888761D01*
X147534000Y-62793523D01*
X147534000Y-62412571D01*
X147486380Y-62317333D01*
X147391142Y-62269714D01*
X147200666Y-62269714D01*
X147105428Y-62317333D01*
X147057809Y-62412571D01*
X147057809Y-62507809D01*
X147534000Y-62603047D01*
X146629238Y-62269714D02*
X146629238Y-62936380D01*
X146629238Y-62364952D02*
X146581619Y-62317333D01*
X146486380Y-62269714D01*
X146343523Y-62269714D01*
X146248285Y-62317333D01*
X146200666Y-62412571D01*
X146200666Y-62936380D01*
X145772095Y-62888761D02*
X145676857Y-62936380D01*
X145486380Y-62936380D01*
X145391142Y-62888761D01*
X145343523Y-62793523D01*
X145343523Y-62745904D01*
X145391142Y-62650666D01*
X145486380Y-62603047D01*
X145629238Y-62603047D01*
X145724476Y-62555428D01*
X145772095Y-62460190D01*
X145772095Y-62412571D01*
X145724476Y-62317333D01*
X145629238Y-62269714D01*
X145486380Y-62269714D01*
X145391142Y-62317333D01*
X144772095Y-62936380D02*
X144867333Y-62888761D01*
X144914952Y-62841142D01*
X144962571Y-62745904D01*
X144962571Y-62460190D01*
X144914952Y-62364952D01*
X144867333Y-62317333D01*
X144772095Y-62269714D01*
X144629238Y-62269714D01*
X144534000Y-62317333D01*
X144486380Y-62364952D01*
X144438761Y-62460190D01*
X144438761Y-62745904D01*
X144486380Y-62841142D01*
X144534000Y-62888761D01*
X144629238Y-62936380D01*
X144772095Y-62936380D01*
X144010190Y-62936380D02*
X144010190Y-62269714D01*
X144010190Y-62460190D02*
X143962571Y-62364952D01*
X143914952Y-62317333D01*
X143819714Y-62269714D01*
X143724476Y-62269714D01*
X142629238Y-62936380D02*
X142629238Y-61936380D01*
X142153047Y-62936380D02*
X142153047Y-61936380D01*
X141914952Y-61936380D01*
X141772095Y-61984000D01*
X141676857Y-62079238D01*
X141629238Y-62174476D01*
X141581619Y-62364952D01*
X141581619Y-62507809D01*
X141629238Y-62698285D01*
X141676857Y-62793523D01*
X141772095Y-62888761D01*
X141914952Y-62936380D01*
X142153047Y-62936380D01*
D14*
G36*
X142875000Y-71120000D02*
G01*
X133350000Y-71120000D01*
X133350000Y-67310000D01*
X142875000Y-67310000D01*
X142875000Y-71120000D01*
G37*
X142875000Y-71120000D02*
X133350000Y-71120000D01*
X133350000Y-67310000D01*
X142875000Y-67310000D01*
X142875000Y-71120000D01*
D13*
X143585000Y-79079285D02*
X143585000Y-78329285D01*
X143406428Y-78329285D01*
X143299285Y-78365000D01*
X143227857Y-78436428D01*
X143192142Y-78507857D01*
X143156428Y-78650714D01*
X143156428Y-78757857D01*
X143192142Y-78900714D01*
X143227857Y-78972142D01*
X143299285Y-79043571D01*
X143406428Y-79079285D01*
X143585000Y-79079285D01*
X142835000Y-78686428D02*
X142585000Y-78686428D01*
X142477857Y-79079285D02*
X142835000Y-79079285D01*
X142835000Y-78329285D01*
X142477857Y-78329285D01*
X142156428Y-79079285D02*
X142156428Y-78329285D01*
X141870714Y-78329285D01*
X141799285Y-78365000D01*
X141763571Y-78400714D01*
X141727857Y-78472142D01*
X141727857Y-78579285D01*
X141763571Y-78650714D01*
X141799285Y-78686428D01*
X141870714Y-78722142D01*
X142156428Y-78722142D01*
X141513571Y-78329285D02*
X141085000Y-78329285D01*
X141299285Y-79079285D02*
X141299285Y-78329285D01*
X140835000Y-79079285D02*
X140835000Y-78329285D01*
X140835000Y-78686428D02*
X140406428Y-78686428D01*
X140406428Y-79079285D02*
X140406428Y-78329285D01*
X139120714Y-79079285D02*
X139477857Y-79079285D01*
X139477857Y-78329285D01*
X138870714Y-79079285D02*
X138870714Y-78329285D01*
X138513571Y-79079285D02*
X138513571Y-78329285D01*
X138263571Y-78865000D01*
X138013571Y-78329285D01*
X138013571Y-79079285D01*
X137656428Y-79079285D02*
X137656428Y-78329285D01*
X137406428Y-78329285D02*
X136977857Y-78329285D01*
X137192142Y-79079285D02*
X137192142Y-78329285D01*
D15*
X131445000Y-79375000D02*
X149860000Y-79375000D01*
D13*
X144573047Y-49236380D02*
X144573047Y-49950666D01*
X144620666Y-50093523D01*
X144715904Y-50188761D01*
X144858761Y-50236380D01*
X144954000Y-50236380D01*
X143620666Y-50236380D02*
X144096857Y-50236380D01*
X144096857Y-49236380D01*
X142715904Y-50141142D02*
X142763523Y-50188761D01*
X142906380Y-50236380D01*
X143001619Y-50236380D01*
X143144476Y-50188761D01*
X143239714Y-50093523D01*
X143287333Y-49998285D01*
X143334952Y-49807809D01*
X143334952Y-49664952D01*
X143287333Y-49474476D01*
X143239714Y-49379238D01*
X143144476Y-49284000D01*
X143001619Y-49236380D01*
X142906380Y-49236380D01*
X142763523Y-49284000D01*
X142715904Y-49331619D01*
X142001619Y-49236380D02*
X142001619Y-49950666D01*
X142049238Y-50093523D01*
X142144476Y-50188761D01*
X142287333Y-50236380D01*
X142382571Y-50236380D01*
X141049238Y-50236380D02*
X141525428Y-50236380D01*
X141525428Y-49236380D01*
X140144476Y-50141142D02*
X140192095Y-50188761D01*
X140334952Y-50236380D01*
X140430190Y-50236380D01*
X140573047Y-50188761D01*
X140668285Y-50093523D01*
X140715904Y-49998285D01*
X140763523Y-49807809D01*
X140763523Y-49664952D01*
X140715904Y-49474476D01*
X140668285Y-49379238D01*
X140573047Y-49284000D01*
X140430190Y-49236380D01*
X140334952Y-49236380D01*
X140192095Y-49284000D01*
X140144476Y-49331619D01*
X139430190Y-49236380D02*
X139430190Y-49950666D01*
X139477809Y-50093523D01*
X139573047Y-50188761D01*
X139715904Y-50236380D01*
X139811142Y-50236380D01*
X138477809Y-50236380D02*
X138954000Y-50236380D01*
X138954000Y-49236380D01*
X137573047Y-50141142D02*
X137620666Y-50188761D01*
X137763523Y-50236380D01*
X137858761Y-50236380D01*
X138001619Y-50188761D01*
X138096857Y-50093523D01*
X138144476Y-49998285D01*
X138192095Y-49807809D01*
X138192095Y-49664952D01*
X138144476Y-49474476D01*
X138096857Y-49379238D01*
X138001619Y-49284000D01*
X137858761Y-49236380D01*
X137763523Y-49236380D01*
X137620666Y-49284000D01*
X137573047Y-49331619D01*
X136858761Y-49236380D02*
X136858761Y-49950666D01*
X136906380Y-50093523D01*
X137001619Y-50188761D01*
X137144476Y-50236380D01*
X137239714Y-50236380D01*
X135906380Y-50236380D02*
X136382571Y-50236380D01*
X136382571Y-49236380D01*
X135001619Y-50141142D02*
X135049238Y-50188761D01*
X135192095Y-50236380D01*
X135287333Y-50236380D01*
X135430190Y-50188761D01*
X135525428Y-50093523D01*
X135573047Y-49998285D01*
X135620666Y-49807809D01*
X135620666Y-49664952D01*
X135573047Y-49474476D01*
X135525428Y-49379238D01*
X135430190Y-49284000D01*
X135287333Y-49236380D01*
X135192095Y-49236380D01*
X135049238Y-49284000D01*
X135001619Y-49331619D01*
D16*
G36*
X144432657Y-86638395D02*
G01*
X144423358Y-86648748D01*
X144399347Y-86676123D01*
X144361424Y-86719601D01*
X144310386Y-86778261D01*
X144247030Y-86851181D01*
X144172156Y-86937442D01*
X144086561Y-87036123D01*
X143991043Y-87146303D01*
X143886400Y-87267063D01*
X143773430Y-87397480D01*
X143652931Y-87536635D01*
X143525701Y-87683608D01*
X143392537Y-87837477D01*
X143254239Y-87997323D01*
X143111604Y-88162224D01*
X143063791Y-88217509D01*
X142881879Y-88427705D01*
X142710330Y-88625605D01*
X142549543Y-88810756D01*
X142399915Y-88982706D01*
X142261843Y-89141004D01*
X142135726Y-89285195D01*
X142021960Y-89414828D01*
X141920943Y-89529451D01*
X141833072Y-89628611D01*
X141758746Y-89711855D01*
X141698361Y-89778732D01*
X141652315Y-89828788D01*
X141621006Y-89861572D01*
X141608886Y-89873280D01*
X141477374Y-89979544D01*
X141340890Y-90068028D01*
X141201615Y-90137586D01*
X141061725Y-90187075D01*
X140972694Y-90207720D01*
X140824864Y-90223665D01*
X140676573Y-90217851D01*
X140528785Y-90190576D01*
X140382465Y-90142135D01*
X140238578Y-90072825D01*
X140098086Y-89982944D01*
X140004534Y-89909847D01*
X139983927Y-89891531D01*
X139957585Y-89866325D01*
X139924817Y-89833475D01*
X139884938Y-89792227D01*
X139837259Y-89741824D01*
X139781091Y-89681512D01*
X139715749Y-89610536D01*
X139640542Y-89528141D01*
X139554785Y-89433573D01*
X139457788Y-89326077D01*
X139348864Y-89204897D01*
X139227326Y-89069279D01*
X139092485Y-88918468D01*
X138943654Y-88751708D01*
X138780144Y-88568246D01*
X138694638Y-88472226D01*
X138558842Y-88319814D01*
X138427367Y-88172483D01*
X138301077Y-88031192D01*
X138180835Y-87896896D01*
X138067507Y-87770554D01*
X137961956Y-87653123D01*
X137865046Y-87545560D01*
X137777640Y-87448822D01*
X137700603Y-87363866D01*
X137634798Y-87291650D01*
X137581089Y-87233130D01*
X137540341Y-87189264D01*
X137513416Y-87161009D01*
X137501180Y-87149322D01*
X137500509Y-87149124D01*
X137503777Y-87160541D01*
X137513844Y-87191753D01*
X137530216Y-87241312D01*
X137552401Y-87307774D01*
X137579904Y-87389691D01*
X137612232Y-87485616D01*
X137648892Y-87594105D01*
X137689391Y-87713710D01*
X137733235Y-87842985D01*
X137779930Y-87980483D01*
X137828985Y-88124759D01*
X137879904Y-88274367D01*
X137932196Y-88427859D01*
X137985366Y-88583789D01*
X138038921Y-88740712D01*
X138092369Y-88897181D01*
X138145214Y-89051749D01*
X138196965Y-89202970D01*
X138247128Y-89349398D01*
X138295209Y-89489587D01*
X138340715Y-89622090D01*
X138383153Y-89745460D01*
X138422030Y-89858253D01*
X138456851Y-89959021D01*
X138487125Y-90046317D01*
X138512357Y-90118697D01*
X138532054Y-90174712D01*
X138543177Y-90205891D01*
X138543358Y-90209375D01*
X138540097Y-90212414D01*
X138531713Y-90215039D01*
X138516524Y-90217280D01*
X138492849Y-90219166D01*
X138459005Y-90220729D01*
X138413312Y-90221999D01*
X138354086Y-90223005D01*
X138279646Y-90223778D01*
X138188310Y-90224348D01*
X138078397Y-90224746D01*
X137948225Y-90225002D01*
X137796112Y-90225145D01*
X137620375Y-90225207D01*
X137468254Y-90225217D01*
X136386360Y-90225217D01*
X136174085Y-89484588D01*
X136138343Y-89360158D01*
X136104226Y-89241923D01*
X136072257Y-89131658D01*
X136042957Y-89031135D01*
X136016847Y-88942127D01*
X135994449Y-88866408D01*
X135976283Y-88805751D01*
X135962873Y-88761930D01*
X135954737Y-88736716D01*
X135952560Y-88731190D01*
X135941000Y-88722627D01*
X135937848Y-88723624D01*
X135929949Y-88733662D01*
X135909141Y-88760721D01*
X135876691Y-88803137D01*
X135833870Y-88859244D01*
X135781946Y-88927378D01*
X135722188Y-89005873D01*
X135655865Y-89093065D01*
X135584246Y-89187288D01*
X135521549Y-89269827D01*
X135423751Y-89398297D01*
X135338422Y-89509495D01*
X135264120Y-89604975D01*
X135199407Y-89686290D01*
X135142842Y-89754996D01*
X135092984Y-89812645D01*
X135048394Y-89860793D01*
X135007631Y-89900993D01*
X134969255Y-89934799D01*
X134931827Y-89963765D01*
X134893905Y-89989446D01*
X134854050Y-90013395D01*
X134810821Y-90037166D01*
X134810097Y-90037553D01*
X134724236Y-90080991D01*
X134647180Y-90114052D01*
X134567834Y-90141012D01*
X134479036Y-90165166D01*
X134424994Y-90180112D01*
X134393670Y-90192673D01*
X134381607Y-90204372D01*
X134381251Y-90208190D01*
X134388366Y-90221943D01*
X134407545Y-90252073D01*
X134437070Y-90296068D01*
X134475221Y-90351415D01*
X134520281Y-90415601D01*
X134570529Y-90486112D01*
X134586928Y-90508913D01*
X134646617Y-90591367D01*
X134694693Y-90656780D01*
X134732879Y-90707221D01*
X134762900Y-90744757D01*
X134786479Y-90771456D01*
X134805340Y-90789389D01*
X134821207Y-90800621D01*
X134835443Y-90807099D01*
X134850378Y-90811538D01*
X134866816Y-90813912D01*
X134888074Y-90813716D01*
X134917468Y-90810449D01*
X134958315Y-90803608D01*
X135013933Y-90792689D01*
X135087638Y-90777192D01*
X135182747Y-90756612D01*
X135214896Y-90749602D01*
X135327053Y-90724915D01*
X135455932Y-90696198D01*
X135592667Y-90665451D01*
X135728393Y-90634670D01*
X135854245Y-90605853D01*
X135908102Y-90593407D01*
X136021700Y-90567015D01*
X136113090Y-90546388D01*
X136185815Y-90531768D01*
X136243418Y-90523392D01*
X136289442Y-90521500D01*
X136327430Y-90526333D01*
X136360926Y-90538128D01*
X136393471Y-90557125D01*
X136428610Y-90583563D01*
X136469884Y-90617683D01*
X136487726Y-90632556D01*
X136554239Y-90690057D01*
X136602096Y-90737737D01*
X136633684Y-90779285D01*
X136651389Y-90818388D01*
X136657596Y-90858735D01*
X136656064Y-90892767D01*
X136651366Y-90914895D01*
X136640374Y-90955675D01*
X136623920Y-91012484D01*
X136602838Y-91082696D01*
X136577961Y-91163684D01*
X136550121Y-91252824D01*
X136520151Y-91347490D01*
X136488885Y-91445056D01*
X136457155Y-91542897D01*
X136425794Y-91638388D01*
X136395636Y-91728902D01*
X136367513Y-91811815D01*
X136342258Y-91884501D01*
X136334533Y-91906247D01*
X136318895Y-91956821D01*
X136313528Y-91998378D01*
X136320631Y-92033789D01*
X136342405Y-92065923D01*
X136381050Y-92097650D01*
X136438765Y-92131842D01*
X136517751Y-92171367D01*
X136549117Y-92186191D01*
X136611043Y-92215402D01*
X136690611Y-92253247D01*
X136782519Y-92297188D01*
X136881467Y-92344686D01*
X136982154Y-92393200D01*
X137071176Y-92436264D01*
X137157135Y-92477673D01*
X137235732Y-92515033D01*
X137304029Y-92546988D01*
X137359088Y-92572182D01*
X137397972Y-92589257D01*
X137417745Y-92596858D01*
X137419488Y-92597096D01*
X137433218Y-92588210D01*
X137465671Y-92564279D01*
X137516450Y-92525613D01*
X137585157Y-92472521D01*
X137671397Y-92405312D01*
X137774773Y-92324295D01*
X137894886Y-92229779D01*
X138031341Y-92122074D01*
X138159800Y-92020448D01*
X138258632Y-91942837D01*
X138346510Y-91875141D01*
X138421941Y-91818459D01*
X138483435Y-91773888D01*
X138529499Y-91742527D01*
X138558644Y-91725474D01*
X138562814Y-91723685D01*
X138598219Y-91712090D01*
X138626506Y-91709501D01*
X138661076Y-91715487D01*
X138678752Y-91719947D01*
X138731677Y-91731757D01*
X138786982Y-91741224D01*
X138801026Y-91743030D01*
X138910073Y-91763663D01*
X138999798Y-91798949D01*
X139071556Y-91849646D01*
X139126703Y-91916516D01*
X139134963Y-91930316D01*
X139151469Y-91961582D01*
X139166109Y-91995273D01*
X139180047Y-92035128D01*
X139194444Y-92084889D01*
X139210464Y-92148294D01*
X139229269Y-92229084D01*
X139233132Y-92246174D01*
X139244397Y-92292635D01*
X139260139Y-92352534D01*
X139279470Y-92422906D01*
X139301501Y-92500787D01*
X139325344Y-92583210D01*
X139350110Y-92667212D01*
X139374912Y-92749828D01*
X139398860Y-92828092D01*
X139421067Y-92899041D01*
X139440644Y-92959708D01*
X139456702Y-93007130D01*
X139468354Y-93038340D01*
X139473859Y-93049587D01*
X139493157Y-93074435D01*
X140141149Y-93073735D01*
X140270807Y-93073400D01*
X140392998Y-93072708D01*
X140505015Y-93071703D01*
X140604154Y-93070425D01*
X140687708Y-93068917D01*
X140752972Y-93067219D01*
X140797239Y-93065375D01*
X140817805Y-93063424D01*
X140818287Y-93063285D01*
X140847825Y-93046587D01*
X140868016Y-93027449D01*
X140875322Y-93011607D01*
X140888109Y-92976552D01*
X140905653Y-92924551D01*
X140927230Y-92857869D01*
X140952116Y-92778771D01*
X140979589Y-92689524D01*
X141008924Y-92592393D01*
X141034864Y-92505051D01*
X141073458Y-92374107D01*
X141106282Y-92262894D01*
X141133897Y-92169692D01*
X141156864Y-92092778D01*
X141175746Y-92030433D01*
X141191103Y-91980935D01*
X141203497Y-91942564D01*
X141213489Y-91913598D01*
X141221640Y-91892316D01*
X141228512Y-91876998D01*
X141234667Y-91865923D01*
X141240665Y-91857370D01*
X141247069Y-91849617D01*
X141249657Y-91846603D01*
X141287011Y-91814832D01*
X141333162Y-91791649D01*
X141377462Y-91782356D01*
X141378654Y-91782348D01*
X141404437Y-91777942D01*
X141444033Y-91766576D01*
X141475728Y-91755538D01*
X141568548Y-91728887D01*
X141657526Y-91720837D01*
X141744369Y-91731919D01*
X141830784Y-91762662D01*
X141918478Y-91813595D01*
X142009157Y-91885249D01*
X142066033Y-91938729D01*
X142097618Y-91968587D01*
X142145086Y-92011490D01*
X142205500Y-92064877D01*
X142275923Y-92126187D01*
X142353417Y-92192859D01*
X142435046Y-92262331D01*
X142497989Y-92315383D01*
X142587305Y-92390193D01*
X142660062Y-92450700D01*
X142718282Y-92498400D01*
X142763990Y-92534791D01*
X142799206Y-92561373D01*
X142825956Y-92579642D01*
X142846261Y-92591097D01*
X142862145Y-92597236D01*
X142875632Y-92599556D01*
X142882040Y-92599753D01*
X142902671Y-92596528D01*
X142934703Y-92586401D01*
X142980192Y-92568495D01*
X143041194Y-92541934D01*
X143119767Y-92505842D01*
X143217965Y-92459344D01*
X143267695Y-92435471D01*
X143365655Y-92388398D01*
X143466617Y-92340075D01*
X143565315Y-92293008D01*
X143656486Y-92249702D01*
X143734867Y-92212662D01*
X143791977Y-92185893D01*
X143857024Y-92154919D01*
X143915392Y-92125858D01*
X143962357Y-92101155D01*
X143993200Y-92083257D01*
X144001427Y-92077340D01*
X144022786Y-92042407D01*
X144027309Y-92008077D01*
X144023635Y-91984841D01*
X144012991Y-91942199D01*
X143995939Y-91881925D01*
X143973040Y-91805795D01*
X143944858Y-91715586D01*
X143911956Y-91613072D01*
X143874895Y-91500030D01*
X143834238Y-91378235D01*
X143790548Y-91249462D01*
X143745863Y-91119739D01*
X143716917Y-91033441D01*
X143696595Y-90964766D01*
X143684564Y-90910540D01*
X143680488Y-90867588D01*
X143684035Y-90832737D01*
X143694870Y-90802812D01*
X143709936Y-90778357D01*
X143741489Y-90740265D01*
X143784512Y-90696007D01*
X143833819Y-90650147D01*
X143884228Y-90607247D01*
X143930555Y-90571869D01*
X143967617Y-90548576D01*
X143974867Y-90545160D01*
X144005067Y-90533784D01*
X144034403Y-90527148D01*
X144067516Y-90525588D01*
X144109046Y-90529442D01*
X144163636Y-90539046D01*
X144235925Y-90554739D01*
X144294766Y-90568402D01*
X144408195Y-90594828D01*
X144528257Y-90622335D01*
X144652093Y-90650308D01*
X144776846Y-90678130D01*
X144899656Y-90705185D01*
X145017667Y-90730856D01*
X145128018Y-90754528D01*
X145227854Y-90775584D01*
X145314315Y-90793407D01*
X145384543Y-90807381D01*
X145435680Y-90816891D01*
X145464867Y-90821319D01*
X145468825Y-90821565D01*
X145518662Y-90810876D01*
X145564827Y-90780223D01*
X145603085Y-90733357D01*
X145615611Y-90714436D01*
X145639565Y-90679334D01*
X145672952Y-90630936D01*
X145713772Y-90572128D01*
X145760030Y-90505794D01*
X145809727Y-90434821D01*
X145810899Y-90433151D01*
X145858984Y-90363874D01*
X145901870Y-90300632D01*
X145937915Y-90245965D01*
X145965478Y-90202415D01*
X145982917Y-90172521D01*
X145988589Y-90158825D01*
X145988444Y-90158442D01*
X145971230Y-90151643D01*
X145938472Y-90148071D01*
X145929521Y-90147913D01*
X145881876Y-90145289D01*
X145815180Y-90138094D01*
X145736115Y-90127345D01*
X145651362Y-90114058D01*
X145567601Y-90099248D01*
X145491515Y-90083932D01*
X145456890Y-90076031D01*
X145236860Y-90013516D01*
X145030420Y-89935615D01*
X144839490Y-89843425D01*
X144665987Y-89738042D01*
X144511829Y-89620562D01*
X144378936Y-89492083D01*
X144325184Y-89429230D01*
X144232031Y-89298555D01*
X144159710Y-89163247D01*
X144109998Y-89034394D01*
X144098003Y-88996203D01*
X144089096Y-88962466D01*
X144082815Y-88928812D01*
X144078695Y-88890871D01*
X144076274Y-88844273D01*
X144075087Y-88784648D01*
X144074671Y-88707626D01*
X144074658Y-88701217D01*
X144075570Y-88602869D01*
X144079374Y-88521489D01*
X144087064Y-88452012D01*
X144099639Y-88389376D01*
X144118095Y-88328517D01*
X144143429Y-88264370D01*
X144173719Y-88197989D01*
X144256243Y-88053757D01*
X144362489Y-87916300D01*
X144490231Y-87787546D01*
X144637242Y-87669426D01*
X144801296Y-87563865D01*
X144980167Y-87472793D01*
X145041314Y-87446556D01*
X145087741Y-87426497D01*
X145123310Y-87409192D01*
X145142512Y-87397405D01*
X145144377Y-87394855D01*
X145136580Y-87384346D01*
X145114288Y-87358126D01*
X145079146Y-87318038D01*
X145032798Y-87265928D01*
X144976891Y-87203639D01*
X144913068Y-87133014D01*
X144842977Y-87055898D01*
X144796313Y-87004781D01*
X144709050Y-86909631D01*
X144636338Y-86831023D01*
X144576948Y-86767719D01*
X144529651Y-86718482D01*
X144493218Y-86682074D01*
X144466421Y-86657257D01*
X144448032Y-86642794D01*
X144436821Y-86637445D01*
X144432657Y-86638395D01*
G37*
X144432657Y-86638395D02*
X144423358Y-86648748D01*
X144399347Y-86676123D01*
X144361424Y-86719601D01*
X144310386Y-86778261D01*
X144247030Y-86851181D01*
X144172156Y-86937442D01*
X144086561Y-87036123D01*
X143991043Y-87146303D01*
X143886400Y-87267063D01*
X143773430Y-87397480D01*
X143652931Y-87536635D01*
X143525701Y-87683608D01*
X143392537Y-87837477D01*
X143254239Y-87997323D01*
X143111604Y-88162224D01*
X143063791Y-88217509D01*
X142881879Y-88427705D01*
X142710330Y-88625605D01*
X142549543Y-88810756D01*
X142399915Y-88982706D01*
X142261843Y-89141004D01*
X142135726Y-89285195D01*
X142021960Y-89414828D01*
X141920943Y-89529451D01*
X141833072Y-89628611D01*
X141758746Y-89711855D01*
X141698361Y-89778732D01*
X141652315Y-89828788D01*
X141621006Y-89861572D01*
X141608886Y-89873280D01*
X141477374Y-89979544D01*
X141340890Y-90068028D01*
X141201615Y-90137586D01*
X141061725Y-90187075D01*
X140972694Y-90207720D01*
X140824864Y-90223665D01*
X140676573Y-90217851D01*
X140528785Y-90190576D01*
X140382465Y-90142135D01*
X140238578Y-90072825D01*
X140098086Y-89982944D01*
X140004534Y-89909847D01*
X139983927Y-89891531D01*
X139957585Y-89866325D01*
X139924817Y-89833475D01*
X139884938Y-89792227D01*
X139837259Y-89741824D01*
X139781091Y-89681512D01*
X139715749Y-89610536D01*
X139640542Y-89528141D01*
X139554785Y-89433573D01*
X139457788Y-89326077D01*
X139348864Y-89204897D01*
X139227326Y-89069279D01*
X139092485Y-88918468D01*
X138943654Y-88751708D01*
X138780144Y-88568246D01*
X138694638Y-88472226D01*
X138558842Y-88319814D01*
X138427367Y-88172483D01*
X138301077Y-88031192D01*
X138180835Y-87896896D01*
X138067507Y-87770554D01*
X137961956Y-87653123D01*
X137865046Y-87545560D01*
X137777640Y-87448822D01*
X137700603Y-87363866D01*
X137634798Y-87291650D01*
X137581089Y-87233130D01*
X137540341Y-87189264D01*
X137513416Y-87161009D01*
X137501180Y-87149322D01*
X137500509Y-87149124D01*
X137503777Y-87160541D01*
X137513844Y-87191753D01*
X137530216Y-87241312D01*
X137552401Y-87307774D01*
X137579904Y-87389691D01*
X137612232Y-87485616D01*
X137648892Y-87594105D01*
X137689391Y-87713710D01*
X137733235Y-87842985D01*
X137779930Y-87980483D01*
X137828985Y-88124759D01*
X137879904Y-88274367D01*
X137932196Y-88427859D01*
X137985366Y-88583789D01*
X138038921Y-88740712D01*
X138092369Y-88897181D01*
X138145214Y-89051749D01*
X138196965Y-89202970D01*
X138247128Y-89349398D01*
X138295209Y-89489587D01*
X138340715Y-89622090D01*
X138383153Y-89745460D01*
X138422030Y-89858253D01*
X138456851Y-89959021D01*
X138487125Y-90046317D01*
X138512357Y-90118697D01*
X138532054Y-90174712D01*
X138543177Y-90205891D01*
X138543358Y-90209375D01*
X138540097Y-90212414D01*
X138531713Y-90215039D01*
X138516524Y-90217280D01*
X138492849Y-90219166D01*
X138459005Y-90220729D01*
X138413312Y-90221999D01*
X138354086Y-90223005D01*
X138279646Y-90223778D01*
X138188310Y-90224348D01*
X138078397Y-90224746D01*
X137948225Y-90225002D01*
X137796112Y-90225145D01*
X137620375Y-90225207D01*
X137468254Y-90225217D01*
X136386360Y-90225217D01*
X136174085Y-89484588D01*
X136138343Y-89360158D01*
X136104226Y-89241923D01*
X136072257Y-89131658D01*
X136042957Y-89031135D01*
X136016847Y-88942127D01*
X135994449Y-88866408D01*
X135976283Y-88805751D01*
X135962873Y-88761930D01*
X135954737Y-88736716D01*
X135952560Y-88731190D01*
X135941000Y-88722627D01*
X135937848Y-88723624D01*
X135929949Y-88733662D01*
X135909141Y-88760721D01*
X135876691Y-88803137D01*
X135833870Y-88859244D01*
X135781946Y-88927378D01*
X135722188Y-89005873D01*
X135655865Y-89093065D01*
X135584246Y-89187288D01*
X135521549Y-89269827D01*
X135423751Y-89398297D01*
X135338422Y-89509495D01*
X135264120Y-89604975D01*
X135199407Y-89686290D01*
X135142842Y-89754996D01*
X135092984Y-89812645D01*
X135048394Y-89860793D01*
X135007631Y-89900993D01*
X134969255Y-89934799D01*
X134931827Y-89963765D01*
X134893905Y-89989446D01*
X134854050Y-90013395D01*
X134810821Y-90037166D01*
X134810097Y-90037553D01*
X134724236Y-90080991D01*
X134647180Y-90114052D01*
X134567834Y-90141012D01*
X134479036Y-90165166D01*
X134424994Y-90180112D01*
X134393670Y-90192673D01*
X134381607Y-90204372D01*
X134381251Y-90208190D01*
X134388366Y-90221943D01*
X134407545Y-90252073D01*
X134437070Y-90296068D01*
X134475221Y-90351415D01*
X134520281Y-90415601D01*
X134570529Y-90486112D01*
X134586928Y-90508913D01*
X134646617Y-90591367D01*
X134694693Y-90656780D01*
X134732879Y-90707221D01*
X134762900Y-90744757D01*
X134786479Y-90771456D01*
X134805340Y-90789389D01*
X134821207Y-90800621D01*
X134835443Y-90807099D01*
X134850378Y-90811538D01*
X134866816Y-90813912D01*
X134888074Y-90813716D01*
X134917468Y-90810449D01*
X134958315Y-90803608D01*
X135013933Y-90792689D01*
X135087638Y-90777192D01*
X135182747Y-90756612D01*
X135214896Y-90749602D01*
X135327053Y-90724915D01*
X135455932Y-90696198D01*
X135592667Y-90665451D01*
X135728393Y-90634670D01*
X135854245Y-90605853D01*
X135908102Y-90593407D01*
X136021700Y-90567015D01*
X136113090Y-90546388D01*
X136185815Y-90531768D01*
X136243418Y-90523392D01*
X136289442Y-90521500D01*
X136327430Y-90526333D01*
X136360926Y-90538128D01*
X136393471Y-90557125D01*
X136428610Y-90583563D01*
X136469884Y-90617683D01*
X136487726Y-90632556D01*
X136554239Y-90690057D01*
X136602096Y-90737737D01*
X136633684Y-90779285D01*
X136651389Y-90818388D01*
X136657596Y-90858735D01*
X136656064Y-90892767D01*
X136651366Y-90914895D01*
X136640374Y-90955675D01*
X136623920Y-91012484D01*
X136602838Y-91082696D01*
X136577961Y-91163684D01*
X136550121Y-91252824D01*
X136520151Y-91347490D01*
X136488885Y-91445056D01*
X136457155Y-91542897D01*
X136425794Y-91638388D01*
X136395636Y-91728902D01*
X136367513Y-91811815D01*
X136342258Y-91884501D01*
X136334533Y-91906247D01*
X136318895Y-91956821D01*
X136313528Y-91998378D01*
X136320631Y-92033789D01*
X136342405Y-92065923D01*
X136381050Y-92097650D01*
X136438765Y-92131842D01*
X136517751Y-92171367D01*
X136549117Y-92186191D01*
X136611043Y-92215402D01*
X136690611Y-92253247D01*
X136782519Y-92297188D01*
X136881467Y-92344686D01*
X136982154Y-92393200D01*
X137071176Y-92436264D01*
X137157135Y-92477673D01*
X137235732Y-92515033D01*
X137304029Y-92546988D01*
X137359088Y-92572182D01*
X137397972Y-92589257D01*
X137417745Y-92596858D01*
X137419488Y-92597096D01*
X137433218Y-92588210D01*
X137465671Y-92564279D01*
X137516450Y-92525613D01*
X137585157Y-92472521D01*
X137671397Y-92405312D01*
X137774773Y-92324295D01*
X137894886Y-92229779D01*
X138031341Y-92122074D01*
X138159800Y-92020448D01*
X138258632Y-91942837D01*
X138346510Y-91875141D01*
X138421941Y-91818459D01*
X138483435Y-91773888D01*
X138529499Y-91742527D01*
X138558644Y-91725474D01*
X138562814Y-91723685D01*
X138598219Y-91712090D01*
X138626506Y-91709501D01*
X138661076Y-91715487D01*
X138678752Y-91719947D01*
X138731677Y-91731757D01*
X138786982Y-91741224D01*
X138801026Y-91743030D01*
X138910073Y-91763663D01*
X138999798Y-91798949D01*
X139071556Y-91849646D01*
X139126703Y-91916516D01*
X139134963Y-91930316D01*
X139151469Y-91961582D01*
X139166109Y-91995273D01*
X139180047Y-92035128D01*
X139194444Y-92084889D01*
X139210464Y-92148294D01*
X139229269Y-92229084D01*
X139233132Y-92246174D01*
X139244397Y-92292635D01*
X139260139Y-92352534D01*
X139279470Y-92422906D01*
X139301501Y-92500787D01*
X139325344Y-92583210D01*
X139350110Y-92667212D01*
X139374912Y-92749828D01*
X139398860Y-92828092D01*
X139421067Y-92899041D01*
X139440644Y-92959708D01*
X139456702Y-93007130D01*
X139468354Y-93038340D01*
X139473859Y-93049587D01*
X139493157Y-93074435D01*
X140141149Y-93073735D01*
X140270807Y-93073400D01*
X140392998Y-93072708D01*
X140505015Y-93071703D01*
X140604154Y-93070425D01*
X140687708Y-93068917D01*
X140752972Y-93067219D01*
X140797239Y-93065375D01*
X140817805Y-93063424D01*
X140818287Y-93063285D01*
X140847825Y-93046587D01*
X140868016Y-93027449D01*
X140875322Y-93011607D01*
X140888109Y-92976552D01*
X140905653Y-92924551D01*
X140927230Y-92857869D01*
X140952116Y-92778771D01*
X140979589Y-92689524D01*
X141008924Y-92592393D01*
X141034864Y-92505051D01*
X141073458Y-92374107D01*
X141106282Y-92262894D01*
X141133897Y-92169692D01*
X141156864Y-92092778D01*
X141175746Y-92030433D01*
X141191103Y-91980935D01*
X141203497Y-91942564D01*
X141213489Y-91913598D01*
X141221640Y-91892316D01*
X141228512Y-91876998D01*
X141234667Y-91865923D01*
X141240665Y-91857370D01*
X141247069Y-91849617D01*
X141249657Y-91846603D01*
X141287011Y-91814832D01*
X141333162Y-91791649D01*
X141377462Y-91782356D01*
X141378654Y-91782348D01*
X141404437Y-91777942D01*
X141444033Y-91766576D01*
X141475728Y-91755538D01*
X141568548Y-91728887D01*
X141657526Y-91720837D01*
X141744369Y-91731919D01*
X141830784Y-91762662D01*
X141918478Y-91813595D01*
X142009157Y-91885249D01*
X142066033Y-91938729D01*
X142097618Y-91968587D01*
X142145086Y-92011490D01*
X142205500Y-92064877D01*
X142275923Y-92126187D01*
X142353417Y-92192859D01*
X142435046Y-92262331D01*
X142497989Y-92315383D01*
X142587305Y-92390193D01*
X142660062Y-92450700D01*
X142718282Y-92498400D01*
X142763990Y-92534791D01*
X142799206Y-92561373D01*
X142825956Y-92579642D01*
X142846261Y-92591097D01*
X142862145Y-92597236D01*
X142875632Y-92599556D01*
X142882040Y-92599753D01*
X142902671Y-92596528D01*
X142934703Y-92586401D01*
X142980192Y-92568495D01*
X143041194Y-92541934D01*
X143119767Y-92505842D01*
X143217965Y-92459344D01*
X143267695Y-92435471D01*
X143365655Y-92388398D01*
X143466617Y-92340075D01*
X143565315Y-92293008D01*
X143656486Y-92249702D01*
X143734867Y-92212662D01*
X143791977Y-92185893D01*
X143857024Y-92154919D01*
X143915392Y-92125858D01*
X143962357Y-92101155D01*
X143993200Y-92083257D01*
X144001427Y-92077340D01*
X144022786Y-92042407D01*
X144027309Y-92008077D01*
X144023635Y-91984841D01*
X144012991Y-91942199D01*
X143995939Y-91881925D01*
X143973040Y-91805795D01*
X143944858Y-91715586D01*
X143911956Y-91613072D01*
X143874895Y-91500030D01*
X143834238Y-91378235D01*
X143790548Y-91249462D01*
X143745863Y-91119739D01*
X143716917Y-91033441D01*
X143696595Y-90964766D01*
X143684564Y-90910540D01*
X143680488Y-90867588D01*
X143684035Y-90832737D01*
X143694870Y-90802812D01*
X143709936Y-90778357D01*
X143741489Y-90740265D01*
X143784512Y-90696007D01*
X143833819Y-90650147D01*
X143884228Y-90607247D01*
X143930555Y-90571869D01*
X143967617Y-90548576D01*
X143974867Y-90545160D01*
X144005067Y-90533784D01*
X144034403Y-90527148D01*
X144067516Y-90525588D01*
X144109046Y-90529442D01*
X144163636Y-90539046D01*
X144235925Y-90554739D01*
X144294766Y-90568402D01*
X144408195Y-90594828D01*
X144528257Y-90622335D01*
X144652093Y-90650308D01*
X144776846Y-90678130D01*
X144899656Y-90705185D01*
X145017667Y-90730856D01*
X145128018Y-90754528D01*
X145227854Y-90775584D01*
X145314315Y-90793407D01*
X145384543Y-90807381D01*
X145435680Y-90816891D01*
X145464867Y-90821319D01*
X145468825Y-90821565D01*
X145518662Y-90810876D01*
X145564827Y-90780223D01*
X145603085Y-90733357D01*
X145615611Y-90714436D01*
X145639565Y-90679334D01*
X145672952Y-90630936D01*
X145713772Y-90572128D01*
X145760030Y-90505794D01*
X145809727Y-90434821D01*
X145810899Y-90433151D01*
X145858984Y-90363874D01*
X145901870Y-90300632D01*
X145937915Y-90245965D01*
X145965478Y-90202415D01*
X145982917Y-90172521D01*
X145988589Y-90158825D01*
X145988444Y-90158442D01*
X145971230Y-90151643D01*
X145938472Y-90148071D01*
X145929521Y-90147913D01*
X145881876Y-90145289D01*
X145815180Y-90138094D01*
X145736115Y-90127345D01*
X145651362Y-90114058D01*
X145567601Y-90099248D01*
X145491515Y-90083932D01*
X145456890Y-90076031D01*
X145236860Y-90013516D01*
X145030420Y-89935615D01*
X144839490Y-89843425D01*
X144665987Y-89738042D01*
X144511829Y-89620562D01*
X144378936Y-89492083D01*
X144325184Y-89429230D01*
X144232031Y-89298555D01*
X144159710Y-89163247D01*
X144109998Y-89034394D01*
X144098003Y-88996203D01*
X144089096Y-88962466D01*
X144082815Y-88928812D01*
X144078695Y-88890871D01*
X144076274Y-88844273D01*
X144075087Y-88784648D01*
X144074671Y-88707626D01*
X144074658Y-88701217D01*
X144075570Y-88602869D01*
X144079374Y-88521489D01*
X144087064Y-88452012D01*
X144099639Y-88389376D01*
X144118095Y-88328517D01*
X144143429Y-88264370D01*
X144173719Y-88197989D01*
X144256243Y-88053757D01*
X144362489Y-87916300D01*
X144490231Y-87787546D01*
X144637242Y-87669426D01*
X144801296Y-87563865D01*
X144980167Y-87472793D01*
X145041314Y-87446556D01*
X145087741Y-87426497D01*
X145123310Y-87409192D01*
X145142512Y-87397405D01*
X145144377Y-87394855D01*
X145136580Y-87384346D01*
X145114288Y-87358126D01*
X145079146Y-87318038D01*
X145032798Y-87265928D01*
X144976891Y-87203639D01*
X144913068Y-87133014D01*
X144842977Y-87055898D01*
X144796313Y-87004781D01*
X144709050Y-86909631D01*
X144636338Y-86831023D01*
X144576948Y-86767719D01*
X144529651Y-86718482D01*
X144493218Y-86682074D01*
X144466421Y-86657257D01*
X144448032Y-86642794D01*
X144436821Y-86637445D01*
X144432657Y-86638395D01*
G36*
X137101090Y-86340674D02*
G01*
X137119993Y-86362313D01*
X137153495Y-86400115D01*
X137200616Y-86452990D01*
X137260374Y-86519849D01*
X137331788Y-86599604D01*
X137413878Y-86691166D01*
X137505662Y-86793445D01*
X137606159Y-86905354D01*
X137714389Y-87025802D01*
X137829369Y-87153701D01*
X137950119Y-87287962D01*
X138075659Y-87427496D01*
X138205006Y-87571214D01*
X138337180Y-87718028D01*
X138471199Y-87866848D01*
X138606084Y-88016585D01*
X138740852Y-88166151D01*
X138874522Y-88314456D01*
X139006114Y-88460412D01*
X139134647Y-88602930D01*
X139259139Y-88740921D01*
X139378609Y-88873295D01*
X139492076Y-88998965D01*
X139598560Y-89116840D01*
X139697079Y-89225833D01*
X139786652Y-89324854D01*
X139866298Y-89412814D01*
X139935036Y-89488624D01*
X139991885Y-89551196D01*
X140035863Y-89599440D01*
X140065991Y-89632268D01*
X140081286Y-89648591D01*
X140081946Y-89649258D01*
X140147697Y-89708915D01*
X140223548Y-89768229D01*
X140302628Y-89822394D01*
X140378069Y-89866608D01*
X140424590Y-89888878D01*
X140541805Y-89927126D01*
X140663228Y-89946105D01*
X140784047Y-89945463D01*
X140899451Y-89924849D01*
X140902946Y-89923871D01*
X140996974Y-89892116D01*
X141084032Y-89850957D01*
X141170261Y-89796996D01*
X141261801Y-89726837D01*
X141267352Y-89722241D01*
X141284687Y-89707168D01*
X141305504Y-89687734D01*
X141330480Y-89663182D01*
X141360293Y-89632759D01*
X141395619Y-89595708D01*
X141437136Y-89551274D01*
X141485520Y-89498703D01*
X141541448Y-89437239D01*
X141605598Y-89366126D01*
X141678646Y-89284610D01*
X141761269Y-89191935D01*
X141854145Y-89087346D01*
X141957950Y-88970088D01*
X142073361Y-88839404D01*
X142201055Y-88694542D01*
X142341709Y-88534744D01*
X142496000Y-88359255D01*
X142664606Y-88167321D01*
X142830450Y-87978414D01*
X142979747Y-87808297D01*
X143124892Y-87642885D01*
X143265104Y-87483066D01*
X143399601Y-87329732D01*
X143527605Y-87183773D01*
X143648333Y-87046081D01*
X143761005Y-86917546D01*
X143864842Y-86799059D01*
X143959061Y-86691511D01*
X144042884Y-86595792D01*
X144115528Y-86512794D01*
X144176215Y-86443407D01*
X144224162Y-86388522D01*
X144258589Y-86349030D01*
X144278717Y-86325821D01*
X144283964Y-86319629D01*
X144282550Y-86316566D01*
X144272427Y-86313943D01*
X144251854Y-86311730D01*
X144219089Y-86309896D01*
X144172389Y-86308412D01*
X144110013Y-86307247D01*
X144030218Y-86306371D01*
X143931263Y-86305753D01*
X143811405Y-86305363D01*
X143668903Y-86305171D01*
X143502015Y-86305147D01*
X143452812Y-86305165D01*
X142611026Y-86305548D01*
X141733329Y-87316667D01*
X141616020Y-87451803D01*
X141501886Y-87583268D01*
X141392030Y-87709792D01*
X141287556Y-87830106D01*
X141189567Y-87942939D01*
X141099165Y-88047021D01*
X141017455Y-88141082D01*
X140945539Y-88223853D01*
X140884521Y-88294063D01*
X140835504Y-88350442D01*
X140799591Y-88391719D01*
X140777885Y-88416626D01*
X140775147Y-88419759D01*
X140694660Y-88511730D01*
X138767780Y-86305916D01*
X137919099Y-86305349D01*
X137070419Y-86304782D01*
X137101090Y-86340674D01*
G37*
X137101090Y-86340674D02*
X137119993Y-86362313D01*
X137153495Y-86400115D01*
X137200616Y-86452990D01*
X137260374Y-86519849D01*
X137331788Y-86599604D01*
X137413878Y-86691166D01*
X137505662Y-86793445D01*
X137606159Y-86905354D01*
X137714389Y-87025802D01*
X137829369Y-87153701D01*
X137950119Y-87287962D01*
X138075659Y-87427496D01*
X138205006Y-87571214D01*
X138337180Y-87718028D01*
X138471199Y-87866848D01*
X138606084Y-88016585D01*
X138740852Y-88166151D01*
X138874522Y-88314456D01*
X139006114Y-88460412D01*
X139134647Y-88602930D01*
X139259139Y-88740921D01*
X139378609Y-88873295D01*
X139492076Y-88998965D01*
X139598560Y-89116840D01*
X139697079Y-89225833D01*
X139786652Y-89324854D01*
X139866298Y-89412814D01*
X139935036Y-89488624D01*
X139991885Y-89551196D01*
X140035863Y-89599440D01*
X140065991Y-89632268D01*
X140081286Y-89648591D01*
X140081946Y-89649258D01*
X140147697Y-89708915D01*
X140223548Y-89768229D01*
X140302628Y-89822394D01*
X140378069Y-89866608D01*
X140424590Y-89888878D01*
X140541805Y-89927126D01*
X140663228Y-89946105D01*
X140784047Y-89945463D01*
X140899451Y-89924849D01*
X140902946Y-89923871D01*
X140996974Y-89892116D01*
X141084032Y-89850957D01*
X141170261Y-89796996D01*
X141261801Y-89726837D01*
X141267352Y-89722241D01*
X141284687Y-89707168D01*
X141305504Y-89687734D01*
X141330480Y-89663182D01*
X141360293Y-89632759D01*
X141395619Y-89595708D01*
X141437136Y-89551274D01*
X141485520Y-89498703D01*
X141541448Y-89437239D01*
X141605598Y-89366126D01*
X141678646Y-89284610D01*
X141761269Y-89191935D01*
X141854145Y-89087346D01*
X141957950Y-88970088D01*
X142073361Y-88839404D01*
X142201055Y-88694542D01*
X142341709Y-88534744D01*
X142496000Y-88359255D01*
X142664606Y-88167321D01*
X142830450Y-87978414D01*
X142979747Y-87808297D01*
X143124892Y-87642885D01*
X143265104Y-87483066D01*
X143399601Y-87329732D01*
X143527605Y-87183773D01*
X143648333Y-87046081D01*
X143761005Y-86917546D01*
X143864842Y-86799059D01*
X143959061Y-86691511D01*
X144042884Y-86595792D01*
X144115528Y-86512794D01*
X144176215Y-86443407D01*
X144224162Y-86388522D01*
X144258589Y-86349030D01*
X144278717Y-86325821D01*
X144283964Y-86319629D01*
X144282550Y-86316566D01*
X144272427Y-86313943D01*
X144251854Y-86311730D01*
X144219089Y-86309896D01*
X144172389Y-86308412D01*
X144110013Y-86307247D01*
X144030218Y-86306371D01*
X143931263Y-86305753D01*
X143811405Y-86305363D01*
X143668903Y-86305171D01*
X143502015Y-86305147D01*
X143452812Y-86305165D01*
X142611026Y-86305548D01*
X141733329Y-87316667D01*
X141616020Y-87451803D01*
X141501886Y-87583268D01*
X141392030Y-87709792D01*
X141287556Y-87830106D01*
X141189567Y-87942939D01*
X141099165Y-88047021D01*
X141017455Y-88141082D01*
X140945539Y-88223853D01*
X140884521Y-88294063D01*
X140835504Y-88350442D01*
X140799591Y-88391719D01*
X140777885Y-88416626D01*
X140775147Y-88419759D01*
X140694660Y-88511730D01*
X138767780Y-86305916D01*
X137919099Y-86305349D01*
X137070419Y-86304782D01*
X137101090Y-86340674D01*
G36*
X131971131Y-86265171D02*
G01*
X131882257Y-86277497D01*
X131794408Y-86295542D01*
X131718915Y-86317264D01*
X131703078Y-86323116D01*
X131586914Y-86379527D01*
X131482507Y-86451597D01*
X131394608Y-86535450D01*
X131327969Y-86627213D01*
X131326055Y-86630565D01*
X131317947Y-86648909D01*
X131302914Y-86687208D01*
X131281411Y-86744198D01*
X131253891Y-86818615D01*
X131220809Y-86909193D01*
X131182617Y-87014669D01*
X131139771Y-87133777D01*
X131092724Y-87265253D01*
X131041930Y-87407833D01*
X130987843Y-87560252D01*
X130930917Y-87721245D01*
X130871605Y-87889548D01*
X130810363Y-88063896D01*
X130762703Y-88199960D01*
X130689829Y-88408280D01*
X130624019Y-88596489D01*
X130564912Y-88765685D01*
X130512149Y-88916967D01*
X130465370Y-89051433D01*
X130424214Y-89170182D01*
X130388321Y-89274312D01*
X130357332Y-89364920D01*
X130330885Y-89443107D01*
X130308622Y-89509969D01*
X130290182Y-89566605D01*
X130275205Y-89614113D01*
X130263331Y-89653593D01*
X130254200Y-89686141D01*
X130247452Y-89712857D01*
X130242726Y-89734839D01*
X130239663Y-89753185D01*
X130237902Y-89768993D01*
X130237085Y-89783362D01*
X130236849Y-89797390D01*
X130236837Y-89804026D01*
X130236837Y-89904956D01*
X131645964Y-89904956D01*
X131655244Y-89874587D01*
X131659825Y-89859443D01*
X131670368Y-89824501D01*
X131686383Y-89771387D01*
X131707378Y-89701729D01*
X131732865Y-89617156D01*
X131762351Y-89519295D01*
X131795347Y-89409774D01*
X131831363Y-89290221D01*
X131869906Y-89162264D01*
X131910488Y-89027530D01*
X131938115Y-88935800D01*
X132211707Y-88027383D01*
X132823408Y-88847452D01*
X132930894Y-88991487D01*
X133025450Y-89118009D01*
X133108101Y-89228312D01*
X133179866Y-89323689D01*
X133241768Y-89405433D01*
X133294829Y-89474837D01*
X133340070Y-89533194D01*
X133378514Y-89581797D01*
X133411181Y-89621938D01*
X133439094Y-89654912D01*
X133463274Y-89682010D01*
X133484744Y-89704527D01*
X133504524Y-89723754D01*
X133523637Y-89740985D01*
X133541497Y-89756176D01*
X133622315Y-89817743D01*
X133699870Y-89863231D01*
X133782131Y-89896579D01*
X133875701Y-89921435D01*
X133934671Y-89930010D01*
X134010151Y-89935111D01*
X134092356Y-89936597D01*
X134171502Y-89934323D01*
X134237806Y-89928149D01*
X134246314Y-89926832D01*
X134308947Y-89912973D01*
X134383571Y-89891352D01*
X134459308Y-89865485D01*
X134525281Y-89838889D01*
X134541024Y-89831546D01*
X134581460Y-89808868D01*
X134630873Y-89776900D01*
X134679491Y-89742013D01*
X134685938Y-89737057D01*
X134701984Y-89723830D01*
X134719554Y-89707578D01*
X134739619Y-89687075D01*
X134763152Y-89661092D01*
X134791123Y-89628402D01*
X134824505Y-89587777D01*
X134864268Y-89537990D01*
X134911384Y-89477812D01*
X134966826Y-89406017D01*
X135031564Y-89321375D01*
X135106569Y-89222661D01*
X135192814Y-89108646D01*
X135291271Y-88978102D01*
X135383624Y-88855435D01*
X135475445Y-88733576D01*
X135563277Y-88617345D01*
X135646100Y-88508072D01*
X135722893Y-88407090D01*
X135792635Y-88315730D01*
X135854304Y-88235323D01*
X135906881Y-88167201D01*
X135949344Y-88112696D01*
X135980673Y-88073139D01*
X135999846Y-88049861D01*
X136005832Y-88043875D01*
X136010016Y-88055243D01*
X136020077Y-88086500D01*
X136035542Y-88136087D01*
X136055938Y-88202444D01*
X136080794Y-88284013D01*
X136109636Y-88379234D01*
X136141992Y-88486547D01*
X136177389Y-88604394D01*
X136215355Y-88731214D01*
X136255417Y-88865450D01*
X136287908Y-88974607D01*
X136562874Y-89899435D01*
X137302945Y-89902288D01*
X137474811Y-89902817D01*
X137621337Y-89902965D01*
X137743772Y-89902716D01*
X137843368Y-89902055D01*
X137921377Y-89900966D01*
X137979050Y-89899432D01*
X138017640Y-89897436D01*
X138038397Y-89894964D01*
X138043015Y-89892753D01*
X138039353Y-89880911D01*
X138028639Y-89849038D01*
X138011281Y-89798306D01*
X137987687Y-89729884D01*
X137958264Y-89644942D01*
X137923420Y-89544650D01*
X137883564Y-89430179D01*
X137839103Y-89302698D01*
X137790445Y-89163379D01*
X137737998Y-89013390D01*
X137682169Y-88853903D01*
X137623367Y-88686087D01*
X137562000Y-88511113D01*
X137498475Y-88330150D01*
X137483879Y-88288595D01*
X137394363Y-88034109D01*
X137312043Y-87800816D01*
X137236894Y-87588649D01*
X137168894Y-87397543D01*
X137108019Y-87227432D01*
X137054245Y-87078251D01*
X137007547Y-86949933D01*
X136967903Y-86842414D01*
X136935288Y-86755628D01*
X136909679Y-86689509D01*
X136891052Y-86643991D01*
X136879384Y-86619009D01*
X136878766Y-86617923D01*
X136812993Y-86526659D01*
X136727895Y-86447088D01*
X136620368Y-86376328D01*
X136615645Y-86373689D01*
X136513586Y-86324472D01*
X136410962Y-86291461D01*
X136300189Y-86272817D01*
X136174586Y-86266704D01*
X136048097Y-86272498D01*
X135935913Y-86292151D01*
X135832940Y-86327475D01*
X135734087Y-86380280D01*
X135634262Y-86452381D01*
X135620001Y-86464049D01*
X135601257Y-86479680D01*
X135583705Y-86494776D01*
X135566458Y-86510479D01*
X135548627Y-86527931D01*
X135529323Y-86548274D01*
X135507658Y-86572653D01*
X135482743Y-86602208D01*
X135453689Y-86638082D01*
X135419607Y-86681419D01*
X135379609Y-86733360D01*
X135332807Y-86795047D01*
X135278310Y-86867624D01*
X135215232Y-86952233D01*
X135142683Y-87050016D01*
X135059775Y-87162116D01*
X134965618Y-87289675D01*
X134859324Y-87433836D01*
X134745005Y-87588956D01*
X134630601Y-87744021D01*
X134529269Y-87880963D01*
X134440385Y-88000593D01*
X134363327Y-88103723D01*
X134297475Y-88191166D01*
X134242205Y-88263733D01*
X134196896Y-88322235D01*
X134160926Y-88367485D01*
X134133672Y-88400294D01*
X134114514Y-88421475D01*
X134102828Y-88431838D01*
X134098434Y-88432879D01*
X134089474Y-88421748D01*
X134067594Y-88393105D01*
X134033779Y-88348270D01*
X133989011Y-88288561D01*
X133934272Y-88215298D01*
X133870545Y-88129800D01*
X133798813Y-88033385D01*
X133720059Y-87927371D01*
X133635265Y-87813079D01*
X133545415Y-87691827D01*
X133451490Y-87564933D01*
X133422017Y-87525087D01*
X133326056Y-87395455D01*
X133233141Y-87270189D01*
X133144330Y-87150701D01*
X133060684Y-87038406D01*
X132983260Y-86934716D01*
X132913119Y-86841047D01*
X132851318Y-86758811D01*
X132798917Y-86689421D01*
X132756975Y-86634293D01*
X132726550Y-86594838D01*
X132708703Y-86572471D01*
X132706428Y-86569826D01*
X132603417Y-86469153D01*
X132491056Y-86387465D01*
X132370752Y-86325425D01*
X132243912Y-86283694D01*
X132111940Y-86262934D01*
X132049697Y-86260609D01*
X131971131Y-86265171D01*
G37*
X131971131Y-86265171D02*
X131882257Y-86277497D01*
X131794408Y-86295542D01*
X131718915Y-86317264D01*
X131703078Y-86323116D01*
X131586914Y-86379527D01*
X131482507Y-86451597D01*
X131394608Y-86535450D01*
X131327969Y-86627213D01*
X131326055Y-86630565D01*
X131317947Y-86648909D01*
X131302914Y-86687208D01*
X131281411Y-86744198D01*
X131253891Y-86818615D01*
X131220809Y-86909193D01*
X131182617Y-87014669D01*
X131139771Y-87133777D01*
X131092724Y-87265253D01*
X131041930Y-87407833D01*
X130987843Y-87560252D01*
X130930917Y-87721245D01*
X130871605Y-87889548D01*
X130810363Y-88063896D01*
X130762703Y-88199960D01*
X130689829Y-88408280D01*
X130624019Y-88596489D01*
X130564912Y-88765685D01*
X130512149Y-88916967D01*
X130465370Y-89051433D01*
X130424214Y-89170182D01*
X130388321Y-89274312D01*
X130357332Y-89364920D01*
X130330885Y-89443107D01*
X130308622Y-89509969D01*
X130290182Y-89566605D01*
X130275205Y-89614113D01*
X130263331Y-89653593D01*
X130254200Y-89686141D01*
X130247452Y-89712857D01*
X130242726Y-89734839D01*
X130239663Y-89753185D01*
X130237902Y-89768993D01*
X130237085Y-89783362D01*
X130236849Y-89797390D01*
X130236837Y-89804026D01*
X130236837Y-89904956D01*
X131645964Y-89904956D01*
X131655244Y-89874587D01*
X131659825Y-89859443D01*
X131670368Y-89824501D01*
X131686383Y-89771387D01*
X131707378Y-89701729D01*
X131732865Y-89617156D01*
X131762351Y-89519295D01*
X131795347Y-89409774D01*
X131831363Y-89290221D01*
X131869906Y-89162264D01*
X131910488Y-89027530D01*
X131938115Y-88935800D01*
X132211707Y-88027383D01*
X132823408Y-88847452D01*
X132930894Y-88991487D01*
X133025450Y-89118009D01*
X133108101Y-89228312D01*
X133179866Y-89323689D01*
X133241768Y-89405433D01*
X133294829Y-89474837D01*
X133340070Y-89533194D01*
X133378514Y-89581797D01*
X133411181Y-89621938D01*
X133439094Y-89654912D01*
X133463274Y-89682010D01*
X133484744Y-89704527D01*
X133504524Y-89723754D01*
X133523637Y-89740985D01*
X133541497Y-89756176D01*
X133622315Y-89817743D01*
X133699870Y-89863231D01*
X133782131Y-89896579D01*
X133875701Y-89921435D01*
X133934671Y-89930010D01*
X134010151Y-89935111D01*
X134092356Y-89936597D01*
X134171502Y-89934323D01*
X134237806Y-89928149D01*
X134246314Y-89926832D01*
X134308947Y-89912973D01*
X134383571Y-89891352D01*
X134459308Y-89865485D01*
X134525281Y-89838889D01*
X134541024Y-89831546D01*
X134581460Y-89808868D01*
X134630873Y-89776900D01*
X134679491Y-89742013D01*
X134685938Y-89737057D01*
X134701984Y-89723830D01*
X134719554Y-89707578D01*
X134739619Y-89687075D01*
X134763152Y-89661092D01*
X134791123Y-89628402D01*
X134824505Y-89587777D01*
X134864268Y-89537990D01*
X134911384Y-89477812D01*
X134966826Y-89406017D01*
X135031564Y-89321375D01*
X135106569Y-89222661D01*
X135192814Y-89108646D01*
X135291271Y-88978102D01*
X135383624Y-88855435D01*
X135475445Y-88733576D01*
X135563277Y-88617345D01*
X135646100Y-88508072D01*
X135722893Y-88407090D01*
X135792635Y-88315730D01*
X135854304Y-88235323D01*
X135906881Y-88167201D01*
X135949344Y-88112696D01*
X135980673Y-88073139D01*
X135999846Y-88049861D01*
X136005832Y-88043875D01*
X136010016Y-88055243D01*
X136020077Y-88086500D01*
X136035542Y-88136087D01*
X136055938Y-88202444D01*
X136080794Y-88284013D01*
X136109636Y-88379234D01*
X136141992Y-88486547D01*
X136177389Y-88604394D01*
X136215355Y-88731214D01*
X136255417Y-88865450D01*
X136287908Y-88974607D01*
X136562874Y-89899435D01*
X137302945Y-89902288D01*
X137474811Y-89902817D01*
X137621337Y-89902965D01*
X137743772Y-89902716D01*
X137843368Y-89902055D01*
X137921377Y-89900966D01*
X137979050Y-89899432D01*
X138017640Y-89897436D01*
X138038397Y-89894964D01*
X138043015Y-89892753D01*
X138039353Y-89880911D01*
X138028639Y-89849038D01*
X138011281Y-89798306D01*
X137987687Y-89729884D01*
X137958264Y-89644942D01*
X137923420Y-89544650D01*
X137883564Y-89430179D01*
X137839103Y-89302698D01*
X137790445Y-89163379D01*
X137737998Y-89013390D01*
X137682169Y-88853903D01*
X137623367Y-88686087D01*
X137562000Y-88511113D01*
X137498475Y-88330150D01*
X137483879Y-88288595D01*
X137394363Y-88034109D01*
X137312043Y-87800816D01*
X137236894Y-87588649D01*
X137168894Y-87397543D01*
X137108019Y-87227432D01*
X137054245Y-87078251D01*
X137007547Y-86949933D01*
X136967903Y-86842414D01*
X136935288Y-86755628D01*
X136909679Y-86689509D01*
X136891052Y-86643991D01*
X136879384Y-86619009D01*
X136878766Y-86617923D01*
X136812993Y-86526659D01*
X136727895Y-86447088D01*
X136620368Y-86376328D01*
X136615645Y-86373689D01*
X136513586Y-86324472D01*
X136410962Y-86291461D01*
X136300189Y-86272817D01*
X136174586Y-86266704D01*
X136048097Y-86272498D01*
X135935913Y-86292151D01*
X135832940Y-86327475D01*
X135734087Y-86380280D01*
X135634262Y-86452381D01*
X135620001Y-86464049D01*
X135601257Y-86479680D01*
X135583705Y-86494776D01*
X135566458Y-86510479D01*
X135548627Y-86527931D01*
X135529323Y-86548274D01*
X135507658Y-86572653D01*
X135482743Y-86602208D01*
X135453689Y-86638082D01*
X135419607Y-86681419D01*
X135379609Y-86733360D01*
X135332807Y-86795047D01*
X135278310Y-86867624D01*
X135215232Y-86952233D01*
X135142683Y-87050016D01*
X135059775Y-87162116D01*
X134965618Y-87289675D01*
X134859324Y-87433836D01*
X134745005Y-87588956D01*
X134630601Y-87744021D01*
X134529269Y-87880963D01*
X134440385Y-88000593D01*
X134363327Y-88103723D01*
X134297475Y-88191166D01*
X134242205Y-88263733D01*
X134196896Y-88322235D01*
X134160926Y-88367485D01*
X134133672Y-88400294D01*
X134114514Y-88421475D01*
X134102828Y-88431838D01*
X134098434Y-88432879D01*
X134089474Y-88421748D01*
X134067594Y-88393105D01*
X134033779Y-88348270D01*
X133989011Y-88288561D01*
X133934272Y-88215298D01*
X133870545Y-88129800D01*
X133798813Y-88033385D01*
X133720059Y-87927371D01*
X133635265Y-87813079D01*
X133545415Y-87691827D01*
X133451490Y-87564933D01*
X133422017Y-87525087D01*
X133326056Y-87395455D01*
X133233141Y-87270189D01*
X133144330Y-87150701D01*
X133060684Y-87038406D01*
X132983260Y-86934716D01*
X132913119Y-86841047D01*
X132851318Y-86758811D01*
X132798917Y-86689421D01*
X132756975Y-86634293D01*
X132726550Y-86594838D01*
X132708703Y-86572471D01*
X132706428Y-86569826D01*
X132603417Y-86469153D01*
X132491056Y-86387465D01*
X132370752Y-86325425D01*
X132243912Y-86283694D01*
X132111940Y-86262934D01*
X132049697Y-86260609D01*
X131971131Y-86265171D01*
G36*
X146196101Y-86304805D02*
G01*
X145946248Y-86304880D01*
X145720662Y-86305016D01*
X145518180Y-86305222D01*
X145337637Y-86305506D01*
X145177869Y-86305878D01*
X145037711Y-86306345D01*
X144916000Y-86306918D01*
X144811571Y-86307605D01*
X144723259Y-86308415D01*
X144649900Y-86309356D01*
X144590329Y-86310438D01*
X144543383Y-86311670D01*
X144507897Y-86313059D01*
X144482706Y-86314616D01*
X144466646Y-86316349D01*
X144458554Y-86318266D01*
X144457092Y-86320103D01*
X144466367Y-86331588D01*
X144490361Y-86358850D01*
X144527525Y-86400195D01*
X144576314Y-86453924D01*
X144635178Y-86518342D01*
X144702571Y-86591753D01*
X144776945Y-86672458D01*
X144856752Y-86758763D01*
X144885193Y-86789451D01*
X145306214Y-87243478D01*
X146855113Y-87243478D01*
X147119236Y-87243557D01*
X147357444Y-87243795D01*
X147570420Y-87244200D01*
X147758847Y-87244775D01*
X147923406Y-87245527D01*
X148064780Y-87246460D01*
X148183650Y-87247579D01*
X148280700Y-87248890D01*
X148356611Y-87250397D01*
X148412065Y-87252107D01*
X148447745Y-87254025D01*
X148462768Y-87255764D01*
X148526399Y-87277812D01*
X148571555Y-87311556D01*
X148596124Y-87353672D01*
X148597997Y-87400833D01*
X148580682Y-87441613D01*
X148573562Y-87453305D01*
X148567185Y-87463665D01*
X148559990Y-87472780D01*
X148550413Y-87480737D01*
X148536892Y-87487625D01*
X148517865Y-87493531D01*
X148491768Y-87498543D01*
X148457039Y-87502748D01*
X148412116Y-87506235D01*
X148355436Y-87509090D01*
X148285436Y-87511402D01*
X148200553Y-87513257D01*
X148099226Y-87514745D01*
X147979892Y-87515952D01*
X147840987Y-87516966D01*
X147680950Y-87517875D01*
X147498218Y-87518767D01*
X147291228Y-87519728D01*
X147179036Y-87520259D01*
X146956977Y-87521337D01*
X146759724Y-87522362D01*
X146585489Y-87523401D01*
X146432482Y-87524517D01*
X146298913Y-87525779D01*
X146182993Y-87527251D01*
X146082933Y-87528999D01*
X145996942Y-87531089D01*
X145923231Y-87533588D01*
X145860012Y-87536560D01*
X145805493Y-87540073D01*
X145757886Y-87544191D01*
X145715402Y-87548981D01*
X145676250Y-87554508D01*
X145638641Y-87560838D01*
X145600786Y-87568038D01*
X145560895Y-87576172D01*
X145539648Y-87580607D01*
X145334444Y-87632532D01*
X145143019Y-87699076D01*
X144967141Y-87779178D01*
X144808578Y-87871778D01*
X144669098Y-87975813D01*
X144550469Y-88090223D01*
X144454460Y-88213946D01*
X144436183Y-88242913D01*
X144380295Y-88356432D01*
X144340642Y-88482532D01*
X144317716Y-88615995D01*
X144312009Y-88751600D01*
X144324012Y-88884126D01*
X144354217Y-89008355D01*
X144361994Y-89030428D01*
X144425345Y-89164000D01*
X144512181Y-89289151D01*
X144620998Y-89405021D01*
X144750292Y-89510748D01*
X144898558Y-89605475D01*
X145064293Y-89688339D01*
X145245991Y-89758482D01*
X145442148Y-89815044D01*
X145651261Y-89857163D01*
X145851994Y-89882257D01*
X145881141Y-89883712D01*
X145934312Y-89885074D01*
X146009977Y-89886345D01*
X146106604Y-89887524D01*
X146222665Y-89888611D01*
X146356626Y-89889608D01*
X146506958Y-89890514D01*
X146672131Y-89891329D01*
X146850613Y-89892054D01*
X147040873Y-89892689D01*
X147241382Y-89893234D01*
X147450607Y-89893689D01*
X147667019Y-89894055D01*
X147889087Y-89894332D01*
X148115280Y-89894520D01*
X148344068Y-89894620D01*
X148573918Y-89894631D01*
X148803302Y-89894553D01*
X149030688Y-89894388D01*
X149254546Y-89894135D01*
X149473344Y-89893795D01*
X149685552Y-89893368D01*
X149889639Y-89892853D01*
X150084076Y-89892252D01*
X150267329Y-89891565D01*
X150437871Y-89890791D01*
X150594168Y-89889931D01*
X150734691Y-89888986D01*
X150857910Y-89887954D01*
X150962292Y-89886838D01*
X151046308Y-89885637D01*
X151108427Y-89884351D01*
X151147118Y-89882980D01*
X151160850Y-89881525D01*
X151160837Y-89881420D01*
X151151102Y-89870493D01*
X151126636Y-89843802D01*
X151089007Y-89803040D01*
X151039784Y-89749895D01*
X150980535Y-89686060D01*
X150912829Y-89613224D01*
X150838232Y-89533079D01*
X150758315Y-89447315D01*
X150733174Y-89420355D01*
X150314809Y-88971782D01*
X148165116Y-88966053D01*
X147881007Y-88965322D01*
X147622223Y-88964683D01*
X147387494Y-88964091D01*
X147175549Y-88963504D01*
X146985116Y-88962876D01*
X146814925Y-88962163D01*
X146663706Y-88961322D01*
X146530187Y-88960308D01*
X146413097Y-88959077D01*
X146311166Y-88957586D01*
X146223123Y-88955788D01*
X146147696Y-88953642D01*
X146083616Y-88951102D01*
X146029610Y-88948125D01*
X145984409Y-88944665D01*
X145946741Y-88940680D01*
X145915336Y-88936125D01*
X145888922Y-88930956D01*
X145866229Y-88925128D01*
X145845986Y-88918598D01*
X145826922Y-88911321D01*
X145807766Y-88903254D01*
X145787248Y-88894351D01*
X145764096Y-88884570D01*
X145758995Y-88882487D01*
X145679037Y-88841642D01*
X145623733Y-88795346D01*
X145592671Y-88745539D01*
X145585441Y-88694161D01*
X145601634Y-88643151D01*
X145640837Y-88594450D01*
X145702642Y-88549998D01*
X145786638Y-88511735D01*
X145841115Y-88494318D01*
X145948932Y-88464148D01*
X147305371Y-88457705D01*
X147531860Y-88456630D01*
X147733508Y-88455632D01*
X147912068Y-88454640D01*
X148069297Y-88453580D01*
X148206948Y-88452381D01*
X148326777Y-88450970D01*
X148430538Y-88449276D01*
X148519986Y-88447225D01*
X148596875Y-88444746D01*
X148662961Y-88441767D01*
X148719999Y-88438215D01*
X148769742Y-88434017D01*
X148813946Y-88429103D01*
X148854365Y-88423399D01*
X148892755Y-88416834D01*
X148930869Y-88409334D01*
X148970463Y-88400829D01*
X149013291Y-88391245D01*
X149034167Y-88386543D01*
X149222123Y-88335716D01*
X149397354Y-88271199D01*
X149557716Y-88194315D01*
X149701066Y-88106389D01*
X149825257Y-88008743D01*
X149928148Y-87902702D01*
X150007593Y-87789589D01*
X150011103Y-87783432D01*
X150052678Y-87700794D01*
X150081480Y-87620567D01*
X150099124Y-87536064D01*
X150107227Y-87440597D01*
X150108202Y-87381522D01*
X150104160Y-87275972D01*
X150091406Y-87185145D01*
X150068356Y-87102481D01*
X150033427Y-87021425D01*
X150011103Y-86979611D01*
X149933043Y-86866315D01*
X149831556Y-86760130D01*
X149708862Y-86662315D01*
X149567180Y-86574129D01*
X149408730Y-86496831D01*
X149235732Y-86431680D01*
X149050404Y-86379934D01*
X148901183Y-86350099D01*
X148865055Y-86344194D01*
X148829886Y-86338825D01*
X148794312Y-86333967D01*
X148756970Y-86329593D01*
X148716494Y-86325679D01*
X148671521Y-86322199D01*
X148620686Y-86319128D01*
X148562625Y-86316440D01*
X148495974Y-86314109D01*
X148419369Y-86312111D01*
X148331445Y-86310420D01*
X148230839Y-86309009D01*
X148116186Y-86307855D01*
X147986122Y-86306932D01*
X147839282Y-86306213D01*
X147674303Y-86305674D01*
X147489820Y-86305289D01*
X147284470Y-86305033D01*
X147056887Y-86304880D01*
X146805707Y-86304805D01*
X146529568Y-86304783D01*
X146471388Y-86304782D01*
X146196101Y-86304805D01*
G37*
X146196101Y-86304805D02*
X145946248Y-86304880D01*
X145720662Y-86305016D01*
X145518180Y-86305222D01*
X145337637Y-86305506D01*
X145177869Y-86305878D01*
X145037711Y-86306345D01*
X144916000Y-86306918D01*
X144811571Y-86307605D01*
X144723259Y-86308415D01*
X144649900Y-86309356D01*
X144590329Y-86310438D01*
X144543383Y-86311670D01*
X144507897Y-86313059D01*
X144482706Y-86314616D01*
X144466646Y-86316349D01*
X144458554Y-86318266D01*
X144457092Y-86320103D01*
X144466367Y-86331588D01*
X144490361Y-86358850D01*
X144527525Y-86400195D01*
X144576314Y-86453924D01*
X144635178Y-86518342D01*
X144702571Y-86591753D01*
X144776945Y-86672458D01*
X144856752Y-86758763D01*
X144885193Y-86789451D01*
X145306214Y-87243478D01*
X146855113Y-87243478D01*
X147119236Y-87243557D01*
X147357444Y-87243795D01*
X147570420Y-87244200D01*
X147758847Y-87244775D01*
X147923406Y-87245527D01*
X148064780Y-87246460D01*
X148183650Y-87247579D01*
X148280700Y-87248890D01*
X148356611Y-87250397D01*
X148412065Y-87252107D01*
X148447745Y-87254025D01*
X148462768Y-87255764D01*
X148526399Y-87277812D01*
X148571555Y-87311556D01*
X148596124Y-87353672D01*
X148597997Y-87400833D01*
X148580682Y-87441613D01*
X148573562Y-87453305D01*
X148567185Y-87463665D01*
X148559990Y-87472780D01*
X148550413Y-87480737D01*
X148536892Y-87487625D01*
X148517865Y-87493531D01*
X148491768Y-87498543D01*
X148457039Y-87502748D01*
X148412116Y-87506235D01*
X148355436Y-87509090D01*
X148285436Y-87511402D01*
X148200553Y-87513257D01*
X148099226Y-87514745D01*
X147979892Y-87515952D01*
X147840987Y-87516966D01*
X147680950Y-87517875D01*
X147498218Y-87518767D01*
X147291228Y-87519728D01*
X147179036Y-87520259D01*
X146956977Y-87521337D01*
X146759724Y-87522362D01*
X146585489Y-87523401D01*
X146432482Y-87524517D01*
X146298913Y-87525779D01*
X146182993Y-87527251D01*
X146082933Y-87528999D01*
X145996942Y-87531089D01*
X145923231Y-87533588D01*
X145860012Y-87536560D01*
X145805493Y-87540073D01*
X145757886Y-87544191D01*
X145715402Y-87548981D01*
X145676250Y-87554508D01*
X145638641Y-87560838D01*
X145600786Y-87568038D01*
X145560895Y-87576172D01*
X145539648Y-87580607D01*
X145334444Y-87632532D01*
X145143019Y-87699076D01*
X144967141Y-87779178D01*
X144808578Y-87871778D01*
X144669098Y-87975813D01*
X144550469Y-88090223D01*
X144454460Y-88213946D01*
X144436183Y-88242913D01*
X144380295Y-88356432D01*
X144340642Y-88482532D01*
X144317716Y-88615995D01*
X144312009Y-88751600D01*
X144324012Y-88884126D01*
X144354217Y-89008355D01*
X144361994Y-89030428D01*
X144425345Y-89164000D01*
X144512181Y-89289151D01*
X144620998Y-89405021D01*
X144750292Y-89510748D01*
X144898558Y-89605475D01*
X145064293Y-89688339D01*
X145245991Y-89758482D01*
X145442148Y-89815044D01*
X145651261Y-89857163D01*
X145851994Y-89882257D01*
X145881141Y-89883712D01*
X145934312Y-89885074D01*
X146009977Y-89886345D01*
X146106604Y-89887524D01*
X146222665Y-89888611D01*
X146356626Y-89889608D01*
X146506958Y-89890514D01*
X146672131Y-89891329D01*
X146850613Y-89892054D01*
X147040873Y-89892689D01*
X147241382Y-89893234D01*
X147450607Y-89893689D01*
X147667019Y-89894055D01*
X147889087Y-89894332D01*
X148115280Y-89894520D01*
X148344068Y-89894620D01*
X148573918Y-89894631D01*
X148803302Y-89894553D01*
X149030688Y-89894388D01*
X149254546Y-89894135D01*
X149473344Y-89893795D01*
X149685552Y-89893368D01*
X149889639Y-89892853D01*
X150084076Y-89892252D01*
X150267329Y-89891565D01*
X150437871Y-89890791D01*
X150594168Y-89889931D01*
X150734691Y-89888986D01*
X150857910Y-89887954D01*
X150962292Y-89886838D01*
X151046308Y-89885637D01*
X151108427Y-89884351D01*
X151147118Y-89882980D01*
X151160850Y-89881525D01*
X151160837Y-89881420D01*
X151151102Y-89870493D01*
X151126636Y-89843802D01*
X151089007Y-89803040D01*
X151039784Y-89749895D01*
X150980535Y-89686060D01*
X150912829Y-89613224D01*
X150838232Y-89533079D01*
X150758315Y-89447315D01*
X150733174Y-89420355D01*
X150314809Y-88971782D01*
X148165116Y-88966053D01*
X147881007Y-88965322D01*
X147622223Y-88964683D01*
X147387494Y-88964091D01*
X147175549Y-88963504D01*
X146985116Y-88962876D01*
X146814925Y-88962163D01*
X146663706Y-88961322D01*
X146530187Y-88960308D01*
X146413097Y-88959077D01*
X146311166Y-88957586D01*
X146223123Y-88955788D01*
X146147696Y-88953642D01*
X146083616Y-88951102D01*
X146029610Y-88948125D01*
X145984409Y-88944665D01*
X145946741Y-88940680D01*
X145915336Y-88936125D01*
X145888922Y-88930956D01*
X145866229Y-88925128D01*
X145845986Y-88918598D01*
X145826922Y-88911321D01*
X145807766Y-88903254D01*
X145787248Y-88894351D01*
X145764096Y-88884570D01*
X145758995Y-88882487D01*
X145679037Y-88841642D01*
X145623733Y-88795346D01*
X145592671Y-88745539D01*
X145585441Y-88694161D01*
X145601634Y-88643151D01*
X145640837Y-88594450D01*
X145702642Y-88549998D01*
X145786638Y-88511735D01*
X145841115Y-88494318D01*
X145948932Y-88464148D01*
X147305371Y-88457705D01*
X147531860Y-88456630D01*
X147733508Y-88455632D01*
X147912068Y-88454640D01*
X148069297Y-88453580D01*
X148206948Y-88452381D01*
X148326777Y-88450970D01*
X148430538Y-88449276D01*
X148519986Y-88447225D01*
X148596875Y-88444746D01*
X148662961Y-88441767D01*
X148719999Y-88438215D01*
X148769742Y-88434017D01*
X148813946Y-88429103D01*
X148854365Y-88423399D01*
X148892755Y-88416834D01*
X148930869Y-88409334D01*
X148970463Y-88400829D01*
X149013291Y-88391245D01*
X149034167Y-88386543D01*
X149222123Y-88335716D01*
X149397354Y-88271199D01*
X149557716Y-88194315D01*
X149701066Y-88106389D01*
X149825257Y-88008743D01*
X149928148Y-87902702D01*
X150007593Y-87789589D01*
X150011103Y-87783432D01*
X150052678Y-87700794D01*
X150081480Y-87620567D01*
X150099124Y-87536064D01*
X150107227Y-87440597D01*
X150108202Y-87381522D01*
X150104160Y-87275972D01*
X150091406Y-87185145D01*
X150068356Y-87102481D01*
X150033427Y-87021425D01*
X150011103Y-86979611D01*
X149933043Y-86866315D01*
X149831556Y-86760130D01*
X149708862Y-86662315D01*
X149567180Y-86574129D01*
X149408730Y-86496831D01*
X149235732Y-86431680D01*
X149050404Y-86379934D01*
X148901183Y-86350099D01*
X148865055Y-86344194D01*
X148829886Y-86338825D01*
X148794312Y-86333967D01*
X148756970Y-86329593D01*
X148716494Y-86325679D01*
X148671521Y-86322199D01*
X148620686Y-86319128D01*
X148562625Y-86316440D01*
X148495974Y-86314109D01*
X148419369Y-86312111D01*
X148331445Y-86310420D01*
X148230839Y-86309009D01*
X148116186Y-86307855D01*
X147986122Y-86306932D01*
X147839282Y-86306213D01*
X147674303Y-86305674D01*
X147489820Y-86305289D01*
X147284470Y-86305033D01*
X147056887Y-86304880D01*
X146805707Y-86304805D01*
X146529568Y-86304783D01*
X146471388Y-86304782D01*
X146196101Y-86304805D01*
G36*
X140649507Y-84322595D02*
G01*
X140177413Y-84714522D01*
X139705319Y-85106448D01*
X139705319Y-85860945D01*
X139764808Y-85889896D01*
X139822571Y-85929440D01*
X139868633Y-85983275D01*
X139896857Y-86044094D01*
X139898028Y-86048509D01*
X139900092Y-86107531D01*
X139880041Y-86167150D01*
X139841598Y-86222733D01*
X139788487Y-86269646D01*
X139724434Y-86303255D01*
X139684011Y-86314772D01*
X139598465Y-86321362D01*
X139518376Y-86307519D01*
X139447743Y-86274786D01*
X139390567Y-86224702D01*
X139367844Y-86192921D01*
X139338616Y-86123133D01*
X139335596Y-86055880D01*
X139358565Y-85992333D01*
X139407302Y-85933660D01*
X139418338Y-85924085D01*
X139458273Y-85895539D01*
X139500217Y-85872574D01*
X139523728Y-85863608D01*
X139572335Y-85850287D01*
X139572335Y-85073320D01*
X140051078Y-84675869D01*
X140529822Y-84278419D01*
X140529822Y-82196609D01*
X139878199Y-82196609D01*
X139878199Y-84101778D01*
X139553206Y-84371494D01*
X139465624Y-84444360D01*
X139395319Y-84503373D01*
X139340572Y-84550139D01*
X139299668Y-84586268D01*
X139270889Y-84613365D01*
X139252518Y-84633041D01*
X139242838Y-84646901D01*
X139240132Y-84656555D01*
X139242127Y-84662800D01*
X139248671Y-84684937D01*
X139251582Y-84720576D01*
X139250661Y-84754554D01*
X139242620Y-84805479D01*
X139224400Y-84845339D01*
X139191330Y-84881154D01*
X139142105Y-84917689D01*
X139081327Y-84945252D01*
X139009324Y-84957027D01*
X138934012Y-84952563D01*
X138867696Y-84933337D01*
X138801159Y-84893010D01*
X138753872Y-84838615D01*
X138728333Y-84773239D01*
X138725928Y-84758093D01*
X138730137Y-84692940D01*
X138756374Y-84634667D01*
X138800638Y-84585632D01*
X138858925Y-84548190D01*
X138927232Y-84524697D01*
X139001555Y-84517509D01*
X139077891Y-84528984D01*
X139101794Y-84536870D01*
X139156540Y-84557516D01*
X139745214Y-84068298D01*
X139745214Y-82196609D01*
X139620409Y-82196609D01*
X139561515Y-82197005D01*
X139523318Y-82198895D01*
X139499922Y-82203331D01*
X139485435Y-82211366D01*
X139475140Y-82222544D01*
X139464166Y-82243085D01*
X139447750Y-82283866D01*
X139425828Y-82345073D01*
X139398340Y-82426893D01*
X139365225Y-82529513D01*
X139326420Y-82653119D01*
X139281865Y-82797900D01*
X139233164Y-82958513D01*
X139208961Y-83037619D01*
X139185714Y-83111376D01*
X139164498Y-83176548D01*
X139146384Y-83229904D01*
X139132444Y-83268208D01*
X139123860Y-83288042D01*
X139098353Y-83318492D01*
X139062419Y-83346376D01*
X139054942Y-83350687D01*
X139016073Y-83367269D01*
X138957794Y-83386818D01*
X138886661Y-83407521D01*
X138809231Y-83427566D01*
X138732059Y-83445138D01*
X138671161Y-83456844D01*
X138584408Y-83464001D01*
X138506494Y-83452718D01*
X138431052Y-83421746D01*
X138400408Y-83403733D01*
X138378265Y-83387512D01*
X138340091Y-83357046D01*
X138288075Y-83314182D01*
X138224406Y-83260765D01*
X138151273Y-83198640D01*
X138070866Y-83129654D01*
X137985374Y-83055653D01*
X137922953Y-83001223D01*
X137824057Y-82914844D01*
X137741644Y-82843219D01*
X137674007Y-82784992D01*
X137619435Y-82738806D01*
X137576221Y-82703303D01*
X137542655Y-82677126D01*
X137517029Y-82658919D01*
X137497634Y-82647323D01*
X137482761Y-82640982D01*
X137470701Y-82638538D01*
X137466065Y-82638348D01*
X137442721Y-82642614D01*
X137404118Y-82655859D01*
X137348684Y-82678748D01*
X137274848Y-82711949D01*
X137181040Y-82756129D01*
X137125298Y-82782958D01*
X137026979Y-82830390D01*
X136919993Y-82881728D01*
X136811552Y-82933530D01*
X136708868Y-82982355D01*
X136619152Y-83024760D01*
X136589782Y-83038559D01*
X136516219Y-83073776D01*
X136449335Y-83107175D01*
X136393126Y-83136650D01*
X136351585Y-83160096D01*
X136328709Y-83175407D01*
X136326967Y-83177046D01*
X136311055Y-83199096D01*
X136303493Y-83225472D01*
X136304595Y-83259806D01*
X136314674Y-83305729D01*
X136334044Y-83366872D01*
X136346378Y-83401709D01*
X136360668Y-83441613D01*
X136381153Y-83499400D01*
X136406660Y-83571731D01*
X136436016Y-83655265D01*
X136468047Y-83746663D01*
X136501579Y-83842587D01*
X136533584Y-83934370D01*
X136570072Y-84039505D01*
X136599578Y-84125559D01*
X136622706Y-84194623D01*
X136640058Y-84248787D01*
X136652236Y-84290140D01*
X136659843Y-84320772D01*
X136663482Y-84342773D01*
X136663754Y-84358233D01*
X136661264Y-84369242D01*
X136659868Y-84372396D01*
X136644442Y-84391586D01*
X136613165Y-84422195D01*
X136569969Y-84461010D01*
X136518785Y-84504822D01*
X136463543Y-84550418D01*
X136408176Y-84594587D01*
X136356613Y-84634119D01*
X136312786Y-84665801D01*
X136280627Y-84686423D01*
X136268341Y-84692224D01*
X136227321Y-84700721D01*
X136191935Y-84703478D01*
X136165635Y-84700289D01*
X136115896Y-84691023D01*
X136044685Y-84676132D01*
X135953971Y-84656069D01*
X135845723Y-84631287D01*
X135721908Y-84602237D01*
X135584496Y-84569374D01*
X135435454Y-84533148D01*
X135276751Y-84494012D01*
X135228521Y-84482014D01*
X135140682Y-84460466D01*
X135059708Y-84441257D01*
X134989595Y-84425283D01*
X134934335Y-84413438D01*
X134897922Y-84406618D01*
X134886296Y-84405304D01*
X134862864Y-84408480D01*
X134838690Y-84419271D01*
X134811994Y-84439571D01*
X134780995Y-84471273D01*
X134743912Y-84516271D01*
X134698963Y-84576459D01*
X134644368Y-84653730D01*
X134621446Y-84686913D01*
X134565305Y-84768116D01*
X134501636Y-84859489D01*
X134435659Y-84953589D01*
X134372593Y-85042970D01*
X134320173Y-85116670D01*
X134275737Y-85180061D01*
X134235855Y-85239340D01*
X134202669Y-85291128D01*
X134178320Y-85332046D01*
X134164952Y-85358718D01*
X134163244Y-85364164D01*
X134161608Y-85375095D01*
X134162548Y-85385617D01*
X134167960Y-85397524D01*
X134179737Y-85412610D01*
X134199773Y-85432668D01*
X134229964Y-85459494D01*
X134272204Y-85494880D01*
X134328386Y-85540621D01*
X134400406Y-85598511D01*
X134466975Y-85651797D01*
X134602705Y-85760526D01*
X134720382Y-85855143D01*
X134821267Y-85936725D01*
X134906616Y-86006349D01*
X134977689Y-86065092D01*
X135035744Y-86114031D01*
X135082040Y-86154243D01*
X135117834Y-86186804D01*
X135144386Y-86212791D01*
X135162953Y-86233281D01*
X135174794Y-86249351D01*
X135181168Y-86262078D01*
X135181578Y-86263284D01*
X135185642Y-86301444D01*
X135179794Y-86356778D01*
X135164675Y-86426187D01*
X135140926Y-86506571D01*
X135117292Y-86573654D01*
X135104193Y-86611350D01*
X135096192Y-86640062D01*
X135094854Y-86654078D01*
X135095137Y-86654443D01*
X135104114Y-86647778D01*
X135123674Y-86625741D01*
X135150783Y-86591936D01*
X135177416Y-86556745D01*
X135293253Y-86411777D01*
X135411126Y-86288143D01*
X135532255Y-86185101D01*
X135657858Y-86101911D01*
X135789152Y-86037829D01*
X135927356Y-85992114D01*
X136073689Y-85964024D01*
X136164899Y-85955383D01*
X136221474Y-85953376D01*
X136272718Y-85955685D01*
X136328634Y-85963252D01*
X136399227Y-85977020D01*
X136403069Y-85977834D01*
X136538463Y-86006609D01*
X138998857Y-86006609D01*
X139879993Y-87028130D01*
X139995514Y-87161981D01*
X140106740Y-87290709D01*
X140212689Y-87413185D01*
X140312381Y-87528282D01*
X140404834Y-87634872D01*
X140489068Y-87731828D01*
X140564103Y-87818023D01*
X140628956Y-87892328D01*
X140682646Y-87953616D01*
X140724194Y-88000760D01*
X140752618Y-88032631D01*
X140766936Y-88048103D01*
X140768486Y-88049448D01*
X140777004Y-88040606D01*
X140799942Y-88014888D01*
X140836321Y-87973430D01*
X140885160Y-87917364D01*
X140945482Y-87847825D01*
X141016306Y-87765946D01*
X141096653Y-87672860D01*
X141185545Y-87569702D01*
X141282002Y-87457606D01*
X141385045Y-87337705D01*
X141493695Y-87211133D01*
X141606971Y-87079023D01*
X141648386Y-87030687D01*
X142520930Y-86012130D01*
X143992474Y-86009321D01*
X145464019Y-86006512D01*
X145809404Y-85720440D01*
X145888909Y-85654103D01*
X145962692Y-85591606D01*
X146028541Y-85534896D01*
X146084240Y-85485920D01*
X146127576Y-85446623D01*
X146156334Y-85418954D01*
X146168244Y-85404983D01*
X146175451Y-85371724D01*
X146173049Y-85345994D01*
X146163962Y-85328336D01*
X146143151Y-85294832D01*
X146112653Y-85248536D01*
X146074502Y-85192506D01*
X146030736Y-85129796D01*
X146002460Y-85090000D01*
X145946175Y-85010724D01*
X145884807Y-84923285D01*
X145822925Y-84834260D01*
X145765098Y-84750227D01*
X145715897Y-84677764D01*
X145710917Y-84670348D01*
X145653755Y-84587035D01*
X145605861Y-84521962D01*
X145565432Y-84473285D01*
X145530663Y-84439162D01*
X145499752Y-84417750D01*
X145470893Y-84407206D01*
X145451473Y-84405304D01*
X145425132Y-84408504D01*
X145379127Y-84417303D01*
X145319099Y-84430501D01*
X145250687Y-84446897D01*
X145221880Y-84454174D01*
X145102978Y-84484406D01*
X144979612Y-84515294D01*
X144854592Y-84546172D01*
X144730727Y-84576377D01*
X144610826Y-84605245D01*
X144497697Y-84632113D01*
X144394150Y-84656316D01*
X144302995Y-84677190D01*
X144227039Y-84694071D01*
X144169093Y-84706296D01*
X144131965Y-84713201D01*
X144120337Y-84714522D01*
X144099021Y-84711854D01*
X144074807Y-84702259D01*
X144043649Y-84683345D01*
X144001499Y-84652721D01*
X143956776Y-84617891D01*
X143868545Y-84547187D01*
X143798884Y-84488159D01*
X143746475Y-84437819D01*
X143709999Y-84393179D01*
X143688138Y-84351251D01*
X143679574Y-84309046D01*
X143682988Y-84263576D01*
X143697061Y-84211853D01*
X143720477Y-84150888D01*
X143735315Y-84115913D01*
X143752267Y-84074425D01*
X143775090Y-84015353D01*
X143802433Y-83942370D01*
X143832941Y-83859148D01*
X143862427Y-83777237D01*
X142755023Y-83777237D01*
X142743671Y-83841314D01*
X142712083Y-83900153D01*
X142664177Y-83948959D01*
X142603872Y-83982938D01*
X142580847Y-83990365D01*
X142570514Y-83993716D01*
X142562911Y-83999560D01*
X142557619Y-84010946D01*
X142554220Y-84030923D01*
X142552295Y-84062539D01*
X142551425Y-84108845D01*
X142551192Y-84172887D01*
X142551183Y-84206362D01*
X142551183Y-84414539D01*
X142185476Y-84710300D01*
X141819769Y-85006060D01*
X141819769Y-86105551D01*
X141870897Y-86127212D01*
X141940098Y-86167467D01*
X141990478Y-86219332D01*
X142021051Y-86278950D01*
X142030827Y-86342463D01*
X142018817Y-86406014D01*
X141984034Y-86465745D01*
X141963327Y-86487890D01*
X141897896Y-86534459D01*
X141822429Y-86562321D01*
X141741617Y-86570697D01*
X141660150Y-86558803D01*
X141620557Y-86544978D01*
X141551001Y-86504683D01*
X141501862Y-86453883D01*
X141473053Y-86396140D01*
X141464487Y-86335017D01*
X141476079Y-86274078D01*
X141507740Y-86216885D01*
X141559386Y-86167002D01*
X141630687Y-86128087D01*
X141699989Y-86100478D01*
X141700036Y-85531245D01*
X141700083Y-84962011D01*
X142429775Y-84377695D01*
X142430636Y-84193574D01*
X142431497Y-84009452D01*
X142383812Y-83996383D01*
X142310694Y-83965646D01*
X142253883Y-83920194D01*
X142215222Y-83863843D01*
X142196552Y-83800412D01*
X142199714Y-83733720D01*
X142225812Y-83668808D01*
X142272524Y-83611688D01*
X142330946Y-83571674D01*
X142397202Y-83547971D01*
X142467418Y-83539787D01*
X142537722Y-83546328D01*
X142604239Y-83566799D01*
X142663095Y-83600407D01*
X142710417Y-83646359D01*
X142742330Y-83703861D01*
X142754962Y-83772119D01*
X142755023Y-83777237D01*
X143862427Y-83777237D01*
X143865263Y-83769360D01*
X143898047Y-83676680D01*
X143915460Y-83626739D01*
X143951580Y-83522152D01*
X143980527Y-83436543D01*
X144002627Y-83367699D01*
X144018205Y-83313406D01*
X144027587Y-83271453D01*
X144031097Y-83239626D01*
X144029061Y-83215711D01*
X144021804Y-83197496D01*
X144009653Y-83182768D01*
X143992931Y-83169313D01*
X143983662Y-83162852D01*
X143963187Y-83151275D01*
X143922175Y-83130144D01*
X143863258Y-83100745D01*
X143789071Y-83064364D01*
X143702248Y-83022289D01*
X143605423Y-82975807D01*
X143501231Y-82926204D01*
X143439559Y-82897030D01*
X143312422Y-82837138D01*
X143206141Y-82787491D01*
X143118515Y-82747321D01*
X143047346Y-82715862D01*
X142990432Y-82692347D01*
X142945574Y-82676009D01*
X142910573Y-82666081D01*
X142883228Y-82661795D01*
X142861339Y-82662386D01*
X142842707Y-82667085D01*
X142825132Y-82675125D01*
X142816623Y-82679833D01*
X142799660Y-82692076D01*
X142766576Y-82718251D01*
X142719733Y-82756405D01*
X142661492Y-82804586D01*
X142594215Y-82860843D01*
X142520263Y-82923224D01*
X142452640Y-82980695D01*
X142335478Y-83080565D01*
X142235340Y-83165764D01*
X142150739Y-83237477D01*
X142080187Y-83296892D01*
X142022196Y-83345194D01*
X141975276Y-83383572D01*
X141937941Y-83413210D01*
X141908703Y-83435296D01*
X141886072Y-83451016D01*
X141868561Y-83461556D01*
X141854682Y-83468104D01*
X141842946Y-83471845D01*
X141834504Y-83473548D01*
X141806188Y-83479166D01*
X141800653Y-83486425D01*
X141814595Y-83501270D01*
X141817577Y-83503986D01*
X141859777Y-83557742D01*
X141882921Y-83621185D01*
X141885591Y-83687467D01*
X141867906Y-83746756D01*
X141844234Y-83780006D01*
X141808573Y-83815218D01*
X141768335Y-83846256D01*
X141730930Y-83866983D01*
X141717632Y-83871182D01*
X141686785Y-83877612D01*
X141686785Y-84591257D01*
X141168146Y-85014249D01*
X140649507Y-85437240D01*
X140649507Y-86285142D01*
X140649550Y-86443189D01*
X140649701Y-86580566D01*
X140649993Y-86698690D01*
X140650462Y-86798978D01*
X140651142Y-86882847D01*
X140652067Y-86951713D01*
X140653270Y-87006994D01*
X140654787Y-87050107D01*
X140656652Y-87082469D01*
X140658898Y-87105495D01*
X140661560Y-87120605D01*
X140664672Y-87129213D01*
X140668268Y-87132738D01*
X140669985Y-87133043D01*
X140701776Y-87139580D01*
X140743590Y-87156140D01*
X140785491Y-87178146D01*
X140817507Y-87200990D01*
X140866567Y-87260301D01*
X140893522Y-87326002D01*
X140897349Y-87393618D01*
X140877028Y-87458675D01*
X140876524Y-87459628D01*
X140829708Y-87526252D01*
X140770048Y-87573650D01*
X140696621Y-87602338D01*
X140608502Y-87612834D01*
X140602963Y-87612896D01*
X140517135Y-87603207D01*
X140442165Y-87574288D01*
X140380720Y-87527923D01*
X140335463Y-87465895D01*
X140317095Y-87421607D01*
X140310051Y-87358139D01*
X140325806Y-87294223D01*
X140361426Y-87235001D01*
X140413978Y-87185617D01*
X140468784Y-87155611D01*
X140529822Y-87131073D01*
X140529822Y-85395952D01*
X141048460Y-84971372D01*
X141567099Y-84546793D01*
X141567099Y-83890698D01*
X141519674Y-83876457D01*
X141456644Y-83848037D01*
X141399135Y-83805328D01*
X141356914Y-83755815D01*
X141352529Y-83748312D01*
X141330546Y-83683235D01*
X141332534Y-83617353D01*
X141356561Y-83554886D01*
X141400699Y-83500056D01*
X141463018Y-83457083D01*
X141491343Y-83444635D01*
X141541922Y-83425446D01*
X141485259Y-83417922D01*
X141387329Y-83394932D01*
X141304842Y-83353972D01*
X141237645Y-83294949D01*
X141200129Y-83243669D01*
X141185914Y-83214480D01*
X141167887Y-83168635D01*
X141147799Y-83111077D01*
X141127405Y-83046749D01*
X141114096Y-83001090D01*
X141097565Y-82942949D01*
X141076379Y-82869662D01*
X141051761Y-82785356D01*
X141024936Y-82694157D01*
X140997130Y-82600194D01*
X140969565Y-82507593D01*
X140943467Y-82420481D01*
X140920061Y-82342985D01*
X140900570Y-82279234D01*
X140887706Y-82238022D01*
X140874556Y-82196609D01*
X140649507Y-82196609D01*
X140649507Y-84322595D01*
G37*
X140649507Y-84322595D02*
X140177413Y-84714522D01*
X139705319Y-85106448D01*
X139705319Y-85860945D01*
X139764808Y-85889896D01*
X139822571Y-85929440D01*
X139868633Y-85983275D01*
X139896857Y-86044094D01*
X139898028Y-86048509D01*
X139900092Y-86107531D01*
X139880041Y-86167150D01*
X139841598Y-86222733D01*
X139788487Y-86269646D01*
X139724434Y-86303255D01*
X139684011Y-86314772D01*
X139598465Y-86321362D01*
X139518376Y-86307519D01*
X139447743Y-86274786D01*
X139390567Y-86224702D01*
X139367844Y-86192921D01*
X139338616Y-86123133D01*
X139335596Y-86055880D01*
X139358565Y-85992333D01*
X139407302Y-85933660D01*
X139418338Y-85924085D01*
X139458273Y-85895539D01*
X139500217Y-85872574D01*
X139523728Y-85863608D01*
X139572335Y-85850287D01*
X139572335Y-85073320D01*
X140051078Y-84675869D01*
X140529822Y-84278419D01*
X140529822Y-82196609D01*
X139878199Y-82196609D01*
X139878199Y-84101778D01*
X139553206Y-84371494D01*
X139465624Y-84444360D01*
X139395319Y-84503373D01*
X139340572Y-84550139D01*
X139299668Y-84586268D01*
X139270889Y-84613365D01*
X139252518Y-84633041D01*
X139242838Y-84646901D01*
X139240132Y-84656555D01*
X139242127Y-84662800D01*
X139248671Y-84684937D01*
X139251582Y-84720576D01*
X139250661Y-84754554D01*
X139242620Y-84805479D01*
X139224400Y-84845339D01*
X139191330Y-84881154D01*
X139142105Y-84917689D01*
X139081327Y-84945252D01*
X139009324Y-84957027D01*
X138934012Y-84952563D01*
X138867696Y-84933337D01*
X138801159Y-84893010D01*
X138753872Y-84838615D01*
X138728333Y-84773239D01*
X138725928Y-84758093D01*
X138730137Y-84692940D01*
X138756374Y-84634667D01*
X138800638Y-84585632D01*
X138858925Y-84548190D01*
X138927232Y-84524697D01*
X139001555Y-84517509D01*
X139077891Y-84528984D01*
X139101794Y-84536870D01*
X139156540Y-84557516D01*
X139745214Y-84068298D01*
X139745214Y-82196609D01*
X139620409Y-82196609D01*
X139561515Y-82197005D01*
X139523318Y-82198895D01*
X139499922Y-82203331D01*
X139485435Y-82211366D01*
X139475140Y-82222544D01*
X139464166Y-82243085D01*
X139447750Y-82283866D01*
X139425828Y-82345073D01*
X139398340Y-82426893D01*
X139365225Y-82529513D01*
X139326420Y-82653119D01*
X139281865Y-82797900D01*
X139233164Y-82958513D01*
X139208961Y-83037619D01*
X139185714Y-83111376D01*
X139164498Y-83176548D01*
X139146384Y-83229904D01*
X139132444Y-83268208D01*
X139123860Y-83288042D01*
X139098353Y-83318492D01*
X139062419Y-83346376D01*
X139054942Y-83350687D01*
X139016073Y-83367269D01*
X138957794Y-83386818D01*
X138886661Y-83407521D01*
X138809231Y-83427566D01*
X138732059Y-83445138D01*
X138671161Y-83456844D01*
X138584408Y-83464001D01*
X138506494Y-83452718D01*
X138431052Y-83421746D01*
X138400408Y-83403733D01*
X138378265Y-83387512D01*
X138340091Y-83357046D01*
X138288075Y-83314182D01*
X138224406Y-83260765D01*
X138151273Y-83198640D01*
X138070866Y-83129654D01*
X137985374Y-83055653D01*
X137922953Y-83001223D01*
X137824057Y-82914844D01*
X137741644Y-82843219D01*
X137674007Y-82784992D01*
X137619435Y-82738806D01*
X137576221Y-82703303D01*
X137542655Y-82677126D01*
X137517029Y-82658919D01*
X137497634Y-82647323D01*
X137482761Y-82640982D01*
X137470701Y-82638538D01*
X137466065Y-82638348D01*
X137442721Y-82642614D01*
X137404118Y-82655859D01*
X137348684Y-82678748D01*
X137274848Y-82711949D01*
X137181040Y-82756129D01*
X137125298Y-82782958D01*
X137026979Y-82830390D01*
X136919993Y-82881728D01*
X136811552Y-82933530D01*
X136708868Y-82982355D01*
X136619152Y-83024760D01*
X136589782Y-83038559D01*
X136516219Y-83073776D01*
X136449335Y-83107175D01*
X136393126Y-83136650D01*
X136351585Y-83160096D01*
X136328709Y-83175407D01*
X136326967Y-83177046D01*
X136311055Y-83199096D01*
X136303493Y-83225472D01*
X136304595Y-83259806D01*
X136314674Y-83305729D01*
X136334044Y-83366872D01*
X136346378Y-83401709D01*
X136360668Y-83441613D01*
X136381153Y-83499400D01*
X136406660Y-83571731D01*
X136436016Y-83655265D01*
X136468047Y-83746663D01*
X136501579Y-83842587D01*
X136533584Y-83934370D01*
X136570072Y-84039505D01*
X136599578Y-84125559D01*
X136622706Y-84194623D01*
X136640058Y-84248787D01*
X136652236Y-84290140D01*
X136659843Y-84320772D01*
X136663482Y-84342773D01*
X136663754Y-84358233D01*
X136661264Y-84369242D01*
X136659868Y-84372396D01*
X136644442Y-84391586D01*
X136613165Y-84422195D01*
X136569969Y-84461010D01*
X136518785Y-84504822D01*
X136463543Y-84550418D01*
X136408176Y-84594587D01*
X136356613Y-84634119D01*
X136312786Y-84665801D01*
X136280627Y-84686423D01*
X136268341Y-84692224D01*
X136227321Y-84700721D01*
X136191935Y-84703478D01*
X136165635Y-84700289D01*
X136115896Y-84691023D01*
X136044685Y-84676132D01*
X135953971Y-84656069D01*
X135845723Y-84631287D01*
X135721908Y-84602237D01*
X135584496Y-84569374D01*
X135435454Y-84533148D01*
X135276751Y-84494012D01*
X135228521Y-84482014D01*
X135140682Y-84460466D01*
X135059708Y-84441257D01*
X134989595Y-84425283D01*
X134934335Y-84413438D01*
X134897922Y-84406618D01*
X134886296Y-84405304D01*
X134862864Y-84408480D01*
X134838690Y-84419271D01*
X134811994Y-84439571D01*
X134780995Y-84471273D01*
X134743912Y-84516271D01*
X134698963Y-84576459D01*
X134644368Y-84653730D01*
X134621446Y-84686913D01*
X134565305Y-84768116D01*
X134501636Y-84859489D01*
X134435659Y-84953589D01*
X134372593Y-85042970D01*
X134320173Y-85116670D01*
X134275737Y-85180061D01*
X134235855Y-85239340D01*
X134202669Y-85291128D01*
X134178320Y-85332046D01*
X134164952Y-85358718D01*
X134163244Y-85364164D01*
X134161608Y-85375095D01*
X134162548Y-85385617D01*
X134167960Y-85397524D01*
X134179737Y-85412610D01*
X134199773Y-85432668D01*
X134229964Y-85459494D01*
X134272204Y-85494880D01*
X134328386Y-85540621D01*
X134400406Y-85598511D01*
X134466975Y-85651797D01*
X134602705Y-85760526D01*
X134720382Y-85855143D01*
X134821267Y-85936725D01*
X134906616Y-86006349D01*
X134977689Y-86065092D01*
X135035744Y-86114031D01*
X135082040Y-86154243D01*
X135117834Y-86186804D01*
X135144386Y-86212791D01*
X135162953Y-86233281D01*
X135174794Y-86249351D01*
X135181168Y-86262078D01*
X135181578Y-86263284D01*
X135185642Y-86301444D01*
X135179794Y-86356778D01*
X135164675Y-86426187D01*
X135140926Y-86506571D01*
X135117292Y-86573654D01*
X135104193Y-86611350D01*
X135096192Y-86640062D01*
X135094854Y-86654078D01*
X135095137Y-86654443D01*
X135104114Y-86647778D01*
X135123674Y-86625741D01*
X135150783Y-86591936D01*
X135177416Y-86556745D01*
X135293253Y-86411777D01*
X135411126Y-86288143D01*
X135532255Y-86185101D01*
X135657858Y-86101911D01*
X135789152Y-86037829D01*
X135927356Y-85992114D01*
X136073689Y-85964024D01*
X136164899Y-85955383D01*
X136221474Y-85953376D01*
X136272718Y-85955685D01*
X136328634Y-85963252D01*
X136399227Y-85977020D01*
X136403069Y-85977834D01*
X136538463Y-86006609D01*
X138998857Y-86006609D01*
X139879993Y-87028130D01*
X139995514Y-87161981D01*
X140106740Y-87290709D01*
X140212689Y-87413185D01*
X140312381Y-87528282D01*
X140404834Y-87634872D01*
X140489068Y-87731828D01*
X140564103Y-87818023D01*
X140628956Y-87892328D01*
X140682646Y-87953616D01*
X140724194Y-88000760D01*
X140752618Y-88032631D01*
X140766936Y-88048103D01*
X140768486Y-88049448D01*
X140777004Y-88040606D01*
X140799942Y-88014888D01*
X140836321Y-87973430D01*
X140885160Y-87917364D01*
X140945482Y-87847825D01*
X141016306Y-87765946D01*
X141096653Y-87672860D01*
X141185545Y-87569702D01*
X141282002Y-87457606D01*
X141385045Y-87337705D01*
X141493695Y-87211133D01*
X141606971Y-87079023D01*
X141648386Y-87030687D01*
X142520930Y-86012130D01*
X143992474Y-86009321D01*
X145464019Y-86006512D01*
X145809404Y-85720440D01*
X145888909Y-85654103D01*
X145962692Y-85591606D01*
X146028541Y-85534896D01*
X146084240Y-85485920D01*
X146127576Y-85446623D01*
X146156334Y-85418954D01*
X146168244Y-85404983D01*
X146175451Y-85371724D01*
X146173049Y-85345994D01*
X146163962Y-85328336D01*
X146143151Y-85294832D01*
X146112653Y-85248536D01*
X146074502Y-85192506D01*
X146030736Y-85129796D01*
X146002460Y-85090000D01*
X145946175Y-85010724D01*
X145884807Y-84923285D01*
X145822925Y-84834260D01*
X145765098Y-84750227D01*
X145715897Y-84677764D01*
X145710917Y-84670348D01*
X145653755Y-84587035D01*
X145605861Y-84521962D01*
X145565432Y-84473285D01*
X145530663Y-84439162D01*
X145499752Y-84417750D01*
X145470893Y-84407206D01*
X145451473Y-84405304D01*
X145425132Y-84408504D01*
X145379127Y-84417303D01*
X145319099Y-84430501D01*
X145250687Y-84446897D01*
X145221880Y-84454174D01*
X145102978Y-84484406D01*
X144979612Y-84515294D01*
X144854592Y-84546172D01*
X144730727Y-84576377D01*
X144610826Y-84605245D01*
X144497697Y-84632113D01*
X144394150Y-84656316D01*
X144302995Y-84677190D01*
X144227039Y-84694071D01*
X144169093Y-84706296D01*
X144131965Y-84713201D01*
X144120337Y-84714522D01*
X144099021Y-84711854D01*
X144074807Y-84702259D01*
X144043649Y-84683345D01*
X144001499Y-84652721D01*
X143956776Y-84617891D01*
X143868545Y-84547187D01*
X143798884Y-84488159D01*
X143746475Y-84437819D01*
X143709999Y-84393179D01*
X143688138Y-84351251D01*
X143679574Y-84309046D01*
X143682988Y-84263576D01*
X143697061Y-84211853D01*
X143720477Y-84150888D01*
X143735315Y-84115913D01*
X143752267Y-84074425D01*
X143775090Y-84015353D01*
X143802433Y-83942370D01*
X143832941Y-83859148D01*
X143862427Y-83777237D01*
X142755023Y-83777237D01*
X142743671Y-83841314D01*
X142712083Y-83900153D01*
X142664177Y-83948959D01*
X142603872Y-83982938D01*
X142580847Y-83990365D01*
X142570514Y-83993716D01*
X142562911Y-83999560D01*
X142557619Y-84010946D01*
X142554220Y-84030923D01*
X142552295Y-84062539D01*
X142551425Y-84108845D01*
X142551192Y-84172887D01*
X142551183Y-84206362D01*
X142551183Y-84414539D01*
X142185476Y-84710300D01*
X141819769Y-85006060D01*
X141819769Y-86105551D01*
X141870897Y-86127212D01*
X141940098Y-86167467D01*
X141990478Y-86219332D01*
X142021051Y-86278950D01*
X142030827Y-86342463D01*
X142018817Y-86406014D01*
X141984034Y-86465745D01*
X141963327Y-86487890D01*
X141897896Y-86534459D01*
X141822429Y-86562321D01*
X141741617Y-86570697D01*
X141660150Y-86558803D01*
X141620557Y-86544978D01*
X141551001Y-86504683D01*
X141501862Y-86453883D01*
X141473053Y-86396140D01*
X141464487Y-86335017D01*
X141476079Y-86274078D01*
X141507740Y-86216885D01*
X141559386Y-86167002D01*
X141630687Y-86128087D01*
X141699989Y-86100478D01*
X141700036Y-85531245D01*
X141700083Y-84962011D01*
X142429775Y-84377695D01*
X142430636Y-84193574D01*
X142431497Y-84009452D01*
X142383812Y-83996383D01*
X142310694Y-83965646D01*
X142253883Y-83920194D01*
X142215222Y-83863843D01*
X142196552Y-83800412D01*
X142199714Y-83733720D01*
X142225812Y-83668808D01*
X142272524Y-83611688D01*
X142330946Y-83571674D01*
X142397202Y-83547971D01*
X142467418Y-83539787D01*
X142537722Y-83546328D01*
X142604239Y-83566799D01*
X142663095Y-83600407D01*
X142710417Y-83646359D01*
X142742330Y-83703861D01*
X142754962Y-83772119D01*
X142755023Y-83777237D01*
X143862427Y-83777237D01*
X143865263Y-83769360D01*
X143898047Y-83676680D01*
X143915460Y-83626739D01*
X143951580Y-83522152D01*
X143980527Y-83436543D01*
X144002627Y-83367699D01*
X144018205Y-83313406D01*
X144027587Y-83271453D01*
X144031097Y-83239626D01*
X144029061Y-83215711D01*
X144021804Y-83197496D01*
X144009653Y-83182768D01*
X143992931Y-83169313D01*
X143983662Y-83162852D01*
X143963187Y-83151275D01*
X143922175Y-83130144D01*
X143863258Y-83100745D01*
X143789071Y-83064364D01*
X143702248Y-83022289D01*
X143605423Y-82975807D01*
X143501231Y-82926204D01*
X143439559Y-82897030D01*
X143312422Y-82837138D01*
X143206141Y-82787491D01*
X143118515Y-82747321D01*
X143047346Y-82715862D01*
X142990432Y-82692347D01*
X142945574Y-82676009D01*
X142910573Y-82666081D01*
X142883228Y-82661795D01*
X142861339Y-82662386D01*
X142842707Y-82667085D01*
X142825132Y-82675125D01*
X142816623Y-82679833D01*
X142799660Y-82692076D01*
X142766576Y-82718251D01*
X142719733Y-82756405D01*
X142661492Y-82804586D01*
X142594215Y-82860843D01*
X142520263Y-82923224D01*
X142452640Y-82980695D01*
X142335478Y-83080565D01*
X142235340Y-83165764D01*
X142150739Y-83237477D01*
X142080187Y-83296892D01*
X142022196Y-83345194D01*
X141975276Y-83383572D01*
X141937941Y-83413210D01*
X141908703Y-83435296D01*
X141886072Y-83451016D01*
X141868561Y-83461556D01*
X141854682Y-83468104D01*
X141842946Y-83471845D01*
X141834504Y-83473548D01*
X141806188Y-83479166D01*
X141800653Y-83486425D01*
X141814595Y-83501270D01*
X141817577Y-83503986D01*
X141859777Y-83557742D01*
X141882921Y-83621185D01*
X141885591Y-83687467D01*
X141867906Y-83746756D01*
X141844234Y-83780006D01*
X141808573Y-83815218D01*
X141768335Y-83846256D01*
X141730930Y-83866983D01*
X141717632Y-83871182D01*
X141686785Y-83877612D01*
X141686785Y-84591257D01*
X141168146Y-85014249D01*
X140649507Y-85437240D01*
X140649507Y-86285142D01*
X140649550Y-86443189D01*
X140649701Y-86580566D01*
X140649993Y-86698690D01*
X140650462Y-86798978D01*
X140651142Y-86882847D01*
X140652067Y-86951713D01*
X140653270Y-87006994D01*
X140654787Y-87050107D01*
X140656652Y-87082469D01*
X140658898Y-87105495D01*
X140661560Y-87120605D01*
X140664672Y-87129213D01*
X140668268Y-87132738D01*
X140669985Y-87133043D01*
X140701776Y-87139580D01*
X140743590Y-87156140D01*
X140785491Y-87178146D01*
X140817507Y-87200990D01*
X140866567Y-87260301D01*
X140893522Y-87326002D01*
X140897349Y-87393618D01*
X140877028Y-87458675D01*
X140876524Y-87459628D01*
X140829708Y-87526252D01*
X140770048Y-87573650D01*
X140696621Y-87602338D01*
X140608502Y-87612834D01*
X140602963Y-87612896D01*
X140517135Y-87603207D01*
X140442165Y-87574288D01*
X140380720Y-87527923D01*
X140335463Y-87465895D01*
X140317095Y-87421607D01*
X140310051Y-87358139D01*
X140325806Y-87294223D01*
X140361426Y-87235001D01*
X140413978Y-87185617D01*
X140468784Y-87155611D01*
X140529822Y-87131073D01*
X140529822Y-85395952D01*
X141048460Y-84971372D01*
X141567099Y-84546793D01*
X141567099Y-83890698D01*
X141519674Y-83876457D01*
X141456644Y-83848037D01*
X141399135Y-83805328D01*
X141356914Y-83755815D01*
X141352529Y-83748312D01*
X141330546Y-83683235D01*
X141332534Y-83617353D01*
X141356561Y-83554886D01*
X141400699Y-83500056D01*
X141463018Y-83457083D01*
X141491343Y-83444635D01*
X141541922Y-83425446D01*
X141485259Y-83417922D01*
X141387329Y-83394932D01*
X141304842Y-83353972D01*
X141237645Y-83294949D01*
X141200129Y-83243669D01*
X141185914Y-83214480D01*
X141167887Y-83168635D01*
X141147799Y-83111077D01*
X141127405Y-83046749D01*
X141114096Y-83001090D01*
X141097565Y-82942949D01*
X141076379Y-82869662D01*
X141051761Y-82785356D01*
X141024936Y-82694157D01*
X140997130Y-82600194D01*
X140969565Y-82507593D01*
X140943467Y-82420481D01*
X140920061Y-82342985D01*
X140900570Y-82279234D01*
X140887706Y-82238022D01*
X140874556Y-82196609D01*
X140649507Y-82196609D01*
X140649507Y-84322595D01*
G36*
X135018548Y-86740398D02*
G01*
X134995504Y-86750485D01*
X134972712Y-86758323D01*
X134926110Y-86770548D01*
X134857838Y-86786704D01*
X134770034Y-86806333D01*
X134664839Y-86828979D01*
X134544392Y-86854185D01*
X134410831Y-86881493D01*
X134266297Y-86910447D01*
X134112929Y-86940590D01*
X134033539Y-86955976D01*
X133927335Y-86976576D01*
X133844014Y-86993185D01*
X133780518Y-87006689D01*
X133733790Y-87017972D01*
X133700771Y-87027919D01*
X133678404Y-87037416D01*
X133663631Y-87047348D01*
X133653395Y-87058600D01*
X133647257Y-87067790D01*
X133637576Y-87084834D01*
X133631567Y-87101453D01*
X133630296Y-87119642D01*
X133634828Y-87141402D01*
X133646229Y-87168731D01*
X133665566Y-87203626D01*
X133693904Y-87248088D01*
X133732309Y-87304113D01*
X133781846Y-87373700D01*
X133843582Y-87458849D01*
X133889035Y-87521130D01*
X133960179Y-87618494D01*
X134018775Y-87698605D01*
X134066083Y-87763087D01*
X134103360Y-87813563D01*
X134131868Y-87851658D01*
X134152864Y-87878994D01*
X134167609Y-87897198D01*
X134177363Y-87907891D01*
X134183383Y-87912699D01*
X134186931Y-87913245D01*
X134189265Y-87911152D01*
X134190345Y-87909659D01*
X134299603Y-87760119D01*
X134404350Y-87616462D01*
X134503792Y-87479786D01*
X134597139Y-87351193D01*
X134683597Y-87231783D01*
X134762377Y-87122656D01*
X134832685Y-87024913D01*
X134893730Y-86939653D01*
X134944720Y-86867977D01*
X134984864Y-86810986D01*
X135013369Y-86769779D01*
X135029443Y-86745458D01*
X135032831Y-86738905D01*
X135018548Y-86740398D01*
G37*
X135018548Y-86740398D02*
X134995504Y-86750485D01*
X134972712Y-86758323D01*
X134926110Y-86770548D01*
X134857838Y-86786704D01*
X134770034Y-86806333D01*
X134664839Y-86828979D01*
X134544392Y-86854185D01*
X134410831Y-86881493D01*
X134266297Y-86910447D01*
X134112929Y-86940590D01*
X134033539Y-86955976D01*
X133927335Y-86976576D01*
X133844014Y-86993185D01*
X133780518Y-87006689D01*
X133733790Y-87017972D01*
X133700771Y-87027919D01*
X133678404Y-87037416D01*
X133663631Y-87047348D01*
X133653395Y-87058600D01*
X133647257Y-87067790D01*
X133637576Y-87084834D01*
X133631567Y-87101453D01*
X133630296Y-87119642D01*
X133634828Y-87141402D01*
X133646229Y-87168731D01*
X133665566Y-87203626D01*
X133693904Y-87248088D01*
X133732309Y-87304113D01*
X133781846Y-87373700D01*
X133843582Y-87458849D01*
X133889035Y-87521130D01*
X133960179Y-87618494D01*
X134018775Y-87698605D01*
X134066083Y-87763087D01*
X134103360Y-87813563D01*
X134131868Y-87851658D01*
X134152864Y-87878994D01*
X134167609Y-87897198D01*
X134177363Y-87907891D01*
X134183383Y-87912699D01*
X134186931Y-87913245D01*
X134189265Y-87911152D01*
X134190345Y-87909659D01*
X134299603Y-87760119D01*
X134404350Y-87616462D01*
X134503792Y-87479786D01*
X134597139Y-87351193D01*
X134683597Y-87231783D01*
X134762377Y-87122656D01*
X134832685Y-87024913D01*
X134893730Y-86939653D01*
X134944720Y-86867977D01*
X134984864Y-86810986D01*
X135013369Y-86769779D01*
X135029443Y-86745458D01*
X135032831Y-86738905D01*
X135018548Y-86740398D01*
G36*
X140562967Y-87245657D02*
G01*
X140531932Y-87255123D01*
X140501043Y-87276271D01*
X140495246Y-87281026D01*
X140465576Y-87309870D01*
X140452459Y-87337297D01*
X140450031Y-87364909D01*
X140460940Y-87420121D01*
X140492884Y-87462729D01*
X140544687Y-87491183D01*
X140546027Y-87491634D01*
X140581083Y-87502762D01*
X140604194Y-87506479D01*
X140628176Y-87503440D01*
X140654261Y-87497167D01*
X140709199Y-87473761D01*
X140745983Y-87434635D01*
X140756441Y-87413278D01*
X140764714Y-87360971D01*
X140746860Y-87312336D01*
X140713911Y-87276573D01*
X140684036Y-87255661D01*
X140653028Y-87245917D01*
X140608441Y-87243479D01*
X140607259Y-87243478D01*
X140562967Y-87245657D01*
G37*
X140562967Y-87245657D02*
X140531932Y-87255123D01*
X140501043Y-87276271D01*
X140495246Y-87281026D01*
X140465576Y-87309870D01*
X140452459Y-87337297D01*
X140450031Y-87364909D01*
X140460940Y-87420121D01*
X140492884Y-87462729D01*
X140544687Y-87491183D01*
X140546027Y-87491634D01*
X140581083Y-87502762D01*
X140604194Y-87506479D01*
X140628176Y-87503440D01*
X140654261Y-87497167D01*
X140709199Y-87473761D01*
X140745983Y-87434635D01*
X140756441Y-87413278D01*
X140764714Y-87360971D01*
X140746860Y-87312336D01*
X140713911Y-87276573D01*
X140684036Y-87255661D01*
X140653028Y-87245917D01*
X140608441Y-87243479D01*
X140607259Y-87243478D01*
X140562967Y-87245657D01*
G36*
X139584079Y-85967631D02*
G01*
X139532643Y-85986409D01*
X139493620Y-86019278D01*
X139471744Y-86062305D01*
X139471291Y-86109627D01*
X139493039Y-86152948D01*
X139532038Y-86184524D01*
X139581894Y-86202721D01*
X139636212Y-86205903D01*
X139688597Y-86192437D01*
X139719640Y-86173110D01*
X139750503Y-86133695D01*
X139759988Y-86089088D01*
X139750064Y-86044603D01*
X139722700Y-86005548D01*
X139679864Y-85977235D01*
X139643195Y-85966872D01*
X139584079Y-85967631D01*
G37*
X139584079Y-85967631D02*
X139532643Y-85986409D01*
X139493620Y-86019278D01*
X139471744Y-86062305D01*
X139471291Y-86109627D01*
X139493039Y-86152948D01*
X139532038Y-86184524D01*
X139581894Y-86202721D01*
X139636212Y-86205903D01*
X139688597Y-86192437D01*
X139719640Y-86173110D01*
X139750503Y-86133695D01*
X139759988Y-86089088D01*
X139750064Y-86044603D01*
X139722700Y-86005548D01*
X139679864Y-85977235D01*
X139643195Y-85966872D01*
X139584079Y-85967631D01*
G36*
X138947138Y-84635196D02*
G01*
X138904257Y-84656504D01*
X138873826Y-84689747D01*
X138860484Y-84731553D01*
X138867663Y-84775626D01*
X138895192Y-84814005D01*
X138937401Y-84838106D01*
X138987500Y-84846683D01*
X139038696Y-84838494D01*
X139081316Y-84814762D01*
X139113347Y-84774835D01*
X139122422Y-84731326D01*
X139109444Y-84689496D01*
X139075312Y-84654608D01*
X139051686Y-84641876D01*
X138997828Y-84629196D01*
X138947138Y-84635196D01*
G37*
X138947138Y-84635196D02*
X138904257Y-84656504D01*
X138873826Y-84689747D01*
X138860484Y-84731553D01*
X138867663Y-84775626D01*
X138895192Y-84814005D01*
X138937401Y-84838106D01*
X138987500Y-84846683D01*
X139038696Y-84838494D01*
X139081316Y-84814762D01*
X139113347Y-84774835D01*
X139122422Y-84731326D01*
X139109444Y-84689496D01*
X139075312Y-84654608D01*
X139051686Y-84641876D01*
X138997828Y-84629196D01*
X138947138Y-84635196D01*
G36*
X141571827Y-83539179D02*
G01*
X141524806Y-83556881D01*
X141486970Y-83590756D01*
X141478756Y-83603302D01*
X141463942Y-83651422D01*
X141472172Y-83697171D01*
X141500077Y-83736096D01*
X141544285Y-83763745D01*
X141601425Y-83775664D01*
X141609345Y-83775826D01*
X141649335Y-83772067D01*
X141682186Y-83757646D01*
X141708062Y-83738278D01*
X141738032Y-83708942D01*
X141751120Y-83681010D01*
X141753277Y-83656299D01*
X141742373Y-83608977D01*
X141713306Y-83572548D01*
X141671547Y-83548068D01*
X141622564Y-83536593D01*
X141571827Y-83539179D01*
G37*
X141571827Y-83539179D02*
X141524806Y-83556881D01*
X141486970Y-83590756D01*
X141478756Y-83603302D01*
X141463942Y-83651422D01*
X141472172Y-83697171D01*
X141500077Y-83736096D01*
X141544285Y-83763745D01*
X141601425Y-83775664D01*
X141609345Y-83775826D01*
X141649335Y-83772067D01*
X141682186Y-83757646D01*
X141708062Y-83738278D01*
X141738032Y-83708942D01*
X141751120Y-83681010D01*
X141753277Y-83656299D01*
X141742373Y-83608977D01*
X141713306Y-83572548D01*
X141671547Y-83548068D01*
X141622564Y-83536593D01*
X141571827Y-83539179D01*
G36*
X141693245Y-86225842D02*
G01*
X141644444Y-86251223D01*
X141611981Y-86288717D01*
X141599432Y-86334421D01*
X141607334Y-86377420D01*
X141635291Y-86416335D01*
X141679331Y-86443802D01*
X141732173Y-86457900D01*
X141786532Y-86456714D01*
X141835126Y-86438323D01*
X141836123Y-86437678D01*
X141877664Y-86398254D01*
X141894550Y-86351499D01*
X141887840Y-86304803D01*
X141859589Y-86258742D01*
X141815750Y-86228460D01*
X141760241Y-86216557D01*
X141754808Y-86216476D01*
X141693245Y-86225842D01*
G37*
X141693245Y-86225842D02*
X141644444Y-86251223D01*
X141611981Y-86288717D01*
X141599432Y-86334421D01*
X141607334Y-86377420D01*
X141635291Y-86416335D01*
X141679331Y-86443802D01*
X141732173Y-86457900D01*
X141786532Y-86456714D01*
X141835126Y-86438323D01*
X141836123Y-86437678D01*
X141877664Y-86398254D01*
X141894550Y-86351499D01*
X141887840Y-86304803D01*
X141859589Y-86258742D01*
X141815750Y-86228460D01*
X141760241Y-86216557D01*
X141754808Y-86216476D01*
X141693245Y-86225842D01*
G36*
X142420966Y-83663249D02*
G01*
X142374881Y-83687040D01*
X142343460Y-83721352D01*
X142328333Y-83761813D01*
X142331132Y-83804055D01*
X142353488Y-83843707D01*
X142397030Y-83876400D01*
X142397191Y-83876482D01*
X142455104Y-83895852D01*
X142509439Y-83893345D01*
X142560572Y-83868924D01*
X142572460Y-83859756D01*
X142601515Y-83831932D01*
X142614663Y-83805532D01*
X142617675Y-83770559D01*
X142614047Y-83733327D01*
X142599728Y-83706572D01*
X142578803Y-83686629D01*
X142545978Y-83664689D01*
X142510112Y-83655573D01*
X142480085Y-83654348D01*
X142420966Y-83663249D01*
G37*
X142420966Y-83663249D02*
X142374881Y-83687040D01*
X142343460Y-83721352D01*
X142328333Y-83761813D01*
X142331132Y-83804055D01*
X142353488Y-83843707D01*
X142397030Y-83876400D01*
X142397191Y-83876482D01*
X142455104Y-83895852D01*
X142509439Y-83893345D01*
X142560572Y-83868924D01*
X142572460Y-83859756D01*
X142601515Y-83831932D01*
X142614663Y-83805532D01*
X142617675Y-83770559D01*
X142614047Y-83733327D01*
X142599728Y-83706572D01*
X142578803Y-83686629D01*
X142545978Y-83664689D01*
X142510112Y-83655573D01*
X142480085Y-83654348D01*
X142420966Y-83663249D01*
D17*
X131645000Y-53340000D02*
G75*
G03X131645000Y-53340000I-200000J0D01*
G01*
D18*
X147985000Y-39370000D02*
X132685000Y-39370000D01*
X147985000Y-57110000D02*
X147985000Y-39370000D01*
X132685000Y-57110000D02*
X147985000Y-57110000D01*
X132685000Y-39370000D02*
X132685000Y-57110000D01*
D17*
X149425000Y-40640000D02*
G75*
G03X149425000Y-40640000I-200000J0D01*
G01*
D18*
X132685000Y-54610000D02*
X147985000Y-54610000D01*
X132685000Y-36870000D02*
X132685000Y-54610000D01*
X147985000Y-36870000D02*
X132685000Y-36870000D01*
X147985000Y-54610000D02*
X147985000Y-36870000D01*
D19*
X140668866Y-47711505D02*
X140668866Y-48426933D01*
X140716561Y-48570018D01*
X140811951Y-48665408D01*
X140955036Y-48713103D01*
X141050427Y-48713103D01*
X139667268Y-48713103D02*
X140239609Y-48713103D01*
X139953438Y-48713103D02*
X139953438Y-47711505D01*
X140048829Y-47854591D01*
X140144219Y-47949981D01*
X140239609Y-47997676D01*
X140668866Y-46314505D02*
X140668866Y-47029933D01*
X140716561Y-47173018D01*
X140811951Y-47268408D01*
X140955036Y-47316103D01*
X141050427Y-47316103D01*
X140239609Y-46409896D02*
X140191914Y-46362201D01*
X140096524Y-46314505D01*
X139858048Y-46314505D01*
X139762658Y-46362201D01*
X139714963Y-46409896D01*
X139667268Y-46505286D01*
X139667268Y-46600676D01*
X139714963Y-46743762D01*
X140287304Y-47316103D01*
X139667268Y-47316103D01*
M02*
