G04 #@! TF.GenerationSoftware,KiCad,Pcbnew,(5.1.5)-3*
G04 #@! TF.CreationDate,2021-02-08T22:28:45-08:00*
G04 #@! TF.ProjectId,MoistureSensor,4d6f6973-7475-4726-9553-656e736f722e,rev?*
G04 #@! TF.SameCoordinates,Original*
G04 #@! TF.FileFunction,Legend,Top*
G04 #@! TF.FilePolarity,Positive*
%FSLAX46Y46*%
G04 Gerber Fmt 4.6, Leading zero omitted, Abs format (unit mm)*
G04 Created by KiCad (PCBNEW (5.1.5)-3) date 2021-02-08 22:28:45*
%MOMM*%
%LPD*%
G04 APERTURE LIST*
%ADD10C,0.120000*%
%ADD11C,0.312500*%
%ADD12C,0.150000*%
%ADD13C,0.200000*%
%ADD14C,0.156250*%
%ADD15C,0.279400*%
%ADD16C,0.152400*%
%ADD17C,0.010000*%
G04 APERTURE END LIST*
D10*
X150622000Y-59055000D02*
X150622000Y-59436000D01*
X150431500Y-59245500D02*
X150812500Y-59245500D01*
X132842000Y-58801000D02*
X132842000Y-59182000D01*
X132651500Y-58991500D02*
X133032500Y-58991500D01*
D11*
X148058380Y-58628333D02*
X148653619Y-58628333D01*
X147939333Y-58985476D02*
X148356000Y-57735476D01*
X148772666Y-58985476D01*
X149189333Y-57735476D02*
X149189333Y-58747380D01*
X149248857Y-58866428D01*
X149308380Y-58925952D01*
X149427428Y-58985476D01*
X149665523Y-58985476D01*
X149784571Y-58925952D01*
X149844095Y-58866428D01*
X149903619Y-58747380D01*
X149903619Y-57735476D01*
X150379809Y-57735476D02*
X151213142Y-58985476D01*
X151213142Y-57735476D02*
X150379809Y-58985476D01*
X130413333Y-58985476D02*
X130413333Y-57735476D01*
X130889523Y-57735476D01*
X131008571Y-57795000D01*
X131068095Y-57854523D01*
X131127619Y-57973571D01*
X131127619Y-58152142D01*
X131068095Y-58271190D01*
X131008571Y-58330714D01*
X130889523Y-58390238D01*
X130413333Y-58390238D01*
X131544285Y-57735476D02*
X131841904Y-58985476D01*
X132080000Y-58092619D01*
X132318095Y-58985476D01*
X132615714Y-57735476D01*
X133806190Y-58985476D02*
X133389523Y-58390238D01*
X133091904Y-58985476D02*
X133091904Y-57735476D01*
X133568095Y-57735476D01*
X133687142Y-57795000D01*
X133746666Y-57854523D01*
X133806190Y-57973571D01*
X133806190Y-58152142D01*
X133746666Y-58271190D01*
X133687142Y-58330714D01*
X133568095Y-58390238D01*
X133091904Y-58390238D01*
D10*
X141541500Y-75247500D02*
X141922500Y-75247500D01*
X141732000Y-75057000D02*
X141732000Y-75438000D01*
D12*
X137085000Y-79079285D02*
X137085000Y-78329285D01*
X137263571Y-78329285D01*
X137370714Y-78365000D01*
X137442142Y-78436428D01*
X137477857Y-78507857D01*
X137513571Y-78650714D01*
X137513571Y-78757857D01*
X137477857Y-78900714D01*
X137442142Y-78972142D01*
X137370714Y-79043571D01*
X137263571Y-79079285D01*
X137085000Y-79079285D01*
X137835000Y-78686428D02*
X138085000Y-78686428D01*
X138192142Y-79079285D02*
X137835000Y-79079285D01*
X137835000Y-78329285D01*
X138192142Y-78329285D01*
X138513571Y-79079285D02*
X138513571Y-78329285D01*
X138799285Y-78329285D01*
X138870714Y-78365000D01*
X138906428Y-78400714D01*
X138942142Y-78472142D01*
X138942142Y-78579285D01*
X138906428Y-78650714D01*
X138870714Y-78686428D01*
X138799285Y-78722142D01*
X138513571Y-78722142D01*
X139156428Y-78329285D02*
X139585000Y-78329285D01*
X139370714Y-79079285D02*
X139370714Y-78329285D01*
X139835000Y-79079285D02*
X139835000Y-78329285D01*
X139835000Y-78686428D02*
X140263571Y-78686428D01*
X140263571Y-79079285D02*
X140263571Y-78329285D01*
X141549285Y-79079285D02*
X141192142Y-79079285D01*
X141192142Y-78329285D01*
X141799285Y-79079285D02*
X141799285Y-78329285D01*
X142156428Y-79079285D02*
X142156428Y-78329285D01*
X142406428Y-78865000D01*
X142656428Y-78329285D01*
X142656428Y-79079285D01*
X143013571Y-79079285D02*
X143013571Y-78329285D01*
X143263571Y-78329285D02*
X143692142Y-78329285D01*
X143477857Y-79079285D02*
X143477857Y-78329285D01*
D13*
X130810000Y-79375000D02*
X150495000Y-79375000D01*
D14*
X134937008Y-83732113D02*
X134937008Y-83107113D01*
X135353675Y-83553541D01*
X135770342Y-83107113D01*
X135770342Y-83732113D01*
X136544151Y-83732113D02*
X136425104Y-83702351D01*
X136365580Y-83672589D01*
X136306056Y-83613065D01*
X136306056Y-83434494D01*
X136365580Y-83374970D01*
X136425104Y-83345208D01*
X136544151Y-83315446D01*
X136722723Y-83315446D01*
X136841770Y-83345208D01*
X136901294Y-83374970D01*
X136960818Y-83434494D01*
X136960818Y-83613065D01*
X136901294Y-83672589D01*
X136841770Y-83702351D01*
X136722723Y-83732113D01*
X136544151Y-83732113D01*
X137496532Y-83732113D02*
X137496532Y-83315446D01*
X137496532Y-83107113D02*
X137437008Y-83136875D01*
X137496532Y-83166636D01*
X137556056Y-83136875D01*
X137496532Y-83107113D01*
X137496532Y-83166636D01*
X138032247Y-83702351D02*
X138151294Y-83732113D01*
X138389389Y-83732113D01*
X138508437Y-83702351D01*
X138567961Y-83642827D01*
X138567961Y-83613065D01*
X138508437Y-83553541D01*
X138389389Y-83523779D01*
X138210818Y-83523779D01*
X138091770Y-83494017D01*
X138032247Y-83434494D01*
X138032247Y-83404732D01*
X138091770Y-83345208D01*
X138210818Y-83315446D01*
X138389389Y-83315446D01*
X138508437Y-83345208D01*
X138925104Y-83315446D02*
X139401294Y-83315446D01*
X139103675Y-83107113D02*
X139103675Y-83642827D01*
X139163199Y-83702351D01*
X139282247Y-83732113D01*
X139401294Y-83732113D01*
X140353675Y-83315446D02*
X140353675Y-83732113D01*
X139817961Y-83315446D02*
X139817961Y-83642827D01*
X139877485Y-83702351D01*
X139996532Y-83732113D01*
X140175104Y-83732113D01*
X140294151Y-83702351D01*
X140353675Y-83672589D01*
X140948913Y-83732113D02*
X140948913Y-83315446D01*
X140948913Y-83434494D02*
X141008437Y-83374970D01*
X141067961Y-83345208D01*
X141187008Y-83315446D01*
X141306056Y-83315446D01*
X142198913Y-83702351D02*
X142079866Y-83732113D01*
X141841770Y-83732113D01*
X141722723Y-83702351D01*
X141663199Y-83642827D01*
X141663199Y-83404732D01*
X141722723Y-83345208D01*
X141841770Y-83315446D01*
X142079866Y-83315446D01*
X142198913Y-83345208D01*
X142258437Y-83404732D01*
X142258437Y-83464255D01*
X141663199Y-83523779D01*
X143687008Y-83702351D02*
X143865580Y-83732113D01*
X144163199Y-83732113D01*
X144282247Y-83702351D01*
X144341770Y-83672589D01*
X144401294Y-83613065D01*
X144401294Y-83553541D01*
X144341770Y-83494017D01*
X144282247Y-83464255D01*
X144163199Y-83434494D01*
X143925104Y-83404732D01*
X143806056Y-83374970D01*
X143746532Y-83345208D01*
X143687008Y-83285684D01*
X143687008Y-83226160D01*
X143746532Y-83166636D01*
X143806056Y-83136875D01*
X143925104Y-83107113D01*
X144222723Y-83107113D01*
X144401294Y-83136875D01*
X145413199Y-83702351D02*
X145294151Y-83732113D01*
X145056056Y-83732113D01*
X144937008Y-83702351D01*
X144877485Y-83642827D01*
X144877485Y-83404732D01*
X144937008Y-83345208D01*
X145056056Y-83315446D01*
X145294151Y-83315446D01*
X145413199Y-83345208D01*
X145472723Y-83404732D01*
X145472723Y-83464255D01*
X144877485Y-83523779D01*
X146008437Y-83315446D02*
X146008437Y-83732113D01*
X146008437Y-83374970D02*
X146067961Y-83345208D01*
X146187008Y-83315446D01*
X146365580Y-83315446D01*
X146484627Y-83345208D01*
X146544151Y-83404732D01*
X146544151Y-83732113D01*
X147079866Y-83702351D02*
X147198913Y-83732113D01*
X147437008Y-83732113D01*
X147556056Y-83702351D01*
X147615580Y-83642827D01*
X147615580Y-83613065D01*
X147556056Y-83553541D01*
X147437008Y-83523779D01*
X147258437Y-83523779D01*
X147139389Y-83494017D01*
X147079866Y-83434494D01*
X147079866Y-83404732D01*
X147139389Y-83345208D01*
X147258437Y-83315446D01*
X147437008Y-83315446D01*
X147556056Y-83345208D01*
X148329866Y-83732113D02*
X148210818Y-83702351D01*
X148151294Y-83672589D01*
X148091770Y-83613065D01*
X148091770Y-83434494D01*
X148151294Y-83374970D01*
X148210818Y-83345208D01*
X148329866Y-83315446D01*
X148508437Y-83315446D01*
X148627485Y-83345208D01*
X148687008Y-83374970D01*
X148746532Y-83434494D01*
X148746532Y-83613065D01*
X148687008Y-83672589D01*
X148627485Y-83702351D01*
X148508437Y-83732113D01*
X148329866Y-83732113D01*
X149282247Y-83732113D02*
X149282247Y-83315446D01*
X149282247Y-83434494D02*
X149341770Y-83374970D01*
X149401294Y-83345208D01*
X149520342Y-83315446D01*
X149639389Y-83315446D01*
X132496532Y-84349672D02*
X132377485Y-84319910D01*
X132139389Y-84319910D01*
X132020342Y-84349672D01*
X131901294Y-84409196D01*
X131841770Y-84468720D01*
X131841770Y-84587767D01*
X131901294Y-84647291D01*
X132020342Y-84706815D01*
X132139389Y-84736577D01*
X132377485Y-84736577D01*
X132496532Y-84706815D01*
X132258437Y-84111577D02*
X131960818Y-84141339D01*
X131663199Y-84230625D01*
X131484627Y-84379434D01*
X131425104Y-84528244D01*
X131484627Y-84677053D01*
X131663199Y-84825863D01*
X131960818Y-84915148D01*
X132258437Y-84944910D01*
X132556056Y-84915148D01*
X132853675Y-84825863D01*
X133032247Y-84677053D01*
X133091770Y-84528244D01*
X133032247Y-84379434D01*
X132853675Y-84230625D01*
X132556056Y-84141339D01*
X132258437Y-84111577D01*
X134520342Y-84796101D02*
X134698913Y-84825863D01*
X134996532Y-84825863D01*
X135115580Y-84796101D01*
X135175104Y-84766339D01*
X135234627Y-84706815D01*
X135234627Y-84647291D01*
X135175104Y-84587767D01*
X135115580Y-84558005D01*
X134996532Y-84528244D01*
X134758437Y-84498482D01*
X134639389Y-84468720D01*
X134579866Y-84438958D01*
X134520342Y-84379434D01*
X134520342Y-84319910D01*
X134579866Y-84260386D01*
X134639389Y-84230625D01*
X134758437Y-84200863D01*
X135056056Y-84200863D01*
X135234627Y-84230625D01*
X135591770Y-84200863D02*
X136008437Y-84825863D01*
X136425104Y-84200863D01*
X137794151Y-84825863D02*
X137794151Y-84200863D01*
X138210818Y-84647291D01*
X138627485Y-84200863D01*
X138627485Y-84825863D01*
X139698913Y-84796101D02*
X139579866Y-84825863D01*
X139341770Y-84825863D01*
X139222723Y-84796101D01*
X139163199Y-84736577D01*
X139163199Y-84498482D01*
X139222723Y-84438958D01*
X139341770Y-84409196D01*
X139579866Y-84409196D01*
X139698913Y-84438958D01*
X139758437Y-84498482D01*
X139758437Y-84558005D01*
X139163199Y-84617529D01*
X140829866Y-84796101D02*
X140710818Y-84825863D01*
X140472723Y-84825863D01*
X140353675Y-84796101D01*
X140294151Y-84766339D01*
X140234627Y-84706815D01*
X140234627Y-84528244D01*
X140294151Y-84468720D01*
X140353675Y-84438958D01*
X140472723Y-84409196D01*
X140710818Y-84409196D01*
X140829866Y-84438958D01*
X141365580Y-84825863D02*
X141365580Y-84200863D01*
X141901294Y-84825863D02*
X141901294Y-84498482D01*
X141841770Y-84438958D01*
X141722723Y-84409196D01*
X141544151Y-84409196D01*
X141425104Y-84438958D01*
X141365580Y-84468720D01*
X143032247Y-84825863D02*
X143032247Y-84498482D01*
X142972723Y-84438958D01*
X142853675Y-84409196D01*
X142615580Y-84409196D01*
X142496532Y-84438958D01*
X143032247Y-84796101D02*
X142913199Y-84825863D01*
X142615580Y-84825863D01*
X142496532Y-84796101D01*
X142437008Y-84736577D01*
X142437008Y-84677053D01*
X142496532Y-84617529D01*
X142615580Y-84587767D01*
X142913199Y-84587767D01*
X143032247Y-84558005D01*
X143448913Y-84409196D02*
X143925104Y-84409196D01*
X143627485Y-84200863D02*
X143627485Y-84736577D01*
X143687008Y-84796101D01*
X143806056Y-84825863D01*
X143925104Y-84825863D01*
X144341770Y-84825863D02*
X144341770Y-84409196D01*
X144341770Y-84528244D02*
X144401294Y-84468720D01*
X144460818Y-84438958D01*
X144579866Y-84409196D01*
X144698913Y-84409196D01*
X145294151Y-84825863D02*
X145175104Y-84796101D01*
X145115580Y-84766339D01*
X145056056Y-84706815D01*
X145056056Y-84528244D01*
X145115580Y-84468720D01*
X145175104Y-84438958D01*
X145294151Y-84409196D01*
X145472723Y-84409196D01*
X145591770Y-84438958D01*
X145651294Y-84468720D01*
X145710818Y-84528244D01*
X145710818Y-84706815D01*
X145651294Y-84766339D01*
X145591770Y-84796101D01*
X145472723Y-84825863D01*
X145294151Y-84825863D01*
X146246532Y-84409196D02*
X146246532Y-84825863D01*
X146246532Y-84468720D02*
X146306056Y-84438958D01*
X146425104Y-84409196D01*
X146603675Y-84409196D01*
X146722723Y-84438958D01*
X146782247Y-84498482D01*
X146782247Y-84825863D01*
X147377485Y-84825863D02*
X147377485Y-84409196D01*
X147377485Y-84200863D02*
X147317961Y-84230625D01*
X147377485Y-84260386D01*
X147437008Y-84230625D01*
X147377485Y-84200863D01*
X147377485Y-84260386D01*
X148508437Y-84796101D02*
X148389389Y-84825863D01*
X148151294Y-84825863D01*
X148032247Y-84796101D01*
X147972723Y-84766339D01*
X147913199Y-84706815D01*
X147913199Y-84528244D01*
X147972723Y-84468720D01*
X148032247Y-84438958D01*
X148151294Y-84409196D01*
X148389389Y-84409196D01*
X148508437Y-84438958D01*
X148984627Y-84796101D02*
X149103675Y-84825863D01*
X149341770Y-84825863D01*
X149460818Y-84796101D01*
X149520342Y-84736577D01*
X149520342Y-84706815D01*
X149460818Y-84647291D01*
X149341770Y-84617529D01*
X149163199Y-84617529D01*
X149044151Y-84587767D01*
X148984627Y-84528244D01*
X148984627Y-84498482D01*
X149044151Y-84438958D01*
X149163199Y-84409196D01*
X149341770Y-84409196D01*
X149460818Y-84438958D01*
X140234627Y-85354136D02*
X140294151Y-85324375D01*
X140413199Y-85294613D01*
X140710818Y-85294613D01*
X140829866Y-85324375D01*
X140889389Y-85354136D01*
X140948913Y-85413660D01*
X140948913Y-85473184D01*
X140889389Y-85562470D01*
X140175104Y-85919613D01*
X140948913Y-85919613D01*
X142377485Y-85264851D02*
X141306056Y-86068422D01*
X142972723Y-85562470D02*
X142853675Y-85532708D01*
X142794151Y-85502946D01*
X142734627Y-85443422D01*
X142734627Y-85413660D01*
X142794151Y-85354136D01*
X142853675Y-85324375D01*
X142972723Y-85294613D01*
X143210818Y-85294613D01*
X143329866Y-85324375D01*
X143389389Y-85354136D01*
X143448913Y-85413660D01*
X143448913Y-85443422D01*
X143389389Y-85502946D01*
X143329866Y-85532708D01*
X143210818Y-85562470D01*
X142972723Y-85562470D01*
X142853675Y-85592232D01*
X142794151Y-85621994D01*
X142734627Y-85681517D01*
X142734627Y-85800565D01*
X142794151Y-85860089D01*
X142853675Y-85889851D01*
X142972723Y-85919613D01*
X143210818Y-85919613D01*
X143329866Y-85889851D01*
X143389389Y-85860089D01*
X143448913Y-85800565D01*
X143448913Y-85681517D01*
X143389389Y-85621994D01*
X143329866Y-85592232D01*
X143210818Y-85562470D01*
X144877485Y-85264851D02*
X143806056Y-86068422D01*
X145234627Y-85354136D02*
X145294151Y-85324375D01*
X145413199Y-85294613D01*
X145710818Y-85294613D01*
X145829866Y-85324375D01*
X145889389Y-85354136D01*
X145948913Y-85413660D01*
X145948913Y-85473184D01*
X145889389Y-85562470D01*
X145175104Y-85919613D01*
X145948913Y-85919613D01*
X146722723Y-85294613D02*
X146841770Y-85294613D01*
X146960818Y-85324375D01*
X147020342Y-85354136D01*
X147079866Y-85413660D01*
X147139389Y-85532708D01*
X147139389Y-85681517D01*
X147079866Y-85800565D01*
X147020342Y-85860089D01*
X146960818Y-85889851D01*
X146841770Y-85919613D01*
X146722723Y-85919613D01*
X146603675Y-85889851D01*
X146544151Y-85860089D01*
X146484627Y-85800565D01*
X146425104Y-85681517D01*
X146425104Y-85532708D01*
X146484627Y-85413660D01*
X146544151Y-85354136D01*
X146603675Y-85324375D01*
X146722723Y-85294613D01*
X147615580Y-85354136D02*
X147675104Y-85324375D01*
X147794151Y-85294613D01*
X148091770Y-85294613D01*
X148210818Y-85324375D01*
X148270342Y-85354136D01*
X148329866Y-85413660D01*
X148329866Y-85473184D01*
X148270342Y-85562470D01*
X147556056Y-85919613D01*
X148329866Y-85919613D01*
X149103675Y-85294613D02*
X149222723Y-85294613D01*
X149341770Y-85324375D01*
X149401294Y-85354136D01*
X149460818Y-85413660D01*
X149520342Y-85532708D01*
X149520342Y-85681517D01*
X149460818Y-85800565D01*
X149401294Y-85860089D01*
X149341770Y-85889851D01*
X149222723Y-85919613D01*
X149103675Y-85919613D01*
X148984627Y-85889851D01*
X148925104Y-85860089D01*
X148865580Y-85800565D01*
X148806056Y-85681517D01*
X148806056Y-85532708D01*
X148865580Y-85413660D01*
X148925104Y-85354136D01*
X148984627Y-85324375D01*
X149103675Y-85294613D01*
X145353675Y-87013363D02*
X144937008Y-86715744D01*
X144639389Y-87013363D02*
X144639389Y-86388363D01*
X145115580Y-86388363D01*
X145234627Y-86418125D01*
X145294151Y-86447886D01*
X145353675Y-86507410D01*
X145353675Y-86596696D01*
X145294151Y-86656220D01*
X145234627Y-86685982D01*
X145115580Y-86715744D01*
X144639389Y-86715744D01*
X146365580Y-86983601D02*
X146246532Y-87013363D01*
X146008437Y-87013363D01*
X145889389Y-86983601D01*
X145829866Y-86924077D01*
X145829866Y-86685982D01*
X145889389Y-86626458D01*
X146008437Y-86596696D01*
X146246532Y-86596696D01*
X146365580Y-86626458D01*
X146425104Y-86685982D01*
X146425104Y-86745505D01*
X145829866Y-86805029D01*
X146841770Y-86596696D02*
X147139389Y-87013363D01*
X147437008Y-86596696D01*
X148806056Y-86447886D02*
X148865580Y-86418125D01*
X148984627Y-86388363D01*
X149282247Y-86388363D01*
X149401294Y-86418125D01*
X149460818Y-86447886D01*
X149520342Y-86507410D01*
X149520342Y-86566934D01*
X149460818Y-86656220D01*
X148746532Y-87013363D01*
X149520342Y-87013363D01*
D15*
X133223000Y-69342000D02*
G75*
G03X133223000Y-69342000I-127000J0D01*
G01*
X144399000Y-71501000D02*
G75*
G03X144399000Y-71501000I-127000J0D01*
G01*
X139763500Y-75692000D02*
G75*
G03X139763500Y-75692000I-127000J0D01*
G01*
D16*
X132143500Y-69405500D02*
G75*
G03X132143500Y-69405500I-127000J0D01*
G01*
X134363460Y-65328800D02*
X133159500Y-65328800D01*
X137708640Y-68275200D02*
X138112500Y-68275200D01*
X136289805Y-68275200D02*
X136560560Y-68275200D01*
X134711440Y-68275200D02*
X135003619Y-68275200D01*
X133159500Y-65328800D02*
X133159500Y-68275200D01*
X138112500Y-65328800D02*
X136908540Y-65328800D01*
X138112500Y-68275200D02*
X138112500Y-65328800D01*
X133159500Y-68275200D02*
X133563360Y-68275200D01*
D10*
X137096500Y-75712000D02*
X140546500Y-75712000D01*
X137096500Y-75712000D02*
X135146500Y-75712000D01*
X137096500Y-70592000D02*
X139046500Y-70592000D01*
X137096500Y-70592000D02*
X135146500Y-70592000D01*
D17*
G36*
X138630034Y-90648249D02*
G01*
X138676119Y-90672040D01*
X138707540Y-90706352D01*
X138722667Y-90746813D01*
X138719868Y-90789055D01*
X138697512Y-90828707D01*
X138653970Y-90861400D01*
X138653809Y-90861482D01*
X138595896Y-90880852D01*
X138541561Y-90878345D01*
X138490428Y-90853924D01*
X138478540Y-90844756D01*
X138449485Y-90816932D01*
X138436337Y-90790532D01*
X138433325Y-90755559D01*
X138436953Y-90718327D01*
X138451272Y-90691572D01*
X138472197Y-90671629D01*
X138505022Y-90649689D01*
X138540888Y-90640573D01*
X138570915Y-90639348D01*
X138630034Y-90648249D01*
G37*
X138630034Y-90648249D02*
X138676119Y-90672040D01*
X138707540Y-90706352D01*
X138722667Y-90746813D01*
X138719868Y-90789055D01*
X138697512Y-90828707D01*
X138653970Y-90861400D01*
X138653809Y-90861482D01*
X138595896Y-90880852D01*
X138541561Y-90878345D01*
X138490428Y-90853924D01*
X138478540Y-90844756D01*
X138449485Y-90816932D01*
X138436337Y-90790532D01*
X138433325Y-90755559D01*
X138436953Y-90718327D01*
X138451272Y-90691572D01*
X138472197Y-90671629D01*
X138505022Y-90649689D01*
X138540888Y-90640573D01*
X138570915Y-90639348D01*
X138630034Y-90648249D01*
G36*
X139357755Y-93210842D02*
G01*
X139406556Y-93236223D01*
X139439019Y-93273717D01*
X139451568Y-93319421D01*
X139443666Y-93362420D01*
X139415709Y-93401335D01*
X139371669Y-93428802D01*
X139318827Y-93442900D01*
X139264468Y-93441714D01*
X139215874Y-93423323D01*
X139214877Y-93422678D01*
X139173336Y-93383254D01*
X139156450Y-93336499D01*
X139163160Y-93289803D01*
X139191411Y-93243742D01*
X139235250Y-93213460D01*
X139290759Y-93201557D01*
X139296192Y-93201476D01*
X139357755Y-93210842D01*
G37*
X139357755Y-93210842D02*
X139406556Y-93236223D01*
X139439019Y-93273717D01*
X139451568Y-93319421D01*
X139443666Y-93362420D01*
X139415709Y-93401335D01*
X139371669Y-93428802D01*
X139318827Y-93442900D01*
X139264468Y-93441714D01*
X139215874Y-93423323D01*
X139214877Y-93422678D01*
X139173336Y-93383254D01*
X139156450Y-93336499D01*
X139163160Y-93289803D01*
X139191411Y-93243742D01*
X139235250Y-93213460D01*
X139290759Y-93201557D01*
X139296192Y-93201476D01*
X139357755Y-93210842D01*
G36*
X139479173Y-90524179D02*
G01*
X139526194Y-90541881D01*
X139564030Y-90575756D01*
X139572244Y-90588302D01*
X139587058Y-90636422D01*
X139578828Y-90682171D01*
X139550923Y-90721096D01*
X139506715Y-90748745D01*
X139449575Y-90760664D01*
X139441655Y-90760826D01*
X139401665Y-90757067D01*
X139368814Y-90742646D01*
X139342938Y-90723278D01*
X139312968Y-90693942D01*
X139299880Y-90666010D01*
X139297723Y-90641299D01*
X139308627Y-90593977D01*
X139337694Y-90557548D01*
X139379453Y-90533068D01*
X139428436Y-90521593D01*
X139479173Y-90524179D01*
G37*
X139479173Y-90524179D02*
X139526194Y-90541881D01*
X139564030Y-90575756D01*
X139572244Y-90588302D01*
X139587058Y-90636422D01*
X139578828Y-90682171D01*
X139550923Y-90721096D01*
X139506715Y-90748745D01*
X139449575Y-90760664D01*
X139441655Y-90760826D01*
X139401665Y-90757067D01*
X139368814Y-90742646D01*
X139342938Y-90723278D01*
X139312968Y-90693942D01*
X139299880Y-90666010D01*
X139297723Y-90641299D01*
X139308627Y-90593977D01*
X139337694Y-90557548D01*
X139379453Y-90533068D01*
X139428436Y-90521593D01*
X139479173Y-90524179D01*
G36*
X142103862Y-91620196D02*
G01*
X142146743Y-91641504D01*
X142177174Y-91674747D01*
X142190516Y-91716553D01*
X142183337Y-91760626D01*
X142155808Y-91799005D01*
X142113599Y-91823106D01*
X142063500Y-91831683D01*
X142012304Y-91823494D01*
X141969684Y-91799762D01*
X141937653Y-91759835D01*
X141928578Y-91716326D01*
X141941556Y-91674496D01*
X141975688Y-91639608D01*
X141999314Y-91626876D01*
X142053172Y-91614196D01*
X142103862Y-91620196D01*
G37*
X142103862Y-91620196D02*
X142146743Y-91641504D01*
X142177174Y-91674747D01*
X142190516Y-91716553D01*
X142183337Y-91760626D01*
X142155808Y-91799005D01*
X142113599Y-91823106D01*
X142063500Y-91831683D01*
X142012304Y-91823494D01*
X141969684Y-91799762D01*
X141937653Y-91759835D01*
X141928578Y-91716326D01*
X141941556Y-91674496D01*
X141975688Y-91639608D01*
X141999314Y-91626876D01*
X142053172Y-91614196D01*
X142103862Y-91620196D01*
G36*
X141466921Y-92952631D02*
G01*
X141518357Y-92971409D01*
X141557380Y-93004278D01*
X141579256Y-93047305D01*
X141579709Y-93094627D01*
X141557961Y-93137948D01*
X141518962Y-93169524D01*
X141469106Y-93187721D01*
X141414788Y-93190903D01*
X141362403Y-93177437D01*
X141331360Y-93158110D01*
X141300497Y-93118695D01*
X141291012Y-93074088D01*
X141300936Y-93029603D01*
X141328300Y-92990548D01*
X141371136Y-92962235D01*
X141407805Y-92951872D01*
X141466921Y-92952631D01*
G37*
X141466921Y-92952631D02*
X141518357Y-92971409D01*
X141557380Y-93004278D01*
X141579256Y-93047305D01*
X141579709Y-93094627D01*
X141557961Y-93137948D01*
X141518962Y-93169524D01*
X141469106Y-93187721D01*
X141414788Y-93190903D01*
X141362403Y-93177437D01*
X141331360Y-93158110D01*
X141300497Y-93118695D01*
X141291012Y-93074088D01*
X141300936Y-93029603D01*
X141328300Y-92990548D01*
X141371136Y-92962235D01*
X141407805Y-92951872D01*
X141466921Y-92952631D01*
G36*
X140488033Y-94230657D02*
G01*
X140519068Y-94240123D01*
X140549957Y-94261271D01*
X140555754Y-94266026D01*
X140585424Y-94294870D01*
X140598541Y-94322297D01*
X140600969Y-94349909D01*
X140590060Y-94405121D01*
X140558116Y-94447729D01*
X140506313Y-94476183D01*
X140504973Y-94476634D01*
X140469917Y-94487762D01*
X140446806Y-94491479D01*
X140422824Y-94488440D01*
X140396739Y-94482167D01*
X140341801Y-94458761D01*
X140305017Y-94419635D01*
X140294559Y-94398278D01*
X140286286Y-94345971D01*
X140304140Y-94297336D01*
X140337089Y-94261573D01*
X140366964Y-94240661D01*
X140397972Y-94230917D01*
X140442559Y-94228479D01*
X140443741Y-94228478D01*
X140488033Y-94230657D01*
G37*
X140488033Y-94230657D02*
X140519068Y-94240123D01*
X140549957Y-94261271D01*
X140555754Y-94266026D01*
X140585424Y-94294870D01*
X140598541Y-94322297D01*
X140600969Y-94349909D01*
X140590060Y-94405121D01*
X140558116Y-94447729D01*
X140506313Y-94476183D01*
X140504973Y-94476634D01*
X140469917Y-94487762D01*
X140446806Y-94491479D01*
X140422824Y-94488440D01*
X140396739Y-94482167D01*
X140341801Y-94458761D01*
X140305017Y-94419635D01*
X140294559Y-94398278D01*
X140286286Y-94345971D01*
X140304140Y-94297336D01*
X140337089Y-94261573D01*
X140366964Y-94240661D01*
X140397972Y-94230917D01*
X140442559Y-94228479D01*
X140443741Y-94228478D01*
X140488033Y-94230657D01*
G36*
X146032452Y-93725398D02*
G01*
X146055496Y-93735485D01*
X146078288Y-93743323D01*
X146124890Y-93755548D01*
X146193162Y-93771704D01*
X146280966Y-93791333D01*
X146386161Y-93813979D01*
X146506608Y-93839185D01*
X146640169Y-93866493D01*
X146784703Y-93895447D01*
X146938071Y-93925590D01*
X147017461Y-93940976D01*
X147123665Y-93961576D01*
X147206986Y-93978185D01*
X147270482Y-93991689D01*
X147317210Y-94002972D01*
X147350229Y-94012919D01*
X147372596Y-94022416D01*
X147387369Y-94032348D01*
X147397605Y-94043600D01*
X147403743Y-94052790D01*
X147413424Y-94069834D01*
X147419433Y-94086453D01*
X147420704Y-94104642D01*
X147416172Y-94126402D01*
X147404771Y-94153731D01*
X147385434Y-94188626D01*
X147357096Y-94233088D01*
X147318691Y-94289113D01*
X147269154Y-94358700D01*
X147207418Y-94443849D01*
X147161965Y-94506130D01*
X147090821Y-94603494D01*
X147032225Y-94683605D01*
X146984917Y-94748087D01*
X146947640Y-94798563D01*
X146919132Y-94836658D01*
X146898136Y-94863994D01*
X146883391Y-94882198D01*
X146873637Y-94892891D01*
X146867617Y-94897699D01*
X146864069Y-94898245D01*
X146861735Y-94896152D01*
X146860655Y-94894659D01*
X146751397Y-94745119D01*
X146646650Y-94601462D01*
X146547208Y-94464786D01*
X146453861Y-94336193D01*
X146367403Y-94216783D01*
X146288623Y-94107656D01*
X146218315Y-94009913D01*
X146157270Y-93924653D01*
X146106280Y-93852977D01*
X146066136Y-93795986D01*
X146037631Y-93754779D01*
X146021557Y-93730458D01*
X146018169Y-93723905D01*
X146032452Y-93725398D01*
G37*
X146032452Y-93725398D02*
X146055496Y-93735485D01*
X146078288Y-93743323D01*
X146124890Y-93755548D01*
X146193162Y-93771704D01*
X146280966Y-93791333D01*
X146386161Y-93813979D01*
X146506608Y-93839185D01*
X146640169Y-93866493D01*
X146784703Y-93895447D01*
X146938071Y-93925590D01*
X147017461Y-93940976D01*
X147123665Y-93961576D01*
X147206986Y-93978185D01*
X147270482Y-93991689D01*
X147317210Y-94002972D01*
X147350229Y-94012919D01*
X147372596Y-94022416D01*
X147387369Y-94032348D01*
X147397605Y-94043600D01*
X147403743Y-94052790D01*
X147413424Y-94069834D01*
X147419433Y-94086453D01*
X147420704Y-94104642D01*
X147416172Y-94126402D01*
X147404771Y-94153731D01*
X147385434Y-94188626D01*
X147357096Y-94233088D01*
X147318691Y-94289113D01*
X147269154Y-94358700D01*
X147207418Y-94443849D01*
X147161965Y-94506130D01*
X147090821Y-94603494D01*
X147032225Y-94683605D01*
X146984917Y-94748087D01*
X146947640Y-94798563D01*
X146919132Y-94836658D01*
X146898136Y-94863994D01*
X146883391Y-94882198D01*
X146873637Y-94892891D01*
X146867617Y-94897699D01*
X146864069Y-94898245D01*
X146861735Y-94896152D01*
X146860655Y-94894659D01*
X146751397Y-94745119D01*
X146646650Y-94601462D01*
X146547208Y-94464786D01*
X146453861Y-94336193D01*
X146367403Y-94216783D01*
X146288623Y-94107656D01*
X146218315Y-94009913D01*
X146157270Y-93924653D01*
X146106280Y-93852977D01*
X146066136Y-93795986D01*
X146037631Y-93754779D01*
X146021557Y-93730458D01*
X146018169Y-93723905D01*
X146032452Y-93725398D01*
G36*
X140401493Y-91307595D02*
G01*
X140873587Y-91699522D01*
X141345681Y-92091448D01*
X141345681Y-92845945D01*
X141286192Y-92874896D01*
X141228429Y-92914440D01*
X141182367Y-92968275D01*
X141154143Y-93029094D01*
X141152972Y-93033509D01*
X141150908Y-93092531D01*
X141170959Y-93152150D01*
X141209402Y-93207733D01*
X141262513Y-93254646D01*
X141326566Y-93288255D01*
X141366989Y-93299772D01*
X141452535Y-93306362D01*
X141532624Y-93292519D01*
X141603257Y-93259786D01*
X141660433Y-93209702D01*
X141683156Y-93177921D01*
X141712384Y-93108133D01*
X141715404Y-93040880D01*
X141692435Y-92977333D01*
X141643698Y-92918660D01*
X141632662Y-92909085D01*
X141592727Y-92880539D01*
X141550783Y-92857574D01*
X141527272Y-92848608D01*
X141478665Y-92835287D01*
X141478665Y-92058320D01*
X140999922Y-91660869D01*
X140521178Y-91263419D01*
X140521178Y-89181609D01*
X141172801Y-89181609D01*
X141172801Y-91086778D01*
X141497794Y-91356494D01*
X141585376Y-91429360D01*
X141655681Y-91488373D01*
X141710428Y-91535139D01*
X141751332Y-91571268D01*
X141780111Y-91598365D01*
X141798482Y-91618041D01*
X141808162Y-91631901D01*
X141810868Y-91641555D01*
X141808873Y-91647800D01*
X141802329Y-91669937D01*
X141799418Y-91705576D01*
X141800339Y-91739554D01*
X141808380Y-91790479D01*
X141826600Y-91830339D01*
X141859670Y-91866154D01*
X141908895Y-91902689D01*
X141969673Y-91930252D01*
X142041676Y-91942027D01*
X142116988Y-91937563D01*
X142183304Y-91918337D01*
X142249841Y-91878010D01*
X142297128Y-91823615D01*
X142322667Y-91758239D01*
X142325072Y-91743093D01*
X142320863Y-91677940D01*
X142294626Y-91619667D01*
X142250362Y-91570632D01*
X142192075Y-91533190D01*
X142123768Y-91509697D01*
X142049445Y-91502509D01*
X141973109Y-91513984D01*
X141949206Y-91521870D01*
X141894460Y-91542516D01*
X141305786Y-91053298D01*
X141305786Y-89181609D01*
X141430591Y-89181609D01*
X141489485Y-89182005D01*
X141527682Y-89183895D01*
X141551078Y-89188331D01*
X141565565Y-89196366D01*
X141575860Y-89207544D01*
X141586834Y-89228085D01*
X141603250Y-89268866D01*
X141625172Y-89330073D01*
X141652660Y-89411893D01*
X141685775Y-89514513D01*
X141724580Y-89638119D01*
X141769135Y-89782900D01*
X141817836Y-89943513D01*
X141842039Y-90022619D01*
X141865286Y-90096376D01*
X141886502Y-90161548D01*
X141904616Y-90214904D01*
X141918556Y-90253208D01*
X141927140Y-90273042D01*
X141952647Y-90303492D01*
X141988581Y-90331376D01*
X141996058Y-90335687D01*
X142034927Y-90352269D01*
X142093206Y-90371818D01*
X142164339Y-90392521D01*
X142241769Y-90412566D01*
X142318941Y-90430138D01*
X142379839Y-90441844D01*
X142466592Y-90449001D01*
X142544506Y-90437718D01*
X142619948Y-90406746D01*
X142650592Y-90388733D01*
X142672735Y-90372512D01*
X142710909Y-90342046D01*
X142762925Y-90299182D01*
X142826594Y-90245765D01*
X142899727Y-90183640D01*
X142980134Y-90114654D01*
X143065626Y-90040653D01*
X143128047Y-89986223D01*
X143226943Y-89899844D01*
X143309356Y-89828219D01*
X143376993Y-89769992D01*
X143431565Y-89723806D01*
X143474779Y-89688303D01*
X143508345Y-89662126D01*
X143533971Y-89643919D01*
X143553366Y-89632323D01*
X143568239Y-89625982D01*
X143580299Y-89623538D01*
X143584935Y-89623348D01*
X143608279Y-89627614D01*
X143646882Y-89640859D01*
X143702316Y-89663748D01*
X143776152Y-89696949D01*
X143869960Y-89741129D01*
X143925702Y-89767958D01*
X144024021Y-89815390D01*
X144131007Y-89866728D01*
X144239448Y-89918530D01*
X144342132Y-89967355D01*
X144431848Y-90009760D01*
X144461218Y-90023559D01*
X144534781Y-90058776D01*
X144601665Y-90092175D01*
X144657874Y-90121650D01*
X144699415Y-90145096D01*
X144722291Y-90160407D01*
X144724033Y-90162046D01*
X144739945Y-90184096D01*
X144747507Y-90210472D01*
X144746405Y-90244806D01*
X144736326Y-90290729D01*
X144716956Y-90351872D01*
X144704622Y-90386709D01*
X144690332Y-90426613D01*
X144669847Y-90484400D01*
X144644340Y-90556731D01*
X144614984Y-90640265D01*
X144582953Y-90731663D01*
X144549421Y-90827587D01*
X144517416Y-90919370D01*
X144480928Y-91024505D01*
X144451422Y-91110559D01*
X144428294Y-91179623D01*
X144410942Y-91233787D01*
X144398764Y-91275140D01*
X144391157Y-91305772D01*
X144387518Y-91327773D01*
X144387246Y-91343233D01*
X144389736Y-91354242D01*
X144391132Y-91357396D01*
X144406558Y-91376586D01*
X144437835Y-91407195D01*
X144481031Y-91446010D01*
X144532215Y-91489822D01*
X144587457Y-91535418D01*
X144642824Y-91579587D01*
X144694387Y-91619119D01*
X144738214Y-91650801D01*
X144770373Y-91671423D01*
X144782659Y-91677224D01*
X144823679Y-91685721D01*
X144859065Y-91688478D01*
X144885365Y-91685289D01*
X144935104Y-91676023D01*
X145006315Y-91661132D01*
X145097029Y-91641069D01*
X145205277Y-91616287D01*
X145329092Y-91587237D01*
X145466504Y-91554374D01*
X145615546Y-91518148D01*
X145774249Y-91479012D01*
X145822479Y-91467014D01*
X145910318Y-91445466D01*
X145991292Y-91426257D01*
X146061405Y-91410283D01*
X146116665Y-91398438D01*
X146153078Y-91391618D01*
X146164704Y-91390304D01*
X146188136Y-91393480D01*
X146212310Y-91404271D01*
X146239006Y-91424571D01*
X146270005Y-91456273D01*
X146307088Y-91501271D01*
X146352037Y-91561459D01*
X146406632Y-91638730D01*
X146429554Y-91671913D01*
X146485695Y-91753116D01*
X146549364Y-91844489D01*
X146615341Y-91938589D01*
X146678407Y-92027970D01*
X146730827Y-92101670D01*
X146775263Y-92165061D01*
X146815145Y-92224340D01*
X146848331Y-92276128D01*
X146872680Y-92317046D01*
X146886048Y-92343718D01*
X146887756Y-92349164D01*
X146889392Y-92360095D01*
X146888452Y-92370617D01*
X146883040Y-92382524D01*
X146871263Y-92397610D01*
X146851227Y-92417668D01*
X146821036Y-92444494D01*
X146778796Y-92479880D01*
X146722614Y-92525621D01*
X146650594Y-92583511D01*
X146584025Y-92636797D01*
X146448295Y-92745526D01*
X146330618Y-92840143D01*
X146229733Y-92921725D01*
X146144384Y-92991349D01*
X146073311Y-93050092D01*
X146015256Y-93099031D01*
X145968960Y-93139243D01*
X145933166Y-93171804D01*
X145906614Y-93197791D01*
X145888047Y-93218281D01*
X145876206Y-93234351D01*
X145869832Y-93247078D01*
X145869422Y-93248284D01*
X145865358Y-93286444D01*
X145871206Y-93341778D01*
X145886325Y-93411187D01*
X145910074Y-93491571D01*
X145933708Y-93558654D01*
X145946807Y-93596350D01*
X145954808Y-93625062D01*
X145956146Y-93639078D01*
X145955863Y-93639443D01*
X145946886Y-93632778D01*
X145927326Y-93610741D01*
X145900217Y-93576936D01*
X145873584Y-93541745D01*
X145757747Y-93396777D01*
X145639874Y-93273143D01*
X145518745Y-93170101D01*
X145393142Y-93086911D01*
X145261848Y-93022829D01*
X145123644Y-92977114D01*
X144977311Y-92949024D01*
X144886101Y-92940383D01*
X144829526Y-92938376D01*
X144778282Y-92940685D01*
X144722366Y-92948252D01*
X144651773Y-92962020D01*
X144647931Y-92962834D01*
X144512537Y-92991609D01*
X142052143Y-92991609D01*
X141171007Y-94013130D01*
X141055486Y-94146981D01*
X140944260Y-94275709D01*
X140838311Y-94398185D01*
X140738619Y-94513282D01*
X140646166Y-94619872D01*
X140561932Y-94716828D01*
X140486897Y-94803023D01*
X140422044Y-94877328D01*
X140368354Y-94938616D01*
X140326806Y-94985760D01*
X140298382Y-95017631D01*
X140284064Y-95033103D01*
X140282514Y-95034448D01*
X140273996Y-95025606D01*
X140251058Y-94999888D01*
X140214679Y-94958430D01*
X140165840Y-94902364D01*
X140105518Y-94832825D01*
X140034694Y-94750946D01*
X139954347Y-94657860D01*
X139865455Y-94554702D01*
X139768998Y-94442606D01*
X139665955Y-94322705D01*
X139557305Y-94196133D01*
X139444029Y-94064023D01*
X139402614Y-94015687D01*
X138530070Y-92997130D01*
X137058526Y-92994321D01*
X135586981Y-92991512D01*
X135241596Y-92705440D01*
X135162091Y-92639103D01*
X135088308Y-92576606D01*
X135022459Y-92519896D01*
X134966760Y-92470920D01*
X134923424Y-92431623D01*
X134894666Y-92403954D01*
X134882756Y-92389983D01*
X134875549Y-92356724D01*
X134877951Y-92330994D01*
X134887038Y-92313336D01*
X134907849Y-92279832D01*
X134938347Y-92233536D01*
X134976498Y-92177506D01*
X135020264Y-92114796D01*
X135048540Y-92075000D01*
X135104825Y-91995724D01*
X135166193Y-91908285D01*
X135228075Y-91819260D01*
X135285902Y-91735227D01*
X135335103Y-91662764D01*
X135340083Y-91655348D01*
X135397245Y-91572035D01*
X135445139Y-91506962D01*
X135485568Y-91458285D01*
X135520337Y-91424162D01*
X135551248Y-91402750D01*
X135580107Y-91392206D01*
X135599527Y-91390304D01*
X135625868Y-91393504D01*
X135671873Y-91402303D01*
X135731901Y-91415501D01*
X135800313Y-91431897D01*
X135829120Y-91439174D01*
X135948022Y-91469406D01*
X136071388Y-91500294D01*
X136196408Y-91531172D01*
X136320273Y-91561377D01*
X136440174Y-91590245D01*
X136553303Y-91617113D01*
X136656850Y-91641316D01*
X136748005Y-91662190D01*
X136823961Y-91679071D01*
X136881907Y-91691296D01*
X136919035Y-91698201D01*
X136930663Y-91699522D01*
X136951979Y-91696854D01*
X136976193Y-91687259D01*
X137007351Y-91668345D01*
X137049501Y-91637721D01*
X137094224Y-91602891D01*
X137182455Y-91532187D01*
X137252116Y-91473159D01*
X137304525Y-91422819D01*
X137341001Y-91378179D01*
X137362862Y-91336251D01*
X137371426Y-91294046D01*
X137368012Y-91248576D01*
X137353939Y-91196853D01*
X137330523Y-91135888D01*
X137315685Y-91100913D01*
X137298733Y-91059425D01*
X137275910Y-91000353D01*
X137248567Y-90927370D01*
X137218059Y-90844148D01*
X137188573Y-90762237D01*
X138295977Y-90762237D01*
X138307329Y-90826314D01*
X138338917Y-90885153D01*
X138386823Y-90933959D01*
X138447128Y-90967938D01*
X138470153Y-90975365D01*
X138480486Y-90978716D01*
X138488089Y-90984560D01*
X138493381Y-90995946D01*
X138496780Y-91015923D01*
X138498705Y-91047539D01*
X138499575Y-91093845D01*
X138499808Y-91157887D01*
X138499817Y-91191362D01*
X138499817Y-91399539D01*
X138865524Y-91695300D01*
X139231231Y-91991060D01*
X139231231Y-93090551D01*
X139180103Y-93112212D01*
X139110902Y-93152467D01*
X139060522Y-93204332D01*
X139029949Y-93263950D01*
X139020173Y-93327463D01*
X139032183Y-93391014D01*
X139066966Y-93450745D01*
X139087673Y-93472890D01*
X139153104Y-93519459D01*
X139228571Y-93547321D01*
X139309383Y-93555697D01*
X139390850Y-93543803D01*
X139430443Y-93529978D01*
X139499999Y-93489683D01*
X139549138Y-93438883D01*
X139577947Y-93381140D01*
X139586513Y-93320017D01*
X139574921Y-93259078D01*
X139543260Y-93201885D01*
X139491614Y-93152002D01*
X139420313Y-93113087D01*
X139351011Y-93085478D01*
X139350964Y-92516245D01*
X139350917Y-91947011D01*
X138621225Y-91362695D01*
X138620364Y-91178574D01*
X138619503Y-90994452D01*
X138667188Y-90981383D01*
X138740306Y-90950646D01*
X138797117Y-90905194D01*
X138835778Y-90848843D01*
X138854448Y-90785412D01*
X138851286Y-90718720D01*
X138825188Y-90653808D01*
X138778476Y-90596688D01*
X138720054Y-90556674D01*
X138653798Y-90532971D01*
X138583582Y-90524787D01*
X138513278Y-90531328D01*
X138446761Y-90551799D01*
X138387905Y-90585407D01*
X138340583Y-90631359D01*
X138308670Y-90688861D01*
X138296038Y-90757119D01*
X138295977Y-90762237D01*
X137188573Y-90762237D01*
X137185737Y-90754360D01*
X137152953Y-90661680D01*
X137135540Y-90611739D01*
X137099420Y-90507152D01*
X137070473Y-90421543D01*
X137048373Y-90352699D01*
X137032795Y-90298406D01*
X137023413Y-90256453D01*
X137019903Y-90224626D01*
X137021939Y-90200711D01*
X137029196Y-90182496D01*
X137041347Y-90167768D01*
X137058069Y-90154313D01*
X137067338Y-90147852D01*
X137087813Y-90136275D01*
X137128825Y-90115144D01*
X137187742Y-90085745D01*
X137261929Y-90049364D01*
X137348752Y-90007289D01*
X137445577Y-89960807D01*
X137549769Y-89911204D01*
X137611441Y-89882030D01*
X137738578Y-89822138D01*
X137844859Y-89772491D01*
X137932485Y-89732321D01*
X138003654Y-89700862D01*
X138060568Y-89677347D01*
X138105426Y-89661009D01*
X138140427Y-89651081D01*
X138167772Y-89646795D01*
X138189661Y-89647386D01*
X138208293Y-89652085D01*
X138225868Y-89660125D01*
X138234377Y-89664833D01*
X138251340Y-89677076D01*
X138284424Y-89703251D01*
X138331267Y-89741405D01*
X138389508Y-89789586D01*
X138456785Y-89845843D01*
X138530737Y-89908224D01*
X138598360Y-89965695D01*
X138715522Y-90065565D01*
X138815660Y-90150764D01*
X138900261Y-90222477D01*
X138970813Y-90281892D01*
X139028804Y-90330194D01*
X139075724Y-90368572D01*
X139113059Y-90398210D01*
X139142297Y-90420296D01*
X139164928Y-90436016D01*
X139182439Y-90446556D01*
X139196318Y-90453104D01*
X139208054Y-90456845D01*
X139216496Y-90458548D01*
X139244812Y-90464166D01*
X139250347Y-90471425D01*
X139236405Y-90486270D01*
X139233423Y-90488986D01*
X139191223Y-90542742D01*
X139168079Y-90606185D01*
X139165409Y-90672467D01*
X139183094Y-90731756D01*
X139206766Y-90765006D01*
X139242427Y-90800218D01*
X139282665Y-90831256D01*
X139320070Y-90851983D01*
X139333368Y-90856182D01*
X139364215Y-90862612D01*
X139364215Y-91576257D01*
X139882854Y-91999249D01*
X140401493Y-92422240D01*
X140401493Y-93270142D01*
X140401450Y-93428189D01*
X140401299Y-93565566D01*
X140401007Y-93683690D01*
X140400538Y-93783978D01*
X140399858Y-93867847D01*
X140398933Y-93936713D01*
X140397730Y-93991994D01*
X140396213Y-94035107D01*
X140394348Y-94067469D01*
X140392102Y-94090495D01*
X140389440Y-94105605D01*
X140386328Y-94114213D01*
X140382732Y-94117738D01*
X140381015Y-94118043D01*
X140349224Y-94124580D01*
X140307410Y-94141140D01*
X140265509Y-94163146D01*
X140233493Y-94185990D01*
X140184433Y-94245301D01*
X140157478Y-94311002D01*
X140153651Y-94378618D01*
X140173972Y-94443675D01*
X140174476Y-94444628D01*
X140221292Y-94511252D01*
X140280952Y-94558650D01*
X140354379Y-94587338D01*
X140442498Y-94597834D01*
X140448037Y-94597896D01*
X140533865Y-94588207D01*
X140608835Y-94559288D01*
X140670280Y-94512923D01*
X140715537Y-94450895D01*
X140733905Y-94406607D01*
X140740949Y-94343139D01*
X140725194Y-94279223D01*
X140689574Y-94220001D01*
X140637022Y-94170617D01*
X140582216Y-94140611D01*
X140521178Y-94116073D01*
X140521178Y-92380952D01*
X140002540Y-91956372D01*
X139483901Y-91531793D01*
X139483901Y-90875698D01*
X139531326Y-90861457D01*
X139594356Y-90833037D01*
X139651865Y-90790328D01*
X139694086Y-90740815D01*
X139698471Y-90733312D01*
X139720454Y-90668235D01*
X139718466Y-90602353D01*
X139694439Y-90539886D01*
X139650301Y-90485056D01*
X139587982Y-90442083D01*
X139559657Y-90429635D01*
X139509078Y-90410446D01*
X139565741Y-90402922D01*
X139663671Y-90379932D01*
X139746158Y-90338972D01*
X139813355Y-90279949D01*
X139850871Y-90228669D01*
X139865086Y-90199480D01*
X139883113Y-90153635D01*
X139903201Y-90096077D01*
X139923595Y-90031749D01*
X139936904Y-89986090D01*
X139953435Y-89927949D01*
X139974621Y-89854662D01*
X139999239Y-89770356D01*
X140026064Y-89679157D01*
X140053870Y-89585194D01*
X140081435Y-89492593D01*
X140107533Y-89405481D01*
X140130939Y-89327985D01*
X140150430Y-89264234D01*
X140163294Y-89223022D01*
X140176444Y-89181609D01*
X140401493Y-89181609D01*
X140401493Y-91307595D01*
G37*
X140401493Y-91307595D02*
X140873587Y-91699522D01*
X141345681Y-92091448D01*
X141345681Y-92845945D01*
X141286192Y-92874896D01*
X141228429Y-92914440D01*
X141182367Y-92968275D01*
X141154143Y-93029094D01*
X141152972Y-93033509D01*
X141150908Y-93092531D01*
X141170959Y-93152150D01*
X141209402Y-93207733D01*
X141262513Y-93254646D01*
X141326566Y-93288255D01*
X141366989Y-93299772D01*
X141452535Y-93306362D01*
X141532624Y-93292519D01*
X141603257Y-93259786D01*
X141660433Y-93209702D01*
X141683156Y-93177921D01*
X141712384Y-93108133D01*
X141715404Y-93040880D01*
X141692435Y-92977333D01*
X141643698Y-92918660D01*
X141632662Y-92909085D01*
X141592727Y-92880539D01*
X141550783Y-92857574D01*
X141527272Y-92848608D01*
X141478665Y-92835287D01*
X141478665Y-92058320D01*
X140999922Y-91660869D01*
X140521178Y-91263419D01*
X140521178Y-89181609D01*
X141172801Y-89181609D01*
X141172801Y-91086778D01*
X141497794Y-91356494D01*
X141585376Y-91429360D01*
X141655681Y-91488373D01*
X141710428Y-91535139D01*
X141751332Y-91571268D01*
X141780111Y-91598365D01*
X141798482Y-91618041D01*
X141808162Y-91631901D01*
X141810868Y-91641555D01*
X141808873Y-91647800D01*
X141802329Y-91669937D01*
X141799418Y-91705576D01*
X141800339Y-91739554D01*
X141808380Y-91790479D01*
X141826600Y-91830339D01*
X141859670Y-91866154D01*
X141908895Y-91902689D01*
X141969673Y-91930252D01*
X142041676Y-91942027D01*
X142116988Y-91937563D01*
X142183304Y-91918337D01*
X142249841Y-91878010D01*
X142297128Y-91823615D01*
X142322667Y-91758239D01*
X142325072Y-91743093D01*
X142320863Y-91677940D01*
X142294626Y-91619667D01*
X142250362Y-91570632D01*
X142192075Y-91533190D01*
X142123768Y-91509697D01*
X142049445Y-91502509D01*
X141973109Y-91513984D01*
X141949206Y-91521870D01*
X141894460Y-91542516D01*
X141305786Y-91053298D01*
X141305786Y-89181609D01*
X141430591Y-89181609D01*
X141489485Y-89182005D01*
X141527682Y-89183895D01*
X141551078Y-89188331D01*
X141565565Y-89196366D01*
X141575860Y-89207544D01*
X141586834Y-89228085D01*
X141603250Y-89268866D01*
X141625172Y-89330073D01*
X141652660Y-89411893D01*
X141685775Y-89514513D01*
X141724580Y-89638119D01*
X141769135Y-89782900D01*
X141817836Y-89943513D01*
X141842039Y-90022619D01*
X141865286Y-90096376D01*
X141886502Y-90161548D01*
X141904616Y-90214904D01*
X141918556Y-90253208D01*
X141927140Y-90273042D01*
X141952647Y-90303492D01*
X141988581Y-90331376D01*
X141996058Y-90335687D01*
X142034927Y-90352269D01*
X142093206Y-90371818D01*
X142164339Y-90392521D01*
X142241769Y-90412566D01*
X142318941Y-90430138D01*
X142379839Y-90441844D01*
X142466592Y-90449001D01*
X142544506Y-90437718D01*
X142619948Y-90406746D01*
X142650592Y-90388733D01*
X142672735Y-90372512D01*
X142710909Y-90342046D01*
X142762925Y-90299182D01*
X142826594Y-90245765D01*
X142899727Y-90183640D01*
X142980134Y-90114654D01*
X143065626Y-90040653D01*
X143128047Y-89986223D01*
X143226943Y-89899844D01*
X143309356Y-89828219D01*
X143376993Y-89769992D01*
X143431565Y-89723806D01*
X143474779Y-89688303D01*
X143508345Y-89662126D01*
X143533971Y-89643919D01*
X143553366Y-89632323D01*
X143568239Y-89625982D01*
X143580299Y-89623538D01*
X143584935Y-89623348D01*
X143608279Y-89627614D01*
X143646882Y-89640859D01*
X143702316Y-89663748D01*
X143776152Y-89696949D01*
X143869960Y-89741129D01*
X143925702Y-89767958D01*
X144024021Y-89815390D01*
X144131007Y-89866728D01*
X144239448Y-89918530D01*
X144342132Y-89967355D01*
X144431848Y-90009760D01*
X144461218Y-90023559D01*
X144534781Y-90058776D01*
X144601665Y-90092175D01*
X144657874Y-90121650D01*
X144699415Y-90145096D01*
X144722291Y-90160407D01*
X144724033Y-90162046D01*
X144739945Y-90184096D01*
X144747507Y-90210472D01*
X144746405Y-90244806D01*
X144736326Y-90290729D01*
X144716956Y-90351872D01*
X144704622Y-90386709D01*
X144690332Y-90426613D01*
X144669847Y-90484400D01*
X144644340Y-90556731D01*
X144614984Y-90640265D01*
X144582953Y-90731663D01*
X144549421Y-90827587D01*
X144517416Y-90919370D01*
X144480928Y-91024505D01*
X144451422Y-91110559D01*
X144428294Y-91179623D01*
X144410942Y-91233787D01*
X144398764Y-91275140D01*
X144391157Y-91305772D01*
X144387518Y-91327773D01*
X144387246Y-91343233D01*
X144389736Y-91354242D01*
X144391132Y-91357396D01*
X144406558Y-91376586D01*
X144437835Y-91407195D01*
X144481031Y-91446010D01*
X144532215Y-91489822D01*
X144587457Y-91535418D01*
X144642824Y-91579587D01*
X144694387Y-91619119D01*
X144738214Y-91650801D01*
X144770373Y-91671423D01*
X144782659Y-91677224D01*
X144823679Y-91685721D01*
X144859065Y-91688478D01*
X144885365Y-91685289D01*
X144935104Y-91676023D01*
X145006315Y-91661132D01*
X145097029Y-91641069D01*
X145205277Y-91616287D01*
X145329092Y-91587237D01*
X145466504Y-91554374D01*
X145615546Y-91518148D01*
X145774249Y-91479012D01*
X145822479Y-91467014D01*
X145910318Y-91445466D01*
X145991292Y-91426257D01*
X146061405Y-91410283D01*
X146116665Y-91398438D01*
X146153078Y-91391618D01*
X146164704Y-91390304D01*
X146188136Y-91393480D01*
X146212310Y-91404271D01*
X146239006Y-91424571D01*
X146270005Y-91456273D01*
X146307088Y-91501271D01*
X146352037Y-91561459D01*
X146406632Y-91638730D01*
X146429554Y-91671913D01*
X146485695Y-91753116D01*
X146549364Y-91844489D01*
X146615341Y-91938589D01*
X146678407Y-92027970D01*
X146730827Y-92101670D01*
X146775263Y-92165061D01*
X146815145Y-92224340D01*
X146848331Y-92276128D01*
X146872680Y-92317046D01*
X146886048Y-92343718D01*
X146887756Y-92349164D01*
X146889392Y-92360095D01*
X146888452Y-92370617D01*
X146883040Y-92382524D01*
X146871263Y-92397610D01*
X146851227Y-92417668D01*
X146821036Y-92444494D01*
X146778796Y-92479880D01*
X146722614Y-92525621D01*
X146650594Y-92583511D01*
X146584025Y-92636797D01*
X146448295Y-92745526D01*
X146330618Y-92840143D01*
X146229733Y-92921725D01*
X146144384Y-92991349D01*
X146073311Y-93050092D01*
X146015256Y-93099031D01*
X145968960Y-93139243D01*
X145933166Y-93171804D01*
X145906614Y-93197791D01*
X145888047Y-93218281D01*
X145876206Y-93234351D01*
X145869832Y-93247078D01*
X145869422Y-93248284D01*
X145865358Y-93286444D01*
X145871206Y-93341778D01*
X145886325Y-93411187D01*
X145910074Y-93491571D01*
X145933708Y-93558654D01*
X145946807Y-93596350D01*
X145954808Y-93625062D01*
X145956146Y-93639078D01*
X145955863Y-93639443D01*
X145946886Y-93632778D01*
X145927326Y-93610741D01*
X145900217Y-93576936D01*
X145873584Y-93541745D01*
X145757747Y-93396777D01*
X145639874Y-93273143D01*
X145518745Y-93170101D01*
X145393142Y-93086911D01*
X145261848Y-93022829D01*
X145123644Y-92977114D01*
X144977311Y-92949024D01*
X144886101Y-92940383D01*
X144829526Y-92938376D01*
X144778282Y-92940685D01*
X144722366Y-92948252D01*
X144651773Y-92962020D01*
X144647931Y-92962834D01*
X144512537Y-92991609D01*
X142052143Y-92991609D01*
X141171007Y-94013130D01*
X141055486Y-94146981D01*
X140944260Y-94275709D01*
X140838311Y-94398185D01*
X140738619Y-94513282D01*
X140646166Y-94619872D01*
X140561932Y-94716828D01*
X140486897Y-94803023D01*
X140422044Y-94877328D01*
X140368354Y-94938616D01*
X140326806Y-94985760D01*
X140298382Y-95017631D01*
X140284064Y-95033103D01*
X140282514Y-95034448D01*
X140273996Y-95025606D01*
X140251058Y-94999888D01*
X140214679Y-94958430D01*
X140165840Y-94902364D01*
X140105518Y-94832825D01*
X140034694Y-94750946D01*
X139954347Y-94657860D01*
X139865455Y-94554702D01*
X139768998Y-94442606D01*
X139665955Y-94322705D01*
X139557305Y-94196133D01*
X139444029Y-94064023D01*
X139402614Y-94015687D01*
X138530070Y-92997130D01*
X137058526Y-92994321D01*
X135586981Y-92991512D01*
X135241596Y-92705440D01*
X135162091Y-92639103D01*
X135088308Y-92576606D01*
X135022459Y-92519896D01*
X134966760Y-92470920D01*
X134923424Y-92431623D01*
X134894666Y-92403954D01*
X134882756Y-92389983D01*
X134875549Y-92356724D01*
X134877951Y-92330994D01*
X134887038Y-92313336D01*
X134907849Y-92279832D01*
X134938347Y-92233536D01*
X134976498Y-92177506D01*
X135020264Y-92114796D01*
X135048540Y-92075000D01*
X135104825Y-91995724D01*
X135166193Y-91908285D01*
X135228075Y-91819260D01*
X135285902Y-91735227D01*
X135335103Y-91662764D01*
X135340083Y-91655348D01*
X135397245Y-91572035D01*
X135445139Y-91506962D01*
X135485568Y-91458285D01*
X135520337Y-91424162D01*
X135551248Y-91402750D01*
X135580107Y-91392206D01*
X135599527Y-91390304D01*
X135625868Y-91393504D01*
X135671873Y-91402303D01*
X135731901Y-91415501D01*
X135800313Y-91431897D01*
X135829120Y-91439174D01*
X135948022Y-91469406D01*
X136071388Y-91500294D01*
X136196408Y-91531172D01*
X136320273Y-91561377D01*
X136440174Y-91590245D01*
X136553303Y-91617113D01*
X136656850Y-91641316D01*
X136748005Y-91662190D01*
X136823961Y-91679071D01*
X136881907Y-91691296D01*
X136919035Y-91698201D01*
X136930663Y-91699522D01*
X136951979Y-91696854D01*
X136976193Y-91687259D01*
X137007351Y-91668345D01*
X137049501Y-91637721D01*
X137094224Y-91602891D01*
X137182455Y-91532187D01*
X137252116Y-91473159D01*
X137304525Y-91422819D01*
X137341001Y-91378179D01*
X137362862Y-91336251D01*
X137371426Y-91294046D01*
X137368012Y-91248576D01*
X137353939Y-91196853D01*
X137330523Y-91135888D01*
X137315685Y-91100913D01*
X137298733Y-91059425D01*
X137275910Y-91000353D01*
X137248567Y-90927370D01*
X137218059Y-90844148D01*
X137188573Y-90762237D01*
X138295977Y-90762237D01*
X138307329Y-90826314D01*
X138338917Y-90885153D01*
X138386823Y-90933959D01*
X138447128Y-90967938D01*
X138470153Y-90975365D01*
X138480486Y-90978716D01*
X138488089Y-90984560D01*
X138493381Y-90995946D01*
X138496780Y-91015923D01*
X138498705Y-91047539D01*
X138499575Y-91093845D01*
X138499808Y-91157887D01*
X138499817Y-91191362D01*
X138499817Y-91399539D01*
X138865524Y-91695300D01*
X139231231Y-91991060D01*
X139231231Y-93090551D01*
X139180103Y-93112212D01*
X139110902Y-93152467D01*
X139060522Y-93204332D01*
X139029949Y-93263950D01*
X139020173Y-93327463D01*
X139032183Y-93391014D01*
X139066966Y-93450745D01*
X139087673Y-93472890D01*
X139153104Y-93519459D01*
X139228571Y-93547321D01*
X139309383Y-93555697D01*
X139390850Y-93543803D01*
X139430443Y-93529978D01*
X139499999Y-93489683D01*
X139549138Y-93438883D01*
X139577947Y-93381140D01*
X139586513Y-93320017D01*
X139574921Y-93259078D01*
X139543260Y-93201885D01*
X139491614Y-93152002D01*
X139420313Y-93113087D01*
X139351011Y-93085478D01*
X139350964Y-92516245D01*
X139350917Y-91947011D01*
X138621225Y-91362695D01*
X138620364Y-91178574D01*
X138619503Y-90994452D01*
X138667188Y-90981383D01*
X138740306Y-90950646D01*
X138797117Y-90905194D01*
X138835778Y-90848843D01*
X138854448Y-90785412D01*
X138851286Y-90718720D01*
X138825188Y-90653808D01*
X138778476Y-90596688D01*
X138720054Y-90556674D01*
X138653798Y-90532971D01*
X138583582Y-90524787D01*
X138513278Y-90531328D01*
X138446761Y-90551799D01*
X138387905Y-90585407D01*
X138340583Y-90631359D01*
X138308670Y-90688861D01*
X138296038Y-90757119D01*
X138295977Y-90762237D01*
X137188573Y-90762237D01*
X137185737Y-90754360D01*
X137152953Y-90661680D01*
X137135540Y-90611739D01*
X137099420Y-90507152D01*
X137070473Y-90421543D01*
X137048373Y-90352699D01*
X137032795Y-90298406D01*
X137023413Y-90256453D01*
X137019903Y-90224626D01*
X137021939Y-90200711D01*
X137029196Y-90182496D01*
X137041347Y-90167768D01*
X137058069Y-90154313D01*
X137067338Y-90147852D01*
X137087813Y-90136275D01*
X137128825Y-90115144D01*
X137187742Y-90085745D01*
X137261929Y-90049364D01*
X137348752Y-90007289D01*
X137445577Y-89960807D01*
X137549769Y-89911204D01*
X137611441Y-89882030D01*
X137738578Y-89822138D01*
X137844859Y-89772491D01*
X137932485Y-89732321D01*
X138003654Y-89700862D01*
X138060568Y-89677347D01*
X138105426Y-89661009D01*
X138140427Y-89651081D01*
X138167772Y-89646795D01*
X138189661Y-89647386D01*
X138208293Y-89652085D01*
X138225868Y-89660125D01*
X138234377Y-89664833D01*
X138251340Y-89677076D01*
X138284424Y-89703251D01*
X138331267Y-89741405D01*
X138389508Y-89789586D01*
X138456785Y-89845843D01*
X138530737Y-89908224D01*
X138598360Y-89965695D01*
X138715522Y-90065565D01*
X138815660Y-90150764D01*
X138900261Y-90222477D01*
X138970813Y-90281892D01*
X139028804Y-90330194D01*
X139075724Y-90368572D01*
X139113059Y-90398210D01*
X139142297Y-90420296D01*
X139164928Y-90436016D01*
X139182439Y-90446556D01*
X139196318Y-90453104D01*
X139208054Y-90456845D01*
X139216496Y-90458548D01*
X139244812Y-90464166D01*
X139250347Y-90471425D01*
X139236405Y-90486270D01*
X139233423Y-90488986D01*
X139191223Y-90542742D01*
X139168079Y-90606185D01*
X139165409Y-90672467D01*
X139183094Y-90731756D01*
X139206766Y-90765006D01*
X139242427Y-90800218D01*
X139282665Y-90831256D01*
X139320070Y-90851983D01*
X139333368Y-90856182D01*
X139364215Y-90862612D01*
X139364215Y-91576257D01*
X139882854Y-91999249D01*
X140401493Y-92422240D01*
X140401493Y-93270142D01*
X140401450Y-93428189D01*
X140401299Y-93565566D01*
X140401007Y-93683690D01*
X140400538Y-93783978D01*
X140399858Y-93867847D01*
X140398933Y-93936713D01*
X140397730Y-93991994D01*
X140396213Y-94035107D01*
X140394348Y-94067469D01*
X140392102Y-94090495D01*
X140389440Y-94105605D01*
X140386328Y-94114213D01*
X140382732Y-94117738D01*
X140381015Y-94118043D01*
X140349224Y-94124580D01*
X140307410Y-94141140D01*
X140265509Y-94163146D01*
X140233493Y-94185990D01*
X140184433Y-94245301D01*
X140157478Y-94311002D01*
X140153651Y-94378618D01*
X140173972Y-94443675D01*
X140174476Y-94444628D01*
X140221292Y-94511252D01*
X140280952Y-94558650D01*
X140354379Y-94587338D01*
X140442498Y-94597834D01*
X140448037Y-94597896D01*
X140533865Y-94588207D01*
X140608835Y-94559288D01*
X140670280Y-94512923D01*
X140715537Y-94450895D01*
X140733905Y-94406607D01*
X140740949Y-94343139D01*
X140725194Y-94279223D01*
X140689574Y-94220001D01*
X140637022Y-94170617D01*
X140582216Y-94140611D01*
X140521178Y-94116073D01*
X140521178Y-92380952D01*
X140002540Y-91956372D01*
X139483901Y-91531793D01*
X139483901Y-90875698D01*
X139531326Y-90861457D01*
X139594356Y-90833037D01*
X139651865Y-90790328D01*
X139694086Y-90740815D01*
X139698471Y-90733312D01*
X139720454Y-90668235D01*
X139718466Y-90602353D01*
X139694439Y-90539886D01*
X139650301Y-90485056D01*
X139587982Y-90442083D01*
X139559657Y-90429635D01*
X139509078Y-90410446D01*
X139565741Y-90402922D01*
X139663671Y-90379932D01*
X139746158Y-90338972D01*
X139813355Y-90279949D01*
X139850871Y-90228669D01*
X139865086Y-90199480D01*
X139883113Y-90153635D01*
X139903201Y-90096077D01*
X139923595Y-90031749D01*
X139936904Y-89986090D01*
X139953435Y-89927949D01*
X139974621Y-89854662D01*
X139999239Y-89770356D01*
X140026064Y-89679157D01*
X140053870Y-89585194D01*
X140081435Y-89492593D01*
X140107533Y-89405481D01*
X140130939Y-89327985D01*
X140150430Y-89264234D01*
X140163294Y-89223022D01*
X140176444Y-89181609D01*
X140401493Y-89181609D01*
X140401493Y-91307595D01*
G36*
X134854899Y-93289805D02*
G01*
X135104752Y-93289880D01*
X135330338Y-93290016D01*
X135532820Y-93290222D01*
X135713363Y-93290506D01*
X135873131Y-93290878D01*
X136013289Y-93291345D01*
X136135000Y-93291918D01*
X136239429Y-93292605D01*
X136327741Y-93293415D01*
X136401100Y-93294356D01*
X136460671Y-93295438D01*
X136507617Y-93296670D01*
X136543103Y-93298059D01*
X136568294Y-93299616D01*
X136584354Y-93301349D01*
X136592446Y-93303266D01*
X136593908Y-93305103D01*
X136584633Y-93316588D01*
X136560639Y-93343850D01*
X136523475Y-93385195D01*
X136474686Y-93438924D01*
X136415822Y-93503342D01*
X136348429Y-93576753D01*
X136274055Y-93657458D01*
X136194248Y-93743763D01*
X136165807Y-93774451D01*
X135744786Y-94228478D01*
X134195887Y-94228478D01*
X133931764Y-94228557D01*
X133693556Y-94228795D01*
X133480580Y-94229200D01*
X133292153Y-94229775D01*
X133127594Y-94230527D01*
X132986220Y-94231460D01*
X132867350Y-94232579D01*
X132770300Y-94233890D01*
X132694389Y-94235397D01*
X132638935Y-94237107D01*
X132603255Y-94239025D01*
X132588232Y-94240764D01*
X132524601Y-94262812D01*
X132479445Y-94296556D01*
X132454876Y-94338672D01*
X132453003Y-94385833D01*
X132470318Y-94426613D01*
X132477438Y-94438305D01*
X132483815Y-94448665D01*
X132491010Y-94457780D01*
X132500587Y-94465737D01*
X132514108Y-94472625D01*
X132533135Y-94478531D01*
X132559232Y-94483543D01*
X132593961Y-94487748D01*
X132638884Y-94491235D01*
X132695564Y-94494090D01*
X132765564Y-94496402D01*
X132850447Y-94498257D01*
X132951774Y-94499745D01*
X133071108Y-94500952D01*
X133210013Y-94501966D01*
X133370050Y-94502875D01*
X133552782Y-94503767D01*
X133759772Y-94504728D01*
X133871964Y-94505259D01*
X134094023Y-94506337D01*
X134291276Y-94507362D01*
X134465511Y-94508401D01*
X134618518Y-94509517D01*
X134752087Y-94510779D01*
X134868007Y-94512251D01*
X134968067Y-94513999D01*
X135054058Y-94516089D01*
X135127769Y-94518588D01*
X135190988Y-94521560D01*
X135245507Y-94525073D01*
X135293114Y-94529191D01*
X135335598Y-94533981D01*
X135374750Y-94539508D01*
X135412359Y-94545838D01*
X135450214Y-94553038D01*
X135490105Y-94561172D01*
X135511352Y-94565607D01*
X135716556Y-94617532D01*
X135907981Y-94684076D01*
X136083859Y-94764178D01*
X136242422Y-94856778D01*
X136381902Y-94960813D01*
X136500531Y-95075223D01*
X136596540Y-95198946D01*
X136614817Y-95227913D01*
X136670705Y-95341432D01*
X136710358Y-95467532D01*
X136733284Y-95600995D01*
X136738991Y-95736600D01*
X136726988Y-95869126D01*
X136696783Y-95993355D01*
X136689006Y-96015428D01*
X136625655Y-96149000D01*
X136538819Y-96274151D01*
X136430002Y-96390021D01*
X136300708Y-96495748D01*
X136152442Y-96590475D01*
X135986707Y-96673339D01*
X135805009Y-96743482D01*
X135608852Y-96800044D01*
X135399739Y-96842163D01*
X135199006Y-96867257D01*
X135169859Y-96868712D01*
X135116688Y-96870074D01*
X135041023Y-96871345D01*
X134944396Y-96872524D01*
X134828335Y-96873611D01*
X134694374Y-96874608D01*
X134544042Y-96875514D01*
X134378869Y-96876329D01*
X134200387Y-96877054D01*
X134010127Y-96877689D01*
X133809618Y-96878234D01*
X133600393Y-96878689D01*
X133383981Y-96879055D01*
X133161913Y-96879332D01*
X132935720Y-96879520D01*
X132706932Y-96879620D01*
X132477082Y-96879631D01*
X132247698Y-96879553D01*
X132020312Y-96879388D01*
X131796454Y-96879135D01*
X131577656Y-96878795D01*
X131365448Y-96878368D01*
X131161361Y-96877853D01*
X130966924Y-96877252D01*
X130783671Y-96876565D01*
X130613129Y-96875791D01*
X130456832Y-96874931D01*
X130316309Y-96873986D01*
X130193090Y-96872954D01*
X130088708Y-96871838D01*
X130004692Y-96870637D01*
X129942573Y-96869351D01*
X129903882Y-96867980D01*
X129890150Y-96866525D01*
X129890163Y-96866420D01*
X129899898Y-96855493D01*
X129924364Y-96828802D01*
X129961993Y-96788040D01*
X130011216Y-96734895D01*
X130070465Y-96671060D01*
X130138171Y-96598224D01*
X130212768Y-96518079D01*
X130292685Y-96432315D01*
X130317826Y-96405355D01*
X130736191Y-95956782D01*
X132885884Y-95951053D01*
X133169993Y-95950322D01*
X133428777Y-95949683D01*
X133663506Y-95949091D01*
X133875451Y-95948504D01*
X134065884Y-95947876D01*
X134236075Y-95947163D01*
X134387294Y-95946322D01*
X134520813Y-95945308D01*
X134637903Y-95944077D01*
X134739834Y-95942586D01*
X134827877Y-95940788D01*
X134903304Y-95938642D01*
X134967384Y-95936102D01*
X135021390Y-95933125D01*
X135066591Y-95929665D01*
X135104259Y-95925680D01*
X135135664Y-95921125D01*
X135162078Y-95915956D01*
X135184771Y-95910128D01*
X135205014Y-95903598D01*
X135224078Y-95896321D01*
X135243234Y-95888254D01*
X135263752Y-95879351D01*
X135286904Y-95869570D01*
X135292005Y-95867487D01*
X135371963Y-95826642D01*
X135427267Y-95780346D01*
X135458329Y-95730539D01*
X135465559Y-95679161D01*
X135449366Y-95628151D01*
X135410163Y-95579450D01*
X135348358Y-95534998D01*
X135264362Y-95496735D01*
X135209885Y-95479318D01*
X135102068Y-95449148D01*
X133745629Y-95442705D01*
X133519140Y-95441630D01*
X133317492Y-95440632D01*
X133138932Y-95439640D01*
X132981703Y-95438580D01*
X132844052Y-95437381D01*
X132724223Y-95435970D01*
X132620462Y-95434276D01*
X132531014Y-95432225D01*
X132454125Y-95429746D01*
X132388039Y-95426767D01*
X132331001Y-95423215D01*
X132281258Y-95419017D01*
X132237054Y-95414103D01*
X132196635Y-95408399D01*
X132158245Y-95401834D01*
X132120131Y-95394334D01*
X132080537Y-95385829D01*
X132037709Y-95376245D01*
X132016833Y-95371543D01*
X131828877Y-95320716D01*
X131653646Y-95256199D01*
X131493284Y-95179315D01*
X131349934Y-95091389D01*
X131225743Y-94993743D01*
X131122852Y-94887702D01*
X131043407Y-94774589D01*
X131039897Y-94768432D01*
X130998322Y-94685794D01*
X130969520Y-94605567D01*
X130951876Y-94521064D01*
X130943773Y-94425597D01*
X130942798Y-94366522D01*
X130946840Y-94260972D01*
X130959594Y-94170145D01*
X130982644Y-94087481D01*
X131017573Y-94006425D01*
X131039897Y-93964611D01*
X131117957Y-93851315D01*
X131219444Y-93745130D01*
X131342138Y-93647315D01*
X131483820Y-93559129D01*
X131642270Y-93481831D01*
X131815268Y-93416680D01*
X132000596Y-93364934D01*
X132149817Y-93335099D01*
X132185945Y-93329194D01*
X132221114Y-93323825D01*
X132256688Y-93318967D01*
X132294030Y-93314593D01*
X132334506Y-93310679D01*
X132379479Y-93307199D01*
X132430314Y-93304128D01*
X132488375Y-93301440D01*
X132555026Y-93299109D01*
X132631631Y-93297111D01*
X132719555Y-93295420D01*
X132820161Y-93294009D01*
X132934814Y-93292855D01*
X133064878Y-93291932D01*
X133211718Y-93291213D01*
X133376697Y-93290674D01*
X133561180Y-93290289D01*
X133766530Y-93290033D01*
X133994113Y-93289880D01*
X134245293Y-93289805D01*
X134521432Y-93289783D01*
X134579612Y-93289782D01*
X134854899Y-93289805D01*
G37*
X134854899Y-93289805D02*
X135104752Y-93289880D01*
X135330338Y-93290016D01*
X135532820Y-93290222D01*
X135713363Y-93290506D01*
X135873131Y-93290878D01*
X136013289Y-93291345D01*
X136135000Y-93291918D01*
X136239429Y-93292605D01*
X136327741Y-93293415D01*
X136401100Y-93294356D01*
X136460671Y-93295438D01*
X136507617Y-93296670D01*
X136543103Y-93298059D01*
X136568294Y-93299616D01*
X136584354Y-93301349D01*
X136592446Y-93303266D01*
X136593908Y-93305103D01*
X136584633Y-93316588D01*
X136560639Y-93343850D01*
X136523475Y-93385195D01*
X136474686Y-93438924D01*
X136415822Y-93503342D01*
X136348429Y-93576753D01*
X136274055Y-93657458D01*
X136194248Y-93743763D01*
X136165807Y-93774451D01*
X135744786Y-94228478D01*
X134195887Y-94228478D01*
X133931764Y-94228557D01*
X133693556Y-94228795D01*
X133480580Y-94229200D01*
X133292153Y-94229775D01*
X133127594Y-94230527D01*
X132986220Y-94231460D01*
X132867350Y-94232579D01*
X132770300Y-94233890D01*
X132694389Y-94235397D01*
X132638935Y-94237107D01*
X132603255Y-94239025D01*
X132588232Y-94240764D01*
X132524601Y-94262812D01*
X132479445Y-94296556D01*
X132454876Y-94338672D01*
X132453003Y-94385833D01*
X132470318Y-94426613D01*
X132477438Y-94438305D01*
X132483815Y-94448665D01*
X132491010Y-94457780D01*
X132500587Y-94465737D01*
X132514108Y-94472625D01*
X132533135Y-94478531D01*
X132559232Y-94483543D01*
X132593961Y-94487748D01*
X132638884Y-94491235D01*
X132695564Y-94494090D01*
X132765564Y-94496402D01*
X132850447Y-94498257D01*
X132951774Y-94499745D01*
X133071108Y-94500952D01*
X133210013Y-94501966D01*
X133370050Y-94502875D01*
X133552782Y-94503767D01*
X133759772Y-94504728D01*
X133871964Y-94505259D01*
X134094023Y-94506337D01*
X134291276Y-94507362D01*
X134465511Y-94508401D01*
X134618518Y-94509517D01*
X134752087Y-94510779D01*
X134868007Y-94512251D01*
X134968067Y-94513999D01*
X135054058Y-94516089D01*
X135127769Y-94518588D01*
X135190988Y-94521560D01*
X135245507Y-94525073D01*
X135293114Y-94529191D01*
X135335598Y-94533981D01*
X135374750Y-94539508D01*
X135412359Y-94545838D01*
X135450214Y-94553038D01*
X135490105Y-94561172D01*
X135511352Y-94565607D01*
X135716556Y-94617532D01*
X135907981Y-94684076D01*
X136083859Y-94764178D01*
X136242422Y-94856778D01*
X136381902Y-94960813D01*
X136500531Y-95075223D01*
X136596540Y-95198946D01*
X136614817Y-95227913D01*
X136670705Y-95341432D01*
X136710358Y-95467532D01*
X136733284Y-95600995D01*
X136738991Y-95736600D01*
X136726988Y-95869126D01*
X136696783Y-95993355D01*
X136689006Y-96015428D01*
X136625655Y-96149000D01*
X136538819Y-96274151D01*
X136430002Y-96390021D01*
X136300708Y-96495748D01*
X136152442Y-96590475D01*
X135986707Y-96673339D01*
X135805009Y-96743482D01*
X135608852Y-96800044D01*
X135399739Y-96842163D01*
X135199006Y-96867257D01*
X135169859Y-96868712D01*
X135116688Y-96870074D01*
X135041023Y-96871345D01*
X134944396Y-96872524D01*
X134828335Y-96873611D01*
X134694374Y-96874608D01*
X134544042Y-96875514D01*
X134378869Y-96876329D01*
X134200387Y-96877054D01*
X134010127Y-96877689D01*
X133809618Y-96878234D01*
X133600393Y-96878689D01*
X133383981Y-96879055D01*
X133161913Y-96879332D01*
X132935720Y-96879520D01*
X132706932Y-96879620D01*
X132477082Y-96879631D01*
X132247698Y-96879553D01*
X132020312Y-96879388D01*
X131796454Y-96879135D01*
X131577656Y-96878795D01*
X131365448Y-96878368D01*
X131161361Y-96877853D01*
X130966924Y-96877252D01*
X130783671Y-96876565D01*
X130613129Y-96875791D01*
X130456832Y-96874931D01*
X130316309Y-96873986D01*
X130193090Y-96872954D01*
X130088708Y-96871838D01*
X130004692Y-96870637D01*
X129942573Y-96869351D01*
X129903882Y-96867980D01*
X129890150Y-96866525D01*
X129890163Y-96866420D01*
X129899898Y-96855493D01*
X129924364Y-96828802D01*
X129961993Y-96788040D01*
X130011216Y-96734895D01*
X130070465Y-96671060D01*
X130138171Y-96598224D01*
X130212768Y-96518079D01*
X130292685Y-96432315D01*
X130317826Y-96405355D01*
X130736191Y-95956782D01*
X132885884Y-95951053D01*
X133169993Y-95950322D01*
X133428777Y-95949683D01*
X133663506Y-95949091D01*
X133875451Y-95948504D01*
X134065884Y-95947876D01*
X134236075Y-95947163D01*
X134387294Y-95946322D01*
X134520813Y-95945308D01*
X134637903Y-95944077D01*
X134739834Y-95942586D01*
X134827877Y-95940788D01*
X134903304Y-95938642D01*
X134967384Y-95936102D01*
X135021390Y-95933125D01*
X135066591Y-95929665D01*
X135104259Y-95925680D01*
X135135664Y-95921125D01*
X135162078Y-95915956D01*
X135184771Y-95910128D01*
X135205014Y-95903598D01*
X135224078Y-95896321D01*
X135243234Y-95888254D01*
X135263752Y-95879351D01*
X135286904Y-95869570D01*
X135292005Y-95867487D01*
X135371963Y-95826642D01*
X135427267Y-95780346D01*
X135458329Y-95730539D01*
X135465559Y-95679161D01*
X135449366Y-95628151D01*
X135410163Y-95579450D01*
X135348358Y-95534998D01*
X135264362Y-95496735D01*
X135209885Y-95479318D01*
X135102068Y-95449148D01*
X133745629Y-95442705D01*
X133519140Y-95441630D01*
X133317492Y-95440632D01*
X133138932Y-95439640D01*
X132981703Y-95438580D01*
X132844052Y-95437381D01*
X132724223Y-95435970D01*
X132620462Y-95434276D01*
X132531014Y-95432225D01*
X132454125Y-95429746D01*
X132388039Y-95426767D01*
X132331001Y-95423215D01*
X132281258Y-95419017D01*
X132237054Y-95414103D01*
X132196635Y-95408399D01*
X132158245Y-95401834D01*
X132120131Y-95394334D01*
X132080537Y-95385829D01*
X132037709Y-95376245D01*
X132016833Y-95371543D01*
X131828877Y-95320716D01*
X131653646Y-95256199D01*
X131493284Y-95179315D01*
X131349934Y-95091389D01*
X131225743Y-94993743D01*
X131122852Y-94887702D01*
X131043407Y-94774589D01*
X131039897Y-94768432D01*
X130998322Y-94685794D01*
X130969520Y-94605567D01*
X130951876Y-94521064D01*
X130943773Y-94425597D01*
X130942798Y-94366522D01*
X130946840Y-94260972D01*
X130959594Y-94170145D01*
X130982644Y-94087481D01*
X131017573Y-94006425D01*
X131039897Y-93964611D01*
X131117957Y-93851315D01*
X131219444Y-93745130D01*
X131342138Y-93647315D01*
X131483820Y-93559129D01*
X131642270Y-93481831D01*
X131815268Y-93416680D01*
X132000596Y-93364934D01*
X132149817Y-93335099D01*
X132185945Y-93329194D01*
X132221114Y-93323825D01*
X132256688Y-93318967D01*
X132294030Y-93314593D01*
X132334506Y-93310679D01*
X132379479Y-93307199D01*
X132430314Y-93304128D01*
X132488375Y-93301440D01*
X132555026Y-93299109D01*
X132631631Y-93297111D01*
X132719555Y-93295420D01*
X132820161Y-93294009D01*
X132934814Y-93292855D01*
X133064878Y-93291932D01*
X133211718Y-93291213D01*
X133376697Y-93290674D01*
X133561180Y-93290289D01*
X133766530Y-93290033D01*
X133994113Y-93289880D01*
X134245293Y-93289805D01*
X134521432Y-93289783D01*
X134579612Y-93289782D01*
X134854899Y-93289805D01*
G36*
X149079869Y-93250171D02*
G01*
X149168743Y-93262497D01*
X149256592Y-93280542D01*
X149332085Y-93302264D01*
X149347922Y-93308116D01*
X149464086Y-93364527D01*
X149568493Y-93436597D01*
X149656392Y-93520450D01*
X149723031Y-93612213D01*
X149724945Y-93615565D01*
X149733053Y-93633909D01*
X149748086Y-93672208D01*
X149769589Y-93729198D01*
X149797109Y-93803615D01*
X149830191Y-93894193D01*
X149868383Y-93999669D01*
X149911229Y-94118777D01*
X149958276Y-94250253D01*
X150009070Y-94392833D01*
X150063157Y-94545252D01*
X150120083Y-94706245D01*
X150179395Y-94874548D01*
X150240637Y-95048896D01*
X150288297Y-95184960D01*
X150361171Y-95393280D01*
X150426981Y-95581489D01*
X150486088Y-95750685D01*
X150538851Y-95901967D01*
X150585630Y-96036433D01*
X150626786Y-96155182D01*
X150662679Y-96259312D01*
X150693668Y-96349920D01*
X150720115Y-96428107D01*
X150742378Y-96494969D01*
X150760818Y-96551605D01*
X150775795Y-96599113D01*
X150787669Y-96638593D01*
X150796800Y-96671141D01*
X150803548Y-96697857D01*
X150808274Y-96719839D01*
X150811337Y-96738185D01*
X150813098Y-96753993D01*
X150813915Y-96768362D01*
X150814151Y-96782390D01*
X150814163Y-96789026D01*
X150814163Y-96889956D01*
X149405036Y-96889956D01*
X149395756Y-96859587D01*
X149391175Y-96844443D01*
X149380632Y-96809501D01*
X149364617Y-96756387D01*
X149343622Y-96686729D01*
X149318135Y-96602156D01*
X149288649Y-96504295D01*
X149255653Y-96394774D01*
X149219637Y-96275221D01*
X149181094Y-96147264D01*
X149140512Y-96012530D01*
X149112885Y-95920800D01*
X148839293Y-95012383D01*
X148227592Y-95832452D01*
X148120106Y-95976487D01*
X148025550Y-96103009D01*
X147942899Y-96213312D01*
X147871134Y-96308689D01*
X147809232Y-96390433D01*
X147756171Y-96459837D01*
X147710930Y-96518194D01*
X147672486Y-96566797D01*
X147639819Y-96606938D01*
X147611906Y-96639912D01*
X147587726Y-96667010D01*
X147566256Y-96689527D01*
X147546476Y-96708754D01*
X147527363Y-96725985D01*
X147509503Y-96741176D01*
X147428685Y-96802743D01*
X147351130Y-96848231D01*
X147268869Y-96881579D01*
X147175299Y-96906435D01*
X147116329Y-96915010D01*
X147040849Y-96920111D01*
X146958644Y-96921597D01*
X146879498Y-96919323D01*
X146813194Y-96913149D01*
X146804686Y-96911832D01*
X146742053Y-96897973D01*
X146667429Y-96876352D01*
X146591692Y-96850485D01*
X146525719Y-96823889D01*
X146509976Y-96816546D01*
X146469540Y-96793868D01*
X146420127Y-96761900D01*
X146371509Y-96727013D01*
X146365062Y-96722057D01*
X146349016Y-96708830D01*
X146331446Y-96692578D01*
X146311381Y-96672075D01*
X146287848Y-96646092D01*
X146259877Y-96613402D01*
X146226495Y-96572777D01*
X146186732Y-96522990D01*
X146139616Y-96462812D01*
X146084174Y-96391017D01*
X146019436Y-96306375D01*
X145944431Y-96207661D01*
X145858186Y-96093646D01*
X145759729Y-95963102D01*
X145667376Y-95840435D01*
X145575555Y-95718576D01*
X145487723Y-95602345D01*
X145404900Y-95493072D01*
X145328107Y-95392090D01*
X145258365Y-95300730D01*
X145196696Y-95220323D01*
X145144119Y-95152201D01*
X145101656Y-95097696D01*
X145070327Y-95058139D01*
X145051154Y-95034861D01*
X145045168Y-95028875D01*
X145040984Y-95040243D01*
X145030923Y-95071500D01*
X145015458Y-95121087D01*
X144995062Y-95187444D01*
X144970206Y-95269013D01*
X144941364Y-95364234D01*
X144909008Y-95471547D01*
X144873611Y-95589394D01*
X144835645Y-95716214D01*
X144795583Y-95850450D01*
X144763092Y-95959607D01*
X144488126Y-96884435D01*
X143748055Y-96887288D01*
X143576189Y-96887817D01*
X143429663Y-96887965D01*
X143307228Y-96887716D01*
X143207632Y-96887055D01*
X143129623Y-96885966D01*
X143071950Y-96884432D01*
X143033360Y-96882436D01*
X143012603Y-96879964D01*
X143007985Y-96877753D01*
X143011647Y-96865911D01*
X143022361Y-96834038D01*
X143039719Y-96783306D01*
X143063313Y-96714884D01*
X143092736Y-96629942D01*
X143127580Y-96529650D01*
X143167436Y-96415179D01*
X143211897Y-96287698D01*
X143260555Y-96148379D01*
X143313002Y-95998390D01*
X143368831Y-95838903D01*
X143427633Y-95671087D01*
X143489000Y-95496113D01*
X143552525Y-95315150D01*
X143567121Y-95273595D01*
X143656637Y-95019109D01*
X143738957Y-94785816D01*
X143814106Y-94573649D01*
X143882106Y-94382543D01*
X143942981Y-94212432D01*
X143996755Y-94063251D01*
X144043453Y-93934933D01*
X144083097Y-93827414D01*
X144115712Y-93740628D01*
X144141321Y-93674509D01*
X144159948Y-93628991D01*
X144171616Y-93604009D01*
X144172234Y-93602923D01*
X144238007Y-93511659D01*
X144323105Y-93432088D01*
X144430632Y-93361328D01*
X144435355Y-93358689D01*
X144537414Y-93309472D01*
X144640038Y-93276461D01*
X144750811Y-93257817D01*
X144876414Y-93251704D01*
X145002903Y-93257498D01*
X145115087Y-93277151D01*
X145218060Y-93312475D01*
X145316913Y-93365280D01*
X145416738Y-93437381D01*
X145430999Y-93449049D01*
X145449743Y-93464680D01*
X145467295Y-93479776D01*
X145484542Y-93495479D01*
X145502373Y-93512931D01*
X145521677Y-93533274D01*
X145543342Y-93557653D01*
X145568257Y-93587208D01*
X145597311Y-93623082D01*
X145631393Y-93666419D01*
X145671391Y-93718360D01*
X145718193Y-93780047D01*
X145772690Y-93852624D01*
X145835768Y-93937233D01*
X145908317Y-94035016D01*
X145991225Y-94147116D01*
X146085382Y-94274675D01*
X146191676Y-94418836D01*
X146305995Y-94573956D01*
X146420399Y-94729021D01*
X146521731Y-94865963D01*
X146610615Y-94985593D01*
X146687673Y-95088723D01*
X146753525Y-95176166D01*
X146808795Y-95248733D01*
X146854104Y-95307235D01*
X146890074Y-95352485D01*
X146917328Y-95385294D01*
X146936486Y-95406475D01*
X146948172Y-95416838D01*
X146952566Y-95417879D01*
X146961526Y-95406748D01*
X146983406Y-95378105D01*
X147017221Y-95333270D01*
X147061989Y-95273561D01*
X147116728Y-95200298D01*
X147180455Y-95114800D01*
X147252187Y-95018385D01*
X147330941Y-94912371D01*
X147415735Y-94798079D01*
X147505585Y-94676827D01*
X147599510Y-94549933D01*
X147628983Y-94510087D01*
X147724944Y-94380455D01*
X147817859Y-94255189D01*
X147906670Y-94135701D01*
X147990316Y-94023406D01*
X148067740Y-93919716D01*
X148137881Y-93826047D01*
X148199682Y-93743811D01*
X148252083Y-93674421D01*
X148294025Y-93619293D01*
X148324450Y-93579838D01*
X148342297Y-93557471D01*
X148344572Y-93554826D01*
X148447583Y-93454153D01*
X148559944Y-93372465D01*
X148680248Y-93310425D01*
X148807088Y-93268694D01*
X148939060Y-93247934D01*
X149001303Y-93245609D01*
X149079869Y-93250171D01*
G37*
X149079869Y-93250171D02*
X149168743Y-93262497D01*
X149256592Y-93280542D01*
X149332085Y-93302264D01*
X149347922Y-93308116D01*
X149464086Y-93364527D01*
X149568493Y-93436597D01*
X149656392Y-93520450D01*
X149723031Y-93612213D01*
X149724945Y-93615565D01*
X149733053Y-93633909D01*
X149748086Y-93672208D01*
X149769589Y-93729198D01*
X149797109Y-93803615D01*
X149830191Y-93894193D01*
X149868383Y-93999669D01*
X149911229Y-94118777D01*
X149958276Y-94250253D01*
X150009070Y-94392833D01*
X150063157Y-94545252D01*
X150120083Y-94706245D01*
X150179395Y-94874548D01*
X150240637Y-95048896D01*
X150288297Y-95184960D01*
X150361171Y-95393280D01*
X150426981Y-95581489D01*
X150486088Y-95750685D01*
X150538851Y-95901967D01*
X150585630Y-96036433D01*
X150626786Y-96155182D01*
X150662679Y-96259312D01*
X150693668Y-96349920D01*
X150720115Y-96428107D01*
X150742378Y-96494969D01*
X150760818Y-96551605D01*
X150775795Y-96599113D01*
X150787669Y-96638593D01*
X150796800Y-96671141D01*
X150803548Y-96697857D01*
X150808274Y-96719839D01*
X150811337Y-96738185D01*
X150813098Y-96753993D01*
X150813915Y-96768362D01*
X150814151Y-96782390D01*
X150814163Y-96789026D01*
X150814163Y-96889956D01*
X149405036Y-96889956D01*
X149395756Y-96859587D01*
X149391175Y-96844443D01*
X149380632Y-96809501D01*
X149364617Y-96756387D01*
X149343622Y-96686729D01*
X149318135Y-96602156D01*
X149288649Y-96504295D01*
X149255653Y-96394774D01*
X149219637Y-96275221D01*
X149181094Y-96147264D01*
X149140512Y-96012530D01*
X149112885Y-95920800D01*
X148839293Y-95012383D01*
X148227592Y-95832452D01*
X148120106Y-95976487D01*
X148025550Y-96103009D01*
X147942899Y-96213312D01*
X147871134Y-96308689D01*
X147809232Y-96390433D01*
X147756171Y-96459837D01*
X147710930Y-96518194D01*
X147672486Y-96566797D01*
X147639819Y-96606938D01*
X147611906Y-96639912D01*
X147587726Y-96667010D01*
X147566256Y-96689527D01*
X147546476Y-96708754D01*
X147527363Y-96725985D01*
X147509503Y-96741176D01*
X147428685Y-96802743D01*
X147351130Y-96848231D01*
X147268869Y-96881579D01*
X147175299Y-96906435D01*
X147116329Y-96915010D01*
X147040849Y-96920111D01*
X146958644Y-96921597D01*
X146879498Y-96919323D01*
X146813194Y-96913149D01*
X146804686Y-96911832D01*
X146742053Y-96897973D01*
X146667429Y-96876352D01*
X146591692Y-96850485D01*
X146525719Y-96823889D01*
X146509976Y-96816546D01*
X146469540Y-96793868D01*
X146420127Y-96761900D01*
X146371509Y-96727013D01*
X146365062Y-96722057D01*
X146349016Y-96708830D01*
X146331446Y-96692578D01*
X146311381Y-96672075D01*
X146287848Y-96646092D01*
X146259877Y-96613402D01*
X146226495Y-96572777D01*
X146186732Y-96522990D01*
X146139616Y-96462812D01*
X146084174Y-96391017D01*
X146019436Y-96306375D01*
X145944431Y-96207661D01*
X145858186Y-96093646D01*
X145759729Y-95963102D01*
X145667376Y-95840435D01*
X145575555Y-95718576D01*
X145487723Y-95602345D01*
X145404900Y-95493072D01*
X145328107Y-95392090D01*
X145258365Y-95300730D01*
X145196696Y-95220323D01*
X145144119Y-95152201D01*
X145101656Y-95097696D01*
X145070327Y-95058139D01*
X145051154Y-95034861D01*
X145045168Y-95028875D01*
X145040984Y-95040243D01*
X145030923Y-95071500D01*
X145015458Y-95121087D01*
X144995062Y-95187444D01*
X144970206Y-95269013D01*
X144941364Y-95364234D01*
X144909008Y-95471547D01*
X144873611Y-95589394D01*
X144835645Y-95716214D01*
X144795583Y-95850450D01*
X144763092Y-95959607D01*
X144488126Y-96884435D01*
X143748055Y-96887288D01*
X143576189Y-96887817D01*
X143429663Y-96887965D01*
X143307228Y-96887716D01*
X143207632Y-96887055D01*
X143129623Y-96885966D01*
X143071950Y-96884432D01*
X143033360Y-96882436D01*
X143012603Y-96879964D01*
X143007985Y-96877753D01*
X143011647Y-96865911D01*
X143022361Y-96834038D01*
X143039719Y-96783306D01*
X143063313Y-96714884D01*
X143092736Y-96629942D01*
X143127580Y-96529650D01*
X143167436Y-96415179D01*
X143211897Y-96287698D01*
X143260555Y-96148379D01*
X143313002Y-95998390D01*
X143368831Y-95838903D01*
X143427633Y-95671087D01*
X143489000Y-95496113D01*
X143552525Y-95315150D01*
X143567121Y-95273595D01*
X143656637Y-95019109D01*
X143738957Y-94785816D01*
X143814106Y-94573649D01*
X143882106Y-94382543D01*
X143942981Y-94212432D01*
X143996755Y-94063251D01*
X144043453Y-93934933D01*
X144083097Y-93827414D01*
X144115712Y-93740628D01*
X144141321Y-93674509D01*
X144159948Y-93628991D01*
X144171616Y-93604009D01*
X144172234Y-93602923D01*
X144238007Y-93511659D01*
X144323105Y-93432088D01*
X144430632Y-93361328D01*
X144435355Y-93358689D01*
X144537414Y-93309472D01*
X144640038Y-93276461D01*
X144750811Y-93257817D01*
X144876414Y-93251704D01*
X145002903Y-93257498D01*
X145115087Y-93277151D01*
X145218060Y-93312475D01*
X145316913Y-93365280D01*
X145416738Y-93437381D01*
X145430999Y-93449049D01*
X145449743Y-93464680D01*
X145467295Y-93479776D01*
X145484542Y-93495479D01*
X145502373Y-93512931D01*
X145521677Y-93533274D01*
X145543342Y-93557653D01*
X145568257Y-93587208D01*
X145597311Y-93623082D01*
X145631393Y-93666419D01*
X145671391Y-93718360D01*
X145718193Y-93780047D01*
X145772690Y-93852624D01*
X145835768Y-93937233D01*
X145908317Y-94035016D01*
X145991225Y-94147116D01*
X146085382Y-94274675D01*
X146191676Y-94418836D01*
X146305995Y-94573956D01*
X146420399Y-94729021D01*
X146521731Y-94865963D01*
X146610615Y-94985593D01*
X146687673Y-95088723D01*
X146753525Y-95176166D01*
X146808795Y-95248733D01*
X146854104Y-95307235D01*
X146890074Y-95352485D01*
X146917328Y-95385294D01*
X146936486Y-95406475D01*
X146948172Y-95416838D01*
X146952566Y-95417879D01*
X146961526Y-95406748D01*
X146983406Y-95378105D01*
X147017221Y-95333270D01*
X147061989Y-95273561D01*
X147116728Y-95200298D01*
X147180455Y-95114800D01*
X147252187Y-95018385D01*
X147330941Y-94912371D01*
X147415735Y-94798079D01*
X147505585Y-94676827D01*
X147599510Y-94549933D01*
X147628983Y-94510087D01*
X147724944Y-94380455D01*
X147817859Y-94255189D01*
X147906670Y-94135701D01*
X147990316Y-94023406D01*
X148067740Y-93919716D01*
X148137881Y-93826047D01*
X148199682Y-93743811D01*
X148252083Y-93674421D01*
X148294025Y-93619293D01*
X148324450Y-93579838D01*
X148342297Y-93557471D01*
X148344572Y-93554826D01*
X148447583Y-93454153D01*
X148559944Y-93372465D01*
X148680248Y-93310425D01*
X148807088Y-93268694D01*
X148939060Y-93247934D01*
X149001303Y-93245609D01*
X149079869Y-93250171D01*
G36*
X143949910Y-93325674D02*
G01*
X143931007Y-93347313D01*
X143897505Y-93385115D01*
X143850384Y-93437990D01*
X143790626Y-93504849D01*
X143719212Y-93584604D01*
X143637122Y-93676166D01*
X143545338Y-93778445D01*
X143444841Y-93890354D01*
X143336611Y-94010802D01*
X143221631Y-94138701D01*
X143100881Y-94272962D01*
X142975341Y-94412496D01*
X142845994Y-94556214D01*
X142713820Y-94703028D01*
X142579801Y-94851848D01*
X142444916Y-95001585D01*
X142310148Y-95151151D01*
X142176478Y-95299456D01*
X142044886Y-95445412D01*
X141916353Y-95587930D01*
X141791861Y-95725921D01*
X141672391Y-95858295D01*
X141558924Y-95983965D01*
X141452440Y-96101840D01*
X141353921Y-96210833D01*
X141264348Y-96309854D01*
X141184702Y-96397814D01*
X141115964Y-96473624D01*
X141059115Y-96536196D01*
X141015137Y-96584440D01*
X140985009Y-96617268D01*
X140969714Y-96633591D01*
X140969054Y-96634258D01*
X140903303Y-96693915D01*
X140827452Y-96753229D01*
X140748372Y-96807394D01*
X140672931Y-96851608D01*
X140626410Y-96873878D01*
X140509195Y-96912126D01*
X140387772Y-96931105D01*
X140266953Y-96930463D01*
X140151549Y-96909849D01*
X140148054Y-96908871D01*
X140054026Y-96877116D01*
X139966968Y-96835957D01*
X139880739Y-96781996D01*
X139789199Y-96711837D01*
X139783648Y-96707241D01*
X139766313Y-96692168D01*
X139745496Y-96672734D01*
X139720520Y-96648182D01*
X139690707Y-96617759D01*
X139655381Y-96580708D01*
X139613864Y-96536274D01*
X139565480Y-96483703D01*
X139509552Y-96422239D01*
X139445402Y-96351126D01*
X139372354Y-96269610D01*
X139289731Y-96176935D01*
X139196855Y-96072346D01*
X139093050Y-95955088D01*
X138977639Y-95824404D01*
X138849945Y-95679542D01*
X138709291Y-95519744D01*
X138555000Y-95344255D01*
X138386394Y-95152321D01*
X138220550Y-94963414D01*
X138071253Y-94793297D01*
X137926108Y-94627885D01*
X137785896Y-94468066D01*
X137651399Y-94314732D01*
X137523395Y-94168773D01*
X137402667Y-94031081D01*
X137289995Y-93902546D01*
X137186158Y-93784059D01*
X137091939Y-93676511D01*
X137008116Y-93580792D01*
X136935472Y-93497794D01*
X136874785Y-93428407D01*
X136826838Y-93373522D01*
X136792411Y-93334030D01*
X136772283Y-93310821D01*
X136767036Y-93304629D01*
X136768450Y-93301566D01*
X136778573Y-93298943D01*
X136799146Y-93296730D01*
X136831911Y-93294896D01*
X136878611Y-93293412D01*
X136940987Y-93292247D01*
X137020782Y-93291371D01*
X137119737Y-93290753D01*
X137239595Y-93290363D01*
X137382097Y-93290171D01*
X137548985Y-93290147D01*
X137598188Y-93290165D01*
X138439974Y-93290548D01*
X139317671Y-94301667D01*
X139434980Y-94436803D01*
X139549114Y-94568268D01*
X139658970Y-94694792D01*
X139763444Y-94815106D01*
X139861433Y-94927939D01*
X139951835Y-95032021D01*
X140033545Y-95126082D01*
X140105461Y-95208853D01*
X140166479Y-95279063D01*
X140215496Y-95335442D01*
X140251409Y-95376719D01*
X140273115Y-95401626D01*
X140275853Y-95404759D01*
X140356340Y-95496730D01*
X142283220Y-93290916D01*
X143131901Y-93290349D01*
X143980581Y-93289782D01*
X143949910Y-93325674D01*
G37*
X143949910Y-93325674D02*
X143931007Y-93347313D01*
X143897505Y-93385115D01*
X143850384Y-93437990D01*
X143790626Y-93504849D01*
X143719212Y-93584604D01*
X143637122Y-93676166D01*
X143545338Y-93778445D01*
X143444841Y-93890354D01*
X143336611Y-94010802D01*
X143221631Y-94138701D01*
X143100881Y-94272962D01*
X142975341Y-94412496D01*
X142845994Y-94556214D01*
X142713820Y-94703028D01*
X142579801Y-94851848D01*
X142444916Y-95001585D01*
X142310148Y-95151151D01*
X142176478Y-95299456D01*
X142044886Y-95445412D01*
X141916353Y-95587930D01*
X141791861Y-95725921D01*
X141672391Y-95858295D01*
X141558924Y-95983965D01*
X141452440Y-96101840D01*
X141353921Y-96210833D01*
X141264348Y-96309854D01*
X141184702Y-96397814D01*
X141115964Y-96473624D01*
X141059115Y-96536196D01*
X141015137Y-96584440D01*
X140985009Y-96617268D01*
X140969714Y-96633591D01*
X140969054Y-96634258D01*
X140903303Y-96693915D01*
X140827452Y-96753229D01*
X140748372Y-96807394D01*
X140672931Y-96851608D01*
X140626410Y-96873878D01*
X140509195Y-96912126D01*
X140387772Y-96931105D01*
X140266953Y-96930463D01*
X140151549Y-96909849D01*
X140148054Y-96908871D01*
X140054026Y-96877116D01*
X139966968Y-96835957D01*
X139880739Y-96781996D01*
X139789199Y-96711837D01*
X139783648Y-96707241D01*
X139766313Y-96692168D01*
X139745496Y-96672734D01*
X139720520Y-96648182D01*
X139690707Y-96617759D01*
X139655381Y-96580708D01*
X139613864Y-96536274D01*
X139565480Y-96483703D01*
X139509552Y-96422239D01*
X139445402Y-96351126D01*
X139372354Y-96269610D01*
X139289731Y-96176935D01*
X139196855Y-96072346D01*
X139093050Y-95955088D01*
X138977639Y-95824404D01*
X138849945Y-95679542D01*
X138709291Y-95519744D01*
X138555000Y-95344255D01*
X138386394Y-95152321D01*
X138220550Y-94963414D01*
X138071253Y-94793297D01*
X137926108Y-94627885D01*
X137785896Y-94468066D01*
X137651399Y-94314732D01*
X137523395Y-94168773D01*
X137402667Y-94031081D01*
X137289995Y-93902546D01*
X137186158Y-93784059D01*
X137091939Y-93676511D01*
X137008116Y-93580792D01*
X136935472Y-93497794D01*
X136874785Y-93428407D01*
X136826838Y-93373522D01*
X136792411Y-93334030D01*
X136772283Y-93310821D01*
X136767036Y-93304629D01*
X136768450Y-93301566D01*
X136778573Y-93298943D01*
X136799146Y-93296730D01*
X136831911Y-93294896D01*
X136878611Y-93293412D01*
X136940987Y-93292247D01*
X137020782Y-93291371D01*
X137119737Y-93290753D01*
X137239595Y-93290363D01*
X137382097Y-93290171D01*
X137548985Y-93290147D01*
X137598188Y-93290165D01*
X138439974Y-93290548D01*
X139317671Y-94301667D01*
X139434980Y-94436803D01*
X139549114Y-94568268D01*
X139658970Y-94694792D01*
X139763444Y-94815106D01*
X139861433Y-94927939D01*
X139951835Y-95032021D01*
X140033545Y-95126082D01*
X140105461Y-95208853D01*
X140166479Y-95279063D01*
X140215496Y-95335442D01*
X140251409Y-95376719D01*
X140273115Y-95401626D01*
X140275853Y-95404759D01*
X140356340Y-95496730D01*
X142283220Y-93290916D01*
X143131901Y-93290349D01*
X143980581Y-93289782D01*
X143949910Y-93325674D01*
G36*
X136618343Y-93623395D02*
G01*
X136627642Y-93633748D01*
X136651653Y-93661123D01*
X136689576Y-93704601D01*
X136740614Y-93763261D01*
X136803970Y-93836181D01*
X136878844Y-93922442D01*
X136964439Y-94021123D01*
X137059957Y-94131303D01*
X137164600Y-94252063D01*
X137277570Y-94382480D01*
X137398069Y-94521635D01*
X137525299Y-94668608D01*
X137658463Y-94822477D01*
X137796761Y-94982323D01*
X137939396Y-95147224D01*
X137987209Y-95202509D01*
X138169121Y-95412705D01*
X138340670Y-95610605D01*
X138501457Y-95795756D01*
X138651085Y-95967706D01*
X138789157Y-96126004D01*
X138915274Y-96270195D01*
X139029040Y-96399828D01*
X139130057Y-96514451D01*
X139217928Y-96613611D01*
X139292254Y-96696855D01*
X139352639Y-96763732D01*
X139398685Y-96813788D01*
X139429994Y-96846572D01*
X139442114Y-96858280D01*
X139573626Y-96964544D01*
X139710110Y-97053028D01*
X139849385Y-97122586D01*
X139989275Y-97172075D01*
X140078306Y-97192720D01*
X140226136Y-97208665D01*
X140374427Y-97202851D01*
X140522215Y-97175576D01*
X140668535Y-97127135D01*
X140812422Y-97057825D01*
X140952914Y-96967944D01*
X141046466Y-96894847D01*
X141067073Y-96876531D01*
X141093415Y-96851325D01*
X141126183Y-96818475D01*
X141166062Y-96777227D01*
X141213741Y-96726824D01*
X141269909Y-96666512D01*
X141335251Y-96595536D01*
X141410458Y-96513141D01*
X141496215Y-96418573D01*
X141593212Y-96311077D01*
X141702136Y-96189897D01*
X141823674Y-96054279D01*
X141958515Y-95903468D01*
X142107346Y-95736708D01*
X142270856Y-95553246D01*
X142356362Y-95457226D01*
X142492158Y-95304814D01*
X142623633Y-95157483D01*
X142749923Y-95016192D01*
X142870165Y-94881896D01*
X142983493Y-94755554D01*
X143089044Y-94638123D01*
X143185954Y-94530560D01*
X143273360Y-94433822D01*
X143350397Y-94348866D01*
X143416202Y-94276650D01*
X143469911Y-94218130D01*
X143510659Y-94174264D01*
X143537584Y-94146009D01*
X143549820Y-94134322D01*
X143550491Y-94134124D01*
X143547223Y-94145541D01*
X143537156Y-94176753D01*
X143520784Y-94226312D01*
X143498599Y-94292774D01*
X143471096Y-94374691D01*
X143438768Y-94470616D01*
X143402108Y-94579105D01*
X143361609Y-94698710D01*
X143317765Y-94827985D01*
X143271070Y-94965483D01*
X143222015Y-95109759D01*
X143171096Y-95259367D01*
X143118804Y-95412859D01*
X143065634Y-95568789D01*
X143012079Y-95725712D01*
X142958631Y-95882181D01*
X142905786Y-96036749D01*
X142854035Y-96187970D01*
X142803872Y-96334398D01*
X142755791Y-96474587D01*
X142710285Y-96607090D01*
X142667847Y-96730460D01*
X142628970Y-96843253D01*
X142594149Y-96944021D01*
X142563875Y-97031317D01*
X142538643Y-97103697D01*
X142518946Y-97159712D01*
X142507823Y-97190891D01*
X142507642Y-97194375D01*
X142510903Y-97197414D01*
X142519287Y-97200039D01*
X142534476Y-97202280D01*
X142558151Y-97204166D01*
X142591995Y-97205729D01*
X142637688Y-97206999D01*
X142696914Y-97208005D01*
X142771354Y-97208778D01*
X142862690Y-97209348D01*
X142972603Y-97209746D01*
X143102775Y-97210002D01*
X143254888Y-97210145D01*
X143430625Y-97210207D01*
X143582746Y-97210217D01*
X144664640Y-97210217D01*
X144876915Y-96469588D01*
X144912657Y-96345158D01*
X144946774Y-96226923D01*
X144978743Y-96116658D01*
X145008043Y-96016135D01*
X145034153Y-95927127D01*
X145056551Y-95851408D01*
X145074717Y-95790751D01*
X145088127Y-95746930D01*
X145096263Y-95721716D01*
X145098440Y-95716190D01*
X145110000Y-95707627D01*
X145113152Y-95708624D01*
X145121051Y-95718662D01*
X145141859Y-95745721D01*
X145174309Y-95788137D01*
X145217130Y-95844244D01*
X145269054Y-95912378D01*
X145328812Y-95990873D01*
X145395135Y-96078065D01*
X145466754Y-96172288D01*
X145529451Y-96254827D01*
X145627249Y-96383297D01*
X145712578Y-96494495D01*
X145786880Y-96589975D01*
X145851593Y-96671290D01*
X145908158Y-96739996D01*
X145958016Y-96797645D01*
X146002606Y-96845793D01*
X146043369Y-96885993D01*
X146081745Y-96919799D01*
X146119173Y-96948765D01*
X146157095Y-96974446D01*
X146196950Y-96998395D01*
X146240179Y-97022166D01*
X146240903Y-97022553D01*
X146326764Y-97065991D01*
X146403820Y-97099052D01*
X146483166Y-97126012D01*
X146571964Y-97150166D01*
X146626006Y-97165112D01*
X146657330Y-97177673D01*
X146669393Y-97189372D01*
X146669749Y-97193190D01*
X146662634Y-97206943D01*
X146643455Y-97237073D01*
X146613930Y-97281068D01*
X146575779Y-97336415D01*
X146530719Y-97400601D01*
X146480471Y-97471112D01*
X146464072Y-97493913D01*
X146404383Y-97576367D01*
X146356307Y-97641780D01*
X146318121Y-97692221D01*
X146288100Y-97729757D01*
X146264521Y-97756456D01*
X146245660Y-97774389D01*
X146229793Y-97785621D01*
X146215557Y-97792099D01*
X146200622Y-97796538D01*
X146184184Y-97798912D01*
X146162926Y-97798716D01*
X146133532Y-97795449D01*
X146092685Y-97788608D01*
X146037067Y-97777689D01*
X145963362Y-97762192D01*
X145868253Y-97741612D01*
X145836104Y-97734602D01*
X145723947Y-97709915D01*
X145595068Y-97681198D01*
X145458333Y-97650451D01*
X145322607Y-97619670D01*
X145196755Y-97590853D01*
X145142898Y-97578407D01*
X145029300Y-97552015D01*
X144937910Y-97531388D01*
X144865185Y-97516768D01*
X144807582Y-97508392D01*
X144761558Y-97506500D01*
X144723570Y-97511333D01*
X144690074Y-97523128D01*
X144657529Y-97542125D01*
X144622390Y-97568563D01*
X144581116Y-97602683D01*
X144563274Y-97617556D01*
X144496761Y-97675057D01*
X144448904Y-97722737D01*
X144417316Y-97764285D01*
X144399611Y-97803388D01*
X144393404Y-97843735D01*
X144394936Y-97877767D01*
X144399634Y-97899895D01*
X144410626Y-97940675D01*
X144427080Y-97997484D01*
X144448162Y-98067696D01*
X144473039Y-98148684D01*
X144500879Y-98237824D01*
X144530849Y-98332490D01*
X144562115Y-98430056D01*
X144593845Y-98527897D01*
X144625206Y-98623388D01*
X144655364Y-98713902D01*
X144683487Y-98796815D01*
X144708742Y-98869501D01*
X144716467Y-98891247D01*
X144732105Y-98941821D01*
X144737472Y-98983378D01*
X144730369Y-99018789D01*
X144708595Y-99050923D01*
X144669950Y-99082650D01*
X144612235Y-99116842D01*
X144533249Y-99156367D01*
X144501883Y-99171191D01*
X144439957Y-99200402D01*
X144360389Y-99238247D01*
X144268481Y-99282188D01*
X144169533Y-99329686D01*
X144068846Y-99378200D01*
X143979824Y-99421264D01*
X143893865Y-99462673D01*
X143815268Y-99500033D01*
X143746971Y-99531988D01*
X143691912Y-99557182D01*
X143653028Y-99574257D01*
X143633255Y-99581858D01*
X143631512Y-99582096D01*
X143617782Y-99573210D01*
X143585329Y-99549279D01*
X143534550Y-99510613D01*
X143465843Y-99457521D01*
X143379603Y-99390312D01*
X143276227Y-99309295D01*
X143156114Y-99214779D01*
X143019659Y-99107074D01*
X142891200Y-99005448D01*
X142792368Y-98927837D01*
X142704490Y-98860141D01*
X142629059Y-98803459D01*
X142567565Y-98758888D01*
X142521501Y-98727527D01*
X142492356Y-98710474D01*
X142488186Y-98708685D01*
X142452781Y-98697090D01*
X142424494Y-98694501D01*
X142389924Y-98700487D01*
X142372248Y-98704947D01*
X142319323Y-98716757D01*
X142264018Y-98726224D01*
X142249974Y-98728030D01*
X142140927Y-98748663D01*
X142051202Y-98783949D01*
X141979444Y-98834646D01*
X141924297Y-98901516D01*
X141916037Y-98915316D01*
X141899531Y-98946582D01*
X141884891Y-98980273D01*
X141870953Y-99020128D01*
X141856556Y-99069889D01*
X141840536Y-99133294D01*
X141821731Y-99214084D01*
X141817868Y-99231174D01*
X141806603Y-99277635D01*
X141790861Y-99337534D01*
X141771530Y-99407906D01*
X141749499Y-99485787D01*
X141725656Y-99568210D01*
X141700890Y-99652212D01*
X141676088Y-99734828D01*
X141652140Y-99813092D01*
X141629933Y-99884041D01*
X141610356Y-99944708D01*
X141594298Y-99992130D01*
X141582646Y-100023340D01*
X141577141Y-100034587D01*
X141557843Y-100059435D01*
X140909851Y-100058735D01*
X140780193Y-100058400D01*
X140658002Y-100057708D01*
X140545985Y-100056703D01*
X140446846Y-100055425D01*
X140363292Y-100053917D01*
X140298028Y-100052219D01*
X140253761Y-100050375D01*
X140233195Y-100048424D01*
X140232713Y-100048285D01*
X140203175Y-100031587D01*
X140182984Y-100012449D01*
X140175678Y-99996607D01*
X140162891Y-99961552D01*
X140145347Y-99909551D01*
X140123770Y-99842869D01*
X140098884Y-99763771D01*
X140071411Y-99674524D01*
X140042076Y-99577393D01*
X140016136Y-99490051D01*
X139977542Y-99359107D01*
X139944718Y-99247894D01*
X139917103Y-99154692D01*
X139894136Y-99077778D01*
X139875254Y-99015433D01*
X139859897Y-98965935D01*
X139847503Y-98927564D01*
X139837511Y-98898598D01*
X139829360Y-98877316D01*
X139822488Y-98861998D01*
X139816333Y-98850923D01*
X139810335Y-98842370D01*
X139803931Y-98834617D01*
X139801343Y-98831603D01*
X139763989Y-98799832D01*
X139717838Y-98776649D01*
X139673538Y-98767356D01*
X139672346Y-98767348D01*
X139646563Y-98762942D01*
X139606967Y-98751576D01*
X139575272Y-98740538D01*
X139482452Y-98713887D01*
X139393474Y-98705837D01*
X139306631Y-98716919D01*
X139220216Y-98747662D01*
X139132522Y-98798595D01*
X139041843Y-98870249D01*
X138984967Y-98923729D01*
X138953382Y-98953587D01*
X138905914Y-98996490D01*
X138845500Y-99049877D01*
X138775077Y-99111187D01*
X138697583Y-99177859D01*
X138615954Y-99247331D01*
X138553011Y-99300383D01*
X138463695Y-99375193D01*
X138390938Y-99435700D01*
X138332718Y-99483400D01*
X138287010Y-99519791D01*
X138251794Y-99546373D01*
X138225044Y-99564642D01*
X138204739Y-99576097D01*
X138188855Y-99582236D01*
X138175368Y-99584556D01*
X138168960Y-99584753D01*
X138148329Y-99581528D01*
X138116297Y-99571401D01*
X138070808Y-99553495D01*
X138009806Y-99526934D01*
X137931233Y-99490842D01*
X137833035Y-99444344D01*
X137783305Y-99420471D01*
X137685345Y-99373398D01*
X137584383Y-99325075D01*
X137485685Y-99278008D01*
X137394514Y-99234702D01*
X137316133Y-99197662D01*
X137259023Y-99170893D01*
X137193976Y-99139919D01*
X137135608Y-99110858D01*
X137088643Y-99086155D01*
X137057800Y-99068257D01*
X137049573Y-99062340D01*
X137028214Y-99027407D01*
X137023691Y-98993077D01*
X137027365Y-98969841D01*
X137038009Y-98927199D01*
X137055061Y-98866925D01*
X137077960Y-98790795D01*
X137106142Y-98700586D01*
X137139044Y-98598072D01*
X137176105Y-98485030D01*
X137216762Y-98363235D01*
X137260452Y-98234462D01*
X137305137Y-98104739D01*
X137334083Y-98018441D01*
X137354405Y-97949766D01*
X137366436Y-97895540D01*
X137370512Y-97852588D01*
X137366965Y-97817737D01*
X137356130Y-97787812D01*
X137341064Y-97763357D01*
X137309511Y-97725265D01*
X137266488Y-97681007D01*
X137217181Y-97635147D01*
X137166772Y-97592247D01*
X137120445Y-97556869D01*
X137083383Y-97533576D01*
X137076133Y-97530160D01*
X137045933Y-97518784D01*
X137016597Y-97512148D01*
X136983484Y-97510588D01*
X136941954Y-97514442D01*
X136887364Y-97524046D01*
X136815075Y-97539739D01*
X136756234Y-97553402D01*
X136642805Y-97579828D01*
X136522743Y-97607335D01*
X136398907Y-97635308D01*
X136274154Y-97663130D01*
X136151344Y-97690185D01*
X136033333Y-97715856D01*
X135922982Y-97739528D01*
X135823146Y-97760584D01*
X135736685Y-97778407D01*
X135666457Y-97792381D01*
X135615320Y-97801891D01*
X135586133Y-97806319D01*
X135582175Y-97806565D01*
X135532338Y-97795876D01*
X135486173Y-97765223D01*
X135447915Y-97718357D01*
X135435389Y-97699436D01*
X135411435Y-97664334D01*
X135378048Y-97615936D01*
X135337228Y-97557128D01*
X135290970Y-97490794D01*
X135241273Y-97419821D01*
X135240101Y-97418151D01*
X135192016Y-97348874D01*
X135149130Y-97285632D01*
X135113085Y-97230965D01*
X135085522Y-97187415D01*
X135068083Y-97157521D01*
X135062411Y-97143825D01*
X135062556Y-97143442D01*
X135079770Y-97136643D01*
X135112528Y-97133071D01*
X135121479Y-97132913D01*
X135169124Y-97130289D01*
X135235820Y-97123094D01*
X135314885Y-97112345D01*
X135399638Y-97099058D01*
X135483399Y-97084248D01*
X135559485Y-97068932D01*
X135594110Y-97061031D01*
X135814140Y-96998516D01*
X136020580Y-96920615D01*
X136211510Y-96828425D01*
X136385013Y-96723042D01*
X136539171Y-96605562D01*
X136672064Y-96477083D01*
X136725816Y-96414230D01*
X136818969Y-96283555D01*
X136891290Y-96148247D01*
X136941002Y-96019394D01*
X136952997Y-95981203D01*
X136961904Y-95947466D01*
X136968185Y-95913812D01*
X136972305Y-95875871D01*
X136974726Y-95829273D01*
X136975913Y-95769648D01*
X136976329Y-95692626D01*
X136976342Y-95686217D01*
X136975430Y-95587869D01*
X136971626Y-95506489D01*
X136963936Y-95437012D01*
X136951361Y-95374376D01*
X136932905Y-95313517D01*
X136907571Y-95249370D01*
X136877281Y-95182989D01*
X136794757Y-95038757D01*
X136688511Y-94901300D01*
X136560769Y-94772546D01*
X136413758Y-94654426D01*
X136249704Y-94548865D01*
X136070833Y-94457793D01*
X136009686Y-94431556D01*
X135963259Y-94411497D01*
X135927690Y-94394192D01*
X135908488Y-94382405D01*
X135906623Y-94379855D01*
X135914420Y-94369346D01*
X135936712Y-94343126D01*
X135971854Y-94303038D01*
X136018202Y-94250928D01*
X136074109Y-94188639D01*
X136137932Y-94118014D01*
X136208023Y-94040898D01*
X136254687Y-93989781D01*
X136341950Y-93894631D01*
X136414662Y-93816023D01*
X136474052Y-93752719D01*
X136521349Y-93703482D01*
X136557782Y-93667074D01*
X136584579Y-93642257D01*
X136602968Y-93627794D01*
X136614179Y-93622445D01*
X136618343Y-93623395D01*
G37*
X136618343Y-93623395D02*
X136627642Y-93633748D01*
X136651653Y-93661123D01*
X136689576Y-93704601D01*
X136740614Y-93763261D01*
X136803970Y-93836181D01*
X136878844Y-93922442D01*
X136964439Y-94021123D01*
X137059957Y-94131303D01*
X137164600Y-94252063D01*
X137277570Y-94382480D01*
X137398069Y-94521635D01*
X137525299Y-94668608D01*
X137658463Y-94822477D01*
X137796761Y-94982323D01*
X137939396Y-95147224D01*
X137987209Y-95202509D01*
X138169121Y-95412705D01*
X138340670Y-95610605D01*
X138501457Y-95795756D01*
X138651085Y-95967706D01*
X138789157Y-96126004D01*
X138915274Y-96270195D01*
X139029040Y-96399828D01*
X139130057Y-96514451D01*
X139217928Y-96613611D01*
X139292254Y-96696855D01*
X139352639Y-96763732D01*
X139398685Y-96813788D01*
X139429994Y-96846572D01*
X139442114Y-96858280D01*
X139573626Y-96964544D01*
X139710110Y-97053028D01*
X139849385Y-97122586D01*
X139989275Y-97172075D01*
X140078306Y-97192720D01*
X140226136Y-97208665D01*
X140374427Y-97202851D01*
X140522215Y-97175576D01*
X140668535Y-97127135D01*
X140812422Y-97057825D01*
X140952914Y-96967944D01*
X141046466Y-96894847D01*
X141067073Y-96876531D01*
X141093415Y-96851325D01*
X141126183Y-96818475D01*
X141166062Y-96777227D01*
X141213741Y-96726824D01*
X141269909Y-96666512D01*
X141335251Y-96595536D01*
X141410458Y-96513141D01*
X141496215Y-96418573D01*
X141593212Y-96311077D01*
X141702136Y-96189897D01*
X141823674Y-96054279D01*
X141958515Y-95903468D01*
X142107346Y-95736708D01*
X142270856Y-95553246D01*
X142356362Y-95457226D01*
X142492158Y-95304814D01*
X142623633Y-95157483D01*
X142749923Y-95016192D01*
X142870165Y-94881896D01*
X142983493Y-94755554D01*
X143089044Y-94638123D01*
X143185954Y-94530560D01*
X143273360Y-94433822D01*
X143350397Y-94348866D01*
X143416202Y-94276650D01*
X143469911Y-94218130D01*
X143510659Y-94174264D01*
X143537584Y-94146009D01*
X143549820Y-94134322D01*
X143550491Y-94134124D01*
X143547223Y-94145541D01*
X143537156Y-94176753D01*
X143520784Y-94226312D01*
X143498599Y-94292774D01*
X143471096Y-94374691D01*
X143438768Y-94470616D01*
X143402108Y-94579105D01*
X143361609Y-94698710D01*
X143317765Y-94827985D01*
X143271070Y-94965483D01*
X143222015Y-95109759D01*
X143171096Y-95259367D01*
X143118804Y-95412859D01*
X143065634Y-95568789D01*
X143012079Y-95725712D01*
X142958631Y-95882181D01*
X142905786Y-96036749D01*
X142854035Y-96187970D01*
X142803872Y-96334398D01*
X142755791Y-96474587D01*
X142710285Y-96607090D01*
X142667847Y-96730460D01*
X142628970Y-96843253D01*
X142594149Y-96944021D01*
X142563875Y-97031317D01*
X142538643Y-97103697D01*
X142518946Y-97159712D01*
X142507823Y-97190891D01*
X142507642Y-97194375D01*
X142510903Y-97197414D01*
X142519287Y-97200039D01*
X142534476Y-97202280D01*
X142558151Y-97204166D01*
X142591995Y-97205729D01*
X142637688Y-97206999D01*
X142696914Y-97208005D01*
X142771354Y-97208778D01*
X142862690Y-97209348D01*
X142972603Y-97209746D01*
X143102775Y-97210002D01*
X143254888Y-97210145D01*
X143430625Y-97210207D01*
X143582746Y-97210217D01*
X144664640Y-97210217D01*
X144876915Y-96469588D01*
X144912657Y-96345158D01*
X144946774Y-96226923D01*
X144978743Y-96116658D01*
X145008043Y-96016135D01*
X145034153Y-95927127D01*
X145056551Y-95851408D01*
X145074717Y-95790751D01*
X145088127Y-95746930D01*
X145096263Y-95721716D01*
X145098440Y-95716190D01*
X145110000Y-95707627D01*
X145113152Y-95708624D01*
X145121051Y-95718662D01*
X145141859Y-95745721D01*
X145174309Y-95788137D01*
X145217130Y-95844244D01*
X145269054Y-95912378D01*
X145328812Y-95990873D01*
X145395135Y-96078065D01*
X145466754Y-96172288D01*
X145529451Y-96254827D01*
X145627249Y-96383297D01*
X145712578Y-96494495D01*
X145786880Y-96589975D01*
X145851593Y-96671290D01*
X145908158Y-96739996D01*
X145958016Y-96797645D01*
X146002606Y-96845793D01*
X146043369Y-96885993D01*
X146081745Y-96919799D01*
X146119173Y-96948765D01*
X146157095Y-96974446D01*
X146196950Y-96998395D01*
X146240179Y-97022166D01*
X146240903Y-97022553D01*
X146326764Y-97065991D01*
X146403820Y-97099052D01*
X146483166Y-97126012D01*
X146571964Y-97150166D01*
X146626006Y-97165112D01*
X146657330Y-97177673D01*
X146669393Y-97189372D01*
X146669749Y-97193190D01*
X146662634Y-97206943D01*
X146643455Y-97237073D01*
X146613930Y-97281068D01*
X146575779Y-97336415D01*
X146530719Y-97400601D01*
X146480471Y-97471112D01*
X146464072Y-97493913D01*
X146404383Y-97576367D01*
X146356307Y-97641780D01*
X146318121Y-97692221D01*
X146288100Y-97729757D01*
X146264521Y-97756456D01*
X146245660Y-97774389D01*
X146229793Y-97785621D01*
X146215557Y-97792099D01*
X146200622Y-97796538D01*
X146184184Y-97798912D01*
X146162926Y-97798716D01*
X146133532Y-97795449D01*
X146092685Y-97788608D01*
X146037067Y-97777689D01*
X145963362Y-97762192D01*
X145868253Y-97741612D01*
X145836104Y-97734602D01*
X145723947Y-97709915D01*
X145595068Y-97681198D01*
X145458333Y-97650451D01*
X145322607Y-97619670D01*
X145196755Y-97590853D01*
X145142898Y-97578407D01*
X145029300Y-97552015D01*
X144937910Y-97531388D01*
X144865185Y-97516768D01*
X144807582Y-97508392D01*
X144761558Y-97506500D01*
X144723570Y-97511333D01*
X144690074Y-97523128D01*
X144657529Y-97542125D01*
X144622390Y-97568563D01*
X144581116Y-97602683D01*
X144563274Y-97617556D01*
X144496761Y-97675057D01*
X144448904Y-97722737D01*
X144417316Y-97764285D01*
X144399611Y-97803388D01*
X144393404Y-97843735D01*
X144394936Y-97877767D01*
X144399634Y-97899895D01*
X144410626Y-97940675D01*
X144427080Y-97997484D01*
X144448162Y-98067696D01*
X144473039Y-98148684D01*
X144500879Y-98237824D01*
X144530849Y-98332490D01*
X144562115Y-98430056D01*
X144593845Y-98527897D01*
X144625206Y-98623388D01*
X144655364Y-98713902D01*
X144683487Y-98796815D01*
X144708742Y-98869501D01*
X144716467Y-98891247D01*
X144732105Y-98941821D01*
X144737472Y-98983378D01*
X144730369Y-99018789D01*
X144708595Y-99050923D01*
X144669950Y-99082650D01*
X144612235Y-99116842D01*
X144533249Y-99156367D01*
X144501883Y-99171191D01*
X144439957Y-99200402D01*
X144360389Y-99238247D01*
X144268481Y-99282188D01*
X144169533Y-99329686D01*
X144068846Y-99378200D01*
X143979824Y-99421264D01*
X143893865Y-99462673D01*
X143815268Y-99500033D01*
X143746971Y-99531988D01*
X143691912Y-99557182D01*
X143653028Y-99574257D01*
X143633255Y-99581858D01*
X143631512Y-99582096D01*
X143617782Y-99573210D01*
X143585329Y-99549279D01*
X143534550Y-99510613D01*
X143465843Y-99457521D01*
X143379603Y-99390312D01*
X143276227Y-99309295D01*
X143156114Y-99214779D01*
X143019659Y-99107074D01*
X142891200Y-99005448D01*
X142792368Y-98927837D01*
X142704490Y-98860141D01*
X142629059Y-98803459D01*
X142567565Y-98758888D01*
X142521501Y-98727527D01*
X142492356Y-98710474D01*
X142488186Y-98708685D01*
X142452781Y-98697090D01*
X142424494Y-98694501D01*
X142389924Y-98700487D01*
X142372248Y-98704947D01*
X142319323Y-98716757D01*
X142264018Y-98726224D01*
X142249974Y-98728030D01*
X142140927Y-98748663D01*
X142051202Y-98783949D01*
X141979444Y-98834646D01*
X141924297Y-98901516D01*
X141916037Y-98915316D01*
X141899531Y-98946582D01*
X141884891Y-98980273D01*
X141870953Y-99020128D01*
X141856556Y-99069889D01*
X141840536Y-99133294D01*
X141821731Y-99214084D01*
X141817868Y-99231174D01*
X141806603Y-99277635D01*
X141790861Y-99337534D01*
X141771530Y-99407906D01*
X141749499Y-99485787D01*
X141725656Y-99568210D01*
X141700890Y-99652212D01*
X141676088Y-99734828D01*
X141652140Y-99813092D01*
X141629933Y-99884041D01*
X141610356Y-99944708D01*
X141594298Y-99992130D01*
X141582646Y-100023340D01*
X141577141Y-100034587D01*
X141557843Y-100059435D01*
X140909851Y-100058735D01*
X140780193Y-100058400D01*
X140658002Y-100057708D01*
X140545985Y-100056703D01*
X140446846Y-100055425D01*
X140363292Y-100053917D01*
X140298028Y-100052219D01*
X140253761Y-100050375D01*
X140233195Y-100048424D01*
X140232713Y-100048285D01*
X140203175Y-100031587D01*
X140182984Y-100012449D01*
X140175678Y-99996607D01*
X140162891Y-99961552D01*
X140145347Y-99909551D01*
X140123770Y-99842869D01*
X140098884Y-99763771D01*
X140071411Y-99674524D01*
X140042076Y-99577393D01*
X140016136Y-99490051D01*
X139977542Y-99359107D01*
X139944718Y-99247894D01*
X139917103Y-99154692D01*
X139894136Y-99077778D01*
X139875254Y-99015433D01*
X139859897Y-98965935D01*
X139847503Y-98927564D01*
X139837511Y-98898598D01*
X139829360Y-98877316D01*
X139822488Y-98861998D01*
X139816333Y-98850923D01*
X139810335Y-98842370D01*
X139803931Y-98834617D01*
X139801343Y-98831603D01*
X139763989Y-98799832D01*
X139717838Y-98776649D01*
X139673538Y-98767356D01*
X139672346Y-98767348D01*
X139646563Y-98762942D01*
X139606967Y-98751576D01*
X139575272Y-98740538D01*
X139482452Y-98713887D01*
X139393474Y-98705837D01*
X139306631Y-98716919D01*
X139220216Y-98747662D01*
X139132522Y-98798595D01*
X139041843Y-98870249D01*
X138984967Y-98923729D01*
X138953382Y-98953587D01*
X138905914Y-98996490D01*
X138845500Y-99049877D01*
X138775077Y-99111187D01*
X138697583Y-99177859D01*
X138615954Y-99247331D01*
X138553011Y-99300383D01*
X138463695Y-99375193D01*
X138390938Y-99435700D01*
X138332718Y-99483400D01*
X138287010Y-99519791D01*
X138251794Y-99546373D01*
X138225044Y-99564642D01*
X138204739Y-99576097D01*
X138188855Y-99582236D01*
X138175368Y-99584556D01*
X138168960Y-99584753D01*
X138148329Y-99581528D01*
X138116297Y-99571401D01*
X138070808Y-99553495D01*
X138009806Y-99526934D01*
X137931233Y-99490842D01*
X137833035Y-99444344D01*
X137783305Y-99420471D01*
X137685345Y-99373398D01*
X137584383Y-99325075D01*
X137485685Y-99278008D01*
X137394514Y-99234702D01*
X137316133Y-99197662D01*
X137259023Y-99170893D01*
X137193976Y-99139919D01*
X137135608Y-99110858D01*
X137088643Y-99086155D01*
X137057800Y-99068257D01*
X137049573Y-99062340D01*
X137028214Y-99027407D01*
X137023691Y-98993077D01*
X137027365Y-98969841D01*
X137038009Y-98927199D01*
X137055061Y-98866925D01*
X137077960Y-98790795D01*
X137106142Y-98700586D01*
X137139044Y-98598072D01*
X137176105Y-98485030D01*
X137216762Y-98363235D01*
X137260452Y-98234462D01*
X137305137Y-98104739D01*
X137334083Y-98018441D01*
X137354405Y-97949766D01*
X137366436Y-97895540D01*
X137370512Y-97852588D01*
X137366965Y-97817737D01*
X137356130Y-97787812D01*
X137341064Y-97763357D01*
X137309511Y-97725265D01*
X137266488Y-97681007D01*
X137217181Y-97635147D01*
X137166772Y-97592247D01*
X137120445Y-97556869D01*
X137083383Y-97533576D01*
X137076133Y-97530160D01*
X137045933Y-97518784D01*
X137016597Y-97512148D01*
X136983484Y-97510588D01*
X136941954Y-97514442D01*
X136887364Y-97524046D01*
X136815075Y-97539739D01*
X136756234Y-97553402D01*
X136642805Y-97579828D01*
X136522743Y-97607335D01*
X136398907Y-97635308D01*
X136274154Y-97663130D01*
X136151344Y-97690185D01*
X136033333Y-97715856D01*
X135922982Y-97739528D01*
X135823146Y-97760584D01*
X135736685Y-97778407D01*
X135666457Y-97792381D01*
X135615320Y-97801891D01*
X135586133Y-97806319D01*
X135582175Y-97806565D01*
X135532338Y-97795876D01*
X135486173Y-97765223D01*
X135447915Y-97718357D01*
X135435389Y-97699436D01*
X135411435Y-97664334D01*
X135378048Y-97615936D01*
X135337228Y-97557128D01*
X135290970Y-97490794D01*
X135241273Y-97419821D01*
X135240101Y-97418151D01*
X135192016Y-97348874D01*
X135149130Y-97285632D01*
X135113085Y-97230965D01*
X135085522Y-97187415D01*
X135068083Y-97157521D01*
X135062411Y-97143825D01*
X135062556Y-97143442D01*
X135079770Y-97136643D01*
X135112528Y-97133071D01*
X135121479Y-97132913D01*
X135169124Y-97130289D01*
X135235820Y-97123094D01*
X135314885Y-97112345D01*
X135399638Y-97099058D01*
X135483399Y-97084248D01*
X135559485Y-97068932D01*
X135594110Y-97061031D01*
X135814140Y-96998516D01*
X136020580Y-96920615D01*
X136211510Y-96828425D01*
X136385013Y-96723042D01*
X136539171Y-96605562D01*
X136672064Y-96477083D01*
X136725816Y-96414230D01*
X136818969Y-96283555D01*
X136891290Y-96148247D01*
X136941002Y-96019394D01*
X136952997Y-95981203D01*
X136961904Y-95947466D01*
X136968185Y-95913812D01*
X136972305Y-95875871D01*
X136974726Y-95829273D01*
X136975913Y-95769648D01*
X136976329Y-95692626D01*
X136976342Y-95686217D01*
X136975430Y-95587869D01*
X136971626Y-95506489D01*
X136963936Y-95437012D01*
X136951361Y-95374376D01*
X136932905Y-95313517D01*
X136907571Y-95249370D01*
X136877281Y-95182989D01*
X136794757Y-95038757D01*
X136688511Y-94901300D01*
X136560769Y-94772546D01*
X136413758Y-94654426D01*
X136249704Y-94548865D01*
X136070833Y-94457793D01*
X136009686Y-94431556D01*
X135963259Y-94411497D01*
X135927690Y-94394192D01*
X135908488Y-94382405D01*
X135906623Y-94379855D01*
X135914420Y-94369346D01*
X135936712Y-94343126D01*
X135971854Y-94303038D01*
X136018202Y-94250928D01*
X136074109Y-94188639D01*
X136137932Y-94118014D01*
X136208023Y-94040898D01*
X136254687Y-93989781D01*
X136341950Y-93894631D01*
X136414662Y-93816023D01*
X136474052Y-93752719D01*
X136521349Y-93703482D01*
X136557782Y-93667074D01*
X136584579Y-93642257D01*
X136602968Y-93627794D01*
X136614179Y-93622445D01*
X136618343Y-93623395D01*
D10*
X132505336Y-72623000D02*
X132289664Y-72623000D01*
X132505336Y-71903000D02*
X132289664Y-71903000D01*
X132561000Y-67048748D02*
X132561000Y-67571252D01*
X131091000Y-67048748D02*
X131091000Y-67571252D01*
X139473000Y-67571252D02*
X139473000Y-67048748D01*
X140943000Y-67571252D02*
X140943000Y-67048748D01*
X141711000Y-70631164D02*
X141711000Y-70846836D01*
X140991000Y-70631164D02*
X140991000Y-70846836D01*
X132505336Y-70379000D02*
X132289664Y-70379000D01*
X132505336Y-71099000D02*
X132289664Y-71099000D01*
X147560420Y-73150000D02*
X147841580Y-73150000D01*
X147560420Y-74170000D02*
X147841580Y-74170000D01*
X144124000Y-67202164D02*
X144124000Y-67417836D01*
X143404000Y-67202164D02*
X143404000Y-67417836D01*
X145010000Y-76161000D02*
X145010000Y-74461000D01*
X145010000Y-74461000D02*
X142460000Y-74461000D01*
X145010000Y-76161000D02*
X142460000Y-76161000D01*
X132551141Y-75058000D02*
X132243859Y-75058000D01*
X132551141Y-75818000D02*
X132243859Y-75818000D01*
X132551141Y-73407000D02*
X132243859Y-73407000D01*
X132551141Y-74167000D02*
X132243859Y-74167000D01*
X141731000Y-73178641D02*
X141731000Y-72871359D01*
X140971000Y-73178641D02*
X140971000Y-72871359D01*
X147293359Y-75564000D02*
X147600641Y-75564000D01*
X147293359Y-74804000D02*
X147600641Y-74804000D01*
X144506000Y-68961000D02*
X144506000Y-72411000D01*
X144506000Y-68961000D02*
X144506000Y-67011000D01*
X149626000Y-68961000D02*
X149626000Y-70911000D01*
X149626000Y-68961000D02*
X149626000Y-67011000D01*
X132786000Y-62391000D02*
X132786000Y-59706000D01*
X130866000Y-62391000D02*
X132786000Y-62391000D01*
X130866000Y-59706000D02*
X130866000Y-62391000D01*
X148646000Y-59960000D02*
X148646000Y-62645000D01*
X148646000Y-62645000D02*
X150566000Y-62645000D01*
X150566000Y-62645000D02*
X150566000Y-59960000D01*
X136885000Y-61562064D02*
X136885000Y-60357936D01*
X138705000Y-61562064D02*
X138705000Y-60357936D01*
X144905000Y-63175000D02*
X144905000Y-62245000D01*
X144905000Y-60015000D02*
X144905000Y-60945000D01*
X144905000Y-60015000D02*
X142745000Y-60015000D01*
X144905000Y-63175000D02*
X143445000Y-63175000D01*
X134097500Y-60943258D02*
X134097500Y-60468742D01*
X135142500Y-60943258D02*
X135142500Y-60468742D01*
X147842500Y-61197258D02*
X147842500Y-60722742D01*
X146797500Y-61197258D02*
X146797500Y-60722742D01*
X144423641Y-58675000D02*
X144116359Y-58675000D01*
X144423641Y-59435000D02*
X144116359Y-59435000D01*
D12*
X137160095Y-63968380D02*
X137160095Y-64777904D01*
X137207714Y-64873142D01*
X137255333Y-64920761D01*
X137350571Y-64968380D01*
X137541047Y-64968380D01*
X137636285Y-64920761D01*
X137683904Y-64873142D01*
X137731523Y-64777904D01*
X137731523Y-63968380D01*
X138731523Y-64968380D02*
X138160095Y-64968380D01*
X138445809Y-64968380D02*
X138445809Y-63968380D01*
X138350571Y-64111238D01*
X138255333Y-64206476D01*
X138160095Y-64254095D01*
X135636000Y-66254380D02*
X135636000Y-66492476D01*
X135397904Y-66397238D02*
X135636000Y-66492476D01*
X135874095Y-66397238D01*
X135493142Y-66682952D02*
X135636000Y-66492476D01*
X135778857Y-66682952D01*
X136334595Y-76004380D02*
X136334595Y-76813904D01*
X136382214Y-76909142D01*
X136429833Y-76956761D01*
X136525071Y-77004380D01*
X136715547Y-77004380D01*
X136810785Y-76956761D01*
X136858404Y-76909142D01*
X136906023Y-76813904D01*
X136906023Y-76004380D01*
X137334595Y-76099619D02*
X137382214Y-76052000D01*
X137477452Y-76004380D01*
X137715547Y-76004380D01*
X137810785Y-76052000D01*
X137858404Y-76099619D01*
X137906023Y-76194857D01*
X137906023Y-76290095D01*
X137858404Y-76432952D01*
X137286976Y-77004380D01*
X137906023Y-77004380D01*
X130452833Y-72620142D02*
X130405214Y-72667761D01*
X130262357Y-72715380D01*
X130167119Y-72715380D01*
X130024261Y-72667761D01*
X129929023Y-72572523D01*
X129881404Y-72477285D01*
X129833785Y-72286809D01*
X129833785Y-72143952D01*
X129881404Y-71953476D01*
X129929023Y-71858238D01*
X130024261Y-71763000D01*
X130167119Y-71715380D01*
X130262357Y-71715380D01*
X130405214Y-71763000D01*
X130452833Y-71810619D01*
X131405214Y-72715380D02*
X130833785Y-72715380D01*
X131119500Y-72715380D02*
X131119500Y-71715380D01*
X131024261Y-71858238D01*
X130929023Y-71953476D01*
X130833785Y-72001095D01*
X131659333Y-65635142D02*
X131611714Y-65682761D01*
X131468857Y-65730380D01*
X131373619Y-65730380D01*
X131230761Y-65682761D01*
X131135523Y-65587523D01*
X131087904Y-65492285D01*
X131040285Y-65301809D01*
X131040285Y-65158952D01*
X131087904Y-64968476D01*
X131135523Y-64873238D01*
X131230761Y-64778000D01*
X131373619Y-64730380D01*
X131468857Y-64730380D01*
X131611714Y-64778000D01*
X131659333Y-64825619D01*
X132040285Y-64825619D02*
X132087904Y-64778000D01*
X132183142Y-64730380D01*
X132421238Y-64730380D01*
X132516476Y-64778000D01*
X132564095Y-64825619D01*
X132611714Y-64920857D01*
X132611714Y-65016095D01*
X132564095Y-65158952D01*
X131992666Y-65730380D01*
X132611714Y-65730380D01*
X140041333Y-65635142D02*
X139993714Y-65682761D01*
X139850857Y-65730380D01*
X139755619Y-65730380D01*
X139612761Y-65682761D01*
X139517523Y-65587523D01*
X139469904Y-65492285D01*
X139422285Y-65301809D01*
X139422285Y-65158952D01*
X139469904Y-64968476D01*
X139517523Y-64873238D01*
X139612761Y-64778000D01*
X139755619Y-64730380D01*
X139850857Y-64730380D01*
X139993714Y-64778000D01*
X140041333Y-64825619D01*
X140374666Y-64730380D02*
X140993714Y-64730380D01*
X140660380Y-65111333D01*
X140803238Y-65111333D01*
X140898476Y-65158952D01*
X140946095Y-65206571D01*
X140993714Y-65301809D01*
X140993714Y-65539904D01*
X140946095Y-65635142D01*
X140898476Y-65682761D01*
X140803238Y-65730380D01*
X140517523Y-65730380D01*
X140422285Y-65682761D01*
X140374666Y-65635142D01*
X142581333Y-71223142D02*
X142533714Y-71270761D01*
X142390857Y-71318380D01*
X142295619Y-71318380D01*
X142152761Y-71270761D01*
X142057523Y-71175523D01*
X142009904Y-71080285D01*
X141962285Y-70889809D01*
X141962285Y-70746952D01*
X142009904Y-70556476D01*
X142057523Y-70461238D01*
X142152761Y-70366000D01*
X142295619Y-70318380D01*
X142390857Y-70318380D01*
X142533714Y-70366000D01*
X142581333Y-70413619D01*
X143438476Y-70651714D02*
X143438476Y-71318380D01*
X143200380Y-70270761D02*
X142962285Y-70985047D01*
X143581333Y-70985047D01*
X130452833Y-71096142D02*
X130405214Y-71143761D01*
X130262357Y-71191380D01*
X130167119Y-71191380D01*
X130024261Y-71143761D01*
X129929023Y-71048523D01*
X129881404Y-70953285D01*
X129833785Y-70762809D01*
X129833785Y-70619952D01*
X129881404Y-70429476D01*
X129929023Y-70334238D01*
X130024261Y-70239000D01*
X130167119Y-70191380D01*
X130262357Y-70191380D01*
X130405214Y-70239000D01*
X130452833Y-70286619D01*
X131357595Y-70191380D02*
X130881404Y-70191380D01*
X130833785Y-70667571D01*
X130881404Y-70619952D01*
X130976642Y-70572333D01*
X131214738Y-70572333D01*
X131309976Y-70619952D01*
X131357595Y-70667571D01*
X131405214Y-70762809D01*
X131405214Y-71000904D01*
X131357595Y-71096142D01*
X131309976Y-71143761D01*
X131214738Y-71191380D01*
X130976642Y-71191380D01*
X130881404Y-71143761D01*
X130833785Y-71096142D01*
X149693333Y-74017142D02*
X149645714Y-74064761D01*
X149502857Y-74112380D01*
X149407619Y-74112380D01*
X149264761Y-74064761D01*
X149169523Y-73969523D01*
X149121904Y-73874285D01*
X149074285Y-73683809D01*
X149074285Y-73540952D01*
X149121904Y-73350476D01*
X149169523Y-73255238D01*
X149264761Y-73160000D01*
X149407619Y-73112380D01*
X149502857Y-73112380D01*
X149645714Y-73160000D01*
X149693333Y-73207619D01*
X150550476Y-73112380D02*
X150360000Y-73112380D01*
X150264761Y-73160000D01*
X150217142Y-73207619D01*
X150121904Y-73350476D01*
X150074285Y-73540952D01*
X150074285Y-73921904D01*
X150121904Y-74017142D01*
X150169523Y-74064761D01*
X150264761Y-74112380D01*
X150455238Y-74112380D01*
X150550476Y-74064761D01*
X150598095Y-74017142D01*
X150645714Y-73921904D01*
X150645714Y-73683809D01*
X150598095Y-73588571D01*
X150550476Y-73540952D01*
X150455238Y-73493333D01*
X150264761Y-73493333D01*
X150169523Y-73540952D01*
X150121904Y-73588571D01*
X150074285Y-73683809D01*
X142200333Y-67667142D02*
X142152714Y-67714761D01*
X142009857Y-67762380D01*
X141914619Y-67762380D01*
X141771761Y-67714761D01*
X141676523Y-67619523D01*
X141628904Y-67524285D01*
X141581285Y-67333809D01*
X141581285Y-67190952D01*
X141628904Y-67000476D01*
X141676523Y-66905238D01*
X141771761Y-66810000D01*
X141914619Y-66762380D01*
X142009857Y-66762380D01*
X142152714Y-66810000D01*
X142200333Y-66857619D01*
X142533666Y-66762380D02*
X143200333Y-66762380D01*
X142771761Y-67762380D01*
X142771904Y-77287380D02*
X142771904Y-76287380D01*
X143010000Y-76287380D01*
X143152857Y-76335000D01*
X143248095Y-76430238D01*
X143295714Y-76525476D01*
X143343333Y-76715952D01*
X143343333Y-76858809D01*
X143295714Y-77049285D01*
X143248095Y-77144523D01*
X143152857Y-77239761D01*
X143010000Y-77287380D01*
X142771904Y-77287380D01*
X144295714Y-77287380D02*
X143724285Y-77287380D01*
X144010000Y-77287380D02*
X144010000Y-76287380D01*
X143914761Y-76430238D01*
X143819523Y-76525476D01*
X143724285Y-76573095D01*
X130452833Y-75890380D02*
X130119500Y-75414190D01*
X129881404Y-75890380D02*
X129881404Y-74890380D01*
X130262357Y-74890380D01*
X130357595Y-74938000D01*
X130405214Y-74985619D01*
X130452833Y-75080857D01*
X130452833Y-75223714D01*
X130405214Y-75318952D01*
X130357595Y-75366571D01*
X130262357Y-75414190D01*
X129881404Y-75414190D01*
X131405214Y-75890380D02*
X130833785Y-75890380D01*
X131119500Y-75890380D02*
X131119500Y-74890380D01*
X131024261Y-75033238D01*
X130929023Y-75128476D01*
X130833785Y-75176095D01*
X130452833Y-74239380D02*
X130119500Y-73763190D01*
X129881404Y-74239380D02*
X129881404Y-73239380D01*
X130262357Y-73239380D01*
X130357595Y-73287000D01*
X130405214Y-73334619D01*
X130452833Y-73429857D01*
X130452833Y-73572714D01*
X130405214Y-73667952D01*
X130357595Y-73715571D01*
X130262357Y-73763190D01*
X129881404Y-73763190D01*
X130833785Y-73334619D02*
X130881404Y-73287000D01*
X130976642Y-73239380D01*
X131214738Y-73239380D01*
X131309976Y-73287000D01*
X131357595Y-73334619D01*
X131405214Y-73429857D01*
X131405214Y-73525095D01*
X131357595Y-73667952D01*
X130786166Y-74239380D01*
X131405214Y-74239380D01*
X142581333Y-73477380D02*
X142248000Y-73001190D01*
X142009904Y-73477380D02*
X142009904Y-72477380D01*
X142390857Y-72477380D01*
X142486095Y-72525000D01*
X142533714Y-72572619D01*
X142581333Y-72667857D01*
X142581333Y-72810714D01*
X142533714Y-72905952D01*
X142486095Y-72953571D01*
X142390857Y-73001190D01*
X142009904Y-73001190D01*
X142914666Y-72477380D02*
X143533714Y-72477380D01*
X143200380Y-72858333D01*
X143343238Y-72858333D01*
X143438476Y-72905952D01*
X143486095Y-72953571D01*
X143533714Y-73048809D01*
X143533714Y-73286904D01*
X143486095Y-73382142D01*
X143438476Y-73429761D01*
X143343238Y-73477380D01*
X143057523Y-73477380D01*
X142962285Y-73429761D01*
X142914666Y-73382142D01*
X148931333Y-75636380D02*
X148598000Y-75160190D01*
X148359904Y-75636380D02*
X148359904Y-74636380D01*
X148740857Y-74636380D01*
X148836095Y-74684000D01*
X148883714Y-74731619D01*
X148931333Y-74826857D01*
X148931333Y-74969714D01*
X148883714Y-75064952D01*
X148836095Y-75112571D01*
X148740857Y-75160190D01*
X148359904Y-75160190D01*
X149788476Y-74969714D02*
X149788476Y-75636380D01*
X149550380Y-74588761D02*
X149312285Y-75303047D01*
X149931333Y-75303047D01*
X149860095Y-68286380D02*
X149860095Y-69095904D01*
X149907714Y-69191142D01*
X149955333Y-69238761D01*
X150050571Y-69286380D01*
X150241047Y-69286380D01*
X150336285Y-69238761D01*
X150383904Y-69191142D01*
X150431523Y-69095904D01*
X150431523Y-68286380D01*
X150812476Y-68286380D02*
X151431523Y-68286380D01*
X151098190Y-68667333D01*
X151241047Y-68667333D01*
X151336285Y-68714952D01*
X151383904Y-68762571D01*
X151431523Y-68857809D01*
X151431523Y-69095904D01*
X151383904Y-69191142D01*
X151336285Y-69238761D01*
X151241047Y-69286380D01*
X150955333Y-69286380D01*
X150860095Y-69238761D01*
X150812476Y-69191142D01*
X131087904Y-63698380D02*
X131087904Y-62698380D01*
X131326000Y-62698380D01*
X131468857Y-62746000D01*
X131564095Y-62841238D01*
X131611714Y-62936476D01*
X131659333Y-63126952D01*
X131659333Y-63269809D01*
X131611714Y-63460285D01*
X131564095Y-63555523D01*
X131468857Y-63650761D01*
X131326000Y-63698380D01*
X131087904Y-63698380D01*
X132040285Y-62793619D02*
X132087904Y-62746000D01*
X132183142Y-62698380D01*
X132421238Y-62698380D01*
X132516476Y-62746000D01*
X132564095Y-62793619D01*
X132611714Y-62888857D01*
X132611714Y-62984095D01*
X132564095Y-63126952D01*
X131992666Y-63698380D01*
X132611714Y-63698380D01*
X148867904Y-63952380D02*
X148867904Y-62952380D01*
X149106000Y-62952380D01*
X149248857Y-63000000D01*
X149344095Y-63095238D01*
X149391714Y-63190476D01*
X149439333Y-63380952D01*
X149439333Y-63523809D01*
X149391714Y-63714285D01*
X149344095Y-63809523D01*
X149248857Y-63904761D01*
X149106000Y-63952380D01*
X148867904Y-63952380D01*
X149772666Y-62952380D02*
X150391714Y-62952380D01*
X150058380Y-63333333D01*
X150201238Y-63333333D01*
X150296476Y-63380952D01*
X150344095Y-63428571D01*
X150391714Y-63523809D01*
X150391714Y-63761904D01*
X150344095Y-63857142D01*
X150296476Y-63904761D01*
X150201238Y-63952380D01*
X149915523Y-63952380D01*
X149820285Y-63904761D01*
X149772666Y-63857142D01*
X137461666Y-57840571D02*
X137128333Y-57840571D01*
X137128333Y-58364380D02*
X137128333Y-57364380D01*
X137604523Y-57364380D01*
X138509285Y-58364380D02*
X137937857Y-58364380D01*
X138223571Y-58364380D02*
X138223571Y-57364380D01*
X138128333Y-57507238D01*
X138033095Y-57602476D01*
X137937857Y-57650095D01*
X141382761Y-62015619D02*
X141287523Y-61968000D01*
X141192285Y-61872761D01*
X141049428Y-61729904D01*
X140954190Y-61682285D01*
X140858952Y-61682285D01*
X140906571Y-61920380D02*
X140811333Y-61872761D01*
X140716095Y-61777523D01*
X140668476Y-61587047D01*
X140668476Y-61253714D01*
X140716095Y-61063238D01*
X140811333Y-60968000D01*
X140906571Y-60920380D01*
X141097047Y-60920380D01*
X141192285Y-60968000D01*
X141287523Y-61063238D01*
X141335142Y-61253714D01*
X141335142Y-61587047D01*
X141287523Y-61777523D01*
X141192285Y-61872761D01*
X141097047Y-61920380D01*
X140906571Y-61920380D01*
X142287523Y-61920380D02*
X141716095Y-61920380D01*
X142001809Y-61920380D02*
X142001809Y-60920380D01*
X141906571Y-61063238D01*
X141811333Y-61158476D01*
X141716095Y-61206095D01*
X134453333Y-63190380D02*
X134120000Y-62714190D01*
X133881904Y-63190380D02*
X133881904Y-62190380D01*
X134262857Y-62190380D01*
X134358095Y-62238000D01*
X134405714Y-62285619D01*
X134453333Y-62380857D01*
X134453333Y-62523714D01*
X134405714Y-62618952D01*
X134358095Y-62666571D01*
X134262857Y-62714190D01*
X133881904Y-62714190D01*
X135358095Y-62190380D02*
X134881904Y-62190380D01*
X134834285Y-62666571D01*
X134881904Y-62618952D01*
X134977142Y-62571333D01*
X135215238Y-62571333D01*
X135310476Y-62618952D01*
X135358095Y-62666571D01*
X135405714Y-62761809D01*
X135405714Y-62999904D01*
X135358095Y-63095142D01*
X135310476Y-63142761D01*
X135215238Y-63190380D01*
X134977142Y-63190380D01*
X134881904Y-63142761D01*
X134834285Y-63095142D01*
X147153333Y-63698380D02*
X146820000Y-63222190D01*
X146581904Y-63698380D02*
X146581904Y-62698380D01*
X146962857Y-62698380D01*
X147058095Y-62746000D01*
X147105714Y-62793619D01*
X147153333Y-62888857D01*
X147153333Y-63031714D01*
X147105714Y-63126952D01*
X147058095Y-63174571D01*
X146962857Y-63222190D01*
X146581904Y-63222190D01*
X148010476Y-62698380D02*
X147820000Y-62698380D01*
X147724761Y-62746000D01*
X147677142Y-62793619D01*
X147581904Y-62936476D01*
X147534285Y-63126952D01*
X147534285Y-63507904D01*
X147581904Y-63603142D01*
X147629523Y-63650761D01*
X147724761Y-63698380D01*
X147915238Y-63698380D01*
X148010476Y-63650761D01*
X148058095Y-63603142D01*
X148105714Y-63507904D01*
X148105714Y-63269809D01*
X148058095Y-63174571D01*
X148010476Y-63126952D01*
X147915238Y-63079333D01*
X147724761Y-63079333D01*
X147629523Y-63126952D01*
X147581904Y-63174571D01*
X147534285Y-63269809D01*
X142198333Y-59507380D02*
X141865000Y-59031190D01*
X141626904Y-59507380D02*
X141626904Y-58507380D01*
X142007857Y-58507380D01*
X142103095Y-58555000D01*
X142150714Y-58602619D01*
X142198333Y-58697857D01*
X142198333Y-58840714D01*
X142150714Y-58935952D01*
X142103095Y-58983571D01*
X142007857Y-59031190D01*
X141626904Y-59031190D01*
X142531666Y-58507380D02*
X143198333Y-58507380D01*
X142769761Y-59507380D01*
M02*
