G04 #@! TF.GenerationSoftware,KiCad,Pcbnew,(5.1.5)-3*
G04 #@! TF.CreationDate,2021-02-08T22:28:45-08:00*
G04 #@! TF.ProjectId,MoistureSensor,4d6f6973-7475-4726-9553-656e736f722e,rev?*
G04 #@! TF.SameCoordinates,Original*
G04 #@! TF.FileFunction,Soldermask,Bot*
G04 #@! TF.FilePolarity,Negative*
%FSLAX46Y46*%
G04 Gerber Fmt 4.6, Leading zero omitted, Abs format (unit mm)*
G04 Created by KiCad (PCBNEW (5.1.5)-3) date 2021-02-08 22:28:45*
%MOMM*%
%LPD*%
G04 APERTURE LIST*
%ADD10C,0.100000*%
G04 APERTURE END LIST*
D10*
G36*
X144979806Y-55221324D02*
G01*
X145104467Y-55272960D01*
X145104469Y-55272961D01*
X145216662Y-55347926D01*
X145312074Y-55443338D01*
X145312075Y-55443340D01*
X145387040Y-55555533D01*
X145438676Y-55680194D01*
X145465000Y-55812532D01*
X145465000Y-55947468D01*
X145438676Y-56079806D01*
X145387040Y-56204467D01*
X145387039Y-56204469D01*
X145312074Y-56316662D01*
X145216662Y-56412074D01*
X145104469Y-56487039D01*
X145104468Y-56487040D01*
X145104467Y-56487040D01*
X144979806Y-56538676D01*
X144847468Y-56565000D01*
X144712532Y-56565000D01*
X144580194Y-56538676D01*
X144455533Y-56487040D01*
X144455532Y-56487040D01*
X144455531Y-56487039D01*
X144343338Y-56412074D01*
X144247926Y-56316662D01*
X144172961Y-56204469D01*
X144172960Y-56204467D01*
X144121324Y-56079806D01*
X144095000Y-55947468D01*
X144095000Y-55812532D01*
X144121324Y-55680194D01*
X144172960Y-55555533D01*
X144247925Y-55443340D01*
X144247926Y-55443338D01*
X144343338Y-55347926D01*
X144455531Y-55272961D01*
X144455533Y-55272960D01*
X144580194Y-55221324D01*
X144712532Y-55195000D01*
X144847468Y-55195000D01*
X144979806Y-55221324D01*
G37*
G36*
X139899806Y-55221324D02*
G01*
X140024467Y-55272960D01*
X140024469Y-55272961D01*
X140136662Y-55347926D01*
X140232074Y-55443338D01*
X140232075Y-55443340D01*
X140307040Y-55555533D01*
X140358676Y-55680194D01*
X140385000Y-55812532D01*
X140385000Y-55947468D01*
X140358676Y-56079806D01*
X140307040Y-56204467D01*
X140307039Y-56204469D01*
X140232074Y-56316662D01*
X140136662Y-56412074D01*
X140024469Y-56487039D01*
X140024468Y-56487040D01*
X140024467Y-56487040D01*
X139899806Y-56538676D01*
X139767468Y-56565000D01*
X139632532Y-56565000D01*
X139500194Y-56538676D01*
X139375533Y-56487040D01*
X139375532Y-56487040D01*
X139375531Y-56487039D01*
X139263338Y-56412074D01*
X139167926Y-56316662D01*
X139092961Y-56204469D01*
X139092960Y-56204467D01*
X139041324Y-56079806D01*
X139015000Y-55947468D01*
X139015000Y-55812532D01*
X139041324Y-55680194D01*
X139092960Y-55555533D01*
X139167925Y-55443340D01*
X139167926Y-55443338D01*
X139263338Y-55347926D01*
X139375531Y-55272961D01*
X139375533Y-55272960D01*
X139500194Y-55221324D01*
X139632532Y-55195000D01*
X139767468Y-55195000D01*
X139899806Y-55221324D01*
G37*
G36*
X137359806Y-55221324D02*
G01*
X137484467Y-55272960D01*
X137484469Y-55272961D01*
X137596662Y-55347926D01*
X137692074Y-55443338D01*
X137692075Y-55443340D01*
X137767040Y-55555533D01*
X137818676Y-55680194D01*
X137845000Y-55812532D01*
X137845000Y-55947468D01*
X137818676Y-56079806D01*
X137767040Y-56204467D01*
X137767039Y-56204469D01*
X137692074Y-56316662D01*
X137596662Y-56412074D01*
X137484469Y-56487039D01*
X137484468Y-56487040D01*
X137484467Y-56487040D01*
X137359806Y-56538676D01*
X137227468Y-56565000D01*
X137092532Y-56565000D01*
X136960194Y-56538676D01*
X136835533Y-56487040D01*
X136835532Y-56487040D01*
X136835531Y-56487039D01*
X136723338Y-56412074D01*
X136627926Y-56316662D01*
X136552961Y-56204469D01*
X136552960Y-56204467D01*
X136501324Y-56079806D01*
X136475000Y-55947468D01*
X136475000Y-55812532D01*
X136501324Y-55680194D01*
X136552960Y-55555533D01*
X136627925Y-55443340D01*
X136627926Y-55443338D01*
X136723338Y-55347926D01*
X136835531Y-55272961D01*
X136835533Y-55272960D01*
X136960194Y-55221324D01*
X137092532Y-55195000D01*
X137227468Y-55195000D01*
X137359806Y-55221324D01*
G37*
G36*
X142439806Y-55221324D02*
G01*
X142564467Y-55272960D01*
X142564469Y-55272961D01*
X142676662Y-55347926D01*
X142772074Y-55443338D01*
X142772075Y-55443340D01*
X142847040Y-55555533D01*
X142898676Y-55680194D01*
X142925000Y-55812532D01*
X142925000Y-55947468D01*
X142898676Y-56079806D01*
X142847040Y-56204467D01*
X142847039Y-56204469D01*
X142772074Y-56316662D01*
X142676662Y-56412074D01*
X142564469Y-56487039D01*
X142564468Y-56487040D01*
X142564467Y-56487040D01*
X142439806Y-56538676D01*
X142307468Y-56565000D01*
X142172532Y-56565000D01*
X142040194Y-56538676D01*
X141915533Y-56487040D01*
X141915532Y-56487040D01*
X141915531Y-56487039D01*
X141803338Y-56412074D01*
X141707926Y-56316662D01*
X141632961Y-56204469D01*
X141632960Y-56204467D01*
X141581324Y-56079806D01*
X141555000Y-55947468D01*
X141555000Y-55812532D01*
X141581324Y-55680194D01*
X141632960Y-55555533D01*
X141707925Y-55443340D01*
X141707926Y-55443338D01*
X141803338Y-55347926D01*
X141915531Y-55272961D01*
X141915533Y-55272960D01*
X142040194Y-55221324D01*
X142172532Y-55195000D01*
X142307468Y-55195000D01*
X142439806Y-55221324D01*
G37*
G36*
X138629806Y-52681324D02*
G01*
X138754467Y-52732960D01*
X138754469Y-52732961D01*
X138866662Y-52807926D01*
X138962074Y-52903338D01*
X138962075Y-52903340D01*
X139037040Y-53015533D01*
X139088676Y-53140194D01*
X139115000Y-53272532D01*
X139115000Y-53407468D01*
X139088676Y-53539806D01*
X139037040Y-53664467D01*
X139037039Y-53664469D01*
X138962074Y-53776662D01*
X138866662Y-53872074D01*
X138754469Y-53947039D01*
X138754468Y-53947040D01*
X138754467Y-53947040D01*
X138629806Y-53998676D01*
X138497468Y-54025000D01*
X138362532Y-54025000D01*
X138230194Y-53998676D01*
X138105533Y-53947040D01*
X138105532Y-53947040D01*
X138105531Y-53947039D01*
X137993338Y-53872074D01*
X137897926Y-53776662D01*
X137822961Y-53664469D01*
X137822960Y-53664467D01*
X137771324Y-53539806D01*
X137745000Y-53407468D01*
X137745000Y-53272532D01*
X137771324Y-53140194D01*
X137822960Y-53015533D01*
X137897925Y-52903340D01*
X137897926Y-52903338D01*
X137993338Y-52807926D01*
X138105531Y-52732961D01*
X138105533Y-52732960D01*
X138230194Y-52681324D01*
X138362532Y-52655000D01*
X138497468Y-52655000D01*
X138629806Y-52681324D01*
G37*
G36*
X136575000Y-54025000D02*
G01*
X135205000Y-54025000D01*
X135205000Y-52655000D01*
X136575000Y-52655000D01*
X136575000Y-54025000D01*
G37*
G36*
X141169806Y-52681324D02*
G01*
X141294467Y-52732960D01*
X141294469Y-52732961D01*
X141406662Y-52807926D01*
X141502074Y-52903338D01*
X141502075Y-52903340D01*
X141577040Y-53015533D01*
X141628676Y-53140194D01*
X141655000Y-53272532D01*
X141655000Y-53407468D01*
X141628676Y-53539806D01*
X141577040Y-53664467D01*
X141577039Y-53664469D01*
X141502074Y-53776662D01*
X141406662Y-53872074D01*
X141294469Y-53947039D01*
X141294468Y-53947040D01*
X141294467Y-53947040D01*
X141169806Y-53998676D01*
X141037468Y-54025000D01*
X140902532Y-54025000D01*
X140770194Y-53998676D01*
X140645533Y-53947040D01*
X140645532Y-53947040D01*
X140645531Y-53947039D01*
X140533338Y-53872074D01*
X140437926Y-53776662D01*
X140362961Y-53664469D01*
X140362960Y-53664467D01*
X140311324Y-53539806D01*
X140285000Y-53407468D01*
X140285000Y-53272532D01*
X140311324Y-53140194D01*
X140362960Y-53015533D01*
X140437925Y-52903340D01*
X140437926Y-52903338D01*
X140533338Y-52807926D01*
X140645531Y-52732961D01*
X140645533Y-52732960D01*
X140770194Y-52681324D01*
X140902532Y-52655000D01*
X141037468Y-52655000D01*
X141169806Y-52681324D01*
G37*
G36*
X143709806Y-52681324D02*
G01*
X143834467Y-52732960D01*
X143834469Y-52732961D01*
X143946662Y-52807926D01*
X144042074Y-52903338D01*
X144042075Y-52903340D01*
X144117040Y-53015533D01*
X144168676Y-53140194D01*
X144195000Y-53272532D01*
X144195000Y-53407468D01*
X144168676Y-53539806D01*
X144117040Y-53664467D01*
X144117039Y-53664469D01*
X144042074Y-53776662D01*
X143946662Y-53872074D01*
X143834469Y-53947039D01*
X143834468Y-53947040D01*
X143834467Y-53947040D01*
X143709806Y-53998676D01*
X143577468Y-54025000D01*
X143442532Y-54025000D01*
X143310194Y-53998676D01*
X143185533Y-53947040D01*
X143185532Y-53947040D01*
X143185531Y-53947039D01*
X143073338Y-53872074D01*
X142977926Y-53776662D01*
X142902961Y-53664469D01*
X142902960Y-53664467D01*
X142851324Y-53539806D01*
X142825000Y-53407468D01*
X142825000Y-53272532D01*
X142851324Y-53140194D01*
X142902960Y-53015533D01*
X142977925Y-52903340D01*
X142977926Y-52903338D01*
X143073338Y-52807926D01*
X143185531Y-52732961D01*
X143185533Y-52732960D01*
X143310194Y-52681324D01*
X143442532Y-52655000D01*
X143577468Y-52655000D01*
X143709806Y-52681324D01*
G37*
G36*
X134995256Y-45381298D02*
G01*
X135101579Y-45402447D01*
X135402042Y-45526903D01*
X135672451Y-45707585D01*
X135902415Y-45937549D01*
X136083097Y-46207958D01*
X136207553Y-46508421D01*
X136271000Y-46827391D01*
X136271000Y-47152609D01*
X136207553Y-47471579D01*
X136083097Y-47772042D01*
X135902415Y-48042451D01*
X135672451Y-48272415D01*
X135402042Y-48453097D01*
X135101579Y-48577553D01*
X134995256Y-48598702D01*
X134782611Y-48641000D01*
X134457389Y-48641000D01*
X134244744Y-48598702D01*
X134138421Y-48577553D01*
X133837958Y-48453097D01*
X133567549Y-48272415D01*
X133337585Y-48042451D01*
X133156903Y-47772042D01*
X133032447Y-47471579D01*
X132969000Y-47152609D01*
X132969000Y-46827391D01*
X133032447Y-46508421D01*
X133156903Y-46207958D01*
X133337585Y-45937549D01*
X133567549Y-45707585D01*
X133837958Y-45526903D01*
X134138421Y-45402447D01*
X134244744Y-45381298D01*
X134457389Y-45339000D01*
X134782611Y-45339000D01*
X134995256Y-45381298D01*
G37*
G36*
X146425256Y-45381298D02*
G01*
X146531579Y-45402447D01*
X146832042Y-45526903D01*
X147102451Y-45707585D01*
X147332415Y-45937549D01*
X147513097Y-46207958D01*
X147637553Y-46508421D01*
X147701000Y-46827391D01*
X147701000Y-47152609D01*
X147637553Y-47471579D01*
X147513097Y-47772042D01*
X147332415Y-48042451D01*
X147102451Y-48272415D01*
X146832042Y-48453097D01*
X146531579Y-48577553D01*
X146425256Y-48598702D01*
X146212611Y-48641000D01*
X145887389Y-48641000D01*
X145674744Y-48598702D01*
X145568421Y-48577553D01*
X145267958Y-48453097D01*
X144997549Y-48272415D01*
X144767585Y-48042451D01*
X144586903Y-47772042D01*
X144462447Y-47471579D01*
X144399000Y-47152609D01*
X144399000Y-46827391D01*
X144462447Y-46508421D01*
X144586903Y-46207958D01*
X144767585Y-45937549D01*
X144997549Y-45707585D01*
X145267958Y-45526903D01*
X145568421Y-45402447D01*
X145674744Y-45381298D01*
X145887389Y-45339000D01*
X146212611Y-45339000D01*
X146425256Y-45381298D01*
G37*
G36*
X145465000Y-41325000D02*
G01*
X144095000Y-41325000D01*
X144095000Y-39955000D01*
X145465000Y-39955000D01*
X145465000Y-41325000D01*
G37*
G36*
X142439806Y-39981324D02*
G01*
X142564467Y-40032960D01*
X142564469Y-40032961D01*
X142676662Y-40107926D01*
X142772074Y-40203338D01*
X142772075Y-40203340D01*
X142847040Y-40315533D01*
X142898676Y-40440194D01*
X142925000Y-40572532D01*
X142925000Y-40707468D01*
X142898676Y-40839806D01*
X142847040Y-40964467D01*
X142847039Y-40964469D01*
X142772074Y-41076662D01*
X142676662Y-41172074D01*
X142564469Y-41247039D01*
X142564468Y-41247040D01*
X142564467Y-41247040D01*
X142439806Y-41298676D01*
X142307468Y-41325000D01*
X142172532Y-41325000D01*
X142040194Y-41298676D01*
X141915533Y-41247040D01*
X141915532Y-41247040D01*
X141915531Y-41247039D01*
X141803338Y-41172074D01*
X141707926Y-41076662D01*
X141632961Y-40964469D01*
X141632960Y-40964467D01*
X141581324Y-40839806D01*
X141555000Y-40707468D01*
X141555000Y-40572532D01*
X141581324Y-40440194D01*
X141632960Y-40315533D01*
X141707925Y-40203340D01*
X141707926Y-40203338D01*
X141803338Y-40107926D01*
X141915531Y-40032961D01*
X141915533Y-40032960D01*
X142040194Y-39981324D01*
X142172532Y-39955000D01*
X142307468Y-39955000D01*
X142439806Y-39981324D01*
G37*
G36*
X139899806Y-39981324D02*
G01*
X140024467Y-40032960D01*
X140024469Y-40032961D01*
X140136662Y-40107926D01*
X140232074Y-40203338D01*
X140232075Y-40203340D01*
X140307040Y-40315533D01*
X140358676Y-40440194D01*
X140385000Y-40572532D01*
X140385000Y-40707468D01*
X140358676Y-40839806D01*
X140307040Y-40964467D01*
X140307039Y-40964469D01*
X140232074Y-41076662D01*
X140136662Y-41172074D01*
X140024469Y-41247039D01*
X140024468Y-41247040D01*
X140024467Y-41247040D01*
X139899806Y-41298676D01*
X139767468Y-41325000D01*
X139632532Y-41325000D01*
X139500194Y-41298676D01*
X139375533Y-41247040D01*
X139375532Y-41247040D01*
X139375531Y-41247039D01*
X139263338Y-41172074D01*
X139167926Y-41076662D01*
X139092961Y-40964469D01*
X139092960Y-40964467D01*
X139041324Y-40839806D01*
X139015000Y-40707468D01*
X139015000Y-40572532D01*
X139041324Y-40440194D01*
X139092960Y-40315533D01*
X139167925Y-40203340D01*
X139167926Y-40203338D01*
X139263338Y-40107926D01*
X139375531Y-40032961D01*
X139375533Y-40032960D01*
X139500194Y-39981324D01*
X139632532Y-39955000D01*
X139767468Y-39955000D01*
X139899806Y-39981324D01*
G37*
G36*
X137359806Y-39981324D02*
G01*
X137484467Y-40032960D01*
X137484469Y-40032961D01*
X137596662Y-40107926D01*
X137692074Y-40203338D01*
X137692075Y-40203340D01*
X137767040Y-40315533D01*
X137818676Y-40440194D01*
X137845000Y-40572532D01*
X137845000Y-40707468D01*
X137818676Y-40839806D01*
X137767040Y-40964467D01*
X137767039Y-40964469D01*
X137692074Y-41076662D01*
X137596662Y-41172074D01*
X137484469Y-41247039D01*
X137484468Y-41247040D01*
X137484467Y-41247040D01*
X137359806Y-41298676D01*
X137227468Y-41325000D01*
X137092532Y-41325000D01*
X136960194Y-41298676D01*
X136835533Y-41247040D01*
X136835532Y-41247040D01*
X136835531Y-41247039D01*
X136723338Y-41172074D01*
X136627926Y-41076662D01*
X136552961Y-40964469D01*
X136552960Y-40964467D01*
X136501324Y-40839806D01*
X136475000Y-40707468D01*
X136475000Y-40572532D01*
X136501324Y-40440194D01*
X136552960Y-40315533D01*
X136627925Y-40203340D01*
X136627926Y-40203338D01*
X136723338Y-40107926D01*
X136835531Y-40032961D01*
X136835533Y-40032960D01*
X136960194Y-39981324D01*
X137092532Y-39955000D01*
X137227468Y-39955000D01*
X137359806Y-39981324D01*
G37*
G36*
X136089806Y-37441324D02*
G01*
X136214467Y-37492960D01*
X136214469Y-37492961D01*
X136326662Y-37567926D01*
X136422074Y-37663338D01*
X136422075Y-37663340D01*
X136497040Y-37775533D01*
X136548676Y-37900194D01*
X136575000Y-38032532D01*
X136575000Y-38167468D01*
X136548676Y-38299806D01*
X136497040Y-38424467D01*
X136497039Y-38424469D01*
X136422074Y-38536662D01*
X136326662Y-38632074D01*
X136214469Y-38707039D01*
X136214468Y-38707040D01*
X136214467Y-38707040D01*
X136089806Y-38758676D01*
X135957468Y-38785000D01*
X135822532Y-38785000D01*
X135690194Y-38758676D01*
X135565533Y-38707040D01*
X135565532Y-38707040D01*
X135565531Y-38707039D01*
X135453338Y-38632074D01*
X135357926Y-38536662D01*
X135282961Y-38424469D01*
X135282960Y-38424467D01*
X135231324Y-38299806D01*
X135205000Y-38167468D01*
X135205000Y-38032532D01*
X135231324Y-37900194D01*
X135282960Y-37775533D01*
X135357925Y-37663340D01*
X135357926Y-37663338D01*
X135453338Y-37567926D01*
X135565531Y-37492961D01*
X135565533Y-37492960D01*
X135690194Y-37441324D01*
X135822532Y-37415000D01*
X135957468Y-37415000D01*
X136089806Y-37441324D01*
G37*
G36*
X143709806Y-37441324D02*
G01*
X143834467Y-37492960D01*
X143834469Y-37492961D01*
X143946662Y-37567926D01*
X144042074Y-37663338D01*
X144042075Y-37663340D01*
X144117040Y-37775533D01*
X144168676Y-37900194D01*
X144195000Y-38032532D01*
X144195000Y-38167468D01*
X144168676Y-38299806D01*
X144117040Y-38424467D01*
X144117039Y-38424469D01*
X144042074Y-38536662D01*
X143946662Y-38632074D01*
X143834469Y-38707039D01*
X143834468Y-38707040D01*
X143834467Y-38707040D01*
X143709806Y-38758676D01*
X143577468Y-38785000D01*
X143442532Y-38785000D01*
X143310194Y-38758676D01*
X143185533Y-38707040D01*
X143185532Y-38707040D01*
X143185531Y-38707039D01*
X143073338Y-38632074D01*
X142977926Y-38536662D01*
X142902961Y-38424469D01*
X142902960Y-38424467D01*
X142851324Y-38299806D01*
X142825000Y-38167468D01*
X142825000Y-38032532D01*
X142851324Y-37900194D01*
X142902960Y-37775533D01*
X142977925Y-37663340D01*
X142977926Y-37663338D01*
X143073338Y-37567926D01*
X143185531Y-37492961D01*
X143185533Y-37492960D01*
X143310194Y-37441324D01*
X143442532Y-37415000D01*
X143577468Y-37415000D01*
X143709806Y-37441324D01*
G37*
G36*
X138629806Y-37441324D02*
G01*
X138754467Y-37492960D01*
X138754469Y-37492961D01*
X138866662Y-37567926D01*
X138962074Y-37663338D01*
X138962075Y-37663340D01*
X139037040Y-37775533D01*
X139088676Y-37900194D01*
X139115000Y-38032532D01*
X139115000Y-38167468D01*
X139088676Y-38299806D01*
X139037040Y-38424467D01*
X139037039Y-38424469D01*
X138962074Y-38536662D01*
X138866662Y-38632074D01*
X138754469Y-38707039D01*
X138754468Y-38707040D01*
X138754467Y-38707040D01*
X138629806Y-38758676D01*
X138497468Y-38785000D01*
X138362532Y-38785000D01*
X138230194Y-38758676D01*
X138105533Y-38707040D01*
X138105532Y-38707040D01*
X138105531Y-38707039D01*
X137993338Y-38632074D01*
X137897926Y-38536662D01*
X137822961Y-38424469D01*
X137822960Y-38424467D01*
X137771324Y-38299806D01*
X137745000Y-38167468D01*
X137745000Y-38032532D01*
X137771324Y-37900194D01*
X137822960Y-37775533D01*
X137897925Y-37663340D01*
X137897926Y-37663338D01*
X137993338Y-37567926D01*
X138105531Y-37492961D01*
X138105533Y-37492960D01*
X138230194Y-37441324D01*
X138362532Y-37415000D01*
X138497468Y-37415000D01*
X138629806Y-37441324D01*
G37*
G36*
X141169806Y-37441324D02*
G01*
X141294467Y-37492960D01*
X141294469Y-37492961D01*
X141406662Y-37567926D01*
X141502074Y-37663338D01*
X141502075Y-37663340D01*
X141577040Y-37775533D01*
X141628676Y-37900194D01*
X141655000Y-38032532D01*
X141655000Y-38167468D01*
X141628676Y-38299806D01*
X141577040Y-38424467D01*
X141577039Y-38424469D01*
X141502074Y-38536662D01*
X141406662Y-38632074D01*
X141294469Y-38707039D01*
X141294468Y-38707040D01*
X141294467Y-38707040D01*
X141169806Y-38758676D01*
X141037468Y-38785000D01*
X140902532Y-38785000D01*
X140770194Y-38758676D01*
X140645533Y-38707040D01*
X140645532Y-38707040D01*
X140645531Y-38707039D01*
X140533338Y-38632074D01*
X140437926Y-38536662D01*
X140362961Y-38424469D01*
X140362960Y-38424467D01*
X140311324Y-38299806D01*
X140285000Y-38167468D01*
X140285000Y-38032532D01*
X140311324Y-37900194D01*
X140362960Y-37775533D01*
X140437925Y-37663340D01*
X140437926Y-37663338D01*
X140533338Y-37567926D01*
X140645531Y-37492961D01*
X140645533Y-37492960D01*
X140770194Y-37441324D01*
X140902532Y-37415000D01*
X141037468Y-37415000D01*
X141169806Y-37441324D01*
G37*
M02*
