G04 #@! TF.GenerationSoftware,KiCad,Pcbnew,(5.1.5)-3*
G04 #@! TF.CreationDate,2021-06-03T21:37:04-07:00*
G04 #@! TF.ProjectId,GrowController,47726f77-436f-46e7-9472-6f6c6c65722e,rev?*
G04 #@! TF.SameCoordinates,Original*
G04 #@! TF.FileFunction,Soldermask,Bot*
G04 #@! TF.FilePolarity,Negative*
%FSLAX46Y46*%
G04 Gerber Fmt 4.6, Leading zero omitted, Abs format (unit mm)*
G04 Created by KiCad (PCBNEW (5.1.5)-3) date 2021-06-03 21:37:04*
%MOMM*%
%LPD*%
G04 APERTURE LIST*
%ADD10C,0.100000*%
G04 APERTURE END LIST*
D10*
G36*
X54375256Y-144391298D02*
G01*
X54481579Y-144412447D01*
X54782042Y-144536903D01*
X55052451Y-144717585D01*
X55282415Y-144947549D01*
X55463097Y-145217958D01*
X55587553Y-145518421D01*
X55651000Y-145837391D01*
X55651000Y-146162609D01*
X55587553Y-146481579D01*
X55463097Y-146782042D01*
X55282415Y-147052451D01*
X55052451Y-147282415D01*
X54782042Y-147463097D01*
X54481579Y-147587553D01*
X54375256Y-147608702D01*
X54162611Y-147651000D01*
X53837389Y-147651000D01*
X53624744Y-147608702D01*
X53518421Y-147587553D01*
X53217958Y-147463097D01*
X52947549Y-147282415D01*
X52717585Y-147052451D01*
X52536903Y-146782042D01*
X52412447Y-146481579D01*
X52349000Y-146162609D01*
X52349000Y-145837391D01*
X52412447Y-145518421D01*
X52536903Y-145217958D01*
X52717585Y-144947549D01*
X52947549Y-144717585D01*
X53217958Y-144536903D01*
X53518421Y-144412447D01*
X53624744Y-144391298D01*
X53837389Y-144349000D01*
X54162611Y-144349000D01*
X54375256Y-144391298D01*
G37*
G36*
X246375256Y-144391298D02*
G01*
X246481579Y-144412447D01*
X246782042Y-144536903D01*
X247052451Y-144717585D01*
X247282415Y-144947549D01*
X247463097Y-145217958D01*
X247587553Y-145518421D01*
X247651000Y-145837391D01*
X247651000Y-146162609D01*
X247587553Y-146481579D01*
X247463097Y-146782042D01*
X247282415Y-147052451D01*
X247052451Y-147282415D01*
X246782042Y-147463097D01*
X246481579Y-147587553D01*
X246375256Y-147608702D01*
X246162611Y-147651000D01*
X245837389Y-147651000D01*
X245624744Y-147608702D01*
X245518421Y-147587553D01*
X245217958Y-147463097D01*
X244947549Y-147282415D01*
X244717585Y-147052451D01*
X244536903Y-146782042D01*
X244412447Y-146481579D01*
X244349000Y-146162609D01*
X244349000Y-145837391D01*
X244412447Y-145518421D01*
X244536903Y-145217958D01*
X244717585Y-144947549D01*
X244947549Y-144717585D01*
X245217958Y-144536903D01*
X245518421Y-144412447D01*
X245624744Y-144391298D01*
X245837389Y-144349000D01*
X246162611Y-144349000D01*
X246375256Y-144391298D01*
G37*
G36*
X140787585Y-143768802D02*
G01*
X140937410Y-143798604D01*
X141219674Y-143915521D01*
X141473705Y-144085259D01*
X141689741Y-144301295D01*
X141859479Y-144555326D01*
X141976396Y-144837590D01*
X142036000Y-145137240D01*
X142036000Y-145442760D01*
X141976396Y-145742410D01*
X141859479Y-146024674D01*
X141689741Y-146278705D01*
X141473705Y-146494741D01*
X141219674Y-146664479D01*
X140937410Y-146781396D01*
X140787585Y-146811198D01*
X140637761Y-146841000D01*
X140332239Y-146841000D01*
X140182415Y-146811198D01*
X140032590Y-146781396D01*
X139750326Y-146664479D01*
X139496295Y-146494741D01*
X139280259Y-146278705D01*
X139110521Y-146024674D01*
X138993604Y-145742410D01*
X138934000Y-145442760D01*
X138934000Y-145137240D01*
X138993604Y-144837590D01*
X139110521Y-144555326D01*
X139280259Y-144301295D01*
X139496295Y-144085259D01*
X139750326Y-143915521D01*
X140032590Y-143798604D01*
X140182415Y-143768802D01*
X140332239Y-143739000D01*
X140637761Y-143739000D01*
X140787585Y-143768802D01*
G37*
G36*
X120467585Y-143768802D02*
G01*
X120617410Y-143798604D01*
X120899674Y-143915521D01*
X121153705Y-144085259D01*
X121369741Y-144301295D01*
X121539479Y-144555326D01*
X121656396Y-144837590D01*
X121716000Y-145137240D01*
X121716000Y-145442760D01*
X121656396Y-145742410D01*
X121539479Y-146024674D01*
X121369741Y-146278705D01*
X121153705Y-146494741D01*
X120899674Y-146664479D01*
X120617410Y-146781396D01*
X120467585Y-146811198D01*
X120317761Y-146841000D01*
X120012239Y-146841000D01*
X119862415Y-146811198D01*
X119712590Y-146781396D01*
X119430326Y-146664479D01*
X119176295Y-146494741D01*
X118960259Y-146278705D01*
X118790521Y-146024674D01*
X118673604Y-145742410D01*
X118614000Y-145442760D01*
X118614000Y-145137240D01*
X118673604Y-144837590D01*
X118790521Y-144555326D01*
X118960259Y-144301295D01*
X119176295Y-144085259D01*
X119430326Y-143915521D01*
X119712590Y-143798604D01*
X119862415Y-143768802D01*
X120012239Y-143739000D01*
X120317761Y-143739000D01*
X120467585Y-143768802D01*
G37*
G36*
X125247585Y-143768802D02*
G01*
X125397410Y-143798604D01*
X125679674Y-143915521D01*
X125933705Y-144085259D01*
X126149741Y-144301295D01*
X126319479Y-144555326D01*
X126436396Y-144837590D01*
X126496000Y-145137240D01*
X126496000Y-145442760D01*
X126436396Y-145742410D01*
X126319479Y-146024674D01*
X126149741Y-146278705D01*
X125933705Y-146494741D01*
X125679674Y-146664479D01*
X125397410Y-146781396D01*
X125247585Y-146811198D01*
X125097761Y-146841000D01*
X124792239Y-146841000D01*
X124642415Y-146811198D01*
X124492590Y-146781396D01*
X124210326Y-146664479D01*
X123956295Y-146494741D01*
X123740259Y-146278705D01*
X123570521Y-146024674D01*
X123453604Y-145742410D01*
X123394000Y-145442760D01*
X123394000Y-145137240D01*
X123453604Y-144837590D01*
X123570521Y-144555326D01*
X123740259Y-144301295D01*
X123956295Y-144085259D01*
X124210326Y-143915521D01*
X124492590Y-143798604D01*
X124642415Y-143768802D01*
X124792239Y-143739000D01*
X125097761Y-143739000D01*
X125247585Y-143768802D01*
G37*
G36*
X100147585Y-143768802D02*
G01*
X100297410Y-143798604D01*
X100579674Y-143915521D01*
X100833705Y-144085259D01*
X101049741Y-144301295D01*
X101219479Y-144555326D01*
X101336396Y-144837590D01*
X101396000Y-145137240D01*
X101396000Y-145442760D01*
X101336396Y-145742410D01*
X101219479Y-146024674D01*
X101049741Y-146278705D01*
X100833705Y-146494741D01*
X100579674Y-146664479D01*
X100297410Y-146781396D01*
X100147585Y-146811198D01*
X99997761Y-146841000D01*
X99692239Y-146841000D01*
X99542415Y-146811198D01*
X99392590Y-146781396D01*
X99110326Y-146664479D01*
X98856295Y-146494741D01*
X98640259Y-146278705D01*
X98470521Y-146024674D01*
X98353604Y-145742410D01*
X98294000Y-145442760D01*
X98294000Y-145137240D01*
X98353604Y-144837590D01*
X98470521Y-144555326D01*
X98640259Y-144301295D01*
X98856295Y-144085259D01*
X99110326Y-143915521D01*
X99392590Y-143798604D01*
X99542415Y-143768802D01*
X99692239Y-143739000D01*
X99997761Y-143739000D01*
X100147585Y-143768802D01*
G37*
G36*
X104927585Y-143768802D02*
G01*
X105077410Y-143798604D01*
X105359674Y-143915521D01*
X105613705Y-144085259D01*
X105829741Y-144301295D01*
X105999479Y-144555326D01*
X106116396Y-144837590D01*
X106176000Y-145137240D01*
X106176000Y-145442760D01*
X106116396Y-145742410D01*
X105999479Y-146024674D01*
X105829741Y-146278705D01*
X105613705Y-146494741D01*
X105359674Y-146664479D01*
X105077410Y-146781396D01*
X104927585Y-146811198D01*
X104777761Y-146841000D01*
X104472239Y-146841000D01*
X104322415Y-146811198D01*
X104172590Y-146781396D01*
X103890326Y-146664479D01*
X103636295Y-146494741D01*
X103420259Y-146278705D01*
X103250521Y-146024674D01*
X103133604Y-145742410D01*
X103074000Y-145442760D01*
X103074000Y-145137240D01*
X103133604Y-144837590D01*
X103250521Y-144555326D01*
X103420259Y-144301295D01*
X103636295Y-144085259D01*
X103890326Y-143915521D01*
X104172590Y-143798604D01*
X104322415Y-143768802D01*
X104472239Y-143739000D01*
X104777761Y-143739000D01*
X104927585Y-143768802D01*
G37*
G36*
X84607585Y-143768802D02*
G01*
X84757410Y-143798604D01*
X85039674Y-143915521D01*
X85293705Y-144085259D01*
X85509741Y-144301295D01*
X85679479Y-144555326D01*
X85796396Y-144837590D01*
X85856000Y-145137240D01*
X85856000Y-145442760D01*
X85796396Y-145742410D01*
X85679479Y-146024674D01*
X85509741Y-146278705D01*
X85293705Y-146494741D01*
X85039674Y-146664479D01*
X84757410Y-146781396D01*
X84607585Y-146811198D01*
X84457761Y-146841000D01*
X84152239Y-146841000D01*
X84002415Y-146811198D01*
X83852590Y-146781396D01*
X83570326Y-146664479D01*
X83316295Y-146494741D01*
X83100259Y-146278705D01*
X82930521Y-146024674D01*
X82813604Y-145742410D01*
X82754000Y-145442760D01*
X82754000Y-145137240D01*
X82813604Y-144837590D01*
X82930521Y-144555326D01*
X83100259Y-144301295D01*
X83316295Y-144085259D01*
X83570326Y-143915521D01*
X83852590Y-143798604D01*
X84002415Y-143768802D01*
X84152239Y-143739000D01*
X84457761Y-143739000D01*
X84607585Y-143768802D01*
G37*
G36*
X204583512Y-143248927D02*
G01*
X204732812Y-143278624D01*
X204896784Y-143346544D01*
X205044354Y-143445147D01*
X205169853Y-143570646D01*
X205268456Y-143718216D01*
X205336376Y-143882188D01*
X205371000Y-144056259D01*
X205371000Y-144233741D01*
X205336376Y-144407812D01*
X205268456Y-144571784D01*
X205169853Y-144719354D01*
X205044354Y-144844853D01*
X204896784Y-144943456D01*
X204732812Y-145011376D01*
X204583512Y-145041073D01*
X204558742Y-145046000D01*
X204381258Y-145046000D01*
X204356488Y-145041073D01*
X204207188Y-145011376D01*
X204043216Y-144943456D01*
X203895646Y-144844853D01*
X203770147Y-144719354D01*
X203671544Y-144571784D01*
X203603624Y-144407812D01*
X203569000Y-144233741D01*
X203569000Y-144056259D01*
X203603624Y-143882188D01*
X203671544Y-143718216D01*
X203770147Y-143570646D01*
X203895646Y-143445147D01*
X204043216Y-143346544D01*
X204207188Y-143278624D01*
X204356488Y-143248927D01*
X204381258Y-143244000D01*
X204558742Y-143244000D01*
X204583512Y-143248927D01*
G37*
G36*
X195211000Y-145046000D02*
G01*
X193409000Y-145046000D01*
X193409000Y-143244000D01*
X195211000Y-143244000D01*
X195211000Y-145046000D01*
G37*
G36*
X196963512Y-143248927D02*
G01*
X197112812Y-143278624D01*
X197276784Y-143346544D01*
X197424354Y-143445147D01*
X197549853Y-143570646D01*
X197648456Y-143718216D01*
X197716376Y-143882188D01*
X197751000Y-144056259D01*
X197751000Y-144233741D01*
X197716376Y-144407812D01*
X197648456Y-144571784D01*
X197549853Y-144719354D01*
X197424354Y-144844853D01*
X197276784Y-144943456D01*
X197112812Y-145011376D01*
X196963512Y-145041073D01*
X196938742Y-145046000D01*
X196761258Y-145046000D01*
X196736488Y-145041073D01*
X196587188Y-145011376D01*
X196423216Y-144943456D01*
X196275646Y-144844853D01*
X196150147Y-144719354D01*
X196051544Y-144571784D01*
X195983624Y-144407812D01*
X195949000Y-144233741D01*
X195949000Y-144056259D01*
X195983624Y-143882188D01*
X196051544Y-143718216D01*
X196150147Y-143570646D01*
X196275646Y-143445147D01*
X196423216Y-143346544D01*
X196587188Y-143278624D01*
X196736488Y-143248927D01*
X196761258Y-143244000D01*
X196938742Y-143244000D01*
X196963512Y-143248927D01*
G37*
G36*
X199503512Y-143248927D02*
G01*
X199652812Y-143278624D01*
X199816784Y-143346544D01*
X199964354Y-143445147D01*
X200089853Y-143570646D01*
X200188456Y-143718216D01*
X200256376Y-143882188D01*
X200291000Y-144056259D01*
X200291000Y-144233741D01*
X200256376Y-144407812D01*
X200188456Y-144571784D01*
X200089853Y-144719354D01*
X199964354Y-144844853D01*
X199816784Y-144943456D01*
X199652812Y-145011376D01*
X199503512Y-145041073D01*
X199478742Y-145046000D01*
X199301258Y-145046000D01*
X199276488Y-145041073D01*
X199127188Y-145011376D01*
X198963216Y-144943456D01*
X198815646Y-144844853D01*
X198690147Y-144719354D01*
X198591544Y-144571784D01*
X198523624Y-144407812D01*
X198489000Y-144233741D01*
X198489000Y-144056259D01*
X198523624Y-143882188D01*
X198591544Y-143718216D01*
X198690147Y-143570646D01*
X198815646Y-143445147D01*
X198963216Y-143346544D01*
X199127188Y-143278624D01*
X199276488Y-143248927D01*
X199301258Y-143244000D01*
X199478742Y-143244000D01*
X199503512Y-143248927D01*
G37*
G36*
X202043512Y-143248927D02*
G01*
X202192812Y-143278624D01*
X202356784Y-143346544D01*
X202504354Y-143445147D01*
X202629853Y-143570646D01*
X202728456Y-143718216D01*
X202796376Y-143882188D01*
X202831000Y-144056259D01*
X202831000Y-144233741D01*
X202796376Y-144407812D01*
X202728456Y-144571784D01*
X202629853Y-144719354D01*
X202504354Y-144844853D01*
X202356784Y-144943456D01*
X202192812Y-145011376D01*
X202043512Y-145041073D01*
X202018742Y-145046000D01*
X201841258Y-145046000D01*
X201816488Y-145041073D01*
X201667188Y-145011376D01*
X201503216Y-144943456D01*
X201355646Y-144844853D01*
X201230147Y-144719354D01*
X201131544Y-144571784D01*
X201063624Y-144407812D01*
X201029000Y-144233741D01*
X201029000Y-144056259D01*
X201063624Y-143882188D01*
X201131544Y-143718216D01*
X201230147Y-143570646D01*
X201355646Y-143445147D01*
X201503216Y-143346544D01*
X201667188Y-143278624D01*
X201816488Y-143248927D01*
X201841258Y-143244000D01*
X202018742Y-143244000D01*
X202043512Y-143248927D01*
G37*
G36*
X209663512Y-143248927D02*
G01*
X209812812Y-143278624D01*
X209976784Y-143346544D01*
X210124354Y-143445147D01*
X210249853Y-143570646D01*
X210348456Y-143718216D01*
X210416376Y-143882188D01*
X210451000Y-144056259D01*
X210451000Y-144233741D01*
X210416376Y-144407812D01*
X210348456Y-144571784D01*
X210249853Y-144719354D01*
X210124354Y-144844853D01*
X209976784Y-144943456D01*
X209812812Y-145011376D01*
X209663512Y-145041073D01*
X209638742Y-145046000D01*
X209461258Y-145046000D01*
X209436488Y-145041073D01*
X209287188Y-145011376D01*
X209123216Y-144943456D01*
X208975646Y-144844853D01*
X208850147Y-144719354D01*
X208751544Y-144571784D01*
X208683624Y-144407812D01*
X208649000Y-144233741D01*
X208649000Y-144056259D01*
X208683624Y-143882188D01*
X208751544Y-143718216D01*
X208850147Y-143570646D01*
X208975646Y-143445147D01*
X209123216Y-143346544D01*
X209287188Y-143278624D01*
X209436488Y-143248927D01*
X209461258Y-143244000D01*
X209638742Y-143244000D01*
X209663512Y-143248927D01*
G37*
G36*
X188073512Y-143248927D02*
G01*
X188222812Y-143278624D01*
X188386784Y-143346544D01*
X188534354Y-143445147D01*
X188659853Y-143570646D01*
X188758456Y-143718216D01*
X188826376Y-143882188D01*
X188861000Y-144056259D01*
X188861000Y-144233741D01*
X188826376Y-144407812D01*
X188758456Y-144571784D01*
X188659853Y-144719354D01*
X188534354Y-144844853D01*
X188386784Y-144943456D01*
X188222812Y-145011376D01*
X188073512Y-145041073D01*
X188048742Y-145046000D01*
X187871258Y-145046000D01*
X187846488Y-145041073D01*
X187697188Y-145011376D01*
X187533216Y-144943456D01*
X187385646Y-144844853D01*
X187260147Y-144719354D01*
X187161544Y-144571784D01*
X187093624Y-144407812D01*
X187059000Y-144233741D01*
X187059000Y-144056259D01*
X187093624Y-143882188D01*
X187161544Y-143718216D01*
X187260147Y-143570646D01*
X187385646Y-143445147D01*
X187533216Y-143346544D01*
X187697188Y-143278624D01*
X187846488Y-143248927D01*
X187871258Y-143244000D01*
X188048742Y-143244000D01*
X188073512Y-143248927D01*
G37*
G36*
X185533512Y-143248927D02*
G01*
X185682812Y-143278624D01*
X185846784Y-143346544D01*
X185994354Y-143445147D01*
X186119853Y-143570646D01*
X186218456Y-143718216D01*
X186286376Y-143882188D01*
X186321000Y-144056259D01*
X186321000Y-144233741D01*
X186286376Y-144407812D01*
X186218456Y-144571784D01*
X186119853Y-144719354D01*
X185994354Y-144844853D01*
X185846784Y-144943456D01*
X185682812Y-145011376D01*
X185533512Y-145041073D01*
X185508742Y-145046000D01*
X185331258Y-145046000D01*
X185306488Y-145041073D01*
X185157188Y-145011376D01*
X184993216Y-144943456D01*
X184845646Y-144844853D01*
X184720147Y-144719354D01*
X184621544Y-144571784D01*
X184553624Y-144407812D01*
X184519000Y-144233741D01*
X184519000Y-144056259D01*
X184553624Y-143882188D01*
X184621544Y-143718216D01*
X184720147Y-143570646D01*
X184845646Y-143445147D01*
X184993216Y-143346544D01*
X185157188Y-143278624D01*
X185306488Y-143248927D01*
X185331258Y-143244000D01*
X185508742Y-143244000D01*
X185533512Y-143248927D01*
G37*
G36*
X182993512Y-143248927D02*
G01*
X183142812Y-143278624D01*
X183306784Y-143346544D01*
X183454354Y-143445147D01*
X183579853Y-143570646D01*
X183678456Y-143718216D01*
X183746376Y-143882188D01*
X183781000Y-144056259D01*
X183781000Y-144233741D01*
X183746376Y-144407812D01*
X183678456Y-144571784D01*
X183579853Y-144719354D01*
X183454354Y-144844853D01*
X183306784Y-144943456D01*
X183142812Y-145011376D01*
X182993512Y-145041073D01*
X182968742Y-145046000D01*
X182791258Y-145046000D01*
X182766488Y-145041073D01*
X182617188Y-145011376D01*
X182453216Y-144943456D01*
X182305646Y-144844853D01*
X182180147Y-144719354D01*
X182081544Y-144571784D01*
X182013624Y-144407812D01*
X181979000Y-144233741D01*
X181979000Y-144056259D01*
X182013624Y-143882188D01*
X182081544Y-143718216D01*
X182180147Y-143570646D01*
X182305646Y-143445147D01*
X182453216Y-143346544D01*
X182617188Y-143278624D01*
X182766488Y-143248927D01*
X182791258Y-143244000D01*
X182968742Y-143244000D01*
X182993512Y-143248927D01*
G37*
G36*
X180453512Y-143248927D02*
G01*
X180602812Y-143278624D01*
X180766784Y-143346544D01*
X180914354Y-143445147D01*
X181039853Y-143570646D01*
X181138456Y-143718216D01*
X181206376Y-143882188D01*
X181241000Y-144056259D01*
X181241000Y-144233741D01*
X181206376Y-144407812D01*
X181138456Y-144571784D01*
X181039853Y-144719354D01*
X180914354Y-144844853D01*
X180766784Y-144943456D01*
X180602812Y-145011376D01*
X180453512Y-145041073D01*
X180428742Y-145046000D01*
X180251258Y-145046000D01*
X180226488Y-145041073D01*
X180077188Y-145011376D01*
X179913216Y-144943456D01*
X179765646Y-144844853D01*
X179640147Y-144719354D01*
X179541544Y-144571784D01*
X179473624Y-144407812D01*
X179439000Y-144233741D01*
X179439000Y-144056259D01*
X179473624Y-143882188D01*
X179541544Y-143718216D01*
X179640147Y-143570646D01*
X179765646Y-143445147D01*
X179913216Y-143346544D01*
X180077188Y-143278624D01*
X180226488Y-143248927D01*
X180251258Y-143244000D01*
X180428742Y-143244000D01*
X180453512Y-143248927D01*
G37*
G36*
X177913512Y-143248927D02*
G01*
X178062812Y-143278624D01*
X178226784Y-143346544D01*
X178374354Y-143445147D01*
X178499853Y-143570646D01*
X178598456Y-143718216D01*
X178666376Y-143882188D01*
X178701000Y-144056259D01*
X178701000Y-144233741D01*
X178666376Y-144407812D01*
X178598456Y-144571784D01*
X178499853Y-144719354D01*
X178374354Y-144844853D01*
X178226784Y-144943456D01*
X178062812Y-145011376D01*
X177913512Y-145041073D01*
X177888742Y-145046000D01*
X177711258Y-145046000D01*
X177686488Y-145041073D01*
X177537188Y-145011376D01*
X177373216Y-144943456D01*
X177225646Y-144844853D01*
X177100147Y-144719354D01*
X177001544Y-144571784D01*
X176933624Y-144407812D01*
X176899000Y-144233741D01*
X176899000Y-144056259D01*
X176933624Y-143882188D01*
X177001544Y-143718216D01*
X177100147Y-143570646D01*
X177225646Y-143445147D01*
X177373216Y-143346544D01*
X177537188Y-143278624D01*
X177686488Y-143248927D01*
X177711258Y-143244000D01*
X177888742Y-143244000D01*
X177913512Y-143248927D01*
G37*
G36*
X175373512Y-143248927D02*
G01*
X175522812Y-143278624D01*
X175686784Y-143346544D01*
X175834354Y-143445147D01*
X175959853Y-143570646D01*
X176058456Y-143718216D01*
X176126376Y-143882188D01*
X176161000Y-144056259D01*
X176161000Y-144233741D01*
X176126376Y-144407812D01*
X176058456Y-144571784D01*
X175959853Y-144719354D01*
X175834354Y-144844853D01*
X175686784Y-144943456D01*
X175522812Y-145011376D01*
X175373512Y-145041073D01*
X175348742Y-145046000D01*
X175171258Y-145046000D01*
X175146488Y-145041073D01*
X174997188Y-145011376D01*
X174833216Y-144943456D01*
X174685646Y-144844853D01*
X174560147Y-144719354D01*
X174461544Y-144571784D01*
X174393624Y-144407812D01*
X174359000Y-144233741D01*
X174359000Y-144056259D01*
X174393624Y-143882188D01*
X174461544Y-143718216D01*
X174560147Y-143570646D01*
X174685646Y-143445147D01*
X174833216Y-143346544D01*
X174997188Y-143278624D01*
X175146488Y-143248927D01*
X175171258Y-143244000D01*
X175348742Y-143244000D01*
X175373512Y-143248927D01*
G37*
G36*
X173621000Y-145046000D02*
G01*
X171819000Y-145046000D01*
X171819000Y-143244000D01*
X173621000Y-143244000D01*
X173621000Y-145046000D01*
G37*
G36*
X207123512Y-143248927D02*
G01*
X207272812Y-143278624D01*
X207436784Y-143346544D01*
X207584354Y-143445147D01*
X207709853Y-143570646D01*
X207808456Y-143718216D01*
X207876376Y-143882188D01*
X207911000Y-144056259D01*
X207911000Y-144233741D01*
X207876376Y-144407812D01*
X207808456Y-144571784D01*
X207709853Y-144719354D01*
X207584354Y-144844853D01*
X207436784Y-144943456D01*
X207272812Y-145011376D01*
X207123512Y-145041073D01*
X207098742Y-145046000D01*
X206921258Y-145046000D01*
X206896488Y-145041073D01*
X206747188Y-145011376D01*
X206583216Y-144943456D01*
X206435646Y-144844853D01*
X206310147Y-144719354D01*
X206211544Y-144571784D01*
X206143624Y-144407812D01*
X206109000Y-144233741D01*
X206109000Y-144056259D01*
X206143624Y-143882188D01*
X206211544Y-143718216D01*
X206310147Y-143570646D01*
X206435646Y-143445147D01*
X206583216Y-143346544D01*
X206747188Y-143278624D01*
X206896488Y-143248927D01*
X206921258Y-143244000D01*
X207098742Y-143244000D01*
X207123512Y-143248927D01*
G37*
G36*
X153783512Y-143248927D02*
G01*
X153932812Y-143278624D01*
X154096784Y-143346544D01*
X154244354Y-143445147D01*
X154369853Y-143570646D01*
X154468456Y-143718216D01*
X154536376Y-143882188D01*
X154571000Y-144056259D01*
X154571000Y-144233741D01*
X154536376Y-144407812D01*
X154468456Y-144571784D01*
X154369853Y-144719354D01*
X154244354Y-144844853D01*
X154096784Y-144943456D01*
X153932812Y-145011376D01*
X153783512Y-145041073D01*
X153758742Y-145046000D01*
X153581258Y-145046000D01*
X153556488Y-145041073D01*
X153407188Y-145011376D01*
X153243216Y-144943456D01*
X153095646Y-144844853D01*
X152970147Y-144719354D01*
X152871544Y-144571784D01*
X152803624Y-144407812D01*
X152769000Y-144233741D01*
X152769000Y-144056259D01*
X152803624Y-143882188D01*
X152871544Y-143718216D01*
X152970147Y-143570646D01*
X153095646Y-143445147D01*
X153243216Y-143346544D01*
X153407188Y-143278624D01*
X153556488Y-143248927D01*
X153581258Y-143244000D01*
X153758742Y-143244000D01*
X153783512Y-143248927D01*
G37*
G36*
X226173512Y-143248927D02*
G01*
X226322812Y-143278624D01*
X226486784Y-143346544D01*
X226634354Y-143445147D01*
X226759853Y-143570646D01*
X226858456Y-143718216D01*
X226926376Y-143882188D01*
X226961000Y-144056259D01*
X226961000Y-144233741D01*
X226926376Y-144407812D01*
X226858456Y-144571784D01*
X226759853Y-144719354D01*
X226634354Y-144844853D01*
X226486784Y-144943456D01*
X226322812Y-145011376D01*
X226173512Y-145041073D01*
X226148742Y-145046000D01*
X225971258Y-145046000D01*
X225946488Y-145041073D01*
X225797188Y-145011376D01*
X225633216Y-144943456D01*
X225485646Y-144844853D01*
X225360147Y-144719354D01*
X225261544Y-144571784D01*
X225193624Y-144407812D01*
X225159000Y-144233741D01*
X225159000Y-144056259D01*
X225193624Y-143882188D01*
X225261544Y-143718216D01*
X225360147Y-143570646D01*
X225485646Y-143445147D01*
X225633216Y-143346544D01*
X225797188Y-143278624D01*
X225946488Y-143248927D01*
X225971258Y-143244000D01*
X226148742Y-143244000D01*
X226173512Y-143248927D01*
G37*
G36*
X223633512Y-143248927D02*
G01*
X223782812Y-143278624D01*
X223946784Y-143346544D01*
X224094354Y-143445147D01*
X224219853Y-143570646D01*
X224318456Y-143718216D01*
X224386376Y-143882188D01*
X224421000Y-144056259D01*
X224421000Y-144233741D01*
X224386376Y-144407812D01*
X224318456Y-144571784D01*
X224219853Y-144719354D01*
X224094354Y-144844853D01*
X223946784Y-144943456D01*
X223782812Y-145011376D01*
X223633512Y-145041073D01*
X223608742Y-145046000D01*
X223431258Y-145046000D01*
X223406488Y-145041073D01*
X223257188Y-145011376D01*
X223093216Y-144943456D01*
X222945646Y-144844853D01*
X222820147Y-144719354D01*
X222721544Y-144571784D01*
X222653624Y-144407812D01*
X222619000Y-144233741D01*
X222619000Y-144056259D01*
X222653624Y-143882188D01*
X222721544Y-143718216D01*
X222820147Y-143570646D01*
X222945646Y-143445147D01*
X223093216Y-143346544D01*
X223257188Y-143278624D01*
X223406488Y-143248927D01*
X223431258Y-143244000D01*
X223608742Y-143244000D01*
X223633512Y-143248927D01*
G37*
G36*
X221093512Y-143248927D02*
G01*
X221242812Y-143278624D01*
X221406784Y-143346544D01*
X221554354Y-143445147D01*
X221679853Y-143570646D01*
X221778456Y-143718216D01*
X221846376Y-143882188D01*
X221881000Y-144056259D01*
X221881000Y-144233741D01*
X221846376Y-144407812D01*
X221778456Y-144571784D01*
X221679853Y-144719354D01*
X221554354Y-144844853D01*
X221406784Y-144943456D01*
X221242812Y-145011376D01*
X221093512Y-145041073D01*
X221068742Y-145046000D01*
X220891258Y-145046000D01*
X220866488Y-145041073D01*
X220717188Y-145011376D01*
X220553216Y-144943456D01*
X220405646Y-144844853D01*
X220280147Y-144719354D01*
X220181544Y-144571784D01*
X220113624Y-144407812D01*
X220079000Y-144233741D01*
X220079000Y-144056259D01*
X220113624Y-143882188D01*
X220181544Y-143718216D01*
X220280147Y-143570646D01*
X220405646Y-143445147D01*
X220553216Y-143346544D01*
X220717188Y-143278624D01*
X220866488Y-143248927D01*
X220891258Y-143244000D01*
X221068742Y-143244000D01*
X221093512Y-143248927D01*
G37*
G36*
X218553512Y-143248927D02*
G01*
X218702812Y-143278624D01*
X218866784Y-143346544D01*
X219014354Y-143445147D01*
X219139853Y-143570646D01*
X219238456Y-143718216D01*
X219306376Y-143882188D01*
X219341000Y-144056259D01*
X219341000Y-144233741D01*
X219306376Y-144407812D01*
X219238456Y-144571784D01*
X219139853Y-144719354D01*
X219014354Y-144844853D01*
X218866784Y-144943456D01*
X218702812Y-145011376D01*
X218553512Y-145041073D01*
X218528742Y-145046000D01*
X218351258Y-145046000D01*
X218326488Y-145041073D01*
X218177188Y-145011376D01*
X218013216Y-144943456D01*
X217865646Y-144844853D01*
X217740147Y-144719354D01*
X217641544Y-144571784D01*
X217573624Y-144407812D01*
X217539000Y-144233741D01*
X217539000Y-144056259D01*
X217573624Y-143882188D01*
X217641544Y-143718216D01*
X217740147Y-143570646D01*
X217865646Y-143445147D01*
X218013216Y-143346544D01*
X218177188Y-143278624D01*
X218326488Y-143248927D01*
X218351258Y-143244000D01*
X218528742Y-143244000D01*
X218553512Y-143248927D01*
G37*
G36*
X216801000Y-145046000D02*
G01*
X214999000Y-145046000D01*
X214999000Y-143244000D01*
X216801000Y-143244000D01*
X216801000Y-145046000D01*
G37*
G36*
X152031000Y-145046000D02*
G01*
X150229000Y-145046000D01*
X150229000Y-143244000D01*
X152031000Y-143244000D01*
X152031000Y-145046000D01*
G37*
G36*
X156323512Y-143248927D02*
G01*
X156472812Y-143278624D01*
X156636784Y-143346544D01*
X156784354Y-143445147D01*
X156909853Y-143570646D01*
X157008456Y-143718216D01*
X157076376Y-143882188D01*
X157111000Y-144056259D01*
X157111000Y-144233741D01*
X157076376Y-144407812D01*
X157008456Y-144571784D01*
X156909853Y-144719354D01*
X156784354Y-144844853D01*
X156636784Y-144943456D01*
X156472812Y-145011376D01*
X156323512Y-145041073D01*
X156298742Y-145046000D01*
X156121258Y-145046000D01*
X156096488Y-145041073D01*
X155947188Y-145011376D01*
X155783216Y-144943456D01*
X155635646Y-144844853D01*
X155510147Y-144719354D01*
X155411544Y-144571784D01*
X155343624Y-144407812D01*
X155309000Y-144233741D01*
X155309000Y-144056259D01*
X155343624Y-143882188D01*
X155411544Y-143718216D01*
X155510147Y-143570646D01*
X155635646Y-143445147D01*
X155783216Y-143346544D01*
X155947188Y-143278624D01*
X156096488Y-143248927D01*
X156121258Y-143244000D01*
X156298742Y-143244000D01*
X156323512Y-143248927D01*
G37*
G36*
X158863512Y-143248927D02*
G01*
X159012812Y-143278624D01*
X159176784Y-143346544D01*
X159324354Y-143445147D01*
X159449853Y-143570646D01*
X159548456Y-143718216D01*
X159616376Y-143882188D01*
X159651000Y-144056259D01*
X159651000Y-144233741D01*
X159616376Y-144407812D01*
X159548456Y-144571784D01*
X159449853Y-144719354D01*
X159324354Y-144844853D01*
X159176784Y-144943456D01*
X159012812Y-145011376D01*
X158863512Y-145041073D01*
X158838742Y-145046000D01*
X158661258Y-145046000D01*
X158636488Y-145041073D01*
X158487188Y-145011376D01*
X158323216Y-144943456D01*
X158175646Y-144844853D01*
X158050147Y-144719354D01*
X157951544Y-144571784D01*
X157883624Y-144407812D01*
X157849000Y-144233741D01*
X157849000Y-144056259D01*
X157883624Y-143882188D01*
X157951544Y-143718216D01*
X158050147Y-143570646D01*
X158175646Y-143445147D01*
X158323216Y-143346544D01*
X158487188Y-143278624D01*
X158636488Y-143248927D01*
X158661258Y-143244000D01*
X158838742Y-143244000D01*
X158863512Y-143248927D01*
G37*
G36*
X161403512Y-143248927D02*
G01*
X161552812Y-143278624D01*
X161716784Y-143346544D01*
X161864354Y-143445147D01*
X161989853Y-143570646D01*
X162088456Y-143718216D01*
X162156376Y-143882188D01*
X162191000Y-144056259D01*
X162191000Y-144233741D01*
X162156376Y-144407812D01*
X162088456Y-144571784D01*
X161989853Y-144719354D01*
X161864354Y-144844853D01*
X161716784Y-144943456D01*
X161552812Y-145011376D01*
X161403512Y-145041073D01*
X161378742Y-145046000D01*
X161201258Y-145046000D01*
X161176488Y-145041073D01*
X161027188Y-145011376D01*
X160863216Y-144943456D01*
X160715646Y-144844853D01*
X160590147Y-144719354D01*
X160491544Y-144571784D01*
X160423624Y-144407812D01*
X160389000Y-144233741D01*
X160389000Y-144056259D01*
X160423624Y-143882188D01*
X160491544Y-143718216D01*
X160590147Y-143570646D01*
X160715646Y-143445147D01*
X160863216Y-143346544D01*
X161027188Y-143278624D01*
X161176488Y-143248927D01*
X161201258Y-143244000D01*
X161378742Y-143244000D01*
X161403512Y-143248927D01*
G37*
G36*
X163943512Y-143248927D02*
G01*
X164092812Y-143278624D01*
X164256784Y-143346544D01*
X164404354Y-143445147D01*
X164529853Y-143570646D01*
X164628456Y-143718216D01*
X164696376Y-143882188D01*
X164731000Y-144056259D01*
X164731000Y-144233741D01*
X164696376Y-144407812D01*
X164628456Y-144571784D01*
X164529853Y-144719354D01*
X164404354Y-144844853D01*
X164256784Y-144943456D01*
X164092812Y-145011376D01*
X163943512Y-145041073D01*
X163918742Y-145046000D01*
X163741258Y-145046000D01*
X163716488Y-145041073D01*
X163567188Y-145011376D01*
X163403216Y-144943456D01*
X163255646Y-144844853D01*
X163130147Y-144719354D01*
X163031544Y-144571784D01*
X162963624Y-144407812D01*
X162929000Y-144233741D01*
X162929000Y-144056259D01*
X162963624Y-143882188D01*
X163031544Y-143718216D01*
X163130147Y-143570646D01*
X163255646Y-143445147D01*
X163403216Y-143346544D01*
X163567188Y-143278624D01*
X163716488Y-143248927D01*
X163741258Y-143244000D01*
X163918742Y-143244000D01*
X163943512Y-143248927D01*
G37*
G36*
X166483512Y-143248927D02*
G01*
X166632812Y-143278624D01*
X166796784Y-143346544D01*
X166944354Y-143445147D01*
X167069853Y-143570646D01*
X167168456Y-143718216D01*
X167236376Y-143882188D01*
X167271000Y-144056259D01*
X167271000Y-144233741D01*
X167236376Y-144407812D01*
X167168456Y-144571784D01*
X167069853Y-144719354D01*
X166944354Y-144844853D01*
X166796784Y-144943456D01*
X166632812Y-145011376D01*
X166483512Y-145041073D01*
X166458742Y-145046000D01*
X166281258Y-145046000D01*
X166256488Y-145041073D01*
X166107188Y-145011376D01*
X165943216Y-144943456D01*
X165795646Y-144844853D01*
X165670147Y-144719354D01*
X165571544Y-144571784D01*
X165503624Y-144407812D01*
X165469000Y-144233741D01*
X165469000Y-144056259D01*
X165503624Y-143882188D01*
X165571544Y-143718216D01*
X165670147Y-143570646D01*
X165795646Y-143445147D01*
X165943216Y-143346544D01*
X166107188Y-143278624D01*
X166256488Y-143248927D01*
X166281258Y-143244000D01*
X166458742Y-143244000D01*
X166483512Y-143248927D01*
G37*
G36*
X231253512Y-143248927D02*
G01*
X231402812Y-143278624D01*
X231566784Y-143346544D01*
X231714354Y-143445147D01*
X231839853Y-143570646D01*
X231938456Y-143718216D01*
X232006376Y-143882188D01*
X232041000Y-144056259D01*
X232041000Y-144233741D01*
X232006376Y-144407812D01*
X231938456Y-144571784D01*
X231839853Y-144719354D01*
X231714354Y-144844853D01*
X231566784Y-144943456D01*
X231402812Y-145011376D01*
X231253512Y-145041073D01*
X231228742Y-145046000D01*
X231051258Y-145046000D01*
X231026488Y-145041073D01*
X230877188Y-145011376D01*
X230713216Y-144943456D01*
X230565646Y-144844853D01*
X230440147Y-144719354D01*
X230341544Y-144571784D01*
X230273624Y-144407812D01*
X230239000Y-144233741D01*
X230239000Y-144056259D01*
X230273624Y-143882188D01*
X230341544Y-143718216D01*
X230440147Y-143570646D01*
X230565646Y-143445147D01*
X230713216Y-143346544D01*
X230877188Y-143278624D01*
X231026488Y-143248927D01*
X231051258Y-143244000D01*
X231228742Y-143244000D01*
X231253512Y-143248927D01*
G37*
G36*
X228713512Y-143248927D02*
G01*
X228862812Y-143278624D01*
X229026784Y-143346544D01*
X229174354Y-143445147D01*
X229299853Y-143570646D01*
X229398456Y-143718216D01*
X229466376Y-143882188D01*
X229501000Y-144056259D01*
X229501000Y-144233741D01*
X229466376Y-144407812D01*
X229398456Y-144571784D01*
X229299853Y-144719354D01*
X229174354Y-144844853D01*
X229026784Y-144943456D01*
X228862812Y-145011376D01*
X228713512Y-145041073D01*
X228688742Y-145046000D01*
X228511258Y-145046000D01*
X228486488Y-145041073D01*
X228337188Y-145011376D01*
X228173216Y-144943456D01*
X228025646Y-144844853D01*
X227900147Y-144719354D01*
X227801544Y-144571784D01*
X227733624Y-144407812D01*
X227699000Y-144233741D01*
X227699000Y-144056259D01*
X227733624Y-143882188D01*
X227801544Y-143718216D01*
X227900147Y-143570646D01*
X228025646Y-143445147D01*
X228173216Y-143346544D01*
X228337188Y-143278624D01*
X228486488Y-143248927D01*
X228511258Y-143244000D01*
X228688742Y-143244000D01*
X228713512Y-143248927D01*
G37*
G36*
X98278871Y-140628408D02*
G01*
X98583883Y-140754748D01*
X98858387Y-140938166D01*
X99091834Y-141171613D01*
X99275252Y-141446117D01*
X99401592Y-141751129D01*
X99401592Y-141751130D01*
X99466000Y-142074927D01*
X99466000Y-142405073D01*
X99452811Y-142471376D01*
X99401592Y-142728871D01*
X99275252Y-143033883D01*
X99091834Y-143308387D01*
X98858387Y-143541834D01*
X98583883Y-143725252D01*
X98278871Y-143851592D01*
X98125055Y-143882188D01*
X97955073Y-143916000D01*
X97624927Y-143916000D01*
X97454945Y-143882188D01*
X97301129Y-143851592D01*
X96996117Y-143725252D01*
X96721613Y-143541834D01*
X96488166Y-143308387D01*
X96304748Y-143033883D01*
X96178408Y-142728871D01*
X96127189Y-142471376D01*
X96114000Y-142405073D01*
X96114000Y-142074927D01*
X96178408Y-141751130D01*
X96178408Y-141751129D01*
X96304748Y-141446117D01*
X96488166Y-141171613D01*
X96721613Y-140938166D01*
X96996117Y-140754748D01*
X97301129Y-140628408D01*
X97624927Y-140564000D01*
X97955073Y-140564000D01*
X98278871Y-140628408D01*
G37*
G36*
X138918871Y-140628408D02*
G01*
X139223883Y-140754748D01*
X139498387Y-140938166D01*
X139731834Y-141171613D01*
X139915252Y-141446117D01*
X140041592Y-141751129D01*
X140041592Y-141751130D01*
X140106000Y-142074927D01*
X140106000Y-142405073D01*
X140092811Y-142471376D01*
X140041592Y-142728871D01*
X139915252Y-143033883D01*
X139731834Y-143308387D01*
X139498387Y-143541834D01*
X139223883Y-143725252D01*
X138918871Y-143851592D01*
X138765055Y-143882188D01*
X138595073Y-143916000D01*
X138264927Y-143916000D01*
X138094945Y-143882188D01*
X137941129Y-143851592D01*
X137636117Y-143725252D01*
X137361613Y-143541834D01*
X137128166Y-143308387D01*
X136944748Y-143033883D01*
X136818408Y-142728871D01*
X136767189Y-142471376D01*
X136754000Y-142405073D01*
X136754000Y-142074927D01*
X136818408Y-141751130D01*
X136818408Y-141751129D01*
X136944748Y-141446117D01*
X137128166Y-141171613D01*
X137361613Y-140938166D01*
X137636117Y-140754748D01*
X137941129Y-140628408D01*
X138264927Y-140564000D01*
X138595073Y-140564000D01*
X138918871Y-140628408D01*
G37*
G36*
X127488871Y-140628408D02*
G01*
X127793883Y-140754748D01*
X128068387Y-140938166D01*
X128301834Y-141171613D01*
X128485252Y-141446117D01*
X128611592Y-141751129D01*
X128611592Y-141751130D01*
X128676000Y-142074927D01*
X128676000Y-142405073D01*
X128662811Y-142471376D01*
X128611592Y-142728871D01*
X128485252Y-143033883D01*
X128301834Y-143308387D01*
X128068387Y-143541834D01*
X127793883Y-143725252D01*
X127488871Y-143851592D01*
X127335055Y-143882188D01*
X127165073Y-143916000D01*
X126834927Y-143916000D01*
X126664945Y-143882188D01*
X126511129Y-143851592D01*
X126206117Y-143725252D01*
X125931613Y-143541834D01*
X125698166Y-143308387D01*
X125514748Y-143033883D01*
X125388408Y-142728871D01*
X125337189Y-142471376D01*
X125324000Y-142405073D01*
X125324000Y-142074927D01*
X125388408Y-141751130D01*
X125388408Y-141751129D01*
X125514748Y-141446117D01*
X125698166Y-141171613D01*
X125931613Y-140938166D01*
X126206117Y-140754748D01*
X126511129Y-140628408D01*
X126834927Y-140564000D01*
X127165073Y-140564000D01*
X127488871Y-140628408D01*
G37*
G36*
X86848871Y-140628408D02*
G01*
X87153883Y-140754748D01*
X87428387Y-140938166D01*
X87661834Y-141171613D01*
X87845252Y-141446117D01*
X87971592Y-141751129D01*
X87971592Y-141751130D01*
X88036000Y-142074927D01*
X88036000Y-142405073D01*
X88022811Y-142471376D01*
X87971592Y-142728871D01*
X87845252Y-143033883D01*
X87661834Y-143308387D01*
X87428387Y-143541834D01*
X87153883Y-143725252D01*
X86848871Y-143851592D01*
X86695055Y-143882188D01*
X86525073Y-143916000D01*
X86194927Y-143916000D01*
X86024945Y-143882188D01*
X85871129Y-143851592D01*
X85566117Y-143725252D01*
X85291613Y-143541834D01*
X85058166Y-143308387D01*
X84874748Y-143033883D01*
X84748408Y-142728871D01*
X84697189Y-142471376D01*
X84684000Y-142405073D01*
X84684000Y-142074927D01*
X84748408Y-141751130D01*
X84748408Y-141751129D01*
X84874748Y-141446117D01*
X85058166Y-141171613D01*
X85291613Y-140938166D01*
X85566117Y-140754748D01*
X85871129Y-140628408D01*
X86194927Y-140564000D01*
X86525073Y-140564000D01*
X86848871Y-140628408D01*
G37*
G36*
X118598871Y-140628408D02*
G01*
X118903883Y-140754748D01*
X119178387Y-140938166D01*
X119411834Y-141171613D01*
X119595252Y-141446117D01*
X119721592Y-141751129D01*
X119721592Y-141751130D01*
X119786000Y-142074927D01*
X119786000Y-142405073D01*
X119772811Y-142471376D01*
X119721592Y-142728871D01*
X119595252Y-143033883D01*
X119411834Y-143308387D01*
X119178387Y-143541834D01*
X118903883Y-143725252D01*
X118598871Y-143851592D01*
X118445055Y-143882188D01*
X118275073Y-143916000D01*
X117944927Y-143916000D01*
X117774945Y-143882188D01*
X117621129Y-143851592D01*
X117316117Y-143725252D01*
X117041613Y-143541834D01*
X116808166Y-143308387D01*
X116624748Y-143033883D01*
X116498408Y-142728871D01*
X116447189Y-142471376D01*
X116434000Y-142405073D01*
X116434000Y-142074927D01*
X116498408Y-141751130D01*
X116498408Y-141751129D01*
X116624748Y-141446117D01*
X116808166Y-141171613D01*
X117041613Y-140938166D01*
X117316117Y-140754748D01*
X117621129Y-140628408D01*
X117944927Y-140564000D01*
X118275073Y-140564000D01*
X118598871Y-140628408D01*
G37*
G36*
X107168871Y-140628408D02*
G01*
X107473883Y-140754748D01*
X107748387Y-140938166D01*
X107981834Y-141171613D01*
X108165252Y-141446117D01*
X108291592Y-141751129D01*
X108291592Y-141751130D01*
X108356000Y-142074927D01*
X108356000Y-142405073D01*
X108342811Y-142471376D01*
X108291592Y-142728871D01*
X108165252Y-143033883D01*
X107981834Y-143308387D01*
X107748387Y-143541834D01*
X107473883Y-143725252D01*
X107168871Y-143851592D01*
X107015055Y-143882188D01*
X106845073Y-143916000D01*
X106514927Y-143916000D01*
X106344945Y-143882188D01*
X106191129Y-143851592D01*
X105886117Y-143725252D01*
X105611613Y-143541834D01*
X105378166Y-143308387D01*
X105194748Y-143033883D01*
X105068408Y-142728871D01*
X105017189Y-142471376D01*
X105004000Y-142405073D01*
X105004000Y-142074927D01*
X105068408Y-141751130D01*
X105068408Y-141751129D01*
X105194748Y-141446117D01*
X105378166Y-141171613D01*
X105611613Y-140938166D01*
X105886117Y-140754748D01*
X106191129Y-140628408D01*
X106514927Y-140564000D01*
X106845073Y-140564000D01*
X107168871Y-140628408D01*
G37*
G36*
X185533512Y-140708927D02*
G01*
X185682812Y-140738624D01*
X185846784Y-140806544D01*
X185994354Y-140905147D01*
X186119853Y-141030646D01*
X186218456Y-141178216D01*
X186286376Y-141342188D01*
X186321000Y-141516259D01*
X186321000Y-141693741D01*
X186286376Y-141867812D01*
X186218456Y-142031784D01*
X186119853Y-142179354D01*
X185994354Y-142304853D01*
X185846784Y-142403456D01*
X185682812Y-142471376D01*
X185533512Y-142501073D01*
X185508742Y-142506000D01*
X185331258Y-142506000D01*
X185306488Y-142501073D01*
X185157188Y-142471376D01*
X184993216Y-142403456D01*
X184845646Y-142304853D01*
X184720147Y-142179354D01*
X184621544Y-142031784D01*
X184553624Y-141867812D01*
X184519000Y-141693741D01*
X184519000Y-141516259D01*
X184553624Y-141342188D01*
X184621544Y-141178216D01*
X184720147Y-141030646D01*
X184845646Y-140905147D01*
X184993216Y-140806544D01*
X185157188Y-140738624D01*
X185306488Y-140708927D01*
X185331258Y-140704000D01*
X185508742Y-140704000D01*
X185533512Y-140708927D01*
G37*
G36*
X209663512Y-140708927D02*
G01*
X209812812Y-140738624D01*
X209976784Y-140806544D01*
X210124354Y-140905147D01*
X210249853Y-141030646D01*
X210348456Y-141178216D01*
X210416376Y-141342188D01*
X210451000Y-141516259D01*
X210451000Y-141693741D01*
X210416376Y-141867812D01*
X210348456Y-142031784D01*
X210249853Y-142179354D01*
X210124354Y-142304853D01*
X209976784Y-142403456D01*
X209812812Y-142471376D01*
X209663512Y-142501073D01*
X209638742Y-142506000D01*
X209461258Y-142506000D01*
X209436488Y-142501073D01*
X209287188Y-142471376D01*
X209123216Y-142403456D01*
X208975646Y-142304853D01*
X208850147Y-142179354D01*
X208751544Y-142031784D01*
X208683624Y-141867812D01*
X208649000Y-141693741D01*
X208649000Y-141516259D01*
X208683624Y-141342188D01*
X208751544Y-141178216D01*
X208850147Y-141030646D01*
X208975646Y-140905147D01*
X209123216Y-140806544D01*
X209287188Y-140738624D01*
X209436488Y-140708927D01*
X209461258Y-140704000D01*
X209638742Y-140704000D01*
X209663512Y-140708927D01*
G37*
G36*
X188073512Y-140708927D02*
G01*
X188222812Y-140738624D01*
X188386784Y-140806544D01*
X188534354Y-140905147D01*
X188659853Y-141030646D01*
X188758456Y-141178216D01*
X188826376Y-141342188D01*
X188861000Y-141516259D01*
X188861000Y-141693741D01*
X188826376Y-141867812D01*
X188758456Y-142031784D01*
X188659853Y-142179354D01*
X188534354Y-142304853D01*
X188386784Y-142403456D01*
X188222812Y-142471376D01*
X188073512Y-142501073D01*
X188048742Y-142506000D01*
X187871258Y-142506000D01*
X187846488Y-142501073D01*
X187697188Y-142471376D01*
X187533216Y-142403456D01*
X187385646Y-142304853D01*
X187260147Y-142179354D01*
X187161544Y-142031784D01*
X187093624Y-141867812D01*
X187059000Y-141693741D01*
X187059000Y-141516259D01*
X187093624Y-141342188D01*
X187161544Y-141178216D01*
X187260147Y-141030646D01*
X187385646Y-140905147D01*
X187533216Y-140806544D01*
X187697188Y-140738624D01*
X187846488Y-140708927D01*
X187871258Y-140704000D01*
X188048742Y-140704000D01*
X188073512Y-140708927D01*
G37*
G36*
X175373512Y-140708927D02*
G01*
X175522812Y-140738624D01*
X175686784Y-140806544D01*
X175834354Y-140905147D01*
X175959853Y-141030646D01*
X176058456Y-141178216D01*
X176126376Y-141342188D01*
X176161000Y-141516259D01*
X176161000Y-141693741D01*
X176126376Y-141867812D01*
X176058456Y-142031784D01*
X175959853Y-142179354D01*
X175834354Y-142304853D01*
X175686784Y-142403456D01*
X175522812Y-142471376D01*
X175373512Y-142501073D01*
X175348742Y-142506000D01*
X175171258Y-142506000D01*
X175146488Y-142501073D01*
X174997188Y-142471376D01*
X174833216Y-142403456D01*
X174685646Y-142304853D01*
X174560147Y-142179354D01*
X174461544Y-142031784D01*
X174393624Y-141867812D01*
X174359000Y-141693741D01*
X174359000Y-141516259D01*
X174393624Y-141342188D01*
X174461544Y-141178216D01*
X174560147Y-141030646D01*
X174685646Y-140905147D01*
X174833216Y-140806544D01*
X174997188Y-140738624D01*
X175146488Y-140708927D01*
X175171258Y-140704000D01*
X175348742Y-140704000D01*
X175373512Y-140708927D01*
G37*
G36*
X172833512Y-140708927D02*
G01*
X172982812Y-140738624D01*
X173146784Y-140806544D01*
X173294354Y-140905147D01*
X173419853Y-141030646D01*
X173518456Y-141178216D01*
X173586376Y-141342188D01*
X173621000Y-141516259D01*
X173621000Y-141693741D01*
X173586376Y-141867812D01*
X173518456Y-142031784D01*
X173419853Y-142179354D01*
X173294354Y-142304853D01*
X173146784Y-142403456D01*
X172982812Y-142471376D01*
X172833512Y-142501073D01*
X172808742Y-142506000D01*
X172631258Y-142506000D01*
X172606488Y-142501073D01*
X172457188Y-142471376D01*
X172293216Y-142403456D01*
X172145646Y-142304853D01*
X172020147Y-142179354D01*
X171921544Y-142031784D01*
X171853624Y-141867812D01*
X171819000Y-141693741D01*
X171819000Y-141516259D01*
X171853624Y-141342188D01*
X171921544Y-141178216D01*
X172020147Y-141030646D01*
X172145646Y-140905147D01*
X172293216Y-140806544D01*
X172457188Y-140738624D01*
X172606488Y-140708927D01*
X172631258Y-140704000D01*
X172808742Y-140704000D01*
X172833512Y-140708927D01*
G37*
G36*
X218553512Y-140708927D02*
G01*
X218702812Y-140738624D01*
X218866784Y-140806544D01*
X219014354Y-140905147D01*
X219139853Y-141030646D01*
X219238456Y-141178216D01*
X219306376Y-141342188D01*
X219341000Y-141516259D01*
X219341000Y-141693741D01*
X219306376Y-141867812D01*
X219238456Y-142031784D01*
X219139853Y-142179354D01*
X219014354Y-142304853D01*
X218866784Y-142403456D01*
X218702812Y-142471376D01*
X218553512Y-142501073D01*
X218528742Y-142506000D01*
X218351258Y-142506000D01*
X218326488Y-142501073D01*
X218177188Y-142471376D01*
X218013216Y-142403456D01*
X217865646Y-142304853D01*
X217740147Y-142179354D01*
X217641544Y-142031784D01*
X217573624Y-141867812D01*
X217539000Y-141693741D01*
X217539000Y-141516259D01*
X217573624Y-141342188D01*
X217641544Y-141178216D01*
X217740147Y-141030646D01*
X217865646Y-140905147D01*
X218013216Y-140806544D01*
X218177188Y-140738624D01*
X218326488Y-140708927D01*
X218351258Y-140704000D01*
X218528742Y-140704000D01*
X218553512Y-140708927D01*
G37*
G36*
X216013512Y-140708927D02*
G01*
X216162812Y-140738624D01*
X216326784Y-140806544D01*
X216474354Y-140905147D01*
X216599853Y-141030646D01*
X216698456Y-141178216D01*
X216766376Y-141342188D01*
X216801000Y-141516259D01*
X216801000Y-141693741D01*
X216766376Y-141867812D01*
X216698456Y-142031784D01*
X216599853Y-142179354D01*
X216474354Y-142304853D01*
X216326784Y-142403456D01*
X216162812Y-142471376D01*
X216013512Y-142501073D01*
X215988742Y-142506000D01*
X215811258Y-142506000D01*
X215786488Y-142501073D01*
X215637188Y-142471376D01*
X215473216Y-142403456D01*
X215325646Y-142304853D01*
X215200147Y-142179354D01*
X215101544Y-142031784D01*
X215033624Y-141867812D01*
X214999000Y-141693741D01*
X214999000Y-141516259D01*
X215033624Y-141342188D01*
X215101544Y-141178216D01*
X215200147Y-141030646D01*
X215325646Y-140905147D01*
X215473216Y-140806544D01*
X215637188Y-140738624D01*
X215786488Y-140708927D01*
X215811258Y-140704000D01*
X215988742Y-140704000D01*
X216013512Y-140708927D01*
G37*
G36*
X177913512Y-140708927D02*
G01*
X178062812Y-140738624D01*
X178226784Y-140806544D01*
X178374354Y-140905147D01*
X178499853Y-141030646D01*
X178598456Y-141178216D01*
X178666376Y-141342188D01*
X178701000Y-141516259D01*
X178701000Y-141693741D01*
X178666376Y-141867812D01*
X178598456Y-142031784D01*
X178499853Y-142179354D01*
X178374354Y-142304853D01*
X178226784Y-142403456D01*
X178062812Y-142471376D01*
X177913512Y-142501073D01*
X177888742Y-142506000D01*
X177711258Y-142506000D01*
X177686488Y-142501073D01*
X177537188Y-142471376D01*
X177373216Y-142403456D01*
X177225646Y-142304853D01*
X177100147Y-142179354D01*
X177001544Y-142031784D01*
X176933624Y-141867812D01*
X176899000Y-141693741D01*
X176899000Y-141516259D01*
X176933624Y-141342188D01*
X177001544Y-141178216D01*
X177100147Y-141030646D01*
X177225646Y-140905147D01*
X177373216Y-140806544D01*
X177537188Y-140738624D01*
X177686488Y-140708927D01*
X177711258Y-140704000D01*
X177888742Y-140704000D01*
X177913512Y-140708927D01*
G37*
G36*
X151243512Y-140708927D02*
G01*
X151392812Y-140738624D01*
X151556784Y-140806544D01*
X151704354Y-140905147D01*
X151829853Y-141030646D01*
X151928456Y-141178216D01*
X151996376Y-141342188D01*
X152031000Y-141516259D01*
X152031000Y-141693741D01*
X151996376Y-141867812D01*
X151928456Y-142031784D01*
X151829853Y-142179354D01*
X151704354Y-142304853D01*
X151556784Y-142403456D01*
X151392812Y-142471376D01*
X151243512Y-142501073D01*
X151218742Y-142506000D01*
X151041258Y-142506000D01*
X151016488Y-142501073D01*
X150867188Y-142471376D01*
X150703216Y-142403456D01*
X150555646Y-142304853D01*
X150430147Y-142179354D01*
X150331544Y-142031784D01*
X150263624Y-141867812D01*
X150229000Y-141693741D01*
X150229000Y-141516259D01*
X150263624Y-141342188D01*
X150331544Y-141178216D01*
X150430147Y-141030646D01*
X150555646Y-140905147D01*
X150703216Y-140806544D01*
X150867188Y-140738624D01*
X151016488Y-140708927D01*
X151041258Y-140704000D01*
X151218742Y-140704000D01*
X151243512Y-140708927D01*
G37*
G36*
X194423512Y-140708927D02*
G01*
X194572812Y-140738624D01*
X194736784Y-140806544D01*
X194884354Y-140905147D01*
X195009853Y-141030646D01*
X195108456Y-141178216D01*
X195176376Y-141342188D01*
X195211000Y-141516259D01*
X195211000Y-141693741D01*
X195176376Y-141867812D01*
X195108456Y-142031784D01*
X195009853Y-142179354D01*
X194884354Y-142304853D01*
X194736784Y-142403456D01*
X194572812Y-142471376D01*
X194423512Y-142501073D01*
X194398742Y-142506000D01*
X194221258Y-142506000D01*
X194196488Y-142501073D01*
X194047188Y-142471376D01*
X193883216Y-142403456D01*
X193735646Y-142304853D01*
X193610147Y-142179354D01*
X193511544Y-142031784D01*
X193443624Y-141867812D01*
X193409000Y-141693741D01*
X193409000Y-141516259D01*
X193443624Y-141342188D01*
X193511544Y-141178216D01*
X193610147Y-141030646D01*
X193735646Y-140905147D01*
X193883216Y-140806544D01*
X194047188Y-140738624D01*
X194196488Y-140708927D01*
X194221258Y-140704000D01*
X194398742Y-140704000D01*
X194423512Y-140708927D01*
G37*
G36*
X153783512Y-140708927D02*
G01*
X153932812Y-140738624D01*
X154096784Y-140806544D01*
X154244354Y-140905147D01*
X154369853Y-141030646D01*
X154468456Y-141178216D01*
X154536376Y-141342188D01*
X154571000Y-141516259D01*
X154571000Y-141693741D01*
X154536376Y-141867812D01*
X154468456Y-142031784D01*
X154369853Y-142179354D01*
X154244354Y-142304853D01*
X154096784Y-142403456D01*
X153932812Y-142471376D01*
X153783512Y-142501073D01*
X153758742Y-142506000D01*
X153581258Y-142506000D01*
X153556488Y-142501073D01*
X153407188Y-142471376D01*
X153243216Y-142403456D01*
X153095646Y-142304853D01*
X152970147Y-142179354D01*
X152871544Y-142031784D01*
X152803624Y-141867812D01*
X152769000Y-141693741D01*
X152769000Y-141516259D01*
X152803624Y-141342188D01*
X152871544Y-141178216D01*
X152970147Y-141030646D01*
X153095646Y-140905147D01*
X153243216Y-140806544D01*
X153407188Y-140738624D01*
X153556488Y-140708927D01*
X153581258Y-140704000D01*
X153758742Y-140704000D01*
X153783512Y-140708927D01*
G37*
G36*
X196963512Y-140708927D02*
G01*
X197112812Y-140738624D01*
X197276784Y-140806544D01*
X197424354Y-140905147D01*
X197549853Y-141030646D01*
X197648456Y-141178216D01*
X197716376Y-141342188D01*
X197751000Y-141516259D01*
X197751000Y-141693741D01*
X197716376Y-141867812D01*
X197648456Y-142031784D01*
X197549853Y-142179354D01*
X197424354Y-142304853D01*
X197276784Y-142403456D01*
X197112812Y-142471376D01*
X196963512Y-142501073D01*
X196938742Y-142506000D01*
X196761258Y-142506000D01*
X196736488Y-142501073D01*
X196587188Y-142471376D01*
X196423216Y-142403456D01*
X196275646Y-142304853D01*
X196150147Y-142179354D01*
X196051544Y-142031784D01*
X195983624Y-141867812D01*
X195949000Y-141693741D01*
X195949000Y-141516259D01*
X195983624Y-141342188D01*
X196051544Y-141178216D01*
X196150147Y-141030646D01*
X196275646Y-140905147D01*
X196423216Y-140806544D01*
X196587188Y-140738624D01*
X196736488Y-140708927D01*
X196761258Y-140704000D01*
X196938742Y-140704000D01*
X196963512Y-140708927D01*
G37*
G36*
X156323512Y-140708927D02*
G01*
X156472812Y-140738624D01*
X156636784Y-140806544D01*
X156784354Y-140905147D01*
X156909853Y-141030646D01*
X157008456Y-141178216D01*
X157076376Y-141342188D01*
X157111000Y-141516259D01*
X157111000Y-141693741D01*
X157076376Y-141867812D01*
X157008456Y-142031784D01*
X156909853Y-142179354D01*
X156784354Y-142304853D01*
X156636784Y-142403456D01*
X156472812Y-142471376D01*
X156323512Y-142501073D01*
X156298742Y-142506000D01*
X156121258Y-142506000D01*
X156096488Y-142501073D01*
X155947188Y-142471376D01*
X155783216Y-142403456D01*
X155635646Y-142304853D01*
X155510147Y-142179354D01*
X155411544Y-142031784D01*
X155343624Y-141867812D01*
X155309000Y-141693741D01*
X155309000Y-141516259D01*
X155343624Y-141342188D01*
X155411544Y-141178216D01*
X155510147Y-141030646D01*
X155635646Y-140905147D01*
X155783216Y-140806544D01*
X155947188Y-140738624D01*
X156096488Y-140708927D01*
X156121258Y-140704000D01*
X156298742Y-140704000D01*
X156323512Y-140708927D01*
G37*
G36*
X180453512Y-140708927D02*
G01*
X180602812Y-140738624D01*
X180766784Y-140806544D01*
X180914354Y-140905147D01*
X181039853Y-141030646D01*
X181138456Y-141178216D01*
X181206376Y-141342188D01*
X181241000Y-141516259D01*
X181241000Y-141693741D01*
X181206376Y-141867812D01*
X181138456Y-142031784D01*
X181039853Y-142179354D01*
X180914354Y-142304853D01*
X180766784Y-142403456D01*
X180602812Y-142471376D01*
X180453512Y-142501073D01*
X180428742Y-142506000D01*
X180251258Y-142506000D01*
X180226488Y-142501073D01*
X180077188Y-142471376D01*
X179913216Y-142403456D01*
X179765646Y-142304853D01*
X179640147Y-142179354D01*
X179541544Y-142031784D01*
X179473624Y-141867812D01*
X179439000Y-141693741D01*
X179439000Y-141516259D01*
X179473624Y-141342188D01*
X179541544Y-141178216D01*
X179640147Y-141030646D01*
X179765646Y-140905147D01*
X179913216Y-140806544D01*
X180077188Y-140738624D01*
X180226488Y-140708927D01*
X180251258Y-140704000D01*
X180428742Y-140704000D01*
X180453512Y-140708927D01*
G37*
G36*
X207123512Y-140708927D02*
G01*
X207272812Y-140738624D01*
X207436784Y-140806544D01*
X207584354Y-140905147D01*
X207709853Y-141030646D01*
X207808456Y-141178216D01*
X207876376Y-141342188D01*
X207911000Y-141516259D01*
X207911000Y-141693741D01*
X207876376Y-141867812D01*
X207808456Y-142031784D01*
X207709853Y-142179354D01*
X207584354Y-142304853D01*
X207436784Y-142403456D01*
X207272812Y-142471376D01*
X207123512Y-142501073D01*
X207098742Y-142506000D01*
X206921258Y-142506000D01*
X206896488Y-142501073D01*
X206747188Y-142471376D01*
X206583216Y-142403456D01*
X206435646Y-142304853D01*
X206310147Y-142179354D01*
X206211544Y-142031784D01*
X206143624Y-141867812D01*
X206109000Y-141693741D01*
X206109000Y-141516259D01*
X206143624Y-141342188D01*
X206211544Y-141178216D01*
X206310147Y-141030646D01*
X206435646Y-140905147D01*
X206583216Y-140806544D01*
X206747188Y-140738624D01*
X206896488Y-140708927D01*
X206921258Y-140704000D01*
X207098742Y-140704000D01*
X207123512Y-140708927D01*
G37*
G36*
X221093512Y-140708927D02*
G01*
X221242812Y-140738624D01*
X221406784Y-140806544D01*
X221554354Y-140905147D01*
X221679853Y-141030646D01*
X221778456Y-141178216D01*
X221846376Y-141342188D01*
X221881000Y-141516259D01*
X221881000Y-141693741D01*
X221846376Y-141867812D01*
X221778456Y-142031784D01*
X221679853Y-142179354D01*
X221554354Y-142304853D01*
X221406784Y-142403456D01*
X221242812Y-142471376D01*
X221093512Y-142501073D01*
X221068742Y-142506000D01*
X220891258Y-142506000D01*
X220866488Y-142501073D01*
X220717188Y-142471376D01*
X220553216Y-142403456D01*
X220405646Y-142304853D01*
X220280147Y-142179354D01*
X220181544Y-142031784D01*
X220113624Y-141867812D01*
X220079000Y-141693741D01*
X220079000Y-141516259D01*
X220113624Y-141342188D01*
X220181544Y-141178216D01*
X220280147Y-141030646D01*
X220405646Y-140905147D01*
X220553216Y-140806544D01*
X220717188Y-140738624D01*
X220866488Y-140708927D01*
X220891258Y-140704000D01*
X221068742Y-140704000D01*
X221093512Y-140708927D01*
G37*
G36*
X204583512Y-140708927D02*
G01*
X204732812Y-140738624D01*
X204896784Y-140806544D01*
X205044354Y-140905147D01*
X205169853Y-141030646D01*
X205268456Y-141178216D01*
X205336376Y-141342188D01*
X205371000Y-141516259D01*
X205371000Y-141693741D01*
X205336376Y-141867812D01*
X205268456Y-142031784D01*
X205169853Y-142179354D01*
X205044354Y-142304853D01*
X204896784Y-142403456D01*
X204732812Y-142471376D01*
X204583512Y-142501073D01*
X204558742Y-142506000D01*
X204381258Y-142506000D01*
X204356488Y-142501073D01*
X204207188Y-142471376D01*
X204043216Y-142403456D01*
X203895646Y-142304853D01*
X203770147Y-142179354D01*
X203671544Y-142031784D01*
X203603624Y-141867812D01*
X203569000Y-141693741D01*
X203569000Y-141516259D01*
X203603624Y-141342188D01*
X203671544Y-141178216D01*
X203770147Y-141030646D01*
X203895646Y-140905147D01*
X204043216Y-140806544D01*
X204207188Y-140738624D01*
X204356488Y-140708927D01*
X204381258Y-140704000D01*
X204558742Y-140704000D01*
X204583512Y-140708927D01*
G37*
G36*
X199503512Y-140708927D02*
G01*
X199652812Y-140738624D01*
X199816784Y-140806544D01*
X199964354Y-140905147D01*
X200089853Y-141030646D01*
X200188456Y-141178216D01*
X200256376Y-141342188D01*
X200291000Y-141516259D01*
X200291000Y-141693741D01*
X200256376Y-141867812D01*
X200188456Y-142031784D01*
X200089853Y-142179354D01*
X199964354Y-142304853D01*
X199816784Y-142403456D01*
X199652812Y-142471376D01*
X199503512Y-142501073D01*
X199478742Y-142506000D01*
X199301258Y-142506000D01*
X199276488Y-142501073D01*
X199127188Y-142471376D01*
X198963216Y-142403456D01*
X198815646Y-142304853D01*
X198690147Y-142179354D01*
X198591544Y-142031784D01*
X198523624Y-141867812D01*
X198489000Y-141693741D01*
X198489000Y-141516259D01*
X198523624Y-141342188D01*
X198591544Y-141178216D01*
X198690147Y-141030646D01*
X198815646Y-140905147D01*
X198963216Y-140806544D01*
X199127188Y-140738624D01*
X199276488Y-140708927D01*
X199301258Y-140704000D01*
X199478742Y-140704000D01*
X199503512Y-140708927D01*
G37*
G36*
X161403512Y-140708927D02*
G01*
X161552812Y-140738624D01*
X161716784Y-140806544D01*
X161864354Y-140905147D01*
X161989853Y-141030646D01*
X162088456Y-141178216D01*
X162156376Y-141342188D01*
X162191000Y-141516259D01*
X162191000Y-141693741D01*
X162156376Y-141867812D01*
X162088456Y-142031784D01*
X161989853Y-142179354D01*
X161864354Y-142304853D01*
X161716784Y-142403456D01*
X161552812Y-142471376D01*
X161403512Y-142501073D01*
X161378742Y-142506000D01*
X161201258Y-142506000D01*
X161176488Y-142501073D01*
X161027188Y-142471376D01*
X160863216Y-142403456D01*
X160715646Y-142304853D01*
X160590147Y-142179354D01*
X160491544Y-142031784D01*
X160423624Y-141867812D01*
X160389000Y-141693741D01*
X160389000Y-141516259D01*
X160423624Y-141342188D01*
X160491544Y-141178216D01*
X160590147Y-141030646D01*
X160715646Y-140905147D01*
X160863216Y-140806544D01*
X161027188Y-140738624D01*
X161176488Y-140708927D01*
X161201258Y-140704000D01*
X161378742Y-140704000D01*
X161403512Y-140708927D01*
G37*
G36*
X202043512Y-140708927D02*
G01*
X202192812Y-140738624D01*
X202356784Y-140806544D01*
X202504354Y-140905147D01*
X202629853Y-141030646D01*
X202728456Y-141178216D01*
X202796376Y-141342188D01*
X202831000Y-141516259D01*
X202831000Y-141693741D01*
X202796376Y-141867812D01*
X202728456Y-142031784D01*
X202629853Y-142179354D01*
X202504354Y-142304853D01*
X202356784Y-142403456D01*
X202192812Y-142471376D01*
X202043512Y-142501073D01*
X202018742Y-142506000D01*
X201841258Y-142506000D01*
X201816488Y-142501073D01*
X201667188Y-142471376D01*
X201503216Y-142403456D01*
X201355646Y-142304853D01*
X201230147Y-142179354D01*
X201131544Y-142031784D01*
X201063624Y-141867812D01*
X201029000Y-141693741D01*
X201029000Y-141516259D01*
X201063624Y-141342188D01*
X201131544Y-141178216D01*
X201230147Y-141030646D01*
X201355646Y-140905147D01*
X201503216Y-140806544D01*
X201667188Y-140738624D01*
X201816488Y-140708927D01*
X201841258Y-140704000D01*
X202018742Y-140704000D01*
X202043512Y-140708927D01*
G37*
G36*
X163943512Y-140708927D02*
G01*
X164092812Y-140738624D01*
X164256784Y-140806544D01*
X164404354Y-140905147D01*
X164529853Y-141030646D01*
X164628456Y-141178216D01*
X164696376Y-141342188D01*
X164731000Y-141516259D01*
X164731000Y-141693741D01*
X164696376Y-141867812D01*
X164628456Y-142031784D01*
X164529853Y-142179354D01*
X164404354Y-142304853D01*
X164256784Y-142403456D01*
X164092812Y-142471376D01*
X163943512Y-142501073D01*
X163918742Y-142506000D01*
X163741258Y-142506000D01*
X163716488Y-142501073D01*
X163567188Y-142471376D01*
X163403216Y-142403456D01*
X163255646Y-142304853D01*
X163130147Y-142179354D01*
X163031544Y-142031784D01*
X162963624Y-141867812D01*
X162929000Y-141693741D01*
X162929000Y-141516259D01*
X162963624Y-141342188D01*
X163031544Y-141178216D01*
X163130147Y-141030646D01*
X163255646Y-140905147D01*
X163403216Y-140806544D01*
X163567188Y-140738624D01*
X163716488Y-140708927D01*
X163741258Y-140704000D01*
X163918742Y-140704000D01*
X163943512Y-140708927D01*
G37*
G36*
X231253512Y-140708927D02*
G01*
X231402812Y-140738624D01*
X231566784Y-140806544D01*
X231714354Y-140905147D01*
X231839853Y-141030646D01*
X231938456Y-141178216D01*
X232006376Y-141342188D01*
X232041000Y-141516259D01*
X232041000Y-141693741D01*
X232006376Y-141867812D01*
X231938456Y-142031784D01*
X231839853Y-142179354D01*
X231714354Y-142304853D01*
X231566784Y-142403456D01*
X231402812Y-142471376D01*
X231253512Y-142501073D01*
X231228742Y-142506000D01*
X231051258Y-142506000D01*
X231026488Y-142501073D01*
X230877188Y-142471376D01*
X230713216Y-142403456D01*
X230565646Y-142304853D01*
X230440147Y-142179354D01*
X230341544Y-142031784D01*
X230273624Y-141867812D01*
X230239000Y-141693741D01*
X230239000Y-141516259D01*
X230273624Y-141342188D01*
X230341544Y-141178216D01*
X230440147Y-141030646D01*
X230565646Y-140905147D01*
X230713216Y-140806544D01*
X230877188Y-140738624D01*
X231026488Y-140708927D01*
X231051258Y-140704000D01*
X231228742Y-140704000D01*
X231253512Y-140708927D01*
G37*
G36*
X166483512Y-140708927D02*
G01*
X166632812Y-140738624D01*
X166796784Y-140806544D01*
X166944354Y-140905147D01*
X167069853Y-141030646D01*
X167168456Y-141178216D01*
X167236376Y-141342188D01*
X167271000Y-141516259D01*
X167271000Y-141693741D01*
X167236376Y-141867812D01*
X167168456Y-142031784D01*
X167069853Y-142179354D01*
X166944354Y-142304853D01*
X166796784Y-142403456D01*
X166632812Y-142471376D01*
X166483512Y-142501073D01*
X166458742Y-142506000D01*
X166281258Y-142506000D01*
X166256488Y-142501073D01*
X166107188Y-142471376D01*
X165943216Y-142403456D01*
X165795646Y-142304853D01*
X165670147Y-142179354D01*
X165571544Y-142031784D01*
X165503624Y-141867812D01*
X165469000Y-141693741D01*
X165469000Y-141516259D01*
X165503624Y-141342188D01*
X165571544Y-141178216D01*
X165670147Y-141030646D01*
X165795646Y-140905147D01*
X165943216Y-140806544D01*
X166107188Y-140738624D01*
X166256488Y-140708927D01*
X166281258Y-140704000D01*
X166458742Y-140704000D01*
X166483512Y-140708927D01*
G37*
G36*
X182993512Y-140708927D02*
G01*
X183142812Y-140738624D01*
X183306784Y-140806544D01*
X183454354Y-140905147D01*
X183579853Y-141030646D01*
X183678456Y-141178216D01*
X183746376Y-141342188D01*
X183781000Y-141516259D01*
X183781000Y-141693741D01*
X183746376Y-141867812D01*
X183678456Y-142031784D01*
X183579853Y-142179354D01*
X183454354Y-142304853D01*
X183306784Y-142403456D01*
X183142812Y-142471376D01*
X182993512Y-142501073D01*
X182968742Y-142506000D01*
X182791258Y-142506000D01*
X182766488Y-142501073D01*
X182617188Y-142471376D01*
X182453216Y-142403456D01*
X182305646Y-142304853D01*
X182180147Y-142179354D01*
X182081544Y-142031784D01*
X182013624Y-141867812D01*
X181979000Y-141693741D01*
X181979000Y-141516259D01*
X182013624Y-141342188D01*
X182081544Y-141178216D01*
X182180147Y-141030646D01*
X182305646Y-140905147D01*
X182453216Y-140806544D01*
X182617188Y-140738624D01*
X182766488Y-140708927D01*
X182791258Y-140704000D01*
X182968742Y-140704000D01*
X182993512Y-140708927D01*
G37*
G36*
X228713512Y-140708927D02*
G01*
X228862812Y-140738624D01*
X229026784Y-140806544D01*
X229174354Y-140905147D01*
X229299853Y-141030646D01*
X229398456Y-141178216D01*
X229466376Y-141342188D01*
X229501000Y-141516259D01*
X229501000Y-141693741D01*
X229466376Y-141867812D01*
X229398456Y-142031784D01*
X229299853Y-142179354D01*
X229174354Y-142304853D01*
X229026784Y-142403456D01*
X228862812Y-142471376D01*
X228713512Y-142501073D01*
X228688742Y-142506000D01*
X228511258Y-142506000D01*
X228486488Y-142501073D01*
X228337188Y-142471376D01*
X228173216Y-142403456D01*
X228025646Y-142304853D01*
X227900147Y-142179354D01*
X227801544Y-142031784D01*
X227733624Y-141867812D01*
X227699000Y-141693741D01*
X227699000Y-141516259D01*
X227733624Y-141342188D01*
X227801544Y-141178216D01*
X227900147Y-141030646D01*
X228025646Y-140905147D01*
X228173216Y-140806544D01*
X228337188Y-140738624D01*
X228486488Y-140708927D01*
X228511258Y-140704000D01*
X228688742Y-140704000D01*
X228713512Y-140708927D01*
G37*
G36*
X158863512Y-140708927D02*
G01*
X159012812Y-140738624D01*
X159176784Y-140806544D01*
X159324354Y-140905147D01*
X159449853Y-141030646D01*
X159548456Y-141178216D01*
X159616376Y-141342188D01*
X159651000Y-141516259D01*
X159651000Y-141693741D01*
X159616376Y-141867812D01*
X159548456Y-142031784D01*
X159449853Y-142179354D01*
X159324354Y-142304853D01*
X159176784Y-142403456D01*
X159012812Y-142471376D01*
X158863512Y-142501073D01*
X158838742Y-142506000D01*
X158661258Y-142506000D01*
X158636488Y-142501073D01*
X158487188Y-142471376D01*
X158323216Y-142403456D01*
X158175646Y-142304853D01*
X158050147Y-142179354D01*
X157951544Y-142031784D01*
X157883624Y-141867812D01*
X157849000Y-141693741D01*
X157849000Y-141516259D01*
X157883624Y-141342188D01*
X157951544Y-141178216D01*
X158050147Y-141030646D01*
X158175646Y-140905147D01*
X158323216Y-140806544D01*
X158487188Y-140738624D01*
X158636488Y-140708927D01*
X158661258Y-140704000D01*
X158838742Y-140704000D01*
X158863512Y-140708927D01*
G37*
G36*
X226173512Y-140708927D02*
G01*
X226322812Y-140738624D01*
X226486784Y-140806544D01*
X226634354Y-140905147D01*
X226759853Y-141030646D01*
X226858456Y-141178216D01*
X226926376Y-141342188D01*
X226961000Y-141516259D01*
X226961000Y-141693741D01*
X226926376Y-141867812D01*
X226858456Y-142031784D01*
X226759853Y-142179354D01*
X226634354Y-142304853D01*
X226486784Y-142403456D01*
X226322812Y-142471376D01*
X226173512Y-142501073D01*
X226148742Y-142506000D01*
X225971258Y-142506000D01*
X225946488Y-142501073D01*
X225797188Y-142471376D01*
X225633216Y-142403456D01*
X225485646Y-142304853D01*
X225360147Y-142179354D01*
X225261544Y-142031784D01*
X225193624Y-141867812D01*
X225159000Y-141693741D01*
X225159000Y-141516259D01*
X225193624Y-141342188D01*
X225261544Y-141178216D01*
X225360147Y-141030646D01*
X225485646Y-140905147D01*
X225633216Y-140806544D01*
X225797188Y-140738624D01*
X225946488Y-140708927D01*
X225971258Y-140704000D01*
X226148742Y-140704000D01*
X226173512Y-140708927D01*
G37*
G36*
X223633512Y-140708927D02*
G01*
X223782812Y-140738624D01*
X223946784Y-140806544D01*
X224094354Y-140905147D01*
X224219853Y-141030646D01*
X224318456Y-141178216D01*
X224386376Y-141342188D01*
X224421000Y-141516259D01*
X224421000Y-141693741D01*
X224386376Y-141867812D01*
X224318456Y-142031784D01*
X224219853Y-142179354D01*
X224094354Y-142304853D01*
X223946784Y-142403456D01*
X223782812Y-142471376D01*
X223633512Y-142501073D01*
X223608742Y-142506000D01*
X223431258Y-142506000D01*
X223406488Y-142501073D01*
X223257188Y-142471376D01*
X223093216Y-142403456D01*
X222945646Y-142304853D01*
X222820147Y-142179354D01*
X222721544Y-142031784D01*
X222653624Y-141867812D01*
X222619000Y-141693741D01*
X222619000Y-141516259D01*
X222653624Y-141342188D01*
X222721544Y-141178216D01*
X222820147Y-141030646D01*
X222945646Y-140905147D01*
X223093216Y-140806544D01*
X223257188Y-140738624D01*
X223406488Y-140708927D01*
X223431258Y-140704000D01*
X223608742Y-140704000D01*
X223633512Y-140708927D01*
G37*
G36*
X77467395Y-137435546D02*
G01*
X77640466Y-137507234D01*
X77640467Y-137507235D01*
X77796227Y-137611310D01*
X77928690Y-137743773D01*
X77928691Y-137743775D01*
X78032766Y-137899534D01*
X78104454Y-138072605D01*
X78141000Y-138256333D01*
X78141000Y-138443667D01*
X78104454Y-138627395D01*
X78032766Y-138800466D01*
X78032765Y-138800467D01*
X77928690Y-138956227D01*
X77796227Y-139088690D01*
X77717818Y-139141081D01*
X77640466Y-139192766D01*
X77467395Y-139264454D01*
X77283667Y-139301000D01*
X77096333Y-139301000D01*
X76912605Y-139264454D01*
X76739534Y-139192766D01*
X76662182Y-139141081D01*
X76583773Y-139088690D01*
X76451310Y-138956227D01*
X76347235Y-138800467D01*
X76347234Y-138800466D01*
X76275546Y-138627395D01*
X76239000Y-138443667D01*
X76239000Y-138256333D01*
X76275546Y-138072605D01*
X76347234Y-137899534D01*
X76451309Y-137743775D01*
X76451310Y-137743773D01*
X76583773Y-137611310D01*
X76739533Y-137507235D01*
X76739534Y-137507234D01*
X76912605Y-137435546D01*
X77096333Y-137399000D01*
X77283667Y-137399000D01*
X77467395Y-137435546D01*
G37*
G36*
X70467395Y-137435546D02*
G01*
X70640466Y-137507234D01*
X70640467Y-137507235D01*
X70796227Y-137611310D01*
X70928690Y-137743773D01*
X70928691Y-137743775D01*
X71032766Y-137899534D01*
X71104454Y-138072605D01*
X71141000Y-138256333D01*
X71141000Y-138443667D01*
X71104454Y-138627395D01*
X71032766Y-138800466D01*
X71032765Y-138800467D01*
X70928690Y-138956227D01*
X70796227Y-139088690D01*
X70717818Y-139141081D01*
X70640466Y-139192766D01*
X70467395Y-139264454D01*
X70283667Y-139301000D01*
X70096333Y-139301000D01*
X69912605Y-139264454D01*
X69739534Y-139192766D01*
X69662182Y-139141081D01*
X69583773Y-139088690D01*
X69451310Y-138956227D01*
X69347235Y-138800467D01*
X69347234Y-138800466D01*
X69275546Y-138627395D01*
X69239000Y-138443667D01*
X69239000Y-138256333D01*
X69275546Y-138072605D01*
X69347234Y-137899534D01*
X69451309Y-137743775D01*
X69451310Y-137743773D01*
X69583773Y-137611310D01*
X69739533Y-137507235D01*
X69739534Y-137507234D01*
X69912605Y-137435546D01*
X70096333Y-137399000D01*
X70283667Y-137399000D01*
X70467395Y-137435546D01*
G37*
G36*
X63467395Y-137435546D02*
G01*
X63640466Y-137507234D01*
X63640467Y-137507235D01*
X63796227Y-137611310D01*
X63928690Y-137743773D01*
X63928691Y-137743775D01*
X64032766Y-137899534D01*
X64104454Y-138072605D01*
X64141000Y-138256333D01*
X64141000Y-138443667D01*
X64104454Y-138627395D01*
X64032766Y-138800466D01*
X64032765Y-138800467D01*
X63928690Y-138956227D01*
X63796227Y-139088690D01*
X63717818Y-139141081D01*
X63640466Y-139192766D01*
X63467395Y-139264454D01*
X63283667Y-139301000D01*
X63096333Y-139301000D01*
X62912605Y-139264454D01*
X62739534Y-139192766D01*
X62662182Y-139141081D01*
X62583773Y-139088690D01*
X62451310Y-138956227D01*
X62347235Y-138800467D01*
X62347234Y-138800466D01*
X62275546Y-138627395D01*
X62239000Y-138443667D01*
X62239000Y-138256333D01*
X62275546Y-138072605D01*
X62347234Y-137899534D01*
X62451309Y-137743775D01*
X62451310Y-137743773D01*
X62583773Y-137611310D01*
X62739533Y-137507235D01*
X62739534Y-137507234D01*
X62912605Y-137435546D01*
X63096333Y-137399000D01*
X63283667Y-137399000D01*
X63467395Y-137435546D01*
G37*
G36*
X136123642Y-135119781D02*
G01*
X136269414Y-135180162D01*
X136269416Y-135180163D01*
X136400608Y-135267822D01*
X136512178Y-135379392D01*
X136599837Y-135510584D01*
X136599838Y-135510586D01*
X136660219Y-135656358D01*
X136691000Y-135811107D01*
X136691000Y-135968893D01*
X136660219Y-136123642D01*
X136599838Y-136269414D01*
X136599837Y-136269416D01*
X136512178Y-136400608D01*
X136400608Y-136512178D01*
X136269416Y-136599837D01*
X136269415Y-136599838D01*
X136269414Y-136599838D01*
X136123642Y-136660219D01*
X135968893Y-136691000D01*
X135811107Y-136691000D01*
X135656358Y-136660219D01*
X135510586Y-136599838D01*
X135510585Y-136599838D01*
X135510584Y-136599837D01*
X135379392Y-136512178D01*
X135267822Y-136400608D01*
X135180163Y-136269416D01*
X135180162Y-136269414D01*
X135119781Y-136123642D01*
X135089000Y-135968893D01*
X135089000Y-135811107D01*
X135119781Y-135656358D01*
X135180162Y-135510586D01*
X135180163Y-135510584D01*
X135267822Y-135379392D01*
X135379392Y-135267822D01*
X135510584Y-135180163D01*
X135510586Y-135180162D01*
X135656358Y-135119781D01*
X135811107Y-135089000D01*
X135968893Y-135089000D01*
X136123642Y-135119781D01*
G37*
G36*
X133583642Y-135119781D02*
G01*
X133729414Y-135180162D01*
X133729416Y-135180163D01*
X133860608Y-135267822D01*
X133972178Y-135379392D01*
X134059837Y-135510584D01*
X134059838Y-135510586D01*
X134120219Y-135656358D01*
X134151000Y-135811107D01*
X134151000Y-135968893D01*
X134120219Y-136123642D01*
X134059838Y-136269414D01*
X134059837Y-136269416D01*
X133972178Y-136400608D01*
X133860608Y-136512178D01*
X133729416Y-136599837D01*
X133729415Y-136599838D01*
X133729414Y-136599838D01*
X133583642Y-136660219D01*
X133428893Y-136691000D01*
X133271107Y-136691000D01*
X133116358Y-136660219D01*
X132970586Y-136599838D01*
X132970585Y-136599838D01*
X132970584Y-136599837D01*
X132839392Y-136512178D01*
X132727822Y-136400608D01*
X132640163Y-136269416D01*
X132640162Y-136269414D01*
X132579781Y-136123642D01*
X132549000Y-135968893D01*
X132549000Y-135811107D01*
X132579781Y-135656358D01*
X132640162Y-135510586D01*
X132640163Y-135510584D01*
X132727822Y-135379392D01*
X132839392Y-135267822D01*
X132970584Y-135180163D01*
X132970586Y-135180162D01*
X133116358Y-135119781D01*
X133271107Y-135089000D01*
X133428893Y-135089000D01*
X133583642Y-135119781D01*
G37*
G36*
X131043642Y-135119781D02*
G01*
X131189414Y-135180162D01*
X131189416Y-135180163D01*
X131320608Y-135267822D01*
X131432178Y-135379392D01*
X131519837Y-135510584D01*
X131519838Y-135510586D01*
X131580219Y-135656358D01*
X131611000Y-135811107D01*
X131611000Y-135968893D01*
X131580219Y-136123642D01*
X131519838Y-136269414D01*
X131519837Y-136269416D01*
X131432178Y-136400608D01*
X131320608Y-136512178D01*
X131189416Y-136599837D01*
X131189415Y-136599838D01*
X131189414Y-136599838D01*
X131043642Y-136660219D01*
X130888893Y-136691000D01*
X130731107Y-136691000D01*
X130576358Y-136660219D01*
X130430586Y-136599838D01*
X130430585Y-136599838D01*
X130430584Y-136599837D01*
X130299392Y-136512178D01*
X130187822Y-136400608D01*
X130100163Y-136269416D01*
X130100162Y-136269414D01*
X130039781Y-136123642D01*
X130009000Y-135968893D01*
X130009000Y-135811107D01*
X130039781Y-135656358D01*
X130100162Y-135510586D01*
X130100163Y-135510584D01*
X130187822Y-135379392D01*
X130299392Y-135267822D01*
X130430584Y-135180163D01*
X130430586Y-135180162D01*
X130576358Y-135119781D01*
X130731107Y-135089000D01*
X130888893Y-135089000D01*
X131043642Y-135119781D01*
G37*
G36*
X129071000Y-136691000D02*
G01*
X127469000Y-136691000D01*
X127469000Y-135089000D01*
X129071000Y-135089000D01*
X129071000Y-136691000D01*
G37*
G36*
X115803642Y-135119781D02*
G01*
X115949414Y-135180162D01*
X115949416Y-135180163D01*
X116080608Y-135267822D01*
X116192178Y-135379392D01*
X116279837Y-135510584D01*
X116279838Y-135510586D01*
X116340219Y-135656358D01*
X116371000Y-135811107D01*
X116371000Y-135968893D01*
X116340219Y-136123642D01*
X116279838Y-136269414D01*
X116279837Y-136269416D01*
X116192178Y-136400608D01*
X116080608Y-136512178D01*
X115949416Y-136599837D01*
X115949415Y-136599838D01*
X115949414Y-136599838D01*
X115803642Y-136660219D01*
X115648893Y-136691000D01*
X115491107Y-136691000D01*
X115336358Y-136660219D01*
X115190586Y-136599838D01*
X115190585Y-136599838D01*
X115190584Y-136599837D01*
X115059392Y-136512178D01*
X114947822Y-136400608D01*
X114860163Y-136269416D01*
X114860162Y-136269414D01*
X114799781Y-136123642D01*
X114769000Y-135968893D01*
X114769000Y-135811107D01*
X114799781Y-135656358D01*
X114860162Y-135510586D01*
X114860163Y-135510584D01*
X114947822Y-135379392D01*
X115059392Y-135267822D01*
X115190584Y-135180163D01*
X115190586Y-135180162D01*
X115336358Y-135119781D01*
X115491107Y-135089000D01*
X115648893Y-135089000D01*
X115803642Y-135119781D01*
G37*
G36*
X113263642Y-135119781D02*
G01*
X113409414Y-135180162D01*
X113409416Y-135180163D01*
X113540608Y-135267822D01*
X113652178Y-135379392D01*
X113739837Y-135510584D01*
X113739838Y-135510586D01*
X113800219Y-135656358D01*
X113831000Y-135811107D01*
X113831000Y-135968893D01*
X113800219Y-136123642D01*
X113739838Y-136269414D01*
X113739837Y-136269416D01*
X113652178Y-136400608D01*
X113540608Y-136512178D01*
X113409416Y-136599837D01*
X113409415Y-136599838D01*
X113409414Y-136599838D01*
X113263642Y-136660219D01*
X113108893Y-136691000D01*
X112951107Y-136691000D01*
X112796358Y-136660219D01*
X112650586Y-136599838D01*
X112650585Y-136599838D01*
X112650584Y-136599837D01*
X112519392Y-136512178D01*
X112407822Y-136400608D01*
X112320163Y-136269416D01*
X112320162Y-136269414D01*
X112259781Y-136123642D01*
X112229000Y-135968893D01*
X112229000Y-135811107D01*
X112259781Y-135656358D01*
X112320162Y-135510586D01*
X112320163Y-135510584D01*
X112407822Y-135379392D01*
X112519392Y-135267822D01*
X112650584Y-135180163D01*
X112650586Y-135180162D01*
X112796358Y-135119781D01*
X112951107Y-135089000D01*
X113108893Y-135089000D01*
X113263642Y-135119781D01*
G37*
G36*
X108751000Y-136691000D02*
G01*
X107149000Y-136691000D01*
X107149000Y-135089000D01*
X108751000Y-135089000D01*
X108751000Y-136691000D01*
G37*
G36*
X95483642Y-135119781D02*
G01*
X95629414Y-135180162D01*
X95629416Y-135180163D01*
X95760608Y-135267822D01*
X95872178Y-135379392D01*
X95959837Y-135510584D01*
X95959838Y-135510586D01*
X96020219Y-135656358D01*
X96051000Y-135811107D01*
X96051000Y-135968893D01*
X96020219Y-136123642D01*
X95959838Y-136269414D01*
X95959837Y-136269416D01*
X95872178Y-136400608D01*
X95760608Y-136512178D01*
X95629416Y-136599837D01*
X95629415Y-136599838D01*
X95629414Y-136599838D01*
X95483642Y-136660219D01*
X95328893Y-136691000D01*
X95171107Y-136691000D01*
X95016358Y-136660219D01*
X94870586Y-136599838D01*
X94870585Y-136599838D01*
X94870584Y-136599837D01*
X94739392Y-136512178D01*
X94627822Y-136400608D01*
X94540163Y-136269416D01*
X94540162Y-136269414D01*
X94479781Y-136123642D01*
X94449000Y-135968893D01*
X94449000Y-135811107D01*
X94479781Y-135656358D01*
X94540162Y-135510586D01*
X94540163Y-135510584D01*
X94627822Y-135379392D01*
X94739392Y-135267822D01*
X94870584Y-135180163D01*
X94870586Y-135180162D01*
X95016358Y-135119781D01*
X95171107Y-135089000D01*
X95328893Y-135089000D01*
X95483642Y-135119781D01*
G37*
G36*
X92943642Y-135119781D02*
G01*
X93089414Y-135180162D01*
X93089416Y-135180163D01*
X93220608Y-135267822D01*
X93332178Y-135379392D01*
X93419837Y-135510584D01*
X93419838Y-135510586D01*
X93480219Y-135656358D01*
X93511000Y-135811107D01*
X93511000Y-135968893D01*
X93480219Y-136123642D01*
X93419838Y-136269414D01*
X93419837Y-136269416D01*
X93332178Y-136400608D01*
X93220608Y-136512178D01*
X93089416Y-136599837D01*
X93089415Y-136599838D01*
X93089414Y-136599838D01*
X92943642Y-136660219D01*
X92788893Y-136691000D01*
X92631107Y-136691000D01*
X92476358Y-136660219D01*
X92330586Y-136599838D01*
X92330585Y-136599838D01*
X92330584Y-136599837D01*
X92199392Y-136512178D01*
X92087822Y-136400608D01*
X92000163Y-136269416D01*
X92000162Y-136269414D01*
X91939781Y-136123642D01*
X91909000Y-135968893D01*
X91909000Y-135811107D01*
X91939781Y-135656358D01*
X92000162Y-135510586D01*
X92000163Y-135510584D01*
X92087822Y-135379392D01*
X92199392Y-135267822D01*
X92330584Y-135180163D01*
X92330586Y-135180162D01*
X92476358Y-135119781D01*
X92631107Y-135089000D01*
X92788893Y-135089000D01*
X92943642Y-135119781D01*
G37*
G36*
X90403642Y-135119781D02*
G01*
X90549414Y-135180162D01*
X90549416Y-135180163D01*
X90680608Y-135267822D01*
X90792178Y-135379392D01*
X90879837Y-135510584D01*
X90879838Y-135510586D01*
X90940219Y-135656358D01*
X90971000Y-135811107D01*
X90971000Y-135968893D01*
X90940219Y-136123642D01*
X90879838Y-136269414D01*
X90879837Y-136269416D01*
X90792178Y-136400608D01*
X90680608Y-136512178D01*
X90549416Y-136599837D01*
X90549415Y-136599838D01*
X90549414Y-136599838D01*
X90403642Y-136660219D01*
X90248893Y-136691000D01*
X90091107Y-136691000D01*
X89936358Y-136660219D01*
X89790586Y-136599838D01*
X89790585Y-136599838D01*
X89790584Y-136599837D01*
X89659392Y-136512178D01*
X89547822Y-136400608D01*
X89460163Y-136269416D01*
X89460162Y-136269414D01*
X89399781Y-136123642D01*
X89369000Y-135968893D01*
X89369000Y-135811107D01*
X89399781Y-135656358D01*
X89460162Y-135510586D01*
X89460163Y-135510584D01*
X89547822Y-135379392D01*
X89659392Y-135267822D01*
X89790584Y-135180163D01*
X89790586Y-135180162D01*
X89936358Y-135119781D01*
X90091107Y-135089000D01*
X90248893Y-135089000D01*
X90403642Y-135119781D01*
G37*
G36*
X88431000Y-136691000D02*
G01*
X86829000Y-136691000D01*
X86829000Y-135089000D01*
X88431000Y-135089000D01*
X88431000Y-136691000D01*
G37*
G36*
X110723642Y-135119781D02*
G01*
X110869414Y-135180162D01*
X110869416Y-135180163D01*
X111000608Y-135267822D01*
X111112178Y-135379392D01*
X111199837Y-135510584D01*
X111199838Y-135510586D01*
X111260219Y-135656358D01*
X111291000Y-135811107D01*
X111291000Y-135968893D01*
X111260219Y-136123642D01*
X111199838Y-136269414D01*
X111199837Y-136269416D01*
X111112178Y-136400608D01*
X111000608Y-136512178D01*
X110869416Y-136599837D01*
X110869415Y-136599838D01*
X110869414Y-136599838D01*
X110723642Y-136660219D01*
X110568893Y-136691000D01*
X110411107Y-136691000D01*
X110256358Y-136660219D01*
X110110586Y-136599838D01*
X110110585Y-136599838D01*
X110110584Y-136599837D01*
X109979392Y-136512178D01*
X109867822Y-136400608D01*
X109780163Y-136269416D01*
X109780162Y-136269414D01*
X109719781Y-136123642D01*
X109689000Y-135968893D01*
X109689000Y-135811107D01*
X109719781Y-135656358D01*
X109780162Y-135510586D01*
X109780163Y-135510584D01*
X109867822Y-135379392D01*
X109979392Y-135267822D01*
X110110584Y-135180163D01*
X110110586Y-135180162D01*
X110256358Y-135119781D01*
X110411107Y-135089000D01*
X110568893Y-135089000D01*
X110723642Y-135119781D01*
G37*
G36*
X66967395Y-132435546D02*
G01*
X67140466Y-132507234D01*
X67140467Y-132507235D01*
X67296227Y-132611310D01*
X67428690Y-132743773D01*
X67428691Y-132743775D01*
X67532766Y-132899534D01*
X67604454Y-133072605D01*
X67641000Y-133256333D01*
X67641000Y-133443667D01*
X67604454Y-133627395D01*
X67532766Y-133800466D01*
X67532765Y-133800467D01*
X67428690Y-133956227D01*
X67296227Y-134088690D01*
X67249042Y-134120218D01*
X67140466Y-134192766D01*
X66967395Y-134264454D01*
X66783667Y-134301000D01*
X66596333Y-134301000D01*
X66412605Y-134264454D01*
X66239534Y-134192766D01*
X66130958Y-134120218D01*
X66083773Y-134088690D01*
X65951310Y-133956227D01*
X65847235Y-133800467D01*
X65847234Y-133800466D01*
X65775546Y-133627395D01*
X65739000Y-133443667D01*
X65739000Y-133256333D01*
X65775546Y-133072605D01*
X65847234Y-132899534D01*
X65951309Y-132743775D01*
X65951310Y-132743773D01*
X66083773Y-132611310D01*
X66239533Y-132507235D01*
X66239534Y-132507234D01*
X66412605Y-132435546D01*
X66596333Y-132399000D01*
X66783667Y-132399000D01*
X66967395Y-132435546D01*
G37*
G36*
X60641000Y-134301000D02*
G01*
X58739000Y-134301000D01*
X58739000Y-132399000D01*
X60641000Y-132399000D01*
X60641000Y-134301000D01*
G37*
G36*
X73967395Y-132435546D02*
G01*
X74140466Y-132507234D01*
X74140467Y-132507235D01*
X74296227Y-132611310D01*
X74428690Y-132743773D01*
X74428691Y-132743775D01*
X74532766Y-132899534D01*
X74604454Y-133072605D01*
X74641000Y-133256333D01*
X74641000Y-133443667D01*
X74604454Y-133627395D01*
X74532766Y-133800466D01*
X74532765Y-133800467D01*
X74428690Y-133956227D01*
X74296227Y-134088690D01*
X74249042Y-134120218D01*
X74140466Y-134192766D01*
X73967395Y-134264454D01*
X73783667Y-134301000D01*
X73596333Y-134301000D01*
X73412605Y-134264454D01*
X73239534Y-134192766D01*
X73130958Y-134120218D01*
X73083773Y-134088690D01*
X72951310Y-133956227D01*
X72847235Y-133800467D01*
X72847234Y-133800466D01*
X72775546Y-133627395D01*
X72739000Y-133443667D01*
X72739000Y-133256333D01*
X72775546Y-133072605D01*
X72847234Y-132899534D01*
X72951309Y-132743775D01*
X72951310Y-132743773D01*
X73083773Y-132611310D01*
X73239533Y-132507235D01*
X73239534Y-132507234D01*
X73412605Y-132435546D01*
X73596333Y-132399000D01*
X73783667Y-132399000D01*
X73967395Y-132435546D01*
G37*
G36*
X132313642Y-132579781D02*
G01*
X132389759Y-132611310D01*
X132459416Y-132640163D01*
X132590608Y-132727822D01*
X132702178Y-132839392D01*
X132742363Y-132899534D01*
X132789838Y-132970586D01*
X132850219Y-133116358D01*
X132881000Y-133271107D01*
X132881000Y-133428893D01*
X132850219Y-133583642D01*
X132832095Y-133627396D01*
X132789837Y-133729416D01*
X132702178Y-133860608D01*
X132590608Y-133972178D01*
X132459416Y-134059837D01*
X132459415Y-134059838D01*
X132459414Y-134059838D01*
X132313642Y-134120219D01*
X132158893Y-134151000D01*
X132001107Y-134151000D01*
X131846358Y-134120219D01*
X131700586Y-134059838D01*
X131700585Y-134059838D01*
X131700584Y-134059837D01*
X131569392Y-133972178D01*
X131457822Y-133860608D01*
X131370163Y-133729416D01*
X131327905Y-133627396D01*
X131309781Y-133583642D01*
X131279000Y-133428893D01*
X131279000Y-133271107D01*
X131309781Y-133116358D01*
X131370162Y-132970586D01*
X131417637Y-132899534D01*
X131457822Y-132839392D01*
X131569392Y-132727822D01*
X131700584Y-132640163D01*
X131770241Y-132611310D01*
X131846358Y-132579781D01*
X132001107Y-132549000D01*
X132158893Y-132549000D01*
X132313642Y-132579781D01*
G37*
G36*
X134853642Y-132579781D02*
G01*
X134929759Y-132611310D01*
X134999416Y-132640163D01*
X135130608Y-132727822D01*
X135242178Y-132839392D01*
X135282363Y-132899534D01*
X135329838Y-132970586D01*
X135390219Y-133116358D01*
X135421000Y-133271107D01*
X135421000Y-133428893D01*
X135390219Y-133583642D01*
X135372095Y-133627396D01*
X135329837Y-133729416D01*
X135242178Y-133860608D01*
X135130608Y-133972178D01*
X134999416Y-134059837D01*
X134999415Y-134059838D01*
X134999414Y-134059838D01*
X134853642Y-134120219D01*
X134698893Y-134151000D01*
X134541107Y-134151000D01*
X134386358Y-134120219D01*
X134240586Y-134059838D01*
X134240585Y-134059838D01*
X134240584Y-134059837D01*
X134109392Y-133972178D01*
X133997822Y-133860608D01*
X133910163Y-133729416D01*
X133867905Y-133627396D01*
X133849781Y-133583642D01*
X133819000Y-133428893D01*
X133819000Y-133271107D01*
X133849781Y-133116358D01*
X133910162Y-132970586D01*
X133957637Y-132899534D01*
X133997822Y-132839392D01*
X134109392Y-132727822D01*
X134240584Y-132640163D01*
X134310241Y-132611310D01*
X134386358Y-132579781D01*
X134541107Y-132549000D01*
X134698893Y-132549000D01*
X134853642Y-132579781D01*
G37*
G36*
X137393642Y-132579781D02*
G01*
X137469759Y-132611310D01*
X137539416Y-132640163D01*
X137670608Y-132727822D01*
X137782178Y-132839392D01*
X137822363Y-132899534D01*
X137869838Y-132970586D01*
X137930219Y-133116358D01*
X137961000Y-133271107D01*
X137961000Y-133428893D01*
X137930219Y-133583642D01*
X137912095Y-133627396D01*
X137869837Y-133729416D01*
X137782178Y-133860608D01*
X137670608Y-133972178D01*
X137539416Y-134059837D01*
X137539415Y-134059838D01*
X137539414Y-134059838D01*
X137393642Y-134120219D01*
X137238893Y-134151000D01*
X137081107Y-134151000D01*
X136926358Y-134120219D01*
X136780586Y-134059838D01*
X136780585Y-134059838D01*
X136780584Y-134059837D01*
X136649392Y-133972178D01*
X136537822Y-133860608D01*
X136450163Y-133729416D01*
X136407905Y-133627396D01*
X136389781Y-133583642D01*
X136359000Y-133428893D01*
X136359000Y-133271107D01*
X136389781Y-133116358D01*
X136450162Y-132970586D01*
X136497637Y-132899534D01*
X136537822Y-132839392D01*
X136649392Y-132727822D01*
X136780584Y-132640163D01*
X136850241Y-132611310D01*
X136926358Y-132579781D01*
X137081107Y-132549000D01*
X137238893Y-132549000D01*
X137393642Y-132579781D01*
G37*
G36*
X111993642Y-132579781D02*
G01*
X112069759Y-132611310D01*
X112139416Y-132640163D01*
X112270608Y-132727822D01*
X112382178Y-132839392D01*
X112422363Y-132899534D01*
X112469838Y-132970586D01*
X112530219Y-133116358D01*
X112561000Y-133271107D01*
X112561000Y-133428893D01*
X112530219Y-133583642D01*
X112512095Y-133627396D01*
X112469837Y-133729416D01*
X112382178Y-133860608D01*
X112270608Y-133972178D01*
X112139416Y-134059837D01*
X112139415Y-134059838D01*
X112139414Y-134059838D01*
X111993642Y-134120219D01*
X111838893Y-134151000D01*
X111681107Y-134151000D01*
X111526358Y-134120219D01*
X111380586Y-134059838D01*
X111380585Y-134059838D01*
X111380584Y-134059837D01*
X111249392Y-133972178D01*
X111137822Y-133860608D01*
X111050163Y-133729416D01*
X111007905Y-133627396D01*
X110989781Y-133583642D01*
X110959000Y-133428893D01*
X110959000Y-133271107D01*
X110989781Y-133116358D01*
X111050162Y-132970586D01*
X111097637Y-132899534D01*
X111137822Y-132839392D01*
X111249392Y-132727822D01*
X111380584Y-132640163D01*
X111450241Y-132611310D01*
X111526358Y-132579781D01*
X111681107Y-132549000D01*
X111838893Y-132549000D01*
X111993642Y-132579781D01*
G37*
G36*
X129773642Y-132579781D02*
G01*
X129849759Y-132611310D01*
X129919416Y-132640163D01*
X130050608Y-132727822D01*
X130162178Y-132839392D01*
X130202363Y-132899534D01*
X130249838Y-132970586D01*
X130310219Y-133116358D01*
X130341000Y-133271107D01*
X130341000Y-133428893D01*
X130310219Y-133583642D01*
X130292095Y-133627396D01*
X130249837Y-133729416D01*
X130162178Y-133860608D01*
X130050608Y-133972178D01*
X129919416Y-134059837D01*
X129919415Y-134059838D01*
X129919414Y-134059838D01*
X129773642Y-134120219D01*
X129618893Y-134151000D01*
X129461107Y-134151000D01*
X129306358Y-134120219D01*
X129160586Y-134059838D01*
X129160585Y-134059838D01*
X129160584Y-134059837D01*
X129029392Y-133972178D01*
X128917822Y-133860608D01*
X128830163Y-133729416D01*
X128787905Y-133627396D01*
X128769781Y-133583642D01*
X128739000Y-133428893D01*
X128739000Y-133271107D01*
X128769781Y-133116358D01*
X128830162Y-132970586D01*
X128877637Y-132899534D01*
X128917822Y-132839392D01*
X129029392Y-132727822D01*
X129160584Y-132640163D01*
X129230241Y-132611310D01*
X129306358Y-132579781D01*
X129461107Y-132549000D01*
X129618893Y-132549000D01*
X129773642Y-132579781D01*
G37*
G36*
X89133642Y-132579781D02*
G01*
X89209759Y-132611310D01*
X89279416Y-132640163D01*
X89410608Y-132727822D01*
X89522178Y-132839392D01*
X89562363Y-132899534D01*
X89609838Y-132970586D01*
X89670219Y-133116358D01*
X89701000Y-133271107D01*
X89701000Y-133428893D01*
X89670219Y-133583642D01*
X89652095Y-133627396D01*
X89609837Y-133729416D01*
X89522178Y-133860608D01*
X89410608Y-133972178D01*
X89279416Y-134059837D01*
X89279415Y-134059838D01*
X89279414Y-134059838D01*
X89133642Y-134120219D01*
X88978893Y-134151000D01*
X88821107Y-134151000D01*
X88666358Y-134120219D01*
X88520586Y-134059838D01*
X88520585Y-134059838D01*
X88520584Y-134059837D01*
X88389392Y-133972178D01*
X88277822Y-133860608D01*
X88190163Y-133729416D01*
X88147905Y-133627396D01*
X88129781Y-133583642D01*
X88099000Y-133428893D01*
X88099000Y-133271107D01*
X88129781Y-133116358D01*
X88190162Y-132970586D01*
X88237637Y-132899534D01*
X88277822Y-132839392D01*
X88389392Y-132727822D01*
X88520584Y-132640163D01*
X88590241Y-132611310D01*
X88666358Y-132579781D01*
X88821107Y-132549000D01*
X88978893Y-132549000D01*
X89133642Y-132579781D01*
G37*
G36*
X96753642Y-132579781D02*
G01*
X96829759Y-132611310D01*
X96899416Y-132640163D01*
X97030608Y-132727822D01*
X97142178Y-132839392D01*
X97182363Y-132899534D01*
X97229838Y-132970586D01*
X97290219Y-133116358D01*
X97321000Y-133271107D01*
X97321000Y-133428893D01*
X97290219Y-133583642D01*
X97272095Y-133627396D01*
X97229837Y-133729416D01*
X97142178Y-133860608D01*
X97030608Y-133972178D01*
X96899416Y-134059837D01*
X96899415Y-134059838D01*
X96899414Y-134059838D01*
X96753642Y-134120219D01*
X96598893Y-134151000D01*
X96441107Y-134151000D01*
X96286358Y-134120219D01*
X96140586Y-134059838D01*
X96140585Y-134059838D01*
X96140584Y-134059837D01*
X96009392Y-133972178D01*
X95897822Y-133860608D01*
X95810163Y-133729416D01*
X95767905Y-133627396D01*
X95749781Y-133583642D01*
X95719000Y-133428893D01*
X95719000Y-133271107D01*
X95749781Y-133116358D01*
X95810162Y-132970586D01*
X95857637Y-132899534D01*
X95897822Y-132839392D01*
X96009392Y-132727822D01*
X96140584Y-132640163D01*
X96210241Y-132611310D01*
X96286358Y-132579781D01*
X96441107Y-132549000D01*
X96598893Y-132549000D01*
X96753642Y-132579781D01*
G37*
G36*
X117073642Y-132579781D02*
G01*
X117149759Y-132611310D01*
X117219416Y-132640163D01*
X117350608Y-132727822D01*
X117462178Y-132839392D01*
X117502363Y-132899534D01*
X117549838Y-132970586D01*
X117610219Y-133116358D01*
X117641000Y-133271107D01*
X117641000Y-133428893D01*
X117610219Y-133583642D01*
X117592095Y-133627396D01*
X117549837Y-133729416D01*
X117462178Y-133860608D01*
X117350608Y-133972178D01*
X117219416Y-134059837D01*
X117219415Y-134059838D01*
X117219414Y-134059838D01*
X117073642Y-134120219D01*
X116918893Y-134151000D01*
X116761107Y-134151000D01*
X116606358Y-134120219D01*
X116460586Y-134059838D01*
X116460585Y-134059838D01*
X116460584Y-134059837D01*
X116329392Y-133972178D01*
X116217822Y-133860608D01*
X116130163Y-133729416D01*
X116087905Y-133627396D01*
X116069781Y-133583642D01*
X116039000Y-133428893D01*
X116039000Y-133271107D01*
X116069781Y-133116358D01*
X116130162Y-132970586D01*
X116177637Y-132899534D01*
X116217822Y-132839392D01*
X116329392Y-132727822D01*
X116460584Y-132640163D01*
X116530241Y-132611310D01*
X116606358Y-132579781D01*
X116761107Y-132549000D01*
X116918893Y-132549000D01*
X117073642Y-132579781D01*
G37*
G36*
X94213642Y-132579781D02*
G01*
X94289759Y-132611310D01*
X94359416Y-132640163D01*
X94490608Y-132727822D01*
X94602178Y-132839392D01*
X94642363Y-132899534D01*
X94689838Y-132970586D01*
X94750219Y-133116358D01*
X94781000Y-133271107D01*
X94781000Y-133428893D01*
X94750219Y-133583642D01*
X94732095Y-133627396D01*
X94689837Y-133729416D01*
X94602178Y-133860608D01*
X94490608Y-133972178D01*
X94359416Y-134059837D01*
X94359415Y-134059838D01*
X94359414Y-134059838D01*
X94213642Y-134120219D01*
X94058893Y-134151000D01*
X93901107Y-134151000D01*
X93746358Y-134120219D01*
X93600586Y-134059838D01*
X93600585Y-134059838D01*
X93600584Y-134059837D01*
X93469392Y-133972178D01*
X93357822Y-133860608D01*
X93270163Y-133729416D01*
X93227905Y-133627396D01*
X93209781Y-133583642D01*
X93179000Y-133428893D01*
X93179000Y-133271107D01*
X93209781Y-133116358D01*
X93270162Y-132970586D01*
X93317637Y-132899534D01*
X93357822Y-132839392D01*
X93469392Y-132727822D01*
X93600584Y-132640163D01*
X93670241Y-132611310D01*
X93746358Y-132579781D01*
X93901107Y-132549000D01*
X94058893Y-132549000D01*
X94213642Y-132579781D01*
G37*
G36*
X91673642Y-132579781D02*
G01*
X91749759Y-132611310D01*
X91819416Y-132640163D01*
X91950608Y-132727822D01*
X92062178Y-132839392D01*
X92102363Y-132899534D01*
X92149838Y-132970586D01*
X92210219Y-133116358D01*
X92241000Y-133271107D01*
X92241000Y-133428893D01*
X92210219Y-133583642D01*
X92192095Y-133627396D01*
X92149837Y-133729416D01*
X92062178Y-133860608D01*
X91950608Y-133972178D01*
X91819416Y-134059837D01*
X91819415Y-134059838D01*
X91819414Y-134059838D01*
X91673642Y-134120219D01*
X91518893Y-134151000D01*
X91361107Y-134151000D01*
X91206358Y-134120219D01*
X91060586Y-134059838D01*
X91060585Y-134059838D01*
X91060584Y-134059837D01*
X90929392Y-133972178D01*
X90817822Y-133860608D01*
X90730163Y-133729416D01*
X90687905Y-133627396D01*
X90669781Y-133583642D01*
X90639000Y-133428893D01*
X90639000Y-133271107D01*
X90669781Y-133116358D01*
X90730162Y-132970586D01*
X90777637Y-132899534D01*
X90817822Y-132839392D01*
X90929392Y-132727822D01*
X91060584Y-132640163D01*
X91130241Y-132611310D01*
X91206358Y-132579781D01*
X91361107Y-132549000D01*
X91518893Y-132549000D01*
X91673642Y-132579781D01*
G37*
G36*
X114533642Y-132579781D02*
G01*
X114609759Y-132611310D01*
X114679416Y-132640163D01*
X114810608Y-132727822D01*
X114922178Y-132839392D01*
X114962363Y-132899534D01*
X115009838Y-132970586D01*
X115070219Y-133116358D01*
X115101000Y-133271107D01*
X115101000Y-133428893D01*
X115070219Y-133583642D01*
X115052095Y-133627396D01*
X115009837Y-133729416D01*
X114922178Y-133860608D01*
X114810608Y-133972178D01*
X114679416Y-134059837D01*
X114679415Y-134059838D01*
X114679414Y-134059838D01*
X114533642Y-134120219D01*
X114378893Y-134151000D01*
X114221107Y-134151000D01*
X114066358Y-134120219D01*
X113920586Y-134059838D01*
X113920585Y-134059838D01*
X113920584Y-134059837D01*
X113789392Y-133972178D01*
X113677822Y-133860608D01*
X113590163Y-133729416D01*
X113547905Y-133627396D01*
X113529781Y-133583642D01*
X113499000Y-133428893D01*
X113499000Y-133271107D01*
X113529781Y-133116358D01*
X113590162Y-132970586D01*
X113637637Y-132899534D01*
X113677822Y-132839392D01*
X113789392Y-132727822D01*
X113920584Y-132640163D01*
X113990241Y-132611310D01*
X114066358Y-132579781D01*
X114221107Y-132549000D01*
X114378893Y-132549000D01*
X114533642Y-132579781D01*
G37*
G36*
X109453642Y-132579781D02*
G01*
X109529759Y-132611310D01*
X109599416Y-132640163D01*
X109730608Y-132727822D01*
X109842178Y-132839392D01*
X109882363Y-132899534D01*
X109929838Y-132970586D01*
X109990219Y-133116358D01*
X110021000Y-133271107D01*
X110021000Y-133428893D01*
X109990219Y-133583642D01*
X109972095Y-133627396D01*
X109929837Y-133729416D01*
X109842178Y-133860608D01*
X109730608Y-133972178D01*
X109599416Y-134059837D01*
X109599415Y-134059838D01*
X109599414Y-134059838D01*
X109453642Y-134120219D01*
X109298893Y-134151000D01*
X109141107Y-134151000D01*
X108986358Y-134120219D01*
X108840586Y-134059838D01*
X108840585Y-134059838D01*
X108840584Y-134059837D01*
X108709392Y-133972178D01*
X108597822Y-133860608D01*
X108510163Y-133729416D01*
X108467905Y-133627396D01*
X108449781Y-133583642D01*
X108419000Y-133428893D01*
X108419000Y-133271107D01*
X108449781Y-133116358D01*
X108510162Y-132970586D01*
X108557637Y-132899534D01*
X108597822Y-132839392D01*
X108709392Y-132727822D01*
X108840584Y-132640163D01*
X108910241Y-132611310D01*
X108986358Y-132579781D01*
X109141107Y-132549000D01*
X109298893Y-132549000D01*
X109453642Y-132579781D01*
G37*
G36*
X238873512Y-130548927D02*
G01*
X239022812Y-130578624D01*
X239186784Y-130646544D01*
X239334354Y-130745147D01*
X239459853Y-130870646D01*
X239558456Y-131018216D01*
X239626376Y-131182188D01*
X239661000Y-131356259D01*
X239661000Y-131533741D01*
X239626376Y-131707812D01*
X239558456Y-131871784D01*
X239459853Y-132019354D01*
X239334354Y-132144853D01*
X239186784Y-132243456D01*
X239022812Y-132311376D01*
X238873512Y-132341073D01*
X238848742Y-132346000D01*
X238671258Y-132346000D01*
X238646488Y-132341073D01*
X238497188Y-132311376D01*
X238333216Y-132243456D01*
X238185646Y-132144853D01*
X238060147Y-132019354D01*
X237961544Y-131871784D01*
X237893624Y-131707812D01*
X237859000Y-131533741D01*
X237859000Y-131356259D01*
X237893624Y-131182188D01*
X237961544Y-131018216D01*
X238060147Y-130870646D01*
X238185646Y-130745147D01*
X238333216Y-130646544D01*
X238497188Y-130578624D01*
X238646488Y-130548927D01*
X238671258Y-130544000D01*
X238848742Y-130544000D01*
X238873512Y-130548927D01*
G37*
G36*
X238873512Y-128008927D02*
G01*
X239022812Y-128038624D01*
X239186784Y-128106544D01*
X239334354Y-128205147D01*
X239459853Y-128330646D01*
X239558456Y-128478216D01*
X239626376Y-128642188D01*
X239661000Y-128816259D01*
X239661000Y-128993741D01*
X239626376Y-129167812D01*
X239558456Y-129331784D01*
X239459853Y-129479354D01*
X239334354Y-129604853D01*
X239186784Y-129703456D01*
X239022812Y-129771376D01*
X238873512Y-129801073D01*
X238848742Y-129806000D01*
X238671258Y-129806000D01*
X238646488Y-129801073D01*
X238497188Y-129771376D01*
X238333216Y-129703456D01*
X238185646Y-129604853D01*
X238060147Y-129479354D01*
X237961544Y-129331784D01*
X237893624Y-129167812D01*
X237859000Y-128993741D01*
X237859000Y-128816259D01*
X237893624Y-128642188D01*
X237961544Y-128478216D01*
X238060147Y-128330646D01*
X238185646Y-128205147D01*
X238333216Y-128106544D01*
X238497188Y-128038624D01*
X238646488Y-128008927D01*
X238671258Y-128004000D01*
X238848742Y-128004000D01*
X238873512Y-128008927D01*
G37*
G36*
X238873512Y-125468927D02*
G01*
X239022812Y-125498624D01*
X239186784Y-125566544D01*
X239334354Y-125665147D01*
X239459853Y-125790646D01*
X239558456Y-125938216D01*
X239626376Y-126102188D01*
X239661000Y-126276259D01*
X239661000Y-126453741D01*
X239626376Y-126627812D01*
X239558456Y-126791784D01*
X239459853Y-126939354D01*
X239334354Y-127064853D01*
X239186784Y-127163456D01*
X239022812Y-127231376D01*
X238873512Y-127261073D01*
X238848742Y-127266000D01*
X238671258Y-127266000D01*
X238646488Y-127261073D01*
X238497188Y-127231376D01*
X238333216Y-127163456D01*
X238185646Y-127064853D01*
X238060147Y-126939354D01*
X237961544Y-126791784D01*
X237893624Y-126627812D01*
X237859000Y-126453741D01*
X237859000Y-126276259D01*
X237893624Y-126102188D01*
X237961544Y-125938216D01*
X238060147Y-125790646D01*
X238185646Y-125665147D01*
X238333216Y-125566544D01*
X238497188Y-125498624D01*
X238646488Y-125468927D01*
X238671258Y-125464000D01*
X238848742Y-125464000D01*
X238873512Y-125468927D01*
G37*
G36*
X239661000Y-124726000D02*
G01*
X237859000Y-124726000D01*
X237859000Y-122924000D01*
X239661000Y-122924000D01*
X239661000Y-124726000D01*
G37*
G36*
X68883647Y-114569004D02*
G01*
X69073097Y-114647477D01*
X69073098Y-114647478D01*
X69243599Y-114761402D01*
X69388598Y-114906401D01*
X69464719Y-115020326D01*
X69502523Y-115076903D01*
X69580996Y-115266353D01*
X69621000Y-115467469D01*
X69621000Y-115672531D01*
X69580996Y-115873647D01*
X69502523Y-116063097D01*
X69502522Y-116063098D01*
X69388598Y-116233599D01*
X69243599Y-116378598D01*
X69129674Y-116454719D01*
X69073097Y-116492523D01*
X68883647Y-116570996D01*
X68682531Y-116611000D01*
X68477469Y-116611000D01*
X68276353Y-116570996D01*
X68086903Y-116492523D01*
X68030326Y-116454719D01*
X67916401Y-116378598D01*
X67771402Y-116233599D01*
X67657478Y-116063098D01*
X67657477Y-116063097D01*
X67579004Y-115873647D01*
X67539000Y-115672531D01*
X67539000Y-115467469D01*
X67579004Y-115266353D01*
X67657477Y-115076903D01*
X67695281Y-115020326D01*
X67771402Y-114906401D01*
X67916401Y-114761402D01*
X68086902Y-114647478D01*
X68086903Y-114647477D01*
X68276353Y-114569004D01*
X68477469Y-114529000D01*
X68682531Y-114529000D01*
X68883647Y-114569004D01*
G37*
G36*
X73963647Y-114569004D02*
G01*
X74153097Y-114647477D01*
X74153098Y-114647478D01*
X74323599Y-114761402D01*
X74468598Y-114906401D01*
X74544719Y-115020326D01*
X74582523Y-115076903D01*
X74660996Y-115266353D01*
X74701000Y-115467469D01*
X74701000Y-115672531D01*
X74660996Y-115873647D01*
X74582523Y-116063097D01*
X74582522Y-116063098D01*
X74468598Y-116233599D01*
X74323599Y-116378598D01*
X74209674Y-116454719D01*
X74153097Y-116492523D01*
X73963647Y-116570996D01*
X73762531Y-116611000D01*
X73557469Y-116611000D01*
X73356353Y-116570996D01*
X73166903Y-116492523D01*
X73110326Y-116454719D01*
X72996401Y-116378598D01*
X72851402Y-116233599D01*
X72737478Y-116063098D01*
X72737477Y-116063097D01*
X72659004Y-115873647D01*
X72619000Y-115672531D01*
X72619000Y-115467469D01*
X72659004Y-115266353D01*
X72737477Y-115076903D01*
X72775281Y-115020326D01*
X72851402Y-114906401D01*
X72996401Y-114761402D01*
X73166902Y-114647478D01*
X73166903Y-114647477D01*
X73356353Y-114569004D01*
X73557469Y-114529000D01*
X73762531Y-114529000D01*
X73963647Y-114569004D01*
G37*
G36*
X56183647Y-114569004D02*
G01*
X56373097Y-114647477D01*
X56373098Y-114647478D01*
X56543599Y-114761402D01*
X56688598Y-114906401D01*
X56764719Y-115020326D01*
X56802523Y-115076903D01*
X56880996Y-115266353D01*
X56921000Y-115467469D01*
X56921000Y-115672531D01*
X56880996Y-115873647D01*
X56802523Y-116063097D01*
X56802522Y-116063098D01*
X56688598Y-116233599D01*
X56543599Y-116378598D01*
X56429674Y-116454719D01*
X56373097Y-116492523D01*
X56183647Y-116570996D01*
X55982531Y-116611000D01*
X55777469Y-116611000D01*
X55576353Y-116570996D01*
X55386903Y-116492523D01*
X55330326Y-116454719D01*
X55216401Y-116378598D01*
X55071402Y-116233599D01*
X54957478Y-116063098D01*
X54957477Y-116063097D01*
X54879004Y-115873647D01*
X54839000Y-115672531D01*
X54839000Y-115467469D01*
X54879004Y-115266353D01*
X54957477Y-115076903D01*
X54995281Y-115020326D01*
X55071402Y-114906401D01*
X55216401Y-114761402D01*
X55386902Y-114647478D01*
X55386903Y-114647477D01*
X55576353Y-114569004D01*
X55777469Y-114529000D01*
X55982531Y-114529000D01*
X56183647Y-114569004D01*
G37*
G36*
X61263647Y-114569004D02*
G01*
X61453097Y-114647477D01*
X61453098Y-114647478D01*
X61623599Y-114761402D01*
X61768598Y-114906401D01*
X61844719Y-115020326D01*
X61882523Y-115076903D01*
X61960996Y-115266353D01*
X62001000Y-115467469D01*
X62001000Y-115672531D01*
X61960996Y-115873647D01*
X61882523Y-116063097D01*
X61882522Y-116063098D01*
X61768598Y-116233599D01*
X61623599Y-116378598D01*
X61509674Y-116454719D01*
X61453097Y-116492523D01*
X61263647Y-116570996D01*
X61062531Y-116611000D01*
X60857469Y-116611000D01*
X60656353Y-116570996D01*
X60466903Y-116492523D01*
X60410326Y-116454719D01*
X60296401Y-116378598D01*
X60151402Y-116233599D01*
X60037478Y-116063098D01*
X60037477Y-116063097D01*
X59959004Y-115873647D01*
X59919000Y-115672531D01*
X59919000Y-115467469D01*
X59959004Y-115266353D01*
X60037477Y-115076903D01*
X60075281Y-115020326D01*
X60151402Y-114906401D01*
X60296401Y-114761402D01*
X60466902Y-114647478D01*
X60466903Y-114647477D01*
X60656353Y-114569004D01*
X60857469Y-114529000D01*
X61062531Y-114529000D01*
X61263647Y-114569004D01*
G37*
G36*
X168116000Y-110966000D02*
G01*
X167164000Y-110966000D01*
X167164000Y-110014000D01*
X168116000Y-110014000D01*
X168116000Y-110966000D01*
G37*
G36*
X56183647Y-104409004D02*
G01*
X56373097Y-104487477D01*
X56373098Y-104487478D01*
X56543599Y-104601402D01*
X56688598Y-104746401D01*
X56751039Y-104839852D01*
X56802523Y-104916903D01*
X56880996Y-105106353D01*
X56921000Y-105307469D01*
X56921000Y-105512531D01*
X56880996Y-105713647D01*
X56802523Y-105903097D01*
X56802522Y-105903098D01*
X56688598Y-106073599D01*
X56543599Y-106218598D01*
X56429674Y-106294719D01*
X56373097Y-106332523D01*
X56183647Y-106410996D01*
X55982531Y-106451000D01*
X55777469Y-106451000D01*
X55576353Y-106410996D01*
X55386903Y-106332523D01*
X55330326Y-106294719D01*
X55216401Y-106218598D01*
X55071402Y-106073599D01*
X54957478Y-105903098D01*
X54957477Y-105903097D01*
X54879004Y-105713647D01*
X54839000Y-105512531D01*
X54839000Y-105307469D01*
X54879004Y-105106353D01*
X54957477Y-104916903D01*
X55008961Y-104839852D01*
X55071402Y-104746401D01*
X55216401Y-104601402D01*
X55386902Y-104487478D01*
X55386903Y-104487477D01*
X55576353Y-104409004D01*
X55777469Y-104369000D01*
X55982531Y-104369000D01*
X56183647Y-104409004D01*
G37*
G36*
X68883647Y-104409004D02*
G01*
X69073097Y-104487477D01*
X69073098Y-104487478D01*
X69243599Y-104601402D01*
X69388598Y-104746401D01*
X69451039Y-104839852D01*
X69502523Y-104916903D01*
X69580996Y-105106353D01*
X69621000Y-105307469D01*
X69621000Y-105512531D01*
X69580996Y-105713647D01*
X69502523Y-105903097D01*
X69502522Y-105903098D01*
X69388598Y-106073599D01*
X69243599Y-106218598D01*
X69129674Y-106294719D01*
X69073097Y-106332523D01*
X68883647Y-106410996D01*
X68682531Y-106451000D01*
X68477469Y-106451000D01*
X68276353Y-106410996D01*
X68086903Y-106332523D01*
X68030326Y-106294719D01*
X67916401Y-106218598D01*
X67771402Y-106073599D01*
X67657478Y-105903098D01*
X67657477Y-105903097D01*
X67579004Y-105713647D01*
X67539000Y-105512531D01*
X67539000Y-105307469D01*
X67579004Y-105106353D01*
X67657477Y-104916903D01*
X67708961Y-104839852D01*
X67771402Y-104746401D01*
X67916401Y-104601402D01*
X68086902Y-104487478D01*
X68086903Y-104487477D01*
X68276353Y-104409004D01*
X68477469Y-104369000D01*
X68682531Y-104369000D01*
X68883647Y-104409004D01*
G37*
G36*
X61263647Y-104409004D02*
G01*
X61453097Y-104487477D01*
X61453098Y-104487478D01*
X61623599Y-104601402D01*
X61768598Y-104746401D01*
X61831039Y-104839852D01*
X61882523Y-104916903D01*
X61960996Y-105106353D01*
X62001000Y-105307469D01*
X62001000Y-105512531D01*
X61960996Y-105713647D01*
X61882523Y-105903097D01*
X61882522Y-105903098D01*
X61768598Y-106073599D01*
X61623599Y-106218598D01*
X61509674Y-106294719D01*
X61453097Y-106332523D01*
X61263647Y-106410996D01*
X61062531Y-106451000D01*
X60857469Y-106451000D01*
X60656353Y-106410996D01*
X60466903Y-106332523D01*
X60410326Y-106294719D01*
X60296401Y-106218598D01*
X60151402Y-106073599D01*
X60037478Y-105903098D01*
X60037477Y-105903097D01*
X59959004Y-105713647D01*
X59919000Y-105512531D01*
X59919000Y-105307469D01*
X59959004Y-105106353D01*
X60037477Y-104916903D01*
X60088961Y-104839852D01*
X60151402Y-104746401D01*
X60296401Y-104601402D01*
X60466902Y-104487478D01*
X60466903Y-104487477D01*
X60656353Y-104409004D01*
X60857469Y-104369000D01*
X61062531Y-104369000D01*
X61263647Y-104409004D01*
G37*
G36*
X73963647Y-104409004D02*
G01*
X74153097Y-104487477D01*
X74153098Y-104487478D01*
X74323599Y-104601402D01*
X74468598Y-104746401D01*
X74531039Y-104839852D01*
X74582523Y-104916903D01*
X74660996Y-105106353D01*
X74701000Y-105307469D01*
X74701000Y-105512531D01*
X74660996Y-105713647D01*
X74582523Y-105903097D01*
X74582522Y-105903098D01*
X74468598Y-106073599D01*
X74323599Y-106218598D01*
X74209674Y-106294719D01*
X74153097Y-106332523D01*
X73963647Y-106410996D01*
X73762531Y-106451000D01*
X73557469Y-106451000D01*
X73356353Y-106410996D01*
X73166903Y-106332523D01*
X73110326Y-106294719D01*
X72996401Y-106218598D01*
X72851402Y-106073599D01*
X72737478Y-105903098D01*
X72737477Y-105903097D01*
X72659004Y-105713647D01*
X72619000Y-105512531D01*
X72619000Y-105307469D01*
X72659004Y-105106353D01*
X72737477Y-104916903D01*
X72788961Y-104839852D01*
X72851402Y-104746401D01*
X72996401Y-104601402D01*
X73166902Y-104487478D01*
X73166903Y-104487477D01*
X73356353Y-104409004D01*
X73557469Y-104369000D01*
X73762531Y-104369000D01*
X73963647Y-104409004D01*
G37*
G36*
X239508512Y-103243927D02*
G01*
X239657812Y-103273624D01*
X239821784Y-103341544D01*
X239969354Y-103440147D01*
X240094853Y-103565646D01*
X240193456Y-103713216D01*
X240261376Y-103877188D01*
X240296000Y-104051259D01*
X240296000Y-104228741D01*
X240261376Y-104402812D01*
X240193456Y-104566784D01*
X240094853Y-104714354D01*
X239969354Y-104839853D01*
X239821784Y-104938456D01*
X239657812Y-105006376D01*
X239508512Y-105036073D01*
X239483742Y-105041000D01*
X239306258Y-105041000D01*
X239281488Y-105036073D01*
X239132188Y-105006376D01*
X238968216Y-104938456D01*
X238820646Y-104839853D01*
X238695147Y-104714354D01*
X238596544Y-104566784D01*
X238528624Y-104402812D01*
X238494000Y-104228741D01*
X238494000Y-104051259D01*
X238528624Y-103877188D01*
X238596544Y-103713216D01*
X238695147Y-103565646D01*
X238820646Y-103440147D01*
X238968216Y-103341544D01*
X239132188Y-103273624D01*
X239281488Y-103243927D01*
X239306258Y-103239000D01*
X239483742Y-103239000D01*
X239508512Y-103243927D01*
G37*
G36*
X231888512Y-103243927D02*
G01*
X232037812Y-103273624D01*
X232201784Y-103341544D01*
X232349354Y-103440147D01*
X232474853Y-103565646D01*
X232573456Y-103713216D01*
X232641376Y-103877188D01*
X232676000Y-104051259D01*
X232676000Y-104228741D01*
X232641376Y-104402812D01*
X232573456Y-104566784D01*
X232474853Y-104714354D01*
X232349354Y-104839853D01*
X232201784Y-104938456D01*
X232037812Y-105006376D01*
X231888512Y-105036073D01*
X231863742Y-105041000D01*
X231686258Y-105041000D01*
X231661488Y-105036073D01*
X231512188Y-105006376D01*
X231348216Y-104938456D01*
X231200646Y-104839853D01*
X231075147Y-104714354D01*
X230976544Y-104566784D01*
X230908624Y-104402812D01*
X230874000Y-104228741D01*
X230874000Y-104051259D01*
X230908624Y-103877188D01*
X230976544Y-103713216D01*
X231075147Y-103565646D01*
X231200646Y-103440147D01*
X231348216Y-103341544D01*
X231512188Y-103273624D01*
X231661488Y-103243927D01*
X231686258Y-103239000D01*
X231863742Y-103239000D01*
X231888512Y-103243927D01*
G37*
G36*
X236968512Y-103243927D02*
G01*
X237117812Y-103273624D01*
X237281784Y-103341544D01*
X237429354Y-103440147D01*
X237554853Y-103565646D01*
X237653456Y-103713216D01*
X237721376Y-103877188D01*
X237756000Y-104051259D01*
X237756000Y-104228741D01*
X237721376Y-104402812D01*
X237653456Y-104566784D01*
X237554853Y-104714354D01*
X237429354Y-104839853D01*
X237281784Y-104938456D01*
X237117812Y-105006376D01*
X236968512Y-105036073D01*
X236943742Y-105041000D01*
X236766258Y-105041000D01*
X236741488Y-105036073D01*
X236592188Y-105006376D01*
X236428216Y-104938456D01*
X236280646Y-104839853D01*
X236155147Y-104714354D01*
X236056544Y-104566784D01*
X235988624Y-104402812D01*
X235954000Y-104228741D01*
X235954000Y-104051259D01*
X235988624Y-103877188D01*
X236056544Y-103713216D01*
X236155147Y-103565646D01*
X236280646Y-103440147D01*
X236428216Y-103341544D01*
X236592188Y-103273624D01*
X236741488Y-103243927D01*
X236766258Y-103239000D01*
X236943742Y-103239000D01*
X236968512Y-103243927D01*
G37*
G36*
X235216000Y-105041000D02*
G01*
X233414000Y-105041000D01*
X233414000Y-103239000D01*
X235216000Y-103239000D01*
X235216000Y-105041000D01*
G37*
G36*
X236968512Y-100703927D02*
G01*
X237117812Y-100733624D01*
X237281784Y-100801544D01*
X237429354Y-100900147D01*
X237554853Y-101025646D01*
X237653456Y-101173216D01*
X237721376Y-101337188D01*
X237756000Y-101511259D01*
X237756000Y-101688741D01*
X237721376Y-101862812D01*
X237653456Y-102026784D01*
X237554853Y-102174354D01*
X237429354Y-102299853D01*
X237281784Y-102398456D01*
X237117812Y-102466376D01*
X236968512Y-102496073D01*
X236943742Y-102501000D01*
X236766258Y-102501000D01*
X236741488Y-102496073D01*
X236592188Y-102466376D01*
X236428216Y-102398456D01*
X236280646Y-102299853D01*
X236155147Y-102174354D01*
X236056544Y-102026784D01*
X235988624Y-101862812D01*
X235954000Y-101688741D01*
X235954000Y-101511259D01*
X235988624Y-101337188D01*
X236056544Y-101173216D01*
X236155147Y-101025646D01*
X236280646Y-100900147D01*
X236428216Y-100801544D01*
X236592188Y-100733624D01*
X236741488Y-100703927D01*
X236766258Y-100699000D01*
X236943742Y-100699000D01*
X236968512Y-100703927D01*
G37*
G36*
X239508512Y-100703927D02*
G01*
X239657812Y-100733624D01*
X239821784Y-100801544D01*
X239969354Y-100900147D01*
X240094853Y-101025646D01*
X240193456Y-101173216D01*
X240261376Y-101337188D01*
X240296000Y-101511259D01*
X240296000Y-101688741D01*
X240261376Y-101862812D01*
X240193456Y-102026784D01*
X240094853Y-102174354D01*
X239969354Y-102299853D01*
X239821784Y-102398456D01*
X239657812Y-102466376D01*
X239508512Y-102496073D01*
X239483742Y-102501000D01*
X239306258Y-102501000D01*
X239281488Y-102496073D01*
X239132188Y-102466376D01*
X238968216Y-102398456D01*
X238820646Y-102299853D01*
X238695147Y-102174354D01*
X238596544Y-102026784D01*
X238528624Y-101862812D01*
X238494000Y-101688741D01*
X238494000Y-101511259D01*
X238528624Y-101337188D01*
X238596544Y-101173216D01*
X238695147Y-101025646D01*
X238820646Y-100900147D01*
X238968216Y-100801544D01*
X239132188Y-100733624D01*
X239281488Y-100703927D01*
X239306258Y-100699000D01*
X239483742Y-100699000D01*
X239508512Y-100703927D01*
G37*
G36*
X231888512Y-100703927D02*
G01*
X232037812Y-100733624D01*
X232201784Y-100801544D01*
X232349354Y-100900147D01*
X232474853Y-101025646D01*
X232573456Y-101173216D01*
X232641376Y-101337188D01*
X232676000Y-101511259D01*
X232676000Y-101688741D01*
X232641376Y-101862812D01*
X232573456Y-102026784D01*
X232474853Y-102174354D01*
X232349354Y-102299853D01*
X232201784Y-102398456D01*
X232037812Y-102466376D01*
X231888512Y-102496073D01*
X231863742Y-102501000D01*
X231686258Y-102501000D01*
X231661488Y-102496073D01*
X231512188Y-102466376D01*
X231348216Y-102398456D01*
X231200646Y-102299853D01*
X231075147Y-102174354D01*
X230976544Y-102026784D01*
X230908624Y-101862812D01*
X230874000Y-101688741D01*
X230874000Y-101511259D01*
X230908624Y-101337188D01*
X230976544Y-101173216D01*
X231075147Y-101025646D01*
X231200646Y-100900147D01*
X231348216Y-100801544D01*
X231512188Y-100733624D01*
X231661488Y-100703927D01*
X231686258Y-100699000D01*
X231863742Y-100699000D01*
X231888512Y-100703927D01*
G37*
G36*
X234428512Y-100703927D02*
G01*
X234577812Y-100733624D01*
X234741784Y-100801544D01*
X234889354Y-100900147D01*
X235014853Y-101025646D01*
X235113456Y-101173216D01*
X235181376Y-101337188D01*
X235216000Y-101511259D01*
X235216000Y-101688741D01*
X235181376Y-101862812D01*
X235113456Y-102026784D01*
X235014853Y-102174354D01*
X234889354Y-102299853D01*
X234741784Y-102398456D01*
X234577812Y-102466376D01*
X234428512Y-102496073D01*
X234403742Y-102501000D01*
X234226258Y-102501000D01*
X234201488Y-102496073D01*
X234052188Y-102466376D01*
X233888216Y-102398456D01*
X233740646Y-102299853D01*
X233615147Y-102174354D01*
X233516544Y-102026784D01*
X233448624Y-101862812D01*
X233414000Y-101688741D01*
X233414000Y-101511259D01*
X233448624Y-101337188D01*
X233516544Y-101173216D01*
X233615147Y-101025646D01*
X233740646Y-100900147D01*
X233888216Y-100801544D01*
X234052188Y-100733624D01*
X234201488Y-100703927D01*
X234226258Y-100699000D01*
X234403742Y-100699000D01*
X234428512Y-100703927D01*
G37*
G36*
X239508512Y-98163927D02*
G01*
X239657812Y-98193624D01*
X239821784Y-98261544D01*
X239969354Y-98360147D01*
X240094853Y-98485646D01*
X240193456Y-98633216D01*
X240261376Y-98797188D01*
X240296000Y-98971259D01*
X240296000Y-99148741D01*
X240261376Y-99322812D01*
X240193456Y-99486784D01*
X240094853Y-99634354D01*
X239969354Y-99759853D01*
X239821784Y-99858456D01*
X239657812Y-99926376D01*
X239508512Y-99956073D01*
X239483742Y-99961000D01*
X239306258Y-99961000D01*
X239281488Y-99956073D01*
X239132188Y-99926376D01*
X238968216Y-99858456D01*
X238820646Y-99759853D01*
X238695147Y-99634354D01*
X238596544Y-99486784D01*
X238528624Y-99322812D01*
X238494000Y-99148741D01*
X238494000Y-98971259D01*
X238528624Y-98797188D01*
X238596544Y-98633216D01*
X238695147Y-98485646D01*
X238820646Y-98360147D01*
X238968216Y-98261544D01*
X239132188Y-98193624D01*
X239281488Y-98163927D01*
X239306258Y-98159000D01*
X239483742Y-98159000D01*
X239508512Y-98163927D01*
G37*
G36*
X234428512Y-98163927D02*
G01*
X234577812Y-98193624D01*
X234741784Y-98261544D01*
X234889354Y-98360147D01*
X235014853Y-98485646D01*
X235113456Y-98633216D01*
X235181376Y-98797188D01*
X235216000Y-98971259D01*
X235216000Y-99148741D01*
X235181376Y-99322812D01*
X235113456Y-99486784D01*
X235014853Y-99634354D01*
X234889354Y-99759853D01*
X234741784Y-99858456D01*
X234577812Y-99926376D01*
X234428512Y-99956073D01*
X234403742Y-99961000D01*
X234226258Y-99961000D01*
X234201488Y-99956073D01*
X234052188Y-99926376D01*
X233888216Y-99858456D01*
X233740646Y-99759853D01*
X233615147Y-99634354D01*
X233516544Y-99486784D01*
X233448624Y-99322812D01*
X233414000Y-99148741D01*
X233414000Y-98971259D01*
X233448624Y-98797188D01*
X233516544Y-98633216D01*
X233615147Y-98485646D01*
X233740646Y-98360147D01*
X233888216Y-98261544D01*
X234052188Y-98193624D01*
X234201488Y-98163927D01*
X234226258Y-98159000D01*
X234403742Y-98159000D01*
X234428512Y-98163927D01*
G37*
G36*
X236968512Y-98163927D02*
G01*
X237117812Y-98193624D01*
X237281784Y-98261544D01*
X237429354Y-98360147D01*
X237554853Y-98485646D01*
X237653456Y-98633216D01*
X237721376Y-98797188D01*
X237756000Y-98971259D01*
X237756000Y-99148741D01*
X237721376Y-99322812D01*
X237653456Y-99486784D01*
X237554853Y-99634354D01*
X237429354Y-99759853D01*
X237281784Y-99858456D01*
X237117812Y-99926376D01*
X236968512Y-99956073D01*
X236943742Y-99961000D01*
X236766258Y-99961000D01*
X236741488Y-99956073D01*
X236592188Y-99926376D01*
X236428216Y-99858456D01*
X236280646Y-99759853D01*
X236155147Y-99634354D01*
X236056544Y-99486784D01*
X235988624Y-99322812D01*
X235954000Y-99148741D01*
X235954000Y-98971259D01*
X235988624Y-98797188D01*
X236056544Y-98633216D01*
X236155147Y-98485646D01*
X236280646Y-98360147D01*
X236428216Y-98261544D01*
X236592188Y-98193624D01*
X236741488Y-98163927D01*
X236766258Y-98159000D01*
X236943742Y-98159000D01*
X236968512Y-98163927D01*
G37*
G36*
X231888512Y-98163927D02*
G01*
X232037812Y-98193624D01*
X232201784Y-98261544D01*
X232349354Y-98360147D01*
X232474853Y-98485646D01*
X232573456Y-98633216D01*
X232641376Y-98797188D01*
X232676000Y-98971259D01*
X232676000Y-99148741D01*
X232641376Y-99322812D01*
X232573456Y-99486784D01*
X232474853Y-99634354D01*
X232349354Y-99759853D01*
X232201784Y-99858456D01*
X232037812Y-99926376D01*
X231888512Y-99956073D01*
X231863742Y-99961000D01*
X231686258Y-99961000D01*
X231661488Y-99956073D01*
X231512188Y-99926376D01*
X231348216Y-99858456D01*
X231200646Y-99759853D01*
X231075147Y-99634354D01*
X230976544Y-99486784D01*
X230908624Y-99322812D01*
X230874000Y-99148741D01*
X230874000Y-98971259D01*
X230908624Y-98797188D01*
X230976544Y-98633216D01*
X231075147Y-98485646D01*
X231200646Y-98360147D01*
X231348216Y-98261544D01*
X231512188Y-98193624D01*
X231661488Y-98163927D01*
X231686258Y-98159000D01*
X231863742Y-98159000D01*
X231888512Y-98163927D01*
G37*
G36*
X212203512Y-95623927D02*
G01*
X212352812Y-95653624D01*
X212516784Y-95721544D01*
X212664354Y-95820147D01*
X212789853Y-95945646D01*
X212888456Y-96093216D01*
X212956376Y-96257188D01*
X212991000Y-96431259D01*
X212991000Y-96608741D01*
X212956376Y-96782812D01*
X212888456Y-96946784D01*
X212789853Y-97094354D01*
X212664354Y-97219853D01*
X212516784Y-97318456D01*
X212352812Y-97386376D01*
X212203512Y-97416073D01*
X212178742Y-97421000D01*
X212001258Y-97421000D01*
X211976488Y-97416073D01*
X211827188Y-97386376D01*
X211663216Y-97318456D01*
X211515646Y-97219853D01*
X211390147Y-97094354D01*
X211291544Y-96946784D01*
X211223624Y-96782812D01*
X211189000Y-96608741D01*
X211189000Y-96431259D01*
X211223624Y-96257188D01*
X211291544Y-96093216D01*
X211390147Y-95945646D01*
X211515646Y-95820147D01*
X211663216Y-95721544D01*
X211827188Y-95653624D01*
X211976488Y-95623927D01*
X212001258Y-95619000D01*
X212178742Y-95619000D01*
X212203512Y-95623927D01*
G37*
G36*
X239508512Y-95623927D02*
G01*
X239657812Y-95653624D01*
X239821784Y-95721544D01*
X239969354Y-95820147D01*
X240094853Y-95945646D01*
X240193456Y-96093216D01*
X240261376Y-96257188D01*
X240296000Y-96431259D01*
X240296000Y-96608741D01*
X240261376Y-96782812D01*
X240193456Y-96946784D01*
X240094853Y-97094354D01*
X239969354Y-97219853D01*
X239821784Y-97318456D01*
X239657812Y-97386376D01*
X239508512Y-97416073D01*
X239483742Y-97421000D01*
X239306258Y-97421000D01*
X239281488Y-97416073D01*
X239132188Y-97386376D01*
X238968216Y-97318456D01*
X238820646Y-97219853D01*
X238695147Y-97094354D01*
X238596544Y-96946784D01*
X238528624Y-96782812D01*
X238494000Y-96608741D01*
X238494000Y-96431259D01*
X238528624Y-96257188D01*
X238596544Y-96093216D01*
X238695147Y-95945646D01*
X238820646Y-95820147D01*
X238968216Y-95721544D01*
X239132188Y-95653624D01*
X239281488Y-95623927D01*
X239306258Y-95619000D01*
X239483742Y-95619000D01*
X239508512Y-95623927D01*
G37*
G36*
X236968512Y-95623927D02*
G01*
X237117812Y-95653624D01*
X237281784Y-95721544D01*
X237429354Y-95820147D01*
X237554853Y-95945646D01*
X237653456Y-96093216D01*
X237721376Y-96257188D01*
X237756000Y-96431259D01*
X237756000Y-96608741D01*
X237721376Y-96782812D01*
X237653456Y-96946784D01*
X237554853Y-97094354D01*
X237429354Y-97219853D01*
X237281784Y-97318456D01*
X237117812Y-97386376D01*
X236968512Y-97416073D01*
X236943742Y-97421000D01*
X236766258Y-97421000D01*
X236741488Y-97416073D01*
X236592188Y-97386376D01*
X236428216Y-97318456D01*
X236280646Y-97219853D01*
X236155147Y-97094354D01*
X236056544Y-96946784D01*
X235988624Y-96782812D01*
X235954000Y-96608741D01*
X235954000Y-96431259D01*
X235988624Y-96257188D01*
X236056544Y-96093216D01*
X236155147Y-95945646D01*
X236280646Y-95820147D01*
X236428216Y-95721544D01*
X236592188Y-95653624D01*
X236741488Y-95623927D01*
X236766258Y-95619000D01*
X236943742Y-95619000D01*
X236968512Y-95623927D01*
G37*
G36*
X234428512Y-95623927D02*
G01*
X234577812Y-95653624D01*
X234741784Y-95721544D01*
X234889354Y-95820147D01*
X235014853Y-95945646D01*
X235113456Y-96093216D01*
X235181376Y-96257188D01*
X235216000Y-96431259D01*
X235216000Y-96608741D01*
X235181376Y-96782812D01*
X235113456Y-96946784D01*
X235014853Y-97094354D01*
X234889354Y-97219853D01*
X234741784Y-97318456D01*
X234577812Y-97386376D01*
X234428512Y-97416073D01*
X234403742Y-97421000D01*
X234226258Y-97421000D01*
X234201488Y-97416073D01*
X234052188Y-97386376D01*
X233888216Y-97318456D01*
X233740646Y-97219853D01*
X233615147Y-97094354D01*
X233516544Y-96946784D01*
X233448624Y-96782812D01*
X233414000Y-96608741D01*
X233414000Y-96431259D01*
X233448624Y-96257188D01*
X233516544Y-96093216D01*
X233615147Y-95945646D01*
X233740646Y-95820147D01*
X233888216Y-95721544D01*
X234052188Y-95653624D01*
X234201488Y-95623927D01*
X234226258Y-95619000D01*
X234403742Y-95619000D01*
X234428512Y-95623927D01*
G37*
G36*
X231888512Y-95623927D02*
G01*
X232037812Y-95653624D01*
X232201784Y-95721544D01*
X232349354Y-95820147D01*
X232474853Y-95945646D01*
X232573456Y-96093216D01*
X232641376Y-96257188D01*
X232676000Y-96431259D01*
X232676000Y-96608741D01*
X232641376Y-96782812D01*
X232573456Y-96946784D01*
X232474853Y-97094354D01*
X232349354Y-97219853D01*
X232201784Y-97318456D01*
X232037812Y-97386376D01*
X231888512Y-97416073D01*
X231863742Y-97421000D01*
X231686258Y-97421000D01*
X231661488Y-97416073D01*
X231512188Y-97386376D01*
X231348216Y-97318456D01*
X231200646Y-97219853D01*
X231075147Y-97094354D01*
X230976544Y-96946784D01*
X230908624Y-96782812D01*
X230874000Y-96608741D01*
X230874000Y-96431259D01*
X230908624Y-96257188D01*
X230976544Y-96093216D01*
X231075147Y-95945646D01*
X231200646Y-95820147D01*
X231348216Y-95721544D01*
X231512188Y-95653624D01*
X231661488Y-95623927D01*
X231686258Y-95619000D01*
X231863742Y-95619000D01*
X231888512Y-95623927D01*
G37*
G36*
X196963512Y-95623927D02*
G01*
X197112812Y-95653624D01*
X197276784Y-95721544D01*
X197424354Y-95820147D01*
X197549853Y-95945646D01*
X197648456Y-96093216D01*
X197716376Y-96257188D01*
X197751000Y-96431259D01*
X197751000Y-96608741D01*
X197716376Y-96782812D01*
X197648456Y-96946784D01*
X197549853Y-97094354D01*
X197424354Y-97219853D01*
X197276784Y-97318456D01*
X197112812Y-97386376D01*
X196963512Y-97416073D01*
X196938742Y-97421000D01*
X196761258Y-97421000D01*
X196736488Y-97416073D01*
X196587188Y-97386376D01*
X196423216Y-97318456D01*
X196275646Y-97219853D01*
X196150147Y-97094354D01*
X196051544Y-96946784D01*
X195983624Y-96782812D01*
X195949000Y-96608741D01*
X195949000Y-96431259D01*
X195983624Y-96257188D01*
X196051544Y-96093216D01*
X196150147Y-95945646D01*
X196275646Y-95820147D01*
X196423216Y-95721544D01*
X196587188Y-95653624D01*
X196736488Y-95623927D01*
X196761258Y-95619000D01*
X196938742Y-95619000D01*
X196963512Y-95623927D01*
G37*
G36*
X181723512Y-95623927D02*
G01*
X181872812Y-95653624D01*
X182036784Y-95721544D01*
X182184354Y-95820147D01*
X182309853Y-95945646D01*
X182408456Y-96093216D01*
X182476376Y-96257188D01*
X182511000Y-96431259D01*
X182511000Y-96608741D01*
X182476376Y-96782812D01*
X182408456Y-96946784D01*
X182309853Y-97094354D01*
X182184354Y-97219853D01*
X182036784Y-97318456D01*
X181872812Y-97386376D01*
X181723512Y-97416073D01*
X181698742Y-97421000D01*
X181521258Y-97421000D01*
X181496488Y-97416073D01*
X181347188Y-97386376D01*
X181183216Y-97318456D01*
X181035646Y-97219853D01*
X180910147Y-97094354D01*
X180811544Y-96946784D01*
X180743624Y-96782812D01*
X180709000Y-96608741D01*
X180709000Y-96431259D01*
X180743624Y-96257188D01*
X180811544Y-96093216D01*
X180910147Y-95945646D01*
X181035646Y-95820147D01*
X181183216Y-95721544D01*
X181347188Y-95653624D01*
X181496488Y-95623927D01*
X181521258Y-95619000D01*
X181698742Y-95619000D01*
X181723512Y-95623927D01*
G37*
G36*
X73963647Y-92979004D02*
G01*
X74153097Y-93057477D01*
X74153098Y-93057478D01*
X74323599Y-93171402D01*
X74468598Y-93316401D01*
X74528229Y-93405646D01*
X74582523Y-93486903D01*
X74660996Y-93676353D01*
X74701000Y-93877469D01*
X74701000Y-94082531D01*
X74660996Y-94283647D01*
X74582523Y-94473097D01*
X74582522Y-94473098D01*
X74468598Y-94643599D01*
X74323599Y-94788598D01*
X74237129Y-94846375D01*
X74153097Y-94902523D01*
X73963647Y-94980996D01*
X73762531Y-95021000D01*
X73557469Y-95021000D01*
X73356353Y-94980996D01*
X73166903Y-94902523D01*
X73082871Y-94846375D01*
X72996401Y-94788598D01*
X72851402Y-94643599D01*
X72737478Y-94473098D01*
X72737477Y-94473097D01*
X72659004Y-94283647D01*
X72619000Y-94082531D01*
X72619000Y-93877469D01*
X72659004Y-93676353D01*
X72737477Y-93486903D01*
X72791771Y-93405646D01*
X72851402Y-93316401D01*
X72996401Y-93171402D01*
X73166902Y-93057478D01*
X73166903Y-93057477D01*
X73356353Y-92979004D01*
X73557469Y-92939000D01*
X73762531Y-92939000D01*
X73963647Y-92979004D01*
G37*
G36*
X68883647Y-92979004D02*
G01*
X69073097Y-93057477D01*
X69073098Y-93057478D01*
X69243599Y-93171402D01*
X69388598Y-93316401D01*
X69448229Y-93405646D01*
X69502523Y-93486903D01*
X69580996Y-93676353D01*
X69621000Y-93877469D01*
X69621000Y-94082531D01*
X69580996Y-94283647D01*
X69502523Y-94473097D01*
X69502522Y-94473098D01*
X69388598Y-94643599D01*
X69243599Y-94788598D01*
X69157129Y-94846375D01*
X69073097Y-94902523D01*
X68883647Y-94980996D01*
X68682531Y-95021000D01*
X68477469Y-95021000D01*
X68276353Y-94980996D01*
X68086903Y-94902523D01*
X68002871Y-94846375D01*
X67916401Y-94788598D01*
X67771402Y-94643599D01*
X67657478Y-94473098D01*
X67657477Y-94473097D01*
X67579004Y-94283647D01*
X67539000Y-94082531D01*
X67539000Y-93877469D01*
X67579004Y-93676353D01*
X67657477Y-93486903D01*
X67711771Y-93405646D01*
X67771402Y-93316401D01*
X67916401Y-93171402D01*
X68086902Y-93057478D01*
X68086903Y-93057477D01*
X68276353Y-92979004D01*
X68477469Y-92939000D01*
X68682531Y-92939000D01*
X68883647Y-92979004D01*
G37*
G36*
X56183647Y-92979004D02*
G01*
X56373097Y-93057477D01*
X56373098Y-93057478D01*
X56543599Y-93171402D01*
X56688598Y-93316401D01*
X56748229Y-93405646D01*
X56802523Y-93486903D01*
X56880996Y-93676353D01*
X56921000Y-93877469D01*
X56921000Y-94082531D01*
X56880996Y-94283647D01*
X56802523Y-94473097D01*
X56802522Y-94473098D01*
X56688598Y-94643599D01*
X56543599Y-94788598D01*
X56457129Y-94846375D01*
X56373097Y-94902523D01*
X56183647Y-94980996D01*
X55982531Y-95021000D01*
X55777469Y-95021000D01*
X55576353Y-94980996D01*
X55386903Y-94902523D01*
X55302871Y-94846375D01*
X55216401Y-94788598D01*
X55071402Y-94643599D01*
X54957478Y-94473098D01*
X54957477Y-94473097D01*
X54879004Y-94283647D01*
X54839000Y-94082531D01*
X54839000Y-93877469D01*
X54879004Y-93676353D01*
X54957477Y-93486903D01*
X55011771Y-93405646D01*
X55071402Y-93316401D01*
X55216401Y-93171402D01*
X55386902Y-93057478D01*
X55386903Y-93057477D01*
X55576353Y-92979004D01*
X55777469Y-92939000D01*
X55982531Y-92939000D01*
X56183647Y-92979004D01*
G37*
G36*
X61263647Y-92979004D02*
G01*
X61453097Y-93057477D01*
X61453098Y-93057478D01*
X61623599Y-93171402D01*
X61768598Y-93316401D01*
X61828229Y-93405646D01*
X61882523Y-93486903D01*
X61960996Y-93676353D01*
X62001000Y-93877469D01*
X62001000Y-94082531D01*
X61960996Y-94283647D01*
X61882523Y-94473097D01*
X61882522Y-94473098D01*
X61768598Y-94643599D01*
X61623599Y-94788598D01*
X61537129Y-94846375D01*
X61453097Y-94902523D01*
X61263647Y-94980996D01*
X61062531Y-95021000D01*
X60857469Y-95021000D01*
X60656353Y-94980996D01*
X60466903Y-94902523D01*
X60382871Y-94846375D01*
X60296401Y-94788598D01*
X60151402Y-94643599D01*
X60037478Y-94473098D01*
X60037477Y-94473097D01*
X59959004Y-94283647D01*
X59919000Y-94082531D01*
X59919000Y-93877469D01*
X59959004Y-93676353D01*
X60037477Y-93486903D01*
X60091771Y-93405646D01*
X60151402Y-93316401D01*
X60296401Y-93171402D01*
X60466902Y-93057478D01*
X60466903Y-93057477D01*
X60656353Y-92979004D01*
X60857469Y-92939000D01*
X61062531Y-92939000D01*
X61263647Y-92979004D01*
G37*
G36*
X234428512Y-93083927D02*
G01*
X234577812Y-93113624D01*
X234741784Y-93181544D01*
X234889354Y-93280147D01*
X235014853Y-93405646D01*
X235113456Y-93553216D01*
X235181376Y-93717188D01*
X235216000Y-93891259D01*
X235216000Y-94068741D01*
X235181376Y-94242812D01*
X235113456Y-94406784D01*
X235014853Y-94554354D01*
X234889354Y-94679853D01*
X234741784Y-94778456D01*
X234577812Y-94846376D01*
X234428512Y-94876073D01*
X234403742Y-94881000D01*
X234226258Y-94881000D01*
X234201488Y-94876073D01*
X234052188Y-94846376D01*
X233888216Y-94778456D01*
X233740646Y-94679853D01*
X233615147Y-94554354D01*
X233516544Y-94406784D01*
X233448624Y-94242812D01*
X233414000Y-94068741D01*
X233414000Y-93891259D01*
X233448624Y-93717188D01*
X233516544Y-93553216D01*
X233615147Y-93405646D01*
X233740646Y-93280147D01*
X233888216Y-93181544D01*
X234052188Y-93113624D01*
X234201488Y-93083927D01*
X234226258Y-93079000D01*
X234403742Y-93079000D01*
X234428512Y-93083927D01*
G37*
G36*
X231888512Y-93083927D02*
G01*
X232037812Y-93113624D01*
X232201784Y-93181544D01*
X232349354Y-93280147D01*
X232474853Y-93405646D01*
X232573456Y-93553216D01*
X232641376Y-93717188D01*
X232676000Y-93891259D01*
X232676000Y-94068741D01*
X232641376Y-94242812D01*
X232573456Y-94406784D01*
X232474853Y-94554354D01*
X232349354Y-94679853D01*
X232201784Y-94778456D01*
X232037812Y-94846376D01*
X231888512Y-94876073D01*
X231863742Y-94881000D01*
X231686258Y-94881000D01*
X231661488Y-94876073D01*
X231512188Y-94846376D01*
X231348216Y-94778456D01*
X231200646Y-94679853D01*
X231075147Y-94554354D01*
X230976544Y-94406784D01*
X230908624Y-94242812D01*
X230874000Y-94068741D01*
X230874000Y-93891259D01*
X230908624Y-93717188D01*
X230976544Y-93553216D01*
X231075147Y-93405646D01*
X231200646Y-93280147D01*
X231348216Y-93181544D01*
X231512188Y-93113624D01*
X231661488Y-93083927D01*
X231686258Y-93079000D01*
X231863742Y-93079000D01*
X231888512Y-93083927D01*
G37*
G36*
X212203512Y-93083927D02*
G01*
X212352812Y-93113624D01*
X212516784Y-93181544D01*
X212664354Y-93280147D01*
X212789853Y-93405646D01*
X212888456Y-93553216D01*
X212956376Y-93717188D01*
X212991000Y-93891259D01*
X212991000Y-94068741D01*
X212956376Y-94242812D01*
X212888456Y-94406784D01*
X212789853Y-94554354D01*
X212664354Y-94679853D01*
X212516784Y-94778456D01*
X212352812Y-94846376D01*
X212203512Y-94876073D01*
X212178742Y-94881000D01*
X212001258Y-94881000D01*
X211976488Y-94876073D01*
X211827188Y-94846376D01*
X211663216Y-94778456D01*
X211515646Y-94679853D01*
X211390147Y-94554354D01*
X211291544Y-94406784D01*
X211223624Y-94242812D01*
X211189000Y-94068741D01*
X211189000Y-93891259D01*
X211223624Y-93717188D01*
X211291544Y-93553216D01*
X211390147Y-93405646D01*
X211515646Y-93280147D01*
X211663216Y-93181544D01*
X211827188Y-93113624D01*
X211976488Y-93083927D01*
X212001258Y-93079000D01*
X212178742Y-93079000D01*
X212203512Y-93083927D01*
G37*
G36*
X181723512Y-93083927D02*
G01*
X181872812Y-93113624D01*
X182036784Y-93181544D01*
X182184354Y-93280147D01*
X182309853Y-93405646D01*
X182408456Y-93553216D01*
X182476376Y-93717188D01*
X182511000Y-93891259D01*
X182511000Y-94068741D01*
X182476376Y-94242812D01*
X182408456Y-94406784D01*
X182309853Y-94554354D01*
X182184354Y-94679853D01*
X182036784Y-94778456D01*
X181872812Y-94846376D01*
X181723512Y-94876073D01*
X181698742Y-94881000D01*
X181521258Y-94881000D01*
X181496488Y-94876073D01*
X181347188Y-94846376D01*
X181183216Y-94778456D01*
X181035646Y-94679853D01*
X180910147Y-94554354D01*
X180811544Y-94406784D01*
X180743624Y-94242812D01*
X180709000Y-94068741D01*
X180709000Y-93891259D01*
X180743624Y-93717188D01*
X180811544Y-93553216D01*
X180910147Y-93405646D01*
X181035646Y-93280147D01*
X181183216Y-93181544D01*
X181347188Y-93113624D01*
X181496488Y-93083927D01*
X181521258Y-93079000D01*
X181698742Y-93079000D01*
X181723512Y-93083927D01*
G37*
G36*
X239508512Y-93083927D02*
G01*
X239657812Y-93113624D01*
X239821784Y-93181544D01*
X239969354Y-93280147D01*
X240094853Y-93405646D01*
X240193456Y-93553216D01*
X240261376Y-93717188D01*
X240296000Y-93891259D01*
X240296000Y-94068741D01*
X240261376Y-94242812D01*
X240193456Y-94406784D01*
X240094853Y-94554354D01*
X239969354Y-94679853D01*
X239821784Y-94778456D01*
X239657812Y-94846376D01*
X239508512Y-94876073D01*
X239483742Y-94881000D01*
X239306258Y-94881000D01*
X239281488Y-94876073D01*
X239132188Y-94846376D01*
X238968216Y-94778456D01*
X238820646Y-94679853D01*
X238695147Y-94554354D01*
X238596544Y-94406784D01*
X238528624Y-94242812D01*
X238494000Y-94068741D01*
X238494000Y-93891259D01*
X238528624Y-93717188D01*
X238596544Y-93553216D01*
X238695147Y-93405646D01*
X238820646Y-93280147D01*
X238968216Y-93181544D01*
X239132188Y-93113624D01*
X239281488Y-93083927D01*
X239306258Y-93079000D01*
X239483742Y-93079000D01*
X239508512Y-93083927D01*
G37*
G36*
X236968512Y-93083927D02*
G01*
X237117812Y-93113624D01*
X237281784Y-93181544D01*
X237429354Y-93280147D01*
X237554853Y-93405646D01*
X237653456Y-93553216D01*
X237721376Y-93717188D01*
X237756000Y-93891259D01*
X237756000Y-94068741D01*
X237721376Y-94242812D01*
X237653456Y-94406784D01*
X237554853Y-94554354D01*
X237429354Y-94679853D01*
X237281784Y-94778456D01*
X237117812Y-94846376D01*
X236968512Y-94876073D01*
X236943742Y-94881000D01*
X236766258Y-94881000D01*
X236741488Y-94876073D01*
X236592188Y-94846376D01*
X236428216Y-94778456D01*
X236280646Y-94679853D01*
X236155147Y-94554354D01*
X236056544Y-94406784D01*
X235988624Y-94242812D01*
X235954000Y-94068741D01*
X235954000Y-93891259D01*
X235988624Y-93717188D01*
X236056544Y-93553216D01*
X236155147Y-93405646D01*
X236280646Y-93280147D01*
X236428216Y-93181544D01*
X236592188Y-93113624D01*
X236741488Y-93083927D01*
X236766258Y-93079000D01*
X236943742Y-93079000D01*
X236968512Y-93083927D01*
G37*
G36*
X196963512Y-93083927D02*
G01*
X197112812Y-93113624D01*
X197276784Y-93181544D01*
X197424354Y-93280147D01*
X197549853Y-93405646D01*
X197648456Y-93553216D01*
X197716376Y-93717188D01*
X197751000Y-93891259D01*
X197751000Y-94068741D01*
X197716376Y-94242812D01*
X197648456Y-94406784D01*
X197549853Y-94554354D01*
X197424354Y-94679853D01*
X197276784Y-94778456D01*
X197112812Y-94846376D01*
X196963512Y-94876073D01*
X196938742Y-94881000D01*
X196761258Y-94881000D01*
X196736488Y-94876073D01*
X196587188Y-94846376D01*
X196423216Y-94778456D01*
X196275646Y-94679853D01*
X196150147Y-94554354D01*
X196051544Y-94406784D01*
X195983624Y-94242812D01*
X195949000Y-94068741D01*
X195949000Y-93891259D01*
X195983624Y-93717188D01*
X196051544Y-93553216D01*
X196150147Y-93405646D01*
X196275646Y-93280147D01*
X196423216Y-93181544D01*
X196587188Y-93113624D01*
X196736488Y-93083927D01*
X196761258Y-93079000D01*
X196938742Y-93079000D01*
X196963512Y-93083927D01*
G37*
G36*
X196963512Y-90543927D02*
G01*
X197112812Y-90573624D01*
X197276784Y-90641544D01*
X197424354Y-90740147D01*
X197549853Y-90865646D01*
X197648456Y-91013216D01*
X197716376Y-91177188D01*
X197751000Y-91351259D01*
X197751000Y-91528741D01*
X197716376Y-91702812D01*
X197648456Y-91866784D01*
X197549853Y-92014354D01*
X197424354Y-92139853D01*
X197276784Y-92238456D01*
X197112812Y-92306376D01*
X196963512Y-92336073D01*
X196938742Y-92341000D01*
X196761258Y-92341000D01*
X196736488Y-92336073D01*
X196587188Y-92306376D01*
X196423216Y-92238456D01*
X196275646Y-92139853D01*
X196150147Y-92014354D01*
X196051544Y-91866784D01*
X195983624Y-91702812D01*
X195949000Y-91528741D01*
X195949000Y-91351259D01*
X195983624Y-91177188D01*
X196051544Y-91013216D01*
X196150147Y-90865646D01*
X196275646Y-90740147D01*
X196423216Y-90641544D01*
X196587188Y-90573624D01*
X196736488Y-90543927D01*
X196761258Y-90539000D01*
X196938742Y-90539000D01*
X196963512Y-90543927D01*
G37*
G36*
X239508512Y-90543927D02*
G01*
X239657812Y-90573624D01*
X239821784Y-90641544D01*
X239969354Y-90740147D01*
X240094853Y-90865646D01*
X240193456Y-91013216D01*
X240261376Y-91177188D01*
X240296000Y-91351259D01*
X240296000Y-91528741D01*
X240261376Y-91702812D01*
X240193456Y-91866784D01*
X240094853Y-92014354D01*
X239969354Y-92139853D01*
X239821784Y-92238456D01*
X239657812Y-92306376D01*
X239508512Y-92336073D01*
X239483742Y-92341000D01*
X239306258Y-92341000D01*
X239281488Y-92336073D01*
X239132188Y-92306376D01*
X238968216Y-92238456D01*
X238820646Y-92139853D01*
X238695147Y-92014354D01*
X238596544Y-91866784D01*
X238528624Y-91702812D01*
X238494000Y-91528741D01*
X238494000Y-91351259D01*
X238528624Y-91177188D01*
X238596544Y-91013216D01*
X238695147Y-90865646D01*
X238820646Y-90740147D01*
X238968216Y-90641544D01*
X239132188Y-90573624D01*
X239281488Y-90543927D01*
X239306258Y-90539000D01*
X239483742Y-90539000D01*
X239508512Y-90543927D01*
G37*
G36*
X236968512Y-90543927D02*
G01*
X237117812Y-90573624D01*
X237281784Y-90641544D01*
X237429354Y-90740147D01*
X237554853Y-90865646D01*
X237653456Y-91013216D01*
X237721376Y-91177188D01*
X237756000Y-91351259D01*
X237756000Y-91528741D01*
X237721376Y-91702812D01*
X237653456Y-91866784D01*
X237554853Y-92014354D01*
X237429354Y-92139853D01*
X237281784Y-92238456D01*
X237117812Y-92306376D01*
X236968512Y-92336073D01*
X236943742Y-92341000D01*
X236766258Y-92341000D01*
X236741488Y-92336073D01*
X236592188Y-92306376D01*
X236428216Y-92238456D01*
X236280646Y-92139853D01*
X236155147Y-92014354D01*
X236056544Y-91866784D01*
X235988624Y-91702812D01*
X235954000Y-91528741D01*
X235954000Y-91351259D01*
X235988624Y-91177188D01*
X236056544Y-91013216D01*
X236155147Y-90865646D01*
X236280646Y-90740147D01*
X236428216Y-90641544D01*
X236592188Y-90573624D01*
X236741488Y-90543927D01*
X236766258Y-90539000D01*
X236943742Y-90539000D01*
X236968512Y-90543927D01*
G37*
G36*
X231888512Y-90543927D02*
G01*
X232037812Y-90573624D01*
X232201784Y-90641544D01*
X232349354Y-90740147D01*
X232474853Y-90865646D01*
X232573456Y-91013216D01*
X232641376Y-91177188D01*
X232676000Y-91351259D01*
X232676000Y-91528741D01*
X232641376Y-91702812D01*
X232573456Y-91866784D01*
X232474853Y-92014354D01*
X232349354Y-92139853D01*
X232201784Y-92238456D01*
X232037812Y-92306376D01*
X231888512Y-92336073D01*
X231863742Y-92341000D01*
X231686258Y-92341000D01*
X231661488Y-92336073D01*
X231512188Y-92306376D01*
X231348216Y-92238456D01*
X231200646Y-92139853D01*
X231075147Y-92014354D01*
X230976544Y-91866784D01*
X230908624Y-91702812D01*
X230874000Y-91528741D01*
X230874000Y-91351259D01*
X230908624Y-91177188D01*
X230976544Y-91013216D01*
X231075147Y-90865646D01*
X231200646Y-90740147D01*
X231348216Y-90641544D01*
X231512188Y-90573624D01*
X231661488Y-90543927D01*
X231686258Y-90539000D01*
X231863742Y-90539000D01*
X231888512Y-90543927D01*
G37*
G36*
X181723512Y-90543927D02*
G01*
X181872812Y-90573624D01*
X182036784Y-90641544D01*
X182184354Y-90740147D01*
X182309853Y-90865646D01*
X182408456Y-91013216D01*
X182476376Y-91177188D01*
X182511000Y-91351259D01*
X182511000Y-91528741D01*
X182476376Y-91702812D01*
X182408456Y-91866784D01*
X182309853Y-92014354D01*
X182184354Y-92139853D01*
X182036784Y-92238456D01*
X181872812Y-92306376D01*
X181723512Y-92336073D01*
X181698742Y-92341000D01*
X181521258Y-92341000D01*
X181496488Y-92336073D01*
X181347188Y-92306376D01*
X181183216Y-92238456D01*
X181035646Y-92139853D01*
X180910147Y-92014354D01*
X180811544Y-91866784D01*
X180743624Y-91702812D01*
X180709000Y-91528741D01*
X180709000Y-91351259D01*
X180743624Y-91177188D01*
X180811544Y-91013216D01*
X180910147Y-90865646D01*
X181035646Y-90740147D01*
X181183216Y-90641544D01*
X181347188Y-90573624D01*
X181496488Y-90543927D01*
X181521258Y-90539000D01*
X181698742Y-90539000D01*
X181723512Y-90543927D01*
G37*
G36*
X234428512Y-90543927D02*
G01*
X234577812Y-90573624D01*
X234741784Y-90641544D01*
X234889354Y-90740147D01*
X235014853Y-90865646D01*
X235113456Y-91013216D01*
X235181376Y-91177188D01*
X235216000Y-91351259D01*
X235216000Y-91528741D01*
X235181376Y-91702812D01*
X235113456Y-91866784D01*
X235014853Y-92014354D01*
X234889354Y-92139853D01*
X234741784Y-92238456D01*
X234577812Y-92306376D01*
X234428512Y-92336073D01*
X234403742Y-92341000D01*
X234226258Y-92341000D01*
X234201488Y-92336073D01*
X234052188Y-92306376D01*
X233888216Y-92238456D01*
X233740646Y-92139853D01*
X233615147Y-92014354D01*
X233516544Y-91866784D01*
X233448624Y-91702812D01*
X233414000Y-91528741D01*
X233414000Y-91351259D01*
X233448624Y-91177188D01*
X233516544Y-91013216D01*
X233615147Y-90865646D01*
X233740646Y-90740147D01*
X233888216Y-90641544D01*
X234052188Y-90573624D01*
X234201488Y-90543927D01*
X234226258Y-90539000D01*
X234403742Y-90539000D01*
X234428512Y-90543927D01*
G37*
G36*
X212203512Y-90543927D02*
G01*
X212352812Y-90573624D01*
X212516784Y-90641544D01*
X212664354Y-90740147D01*
X212789853Y-90865646D01*
X212888456Y-91013216D01*
X212956376Y-91177188D01*
X212991000Y-91351259D01*
X212991000Y-91528741D01*
X212956376Y-91702812D01*
X212888456Y-91866784D01*
X212789853Y-92014354D01*
X212664354Y-92139853D01*
X212516784Y-92238456D01*
X212352812Y-92306376D01*
X212203512Y-92336073D01*
X212178742Y-92341000D01*
X212001258Y-92341000D01*
X211976488Y-92336073D01*
X211827188Y-92306376D01*
X211663216Y-92238456D01*
X211515646Y-92139853D01*
X211390147Y-92014354D01*
X211291544Y-91866784D01*
X211223624Y-91702812D01*
X211189000Y-91528741D01*
X211189000Y-91351259D01*
X211223624Y-91177188D01*
X211291544Y-91013216D01*
X211390147Y-90865646D01*
X211515646Y-90740147D01*
X211663216Y-90641544D01*
X211827188Y-90573624D01*
X211976488Y-90543927D01*
X212001258Y-90539000D01*
X212178742Y-90539000D01*
X212203512Y-90543927D01*
G37*
G36*
X160375256Y-87891298D02*
G01*
X160481579Y-87912447D01*
X160690536Y-87999000D01*
X160774129Y-88033625D01*
X160782042Y-88036903D01*
X161052451Y-88217585D01*
X161282415Y-88447549D01*
X161463097Y-88717958D01*
X161575260Y-88988742D01*
X161587553Y-89018422D01*
X161651000Y-89337389D01*
X161651000Y-89662611D01*
X161623472Y-89801000D01*
X161587553Y-89981579D01*
X161463097Y-90282042D01*
X161282415Y-90552451D01*
X161052451Y-90782415D01*
X160782042Y-90963097D01*
X160481579Y-91087553D01*
X160375256Y-91108702D01*
X160162611Y-91151000D01*
X159837389Y-91151000D01*
X159624744Y-91108702D01*
X159518421Y-91087553D01*
X159217958Y-90963097D01*
X158947549Y-90782415D01*
X158717585Y-90552451D01*
X158536903Y-90282042D01*
X158412447Y-89981579D01*
X158376528Y-89801000D01*
X158349000Y-89662611D01*
X158349000Y-89337389D01*
X158412447Y-89018422D01*
X158424741Y-88988742D01*
X158536903Y-88717958D01*
X158717585Y-88447549D01*
X158947549Y-88217585D01*
X159217958Y-88036903D01*
X159225872Y-88033625D01*
X159309464Y-87999000D01*
X159518421Y-87912447D01*
X159624744Y-87891298D01*
X159837389Y-87849000D01*
X160162611Y-87849000D01*
X160375256Y-87891298D01*
G37*
G36*
X120375256Y-87891298D02*
G01*
X120481579Y-87912447D01*
X120690536Y-87999000D01*
X120774129Y-88033625D01*
X120782042Y-88036903D01*
X121052451Y-88217585D01*
X121282415Y-88447549D01*
X121463097Y-88717958D01*
X121575260Y-88988742D01*
X121587553Y-89018422D01*
X121651000Y-89337389D01*
X121651000Y-89662611D01*
X121623472Y-89801000D01*
X121587553Y-89981579D01*
X121463097Y-90282042D01*
X121282415Y-90552451D01*
X121052451Y-90782415D01*
X120782042Y-90963097D01*
X120481579Y-91087553D01*
X120375256Y-91108702D01*
X120162611Y-91151000D01*
X119837389Y-91151000D01*
X119624744Y-91108702D01*
X119518421Y-91087553D01*
X119217958Y-90963097D01*
X118947549Y-90782415D01*
X118717585Y-90552451D01*
X118536903Y-90282042D01*
X118412447Y-89981579D01*
X118376528Y-89801000D01*
X118349000Y-89662611D01*
X118349000Y-89337389D01*
X118412447Y-89018422D01*
X118424741Y-88988742D01*
X118536903Y-88717958D01*
X118717585Y-88447549D01*
X118947549Y-88217585D01*
X119217958Y-88036903D01*
X119225872Y-88033625D01*
X119309464Y-87999000D01*
X119518421Y-87912447D01*
X119624744Y-87891298D01*
X119837389Y-87849000D01*
X120162611Y-87849000D01*
X120375256Y-87891298D01*
G37*
G36*
X196963512Y-88003927D02*
G01*
X197112812Y-88033624D01*
X197276784Y-88101544D01*
X197424354Y-88200147D01*
X197549853Y-88325646D01*
X197648456Y-88473216D01*
X197716376Y-88637188D01*
X197751000Y-88811259D01*
X197751000Y-88988741D01*
X197716376Y-89162812D01*
X197648456Y-89326784D01*
X197549853Y-89474354D01*
X197424354Y-89599853D01*
X197276784Y-89698456D01*
X197112812Y-89766376D01*
X196963512Y-89796073D01*
X196938742Y-89801000D01*
X196761258Y-89801000D01*
X196736488Y-89796073D01*
X196587188Y-89766376D01*
X196423216Y-89698456D01*
X196275646Y-89599853D01*
X196150147Y-89474354D01*
X196051544Y-89326784D01*
X195983624Y-89162812D01*
X195949000Y-88988741D01*
X195949000Y-88811259D01*
X195983624Y-88637188D01*
X196051544Y-88473216D01*
X196150147Y-88325646D01*
X196275646Y-88200147D01*
X196423216Y-88101544D01*
X196587188Y-88033624D01*
X196736488Y-88003927D01*
X196761258Y-87999000D01*
X196938742Y-87999000D01*
X196963512Y-88003927D01*
G37*
G36*
X237756000Y-89801000D02*
G01*
X235954000Y-89801000D01*
X235954000Y-87999000D01*
X237756000Y-87999000D01*
X237756000Y-89801000D01*
G37*
G36*
X212203512Y-88003927D02*
G01*
X212352812Y-88033624D01*
X212516784Y-88101544D01*
X212664354Y-88200147D01*
X212789853Y-88325646D01*
X212888456Y-88473216D01*
X212956376Y-88637188D01*
X212991000Y-88811259D01*
X212991000Y-88988741D01*
X212956376Y-89162812D01*
X212888456Y-89326784D01*
X212789853Y-89474354D01*
X212664354Y-89599853D01*
X212516784Y-89698456D01*
X212352812Y-89766376D01*
X212203512Y-89796073D01*
X212178742Y-89801000D01*
X212001258Y-89801000D01*
X211976488Y-89796073D01*
X211827188Y-89766376D01*
X211663216Y-89698456D01*
X211515646Y-89599853D01*
X211390147Y-89474354D01*
X211291544Y-89326784D01*
X211223624Y-89162812D01*
X211189000Y-88988741D01*
X211189000Y-88811259D01*
X211223624Y-88637188D01*
X211291544Y-88473216D01*
X211390147Y-88325646D01*
X211515646Y-88200147D01*
X211663216Y-88101544D01*
X211827188Y-88033624D01*
X211976488Y-88003927D01*
X212001258Y-87999000D01*
X212178742Y-87999000D01*
X212203512Y-88003927D01*
G37*
G36*
X234428512Y-88003927D02*
G01*
X234577812Y-88033624D01*
X234741784Y-88101544D01*
X234889354Y-88200147D01*
X235014853Y-88325646D01*
X235113456Y-88473216D01*
X235181376Y-88637188D01*
X235216000Y-88811259D01*
X235216000Y-88988741D01*
X235181376Y-89162812D01*
X235113456Y-89326784D01*
X235014853Y-89474354D01*
X234889354Y-89599853D01*
X234741784Y-89698456D01*
X234577812Y-89766376D01*
X234428512Y-89796073D01*
X234403742Y-89801000D01*
X234226258Y-89801000D01*
X234201488Y-89796073D01*
X234052188Y-89766376D01*
X233888216Y-89698456D01*
X233740646Y-89599853D01*
X233615147Y-89474354D01*
X233516544Y-89326784D01*
X233448624Y-89162812D01*
X233414000Y-88988741D01*
X233414000Y-88811259D01*
X233448624Y-88637188D01*
X233516544Y-88473216D01*
X233615147Y-88325646D01*
X233740646Y-88200147D01*
X233888216Y-88101544D01*
X234052188Y-88033624D01*
X234201488Y-88003927D01*
X234226258Y-87999000D01*
X234403742Y-87999000D01*
X234428512Y-88003927D01*
G37*
G36*
X231888512Y-88003927D02*
G01*
X232037812Y-88033624D01*
X232201784Y-88101544D01*
X232349354Y-88200147D01*
X232474853Y-88325646D01*
X232573456Y-88473216D01*
X232641376Y-88637188D01*
X232676000Y-88811259D01*
X232676000Y-88988741D01*
X232641376Y-89162812D01*
X232573456Y-89326784D01*
X232474853Y-89474354D01*
X232349354Y-89599853D01*
X232201784Y-89698456D01*
X232037812Y-89766376D01*
X231888512Y-89796073D01*
X231863742Y-89801000D01*
X231686258Y-89801000D01*
X231661488Y-89796073D01*
X231512188Y-89766376D01*
X231348216Y-89698456D01*
X231200646Y-89599853D01*
X231075147Y-89474354D01*
X230976544Y-89326784D01*
X230908624Y-89162812D01*
X230874000Y-88988741D01*
X230874000Y-88811259D01*
X230908624Y-88637188D01*
X230976544Y-88473216D01*
X231075147Y-88325646D01*
X231200646Y-88200147D01*
X231348216Y-88101544D01*
X231512188Y-88033624D01*
X231661488Y-88003927D01*
X231686258Y-87999000D01*
X231863742Y-87999000D01*
X231888512Y-88003927D01*
G37*
G36*
X239508512Y-88003927D02*
G01*
X239657812Y-88033624D01*
X239821784Y-88101544D01*
X239969354Y-88200147D01*
X240094853Y-88325646D01*
X240193456Y-88473216D01*
X240261376Y-88637188D01*
X240296000Y-88811259D01*
X240296000Y-88988741D01*
X240261376Y-89162812D01*
X240193456Y-89326784D01*
X240094853Y-89474354D01*
X239969354Y-89599853D01*
X239821784Y-89698456D01*
X239657812Y-89766376D01*
X239508512Y-89796073D01*
X239483742Y-89801000D01*
X239306258Y-89801000D01*
X239281488Y-89796073D01*
X239132188Y-89766376D01*
X238968216Y-89698456D01*
X238820646Y-89599853D01*
X238695147Y-89474354D01*
X238596544Y-89326784D01*
X238528624Y-89162812D01*
X238494000Y-88988741D01*
X238494000Y-88811259D01*
X238528624Y-88637188D01*
X238596544Y-88473216D01*
X238695147Y-88325646D01*
X238820646Y-88200147D01*
X238968216Y-88101544D01*
X239132188Y-88033624D01*
X239281488Y-88003927D01*
X239306258Y-87999000D01*
X239483742Y-87999000D01*
X239508512Y-88003927D01*
G37*
G36*
X181723512Y-88003927D02*
G01*
X181872812Y-88033624D01*
X182036784Y-88101544D01*
X182184354Y-88200147D01*
X182309853Y-88325646D01*
X182408456Y-88473216D01*
X182476376Y-88637188D01*
X182511000Y-88811259D01*
X182511000Y-88988741D01*
X182476376Y-89162812D01*
X182408456Y-89326784D01*
X182309853Y-89474354D01*
X182184354Y-89599853D01*
X182036784Y-89698456D01*
X181872812Y-89766376D01*
X181723512Y-89796073D01*
X181698742Y-89801000D01*
X181521258Y-89801000D01*
X181496488Y-89796073D01*
X181347188Y-89766376D01*
X181183216Y-89698456D01*
X181035646Y-89599853D01*
X180910147Y-89474354D01*
X180811544Y-89326784D01*
X180743624Y-89162812D01*
X180709000Y-88988741D01*
X180709000Y-88811259D01*
X180743624Y-88637188D01*
X180811544Y-88473216D01*
X180910147Y-88325646D01*
X181035646Y-88200147D01*
X181183216Y-88101544D01*
X181347188Y-88033624D01*
X181496488Y-88003927D01*
X181521258Y-87999000D01*
X181698742Y-87999000D01*
X181723512Y-88003927D01*
G37*
G36*
X181723512Y-85463927D02*
G01*
X181872812Y-85493624D01*
X182036784Y-85561544D01*
X182184354Y-85660147D01*
X182309853Y-85785646D01*
X182408456Y-85933216D01*
X182476376Y-86097188D01*
X182511000Y-86271259D01*
X182511000Y-86448741D01*
X182476376Y-86622812D01*
X182408456Y-86786784D01*
X182309853Y-86934354D01*
X182184354Y-87059853D01*
X182036784Y-87158456D01*
X181872812Y-87226376D01*
X181723512Y-87256073D01*
X181698742Y-87261000D01*
X181521258Y-87261000D01*
X181496488Y-87256073D01*
X181347188Y-87226376D01*
X181183216Y-87158456D01*
X181035646Y-87059853D01*
X180910147Y-86934354D01*
X180811544Y-86786784D01*
X180743624Y-86622812D01*
X180709000Y-86448741D01*
X180709000Y-86271259D01*
X180743624Y-86097188D01*
X180811544Y-85933216D01*
X180910147Y-85785646D01*
X181035646Y-85660147D01*
X181183216Y-85561544D01*
X181347188Y-85493624D01*
X181496488Y-85463927D01*
X181521258Y-85459000D01*
X181698742Y-85459000D01*
X181723512Y-85463927D01*
G37*
G36*
X196963512Y-85463927D02*
G01*
X197112812Y-85493624D01*
X197276784Y-85561544D01*
X197424354Y-85660147D01*
X197549853Y-85785646D01*
X197648456Y-85933216D01*
X197716376Y-86097188D01*
X197751000Y-86271259D01*
X197751000Y-86448741D01*
X197716376Y-86622812D01*
X197648456Y-86786784D01*
X197549853Y-86934354D01*
X197424354Y-87059853D01*
X197276784Y-87158456D01*
X197112812Y-87226376D01*
X196963512Y-87256073D01*
X196938742Y-87261000D01*
X196761258Y-87261000D01*
X196736488Y-87256073D01*
X196587188Y-87226376D01*
X196423216Y-87158456D01*
X196275646Y-87059853D01*
X196150147Y-86934354D01*
X196051544Y-86786784D01*
X195983624Y-86622812D01*
X195949000Y-86448741D01*
X195949000Y-86271259D01*
X195983624Y-86097188D01*
X196051544Y-85933216D01*
X196150147Y-85785646D01*
X196275646Y-85660147D01*
X196423216Y-85561544D01*
X196587188Y-85493624D01*
X196736488Y-85463927D01*
X196761258Y-85459000D01*
X196938742Y-85459000D01*
X196963512Y-85463927D01*
G37*
G36*
X212203512Y-85463927D02*
G01*
X212352812Y-85493624D01*
X212516784Y-85561544D01*
X212664354Y-85660147D01*
X212789853Y-85785646D01*
X212888456Y-85933216D01*
X212956376Y-86097188D01*
X212991000Y-86271259D01*
X212991000Y-86448741D01*
X212956376Y-86622812D01*
X212888456Y-86786784D01*
X212789853Y-86934354D01*
X212664354Y-87059853D01*
X212516784Y-87158456D01*
X212352812Y-87226376D01*
X212203512Y-87256073D01*
X212178742Y-87261000D01*
X212001258Y-87261000D01*
X211976488Y-87256073D01*
X211827188Y-87226376D01*
X211663216Y-87158456D01*
X211515646Y-87059853D01*
X211390147Y-86934354D01*
X211291544Y-86786784D01*
X211223624Y-86622812D01*
X211189000Y-86448741D01*
X211189000Y-86271259D01*
X211223624Y-86097188D01*
X211291544Y-85933216D01*
X211390147Y-85785646D01*
X211515646Y-85660147D01*
X211663216Y-85561544D01*
X211827188Y-85493624D01*
X211976488Y-85463927D01*
X212001258Y-85459000D01*
X212178742Y-85459000D01*
X212203512Y-85463927D01*
G37*
G36*
X182511000Y-84721000D02*
G01*
X180709000Y-84721000D01*
X180709000Y-82919000D01*
X182511000Y-82919000D01*
X182511000Y-84721000D01*
G37*
G36*
X197751000Y-84721000D02*
G01*
X195949000Y-84721000D01*
X195949000Y-82919000D01*
X197751000Y-82919000D01*
X197751000Y-84721000D01*
G37*
G36*
X212991000Y-84721000D02*
G01*
X211189000Y-84721000D01*
X211189000Y-82919000D01*
X212991000Y-82919000D01*
X212991000Y-84721000D01*
G37*
G36*
X145409228Y-76397703D02*
G01*
X145564100Y-76461853D01*
X145703481Y-76554985D01*
X145822015Y-76673519D01*
X145915147Y-76812900D01*
X145979297Y-76967772D01*
X146012000Y-77132184D01*
X146012000Y-77299816D01*
X145979297Y-77464228D01*
X145915147Y-77619100D01*
X145822015Y-77758481D01*
X145703481Y-77877015D01*
X145564100Y-77970147D01*
X145409228Y-78034297D01*
X145244816Y-78067000D01*
X145077184Y-78067000D01*
X144912772Y-78034297D01*
X144757900Y-77970147D01*
X144618519Y-77877015D01*
X144499985Y-77758481D01*
X144406853Y-77619100D01*
X144342703Y-77464228D01*
X144310000Y-77299816D01*
X144310000Y-77132184D01*
X144342703Y-76967772D01*
X144406853Y-76812900D01*
X144499985Y-76673519D01*
X144618519Y-76554985D01*
X144757900Y-76461853D01*
X144912772Y-76397703D01*
X145077184Y-76365000D01*
X145244816Y-76365000D01*
X145409228Y-76397703D01*
G37*
G36*
X155569228Y-76397703D02*
G01*
X155724100Y-76461853D01*
X155863481Y-76554985D01*
X155982015Y-76673519D01*
X156075147Y-76812900D01*
X156139297Y-76967772D01*
X156172000Y-77132184D01*
X156172000Y-77299816D01*
X156139297Y-77464228D01*
X156075147Y-77619100D01*
X155982015Y-77758481D01*
X155863481Y-77877015D01*
X155724100Y-77970147D01*
X155569228Y-78034297D01*
X155404816Y-78067000D01*
X155237184Y-78067000D01*
X155072772Y-78034297D01*
X154917900Y-77970147D01*
X154778519Y-77877015D01*
X154659985Y-77758481D01*
X154566853Y-77619100D01*
X154502703Y-77464228D01*
X154470000Y-77299816D01*
X154470000Y-77132184D01*
X154502703Y-76967772D01*
X154566853Y-76812900D01*
X154659985Y-76673519D01*
X154778519Y-76554985D01*
X154917900Y-76461853D01*
X155072772Y-76397703D01*
X155237184Y-76365000D01*
X155404816Y-76365000D01*
X155569228Y-76397703D01*
G37*
G36*
X125089228Y-76397703D02*
G01*
X125244100Y-76461853D01*
X125383481Y-76554985D01*
X125502015Y-76673519D01*
X125595147Y-76812900D01*
X125659297Y-76967772D01*
X125692000Y-77132184D01*
X125692000Y-77299816D01*
X125659297Y-77464228D01*
X125595147Y-77619100D01*
X125502015Y-77758481D01*
X125383481Y-77877015D01*
X125244100Y-77970147D01*
X125089228Y-78034297D01*
X124924816Y-78067000D01*
X124757184Y-78067000D01*
X124592772Y-78034297D01*
X124437900Y-77970147D01*
X124298519Y-77877015D01*
X124179985Y-77758481D01*
X124086853Y-77619100D01*
X124022703Y-77464228D01*
X123990000Y-77299816D01*
X123990000Y-77132184D01*
X124022703Y-76967772D01*
X124086853Y-76812900D01*
X124179985Y-76673519D01*
X124298519Y-76554985D01*
X124437900Y-76461853D01*
X124592772Y-76397703D01*
X124757184Y-76365000D01*
X124924816Y-76365000D01*
X125089228Y-76397703D01*
G37*
G36*
X127629228Y-76397703D02*
G01*
X127784100Y-76461853D01*
X127923481Y-76554985D01*
X128042015Y-76673519D01*
X128135147Y-76812900D01*
X128199297Y-76967772D01*
X128232000Y-77132184D01*
X128232000Y-77299816D01*
X128199297Y-77464228D01*
X128135147Y-77619100D01*
X128042015Y-77758481D01*
X127923481Y-77877015D01*
X127784100Y-77970147D01*
X127629228Y-78034297D01*
X127464816Y-78067000D01*
X127297184Y-78067000D01*
X127132772Y-78034297D01*
X126977900Y-77970147D01*
X126838519Y-77877015D01*
X126719985Y-77758481D01*
X126626853Y-77619100D01*
X126562703Y-77464228D01*
X126530000Y-77299816D01*
X126530000Y-77132184D01*
X126562703Y-76967772D01*
X126626853Y-76812900D01*
X126719985Y-76673519D01*
X126838519Y-76554985D01*
X126977900Y-76461853D01*
X127132772Y-76397703D01*
X127297184Y-76365000D01*
X127464816Y-76365000D01*
X127629228Y-76397703D01*
G37*
G36*
X130169228Y-76397703D02*
G01*
X130324100Y-76461853D01*
X130463481Y-76554985D01*
X130582015Y-76673519D01*
X130675147Y-76812900D01*
X130739297Y-76967772D01*
X130772000Y-77132184D01*
X130772000Y-77299816D01*
X130739297Y-77464228D01*
X130675147Y-77619100D01*
X130582015Y-77758481D01*
X130463481Y-77877015D01*
X130324100Y-77970147D01*
X130169228Y-78034297D01*
X130004816Y-78067000D01*
X129837184Y-78067000D01*
X129672772Y-78034297D01*
X129517900Y-77970147D01*
X129378519Y-77877015D01*
X129259985Y-77758481D01*
X129166853Y-77619100D01*
X129102703Y-77464228D01*
X129070000Y-77299816D01*
X129070000Y-77132184D01*
X129102703Y-76967772D01*
X129166853Y-76812900D01*
X129259985Y-76673519D01*
X129378519Y-76554985D01*
X129517900Y-76461853D01*
X129672772Y-76397703D01*
X129837184Y-76365000D01*
X130004816Y-76365000D01*
X130169228Y-76397703D01*
G37*
G36*
X123152000Y-78067000D02*
G01*
X121450000Y-78067000D01*
X121450000Y-76365000D01*
X123152000Y-76365000D01*
X123152000Y-78067000D01*
G37*
G36*
X132709228Y-76397703D02*
G01*
X132864100Y-76461853D01*
X133003481Y-76554985D01*
X133122015Y-76673519D01*
X133215147Y-76812900D01*
X133279297Y-76967772D01*
X133312000Y-77132184D01*
X133312000Y-77299816D01*
X133279297Y-77464228D01*
X133215147Y-77619100D01*
X133122015Y-77758481D01*
X133003481Y-77877015D01*
X132864100Y-77970147D01*
X132709228Y-78034297D01*
X132544816Y-78067000D01*
X132377184Y-78067000D01*
X132212772Y-78034297D01*
X132057900Y-77970147D01*
X131918519Y-77877015D01*
X131799985Y-77758481D01*
X131706853Y-77619100D01*
X131642703Y-77464228D01*
X131610000Y-77299816D01*
X131610000Y-77132184D01*
X131642703Y-76967772D01*
X131706853Y-76812900D01*
X131799985Y-76673519D01*
X131918519Y-76554985D01*
X132057900Y-76461853D01*
X132212772Y-76397703D01*
X132377184Y-76365000D01*
X132544816Y-76365000D01*
X132709228Y-76397703D01*
G37*
G36*
X147949228Y-76397703D02*
G01*
X148104100Y-76461853D01*
X148243481Y-76554985D01*
X148362015Y-76673519D01*
X148455147Y-76812900D01*
X148519297Y-76967772D01*
X148552000Y-77132184D01*
X148552000Y-77299816D01*
X148519297Y-77464228D01*
X148455147Y-77619100D01*
X148362015Y-77758481D01*
X148243481Y-77877015D01*
X148104100Y-77970147D01*
X147949228Y-78034297D01*
X147784816Y-78067000D01*
X147617184Y-78067000D01*
X147452772Y-78034297D01*
X147297900Y-77970147D01*
X147158519Y-77877015D01*
X147039985Y-77758481D01*
X146946853Y-77619100D01*
X146882703Y-77464228D01*
X146850000Y-77299816D01*
X146850000Y-77132184D01*
X146882703Y-76967772D01*
X146946853Y-76812900D01*
X147039985Y-76673519D01*
X147158519Y-76554985D01*
X147297900Y-76461853D01*
X147452772Y-76397703D01*
X147617184Y-76365000D01*
X147784816Y-76365000D01*
X147949228Y-76397703D01*
G37*
G36*
X158109228Y-76397703D02*
G01*
X158264100Y-76461853D01*
X158403481Y-76554985D01*
X158522015Y-76673519D01*
X158615147Y-76812900D01*
X158679297Y-76967772D01*
X158712000Y-77132184D01*
X158712000Y-77299816D01*
X158679297Y-77464228D01*
X158615147Y-77619100D01*
X158522015Y-77758481D01*
X158403481Y-77877015D01*
X158264100Y-77970147D01*
X158109228Y-78034297D01*
X157944816Y-78067000D01*
X157777184Y-78067000D01*
X157612772Y-78034297D01*
X157457900Y-77970147D01*
X157318519Y-77877015D01*
X157199985Y-77758481D01*
X157106853Y-77619100D01*
X157042703Y-77464228D01*
X157010000Y-77299816D01*
X157010000Y-77132184D01*
X157042703Y-76967772D01*
X157106853Y-76812900D01*
X157199985Y-76673519D01*
X157318519Y-76554985D01*
X157457900Y-76461853D01*
X157612772Y-76397703D01*
X157777184Y-76365000D01*
X157944816Y-76365000D01*
X158109228Y-76397703D01*
G37*
G36*
X160649228Y-76397703D02*
G01*
X160804100Y-76461853D01*
X160943481Y-76554985D01*
X161062015Y-76673519D01*
X161155147Y-76812900D01*
X161219297Y-76967772D01*
X161252000Y-77132184D01*
X161252000Y-77299816D01*
X161219297Y-77464228D01*
X161155147Y-77619100D01*
X161062015Y-77758481D01*
X160943481Y-77877015D01*
X160804100Y-77970147D01*
X160649228Y-78034297D01*
X160484816Y-78067000D01*
X160317184Y-78067000D01*
X160152772Y-78034297D01*
X159997900Y-77970147D01*
X159858519Y-77877015D01*
X159739985Y-77758481D01*
X159646853Y-77619100D01*
X159582703Y-77464228D01*
X159550000Y-77299816D01*
X159550000Y-77132184D01*
X159582703Y-76967772D01*
X159646853Y-76812900D01*
X159739985Y-76673519D01*
X159858519Y-76554985D01*
X159997900Y-76461853D01*
X160152772Y-76397703D01*
X160317184Y-76365000D01*
X160484816Y-76365000D01*
X160649228Y-76397703D01*
G37*
G36*
X150489228Y-76397703D02*
G01*
X150644100Y-76461853D01*
X150783481Y-76554985D01*
X150902015Y-76673519D01*
X150995147Y-76812900D01*
X151059297Y-76967772D01*
X151092000Y-77132184D01*
X151092000Y-77299816D01*
X151059297Y-77464228D01*
X150995147Y-77619100D01*
X150902015Y-77758481D01*
X150783481Y-77877015D01*
X150644100Y-77970147D01*
X150489228Y-78034297D01*
X150324816Y-78067000D01*
X150157184Y-78067000D01*
X149992772Y-78034297D01*
X149837900Y-77970147D01*
X149698519Y-77877015D01*
X149579985Y-77758481D01*
X149486853Y-77619100D01*
X149422703Y-77464228D01*
X149390000Y-77299816D01*
X149390000Y-77132184D01*
X149422703Y-76967772D01*
X149486853Y-76812900D01*
X149579985Y-76673519D01*
X149698519Y-76554985D01*
X149837900Y-76461853D01*
X149992772Y-76397703D01*
X150157184Y-76365000D01*
X150324816Y-76365000D01*
X150489228Y-76397703D01*
G37*
G36*
X140329228Y-76397703D02*
G01*
X140484100Y-76461853D01*
X140623481Y-76554985D01*
X140742015Y-76673519D01*
X140835147Y-76812900D01*
X140899297Y-76967772D01*
X140932000Y-77132184D01*
X140932000Y-77299816D01*
X140899297Y-77464228D01*
X140835147Y-77619100D01*
X140742015Y-77758481D01*
X140623481Y-77877015D01*
X140484100Y-77970147D01*
X140329228Y-78034297D01*
X140164816Y-78067000D01*
X139997184Y-78067000D01*
X139832772Y-78034297D01*
X139677900Y-77970147D01*
X139538519Y-77877015D01*
X139419985Y-77758481D01*
X139326853Y-77619100D01*
X139262703Y-77464228D01*
X139230000Y-77299816D01*
X139230000Y-77132184D01*
X139262703Y-76967772D01*
X139326853Y-76812900D01*
X139419985Y-76673519D01*
X139538519Y-76554985D01*
X139677900Y-76461853D01*
X139832772Y-76397703D01*
X139997184Y-76365000D01*
X140164816Y-76365000D01*
X140329228Y-76397703D01*
G37*
G36*
X142869228Y-76397703D02*
G01*
X143024100Y-76461853D01*
X143163481Y-76554985D01*
X143282015Y-76673519D01*
X143375147Y-76812900D01*
X143439297Y-76967772D01*
X143472000Y-77132184D01*
X143472000Y-77299816D01*
X143439297Y-77464228D01*
X143375147Y-77619100D01*
X143282015Y-77758481D01*
X143163481Y-77877015D01*
X143024100Y-77970147D01*
X142869228Y-78034297D01*
X142704816Y-78067000D01*
X142537184Y-78067000D01*
X142372772Y-78034297D01*
X142217900Y-77970147D01*
X142078519Y-77877015D01*
X141959985Y-77758481D01*
X141866853Y-77619100D01*
X141802703Y-77464228D01*
X141770000Y-77299816D01*
X141770000Y-77132184D01*
X141802703Y-76967772D01*
X141866853Y-76812900D01*
X141959985Y-76673519D01*
X142078519Y-76554985D01*
X142217900Y-76461853D01*
X142372772Y-76397703D01*
X142537184Y-76365000D01*
X142704816Y-76365000D01*
X142869228Y-76397703D01*
G37*
G36*
X137789228Y-76397703D02*
G01*
X137944100Y-76461853D01*
X138083481Y-76554985D01*
X138202015Y-76673519D01*
X138295147Y-76812900D01*
X138359297Y-76967772D01*
X138392000Y-77132184D01*
X138392000Y-77299816D01*
X138359297Y-77464228D01*
X138295147Y-77619100D01*
X138202015Y-77758481D01*
X138083481Y-77877015D01*
X137944100Y-77970147D01*
X137789228Y-78034297D01*
X137624816Y-78067000D01*
X137457184Y-78067000D01*
X137292772Y-78034297D01*
X137137900Y-77970147D01*
X136998519Y-77877015D01*
X136879985Y-77758481D01*
X136786853Y-77619100D01*
X136722703Y-77464228D01*
X136690000Y-77299816D01*
X136690000Y-77132184D01*
X136722703Y-76967772D01*
X136786853Y-76812900D01*
X136879985Y-76673519D01*
X136998519Y-76554985D01*
X137137900Y-76461853D01*
X137292772Y-76397703D01*
X137457184Y-76365000D01*
X137624816Y-76365000D01*
X137789228Y-76397703D01*
G37*
G36*
X153029228Y-76397703D02*
G01*
X153184100Y-76461853D01*
X153323481Y-76554985D01*
X153442015Y-76673519D01*
X153535147Y-76812900D01*
X153599297Y-76967772D01*
X153632000Y-77132184D01*
X153632000Y-77299816D01*
X153599297Y-77464228D01*
X153535147Y-77619100D01*
X153442015Y-77758481D01*
X153323481Y-77877015D01*
X153184100Y-77970147D01*
X153029228Y-78034297D01*
X152864816Y-78067000D01*
X152697184Y-78067000D01*
X152532772Y-78034297D01*
X152377900Y-77970147D01*
X152238519Y-77877015D01*
X152119985Y-77758481D01*
X152026853Y-77619100D01*
X151962703Y-77464228D01*
X151930000Y-77299816D01*
X151930000Y-77132184D01*
X151962703Y-76967772D01*
X152026853Y-76812900D01*
X152119985Y-76673519D01*
X152238519Y-76554985D01*
X152377900Y-76461853D01*
X152532772Y-76397703D01*
X152697184Y-76365000D01*
X152864816Y-76365000D01*
X153029228Y-76397703D01*
G37*
G36*
X135249228Y-76397703D02*
G01*
X135404100Y-76461853D01*
X135543481Y-76554985D01*
X135662015Y-76673519D01*
X135755147Y-76812900D01*
X135819297Y-76967772D01*
X135852000Y-77132184D01*
X135852000Y-77299816D01*
X135819297Y-77464228D01*
X135755147Y-77619100D01*
X135662015Y-77758481D01*
X135543481Y-77877015D01*
X135404100Y-77970147D01*
X135249228Y-78034297D01*
X135084816Y-78067000D01*
X134917184Y-78067000D01*
X134752772Y-78034297D01*
X134597900Y-77970147D01*
X134458519Y-77877015D01*
X134339985Y-77758481D01*
X134246853Y-77619100D01*
X134182703Y-77464228D01*
X134150000Y-77299816D01*
X134150000Y-77132184D01*
X134182703Y-76967772D01*
X134246853Y-76812900D01*
X134339985Y-76673519D01*
X134458519Y-76554985D01*
X134597900Y-76461853D01*
X134752772Y-76397703D01*
X134917184Y-76365000D01*
X135084816Y-76365000D01*
X135249228Y-76397703D01*
G37*
G36*
X66254794Y-75120155D02*
G01*
X66361150Y-75141311D01*
X66461334Y-75182809D01*
X66561520Y-75224307D01*
X66741844Y-75344795D01*
X66895205Y-75498156D01*
X67015693Y-75678480D01*
X67098689Y-75878851D01*
X67141000Y-76091560D01*
X67141000Y-76308440D01*
X67098689Y-76521149D01*
X67015693Y-76721520D01*
X66895205Y-76901844D01*
X66741844Y-77055205D01*
X66561520Y-77175693D01*
X66361150Y-77258689D01*
X66254795Y-77279844D01*
X66148440Y-77301000D01*
X65931560Y-77301000D01*
X65825205Y-77279844D01*
X65718850Y-77258689D01*
X65518480Y-77175693D01*
X65338156Y-77055205D01*
X65184795Y-76901844D01*
X65064307Y-76721520D01*
X64981311Y-76521149D01*
X64939000Y-76308440D01*
X64939000Y-76091560D01*
X64981311Y-75878851D01*
X65064307Y-75678480D01*
X65184795Y-75498156D01*
X65338156Y-75344795D01*
X65518480Y-75224307D01*
X65618666Y-75182809D01*
X65718850Y-75141311D01*
X65825206Y-75120155D01*
X65931560Y-75099000D01*
X66148440Y-75099000D01*
X66254794Y-75120155D01*
G37*
G36*
X58634794Y-75120155D02*
G01*
X58741150Y-75141311D01*
X58841334Y-75182809D01*
X58941520Y-75224307D01*
X59121844Y-75344795D01*
X59275205Y-75498156D01*
X59395693Y-75678480D01*
X59478689Y-75878851D01*
X59521000Y-76091560D01*
X59521000Y-76308440D01*
X59478689Y-76521149D01*
X59395693Y-76721520D01*
X59275205Y-76901844D01*
X59121844Y-77055205D01*
X58941520Y-77175693D01*
X58741150Y-77258689D01*
X58634795Y-77279844D01*
X58528440Y-77301000D01*
X58311560Y-77301000D01*
X58205205Y-77279844D01*
X58098850Y-77258689D01*
X57898480Y-77175693D01*
X57718156Y-77055205D01*
X57564795Y-76901844D01*
X57444307Y-76721520D01*
X57361311Y-76521149D01*
X57319000Y-76308440D01*
X57319000Y-76091560D01*
X57361311Y-75878851D01*
X57444307Y-75678480D01*
X57564795Y-75498156D01*
X57718156Y-75344795D01*
X57898480Y-75224307D01*
X57998666Y-75182809D01*
X58098850Y-75141311D01*
X58205206Y-75120155D01*
X58311560Y-75099000D01*
X58528440Y-75099000D01*
X58634794Y-75120155D01*
G37*
G36*
X243953512Y-71493927D02*
G01*
X244102812Y-71523624D01*
X244266784Y-71591544D01*
X244414354Y-71690147D01*
X244539853Y-71815646D01*
X244638456Y-71963216D01*
X244706376Y-72127188D01*
X244741000Y-72301259D01*
X244741000Y-72478741D01*
X244706376Y-72652812D01*
X244638456Y-72816784D01*
X244539853Y-72964354D01*
X244414354Y-73089853D01*
X244266784Y-73188456D01*
X244102812Y-73256376D01*
X243953512Y-73286073D01*
X243928742Y-73291000D01*
X243751258Y-73291000D01*
X243726488Y-73286073D01*
X243577188Y-73256376D01*
X243413216Y-73188456D01*
X243265646Y-73089853D01*
X243140147Y-72964354D01*
X243041544Y-72816784D01*
X242973624Y-72652812D01*
X242939000Y-72478741D01*
X242939000Y-72301259D01*
X242973624Y-72127188D01*
X243041544Y-71963216D01*
X243140147Y-71815646D01*
X243265646Y-71690147D01*
X243413216Y-71591544D01*
X243577188Y-71523624D01*
X243726488Y-71493927D01*
X243751258Y-71489000D01*
X243928742Y-71489000D01*
X243953512Y-71493927D01*
G37*
G36*
X219823512Y-71493927D02*
G01*
X219972812Y-71523624D01*
X220136784Y-71591544D01*
X220284354Y-71690147D01*
X220409853Y-71815646D01*
X220508456Y-71963216D01*
X220576376Y-72127188D01*
X220611000Y-72301259D01*
X220611000Y-72478741D01*
X220576376Y-72652812D01*
X220508456Y-72816784D01*
X220409853Y-72964354D01*
X220284354Y-73089853D01*
X220136784Y-73188456D01*
X219972812Y-73256376D01*
X219823512Y-73286073D01*
X219798742Y-73291000D01*
X219621258Y-73291000D01*
X219596488Y-73286073D01*
X219447188Y-73256376D01*
X219283216Y-73188456D01*
X219135646Y-73089853D01*
X219010147Y-72964354D01*
X218911544Y-72816784D01*
X218843624Y-72652812D01*
X218809000Y-72478741D01*
X218809000Y-72301259D01*
X218843624Y-72127188D01*
X218911544Y-71963216D01*
X219010147Y-71815646D01*
X219135646Y-71690147D01*
X219283216Y-71591544D01*
X219447188Y-71523624D01*
X219596488Y-71493927D01*
X219621258Y-71489000D01*
X219798742Y-71489000D01*
X219823512Y-71493927D01*
G37*
G36*
X231888512Y-71493927D02*
G01*
X232037812Y-71523624D01*
X232201784Y-71591544D01*
X232349354Y-71690147D01*
X232474853Y-71815646D01*
X232573456Y-71963216D01*
X232641376Y-72127188D01*
X232676000Y-72301259D01*
X232676000Y-72478741D01*
X232641376Y-72652812D01*
X232573456Y-72816784D01*
X232474853Y-72964354D01*
X232349354Y-73089853D01*
X232201784Y-73188456D01*
X232037812Y-73256376D01*
X231888512Y-73286073D01*
X231863742Y-73291000D01*
X231686258Y-73291000D01*
X231661488Y-73286073D01*
X231512188Y-73256376D01*
X231348216Y-73188456D01*
X231200646Y-73089853D01*
X231075147Y-72964354D01*
X230976544Y-72816784D01*
X230908624Y-72652812D01*
X230874000Y-72478741D01*
X230874000Y-72301259D01*
X230908624Y-72127188D01*
X230976544Y-71963216D01*
X231075147Y-71815646D01*
X231200646Y-71690147D01*
X231348216Y-71591544D01*
X231512188Y-71523624D01*
X231661488Y-71493927D01*
X231686258Y-71489000D01*
X231863742Y-71489000D01*
X231888512Y-71493927D01*
G37*
G36*
X67141000Y-72221000D02*
G01*
X64939000Y-72221000D01*
X64939000Y-70019000D01*
X67141000Y-70019000D01*
X67141000Y-72221000D01*
G37*
G36*
X59521000Y-72221000D02*
G01*
X57319000Y-72221000D01*
X57319000Y-70019000D01*
X59521000Y-70019000D01*
X59521000Y-72221000D01*
G37*
G36*
X243953512Y-68953927D02*
G01*
X244102812Y-68983624D01*
X244266784Y-69051544D01*
X244414354Y-69150147D01*
X244539853Y-69275646D01*
X244638456Y-69423216D01*
X244706376Y-69587188D01*
X244741000Y-69761259D01*
X244741000Y-69938741D01*
X244706376Y-70112812D01*
X244638456Y-70276784D01*
X244539853Y-70424354D01*
X244414354Y-70549853D01*
X244266784Y-70648456D01*
X244102812Y-70716376D01*
X243953512Y-70746073D01*
X243928742Y-70751000D01*
X243751258Y-70751000D01*
X243726488Y-70746073D01*
X243577188Y-70716376D01*
X243413216Y-70648456D01*
X243265646Y-70549853D01*
X243140147Y-70424354D01*
X243041544Y-70276784D01*
X242973624Y-70112812D01*
X242939000Y-69938741D01*
X242939000Y-69761259D01*
X242973624Y-69587188D01*
X243041544Y-69423216D01*
X243140147Y-69275646D01*
X243265646Y-69150147D01*
X243413216Y-69051544D01*
X243577188Y-68983624D01*
X243726488Y-68953927D01*
X243751258Y-68949000D01*
X243928742Y-68949000D01*
X243953512Y-68953927D01*
G37*
G36*
X219823512Y-68953927D02*
G01*
X219972812Y-68983624D01*
X220136784Y-69051544D01*
X220284354Y-69150147D01*
X220409853Y-69275646D01*
X220508456Y-69423216D01*
X220576376Y-69587188D01*
X220611000Y-69761259D01*
X220611000Y-69938741D01*
X220576376Y-70112812D01*
X220508456Y-70276784D01*
X220409853Y-70424354D01*
X220284354Y-70549853D01*
X220136784Y-70648456D01*
X219972812Y-70716376D01*
X219823512Y-70746073D01*
X219798742Y-70751000D01*
X219621258Y-70751000D01*
X219596488Y-70746073D01*
X219447188Y-70716376D01*
X219283216Y-70648456D01*
X219135646Y-70549853D01*
X219010147Y-70424354D01*
X218911544Y-70276784D01*
X218843624Y-70112812D01*
X218809000Y-69938741D01*
X218809000Y-69761259D01*
X218843624Y-69587188D01*
X218911544Y-69423216D01*
X219010147Y-69275646D01*
X219135646Y-69150147D01*
X219283216Y-69051544D01*
X219447188Y-68983624D01*
X219596488Y-68953927D01*
X219621258Y-68949000D01*
X219798742Y-68949000D01*
X219823512Y-68953927D01*
G37*
G36*
X231888512Y-68953927D02*
G01*
X232037812Y-68983624D01*
X232201784Y-69051544D01*
X232349354Y-69150147D01*
X232474853Y-69275646D01*
X232573456Y-69423216D01*
X232641376Y-69587188D01*
X232676000Y-69761259D01*
X232676000Y-69938741D01*
X232641376Y-70112812D01*
X232573456Y-70276784D01*
X232474853Y-70424354D01*
X232349354Y-70549853D01*
X232201784Y-70648456D01*
X232037812Y-70716376D01*
X231888512Y-70746073D01*
X231863742Y-70751000D01*
X231686258Y-70751000D01*
X231661488Y-70746073D01*
X231512188Y-70716376D01*
X231348216Y-70648456D01*
X231200646Y-70549853D01*
X231075147Y-70424354D01*
X230976544Y-70276784D01*
X230908624Y-70112812D01*
X230874000Y-69938741D01*
X230874000Y-69761259D01*
X230908624Y-69587188D01*
X230976544Y-69423216D01*
X231075147Y-69275646D01*
X231200646Y-69150147D01*
X231348216Y-69051544D01*
X231512188Y-68983624D01*
X231661488Y-68953927D01*
X231686258Y-68949000D01*
X231863742Y-68949000D01*
X231888512Y-68953927D01*
G37*
G36*
X219814769Y-66412188D02*
G01*
X219972812Y-66443624D01*
X220136784Y-66511544D01*
X220284354Y-66610147D01*
X220409853Y-66735646D01*
X220508456Y-66883216D01*
X220576376Y-67047188D01*
X220611000Y-67221259D01*
X220611000Y-67398741D01*
X220576376Y-67572812D01*
X220508456Y-67736784D01*
X220409853Y-67884354D01*
X220284354Y-68009853D01*
X220136784Y-68108456D01*
X219972812Y-68176376D01*
X219823512Y-68206073D01*
X219798742Y-68211000D01*
X219621258Y-68211000D01*
X219596488Y-68206073D01*
X219447188Y-68176376D01*
X219283216Y-68108456D01*
X219135646Y-68009853D01*
X219010147Y-67884354D01*
X218911544Y-67736784D01*
X218843624Y-67572812D01*
X218809000Y-67398741D01*
X218809000Y-67221259D01*
X218843624Y-67047188D01*
X218911544Y-66883216D01*
X219010147Y-66735646D01*
X219135646Y-66610147D01*
X219283216Y-66511544D01*
X219447188Y-66443624D01*
X219605231Y-66412188D01*
X219621258Y-66409000D01*
X219798742Y-66409000D01*
X219814769Y-66412188D01*
G37*
G36*
X243944769Y-66412188D02*
G01*
X244102812Y-66443624D01*
X244266784Y-66511544D01*
X244414354Y-66610147D01*
X244539853Y-66735646D01*
X244638456Y-66883216D01*
X244706376Y-67047188D01*
X244741000Y-67221259D01*
X244741000Y-67398741D01*
X244706376Y-67572812D01*
X244638456Y-67736784D01*
X244539853Y-67884354D01*
X244414354Y-68009853D01*
X244266784Y-68108456D01*
X244102812Y-68176376D01*
X243953512Y-68206073D01*
X243928742Y-68211000D01*
X243751258Y-68211000D01*
X243726488Y-68206073D01*
X243577188Y-68176376D01*
X243413216Y-68108456D01*
X243265646Y-68009853D01*
X243140147Y-67884354D01*
X243041544Y-67736784D01*
X242973624Y-67572812D01*
X242939000Y-67398741D01*
X242939000Y-67221259D01*
X242973624Y-67047188D01*
X243041544Y-66883216D01*
X243140147Y-66735646D01*
X243265646Y-66610147D01*
X243413216Y-66511544D01*
X243577188Y-66443624D01*
X243735231Y-66412188D01*
X243751258Y-66409000D01*
X243928742Y-66409000D01*
X243944769Y-66412188D01*
G37*
G36*
X231879769Y-66412188D02*
G01*
X232037812Y-66443624D01*
X232201784Y-66511544D01*
X232349354Y-66610147D01*
X232474853Y-66735646D01*
X232573456Y-66883216D01*
X232641376Y-67047188D01*
X232676000Y-67221259D01*
X232676000Y-67398741D01*
X232641376Y-67572812D01*
X232573456Y-67736784D01*
X232474853Y-67884354D01*
X232349354Y-68009853D01*
X232201784Y-68108456D01*
X232037812Y-68176376D01*
X231888512Y-68206073D01*
X231863742Y-68211000D01*
X231686258Y-68211000D01*
X231661488Y-68206073D01*
X231512188Y-68176376D01*
X231348216Y-68108456D01*
X231200646Y-68009853D01*
X231075147Y-67884354D01*
X230976544Y-67736784D01*
X230908624Y-67572812D01*
X230874000Y-67398741D01*
X230874000Y-67221259D01*
X230908624Y-67047188D01*
X230976544Y-66883216D01*
X231075147Y-66735646D01*
X231200646Y-66610147D01*
X231348216Y-66511544D01*
X231512188Y-66443624D01*
X231670231Y-66412188D01*
X231686258Y-66409000D01*
X231863742Y-66409000D01*
X231879769Y-66412188D01*
G37*
G36*
X188073512Y-65778927D02*
G01*
X188222812Y-65808624D01*
X188386784Y-65876544D01*
X188534354Y-65975147D01*
X188659853Y-66100646D01*
X188758456Y-66248216D01*
X188826376Y-66412188D01*
X188861000Y-66586259D01*
X188861000Y-66763741D01*
X188826376Y-66937812D01*
X188758456Y-67101784D01*
X188659853Y-67249354D01*
X188534354Y-67374853D01*
X188386784Y-67473456D01*
X188222812Y-67541376D01*
X188073512Y-67571073D01*
X188048742Y-67576000D01*
X187871258Y-67576000D01*
X187846488Y-67571073D01*
X187697188Y-67541376D01*
X187533216Y-67473456D01*
X187385646Y-67374853D01*
X187260147Y-67249354D01*
X187161544Y-67101784D01*
X187093624Y-66937812D01*
X187059000Y-66763741D01*
X187059000Y-66586259D01*
X187093624Y-66412188D01*
X187161544Y-66248216D01*
X187260147Y-66100646D01*
X187385646Y-65975147D01*
X187533216Y-65876544D01*
X187697188Y-65808624D01*
X187846488Y-65778927D01*
X187871258Y-65774000D01*
X188048742Y-65774000D01*
X188073512Y-65778927D01*
G37*
G36*
X203313512Y-65778927D02*
G01*
X203462812Y-65808624D01*
X203626784Y-65876544D01*
X203774354Y-65975147D01*
X203899853Y-66100646D01*
X203998456Y-66248216D01*
X204066376Y-66412188D01*
X204101000Y-66586259D01*
X204101000Y-66763741D01*
X204066376Y-66937812D01*
X203998456Y-67101784D01*
X203899853Y-67249354D01*
X203774354Y-67374853D01*
X203626784Y-67473456D01*
X203462812Y-67541376D01*
X203313512Y-67571073D01*
X203288742Y-67576000D01*
X203111258Y-67576000D01*
X203086488Y-67571073D01*
X202937188Y-67541376D01*
X202773216Y-67473456D01*
X202625646Y-67374853D01*
X202500147Y-67249354D01*
X202401544Y-67101784D01*
X202333624Y-66937812D01*
X202299000Y-66763741D01*
X202299000Y-66586259D01*
X202333624Y-66412188D01*
X202401544Y-66248216D01*
X202500147Y-66100646D01*
X202625646Y-65975147D01*
X202773216Y-65876544D01*
X202937188Y-65808624D01*
X203086488Y-65778927D01*
X203111258Y-65774000D01*
X203288742Y-65774000D01*
X203313512Y-65778927D01*
G37*
G36*
X232676000Y-65671000D02*
G01*
X230874000Y-65671000D01*
X230874000Y-63869000D01*
X232676000Y-63869000D01*
X232676000Y-65671000D01*
G37*
G36*
X244741000Y-65671000D02*
G01*
X242939000Y-65671000D01*
X242939000Y-63869000D01*
X244741000Y-63869000D01*
X244741000Y-65671000D01*
G37*
G36*
X220611000Y-65671000D02*
G01*
X218809000Y-65671000D01*
X218809000Y-63869000D01*
X220611000Y-63869000D01*
X220611000Y-65671000D01*
G37*
G36*
X188073512Y-63238927D02*
G01*
X188222812Y-63268624D01*
X188386784Y-63336544D01*
X188534354Y-63435147D01*
X188659853Y-63560646D01*
X188758456Y-63708216D01*
X188826376Y-63872188D01*
X188861000Y-64046259D01*
X188861000Y-64223741D01*
X188826376Y-64397812D01*
X188758456Y-64561784D01*
X188659853Y-64709354D01*
X188534354Y-64834853D01*
X188386784Y-64933456D01*
X188222812Y-65001376D01*
X188073512Y-65031073D01*
X188048742Y-65036000D01*
X187871258Y-65036000D01*
X187846488Y-65031073D01*
X187697188Y-65001376D01*
X187533216Y-64933456D01*
X187385646Y-64834853D01*
X187260147Y-64709354D01*
X187161544Y-64561784D01*
X187093624Y-64397812D01*
X187059000Y-64223741D01*
X187059000Y-64046259D01*
X187093624Y-63872188D01*
X187161544Y-63708216D01*
X187260147Y-63560646D01*
X187385646Y-63435147D01*
X187533216Y-63336544D01*
X187697188Y-63268624D01*
X187846488Y-63238927D01*
X187871258Y-63234000D01*
X188048742Y-63234000D01*
X188073512Y-63238927D01*
G37*
G36*
X203313512Y-63238927D02*
G01*
X203462812Y-63268624D01*
X203626784Y-63336544D01*
X203774354Y-63435147D01*
X203899853Y-63560646D01*
X203998456Y-63708216D01*
X204066376Y-63872188D01*
X204101000Y-64046259D01*
X204101000Y-64223741D01*
X204066376Y-64397812D01*
X203998456Y-64561784D01*
X203899853Y-64709354D01*
X203774354Y-64834853D01*
X203626784Y-64933456D01*
X203462812Y-65001376D01*
X203313512Y-65031073D01*
X203288742Y-65036000D01*
X203111258Y-65036000D01*
X203086488Y-65031073D01*
X202937188Y-65001376D01*
X202773216Y-64933456D01*
X202625646Y-64834853D01*
X202500147Y-64709354D01*
X202401544Y-64561784D01*
X202333624Y-64397812D01*
X202299000Y-64223741D01*
X202299000Y-64046259D01*
X202333624Y-63872188D01*
X202401544Y-63708216D01*
X202500147Y-63560646D01*
X202625646Y-63435147D01*
X202773216Y-63336544D01*
X202937188Y-63268624D01*
X203086488Y-63238927D01*
X203111258Y-63234000D01*
X203288742Y-63234000D01*
X203313512Y-63238927D01*
G37*
G36*
X66254795Y-61150156D02*
G01*
X66361150Y-61171311D01*
X66461334Y-61212809D01*
X66561520Y-61254307D01*
X66741844Y-61374795D01*
X66895205Y-61528156D01*
X67015693Y-61708480D01*
X67098689Y-61908851D01*
X67141000Y-62121560D01*
X67141000Y-62338440D01*
X67098689Y-62551149D01*
X67015693Y-62751520D01*
X66895205Y-62931844D01*
X66741844Y-63085205D01*
X66561520Y-63205693D01*
X66461334Y-63247191D01*
X66361150Y-63288689D01*
X66254795Y-63309844D01*
X66148440Y-63331000D01*
X65931560Y-63331000D01*
X65825205Y-63309844D01*
X65718850Y-63288689D01*
X65618666Y-63247191D01*
X65518480Y-63205693D01*
X65338156Y-63085205D01*
X65184795Y-62931844D01*
X65064307Y-62751520D01*
X64981311Y-62551149D01*
X64939000Y-62338440D01*
X64939000Y-62121560D01*
X64981311Y-61908851D01*
X65064307Y-61708480D01*
X65184795Y-61528156D01*
X65338156Y-61374795D01*
X65518480Y-61254307D01*
X65618666Y-61212809D01*
X65718850Y-61171311D01*
X65825205Y-61150156D01*
X65931560Y-61129000D01*
X66148440Y-61129000D01*
X66254795Y-61150156D01*
G37*
G36*
X58634795Y-61150156D02*
G01*
X58741150Y-61171311D01*
X58841334Y-61212809D01*
X58941520Y-61254307D01*
X59121844Y-61374795D01*
X59275205Y-61528156D01*
X59395693Y-61708480D01*
X59478689Y-61908851D01*
X59521000Y-62121560D01*
X59521000Y-62338440D01*
X59478689Y-62551149D01*
X59395693Y-62751520D01*
X59275205Y-62931844D01*
X59121844Y-63085205D01*
X58941520Y-63205693D01*
X58841334Y-63247191D01*
X58741150Y-63288689D01*
X58634795Y-63309844D01*
X58528440Y-63331000D01*
X58311560Y-63331000D01*
X58205205Y-63309844D01*
X58098850Y-63288689D01*
X57998666Y-63247191D01*
X57898480Y-63205693D01*
X57718156Y-63085205D01*
X57564795Y-62931844D01*
X57444307Y-62751520D01*
X57361311Y-62551149D01*
X57319000Y-62338440D01*
X57319000Y-62121560D01*
X57361311Y-61908851D01*
X57444307Y-61708480D01*
X57564795Y-61528156D01*
X57718156Y-61374795D01*
X57898480Y-61254307D01*
X57998666Y-61212809D01*
X58098850Y-61171311D01*
X58205205Y-61150156D01*
X58311560Y-61129000D01*
X58528440Y-61129000D01*
X58634795Y-61150156D01*
G37*
G36*
X188073512Y-60698927D02*
G01*
X188222812Y-60728624D01*
X188386784Y-60796544D01*
X188534354Y-60895147D01*
X188659853Y-61020646D01*
X188758456Y-61168216D01*
X188826376Y-61332188D01*
X188861000Y-61506259D01*
X188861000Y-61683741D01*
X188826376Y-61857812D01*
X188758456Y-62021784D01*
X188659853Y-62169354D01*
X188534354Y-62294853D01*
X188386784Y-62393456D01*
X188222812Y-62461376D01*
X188073512Y-62491073D01*
X188048742Y-62496000D01*
X187871258Y-62496000D01*
X187846488Y-62491073D01*
X187697188Y-62461376D01*
X187533216Y-62393456D01*
X187385646Y-62294853D01*
X187260147Y-62169354D01*
X187161544Y-62021784D01*
X187093624Y-61857812D01*
X187059000Y-61683741D01*
X187059000Y-61506259D01*
X187093624Y-61332188D01*
X187161544Y-61168216D01*
X187260147Y-61020646D01*
X187385646Y-60895147D01*
X187533216Y-60796544D01*
X187697188Y-60728624D01*
X187846488Y-60698927D01*
X187871258Y-60694000D01*
X188048742Y-60694000D01*
X188073512Y-60698927D01*
G37*
G36*
X203313512Y-60698927D02*
G01*
X203462812Y-60728624D01*
X203626784Y-60796544D01*
X203774354Y-60895147D01*
X203899853Y-61020646D01*
X203998456Y-61168216D01*
X204066376Y-61332188D01*
X204101000Y-61506259D01*
X204101000Y-61683741D01*
X204066376Y-61857812D01*
X203998456Y-62021784D01*
X203899853Y-62169354D01*
X203774354Y-62294853D01*
X203626784Y-62393456D01*
X203462812Y-62461376D01*
X203313512Y-62491073D01*
X203288742Y-62496000D01*
X203111258Y-62496000D01*
X203086488Y-62491073D01*
X202937188Y-62461376D01*
X202773216Y-62393456D01*
X202625646Y-62294853D01*
X202500147Y-62169354D01*
X202401544Y-62021784D01*
X202333624Y-61857812D01*
X202299000Y-61683741D01*
X202299000Y-61506259D01*
X202333624Y-61332188D01*
X202401544Y-61168216D01*
X202500147Y-61020646D01*
X202625646Y-60895147D01*
X202773216Y-60796544D01*
X202937188Y-60728624D01*
X203086488Y-60698927D01*
X203111258Y-60694000D01*
X203288742Y-60694000D01*
X203313512Y-60698927D01*
G37*
G36*
X204101000Y-59956000D02*
G01*
X202299000Y-59956000D01*
X202299000Y-58154000D01*
X204101000Y-58154000D01*
X204101000Y-59956000D01*
G37*
G36*
X188861000Y-59956000D02*
G01*
X187059000Y-59956000D01*
X187059000Y-58154000D01*
X188861000Y-58154000D01*
X188861000Y-59956000D01*
G37*
G36*
X67141000Y-58251000D02*
G01*
X64939000Y-58251000D01*
X64939000Y-56049000D01*
X67141000Y-56049000D01*
X67141000Y-58251000D01*
G37*
G36*
X59521000Y-58251000D02*
G01*
X57319000Y-58251000D01*
X57319000Y-56049000D01*
X59521000Y-56049000D01*
X59521000Y-58251000D01*
G37*
G36*
X142869228Y-56077703D02*
G01*
X143024100Y-56141853D01*
X143163481Y-56234985D01*
X143282015Y-56353519D01*
X143375147Y-56492900D01*
X143439297Y-56647772D01*
X143472000Y-56812184D01*
X143472000Y-56979816D01*
X143439297Y-57144228D01*
X143375147Y-57299100D01*
X143282015Y-57438481D01*
X143163481Y-57557015D01*
X143024100Y-57650147D01*
X142869228Y-57714297D01*
X142704816Y-57747000D01*
X142537184Y-57747000D01*
X142372772Y-57714297D01*
X142217900Y-57650147D01*
X142078519Y-57557015D01*
X141959985Y-57438481D01*
X141866853Y-57299100D01*
X141802703Y-57144228D01*
X141770000Y-56979816D01*
X141770000Y-56812184D01*
X141802703Y-56647772D01*
X141866853Y-56492900D01*
X141959985Y-56353519D01*
X142078519Y-56234985D01*
X142217900Y-56141853D01*
X142372772Y-56077703D01*
X142537184Y-56045000D01*
X142704816Y-56045000D01*
X142869228Y-56077703D01*
G37*
G36*
X140329228Y-56077703D02*
G01*
X140484100Y-56141853D01*
X140623481Y-56234985D01*
X140742015Y-56353519D01*
X140835147Y-56492900D01*
X140899297Y-56647772D01*
X140932000Y-56812184D01*
X140932000Y-56979816D01*
X140899297Y-57144228D01*
X140835147Y-57299100D01*
X140742015Y-57438481D01*
X140623481Y-57557015D01*
X140484100Y-57650147D01*
X140329228Y-57714297D01*
X140164816Y-57747000D01*
X139997184Y-57747000D01*
X139832772Y-57714297D01*
X139677900Y-57650147D01*
X139538519Y-57557015D01*
X139419985Y-57438481D01*
X139326853Y-57299100D01*
X139262703Y-57144228D01*
X139230000Y-56979816D01*
X139230000Y-56812184D01*
X139262703Y-56647772D01*
X139326853Y-56492900D01*
X139419985Y-56353519D01*
X139538519Y-56234985D01*
X139677900Y-56141853D01*
X139832772Y-56077703D01*
X139997184Y-56045000D01*
X140164816Y-56045000D01*
X140329228Y-56077703D01*
G37*
G36*
X158109228Y-56077703D02*
G01*
X158264100Y-56141853D01*
X158403481Y-56234985D01*
X158522015Y-56353519D01*
X158615147Y-56492900D01*
X158679297Y-56647772D01*
X158712000Y-56812184D01*
X158712000Y-56979816D01*
X158679297Y-57144228D01*
X158615147Y-57299100D01*
X158522015Y-57438481D01*
X158403481Y-57557015D01*
X158264100Y-57650147D01*
X158109228Y-57714297D01*
X157944816Y-57747000D01*
X157777184Y-57747000D01*
X157612772Y-57714297D01*
X157457900Y-57650147D01*
X157318519Y-57557015D01*
X157199985Y-57438481D01*
X157106853Y-57299100D01*
X157042703Y-57144228D01*
X157010000Y-56979816D01*
X157010000Y-56812184D01*
X157042703Y-56647772D01*
X157106853Y-56492900D01*
X157199985Y-56353519D01*
X157318519Y-56234985D01*
X157457900Y-56141853D01*
X157612772Y-56077703D01*
X157777184Y-56045000D01*
X157944816Y-56045000D01*
X158109228Y-56077703D01*
G37*
G36*
X155569228Y-56077703D02*
G01*
X155724100Y-56141853D01*
X155863481Y-56234985D01*
X155982015Y-56353519D01*
X156075147Y-56492900D01*
X156139297Y-56647772D01*
X156172000Y-56812184D01*
X156172000Y-56979816D01*
X156139297Y-57144228D01*
X156075147Y-57299100D01*
X155982015Y-57438481D01*
X155863481Y-57557015D01*
X155724100Y-57650147D01*
X155569228Y-57714297D01*
X155404816Y-57747000D01*
X155237184Y-57747000D01*
X155072772Y-57714297D01*
X154917900Y-57650147D01*
X154778519Y-57557015D01*
X154659985Y-57438481D01*
X154566853Y-57299100D01*
X154502703Y-57144228D01*
X154470000Y-56979816D01*
X154470000Y-56812184D01*
X154502703Y-56647772D01*
X154566853Y-56492900D01*
X154659985Y-56353519D01*
X154778519Y-56234985D01*
X154917900Y-56141853D01*
X155072772Y-56077703D01*
X155237184Y-56045000D01*
X155404816Y-56045000D01*
X155569228Y-56077703D01*
G37*
G36*
X147949228Y-56077703D02*
G01*
X148104100Y-56141853D01*
X148243481Y-56234985D01*
X148362015Y-56353519D01*
X148455147Y-56492900D01*
X148519297Y-56647772D01*
X148552000Y-56812184D01*
X148552000Y-56979816D01*
X148519297Y-57144228D01*
X148455147Y-57299100D01*
X148362015Y-57438481D01*
X148243481Y-57557015D01*
X148104100Y-57650147D01*
X147949228Y-57714297D01*
X147784816Y-57747000D01*
X147617184Y-57747000D01*
X147452772Y-57714297D01*
X147297900Y-57650147D01*
X147158519Y-57557015D01*
X147039985Y-57438481D01*
X146946853Y-57299100D01*
X146882703Y-57144228D01*
X146850000Y-56979816D01*
X146850000Y-56812184D01*
X146882703Y-56647772D01*
X146946853Y-56492900D01*
X147039985Y-56353519D01*
X147158519Y-56234985D01*
X147297900Y-56141853D01*
X147452772Y-56077703D01*
X147617184Y-56045000D01*
X147784816Y-56045000D01*
X147949228Y-56077703D01*
G37*
G36*
X137789228Y-56077703D02*
G01*
X137944100Y-56141853D01*
X138083481Y-56234985D01*
X138202015Y-56353519D01*
X138295147Y-56492900D01*
X138359297Y-56647772D01*
X138392000Y-56812184D01*
X138392000Y-56979816D01*
X138359297Y-57144228D01*
X138295147Y-57299100D01*
X138202015Y-57438481D01*
X138083481Y-57557015D01*
X137944100Y-57650147D01*
X137789228Y-57714297D01*
X137624816Y-57747000D01*
X137457184Y-57747000D01*
X137292772Y-57714297D01*
X137137900Y-57650147D01*
X136998519Y-57557015D01*
X136879985Y-57438481D01*
X136786853Y-57299100D01*
X136722703Y-57144228D01*
X136690000Y-56979816D01*
X136690000Y-56812184D01*
X136722703Y-56647772D01*
X136786853Y-56492900D01*
X136879985Y-56353519D01*
X136998519Y-56234985D01*
X137137900Y-56141853D01*
X137292772Y-56077703D01*
X137457184Y-56045000D01*
X137624816Y-56045000D01*
X137789228Y-56077703D01*
G37*
G36*
X135249228Y-56077703D02*
G01*
X135404100Y-56141853D01*
X135543481Y-56234985D01*
X135662015Y-56353519D01*
X135755147Y-56492900D01*
X135819297Y-56647772D01*
X135852000Y-56812184D01*
X135852000Y-56979816D01*
X135819297Y-57144228D01*
X135755147Y-57299100D01*
X135662015Y-57438481D01*
X135543481Y-57557015D01*
X135404100Y-57650147D01*
X135249228Y-57714297D01*
X135084816Y-57747000D01*
X134917184Y-57747000D01*
X134752772Y-57714297D01*
X134597900Y-57650147D01*
X134458519Y-57557015D01*
X134339985Y-57438481D01*
X134246853Y-57299100D01*
X134182703Y-57144228D01*
X134150000Y-56979816D01*
X134150000Y-56812184D01*
X134182703Y-56647772D01*
X134246853Y-56492900D01*
X134339985Y-56353519D01*
X134458519Y-56234985D01*
X134597900Y-56141853D01*
X134752772Y-56077703D01*
X134917184Y-56045000D01*
X135084816Y-56045000D01*
X135249228Y-56077703D01*
G37*
G36*
X132709228Y-56077703D02*
G01*
X132864100Y-56141853D01*
X133003481Y-56234985D01*
X133122015Y-56353519D01*
X133215147Y-56492900D01*
X133279297Y-56647772D01*
X133312000Y-56812184D01*
X133312000Y-56979816D01*
X133279297Y-57144228D01*
X133215147Y-57299100D01*
X133122015Y-57438481D01*
X133003481Y-57557015D01*
X132864100Y-57650147D01*
X132709228Y-57714297D01*
X132544816Y-57747000D01*
X132377184Y-57747000D01*
X132212772Y-57714297D01*
X132057900Y-57650147D01*
X131918519Y-57557015D01*
X131799985Y-57438481D01*
X131706853Y-57299100D01*
X131642703Y-57144228D01*
X131610000Y-56979816D01*
X131610000Y-56812184D01*
X131642703Y-56647772D01*
X131706853Y-56492900D01*
X131799985Y-56353519D01*
X131918519Y-56234985D01*
X132057900Y-56141853D01*
X132212772Y-56077703D01*
X132377184Y-56045000D01*
X132544816Y-56045000D01*
X132709228Y-56077703D01*
G37*
G36*
X160649228Y-56077703D02*
G01*
X160804100Y-56141853D01*
X160943481Y-56234985D01*
X161062015Y-56353519D01*
X161155147Y-56492900D01*
X161219297Y-56647772D01*
X161252000Y-56812184D01*
X161252000Y-56979816D01*
X161219297Y-57144228D01*
X161155147Y-57299100D01*
X161062015Y-57438481D01*
X160943481Y-57557015D01*
X160804100Y-57650147D01*
X160649228Y-57714297D01*
X160484816Y-57747000D01*
X160317184Y-57747000D01*
X160152772Y-57714297D01*
X159997900Y-57650147D01*
X159858519Y-57557015D01*
X159739985Y-57438481D01*
X159646853Y-57299100D01*
X159582703Y-57144228D01*
X159550000Y-56979816D01*
X159550000Y-56812184D01*
X159582703Y-56647772D01*
X159646853Y-56492900D01*
X159739985Y-56353519D01*
X159858519Y-56234985D01*
X159997900Y-56141853D01*
X160152772Y-56077703D01*
X160317184Y-56045000D01*
X160484816Y-56045000D01*
X160649228Y-56077703D01*
G37*
G36*
X153029228Y-56077703D02*
G01*
X153184100Y-56141853D01*
X153323481Y-56234985D01*
X153442015Y-56353519D01*
X153535147Y-56492900D01*
X153599297Y-56647772D01*
X153632000Y-56812184D01*
X153632000Y-56979816D01*
X153599297Y-57144228D01*
X153535147Y-57299100D01*
X153442015Y-57438481D01*
X153323481Y-57557015D01*
X153184100Y-57650147D01*
X153029228Y-57714297D01*
X152864816Y-57747000D01*
X152697184Y-57747000D01*
X152532772Y-57714297D01*
X152377900Y-57650147D01*
X152238519Y-57557015D01*
X152119985Y-57438481D01*
X152026853Y-57299100D01*
X151962703Y-57144228D01*
X151930000Y-56979816D01*
X151930000Y-56812184D01*
X151962703Y-56647772D01*
X152026853Y-56492900D01*
X152119985Y-56353519D01*
X152238519Y-56234985D01*
X152377900Y-56141853D01*
X152532772Y-56077703D01*
X152697184Y-56045000D01*
X152864816Y-56045000D01*
X153029228Y-56077703D01*
G37*
G36*
X145409228Y-56077703D02*
G01*
X145564100Y-56141853D01*
X145703481Y-56234985D01*
X145822015Y-56353519D01*
X145915147Y-56492900D01*
X145979297Y-56647772D01*
X146012000Y-56812184D01*
X146012000Y-56979816D01*
X145979297Y-57144228D01*
X145915147Y-57299100D01*
X145822015Y-57438481D01*
X145703481Y-57557015D01*
X145564100Y-57650147D01*
X145409228Y-57714297D01*
X145244816Y-57747000D01*
X145077184Y-57747000D01*
X144912772Y-57714297D01*
X144757900Y-57650147D01*
X144618519Y-57557015D01*
X144499985Y-57438481D01*
X144406853Y-57299100D01*
X144342703Y-57144228D01*
X144310000Y-56979816D01*
X144310000Y-56812184D01*
X144342703Y-56647772D01*
X144406853Y-56492900D01*
X144499985Y-56353519D01*
X144618519Y-56234985D01*
X144757900Y-56141853D01*
X144912772Y-56077703D01*
X145077184Y-56045000D01*
X145244816Y-56045000D01*
X145409228Y-56077703D01*
G37*
G36*
X150489228Y-56077703D02*
G01*
X150644100Y-56141853D01*
X150783481Y-56234985D01*
X150902015Y-56353519D01*
X150995147Y-56492900D01*
X151059297Y-56647772D01*
X151092000Y-56812184D01*
X151092000Y-56979816D01*
X151059297Y-57144228D01*
X150995147Y-57299100D01*
X150902015Y-57438481D01*
X150783481Y-57557015D01*
X150644100Y-57650147D01*
X150489228Y-57714297D01*
X150324816Y-57747000D01*
X150157184Y-57747000D01*
X149992772Y-57714297D01*
X149837900Y-57650147D01*
X149698519Y-57557015D01*
X149579985Y-57438481D01*
X149486853Y-57299100D01*
X149422703Y-57144228D01*
X149390000Y-56979816D01*
X149390000Y-56812184D01*
X149422703Y-56647772D01*
X149486853Y-56492900D01*
X149579985Y-56353519D01*
X149698519Y-56234985D01*
X149837900Y-56141853D01*
X149992772Y-56077703D01*
X150157184Y-56045000D01*
X150324816Y-56045000D01*
X150489228Y-56077703D01*
G37*
M02*
