M48
; DRILL file {KiCad (5.1.5)-3} date 6/2/2021 11:00:16 PM
; FORMAT={-:-/ absolute / inch / decimal}
; #@! TF.CreationDate,2021-06-02T23:00:16-07:00
; #@! TF.GenerationSoftware,Kicad,Pcbnew,(5.1.5)-3
FMAT,2
INCH
T1C0.0118
T2C0.0157
T3C0.0197
T4C0.0315
T5C0.0354
T6C0.0394
T7C0.0472
T8C0.0520
T9C0.0551
T10C0.0630
T11C0.1260
T12C0.1280
%
G90
G05
T1
X3.05Y-2.425
X3.05Y-2.525
X3.05Y-2.6
X3.05Y-2.625
X3.075Y-2.6
X3.3Y-3.0
X3.375Y-2.7
X3.45Y-3.625
X3.45Y-4.075
X3.45Y-4.475
X3.475Y-3.8
X3.5Y-4.25
X3.5Y-4.65
X3.575Y-3.75
X3.575Y-4.2
X3.575Y-4.6
X3.85Y-2.975
X3.85Y-3.075
X4.175Y-2.75
X4.25Y-4.975
X4.275Y-2.75
X4.4Y-4.575
X4.425Y-4.875
X4.5Y-2.05
X4.575Y-3.675
X4.75Y-4.875
X4.85Y-4.575
X4.85Y-4.625
X5.0621Y-5.025
X5.175Y-4.875
X5.35Y-4.575
X5.4Y-4.775
X5.45Y-4.925
X5.525Y-2.825
X5.575Y-2.9
X5.625Y-2.75
X5.675Y-2.975
X5.675Y-5.125
X5.725Y-2.5
X5.725Y-2.7
X5.775Y-5.175
X5.825Y-2.45
X5.825Y-2.55
X5.9Y-2.3
X5.925Y-2.6
X6.0Y-2.325
X6.025Y-2.4
X6.025Y-2.65
X6.025Y-4.85
X6.075Y-4.9
X6.125Y-4.8
X6.15Y-2.325
X6.225Y-2.35
X6.275Y-4.625
X6.275Y-4.675
X6.275Y-4.725
X6.275Y-4.775
X6.275Y-4.825
X6.275Y-4.875
X6.275Y-4.925
X6.275Y-5.025
X6.275Y-5.1
X6.275Y-5.2
X6.2756Y-4.5748
X6.4Y-2.5
X6.4Y-3.05
X6.475Y-2.45
X6.475Y-3.125
X6.5Y-4.95
X6.525Y-5.125
X6.525Y-5.175
X6.65Y-4.6
X6.65Y-4.65
X6.65Y-4.7
X6.65Y-4.75
X6.65Y-4.8
X6.65Y-4.85
X6.65Y-4.9
X6.65Y-5.15
X6.7Y-2.45
X6.7Y-5.1
X6.725Y-2.15
X6.725Y-2.225
X6.725Y-2.3
X6.725Y-2.375
X6.725Y-2.525
X6.725Y-2.6
X6.725Y-2.675
X6.725Y-2.75
X6.725Y-2.825
X6.725Y-2.9
X6.725Y-2.975
X6.725Y-3.05
X6.725Y-3.125
X6.725Y-5.05
X6.75Y-4.9
X6.8Y-4.95
X6.85Y-2.15
X6.85Y-2.225
X6.85Y-2.3
X6.85Y-2.375
X6.85Y-2.45
X6.85Y-2.525
X6.85Y-2.6
X6.85Y-2.675
X6.85Y-2.75
X6.85Y-2.825
X6.85Y-2.9
X6.85Y-2.975
X6.85Y-3.05
X6.85Y-3.125
X6.85Y-4.75
X6.9Y-4.65
X6.95Y-4.7
X7.05Y-4.9
X7.05Y-4.95
X7.05Y-5.05
X7.05Y-5.1
X7.05Y-5.2
X7.05Y-5.25
X7.075Y-5.175
X7.1Y-2.7
X7.1Y-5.0
X7.125Y-4.6
X7.15Y-5.1
X7.2Y-4.8
X7.25Y-4.6
X7.25Y-4.95
X7.25Y-5.0
X7.25Y-5.05
X7.25Y-5.2
X7.25Y-5.25
X7.275Y-3.775
X7.275Y-5.15
X7.3Y-5.0
X7.35Y-4.65
X7.35Y-5.2
X7.4Y-4.95
X7.45Y-4.375
X7.45Y-4.7
X7.45Y-5.25
X7.5Y-5.05
X7.525Y-2.6
X7.55Y-4.9
X7.55Y-5.175
X7.6Y-4.575
X7.65Y-4.675
X7.7Y-4.625
X7.725Y-4.15
X7.75Y-2.775
X7.75Y-4.725
X7.8Y-5.15
X7.8Y-5.2
X7.8Y-5.25
X7.825Y-4.725
X7.85Y-4.25
X7.875Y-3.775
X7.9Y-5.0
X7.9Y-5.05
X7.925Y-5.1
X7.95Y-4.975
X7.975Y-4.95
X8.1Y-4.95
X8.1Y-5.0
X8.1Y-5.1
X8.125Y-2.6
X8.125Y-5.15
X8.15Y-5.2
X8.175Y-4.85
X8.175Y-5.25
X8.2Y-5.1
X8.25Y-5.0
X8.3Y-4.95
X8.325Y-5.175
X8.35Y-2.85
X8.35Y-5.05
X8.4Y-4.575
X8.4Y-4.625
X8.4Y-4.675
X8.4Y-4.75
X8.4Y-4.8
X8.4Y-4.85
X8.4Y-4.9
X8.4Y-5.125
X8.475Y-3.775
X8.525Y-4.725
X8.525Y-5.025
X8.6Y-4.875
X8.625Y-4.775
X8.7Y-4.925
X8.75Y-4.825
X8.775Y-2.825
X8.9Y-4.875
X8.9Y-4.925
X8.9Y-5.125
X8.9Y-5.225
X9.0Y-3.4
X9.25Y-2.825
X9.325Y-3.4
X9.425Y-3.0
X9.5Y-3.075
X9.575Y-3.15
X9.65Y-3.225
X9.725Y-2.875
T2
X3.3Y-2.525
X3.3Y-2.575
X3.3Y-2.625
X3.51Y-2.59
X3.51Y-2.68
X3.51Y-2.765
X3.51Y-2.85
X3.55Y-2.55
X3.55Y-2.625
X3.55Y-2.725
X3.55Y-2.81
X3.59Y-2.585
X3.59Y-2.685
X3.59Y-2.76
X3.59Y-2.85
X4.4567Y-5.0157
X4.7795Y-5.05
X5.0315Y-4.9449
X5.2362Y-5.0
T3
X6.6Y-4.35
T4
X4.815Y-3.04
X4.915Y-3.04
X5.015Y-3.04
X5.115Y-3.04
X5.215Y-2.24
X5.215Y-3.04
X5.315Y-2.24
X5.315Y-3.04
X5.415Y-2.24
X5.415Y-3.04
X5.515Y-2.24
X5.515Y-3.04
X5.615Y-2.24
X5.615Y-3.04
X5.715Y-2.24
X5.715Y-3.04
X5.815Y-2.24
X5.815Y-3.04
X5.915Y-2.24
X5.915Y-3.04
X6.015Y-2.24
X6.015Y-3.04
X6.115Y-2.24
X6.115Y-3.04
X6.215Y-2.24
X6.215Y-3.04
X6.315Y-2.24
X6.315Y-3.04
T5
X3.45Y-5.35
X3.5Y-5.25
X3.55Y-5.35
X3.6Y-5.25
X3.65Y-5.35
X3.7Y-5.25
X3.75Y-5.35
X3.8Y-5.25
X4.25Y-5.35
X4.3Y-5.25
X4.35Y-5.35
X4.4Y-5.25
X4.45Y-5.35
X4.5Y-5.25
X4.55Y-5.35
X4.6Y-5.25
X5.05Y-5.35
X5.1Y-5.25
X5.15Y-5.35
X5.2Y-5.25
X5.25Y-5.35
X5.3Y-5.25
X5.35Y-5.35
X5.4Y-5.25
T6
X8.65Y-2.55
X8.65Y-2.65
X8.65Y-2.75
X8.65Y-2.85
X7.75Y-3.3
X7.75Y-3.4
X7.75Y-3.5
X7.75Y-3.6
X7.75Y-3.7
X7.75Y-3.8
X7.15Y-3.3
X7.15Y-3.4
X7.15Y-3.5
X7.15Y-3.6
X7.15Y-3.7
X7.15Y-3.8
X9.6Y-2.55
X9.6Y-2.65
X9.6Y-2.75
X9.6Y-2.85
X8.5Y-5.575
X8.5Y-5.675
X8.6Y-5.575
X8.6Y-5.675
X8.7Y-5.575
X8.7Y-5.675
X8.8Y-5.575
X8.8Y-5.675
X8.9Y-5.575
X8.9Y-5.675
X9.0Y-5.575
X9.0Y-5.675
X9.1Y-5.575
X9.1Y-5.675
X7.4Y-2.325
X7.4Y-2.425
X7.4Y-2.525
X7.4Y-2.625
X9.125Y-2.55
X9.125Y-2.65
X9.125Y-2.75
X9.125Y-2.85
X8.35Y-3.3
X8.35Y-3.4
X8.35Y-3.5
X8.35Y-3.6
X8.35Y-3.7
X8.35Y-3.8
X9.325Y-3.5
X9.325Y-3.6
X9.325Y-3.7
X9.325Y-3.8
X9.325Y-3.9
X9.325Y-4.0
X9.325Y-4.1
X9.425Y-3.5
X9.425Y-3.6
X9.425Y-3.7
X9.425Y-3.8
X9.425Y-3.9
X9.425Y-4.0
X9.425Y-4.1
X6.8Y-5.575
X6.8Y-5.675
X6.9Y-5.575
X6.9Y-5.675
X7.0Y-5.575
X7.0Y-5.675
X7.1Y-5.575
X7.1Y-5.675
X7.2Y-5.575
X7.2Y-5.675
X7.3Y-5.575
X7.3Y-5.675
X7.4Y-5.575
X7.4Y-5.675
X8.0Y-2.325
X8.0Y-2.425
X8.0Y-2.525
X8.0Y-2.625
X7.65Y-5.575
X7.65Y-5.675
X7.75Y-5.575
X7.75Y-5.675
X7.85Y-5.575
X7.85Y-5.675
X7.95Y-5.575
X7.95Y-5.675
X8.05Y-5.575
X8.05Y-5.675
X8.15Y-5.575
X8.15Y-5.675
X8.25Y-5.575
X8.25Y-5.675
X9.125Y-3.5
X9.125Y-3.6
X9.125Y-3.7
X9.125Y-3.8
X9.125Y-3.9
X9.125Y-4.0
X9.125Y-4.1
X9.225Y-3.5
X9.225Y-3.6
X9.225Y-3.7
X9.225Y-3.8
X9.225Y-3.9
X9.225Y-4.0
X9.225Y-4.1
X9.4Y-4.875
X9.4Y-4.975
X9.4Y-5.075
X9.4Y-5.175
X5.95Y-5.575
X5.95Y-5.675
X6.05Y-5.575
X6.05Y-5.675
X6.15Y-5.575
X6.15Y-5.675
X6.25Y-5.575
X6.25Y-5.675
X6.35Y-5.575
X6.35Y-5.675
X6.45Y-5.575
X6.45Y-5.675
X6.55Y-5.575
X6.55Y-5.675
T7
X2.35Y-5.25
X2.4878Y-5.4469
X2.6256Y-5.25
X2.7634Y-5.4469
X2.9012Y-5.25
X3.039Y-5.4469
T8
X2.2Y-4.15
X2.4Y-4.15
X2.2Y-4.55
X2.4Y-4.55
X2.7Y-3.7
X2.9Y-3.7
X2.7Y-4.55
X2.9Y-4.55
X2.2Y-3.7
X2.4Y-3.7
X2.7Y-4.15
X2.9Y-4.15
T9
X2.3Y-2.25
X2.3Y-2.45
X2.6Y-2.25
X2.6Y-2.45
X2.3Y-2.8
X2.3Y-3.0
X2.6Y-2.8
X2.6Y-3.0
T10
X4.7309Y-5.7201
X4.9191Y-5.7201
X5.5309Y-5.7201
X3.3191Y-5.7201
X3.9309Y-5.7201
X4.1191Y-5.7201
T11
X4.7244Y-3.5236
X6.2992Y-3.5236
X2.126Y-5.748
X9.685Y-5.748
T12
X3.4Y-5.6
X3.85Y-5.6
X4.2Y-5.6
X4.65Y-5.6
X5.0Y-5.6
X5.45Y-5.6
T0
M30
