G04 #@! TF.GenerationSoftware,KiCad,Pcbnew,(5.1.5)-3*
G04 #@! TF.CreationDate,2021-06-03T21:37:04-07:00*
G04 #@! TF.ProjectId,GrowController,47726f77-436f-46e7-9472-6f6c6c65722e,rev?*
G04 #@! TF.SameCoordinates,Original*
G04 #@! TF.FileFunction,Copper,L3,Inr*
G04 #@! TF.FilePolarity,Positive*
%FSLAX46Y46*%
G04 Gerber Fmt 4.6, Leading zero omitted, Abs format (unit mm)*
G04 Created by KiCad (PCBNEW (5.1.5)-3) date 2021-06-03 21:37:04*
%MOMM*%
%LPD*%
G04 APERTURE LIST*
%ADD10R,0.850000X0.850000*%
%ADD11R,1.700000X1.700000*%
%ADD12O,1.700000X1.700000*%
%ADD13C,3.000000*%
%ADD14C,1.500000*%
%ADD15R,1.500000X1.500000*%
%ADD16C,1.980000*%
%ADD17R,2.100000X2.100000*%
%ADD18C,2.100000*%
%ADD19R,1.800000X1.800000*%
%ADD20C,1.800000*%
%ADD21R,1.600000X1.600000*%
%ADD22C,1.600000*%
%ADD23C,0.600000*%
%ADD24C,0.800000*%
%ADD25C,2.000000*%
%ADD26C,0.250000*%
%ADD27C,0.500000*%
G04 APERTURE END LIST*
D10*
X167640000Y-110490000D03*
D11*
X172720000Y-144145000D03*
D12*
X172720000Y-141605000D03*
X175260000Y-144145000D03*
X175260000Y-141605000D03*
X177800000Y-144145000D03*
X177800000Y-141605000D03*
X180340000Y-144145000D03*
X180340000Y-141605000D03*
X182880000Y-144145000D03*
X182880000Y-141605000D03*
X185420000Y-144145000D03*
X185420000Y-141605000D03*
X187960000Y-144145000D03*
X187960000Y-141605000D03*
X209550000Y-141605000D03*
X209550000Y-144145000D03*
X207010000Y-141605000D03*
X207010000Y-144145000D03*
X204470000Y-141605000D03*
X204470000Y-144145000D03*
X201930000Y-141605000D03*
X201930000Y-144145000D03*
X199390000Y-141605000D03*
X199390000Y-144145000D03*
X196850000Y-141605000D03*
X196850000Y-144145000D03*
X194310000Y-141605000D03*
D11*
X194310000Y-144145000D03*
D12*
X231140000Y-141605000D03*
X231140000Y-144145000D03*
X228600000Y-141605000D03*
X228600000Y-144145000D03*
X226060000Y-141605000D03*
X226060000Y-144145000D03*
X223520000Y-141605000D03*
X223520000Y-144145000D03*
X220980000Y-141605000D03*
X220980000Y-144145000D03*
X218440000Y-141605000D03*
X218440000Y-144145000D03*
X215900000Y-141605000D03*
D11*
X215900000Y-144145000D03*
X151130000Y-144145000D03*
D12*
X151130000Y-141605000D03*
X153670000Y-144145000D03*
X153670000Y-141605000D03*
X156210000Y-144145000D03*
X156210000Y-141605000D03*
X158750000Y-144145000D03*
X158750000Y-141605000D03*
X161290000Y-144145000D03*
X161290000Y-141605000D03*
X163830000Y-144145000D03*
X163830000Y-141605000D03*
X166370000Y-144145000D03*
X166370000Y-141605000D03*
D13*
X120165000Y-145290000D03*
D14*
X110490000Y-135890000D03*
X113030000Y-135890000D03*
X111760000Y-133350000D03*
X115570000Y-135890000D03*
D15*
X107950000Y-135890000D03*
D14*
X109220000Y-133350000D03*
D13*
X104625000Y-145290000D03*
D14*
X116840000Y-133350000D03*
X114300000Y-133350000D03*
X93980000Y-133350000D03*
X96520000Y-133350000D03*
D13*
X84305000Y-145290000D03*
D14*
X88900000Y-133350000D03*
D15*
X87630000Y-135890000D03*
D14*
X95250000Y-135890000D03*
X91440000Y-133350000D03*
X92710000Y-135890000D03*
X90170000Y-135890000D03*
D13*
X99845000Y-145290000D03*
X140485000Y-145290000D03*
D14*
X130810000Y-135890000D03*
X133350000Y-135890000D03*
X132080000Y-133350000D03*
X135890000Y-135890000D03*
D15*
X128270000Y-135890000D03*
D14*
X129540000Y-133350000D03*
D13*
X124945000Y-145290000D03*
D14*
X137160000Y-133350000D03*
X134620000Y-133350000D03*
D16*
X60960000Y-93980000D03*
X55880000Y-93980000D03*
X68580000Y-93980000D03*
X73660000Y-93980000D03*
X60960000Y-105410000D03*
X55880000Y-105410000D03*
X68580000Y-105410000D03*
X73660000Y-105410000D03*
X60960000Y-115570000D03*
X55880000Y-115570000D03*
X73660000Y-115570000D03*
X68580000Y-115570000D03*
D11*
X234315000Y-104140000D03*
D12*
X231775000Y-104140000D03*
X234315000Y-101600000D03*
X231775000Y-101600000D03*
X234315000Y-99060000D03*
X231775000Y-99060000D03*
X234315000Y-96520000D03*
X231775000Y-96520000D03*
X234315000Y-93980000D03*
X231775000Y-93980000D03*
X234315000Y-91440000D03*
X231775000Y-91440000D03*
X234315000Y-88900000D03*
X231775000Y-88900000D03*
X239395000Y-104140000D03*
X236855000Y-104140000D03*
X239395000Y-101600000D03*
X236855000Y-101600000D03*
X239395000Y-99060000D03*
X236855000Y-99060000D03*
X239395000Y-96520000D03*
X236855000Y-96520000D03*
X239395000Y-93980000D03*
X236855000Y-93980000D03*
X239395000Y-91440000D03*
X236855000Y-91440000D03*
X239395000Y-88900000D03*
D11*
X236855000Y-88900000D03*
D12*
X203200000Y-66675000D03*
X203200000Y-64135000D03*
X203200000Y-61595000D03*
D11*
X203200000Y-59055000D03*
D12*
X187960000Y-66675000D03*
X187960000Y-64135000D03*
X187960000Y-61595000D03*
D11*
X187960000Y-59055000D03*
D12*
X231775000Y-72390000D03*
X231775000Y-69850000D03*
X231775000Y-67310000D03*
D11*
X231775000Y-64770000D03*
X243840000Y-64770000D03*
D12*
X243840000Y-67310000D03*
X243840000Y-69850000D03*
X243840000Y-72390000D03*
X219710000Y-72390000D03*
X219710000Y-69850000D03*
X219710000Y-67310000D03*
D11*
X219710000Y-64770000D03*
X181610000Y-83820000D03*
D12*
X181610000Y-86360000D03*
X181610000Y-88900000D03*
X181610000Y-91440000D03*
X181610000Y-93980000D03*
X181610000Y-96520000D03*
X196850000Y-96520000D03*
X196850000Y-93980000D03*
X196850000Y-91440000D03*
X196850000Y-88900000D03*
X196850000Y-86360000D03*
D11*
X196850000Y-83820000D03*
D12*
X212090000Y-96520000D03*
X212090000Y-93980000D03*
X212090000Y-91440000D03*
X212090000Y-88900000D03*
X212090000Y-86360000D03*
D11*
X212090000Y-83820000D03*
D17*
X66040000Y-71120000D03*
D18*
X66040000Y-76200000D03*
D17*
X58420000Y-71120000D03*
D18*
X58420000Y-76200000D03*
X58420000Y-62230000D03*
D17*
X58420000Y-57150000D03*
D18*
X66040000Y-62230000D03*
D17*
X66040000Y-57150000D03*
D19*
X59690000Y-133350000D03*
D20*
X63190000Y-138350000D03*
X66690000Y-133350000D03*
X70190000Y-138350000D03*
X73690000Y-133350000D03*
X77190000Y-138350000D03*
D21*
X122301000Y-77216000D03*
D22*
X157861000Y-56896000D03*
X132461000Y-56896000D03*
X132461000Y-77216000D03*
X145161000Y-56896000D03*
X147701000Y-77216000D03*
X160401000Y-77216000D03*
X152781000Y-77216000D03*
X155321000Y-56896000D03*
X147701000Y-56896000D03*
X137541000Y-77216000D03*
X135001000Y-56896000D03*
X142621000Y-56896000D03*
X140081000Y-56896000D03*
X137541000Y-56896000D03*
X135001000Y-77216000D03*
X142621000Y-77216000D03*
X155321000Y-77216000D03*
X140081000Y-77216000D03*
X150241000Y-77216000D03*
X157861000Y-77216000D03*
X129921000Y-77216000D03*
X160401000Y-56896000D03*
X145161000Y-77216000D03*
X152781000Y-56896000D03*
X150241000Y-56896000D03*
X124841000Y-77216000D03*
X127381000Y-77216000D03*
D11*
X238760000Y-123825000D03*
D12*
X238760000Y-126365000D03*
X238760000Y-128905000D03*
X238760000Y-131445000D03*
D23*
X87630000Y-92075000D03*
X87630000Y-103505000D03*
X87630000Y-113665000D03*
X88900000Y-118110000D03*
X88900000Y-107950000D03*
X88265000Y-96520000D03*
X120650000Y-123825000D03*
X112395000Y-123825000D03*
X123190000Y-117475000D03*
X123190000Y-116205000D03*
X111760000Y-116205000D03*
X128577880Y-127635000D03*
X137160000Y-121285000D03*
X159385000Y-127635000D03*
X165735000Y-130175000D03*
X165735000Y-131445000D03*
X168910000Y-130810000D03*
X179070000Y-132080000D03*
X179070000Y-133350000D03*
X182880000Y-121920000D03*
X198120000Y-132080000D03*
X198120000Y-133350000D03*
X216535000Y-127635000D03*
X226060000Y-130175000D03*
X226060000Y-132715000D03*
X189230000Y-111125000D03*
X196215000Y-105410000D03*
X199390000Y-107950000D03*
X77470000Y-61595000D03*
X77470000Y-64135000D03*
X77470000Y-66675000D03*
X85725000Y-68580000D03*
X83820000Y-76200000D03*
X97790000Y-75565000D03*
X97790000Y-78105000D03*
X106045000Y-69850000D03*
X108585000Y-69850000D03*
X77470000Y-66040000D03*
X78105000Y-66040000D03*
X191135000Y-66040000D03*
X206375000Y-66040000D03*
X222885000Y-71755000D03*
X234950000Y-71755000D03*
X247015000Y-73025000D03*
X184785000Y-95885000D03*
X200025000Y-95885000D03*
X215265000Y-95885000D03*
X228600000Y-86360000D03*
X236855000Y-86360000D03*
X135890000Y-116205000D03*
X207645000Y-123190000D03*
D24*
X83820000Y-65405000D03*
X83820000Y-64135000D03*
X83820000Y-66675000D03*
X89154000Y-72390000D03*
X89154000Y-70231000D03*
X89154000Y-68072000D03*
X89154000Y-65786000D03*
X90170000Y-64770000D03*
X90170000Y-66675000D03*
X90170000Y-69215000D03*
X90170000Y-71374000D03*
X91186000Y-72390000D03*
X91186000Y-70104000D03*
X91186000Y-68199000D03*
X91186000Y-65659000D03*
D23*
X168910000Y-120650000D03*
X173990000Y-120650000D03*
X168910000Y-116840000D03*
X180975000Y-116840000D03*
X181610000Y-129540000D03*
X185420000Y-127000000D03*
X184150000Y-127000000D03*
X187960000Y-125730000D03*
X184150000Y-125730000D03*
X190500000Y-128270000D03*
X184150000Y-128270000D03*
X202565000Y-125730000D03*
X201930000Y-126365000D03*
X201295000Y-129540000D03*
X200660000Y-128270000D03*
X159385000Y-120015000D03*
X196850000Y-120015000D03*
X159400000Y-116200000D03*
X193040000Y-116205000D03*
X212090000Y-128270000D03*
X210820000Y-125730000D03*
X205740000Y-125730000D03*
X209550000Y-127000000D03*
X205740000Y-127000000D03*
X208280000Y-129540000D03*
X205740000Y-129540000D03*
X159385000Y-125095000D03*
X220980000Y-125095000D03*
X159385000Y-121285000D03*
X219075000Y-121285000D03*
X165100000Y-125730000D03*
X168910000Y-121920000D03*
X155575000Y-121920000D03*
X170815000Y-128270000D03*
X179070000Y-128270000D03*
X170180000Y-129540000D03*
X179070000Y-129540000D03*
X172720000Y-125730000D03*
X179070000Y-125730000D03*
X171450000Y-124460000D03*
X179070000Y-124460000D03*
X173990000Y-79375000D03*
X245110000Y-81915000D03*
X173990000Y-77470000D03*
X243205000Y-80010000D03*
X173990000Y-75565000D03*
X241300000Y-78105000D03*
X173990000Y-73660000D03*
X239395000Y-76200000D03*
X173990000Y-58420000D03*
X173990000Y-60325000D03*
X173990000Y-56515000D03*
X173990000Y-54610000D03*
X173990000Y-66040000D03*
X173990000Y-64135000D03*
X173990000Y-62230000D03*
X173990000Y-69850000D03*
X196850000Y-70485000D03*
X173990000Y-71755000D03*
X212090000Y-72390000D03*
X211455000Y-131445000D03*
X146685000Y-131445000D03*
X159385000Y-132080000D03*
X170815000Y-56515000D03*
X116205000Y-93345000D03*
X138430000Y-125095000D03*
X213360000Y-130175000D03*
X144145000Y-130175000D03*
X159385000Y-129540000D03*
X131445000Y-123825000D03*
X170815000Y-54610000D03*
X114300000Y-52070000D03*
X149860000Y-58420000D03*
X90805000Y-95250000D03*
X152400000Y-59055000D03*
X90805000Y-106680000D03*
X153035000Y-60960000D03*
X90805000Y-116840000D03*
X170815000Y-58420000D03*
X156210000Y-59055000D03*
X170815000Y-60325000D03*
X158115000Y-59690000D03*
X170180000Y-62230000D03*
X147955000Y-64770000D03*
X170815000Y-64135000D03*
X150495000Y-66040000D03*
X170815000Y-66040000D03*
X153035000Y-67310000D03*
X170815000Y-69850000D03*
X142875000Y-69850000D03*
X170815000Y-71755000D03*
X140335000Y-71755000D03*
X170815000Y-73660000D03*
X141605000Y-73660000D03*
X170815000Y-75565000D03*
X144145000Y-75565000D03*
X170815000Y-77470000D03*
X162560000Y-77470000D03*
X145415000Y-63500000D03*
X162560000Y-63500000D03*
X170815000Y-79375000D03*
X164465000Y-79375000D03*
X147955000Y-62230000D03*
X164465000Y-62230000D03*
X180340000Y-127000000D03*
X200660000Y-127000000D03*
X159385000Y-117475000D03*
X195580000Y-117475000D03*
X159385000Y-118745000D03*
X194310000Y-118745000D03*
X159385000Y-122555000D03*
X222250000Y-122555000D03*
X159385000Y-123825000D03*
X218440000Y-123825000D03*
X168910000Y-124460000D03*
X154305000Y-124460000D03*
X168910000Y-123190000D03*
X153035000Y-123190000D03*
X168910000Y-119380000D03*
X176530000Y-119380000D03*
X168910000Y-118110000D03*
X175260000Y-118110000D03*
X107950000Y-126365000D03*
D24*
X127800000Y-125600000D03*
X113200000Y-127400000D03*
X133000000Y-127000000D03*
X121400000Y-128270000D03*
D23*
X173990000Y-67945000D03*
X180340000Y-68580000D03*
X170815000Y-67945000D03*
X145415000Y-68580000D03*
X226060000Y-123825000D03*
X226060000Y-125095000D03*
X213360000Y-124460000D03*
X191770000Y-124460000D03*
X191770000Y-131445000D03*
X179705000Y-131445000D03*
X213360000Y-123190000D03*
X207645000Y-133350000D03*
X213360000Y-121920000D03*
X207010000Y-132080000D03*
X213360000Y-120650000D03*
X206375000Y-130810000D03*
X198120000Y-130810000D03*
X198755000Y-120015000D03*
X216535000Y-120015000D03*
X189230000Y-133350000D03*
X189230000Y-119380000D03*
X213360000Y-118745000D03*
X184150000Y-133350000D03*
X186690000Y-132080000D03*
X186690000Y-118110000D03*
X213360000Y-117475000D03*
X184150000Y-132080000D03*
X184150000Y-116840000D03*
X213360000Y-116205000D03*
X184785000Y-130810000D03*
D25*
X86487000Y-64389000D02*
X90043000Y-67945000D01*
X86487000Y-65659000D02*
X90043000Y-69215000D01*
X83820000Y-64389000D02*
X85852000Y-64389000D01*
X83820000Y-65659000D02*
X85852000Y-65659000D01*
X89154000Y-64770000D02*
X89154000Y-65786000D01*
X91186000Y-64770000D02*
X89154000Y-64770000D01*
X83820000Y-66294000D02*
X85852000Y-66294000D01*
X89408000Y-72390000D02*
X91186000Y-72390000D01*
X85852000Y-66294000D02*
X89408000Y-69850000D01*
X89408000Y-69850000D02*
X89408000Y-72390000D01*
X91186000Y-72390000D02*
X91186000Y-64770000D01*
X90170000Y-65786000D02*
X90170000Y-66675000D01*
X85090000Y-64389000D02*
X89027000Y-64389000D01*
D26*
X173990000Y-142875000D02*
X175260000Y-144145000D01*
X173990000Y-120650000D02*
X173990000Y-142875000D01*
X180975000Y-138430000D02*
X177800000Y-141605000D01*
X180975000Y-116840000D02*
X180975000Y-138430000D01*
X181610000Y-142875000D02*
X180340000Y-144145000D01*
X181610000Y-129540000D02*
X181610000Y-142875000D01*
X185420000Y-139065000D02*
X182880000Y-141605000D01*
X185420000Y-127000000D02*
X185420000Y-139065000D01*
X186690000Y-142875000D02*
X185420000Y-144145000D01*
X187960000Y-125730000D02*
X187960000Y-137160000D01*
X186690000Y-138430000D02*
X186690000Y-142875000D01*
X187960000Y-137160000D02*
X186690000Y-138430000D01*
X190500000Y-139065000D02*
X187960000Y-141605000D01*
X190500000Y-128270000D02*
X190500000Y-139065000D01*
X201930000Y-126365000D02*
X201930000Y-136525000D01*
X201930000Y-136525000D02*
X205740000Y-140335000D01*
X205740000Y-140335000D02*
X205740000Y-142875000D01*
X205740000Y-142875000D02*
X207010000Y-144145000D01*
X200660000Y-142875000D02*
X201930000Y-144145000D01*
X200660000Y-128270000D02*
X200660000Y-142875000D01*
X199390000Y-136525000D02*
X199390000Y-141605000D01*
X196850000Y-120015000D02*
X196850000Y-133985000D01*
X196850000Y-133985000D02*
X199390000Y-136525000D01*
X195580000Y-142875000D02*
X196850000Y-144145000D01*
X195580000Y-139700000D02*
X195580000Y-142875000D01*
X193040000Y-116205000D02*
X193040000Y-137160000D01*
X193040000Y-137160000D02*
X195580000Y-139700000D01*
X220980000Y-125095000D02*
X220980000Y-141605000D01*
X219075000Y-121285000D02*
X219075000Y-123190000D01*
X219075000Y-123190000D02*
X219710000Y-123825000D01*
X219710000Y-142875000D02*
X218440000Y-144145000D01*
X219710000Y-123825000D02*
X219710000Y-142875000D01*
X156210000Y-141605000D02*
X156210000Y-122555000D01*
X156210000Y-122555000D02*
X155575000Y-121920000D01*
X160020000Y-142875000D02*
X158750000Y-144145000D01*
X161925000Y-142875000D02*
X160020000Y-142875000D01*
X170815000Y-128270000D02*
X170815000Y-132715000D01*
X162560000Y-140970000D02*
X162560000Y-142240000D01*
X170815000Y-132715000D02*
X162560000Y-140970000D01*
X162560000Y-142240000D02*
X161925000Y-142875000D01*
X170180000Y-129540000D02*
X170180000Y-131445000D01*
X161290000Y-140335000D02*
X161290000Y-141605000D01*
X170180000Y-131445000D02*
X161290000Y-140335000D01*
X165100000Y-142875000D02*
X163830000Y-144145000D01*
X172720000Y-137160000D02*
X167005000Y-142875000D01*
X172720000Y-125730000D02*
X172720000Y-137160000D01*
X167005000Y-142875000D02*
X165100000Y-142875000D01*
X171450000Y-136525000D02*
X166370000Y-141605000D01*
X171450000Y-124460000D02*
X171450000Y-136525000D01*
D27*
X137858500Y-77216000D02*
X137541000Y-77216000D01*
X241935000Y-104140000D02*
X239395000Y-101600000D01*
X162560000Y-102235000D02*
X200025000Y-102235000D01*
X241935000Y-107950000D02*
X241935000Y-104140000D01*
X137541000Y-77216000D02*
X162560000Y-102235000D01*
X200025000Y-102235000D02*
X205740000Y-107950000D01*
X205740000Y-107950000D02*
X241935000Y-107950000D01*
X213360000Y-79375000D02*
X173990000Y-79375000D01*
X215900000Y-81915000D02*
X213360000Y-79375000D01*
X245110000Y-81915000D02*
X215900000Y-81915000D01*
X241300000Y-80010000D02*
X241300000Y-80010000D01*
X213995000Y-77470000D02*
X173990000Y-77470000D01*
X216535000Y-80010000D02*
X213995000Y-77470000D01*
X243205000Y-80010000D02*
X216535000Y-80010000D01*
X214630000Y-75565000D02*
X173990000Y-75565000D01*
X217170000Y-78105000D02*
X214630000Y-75565000D01*
X241300000Y-78105000D02*
X217170000Y-78105000D01*
X238760000Y-76200000D02*
X238760000Y-76200000D01*
X215265000Y-73660000D02*
X173990000Y-73660000D01*
X217805000Y-76200000D02*
X215265000Y-73660000D01*
X239395000Y-76200000D02*
X217805000Y-76200000D01*
X187960000Y-61595000D02*
X194310000Y-61595000D01*
X196850000Y-59055000D02*
X203200000Y-59055000D01*
X194310000Y-61595000D02*
X196850000Y-59055000D01*
X173990000Y-60325000D02*
X180340000Y-60325000D01*
X181610000Y-59055000D02*
X187960000Y-59055000D01*
X180340000Y-60325000D02*
X181610000Y-59055000D01*
X211455000Y-56515000D02*
X219710000Y-64770000D01*
X173990000Y-56515000D02*
X211455000Y-56515000D01*
X219710000Y-67310000D02*
X224790000Y-67310000D01*
X227330000Y-64770000D02*
X243840000Y-64770000D01*
X224790000Y-67310000D02*
X227330000Y-64770000D01*
X181610000Y-91440000D02*
X196850000Y-91440000D01*
X196850000Y-91440000D02*
X203835000Y-91440000D01*
X206375000Y-88900000D02*
X212090000Y-88900000D01*
X203835000Y-91440000D02*
X206375000Y-88900000D01*
X181610000Y-88900000D02*
X196850000Y-88900000D01*
X173990000Y-69850000D02*
X196215000Y-69850000D01*
X196215000Y-69850000D02*
X196850000Y-70485000D01*
X173990000Y-71755000D02*
X211455000Y-71755000D01*
X211455000Y-71755000D02*
X212090000Y-72390000D01*
X211455000Y-145415000D02*
X211455000Y-131445000D01*
X146685000Y-131445000D02*
X146685000Y-144780000D01*
X148590000Y-146685000D02*
X210185000Y-146685000D01*
X210185000Y-146685000D02*
X211455000Y-145415000D01*
X146685000Y-144780000D02*
X148590000Y-146685000D01*
X116205000Y-93980000D02*
X116205000Y-93345000D01*
X138430000Y-125095000D02*
X138430000Y-116205000D01*
X138430000Y-125095000D02*
X142240000Y-125095000D01*
X138430000Y-116205000D02*
X116205000Y-93980000D01*
X142240000Y-125095000D02*
X146685000Y-129540000D01*
X146685000Y-129540000D02*
X146685000Y-131445000D01*
X213360000Y-146685000D02*
X213360000Y-130175000D01*
X144145000Y-130175000D02*
X144145000Y-146685000D01*
X211455000Y-148590000D02*
X213360000Y-146685000D01*
X144145000Y-146685000D02*
X146050000Y-148590000D01*
X146050000Y-148590000D02*
X211455000Y-148590000D01*
X157861000Y-56896000D02*
X157861000Y-54864000D01*
X157861000Y-54864000D02*
X158115000Y-54610000D01*
X158115000Y-54610000D02*
X170815000Y-54610000D01*
X152400000Y-51435000D02*
X157861000Y-56896000D01*
X114300000Y-52070000D02*
X114935000Y-51435000D01*
X114935000Y-51435000D02*
X152400000Y-51435000D01*
X110490000Y-59690000D02*
X110490000Y-75565000D01*
X149860000Y-58420000D02*
X111760000Y-58420000D01*
X110490000Y-75565000D02*
X90805000Y-95250000D01*
X111760000Y-58420000D02*
X110490000Y-59690000D01*
X92710000Y-102870000D02*
X92710000Y-104775000D01*
X151765000Y-59690000D02*
X116205000Y-59690000D01*
X152400000Y-59055000D02*
X151765000Y-59690000D01*
X92710000Y-104775000D02*
X90805000Y-106680000D01*
X116205000Y-59690000D02*
X114300000Y-61595000D01*
X114300000Y-81280000D02*
X92710000Y-102870000D01*
X114300000Y-61595000D02*
X114300000Y-81280000D01*
X92710000Y-114935000D02*
X90805000Y-116840000D01*
X121285000Y-60960000D02*
X118110000Y-64135000D01*
X153035000Y-60960000D02*
X121285000Y-60960000D01*
X118110000Y-85725000D02*
X92710000Y-111125000D01*
X118110000Y-64135000D02*
X118110000Y-85725000D01*
X92710000Y-111125000D02*
X92710000Y-114935000D01*
X170561000Y-58674000D02*
X170815000Y-58420000D01*
X156210000Y-59055000D02*
X156591000Y-58674000D01*
X156591000Y-58674000D02*
X170561000Y-58674000D01*
X170180000Y-59690000D02*
X170815000Y-60325000D01*
X158115000Y-59690000D02*
X170180000Y-59690000D01*
X167640000Y-64770000D02*
X170180000Y-62230000D01*
X147955000Y-64770000D02*
X167640000Y-64770000D01*
X168910000Y-66040000D02*
X170815000Y-64135000D01*
X150495000Y-66040000D02*
X168910000Y-66040000D01*
X169545000Y-67310000D02*
X170815000Y-66040000D01*
X153035000Y-67310000D02*
X169545000Y-67310000D01*
X170815000Y-69850000D02*
X142875000Y-69850000D01*
X170815000Y-71755000D02*
X140335000Y-71755000D01*
X170815000Y-73660000D02*
X141605000Y-73660000D01*
X170815000Y-75565000D02*
X144145000Y-75565000D01*
X170815000Y-77470000D02*
X162560000Y-77470000D01*
X162560000Y-63500000D02*
X145415000Y-63500000D01*
X170815000Y-79375000D02*
X164465000Y-79375000D01*
X164465000Y-62230000D02*
X147955000Y-62230000D01*
X176530000Y-114935000D02*
X180340000Y-118745000D01*
X180340000Y-118745000D02*
X180340000Y-127000000D01*
X196850000Y-114935000D02*
X176530000Y-114935000D01*
X200660000Y-127000000D02*
X200660000Y-118745000D01*
X200660000Y-118745000D02*
X196850000Y-114935000D01*
X176530000Y-114935000D02*
X170180000Y-114935000D01*
X167322500Y-112077500D02*
X132461000Y-77216000D01*
X170180000Y-114935000D02*
X167322500Y-112077500D01*
X167322500Y-110807500D02*
X167640000Y-110490000D01*
X167322500Y-112077500D02*
X167322500Y-110807500D01*
D26*
X198120000Y-142875000D02*
X199390000Y-144145000D01*
X198120000Y-137160000D02*
X198120000Y-142875000D01*
X195580000Y-117475000D02*
X195580000Y-134620000D01*
X195580000Y-134620000D02*
X198120000Y-137160000D01*
X194310000Y-118745000D02*
X194310000Y-135890000D01*
X196850000Y-138430000D02*
X196850000Y-141605000D01*
X194310000Y-135890000D02*
X196850000Y-138430000D01*
X222250000Y-142875000D02*
X220980000Y-144145000D01*
X222250000Y-122555000D02*
X222250000Y-142875000D01*
X218440000Y-141605000D02*
X218440000Y-123825000D01*
X156210000Y-144145000D02*
X155575000Y-144145000D01*
X155575000Y-144145000D02*
X154940000Y-143510000D01*
X154940000Y-125095000D02*
X154305000Y-124460000D01*
X154940000Y-143510000D02*
X154940000Y-125095000D01*
X153035000Y-140970000D02*
X153670000Y-141605000D01*
X153035000Y-123190000D02*
X153035000Y-140970000D01*
X176530000Y-142875000D02*
X177800000Y-144145000D01*
X176530000Y-119380000D02*
X176530000Y-142875000D01*
X175260000Y-118110000D02*
X175260000Y-141605000D01*
D27*
X128270000Y-134620000D02*
X129540000Y-133350000D01*
X128270000Y-135890000D02*
X128270000Y-134620000D01*
X107950000Y-134620000D02*
X109220000Y-133350000D01*
X107950000Y-135890000D02*
X107950000Y-134620000D01*
X87630000Y-134620000D02*
X88900000Y-133350000D01*
X87630000Y-135890000D02*
X87630000Y-134620000D01*
X127800000Y-125600000D02*
X115000000Y-125600000D01*
X115000000Y-125600000D02*
X113200000Y-127400000D01*
X107950000Y-127192500D02*
X107950000Y-132080000D01*
X90170000Y-132080000D02*
X88900000Y-133350000D01*
X107950000Y-132080000D02*
X90170000Y-132080000D01*
X128270000Y-132080000D02*
X129540000Y-133350000D01*
X108585000Y-132080000D02*
X128270000Y-132080000D01*
X107950000Y-127450000D02*
X107950000Y-131445000D01*
X107950000Y-131445000D02*
X108585000Y-132080000D01*
X108000000Y-126415000D02*
X107950000Y-126365000D01*
X109220000Y-133350000D02*
X108000000Y-132130000D01*
X108000000Y-132130000D02*
X108000000Y-126415000D01*
X173990000Y-67945000D02*
X179705000Y-67945000D01*
X179705000Y-67945000D02*
X180340000Y-68580000D01*
X170180000Y-68580000D02*
X145415000Y-68580000D01*
X170815000Y-67945000D02*
X170180000Y-68580000D01*
D26*
X191770000Y-124460000D02*
X191770000Y-131445000D01*
X209550000Y-123190000D02*
X213360000Y-123190000D01*
X207645000Y-133350000D02*
X207645000Y-125095000D01*
X207645000Y-125095000D02*
X209550000Y-123190000D01*
X207010000Y-121920000D02*
X213360000Y-121920000D01*
X207010000Y-132080000D02*
X207010000Y-121920000D01*
X206375000Y-120650000D02*
X213360000Y-120650000D01*
X206375000Y-130810000D02*
X206375000Y-120650000D01*
X198120000Y-130810000D02*
X198120000Y-120650000D01*
X198120000Y-120650000D02*
X198755000Y-120015000D01*
X189230000Y-119380000D02*
X189230000Y-133350000D01*
X186690000Y-118110000D02*
X186690000Y-132080000D01*
X184785000Y-117475000D02*
X184150000Y-116840000D01*
X184785000Y-130810000D02*
X184785000Y-117475000D01*
M02*
