G04 #@! TF.GenerationSoftware,KiCad,Pcbnew,(5.1.5)-3*
G04 #@! TF.CreationDate,2021-03-17T15:19:28-07:00*
G04 #@! TF.ProjectId,Daughterboard,44617567-6874-4657-9262-6f6172642e6b,rev?*
G04 #@! TF.SameCoordinates,Original*
G04 #@! TF.FileFunction,Soldermask,Top*
G04 #@! TF.FilePolarity,Negative*
%FSLAX46Y46*%
G04 Gerber Fmt 4.6, Leading zero omitted, Abs format (unit mm)*
G04 Created by KiCad (PCBNEW (5.1.5)-3) date 2021-03-17 15:19:28*
%MOMM*%
%LPD*%
G04 APERTURE LIST*
%ADD10C,0.100000*%
G04 APERTURE END LIST*
D10*
G36*
X154034499Y-140003445D02*
G01*
X154071995Y-140014820D01*
X154106554Y-140033292D01*
X154136847Y-140058153D01*
X154161708Y-140088446D01*
X154180180Y-140123005D01*
X154191555Y-140160501D01*
X154196000Y-140205638D01*
X154196000Y-140944362D01*
X154191555Y-140989499D01*
X154180180Y-141026995D01*
X154161708Y-141061554D01*
X154136847Y-141091847D01*
X154106554Y-141116708D01*
X154071995Y-141135180D01*
X154034499Y-141146555D01*
X153989362Y-141151000D01*
X153350638Y-141151000D01*
X153305501Y-141146555D01*
X153268005Y-141135180D01*
X153233446Y-141116708D01*
X153203153Y-141091847D01*
X153178292Y-141061554D01*
X153159820Y-141026995D01*
X153148445Y-140989499D01*
X153144000Y-140944362D01*
X153144000Y-140205638D01*
X153148445Y-140160501D01*
X153159820Y-140123005D01*
X153178292Y-140088446D01*
X153203153Y-140058153D01*
X153233446Y-140033292D01*
X153268005Y-140014820D01*
X153305501Y-140003445D01*
X153350638Y-139999000D01*
X153989362Y-139999000D01*
X154034499Y-140003445D01*
G37*
G36*
X111489499Y-140003445D02*
G01*
X111526995Y-140014820D01*
X111561554Y-140033292D01*
X111591847Y-140058153D01*
X111616708Y-140088446D01*
X111635180Y-140123005D01*
X111646555Y-140160501D01*
X111651000Y-140205638D01*
X111651000Y-140944362D01*
X111646555Y-140989499D01*
X111635180Y-141026995D01*
X111616708Y-141061554D01*
X111591847Y-141091847D01*
X111561554Y-141116708D01*
X111526995Y-141135180D01*
X111489499Y-141146555D01*
X111444362Y-141151000D01*
X110805638Y-141151000D01*
X110760501Y-141146555D01*
X110723005Y-141135180D01*
X110688446Y-141116708D01*
X110658153Y-141091847D01*
X110633292Y-141061554D01*
X110614820Y-141026995D01*
X110603445Y-140989499D01*
X110599000Y-140944362D01*
X110599000Y-140205638D01*
X110603445Y-140160501D01*
X110614820Y-140123005D01*
X110633292Y-140088446D01*
X110658153Y-140058153D01*
X110688446Y-140033292D01*
X110723005Y-140014820D01*
X110760501Y-140003445D01*
X110805638Y-139999000D01*
X111444362Y-139999000D01*
X111489499Y-140003445D01*
G37*
G36*
X195944499Y-140003445D02*
G01*
X195981995Y-140014820D01*
X196016554Y-140033292D01*
X196046847Y-140058153D01*
X196071708Y-140088446D01*
X196090180Y-140123005D01*
X196101555Y-140160501D01*
X196106000Y-140205638D01*
X196106000Y-140944362D01*
X196101555Y-140989499D01*
X196090180Y-141026995D01*
X196071708Y-141061554D01*
X196046847Y-141091847D01*
X196016554Y-141116708D01*
X195981995Y-141135180D01*
X195944499Y-141146555D01*
X195899362Y-141151000D01*
X195260638Y-141151000D01*
X195215501Y-141146555D01*
X195178005Y-141135180D01*
X195143446Y-141116708D01*
X195113153Y-141091847D01*
X195088292Y-141061554D01*
X195069820Y-141026995D01*
X195058445Y-140989499D01*
X195054000Y-140944362D01*
X195054000Y-140205638D01*
X195058445Y-140160501D01*
X195069820Y-140123005D01*
X195088292Y-140088446D01*
X195113153Y-140058153D01*
X195143446Y-140033292D01*
X195178005Y-140014820D01*
X195215501Y-140003445D01*
X195260638Y-139999000D01*
X195899362Y-139999000D01*
X195944499Y-140003445D01*
G37*
G36*
X68373499Y-138670445D02*
G01*
X68410995Y-138681820D01*
X68445554Y-138700292D01*
X68475847Y-138725153D01*
X68500708Y-138755446D01*
X68519180Y-138790005D01*
X68530555Y-138827501D01*
X68535000Y-138872638D01*
X68535000Y-139511362D01*
X68530555Y-139556499D01*
X68519180Y-139593995D01*
X68500708Y-139628554D01*
X68475847Y-139658847D01*
X68445554Y-139683708D01*
X68410995Y-139702180D01*
X68373499Y-139713555D01*
X68328362Y-139718000D01*
X67589638Y-139718000D01*
X67544501Y-139713555D01*
X67507005Y-139702180D01*
X67472446Y-139683708D01*
X67442153Y-139658847D01*
X67417292Y-139628554D01*
X67398820Y-139593995D01*
X67387445Y-139556499D01*
X67383000Y-139511362D01*
X67383000Y-138872638D01*
X67387445Y-138827501D01*
X67398820Y-138790005D01*
X67417292Y-138755446D01*
X67442153Y-138725153D01*
X67472446Y-138700292D01*
X67507005Y-138681820D01*
X67544501Y-138670445D01*
X67589638Y-138666000D01*
X68328362Y-138666000D01*
X68373499Y-138670445D01*
G37*
G36*
X70123499Y-138670445D02*
G01*
X70160995Y-138681820D01*
X70195554Y-138700292D01*
X70225847Y-138725153D01*
X70250708Y-138755446D01*
X70269180Y-138790005D01*
X70280555Y-138827501D01*
X70285000Y-138872638D01*
X70285000Y-139511362D01*
X70280555Y-139556499D01*
X70269180Y-139593995D01*
X70250708Y-139628554D01*
X70225847Y-139658847D01*
X70195554Y-139683708D01*
X70160995Y-139702180D01*
X70123499Y-139713555D01*
X70078362Y-139718000D01*
X69339638Y-139718000D01*
X69294501Y-139713555D01*
X69257005Y-139702180D01*
X69222446Y-139683708D01*
X69192153Y-139658847D01*
X69167292Y-139628554D01*
X69148820Y-139593995D01*
X69137445Y-139556499D01*
X69133000Y-139511362D01*
X69133000Y-138872638D01*
X69137445Y-138827501D01*
X69148820Y-138790005D01*
X69167292Y-138755446D01*
X69192153Y-138725153D01*
X69222446Y-138700292D01*
X69257005Y-138681820D01*
X69294501Y-138670445D01*
X69339638Y-138666000D01*
X70078362Y-138666000D01*
X70123499Y-138670445D01*
G37*
G36*
X195944499Y-138253445D02*
G01*
X195981995Y-138264820D01*
X196016554Y-138283292D01*
X196046847Y-138308153D01*
X196071708Y-138338446D01*
X196090180Y-138373005D01*
X196101555Y-138410501D01*
X196106000Y-138455638D01*
X196106000Y-139194362D01*
X196101555Y-139239499D01*
X196090180Y-139276995D01*
X196071708Y-139311554D01*
X196046847Y-139341847D01*
X196016554Y-139366708D01*
X195981995Y-139385180D01*
X195944499Y-139396555D01*
X195899362Y-139401000D01*
X195260638Y-139401000D01*
X195215501Y-139396555D01*
X195178005Y-139385180D01*
X195143446Y-139366708D01*
X195113153Y-139341847D01*
X195088292Y-139311554D01*
X195069820Y-139276995D01*
X195058445Y-139239499D01*
X195054000Y-139194362D01*
X195054000Y-138455638D01*
X195058445Y-138410501D01*
X195069820Y-138373005D01*
X195088292Y-138338446D01*
X195113153Y-138308153D01*
X195143446Y-138283292D01*
X195178005Y-138264820D01*
X195215501Y-138253445D01*
X195260638Y-138249000D01*
X195899362Y-138249000D01*
X195944499Y-138253445D01*
G37*
G36*
X154034499Y-138253445D02*
G01*
X154071995Y-138264820D01*
X154106554Y-138283292D01*
X154136847Y-138308153D01*
X154161708Y-138338446D01*
X154180180Y-138373005D01*
X154191555Y-138410501D01*
X154196000Y-138455638D01*
X154196000Y-139194362D01*
X154191555Y-139239499D01*
X154180180Y-139276995D01*
X154161708Y-139311554D01*
X154136847Y-139341847D01*
X154106554Y-139366708D01*
X154071995Y-139385180D01*
X154034499Y-139396555D01*
X153989362Y-139401000D01*
X153350638Y-139401000D01*
X153305501Y-139396555D01*
X153268005Y-139385180D01*
X153233446Y-139366708D01*
X153203153Y-139341847D01*
X153178292Y-139311554D01*
X153159820Y-139276995D01*
X153148445Y-139239499D01*
X153144000Y-139194362D01*
X153144000Y-138455638D01*
X153148445Y-138410501D01*
X153159820Y-138373005D01*
X153178292Y-138338446D01*
X153203153Y-138308153D01*
X153233446Y-138283292D01*
X153268005Y-138264820D01*
X153305501Y-138253445D01*
X153350638Y-138249000D01*
X153989362Y-138249000D01*
X154034499Y-138253445D01*
G37*
G36*
X111489499Y-138253445D02*
G01*
X111526995Y-138264820D01*
X111561554Y-138283292D01*
X111591847Y-138308153D01*
X111616708Y-138338446D01*
X111635180Y-138373005D01*
X111646555Y-138410501D01*
X111651000Y-138455638D01*
X111651000Y-139194362D01*
X111646555Y-139239499D01*
X111635180Y-139276995D01*
X111616708Y-139311554D01*
X111591847Y-139341847D01*
X111561554Y-139366708D01*
X111526995Y-139385180D01*
X111489499Y-139396555D01*
X111444362Y-139401000D01*
X110805638Y-139401000D01*
X110760501Y-139396555D01*
X110723005Y-139385180D01*
X110688446Y-139366708D01*
X110658153Y-139341847D01*
X110633292Y-139311554D01*
X110614820Y-139276995D01*
X110603445Y-139239499D01*
X110599000Y-139194362D01*
X110599000Y-138455638D01*
X110603445Y-138410501D01*
X110614820Y-138373005D01*
X110633292Y-138338446D01*
X110658153Y-138308153D01*
X110688446Y-138283292D01*
X110723005Y-138264820D01*
X110760501Y-138253445D01*
X110805638Y-138249000D01*
X111444362Y-138249000D01*
X111489499Y-138253445D01*
G37*
G36*
X137014796Y-134992989D02*
G01*
X137168812Y-135023624D01*
X137332784Y-135091544D01*
X137480354Y-135190147D01*
X137605853Y-135315646D01*
X137704456Y-135463216D01*
X137772376Y-135627188D01*
X137807000Y-135801259D01*
X137807000Y-135978741D01*
X137772376Y-136152812D01*
X137704456Y-136316784D01*
X137605853Y-136464354D01*
X137480354Y-136589853D01*
X137332784Y-136688456D01*
X137168812Y-136756376D01*
X137020341Y-136785908D01*
X136994742Y-136791000D01*
X136817258Y-136791000D01*
X136791659Y-136785908D01*
X136643188Y-136756376D01*
X136479216Y-136688456D01*
X136331646Y-136589853D01*
X136206147Y-136464354D01*
X136107544Y-136316784D01*
X136039624Y-136152812D01*
X136005000Y-135978741D01*
X136005000Y-135801259D01*
X136039624Y-135627188D01*
X136107544Y-135463216D01*
X136206147Y-135315646D01*
X136331646Y-135190147D01*
X136479216Y-135091544D01*
X136643188Y-135023624D01*
X136797204Y-134992989D01*
X136817258Y-134989000D01*
X136994742Y-134989000D01*
X137014796Y-134992989D01*
G37*
G36*
X140204600Y-134992989D02*
G01*
X140237652Y-135003015D01*
X140268103Y-135019292D01*
X140294799Y-135041201D01*
X140316708Y-135067897D01*
X140332985Y-135098348D01*
X140343011Y-135131400D01*
X140347000Y-135171903D01*
X140347000Y-136608097D01*
X140343011Y-136648600D01*
X140332985Y-136681652D01*
X140316708Y-136712103D01*
X140294799Y-136738799D01*
X140268103Y-136760708D01*
X140237652Y-136776985D01*
X140204600Y-136787011D01*
X140164097Y-136791000D01*
X138727903Y-136791000D01*
X138687400Y-136787011D01*
X138654348Y-136776985D01*
X138623897Y-136760708D01*
X138597201Y-136738799D01*
X138575292Y-136712103D01*
X138559015Y-136681652D01*
X138548989Y-136648600D01*
X138545000Y-136608097D01*
X138545000Y-135171903D01*
X138548989Y-135131400D01*
X138559015Y-135098348D01*
X138575292Y-135067897D01*
X138597201Y-135041201D01*
X138623897Y-135019292D01*
X138654348Y-135003015D01*
X138687400Y-134992989D01*
X138727903Y-134989000D01*
X140164097Y-134989000D01*
X140204600Y-134992989D01*
G37*
G36*
X137019512Y-132453927D02*
G01*
X137168812Y-132483624D01*
X137332784Y-132551544D01*
X137480354Y-132650147D01*
X137605853Y-132775646D01*
X137704456Y-132923216D01*
X137772376Y-133087188D01*
X137807000Y-133261259D01*
X137807000Y-133438741D01*
X137772376Y-133612812D01*
X137704456Y-133776784D01*
X137605853Y-133924354D01*
X137480354Y-134049853D01*
X137332784Y-134148456D01*
X137168812Y-134216376D01*
X137019512Y-134246073D01*
X136994742Y-134251000D01*
X136817258Y-134251000D01*
X136792488Y-134246073D01*
X136643188Y-134216376D01*
X136479216Y-134148456D01*
X136331646Y-134049853D01*
X136206147Y-133924354D01*
X136107544Y-133776784D01*
X136039624Y-133612812D01*
X136005000Y-133438741D01*
X136005000Y-133261259D01*
X136039624Y-133087188D01*
X136107544Y-132923216D01*
X136206147Y-132775646D01*
X136331646Y-132650147D01*
X136479216Y-132551544D01*
X136643188Y-132483624D01*
X136792488Y-132453927D01*
X136817258Y-132449000D01*
X136994742Y-132449000D01*
X137019512Y-132453927D01*
G37*
G36*
X139559512Y-132453927D02*
G01*
X139708812Y-132483624D01*
X139872784Y-132551544D01*
X140020354Y-132650147D01*
X140145853Y-132775646D01*
X140244456Y-132923216D01*
X140312376Y-133087188D01*
X140347000Y-133261259D01*
X140347000Y-133438741D01*
X140312376Y-133612812D01*
X140244456Y-133776784D01*
X140145853Y-133924354D01*
X140020354Y-134049853D01*
X139872784Y-134148456D01*
X139708812Y-134216376D01*
X139559512Y-134246073D01*
X139534742Y-134251000D01*
X139357258Y-134251000D01*
X139332488Y-134246073D01*
X139183188Y-134216376D01*
X139019216Y-134148456D01*
X138871646Y-134049853D01*
X138746147Y-133924354D01*
X138647544Y-133776784D01*
X138579624Y-133612812D01*
X138545000Y-133438741D01*
X138545000Y-133261259D01*
X138579624Y-133087188D01*
X138647544Y-132923216D01*
X138746147Y-132775646D01*
X138871646Y-132650147D01*
X139019216Y-132551544D01*
X139183188Y-132483624D01*
X139332488Y-132453927D01*
X139357258Y-132449000D01*
X139534742Y-132449000D01*
X139559512Y-132453927D01*
G37*
G36*
X131301500Y-132781000D02*
G01*
X130724500Y-132781000D01*
X130724500Y-131379000D01*
X131301500Y-131379000D01*
X131301500Y-132781000D01*
G37*
G36*
X129625500Y-132781000D02*
G01*
X129048500Y-132781000D01*
X129048500Y-131379000D01*
X129625500Y-131379000D01*
X129625500Y-132781000D01*
G37*
G36*
X111799208Y-128752093D02*
G01*
X112140617Y-128893510D01*
X112140619Y-128893511D01*
X112254873Y-128969853D01*
X112447880Y-129098816D01*
X112709184Y-129360120D01*
X112914490Y-129667383D01*
X113055907Y-130008792D01*
X113128000Y-130371229D01*
X113128000Y-130740771D01*
X113055907Y-131103208D01*
X112939452Y-131384353D01*
X112914489Y-131444619D01*
X112709184Y-131751880D01*
X112447880Y-132013184D01*
X112140619Y-132218489D01*
X112140618Y-132218490D01*
X112140617Y-132218490D01*
X111799208Y-132359907D01*
X111436771Y-132432000D01*
X111067229Y-132432000D01*
X110704792Y-132359907D01*
X110363383Y-132218490D01*
X110363382Y-132218490D01*
X110363381Y-132218489D01*
X110056120Y-132013184D01*
X109794816Y-131751880D01*
X109589511Y-131444619D01*
X109564548Y-131384353D01*
X109448093Y-131103208D01*
X109376000Y-130740771D01*
X109376000Y-130371229D01*
X109448093Y-130008792D01*
X109589510Y-129667383D01*
X109794816Y-129360120D01*
X110056120Y-129098816D01*
X110249127Y-128969853D01*
X110363381Y-128893511D01*
X110363383Y-128893510D01*
X110704792Y-128752093D01*
X111067229Y-128680000D01*
X111436771Y-128680000D01*
X111799208Y-128752093D01*
G37*
G36*
X154471208Y-128752093D02*
G01*
X154812617Y-128893510D01*
X154812619Y-128893511D01*
X154926873Y-128969853D01*
X155119880Y-129098816D01*
X155381184Y-129360120D01*
X155586490Y-129667383D01*
X155727907Y-130008792D01*
X155800000Y-130371229D01*
X155800000Y-130740771D01*
X155727907Y-131103208D01*
X155611452Y-131384353D01*
X155586489Y-131444619D01*
X155381184Y-131751880D01*
X155119880Y-132013184D01*
X154812619Y-132218489D01*
X154812618Y-132218490D01*
X154812617Y-132218490D01*
X154471208Y-132359907D01*
X154108771Y-132432000D01*
X153739229Y-132432000D01*
X153376792Y-132359907D01*
X153035383Y-132218490D01*
X153035382Y-132218490D01*
X153035381Y-132218489D01*
X152728120Y-132013184D01*
X152466816Y-131751880D01*
X152261511Y-131444619D01*
X152236548Y-131384353D01*
X152120093Y-131103208D01*
X152048000Y-130740771D01*
X152048000Y-130371229D01*
X152120093Y-130008792D01*
X152261510Y-129667383D01*
X152466816Y-129360120D01*
X152728120Y-129098816D01*
X152921127Y-128969853D01*
X153035381Y-128893511D01*
X153035383Y-128893510D01*
X153376792Y-128752093D01*
X153739229Y-128680000D01*
X154108771Y-128680000D01*
X154471208Y-128752093D01*
G37*
G36*
X208573208Y-128752093D02*
G01*
X208914617Y-128893510D01*
X208914619Y-128893511D01*
X209028873Y-128969853D01*
X209221880Y-129098816D01*
X209483184Y-129360120D01*
X209688490Y-129667383D01*
X209829907Y-130008792D01*
X209902000Y-130371229D01*
X209902000Y-130740771D01*
X209829907Y-131103208D01*
X209713452Y-131384353D01*
X209688489Y-131444619D01*
X209483184Y-131751880D01*
X209221880Y-132013184D01*
X208914619Y-132218489D01*
X208914618Y-132218490D01*
X208914617Y-132218490D01*
X208573208Y-132359907D01*
X208210771Y-132432000D01*
X207841229Y-132432000D01*
X207478792Y-132359907D01*
X207137383Y-132218490D01*
X207137382Y-132218490D01*
X207137381Y-132218489D01*
X206830120Y-132013184D01*
X206568816Y-131751880D01*
X206363511Y-131444619D01*
X206338548Y-131384353D01*
X206222093Y-131103208D01*
X206150000Y-130740771D01*
X206150000Y-130371229D01*
X206222093Y-130008792D01*
X206363510Y-129667383D01*
X206568816Y-129360120D01*
X206830120Y-129098816D01*
X207023127Y-128969853D01*
X207137381Y-128893511D01*
X207137383Y-128893510D01*
X207478792Y-128752093D01*
X207841229Y-128680000D01*
X208210771Y-128680000D01*
X208573208Y-128752093D01*
G37*
G36*
X197143208Y-128752093D02*
G01*
X197484617Y-128893510D01*
X197484619Y-128893511D01*
X197598873Y-128969853D01*
X197791880Y-129098816D01*
X198053184Y-129360120D01*
X198258490Y-129667383D01*
X198399907Y-130008792D01*
X198472000Y-130371229D01*
X198472000Y-130740771D01*
X198399907Y-131103208D01*
X198283452Y-131384353D01*
X198258489Y-131444619D01*
X198053184Y-131751880D01*
X197791880Y-132013184D01*
X197484619Y-132218489D01*
X197484618Y-132218490D01*
X197484617Y-132218490D01*
X197143208Y-132359907D01*
X196780771Y-132432000D01*
X196411229Y-132432000D01*
X196048792Y-132359907D01*
X195707383Y-132218490D01*
X195707382Y-132218490D01*
X195707381Y-132218489D01*
X195400120Y-132013184D01*
X195138816Y-131751880D01*
X194933511Y-131444619D01*
X194908548Y-131384353D01*
X194792093Y-131103208D01*
X194720000Y-130740771D01*
X194720000Y-130371229D01*
X194792093Y-130008792D01*
X194933510Y-129667383D01*
X195138816Y-129360120D01*
X195400120Y-129098816D01*
X195593127Y-128969853D01*
X195707381Y-128893511D01*
X195707383Y-128893510D01*
X196048792Y-128752093D01*
X196411229Y-128680000D01*
X196780771Y-128680000D01*
X197143208Y-128752093D01*
G37*
G36*
X165901208Y-128752093D02*
G01*
X166242617Y-128893510D01*
X166242619Y-128893511D01*
X166356873Y-128969853D01*
X166549880Y-129098816D01*
X166811184Y-129360120D01*
X167016490Y-129667383D01*
X167157907Y-130008792D01*
X167230000Y-130371229D01*
X167230000Y-130740771D01*
X167157907Y-131103208D01*
X167041452Y-131384353D01*
X167016489Y-131444619D01*
X166811184Y-131751880D01*
X166549880Y-132013184D01*
X166242619Y-132218489D01*
X166242618Y-132218490D01*
X166242617Y-132218490D01*
X165901208Y-132359907D01*
X165538771Y-132432000D01*
X165169229Y-132432000D01*
X164806792Y-132359907D01*
X164465383Y-132218490D01*
X164465382Y-132218490D01*
X164465381Y-132218489D01*
X164158120Y-132013184D01*
X163896816Y-131751880D01*
X163691511Y-131444619D01*
X163666548Y-131384353D01*
X163550093Y-131103208D01*
X163478000Y-130740771D01*
X163478000Y-130371229D01*
X163550093Y-130008792D01*
X163691510Y-129667383D01*
X163896816Y-129360120D01*
X164158120Y-129098816D01*
X164351127Y-128969853D01*
X164465381Y-128893511D01*
X164465383Y-128893510D01*
X164806792Y-128752093D01*
X165169229Y-128680000D01*
X165538771Y-128680000D01*
X165901208Y-128752093D01*
G37*
G36*
X123229208Y-128752093D02*
G01*
X123570617Y-128893510D01*
X123570619Y-128893511D01*
X123684873Y-128969853D01*
X123877880Y-129098816D01*
X124139184Y-129360120D01*
X124344490Y-129667383D01*
X124485907Y-130008792D01*
X124558000Y-130371229D01*
X124558000Y-130740771D01*
X124485907Y-131103208D01*
X124369452Y-131384353D01*
X124344489Y-131444619D01*
X124139184Y-131751880D01*
X123877880Y-132013184D01*
X123570619Y-132218489D01*
X123570618Y-132218490D01*
X123570617Y-132218490D01*
X123229208Y-132359907D01*
X122866771Y-132432000D01*
X122497229Y-132432000D01*
X122134792Y-132359907D01*
X121793383Y-132218490D01*
X121793382Y-132218490D01*
X121793381Y-132218489D01*
X121486120Y-132013184D01*
X121224816Y-131751880D01*
X121019511Y-131444619D01*
X120994548Y-131384353D01*
X120878093Y-131103208D01*
X120806000Y-130740771D01*
X120806000Y-130371229D01*
X120878093Y-130008792D01*
X121019510Y-129667383D01*
X121224816Y-129360120D01*
X121486120Y-129098816D01*
X121679127Y-128969853D01*
X121793381Y-128893511D01*
X121793383Y-128893510D01*
X122134792Y-128752093D01*
X122497229Y-128680000D01*
X122866771Y-128680000D01*
X123229208Y-128752093D01*
G37*
G36*
X80303208Y-128752093D02*
G01*
X80644617Y-128893510D01*
X80644619Y-128893511D01*
X80758873Y-128969853D01*
X80951880Y-129098816D01*
X81213184Y-129360120D01*
X81418490Y-129667383D01*
X81559907Y-130008792D01*
X81632000Y-130371229D01*
X81632000Y-130740771D01*
X81559907Y-131103208D01*
X81443452Y-131384353D01*
X81418489Y-131444619D01*
X81213184Y-131751880D01*
X80951880Y-132013184D01*
X80644619Y-132218489D01*
X80644618Y-132218490D01*
X80644617Y-132218490D01*
X80303208Y-132359907D01*
X79940771Y-132432000D01*
X79571229Y-132432000D01*
X79208792Y-132359907D01*
X78867383Y-132218490D01*
X78867382Y-132218490D01*
X78867381Y-132218489D01*
X78560120Y-132013184D01*
X78298816Y-131751880D01*
X78093511Y-131444619D01*
X78068548Y-131384353D01*
X77952093Y-131103208D01*
X77880000Y-130740771D01*
X77880000Y-130371229D01*
X77952093Y-130008792D01*
X78093510Y-129667383D01*
X78298816Y-129360120D01*
X78560120Y-129098816D01*
X78753127Y-128969853D01*
X78867381Y-128893511D01*
X78867383Y-128893510D01*
X79208792Y-128752093D01*
X79571229Y-128680000D01*
X79940771Y-128680000D01*
X80303208Y-128752093D01*
G37*
G36*
X68873208Y-128752093D02*
G01*
X69214617Y-128893510D01*
X69214619Y-128893511D01*
X69328873Y-128969853D01*
X69521880Y-129098816D01*
X69783184Y-129360120D01*
X69988490Y-129667383D01*
X70129907Y-130008792D01*
X70202000Y-130371229D01*
X70202000Y-130740771D01*
X70129907Y-131103208D01*
X70013452Y-131384353D01*
X69988489Y-131444619D01*
X69783184Y-131751880D01*
X69521880Y-132013184D01*
X69214619Y-132218489D01*
X69214618Y-132218490D01*
X69214617Y-132218490D01*
X68873208Y-132359907D01*
X68510771Y-132432000D01*
X68141229Y-132432000D01*
X67778792Y-132359907D01*
X67437383Y-132218490D01*
X67437382Y-132218490D01*
X67437381Y-132218489D01*
X67130120Y-132013184D01*
X66868816Y-131751880D01*
X66663511Y-131444619D01*
X66638548Y-131384353D01*
X66522093Y-131103208D01*
X66450000Y-130740771D01*
X66450000Y-130371229D01*
X66522093Y-130008792D01*
X66663510Y-129667383D01*
X66868816Y-129360120D01*
X67130120Y-129098816D01*
X67323127Y-128969853D01*
X67437381Y-128893511D01*
X67437383Y-128893510D01*
X67778792Y-128752093D01*
X68141229Y-128680000D01*
X68510771Y-128680000D01*
X68873208Y-128752093D01*
G37*
G36*
X137019512Y-129913927D02*
G01*
X137168812Y-129943624D01*
X137332784Y-130011544D01*
X137480354Y-130110147D01*
X137605853Y-130235646D01*
X137704456Y-130383216D01*
X137772376Y-130547188D01*
X137807000Y-130721259D01*
X137807000Y-130898741D01*
X137772376Y-131072812D01*
X137704456Y-131236784D01*
X137605853Y-131384354D01*
X137480354Y-131509853D01*
X137332784Y-131608456D01*
X137168812Y-131676376D01*
X137019512Y-131706073D01*
X136994742Y-131711000D01*
X136817258Y-131711000D01*
X136792488Y-131706073D01*
X136643188Y-131676376D01*
X136479216Y-131608456D01*
X136331646Y-131509853D01*
X136206147Y-131384354D01*
X136107544Y-131236784D01*
X136039624Y-131072812D01*
X136005000Y-130898741D01*
X136005000Y-130721259D01*
X136039624Y-130547188D01*
X136107544Y-130383216D01*
X136206147Y-130235646D01*
X136331646Y-130110147D01*
X136479216Y-130011544D01*
X136643188Y-129943624D01*
X136792488Y-129913927D01*
X136817258Y-129909000D01*
X136994742Y-129909000D01*
X137019512Y-129913927D01*
G37*
G36*
X139559512Y-129913927D02*
G01*
X139708812Y-129943624D01*
X139872784Y-130011544D01*
X140020354Y-130110147D01*
X140145853Y-130235646D01*
X140244456Y-130383216D01*
X140312376Y-130547188D01*
X140347000Y-130721259D01*
X140347000Y-130898741D01*
X140312376Y-131072812D01*
X140244456Y-131236784D01*
X140145853Y-131384354D01*
X140020354Y-131509853D01*
X139872784Y-131608456D01*
X139708812Y-131676376D01*
X139559512Y-131706073D01*
X139534742Y-131711000D01*
X139357258Y-131711000D01*
X139332488Y-131706073D01*
X139183188Y-131676376D01*
X139019216Y-131608456D01*
X138871646Y-131509853D01*
X138746147Y-131384354D01*
X138647544Y-131236784D01*
X138579624Y-131072812D01*
X138545000Y-130898741D01*
X138545000Y-130721259D01*
X138579624Y-130547188D01*
X138647544Y-130383216D01*
X138746147Y-130235646D01*
X138871646Y-130110147D01*
X139019216Y-130011544D01*
X139183188Y-129943624D01*
X139332488Y-129913927D01*
X139357258Y-129909000D01*
X139534742Y-129909000D01*
X139559512Y-129913927D01*
G37*
G36*
X137019512Y-127373927D02*
G01*
X137168812Y-127403624D01*
X137332784Y-127471544D01*
X137480354Y-127570147D01*
X137605853Y-127695646D01*
X137704456Y-127843216D01*
X137772376Y-128007188D01*
X137807000Y-128181259D01*
X137807000Y-128358741D01*
X137772376Y-128532812D01*
X137704456Y-128696784D01*
X137605853Y-128844354D01*
X137480354Y-128969853D01*
X137332784Y-129068456D01*
X137168812Y-129136376D01*
X137019512Y-129166073D01*
X136994742Y-129171000D01*
X136817258Y-129171000D01*
X136792488Y-129166073D01*
X136643188Y-129136376D01*
X136479216Y-129068456D01*
X136331646Y-128969853D01*
X136206147Y-128844354D01*
X136107544Y-128696784D01*
X136039624Y-128532812D01*
X136005000Y-128358741D01*
X136005000Y-128181259D01*
X136039624Y-128007188D01*
X136107544Y-127843216D01*
X136206147Y-127695646D01*
X136331646Y-127570147D01*
X136479216Y-127471544D01*
X136643188Y-127403624D01*
X136792488Y-127373927D01*
X136817258Y-127369000D01*
X136994742Y-127369000D01*
X137019512Y-127373927D01*
G37*
G36*
X139559512Y-127373927D02*
G01*
X139708812Y-127403624D01*
X139872784Y-127471544D01*
X140020354Y-127570147D01*
X140145853Y-127695646D01*
X140244456Y-127843216D01*
X140312376Y-128007188D01*
X140347000Y-128181259D01*
X140347000Y-128358741D01*
X140312376Y-128532812D01*
X140244456Y-128696784D01*
X140145853Y-128844354D01*
X140020354Y-128969853D01*
X139872784Y-129068456D01*
X139708812Y-129136376D01*
X139559512Y-129166073D01*
X139534742Y-129171000D01*
X139357258Y-129171000D01*
X139332488Y-129166073D01*
X139183188Y-129136376D01*
X139019216Y-129068456D01*
X138871646Y-128969853D01*
X138746147Y-128844354D01*
X138647544Y-128696784D01*
X138579624Y-128532812D01*
X138545000Y-128358741D01*
X138545000Y-128181259D01*
X138579624Y-128007188D01*
X138647544Y-127843216D01*
X138746147Y-127695646D01*
X138871646Y-127570147D01*
X139019216Y-127471544D01*
X139183188Y-127403624D01*
X139332488Y-127373927D01*
X139357258Y-127369000D01*
X139534742Y-127369000D01*
X139559512Y-127373927D01*
G37*
G36*
X137019512Y-124833927D02*
G01*
X137168812Y-124863624D01*
X137332784Y-124931544D01*
X137480354Y-125030147D01*
X137605853Y-125155646D01*
X137704456Y-125303216D01*
X137772376Y-125467188D01*
X137807000Y-125641259D01*
X137807000Y-125818741D01*
X137772376Y-125992812D01*
X137704456Y-126156784D01*
X137605853Y-126304354D01*
X137480354Y-126429853D01*
X137332784Y-126528456D01*
X137168812Y-126596376D01*
X137019512Y-126626073D01*
X136994742Y-126631000D01*
X136817258Y-126631000D01*
X136792488Y-126626073D01*
X136643188Y-126596376D01*
X136479216Y-126528456D01*
X136331646Y-126429853D01*
X136206147Y-126304354D01*
X136107544Y-126156784D01*
X136039624Y-125992812D01*
X136005000Y-125818741D01*
X136005000Y-125641259D01*
X136039624Y-125467188D01*
X136107544Y-125303216D01*
X136206147Y-125155646D01*
X136331646Y-125030147D01*
X136479216Y-124931544D01*
X136643188Y-124863624D01*
X136792488Y-124833927D01*
X136817258Y-124829000D01*
X136994742Y-124829000D01*
X137019512Y-124833927D01*
G37*
G36*
X139559512Y-124833927D02*
G01*
X139708812Y-124863624D01*
X139872784Y-124931544D01*
X140020354Y-125030147D01*
X140145853Y-125155646D01*
X140244456Y-125303216D01*
X140312376Y-125467188D01*
X140347000Y-125641259D01*
X140347000Y-125818741D01*
X140312376Y-125992812D01*
X140244456Y-126156784D01*
X140145853Y-126304354D01*
X140020354Y-126429853D01*
X139872784Y-126528456D01*
X139708812Y-126596376D01*
X139559512Y-126626073D01*
X139534742Y-126631000D01*
X139357258Y-126631000D01*
X139332488Y-126626073D01*
X139183188Y-126596376D01*
X139019216Y-126528456D01*
X138871646Y-126429853D01*
X138746147Y-126304354D01*
X138647544Y-126156784D01*
X138579624Y-125992812D01*
X138545000Y-125818741D01*
X138545000Y-125641259D01*
X138579624Y-125467188D01*
X138647544Y-125303216D01*
X138746147Y-125155646D01*
X138871646Y-125030147D01*
X139019216Y-124931544D01*
X139183188Y-124863624D01*
X139332488Y-124833927D01*
X139357258Y-124829000D01*
X139534742Y-124829000D01*
X139559512Y-124833927D01*
G37*
G36*
X119105642Y-123435781D02*
G01*
X119251414Y-123496162D01*
X119251416Y-123496163D01*
X119382608Y-123583822D01*
X119494178Y-123695392D01*
X119581837Y-123826584D01*
X119581838Y-123826586D01*
X119642219Y-123972358D01*
X119673000Y-124127107D01*
X119673000Y-124284893D01*
X119642219Y-124439642D01*
X119581838Y-124585414D01*
X119581837Y-124585416D01*
X119494178Y-124716608D01*
X119382608Y-124828178D01*
X119251416Y-124915837D01*
X119251415Y-124915838D01*
X119251414Y-124915838D01*
X119105642Y-124976219D01*
X118950893Y-125007000D01*
X118793107Y-125007000D01*
X118638358Y-124976219D01*
X118492586Y-124915838D01*
X118492585Y-124915838D01*
X118492584Y-124915837D01*
X118361392Y-124828178D01*
X118249822Y-124716608D01*
X118162163Y-124585416D01*
X118162162Y-124585414D01*
X118101781Y-124439642D01*
X118071000Y-124284893D01*
X118071000Y-124127107D01*
X118101781Y-123972358D01*
X118162162Y-123826586D01*
X118162163Y-123826584D01*
X118249822Y-123695392D01*
X118361392Y-123583822D01*
X118492584Y-123496163D01*
X118492586Y-123496162D01*
X118638358Y-123435781D01*
X118793107Y-123405000D01*
X118950893Y-123405000D01*
X119105642Y-123435781D01*
G37*
G36*
X207557000Y-125007000D02*
G01*
X205955000Y-125007000D01*
X205955000Y-123405000D01*
X207557000Y-123405000D01*
X207557000Y-125007000D01*
G37*
G36*
X204449642Y-123435781D02*
G01*
X204595414Y-123496162D01*
X204595416Y-123496163D01*
X204726608Y-123583822D01*
X204838178Y-123695392D01*
X204925837Y-123826584D01*
X204925838Y-123826586D01*
X204986219Y-123972358D01*
X205017000Y-124127107D01*
X205017000Y-124284893D01*
X204986219Y-124439642D01*
X204925838Y-124585414D01*
X204925837Y-124585416D01*
X204838178Y-124716608D01*
X204726608Y-124828178D01*
X204595416Y-124915837D01*
X204595415Y-124915838D01*
X204595414Y-124915838D01*
X204449642Y-124976219D01*
X204294893Y-125007000D01*
X204137107Y-125007000D01*
X203982358Y-124976219D01*
X203836586Y-124915838D01*
X203836585Y-124915838D01*
X203836584Y-124915837D01*
X203705392Y-124828178D01*
X203593822Y-124716608D01*
X203506163Y-124585416D01*
X203506162Y-124585414D01*
X203445781Y-124439642D01*
X203415000Y-124284893D01*
X203415000Y-124127107D01*
X203445781Y-123972358D01*
X203506162Y-123826586D01*
X203506163Y-123826584D01*
X203593822Y-123695392D01*
X203705392Y-123583822D01*
X203836584Y-123496163D01*
X203836586Y-123496162D01*
X203982358Y-123435781D01*
X204137107Y-123405000D01*
X204294893Y-123405000D01*
X204449642Y-123435781D01*
G37*
G36*
X201909642Y-123435781D02*
G01*
X202055414Y-123496162D01*
X202055416Y-123496163D01*
X202186608Y-123583822D01*
X202298178Y-123695392D01*
X202385837Y-123826584D01*
X202385838Y-123826586D01*
X202446219Y-123972358D01*
X202477000Y-124127107D01*
X202477000Y-124284893D01*
X202446219Y-124439642D01*
X202385838Y-124585414D01*
X202385837Y-124585416D01*
X202298178Y-124716608D01*
X202186608Y-124828178D01*
X202055416Y-124915837D01*
X202055415Y-124915838D01*
X202055414Y-124915838D01*
X201909642Y-124976219D01*
X201754893Y-125007000D01*
X201597107Y-125007000D01*
X201442358Y-124976219D01*
X201296586Y-124915838D01*
X201296585Y-124915838D01*
X201296584Y-124915837D01*
X201165392Y-124828178D01*
X201053822Y-124716608D01*
X200966163Y-124585416D01*
X200966162Y-124585414D01*
X200905781Y-124439642D01*
X200875000Y-124284893D01*
X200875000Y-124127107D01*
X200905781Y-123972358D01*
X200966162Y-123826586D01*
X200966163Y-123826584D01*
X201053822Y-123695392D01*
X201165392Y-123583822D01*
X201296584Y-123496163D01*
X201296586Y-123496162D01*
X201442358Y-123435781D01*
X201597107Y-123405000D01*
X201754893Y-123405000D01*
X201909642Y-123435781D01*
G37*
G36*
X76179642Y-123435781D02*
G01*
X76325414Y-123496162D01*
X76325416Y-123496163D01*
X76456608Y-123583822D01*
X76568178Y-123695392D01*
X76655837Y-123826584D01*
X76655838Y-123826586D01*
X76716219Y-123972358D01*
X76747000Y-124127107D01*
X76747000Y-124284893D01*
X76716219Y-124439642D01*
X76655838Y-124585414D01*
X76655837Y-124585416D01*
X76568178Y-124716608D01*
X76456608Y-124828178D01*
X76325416Y-124915837D01*
X76325415Y-124915838D01*
X76325414Y-124915838D01*
X76179642Y-124976219D01*
X76024893Y-125007000D01*
X75867107Y-125007000D01*
X75712358Y-124976219D01*
X75566586Y-124915838D01*
X75566585Y-124915838D01*
X75566584Y-124915837D01*
X75435392Y-124828178D01*
X75323822Y-124716608D01*
X75236163Y-124585416D01*
X75236162Y-124585414D01*
X75175781Y-124439642D01*
X75145000Y-124284893D01*
X75145000Y-124127107D01*
X75175781Y-123972358D01*
X75236162Y-123826586D01*
X75236163Y-123826584D01*
X75323822Y-123695392D01*
X75435392Y-123583822D01*
X75566584Y-123496163D01*
X75566586Y-123496162D01*
X75712358Y-123435781D01*
X75867107Y-123405000D01*
X76024893Y-123405000D01*
X76179642Y-123435781D01*
G37*
G36*
X79287000Y-125007000D02*
G01*
X77685000Y-125007000D01*
X77685000Y-123405000D01*
X79287000Y-123405000D01*
X79287000Y-125007000D01*
G37*
G36*
X114025642Y-123435781D02*
G01*
X114171414Y-123496162D01*
X114171416Y-123496163D01*
X114302608Y-123583822D01*
X114414178Y-123695392D01*
X114501837Y-123826584D01*
X114501838Y-123826586D01*
X114562219Y-123972358D01*
X114593000Y-124127107D01*
X114593000Y-124284893D01*
X114562219Y-124439642D01*
X114501838Y-124585414D01*
X114501837Y-124585416D01*
X114414178Y-124716608D01*
X114302608Y-124828178D01*
X114171416Y-124915837D01*
X114171415Y-124915838D01*
X114171414Y-124915838D01*
X114025642Y-124976219D01*
X113870893Y-125007000D01*
X113713107Y-125007000D01*
X113558358Y-124976219D01*
X113412586Y-124915838D01*
X113412585Y-124915838D01*
X113412584Y-124915837D01*
X113281392Y-124828178D01*
X113169822Y-124716608D01*
X113082163Y-124585416D01*
X113082162Y-124585414D01*
X113021781Y-124439642D01*
X112991000Y-124284893D01*
X112991000Y-124127107D01*
X113021781Y-123972358D01*
X113082162Y-123826586D01*
X113082163Y-123826584D01*
X113169822Y-123695392D01*
X113281392Y-123583822D01*
X113412584Y-123496163D01*
X113412586Y-123496162D01*
X113558358Y-123435781D01*
X113713107Y-123405000D01*
X113870893Y-123405000D01*
X114025642Y-123435781D01*
G37*
G36*
X73639642Y-123435781D02*
G01*
X73785414Y-123496162D01*
X73785416Y-123496163D01*
X73916608Y-123583822D01*
X74028178Y-123695392D01*
X74115837Y-123826584D01*
X74115838Y-123826586D01*
X74176219Y-123972358D01*
X74207000Y-124127107D01*
X74207000Y-124284893D01*
X74176219Y-124439642D01*
X74115838Y-124585414D01*
X74115837Y-124585416D01*
X74028178Y-124716608D01*
X73916608Y-124828178D01*
X73785416Y-124915837D01*
X73785415Y-124915838D01*
X73785414Y-124915838D01*
X73639642Y-124976219D01*
X73484893Y-125007000D01*
X73327107Y-125007000D01*
X73172358Y-124976219D01*
X73026586Y-124915838D01*
X73026585Y-124915838D01*
X73026584Y-124915837D01*
X72895392Y-124828178D01*
X72783822Y-124716608D01*
X72696163Y-124585416D01*
X72696162Y-124585414D01*
X72635781Y-124439642D01*
X72605000Y-124284893D01*
X72605000Y-124127107D01*
X72635781Y-123972358D01*
X72696162Y-123826586D01*
X72696163Y-123826584D01*
X72783822Y-123695392D01*
X72895392Y-123583822D01*
X73026584Y-123496163D01*
X73026586Y-123496162D01*
X73172358Y-123435781D01*
X73327107Y-123405000D01*
X73484893Y-123405000D01*
X73639642Y-123435781D01*
G37*
G36*
X71099642Y-123435781D02*
G01*
X71245414Y-123496162D01*
X71245416Y-123496163D01*
X71376608Y-123583822D01*
X71488178Y-123695392D01*
X71575837Y-123826584D01*
X71575838Y-123826586D01*
X71636219Y-123972358D01*
X71667000Y-124127107D01*
X71667000Y-124284893D01*
X71636219Y-124439642D01*
X71575838Y-124585414D01*
X71575837Y-124585416D01*
X71488178Y-124716608D01*
X71376608Y-124828178D01*
X71245416Y-124915837D01*
X71245415Y-124915838D01*
X71245414Y-124915838D01*
X71099642Y-124976219D01*
X70944893Y-125007000D01*
X70787107Y-125007000D01*
X70632358Y-124976219D01*
X70486586Y-124915838D01*
X70486585Y-124915838D01*
X70486584Y-124915837D01*
X70355392Y-124828178D01*
X70243822Y-124716608D01*
X70156163Y-124585416D01*
X70156162Y-124585414D01*
X70095781Y-124439642D01*
X70065000Y-124284893D01*
X70065000Y-124127107D01*
X70095781Y-123972358D01*
X70156162Y-123826586D01*
X70156163Y-123826584D01*
X70243822Y-123695392D01*
X70355392Y-123583822D01*
X70486584Y-123496163D01*
X70486586Y-123496162D01*
X70632358Y-123435781D01*
X70787107Y-123405000D01*
X70944893Y-123405000D01*
X71099642Y-123435781D01*
G37*
G36*
X116565642Y-123435781D02*
G01*
X116711414Y-123496162D01*
X116711416Y-123496163D01*
X116842608Y-123583822D01*
X116954178Y-123695392D01*
X117041837Y-123826584D01*
X117041838Y-123826586D01*
X117102219Y-123972358D01*
X117133000Y-124127107D01*
X117133000Y-124284893D01*
X117102219Y-124439642D01*
X117041838Y-124585414D01*
X117041837Y-124585416D01*
X116954178Y-124716608D01*
X116842608Y-124828178D01*
X116711416Y-124915837D01*
X116711415Y-124915838D01*
X116711414Y-124915838D01*
X116565642Y-124976219D01*
X116410893Y-125007000D01*
X116253107Y-125007000D01*
X116098358Y-124976219D01*
X115952586Y-124915838D01*
X115952585Y-124915838D01*
X115952584Y-124915837D01*
X115821392Y-124828178D01*
X115709822Y-124716608D01*
X115622163Y-124585416D01*
X115622162Y-124585414D01*
X115561781Y-124439642D01*
X115531000Y-124284893D01*
X115531000Y-124127107D01*
X115561781Y-123972358D01*
X115622162Y-123826586D01*
X115622163Y-123826584D01*
X115709822Y-123695392D01*
X115821392Y-123583822D01*
X115952584Y-123496163D01*
X115952586Y-123496162D01*
X116098358Y-123435781D01*
X116253107Y-123405000D01*
X116410893Y-123405000D01*
X116565642Y-123435781D01*
G37*
G36*
X156697642Y-123435781D02*
G01*
X156843414Y-123496162D01*
X156843416Y-123496163D01*
X156974608Y-123583822D01*
X157086178Y-123695392D01*
X157173837Y-123826584D01*
X157173838Y-123826586D01*
X157234219Y-123972358D01*
X157265000Y-124127107D01*
X157265000Y-124284893D01*
X157234219Y-124439642D01*
X157173838Y-124585414D01*
X157173837Y-124585416D01*
X157086178Y-124716608D01*
X156974608Y-124828178D01*
X156843416Y-124915837D01*
X156843415Y-124915838D01*
X156843414Y-124915838D01*
X156697642Y-124976219D01*
X156542893Y-125007000D01*
X156385107Y-125007000D01*
X156230358Y-124976219D01*
X156084586Y-124915838D01*
X156084585Y-124915838D01*
X156084584Y-124915837D01*
X155953392Y-124828178D01*
X155841822Y-124716608D01*
X155754163Y-124585416D01*
X155754162Y-124585414D01*
X155693781Y-124439642D01*
X155663000Y-124284893D01*
X155663000Y-124127107D01*
X155693781Y-123972358D01*
X155754162Y-123826586D01*
X155754163Y-123826584D01*
X155841822Y-123695392D01*
X155953392Y-123583822D01*
X156084584Y-123496163D01*
X156084586Y-123496162D01*
X156230358Y-123435781D01*
X156385107Y-123405000D01*
X156542893Y-123405000D01*
X156697642Y-123435781D01*
G37*
G36*
X159237642Y-123435781D02*
G01*
X159383414Y-123496162D01*
X159383416Y-123496163D01*
X159514608Y-123583822D01*
X159626178Y-123695392D01*
X159713837Y-123826584D01*
X159713838Y-123826586D01*
X159774219Y-123972358D01*
X159805000Y-124127107D01*
X159805000Y-124284893D01*
X159774219Y-124439642D01*
X159713838Y-124585414D01*
X159713837Y-124585416D01*
X159626178Y-124716608D01*
X159514608Y-124828178D01*
X159383416Y-124915837D01*
X159383415Y-124915838D01*
X159383414Y-124915838D01*
X159237642Y-124976219D01*
X159082893Y-125007000D01*
X158925107Y-125007000D01*
X158770358Y-124976219D01*
X158624586Y-124915838D01*
X158624585Y-124915838D01*
X158624584Y-124915837D01*
X158493392Y-124828178D01*
X158381822Y-124716608D01*
X158294163Y-124585416D01*
X158294162Y-124585414D01*
X158233781Y-124439642D01*
X158203000Y-124284893D01*
X158203000Y-124127107D01*
X158233781Y-123972358D01*
X158294162Y-123826586D01*
X158294163Y-123826584D01*
X158381822Y-123695392D01*
X158493392Y-123583822D01*
X158624584Y-123496163D01*
X158624586Y-123496162D01*
X158770358Y-123435781D01*
X158925107Y-123405000D01*
X159082893Y-123405000D01*
X159237642Y-123435781D01*
G37*
G36*
X122213000Y-125007000D02*
G01*
X120611000Y-125007000D01*
X120611000Y-123405000D01*
X122213000Y-123405000D01*
X122213000Y-125007000D01*
G37*
G36*
X199369642Y-123435781D02*
G01*
X199515414Y-123496162D01*
X199515416Y-123496163D01*
X199646608Y-123583822D01*
X199758178Y-123695392D01*
X199845837Y-123826584D01*
X199845838Y-123826586D01*
X199906219Y-123972358D01*
X199937000Y-124127107D01*
X199937000Y-124284893D01*
X199906219Y-124439642D01*
X199845838Y-124585414D01*
X199845837Y-124585416D01*
X199758178Y-124716608D01*
X199646608Y-124828178D01*
X199515416Y-124915837D01*
X199515415Y-124915838D01*
X199515414Y-124915838D01*
X199369642Y-124976219D01*
X199214893Y-125007000D01*
X199057107Y-125007000D01*
X198902358Y-124976219D01*
X198756586Y-124915838D01*
X198756585Y-124915838D01*
X198756584Y-124915837D01*
X198625392Y-124828178D01*
X198513822Y-124716608D01*
X198426163Y-124585416D01*
X198426162Y-124585414D01*
X198365781Y-124439642D01*
X198335000Y-124284893D01*
X198335000Y-124127107D01*
X198365781Y-123972358D01*
X198426162Y-123826586D01*
X198426163Y-123826584D01*
X198513822Y-123695392D01*
X198625392Y-123583822D01*
X198756584Y-123496163D01*
X198756586Y-123496162D01*
X198902358Y-123435781D01*
X199057107Y-123405000D01*
X199214893Y-123405000D01*
X199369642Y-123435781D01*
G37*
G36*
X164885000Y-125007000D02*
G01*
X163283000Y-125007000D01*
X163283000Y-123405000D01*
X164885000Y-123405000D01*
X164885000Y-125007000D01*
G37*
G36*
X161777642Y-123435781D02*
G01*
X161923414Y-123496162D01*
X161923416Y-123496163D01*
X162054608Y-123583822D01*
X162166178Y-123695392D01*
X162253837Y-123826584D01*
X162253838Y-123826586D01*
X162314219Y-123972358D01*
X162345000Y-124127107D01*
X162345000Y-124284893D01*
X162314219Y-124439642D01*
X162253838Y-124585414D01*
X162253837Y-124585416D01*
X162166178Y-124716608D01*
X162054608Y-124828178D01*
X161923416Y-124915837D01*
X161923415Y-124915838D01*
X161923414Y-124915838D01*
X161777642Y-124976219D01*
X161622893Y-125007000D01*
X161465107Y-125007000D01*
X161310358Y-124976219D01*
X161164586Y-124915838D01*
X161164585Y-124915838D01*
X161164584Y-124915837D01*
X161033392Y-124828178D01*
X160921822Y-124716608D01*
X160834163Y-124585416D01*
X160834162Y-124585414D01*
X160773781Y-124439642D01*
X160743000Y-124284893D01*
X160743000Y-124127107D01*
X160773781Y-123972358D01*
X160834162Y-123826586D01*
X160834163Y-123826584D01*
X160921822Y-123695392D01*
X161033392Y-123583822D01*
X161164584Y-123496163D01*
X161164586Y-123496162D01*
X161310358Y-123435781D01*
X161465107Y-123405000D01*
X161622893Y-123405000D01*
X161777642Y-123435781D01*
G37*
G36*
X139559512Y-122293927D02*
G01*
X139708812Y-122323624D01*
X139872784Y-122391544D01*
X140020354Y-122490147D01*
X140145853Y-122615646D01*
X140244456Y-122763216D01*
X140312376Y-122927188D01*
X140347000Y-123101259D01*
X140347000Y-123278741D01*
X140312376Y-123452812D01*
X140244456Y-123616784D01*
X140145853Y-123764354D01*
X140020354Y-123889853D01*
X139872784Y-123988456D01*
X139708812Y-124056376D01*
X139559512Y-124086073D01*
X139534742Y-124091000D01*
X139357258Y-124091000D01*
X139332488Y-124086073D01*
X139183188Y-124056376D01*
X139019216Y-123988456D01*
X138871646Y-123889853D01*
X138746147Y-123764354D01*
X138647544Y-123616784D01*
X138579624Y-123452812D01*
X138545000Y-123278741D01*
X138545000Y-123101259D01*
X138579624Y-122927188D01*
X138647544Y-122763216D01*
X138746147Y-122615646D01*
X138871646Y-122490147D01*
X139019216Y-122391544D01*
X139183188Y-122323624D01*
X139332488Y-122293927D01*
X139357258Y-122289000D01*
X139534742Y-122289000D01*
X139559512Y-122293927D01*
G37*
G36*
X137019512Y-122293927D02*
G01*
X137168812Y-122323624D01*
X137332784Y-122391544D01*
X137480354Y-122490147D01*
X137605853Y-122615646D01*
X137704456Y-122763216D01*
X137772376Y-122927188D01*
X137807000Y-123101259D01*
X137807000Y-123278741D01*
X137772376Y-123452812D01*
X137704456Y-123616784D01*
X137605853Y-123764354D01*
X137480354Y-123889853D01*
X137332784Y-123988456D01*
X137168812Y-124056376D01*
X137019512Y-124086073D01*
X136994742Y-124091000D01*
X136817258Y-124091000D01*
X136792488Y-124086073D01*
X136643188Y-124056376D01*
X136479216Y-123988456D01*
X136331646Y-123889853D01*
X136206147Y-123764354D01*
X136107544Y-123616784D01*
X136039624Y-123452812D01*
X136005000Y-123278741D01*
X136005000Y-123101259D01*
X136039624Y-122927188D01*
X136107544Y-122763216D01*
X136206147Y-122615646D01*
X136331646Y-122490147D01*
X136479216Y-122391544D01*
X136643188Y-122323624D01*
X136792488Y-122293927D01*
X136817258Y-122289000D01*
X136994742Y-122289000D01*
X137019512Y-122293927D01*
G37*
G36*
X132190500Y-123129000D02*
G01*
X131613500Y-123129000D01*
X131613500Y-121727000D01*
X132190500Y-121727000D01*
X132190500Y-123129000D01*
G37*
G36*
X130514500Y-123129000D02*
G01*
X129937500Y-123129000D01*
X129937500Y-121727000D01*
X130514500Y-121727000D01*
X130514500Y-123129000D01*
G37*
G36*
X115295642Y-120895781D02*
G01*
X115441414Y-120956162D01*
X115441416Y-120956163D01*
X115572608Y-121043822D01*
X115684178Y-121155392D01*
X115771837Y-121286584D01*
X115771838Y-121286586D01*
X115832219Y-121432358D01*
X115863000Y-121587107D01*
X115863000Y-121744893D01*
X115832219Y-121899642D01*
X115771838Y-122045414D01*
X115771837Y-122045416D01*
X115684178Y-122176608D01*
X115572608Y-122288178D01*
X115441416Y-122375837D01*
X115441415Y-122375838D01*
X115441414Y-122375838D01*
X115295642Y-122436219D01*
X115140893Y-122467000D01*
X114983107Y-122467000D01*
X114828358Y-122436219D01*
X114682586Y-122375838D01*
X114682585Y-122375838D01*
X114682584Y-122375837D01*
X114551392Y-122288178D01*
X114439822Y-122176608D01*
X114352163Y-122045416D01*
X114352162Y-122045414D01*
X114291781Y-121899642D01*
X114261000Y-121744893D01*
X114261000Y-121587107D01*
X114291781Y-121432358D01*
X114352162Y-121286586D01*
X114352163Y-121286584D01*
X114439822Y-121155392D01*
X114551392Y-121043822D01*
X114682584Y-120956163D01*
X114682586Y-120956162D01*
X114828358Y-120895781D01*
X114983107Y-120865000D01*
X115140893Y-120865000D01*
X115295642Y-120895781D01*
G37*
G36*
X120375642Y-120895781D02*
G01*
X120521414Y-120956162D01*
X120521416Y-120956163D01*
X120652608Y-121043822D01*
X120764178Y-121155392D01*
X120851837Y-121286584D01*
X120851838Y-121286586D01*
X120912219Y-121432358D01*
X120943000Y-121587107D01*
X120943000Y-121744893D01*
X120912219Y-121899642D01*
X120851838Y-122045414D01*
X120851837Y-122045416D01*
X120764178Y-122176608D01*
X120652608Y-122288178D01*
X120521416Y-122375837D01*
X120521415Y-122375838D01*
X120521414Y-122375838D01*
X120375642Y-122436219D01*
X120220893Y-122467000D01*
X120063107Y-122467000D01*
X119908358Y-122436219D01*
X119762586Y-122375838D01*
X119762585Y-122375838D01*
X119762584Y-122375837D01*
X119631392Y-122288178D01*
X119519822Y-122176608D01*
X119432163Y-122045416D01*
X119432162Y-122045414D01*
X119371781Y-121899642D01*
X119341000Y-121744893D01*
X119341000Y-121587107D01*
X119371781Y-121432358D01*
X119432162Y-121286586D01*
X119432163Y-121286584D01*
X119519822Y-121155392D01*
X119631392Y-121043822D01*
X119762584Y-120956163D01*
X119762586Y-120956162D01*
X119908358Y-120895781D01*
X120063107Y-120865000D01*
X120220893Y-120865000D01*
X120375642Y-120895781D01*
G37*
G36*
X117835642Y-120895781D02*
G01*
X117981414Y-120956162D01*
X117981416Y-120956163D01*
X118112608Y-121043822D01*
X118224178Y-121155392D01*
X118311837Y-121286584D01*
X118311838Y-121286586D01*
X118372219Y-121432358D01*
X118403000Y-121587107D01*
X118403000Y-121744893D01*
X118372219Y-121899642D01*
X118311838Y-122045414D01*
X118311837Y-122045416D01*
X118224178Y-122176608D01*
X118112608Y-122288178D01*
X117981416Y-122375837D01*
X117981415Y-122375838D01*
X117981414Y-122375838D01*
X117835642Y-122436219D01*
X117680893Y-122467000D01*
X117523107Y-122467000D01*
X117368358Y-122436219D01*
X117222586Y-122375838D01*
X117222585Y-122375838D01*
X117222584Y-122375837D01*
X117091392Y-122288178D01*
X116979822Y-122176608D01*
X116892163Y-122045416D01*
X116892162Y-122045414D01*
X116831781Y-121899642D01*
X116801000Y-121744893D01*
X116801000Y-121587107D01*
X116831781Y-121432358D01*
X116892162Y-121286586D01*
X116892163Y-121286584D01*
X116979822Y-121155392D01*
X117091392Y-121043822D01*
X117222584Y-120956163D01*
X117222586Y-120956162D01*
X117368358Y-120895781D01*
X117523107Y-120865000D01*
X117680893Y-120865000D01*
X117835642Y-120895781D01*
G37*
G36*
X203179642Y-120895781D02*
G01*
X203325414Y-120956162D01*
X203325416Y-120956163D01*
X203456608Y-121043822D01*
X203568178Y-121155392D01*
X203655837Y-121286584D01*
X203655838Y-121286586D01*
X203716219Y-121432358D01*
X203747000Y-121587107D01*
X203747000Y-121744893D01*
X203716219Y-121899642D01*
X203655838Y-122045414D01*
X203655837Y-122045416D01*
X203568178Y-122176608D01*
X203456608Y-122288178D01*
X203325416Y-122375837D01*
X203325415Y-122375838D01*
X203325414Y-122375838D01*
X203179642Y-122436219D01*
X203024893Y-122467000D01*
X202867107Y-122467000D01*
X202712358Y-122436219D01*
X202566586Y-122375838D01*
X202566585Y-122375838D01*
X202566584Y-122375837D01*
X202435392Y-122288178D01*
X202323822Y-122176608D01*
X202236163Y-122045416D01*
X202236162Y-122045414D01*
X202175781Y-121899642D01*
X202145000Y-121744893D01*
X202145000Y-121587107D01*
X202175781Y-121432358D01*
X202236162Y-121286586D01*
X202236163Y-121286584D01*
X202323822Y-121155392D01*
X202435392Y-121043822D01*
X202566584Y-120956163D01*
X202566586Y-120956162D01*
X202712358Y-120895781D01*
X202867107Y-120865000D01*
X203024893Y-120865000D01*
X203179642Y-120895781D01*
G37*
G36*
X163047642Y-120895781D02*
G01*
X163193414Y-120956162D01*
X163193416Y-120956163D01*
X163324608Y-121043822D01*
X163436178Y-121155392D01*
X163523837Y-121286584D01*
X163523838Y-121286586D01*
X163584219Y-121432358D01*
X163615000Y-121587107D01*
X163615000Y-121744893D01*
X163584219Y-121899642D01*
X163523838Y-122045414D01*
X163523837Y-122045416D01*
X163436178Y-122176608D01*
X163324608Y-122288178D01*
X163193416Y-122375837D01*
X163193415Y-122375838D01*
X163193414Y-122375838D01*
X163047642Y-122436219D01*
X162892893Y-122467000D01*
X162735107Y-122467000D01*
X162580358Y-122436219D01*
X162434586Y-122375838D01*
X162434585Y-122375838D01*
X162434584Y-122375837D01*
X162303392Y-122288178D01*
X162191822Y-122176608D01*
X162104163Y-122045416D01*
X162104162Y-122045414D01*
X162043781Y-121899642D01*
X162013000Y-121744893D01*
X162013000Y-121587107D01*
X162043781Y-121432358D01*
X162104162Y-121286586D01*
X162104163Y-121286584D01*
X162191822Y-121155392D01*
X162303392Y-121043822D01*
X162434584Y-120956163D01*
X162434586Y-120956162D01*
X162580358Y-120895781D01*
X162735107Y-120865000D01*
X162892893Y-120865000D01*
X163047642Y-120895781D01*
G37*
G36*
X160507642Y-120895781D02*
G01*
X160653414Y-120956162D01*
X160653416Y-120956163D01*
X160784608Y-121043822D01*
X160896178Y-121155392D01*
X160983837Y-121286584D01*
X160983838Y-121286586D01*
X161044219Y-121432358D01*
X161075000Y-121587107D01*
X161075000Y-121744893D01*
X161044219Y-121899642D01*
X160983838Y-122045414D01*
X160983837Y-122045416D01*
X160896178Y-122176608D01*
X160784608Y-122288178D01*
X160653416Y-122375837D01*
X160653415Y-122375838D01*
X160653414Y-122375838D01*
X160507642Y-122436219D01*
X160352893Y-122467000D01*
X160195107Y-122467000D01*
X160040358Y-122436219D01*
X159894586Y-122375838D01*
X159894585Y-122375838D01*
X159894584Y-122375837D01*
X159763392Y-122288178D01*
X159651822Y-122176608D01*
X159564163Y-122045416D01*
X159564162Y-122045414D01*
X159503781Y-121899642D01*
X159473000Y-121744893D01*
X159473000Y-121587107D01*
X159503781Y-121432358D01*
X159564162Y-121286586D01*
X159564163Y-121286584D01*
X159651822Y-121155392D01*
X159763392Y-121043822D01*
X159894584Y-120956163D01*
X159894586Y-120956162D01*
X160040358Y-120895781D01*
X160195107Y-120865000D01*
X160352893Y-120865000D01*
X160507642Y-120895781D01*
G37*
G36*
X200639642Y-120895781D02*
G01*
X200785414Y-120956162D01*
X200785416Y-120956163D01*
X200916608Y-121043822D01*
X201028178Y-121155392D01*
X201115837Y-121286584D01*
X201115838Y-121286586D01*
X201176219Y-121432358D01*
X201207000Y-121587107D01*
X201207000Y-121744893D01*
X201176219Y-121899642D01*
X201115838Y-122045414D01*
X201115837Y-122045416D01*
X201028178Y-122176608D01*
X200916608Y-122288178D01*
X200785416Y-122375837D01*
X200785415Y-122375838D01*
X200785414Y-122375838D01*
X200639642Y-122436219D01*
X200484893Y-122467000D01*
X200327107Y-122467000D01*
X200172358Y-122436219D01*
X200026586Y-122375838D01*
X200026585Y-122375838D01*
X200026584Y-122375837D01*
X199895392Y-122288178D01*
X199783822Y-122176608D01*
X199696163Y-122045416D01*
X199696162Y-122045414D01*
X199635781Y-121899642D01*
X199605000Y-121744893D01*
X199605000Y-121587107D01*
X199635781Y-121432358D01*
X199696162Y-121286586D01*
X199696163Y-121286584D01*
X199783822Y-121155392D01*
X199895392Y-121043822D01*
X200026584Y-120956163D01*
X200026586Y-120956162D01*
X200172358Y-120895781D01*
X200327107Y-120865000D01*
X200484893Y-120865000D01*
X200639642Y-120895781D01*
G37*
G36*
X157967642Y-120895781D02*
G01*
X158113414Y-120956162D01*
X158113416Y-120956163D01*
X158244608Y-121043822D01*
X158356178Y-121155392D01*
X158443837Y-121286584D01*
X158443838Y-121286586D01*
X158504219Y-121432358D01*
X158535000Y-121587107D01*
X158535000Y-121744893D01*
X158504219Y-121899642D01*
X158443838Y-122045414D01*
X158443837Y-122045416D01*
X158356178Y-122176608D01*
X158244608Y-122288178D01*
X158113416Y-122375837D01*
X158113415Y-122375838D01*
X158113414Y-122375838D01*
X157967642Y-122436219D01*
X157812893Y-122467000D01*
X157655107Y-122467000D01*
X157500358Y-122436219D01*
X157354586Y-122375838D01*
X157354585Y-122375838D01*
X157354584Y-122375837D01*
X157223392Y-122288178D01*
X157111822Y-122176608D01*
X157024163Y-122045416D01*
X157024162Y-122045414D01*
X156963781Y-121899642D01*
X156933000Y-121744893D01*
X156933000Y-121587107D01*
X156963781Y-121432358D01*
X157024162Y-121286586D01*
X157024163Y-121286584D01*
X157111822Y-121155392D01*
X157223392Y-121043822D01*
X157354584Y-120956163D01*
X157354586Y-120956162D01*
X157500358Y-120895781D01*
X157655107Y-120865000D01*
X157812893Y-120865000D01*
X157967642Y-120895781D01*
G37*
G36*
X155427642Y-120895781D02*
G01*
X155573414Y-120956162D01*
X155573416Y-120956163D01*
X155704608Y-121043822D01*
X155816178Y-121155392D01*
X155903837Y-121286584D01*
X155903838Y-121286586D01*
X155964219Y-121432358D01*
X155995000Y-121587107D01*
X155995000Y-121744893D01*
X155964219Y-121899642D01*
X155903838Y-122045414D01*
X155903837Y-122045416D01*
X155816178Y-122176608D01*
X155704608Y-122288178D01*
X155573416Y-122375837D01*
X155573415Y-122375838D01*
X155573414Y-122375838D01*
X155427642Y-122436219D01*
X155272893Y-122467000D01*
X155115107Y-122467000D01*
X154960358Y-122436219D01*
X154814586Y-122375838D01*
X154814585Y-122375838D01*
X154814584Y-122375837D01*
X154683392Y-122288178D01*
X154571822Y-122176608D01*
X154484163Y-122045416D01*
X154484162Y-122045414D01*
X154423781Y-121899642D01*
X154393000Y-121744893D01*
X154393000Y-121587107D01*
X154423781Y-121432358D01*
X154484162Y-121286586D01*
X154484163Y-121286584D01*
X154571822Y-121155392D01*
X154683392Y-121043822D01*
X154814584Y-120956163D01*
X154814586Y-120956162D01*
X154960358Y-120895781D01*
X155115107Y-120865000D01*
X155272893Y-120865000D01*
X155427642Y-120895781D01*
G37*
G36*
X198099642Y-120895781D02*
G01*
X198245414Y-120956162D01*
X198245416Y-120956163D01*
X198376608Y-121043822D01*
X198488178Y-121155392D01*
X198575837Y-121286584D01*
X198575838Y-121286586D01*
X198636219Y-121432358D01*
X198667000Y-121587107D01*
X198667000Y-121744893D01*
X198636219Y-121899642D01*
X198575838Y-122045414D01*
X198575837Y-122045416D01*
X198488178Y-122176608D01*
X198376608Y-122288178D01*
X198245416Y-122375837D01*
X198245415Y-122375838D01*
X198245414Y-122375838D01*
X198099642Y-122436219D01*
X197944893Y-122467000D01*
X197787107Y-122467000D01*
X197632358Y-122436219D01*
X197486586Y-122375838D01*
X197486585Y-122375838D01*
X197486584Y-122375837D01*
X197355392Y-122288178D01*
X197243822Y-122176608D01*
X197156163Y-122045416D01*
X197156162Y-122045414D01*
X197095781Y-121899642D01*
X197065000Y-121744893D01*
X197065000Y-121587107D01*
X197095781Y-121432358D01*
X197156162Y-121286586D01*
X197156163Y-121286584D01*
X197243822Y-121155392D01*
X197355392Y-121043822D01*
X197486584Y-120956163D01*
X197486586Y-120956162D01*
X197632358Y-120895781D01*
X197787107Y-120865000D01*
X197944893Y-120865000D01*
X198099642Y-120895781D01*
G37*
G36*
X69829642Y-120895781D02*
G01*
X69975414Y-120956162D01*
X69975416Y-120956163D01*
X70106608Y-121043822D01*
X70218178Y-121155392D01*
X70305837Y-121286584D01*
X70305838Y-121286586D01*
X70366219Y-121432358D01*
X70397000Y-121587107D01*
X70397000Y-121744893D01*
X70366219Y-121899642D01*
X70305838Y-122045414D01*
X70305837Y-122045416D01*
X70218178Y-122176608D01*
X70106608Y-122288178D01*
X69975416Y-122375837D01*
X69975415Y-122375838D01*
X69975414Y-122375838D01*
X69829642Y-122436219D01*
X69674893Y-122467000D01*
X69517107Y-122467000D01*
X69362358Y-122436219D01*
X69216586Y-122375838D01*
X69216585Y-122375838D01*
X69216584Y-122375837D01*
X69085392Y-122288178D01*
X68973822Y-122176608D01*
X68886163Y-122045416D01*
X68886162Y-122045414D01*
X68825781Y-121899642D01*
X68795000Y-121744893D01*
X68795000Y-121587107D01*
X68825781Y-121432358D01*
X68886162Y-121286586D01*
X68886163Y-121286584D01*
X68973822Y-121155392D01*
X69085392Y-121043822D01*
X69216584Y-120956163D01*
X69216586Y-120956162D01*
X69362358Y-120895781D01*
X69517107Y-120865000D01*
X69674893Y-120865000D01*
X69829642Y-120895781D01*
G37*
G36*
X77449642Y-120895781D02*
G01*
X77595414Y-120956162D01*
X77595416Y-120956163D01*
X77726608Y-121043822D01*
X77838178Y-121155392D01*
X77925837Y-121286584D01*
X77925838Y-121286586D01*
X77986219Y-121432358D01*
X78017000Y-121587107D01*
X78017000Y-121744893D01*
X77986219Y-121899642D01*
X77925838Y-122045414D01*
X77925837Y-122045416D01*
X77838178Y-122176608D01*
X77726608Y-122288178D01*
X77595416Y-122375837D01*
X77595415Y-122375838D01*
X77595414Y-122375838D01*
X77449642Y-122436219D01*
X77294893Y-122467000D01*
X77137107Y-122467000D01*
X76982358Y-122436219D01*
X76836586Y-122375838D01*
X76836585Y-122375838D01*
X76836584Y-122375837D01*
X76705392Y-122288178D01*
X76593822Y-122176608D01*
X76506163Y-122045416D01*
X76506162Y-122045414D01*
X76445781Y-121899642D01*
X76415000Y-121744893D01*
X76415000Y-121587107D01*
X76445781Y-121432358D01*
X76506162Y-121286586D01*
X76506163Y-121286584D01*
X76593822Y-121155392D01*
X76705392Y-121043822D01*
X76836584Y-120956163D01*
X76836586Y-120956162D01*
X76982358Y-120895781D01*
X77137107Y-120865000D01*
X77294893Y-120865000D01*
X77449642Y-120895781D01*
G37*
G36*
X72369642Y-120895781D02*
G01*
X72515414Y-120956162D01*
X72515416Y-120956163D01*
X72646608Y-121043822D01*
X72758178Y-121155392D01*
X72845837Y-121286584D01*
X72845838Y-121286586D01*
X72906219Y-121432358D01*
X72937000Y-121587107D01*
X72937000Y-121744893D01*
X72906219Y-121899642D01*
X72845838Y-122045414D01*
X72845837Y-122045416D01*
X72758178Y-122176608D01*
X72646608Y-122288178D01*
X72515416Y-122375837D01*
X72515415Y-122375838D01*
X72515414Y-122375838D01*
X72369642Y-122436219D01*
X72214893Y-122467000D01*
X72057107Y-122467000D01*
X71902358Y-122436219D01*
X71756586Y-122375838D01*
X71756585Y-122375838D01*
X71756584Y-122375837D01*
X71625392Y-122288178D01*
X71513822Y-122176608D01*
X71426163Y-122045416D01*
X71426162Y-122045414D01*
X71365781Y-121899642D01*
X71335000Y-121744893D01*
X71335000Y-121587107D01*
X71365781Y-121432358D01*
X71426162Y-121286586D01*
X71426163Y-121286584D01*
X71513822Y-121155392D01*
X71625392Y-121043822D01*
X71756584Y-120956163D01*
X71756586Y-120956162D01*
X71902358Y-120895781D01*
X72057107Y-120865000D01*
X72214893Y-120865000D01*
X72369642Y-120895781D01*
G37*
G36*
X112755642Y-120895781D02*
G01*
X112901414Y-120956162D01*
X112901416Y-120956163D01*
X113032608Y-121043822D01*
X113144178Y-121155392D01*
X113231837Y-121286584D01*
X113231838Y-121286586D01*
X113292219Y-121432358D01*
X113323000Y-121587107D01*
X113323000Y-121744893D01*
X113292219Y-121899642D01*
X113231838Y-122045414D01*
X113231837Y-122045416D01*
X113144178Y-122176608D01*
X113032608Y-122288178D01*
X112901416Y-122375837D01*
X112901415Y-122375838D01*
X112901414Y-122375838D01*
X112755642Y-122436219D01*
X112600893Y-122467000D01*
X112443107Y-122467000D01*
X112288358Y-122436219D01*
X112142586Y-122375838D01*
X112142585Y-122375838D01*
X112142584Y-122375837D01*
X112011392Y-122288178D01*
X111899822Y-122176608D01*
X111812163Y-122045416D01*
X111812162Y-122045414D01*
X111751781Y-121899642D01*
X111721000Y-121744893D01*
X111721000Y-121587107D01*
X111751781Y-121432358D01*
X111812162Y-121286586D01*
X111812163Y-121286584D01*
X111899822Y-121155392D01*
X112011392Y-121043822D01*
X112142584Y-120956163D01*
X112142586Y-120956162D01*
X112288358Y-120895781D01*
X112443107Y-120865000D01*
X112600893Y-120865000D01*
X112755642Y-120895781D01*
G37*
G36*
X74909642Y-120895781D02*
G01*
X75055414Y-120956162D01*
X75055416Y-120956163D01*
X75186608Y-121043822D01*
X75298178Y-121155392D01*
X75385837Y-121286584D01*
X75385838Y-121286586D01*
X75446219Y-121432358D01*
X75477000Y-121587107D01*
X75477000Y-121744893D01*
X75446219Y-121899642D01*
X75385838Y-122045414D01*
X75385837Y-122045416D01*
X75298178Y-122176608D01*
X75186608Y-122288178D01*
X75055416Y-122375837D01*
X75055415Y-122375838D01*
X75055414Y-122375838D01*
X74909642Y-122436219D01*
X74754893Y-122467000D01*
X74597107Y-122467000D01*
X74442358Y-122436219D01*
X74296586Y-122375838D01*
X74296585Y-122375838D01*
X74296584Y-122375837D01*
X74165392Y-122288178D01*
X74053822Y-122176608D01*
X73966163Y-122045416D01*
X73966162Y-122045414D01*
X73905781Y-121899642D01*
X73875000Y-121744893D01*
X73875000Y-121587107D01*
X73905781Y-121432358D01*
X73966162Y-121286586D01*
X73966163Y-121286584D01*
X74053822Y-121155392D01*
X74165392Y-121043822D01*
X74296584Y-120956163D01*
X74296586Y-120956162D01*
X74442358Y-120895781D01*
X74597107Y-120865000D01*
X74754893Y-120865000D01*
X74909642Y-120895781D01*
G37*
G36*
X205719642Y-120895781D02*
G01*
X205865414Y-120956162D01*
X205865416Y-120956163D01*
X205996608Y-121043822D01*
X206108178Y-121155392D01*
X206195837Y-121286584D01*
X206195838Y-121286586D01*
X206256219Y-121432358D01*
X206287000Y-121587107D01*
X206287000Y-121744893D01*
X206256219Y-121899642D01*
X206195838Y-122045414D01*
X206195837Y-122045416D01*
X206108178Y-122176608D01*
X205996608Y-122288178D01*
X205865416Y-122375837D01*
X205865415Y-122375838D01*
X205865414Y-122375838D01*
X205719642Y-122436219D01*
X205564893Y-122467000D01*
X205407107Y-122467000D01*
X205252358Y-122436219D01*
X205106586Y-122375838D01*
X205106585Y-122375838D01*
X205106584Y-122375837D01*
X204975392Y-122288178D01*
X204863822Y-122176608D01*
X204776163Y-122045416D01*
X204776162Y-122045414D01*
X204715781Y-121899642D01*
X204685000Y-121744893D01*
X204685000Y-121587107D01*
X204715781Y-121432358D01*
X204776162Y-121286586D01*
X204776163Y-121286584D01*
X204863822Y-121155392D01*
X204975392Y-121043822D01*
X205106584Y-120956163D01*
X205106586Y-120956162D01*
X205252358Y-120895781D01*
X205407107Y-120865000D01*
X205564893Y-120865000D01*
X205719642Y-120895781D01*
G37*
G36*
X137019512Y-119753927D02*
G01*
X137168812Y-119783624D01*
X137332784Y-119851544D01*
X137480354Y-119950147D01*
X137605853Y-120075646D01*
X137704456Y-120223216D01*
X137772376Y-120387188D01*
X137807000Y-120561259D01*
X137807000Y-120738741D01*
X137772376Y-120912812D01*
X137704456Y-121076784D01*
X137605853Y-121224354D01*
X137480354Y-121349853D01*
X137332784Y-121448456D01*
X137168812Y-121516376D01*
X137019512Y-121546073D01*
X136994742Y-121551000D01*
X136817258Y-121551000D01*
X136792488Y-121546073D01*
X136643188Y-121516376D01*
X136479216Y-121448456D01*
X136331646Y-121349853D01*
X136206147Y-121224354D01*
X136107544Y-121076784D01*
X136039624Y-120912812D01*
X136005000Y-120738741D01*
X136005000Y-120561259D01*
X136039624Y-120387188D01*
X136107544Y-120223216D01*
X136206147Y-120075646D01*
X136331646Y-119950147D01*
X136479216Y-119851544D01*
X136643188Y-119783624D01*
X136792488Y-119753927D01*
X136817258Y-119749000D01*
X136994742Y-119749000D01*
X137019512Y-119753927D01*
G37*
G36*
X139559512Y-119753927D02*
G01*
X139708812Y-119783624D01*
X139872784Y-119851544D01*
X140020354Y-119950147D01*
X140145853Y-120075646D01*
X140244456Y-120223216D01*
X140312376Y-120387188D01*
X140347000Y-120561259D01*
X140347000Y-120738741D01*
X140312376Y-120912812D01*
X140244456Y-121076784D01*
X140145853Y-121224354D01*
X140020354Y-121349853D01*
X139872784Y-121448456D01*
X139708812Y-121516376D01*
X139559512Y-121546073D01*
X139534742Y-121551000D01*
X139357258Y-121551000D01*
X139332488Y-121546073D01*
X139183188Y-121516376D01*
X139019216Y-121448456D01*
X138871646Y-121349853D01*
X138746147Y-121224354D01*
X138647544Y-121076784D01*
X138579624Y-120912812D01*
X138545000Y-120738741D01*
X138545000Y-120561259D01*
X138579624Y-120387188D01*
X138647544Y-120223216D01*
X138746147Y-120075646D01*
X138871646Y-119950147D01*
X139019216Y-119851544D01*
X139183188Y-119783624D01*
X139332488Y-119753927D01*
X139357258Y-119749000D01*
X139534742Y-119749000D01*
X139559512Y-119753927D01*
G37*
G36*
X201241162Y-117193644D02*
G01*
X201280608Y-117205610D01*
X201316953Y-117225037D01*
X201348815Y-117251185D01*
X201374963Y-117283047D01*
X201394390Y-117319392D01*
X201406356Y-117358838D01*
X201411000Y-117405993D01*
X201411000Y-118099007D01*
X201406356Y-118146162D01*
X201394390Y-118185608D01*
X201374963Y-118221953D01*
X201348815Y-118253815D01*
X201316953Y-118279963D01*
X201280608Y-118299390D01*
X201241162Y-118311356D01*
X201194007Y-118316000D01*
X200125993Y-118316000D01*
X200078838Y-118311356D01*
X200039392Y-118299390D01*
X200003047Y-118279963D01*
X199971185Y-118253815D01*
X199945037Y-118221953D01*
X199925610Y-118185608D01*
X199913644Y-118146162D01*
X199909000Y-118099007D01*
X199909000Y-117405993D01*
X199913644Y-117358838D01*
X199925610Y-117319392D01*
X199945037Y-117283047D01*
X199971185Y-117251185D01*
X200003047Y-117225037D01*
X200039392Y-117205610D01*
X200078838Y-117193644D01*
X200125993Y-117189000D01*
X201194007Y-117189000D01*
X201241162Y-117193644D01*
G37*
G36*
X115516162Y-117193644D02*
G01*
X115555608Y-117205610D01*
X115591953Y-117225037D01*
X115623815Y-117251185D01*
X115649963Y-117283047D01*
X115669390Y-117319392D01*
X115681356Y-117358838D01*
X115686000Y-117405993D01*
X115686000Y-118099007D01*
X115681356Y-118146162D01*
X115669390Y-118185608D01*
X115649963Y-118221953D01*
X115623815Y-118253815D01*
X115591953Y-118279963D01*
X115555608Y-118299390D01*
X115516162Y-118311356D01*
X115469007Y-118316000D01*
X114400993Y-118316000D01*
X114353838Y-118311356D01*
X114314392Y-118299390D01*
X114278047Y-118279963D01*
X114246185Y-118253815D01*
X114220037Y-118221953D01*
X114200610Y-118185608D01*
X114188644Y-118146162D01*
X114184000Y-118099007D01*
X114184000Y-117405993D01*
X114188644Y-117358838D01*
X114200610Y-117319392D01*
X114220037Y-117283047D01*
X114246185Y-117251185D01*
X114278047Y-117225037D01*
X114314392Y-117205610D01*
X114353838Y-117193644D01*
X114400993Y-117189000D01*
X115469007Y-117189000D01*
X115516162Y-117193644D01*
G37*
G36*
X158061162Y-117193644D02*
G01*
X158100608Y-117205610D01*
X158136953Y-117225037D01*
X158168815Y-117251185D01*
X158194963Y-117283047D01*
X158214390Y-117319392D01*
X158226356Y-117358838D01*
X158231000Y-117405993D01*
X158231000Y-118099007D01*
X158226356Y-118146162D01*
X158214390Y-118185608D01*
X158194963Y-118221953D01*
X158168815Y-118253815D01*
X158136953Y-118279963D01*
X158100608Y-118299390D01*
X158061162Y-118311356D01*
X158014007Y-118316000D01*
X156945993Y-118316000D01*
X156898838Y-118311356D01*
X156859392Y-118299390D01*
X156823047Y-118279963D01*
X156791185Y-118253815D01*
X156765037Y-118221953D01*
X156745610Y-118185608D01*
X156733644Y-118146162D01*
X156729000Y-118099007D01*
X156729000Y-117405993D01*
X156733644Y-117358838D01*
X156745610Y-117319392D01*
X156765037Y-117283047D01*
X156791185Y-117251185D01*
X156823047Y-117225037D01*
X156859392Y-117205610D01*
X156898838Y-117193644D01*
X156945993Y-117189000D01*
X158014007Y-117189000D01*
X158061162Y-117193644D01*
G37*
G36*
X72971162Y-117193644D02*
G01*
X73010608Y-117205610D01*
X73046953Y-117225037D01*
X73078815Y-117251185D01*
X73104963Y-117283047D01*
X73124390Y-117319392D01*
X73136356Y-117358838D01*
X73141000Y-117405993D01*
X73141000Y-118099007D01*
X73136356Y-118146162D01*
X73124390Y-118185608D01*
X73104963Y-118221953D01*
X73078815Y-118253815D01*
X73046953Y-118279963D01*
X73010608Y-118299390D01*
X72971162Y-118311356D01*
X72924007Y-118316000D01*
X71855993Y-118316000D01*
X71808838Y-118311356D01*
X71769392Y-118299390D01*
X71733047Y-118279963D01*
X71701185Y-118253815D01*
X71675037Y-118221953D01*
X71655610Y-118185608D01*
X71643644Y-118146162D01*
X71639000Y-118099007D01*
X71639000Y-117405993D01*
X71643644Y-117358838D01*
X71655610Y-117319392D01*
X71675037Y-117283047D01*
X71701185Y-117251185D01*
X71733047Y-117225037D01*
X71769392Y-117205610D01*
X71808838Y-117193644D01*
X71855993Y-117189000D01*
X72924007Y-117189000D01*
X72971162Y-117193644D01*
G37*
G36*
X115516162Y-115368644D02*
G01*
X115555608Y-115380610D01*
X115591953Y-115400037D01*
X115623815Y-115426185D01*
X115649963Y-115458047D01*
X115669390Y-115494392D01*
X115681356Y-115533838D01*
X115686000Y-115580993D01*
X115686000Y-116274007D01*
X115681356Y-116321162D01*
X115669390Y-116360608D01*
X115649963Y-116396953D01*
X115623815Y-116428815D01*
X115591953Y-116454963D01*
X115555608Y-116474390D01*
X115516162Y-116486356D01*
X115469007Y-116491000D01*
X114400993Y-116491000D01*
X114353838Y-116486356D01*
X114314392Y-116474390D01*
X114278047Y-116454963D01*
X114246185Y-116428815D01*
X114220037Y-116396953D01*
X114200610Y-116360608D01*
X114188644Y-116321162D01*
X114184000Y-116274007D01*
X114184000Y-115580993D01*
X114188644Y-115533838D01*
X114200610Y-115494392D01*
X114220037Y-115458047D01*
X114246185Y-115426185D01*
X114278047Y-115400037D01*
X114314392Y-115380610D01*
X114353838Y-115368644D01*
X114400993Y-115364000D01*
X115469007Y-115364000D01*
X115516162Y-115368644D01*
G37*
G36*
X158061162Y-115368644D02*
G01*
X158100608Y-115380610D01*
X158136953Y-115400037D01*
X158168815Y-115426185D01*
X158194963Y-115458047D01*
X158214390Y-115494392D01*
X158226356Y-115533838D01*
X158231000Y-115580993D01*
X158231000Y-116274007D01*
X158226356Y-116321162D01*
X158214390Y-116360608D01*
X158194963Y-116396953D01*
X158168815Y-116428815D01*
X158136953Y-116454963D01*
X158100608Y-116474390D01*
X158061162Y-116486356D01*
X158014007Y-116491000D01*
X156945993Y-116491000D01*
X156898838Y-116486356D01*
X156859392Y-116474390D01*
X156823047Y-116454963D01*
X156791185Y-116428815D01*
X156765037Y-116396953D01*
X156745610Y-116360608D01*
X156733644Y-116321162D01*
X156729000Y-116274007D01*
X156729000Y-115580993D01*
X156733644Y-115533838D01*
X156745610Y-115494392D01*
X156765037Y-115458047D01*
X156791185Y-115426185D01*
X156823047Y-115400037D01*
X156859392Y-115380610D01*
X156898838Y-115368644D01*
X156945993Y-115364000D01*
X158014007Y-115364000D01*
X158061162Y-115368644D01*
G37*
G36*
X201241162Y-115368644D02*
G01*
X201280608Y-115380610D01*
X201316953Y-115400037D01*
X201348815Y-115426185D01*
X201374963Y-115458047D01*
X201394390Y-115494392D01*
X201406356Y-115533838D01*
X201411000Y-115580993D01*
X201411000Y-116274007D01*
X201406356Y-116321162D01*
X201394390Y-116360608D01*
X201374963Y-116396953D01*
X201348815Y-116428815D01*
X201316953Y-116454963D01*
X201280608Y-116474390D01*
X201241162Y-116486356D01*
X201194007Y-116491000D01*
X200125993Y-116491000D01*
X200078838Y-116486356D01*
X200039392Y-116474390D01*
X200003047Y-116454963D01*
X199971185Y-116428815D01*
X199945037Y-116396953D01*
X199925610Y-116360608D01*
X199913644Y-116321162D01*
X199909000Y-116274007D01*
X199909000Y-115580993D01*
X199913644Y-115533838D01*
X199925610Y-115494392D01*
X199945037Y-115458047D01*
X199971185Y-115426185D01*
X200003047Y-115400037D01*
X200039392Y-115380610D01*
X200078838Y-115368644D01*
X200125993Y-115364000D01*
X201194007Y-115364000D01*
X201241162Y-115368644D01*
G37*
G36*
X72971162Y-115368644D02*
G01*
X73010608Y-115380610D01*
X73046953Y-115400037D01*
X73078815Y-115426185D01*
X73104963Y-115458047D01*
X73124390Y-115494392D01*
X73136356Y-115533838D01*
X73141000Y-115580993D01*
X73141000Y-116274007D01*
X73136356Y-116321162D01*
X73124390Y-116360608D01*
X73104963Y-116396953D01*
X73078815Y-116428815D01*
X73046953Y-116454963D01*
X73010608Y-116474390D01*
X72971162Y-116486356D01*
X72924007Y-116491000D01*
X71855993Y-116491000D01*
X71808838Y-116486356D01*
X71769392Y-116474390D01*
X71733047Y-116454963D01*
X71701185Y-116428815D01*
X71675037Y-116396953D01*
X71655610Y-116360608D01*
X71643644Y-116321162D01*
X71639000Y-116274007D01*
X71639000Y-115580993D01*
X71643644Y-115533838D01*
X71655610Y-115494392D01*
X71675037Y-115458047D01*
X71701185Y-115426185D01*
X71733047Y-115400037D01*
X71769392Y-115380610D01*
X71808838Y-115368644D01*
X71855993Y-115364000D01*
X72924007Y-115364000D01*
X72971162Y-115368644D01*
G37*
G36*
X114881162Y-113383644D02*
G01*
X114920608Y-113395610D01*
X114956953Y-113415037D01*
X114988815Y-113441185D01*
X115014963Y-113473047D01*
X115034390Y-113509392D01*
X115046356Y-113548838D01*
X115051000Y-113595993D01*
X115051000Y-114289007D01*
X115046356Y-114336162D01*
X115034390Y-114375608D01*
X115014963Y-114411953D01*
X114988815Y-114443815D01*
X114956953Y-114469963D01*
X114920608Y-114489390D01*
X114881162Y-114501356D01*
X114834007Y-114506000D01*
X113765993Y-114506000D01*
X113718838Y-114501356D01*
X113679392Y-114489390D01*
X113643047Y-114469963D01*
X113611185Y-114443815D01*
X113585037Y-114411953D01*
X113565610Y-114375608D01*
X113553644Y-114336162D01*
X113549000Y-114289007D01*
X113549000Y-113595993D01*
X113553644Y-113548838D01*
X113565610Y-113509392D01*
X113585037Y-113473047D01*
X113611185Y-113441185D01*
X113643047Y-113415037D01*
X113679392Y-113395610D01*
X113718838Y-113383644D01*
X113765993Y-113379000D01*
X114834007Y-113379000D01*
X114881162Y-113383644D01*
G37*
G36*
X202514468Y-113433565D02*
G01*
X202553138Y-113445296D01*
X202588777Y-113464346D01*
X202620017Y-113489983D01*
X202645654Y-113521223D01*
X202664704Y-113556862D01*
X202676435Y-113595532D01*
X202681000Y-113641888D01*
X202681000Y-114293112D01*
X202676435Y-114339468D01*
X202664704Y-114378138D01*
X202645654Y-114413777D01*
X202620017Y-114445017D01*
X202588777Y-114470654D01*
X202553138Y-114489704D01*
X202514468Y-114501435D01*
X202468112Y-114506000D01*
X201391888Y-114506000D01*
X201345532Y-114501435D01*
X201306862Y-114489704D01*
X201271223Y-114470654D01*
X201239983Y-114445017D01*
X201214346Y-114413777D01*
X201195296Y-114378138D01*
X201183565Y-114339468D01*
X201179000Y-114293112D01*
X201179000Y-113641888D01*
X201183565Y-113595532D01*
X201195296Y-113556862D01*
X201214346Y-113521223D01*
X201239983Y-113489983D01*
X201271223Y-113464346D01*
X201306862Y-113445296D01*
X201345532Y-113433565D01*
X201391888Y-113429000D01*
X202468112Y-113429000D01*
X202514468Y-113433565D01*
G37*
G36*
X199971162Y-113383644D02*
G01*
X200010608Y-113395610D01*
X200046953Y-113415037D01*
X200078815Y-113441185D01*
X200104963Y-113473047D01*
X200124390Y-113509392D01*
X200136356Y-113548838D01*
X200141000Y-113595993D01*
X200141000Y-114289007D01*
X200136356Y-114336162D01*
X200124390Y-114375608D01*
X200104963Y-114411953D01*
X200078815Y-114443815D01*
X200046953Y-114469963D01*
X200010608Y-114489390D01*
X199971162Y-114501356D01*
X199924007Y-114506000D01*
X198855993Y-114506000D01*
X198808838Y-114501356D01*
X198769392Y-114489390D01*
X198733047Y-114469963D01*
X198701185Y-114443815D01*
X198675037Y-114411953D01*
X198655610Y-114375608D01*
X198643644Y-114336162D01*
X198639000Y-114289007D01*
X198639000Y-113595993D01*
X198643644Y-113548838D01*
X198655610Y-113509392D01*
X198675037Y-113473047D01*
X198701185Y-113441185D01*
X198733047Y-113415037D01*
X198769392Y-113395610D01*
X198808838Y-113383644D01*
X198855993Y-113379000D01*
X199924007Y-113379000D01*
X199971162Y-113383644D01*
G37*
G36*
X157426162Y-113383644D02*
G01*
X157465608Y-113395610D01*
X157501953Y-113415037D01*
X157533815Y-113441185D01*
X157559963Y-113473047D01*
X157579390Y-113509392D01*
X157591356Y-113548838D01*
X157596000Y-113595993D01*
X157596000Y-114289007D01*
X157591356Y-114336162D01*
X157579390Y-114375608D01*
X157559963Y-114411953D01*
X157533815Y-114443815D01*
X157501953Y-114469963D01*
X157465608Y-114489390D01*
X157426162Y-114501356D01*
X157379007Y-114506000D01*
X156310993Y-114506000D01*
X156263838Y-114501356D01*
X156224392Y-114489390D01*
X156188047Y-114469963D01*
X156156185Y-114443815D01*
X156130037Y-114411953D01*
X156110610Y-114375608D01*
X156098644Y-114336162D01*
X156094000Y-114289007D01*
X156094000Y-113595993D01*
X156098644Y-113548838D01*
X156110610Y-113509392D01*
X156130037Y-113473047D01*
X156156185Y-113441185D01*
X156188047Y-113415037D01*
X156224392Y-113395610D01*
X156263838Y-113383644D01*
X156310993Y-113379000D01*
X157379007Y-113379000D01*
X157426162Y-113383644D01*
G37*
G36*
X71701162Y-113383644D02*
G01*
X71740608Y-113395610D01*
X71776953Y-113415037D01*
X71808815Y-113441185D01*
X71834963Y-113473047D01*
X71854390Y-113509392D01*
X71866356Y-113548838D01*
X71871000Y-113595993D01*
X71871000Y-114289007D01*
X71866356Y-114336162D01*
X71854390Y-114375608D01*
X71834963Y-114411953D01*
X71808815Y-114443815D01*
X71776953Y-114469963D01*
X71740608Y-114489390D01*
X71701162Y-114501356D01*
X71654007Y-114506000D01*
X70585993Y-114506000D01*
X70538838Y-114501356D01*
X70499392Y-114489390D01*
X70463047Y-114469963D01*
X70431185Y-114443815D01*
X70405037Y-114411953D01*
X70385610Y-114375608D01*
X70373644Y-114336162D01*
X70369000Y-114289007D01*
X70369000Y-113595993D01*
X70373644Y-113548838D01*
X70385610Y-113509392D01*
X70405037Y-113473047D01*
X70431185Y-113441185D01*
X70463047Y-113415037D01*
X70499392Y-113395610D01*
X70538838Y-113383644D01*
X70585993Y-113379000D01*
X71654007Y-113379000D01*
X71701162Y-113383644D01*
G37*
G36*
X159969468Y-113433565D02*
G01*
X160008138Y-113445296D01*
X160043777Y-113464346D01*
X160075017Y-113489983D01*
X160100654Y-113521223D01*
X160119704Y-113556862D01*
X160131435Y-113595532D01*
X160136000Y-113641888D01*
X160136000Y-114293112D01*
X160131435Y-114339468D01*
X160119704Y-114378138D01*
X160100654Y-114413777D01*
X160075017Y-114445017D01*
X160043777Y-114470654D01*
X160008138Y-114489704D01*
X159969468Y-114501435D01*
X159923112Y-114506000D01*
X158846888Y-114506000D01*
X158800532Y-114501435D01*
X158761862Y-114489704D01*
X158726223Y-114470654D01*
X158694983Y-114445017D01*
X158669346Y-114413777D01*
X158650296Y-114378138D01*
X158638565Y-114339468D01*
X158634000Y-114293112D01*
X158634000Y-113641888D01*
X158638565Y-113595532D01*
X158650296Y-113556862D01*
X158669346Y-113521223D01*
X158694983Y-113489983D01*
X158726223Y-113464346D01*
X158761862Y-113445296D01*
X158800532Y-113433565D01*
X158846888Y-113429000D01*
X159923112Y-113429000D01*
X159969468Y-113433565D01*
G37*
G36*
X74244468Y-113433565D02*
G01*
X74283138Y-113445296D01*
X74318777Y-113464346D01*
X74350017Y-113489983D01*
X74375654Y-113521223D01*
X74394704Y-113556862D01*
X74406435Y-113595532D01*
X74411000Y-113641888D01*
X74411000Y-114293112D01*
X74406435Y-114339468D01*
X74394704Y-114378138D01*
X74375654Y-114413777D01*
X74350017Y-114445017D01*
X74318777Y-114470654D01*
X74283138Y-114489704D01*
X74244468Y-114501435D01*
X74198112Y-114506000D01*
X73121888Y-114506000D01*
X73075532Y-114501435D01*
X73036862Y-114489704D01*
X73001223Y-114470654D01*
X72969983Y-114445017D01*
X72944346Y-114413777D01*
X72925296Y-114378138D01*
X72913565Y-114339468D01*
X72909000Y-114293112D01*
X72909000Y-113641888D01*
X72913565Y-113595532D01*
X72925296Y-113556862D01*
X72944346Y-113521223D01*
X72969983Y-113489983D01*
X73001223Y-113464346D01*
X73036862Y-113445296D01*
X73075532Y-113433565D01*
X73121888Y-113429000D01*
X74198112Y-113429000D01*
X74244468Y-113433565D01*
G37*
G36*
X117424468Y-113433565D02*
G01*
X117463138Y-113445296D01*
X117498777Y-113464346D01*
X117530017Y-113489983D01*
X117555654Y-113521223D01*
X117574704Y-113556862D01*
X117586435Y-113595532D01*
X117591000Y-113641888D01*
X117591000Y-114293112D01*
X117586435Y-114339468D01*
X117574704Y-114378138D01*
X117555654Y-114413777D01*
X117530017Y-114445017D01*
X117498777Y-114470654D01*
X117463138Y-114489704D01*
X117424468Y-114501435D01*
X117378112Y-114506000D01*
X116301888Y-114506000D01*
X116255532Y-114501435D01*
X116216862Y-114489704D01*
X116181223Y-114470654D01*
X116149983Y-114445017D01*
X116124346Y-114413777D01*
X116105296Y-114378138D01*
X116093565Y-114339468D01*
X116089000Y-114293112D01*
X116089000Y-113641888D01*
X116093565Y-113595532D01*
X116105296Y-113556862D01*
X116124346Y-113521223D01*
X116149983Y-113489983D01*
X116181223Y-113464346D01*
X116216862Y-113445296D01*
X116255532Y-113433565D01*
X116301888Y-113429000D01*
X117378112Y-113429000D01*
X117424468Y-113433565D01*
G37*
G36*
X199971162Y-111558644D02*
G01*
X200010608Y-111570610D01*
X200046953Y-111590037D01*
X200078815Y-111616185D01*
X200104963Y-111648047D01*
X200124390Y-111684392D01*
X200136356Y-111723838D01*
X200141000Y-111770993D01*
X200141000Y-112464007D01*
X200136356Y-112511162D01*
X200124390Y-112550608D01*
X200104963Y-112586953D01*
X200078815Y-112618815D01*
X200046953Y-112644963D01*
X200010608Y-112664390D01*
X199971162Y-112676356D01*
X199924007Y-112681000D01*
X198855993Y-112681000D01*
X198808838Y-112676356D01*
X198769392Y-112664390D01*
X198733047Y-112644963D01*
X198701185Y-112618815D01*
X198675037Y-112586953D01*
X198655610Y-112550608D01*
X198643644Y-112511162D01*
X198639000Y-112464007D01*
X198639000Y-111770993D01*
X198643644Y-111723838D01*
X198655610Y-111684392D01*
X198675037Y-111648047D01*
X198701185Y-111616185D01*
X198733047Y-111590037D01*
X198769392Y-111570610D01*
X198808838Y-111558644D01*
X198855993Y-111554000D01*
X199924007Y-111554000D01*
X199971162Y-111558644D01*
G37*
G36*
X157426162Y-111558644D02*
G01*
X157465608Y-111570610D01*
X157501953Y-111590037D01*
X157533815Y-111616185D01*
X157559963Y-111648047D01*
X157579390Y-111684392D01*
X157591356Y-111723838D01*
X157596000Y-111770993D01*
X157596000Y-112464007D01*
X157591356Y-112511162D01*
X157579390Y-112550608D01*
X157559963Y-112586953D01*
X157533815Y-112618815D01*
X157501953Y-112644963D01*
X157465608Y-112664390D01*
X157426162Y-112676356D01*
X157379007Y-112681000D01*
X156310993Y-112681000D01*
X156263838Y-112676356D01*
X156224392Y-112664390D01*
X156188047Y-112644963D01*
X156156185Y-112618815D01*
X156130037Y-112586953D01*
X156110610Y-112550608D01*
X156098644Y-112511162D01*
X156094000Y-112464007D01*
X156094000Y-111770993D01*
X156098644Y-111723838D01*
X156110610Y-111684392D01*
X156130037Y-111648047D01*
X156156185Y-111616185D01*
X156188047Y-111590037D01*
X156224392Y-111570610D01*
X156263838Y-111558644D01*
X156310993Y-111554000D01*
X157379007Y-111554000D01*
X157426162Y-111558644D01*
G37*
G36*
X114881162Y-111558644D02*
G01*
X114920608Y-111570610D01*
X114956953Y-111590037D01*
X114988815Y-111616185D01*
X115014963Y-111648047D01*
X115034390Y-111684392D01*
X115046356Y-111723838D01*
X115051000Y-111770993D01*
X115051000Y-112464007D01*
X115046356Y-112511162D01*
X115034390Y-112550608D01*
X115014963Y-112586953D01*
X114988815Y-112618815D01*
X114956953Y-112644963D01*
X114920608Y-112664390D01*
X114881162Y-112676356D01*
X114834007Y-112681000D01*
X113765993Y-112681000D01*
X113718838Y-112676356D01*
X113679392Y-112664390D01*
X113643047Y-112644963D01*
X113611185Y-112618815D01*
X113585037Y-112586953D01*
X113565610Y-112550608D01*
X113553644Y-112511162D01*
X113549000Y-112464007D01*
X113549000Y-111770993D01*
X113553644Y-111723838D01*
X113565610Y-111684392D01*
X113585037Y-111648047D01*
X113611185Y-111616185D01*
X113643047Y-111590037D01*
X113679392Y-111570610D01*
X113718838Y-111558644D01*
X113765993Y-111554000D01*
X114834007Y-111554000D01*
X114881162Y-111558644D01*
G37*
G36*
X71701162Y-111558644D02*
G01*
X71740608Y-111570610D01*
X71776953Y-111590037D01*
X71808815Y-111616185D01*
X71834963Y-111648047D01*
X71854390Y-111684392D01*
X71866356Y-111723838D01*
X71871000Y-111770993D01*
X71871000Y-112464007D01*
X71866356Y-112511162D01*
X71854390Y-112550608D01*
X71834963Y-112586953D01*
X71808815Y-112618815D01*
X71776953Y-112644963D01*
X71740608Y-112664390D01*
X71701162Y-112676356D01*
X71654007Y-112681000D01*
X70585993Y-112681000D01*
X70538838Y-112676356D01*
X70499392Y-112664390D01*
X70463047Y-112644963D01*
X70431185Y-112618815D01*
X70405037Y-112586953D01*
X70385610Y-112550608D01*
X70373644Y-112511162D01*
X70369000Y-112464007D01*
X70369000Y-111770993D01*
X70373644Y-111723838D01*
X70385610Y-111684392D01*
X70405037Y-111648047D01*
X70431185Y-111616185D01*
X70463047Y-111590037D01*
X70499392Y-111570610D01*
X70538838Y-111558644D01*
X70585993Y-111554000D01*
X71654007Y-111554000D01*
X71701162Y-111558644D01*
G37*
G36*
X74244468Y-111558565D02*
G01*
X74283138Y-111570296D01*
X74318777Y-111589346D01*
X74350017Y-111614983D01*
X74375654Y-111646223D01*
X74394704Y-111681862D01*
X74406435Y-111720532D01*
X74411000Y-111766888D01*
X74411000Y-112418112D01*
X74406435Y-112464468D01*
X74394704Y-112503138D01*
X74375654Y-112538777D01*
X74350017Y-112570017D01*
X74318777Y-112595654D01*
X74283138Y-112614704D01*
X74244468Y-112626435D01*
X74198112Y-112631000D01*
X73121888Y-112631000D01*
X73075532Y-112626435D01*
X73036862Y-112614704D01*
X73001223Y-112595654D01*
X72969983Y-112570017D01*
X72944346Y-112538777D01*
X72925296Y-112503138D01*
X72913565Y-112464468D01*
X72909000Y-112418112D01*
X72909000Y-111766888D01*
X72913565Y-111720532D01*
X72925296Y-111681862D01*
X72944346Y-111646223D01*
X72969983Y-111614983D01*
X73001223Y-111589346D01*
X73036862Y-111570296D01*
X73075532Y-111558565D01*
X73121888Y-111554000D01*
X74198112Y-111554000D01*
X74244468Y-111558565D01*
G37*
G36*
X202514468Y-111558565D02*
G01*
X202553138Y-111570296D01*
X202588777Y-111589346D01*
X202620017Y-111614983D01*
X202645654Y-111646223D01*
X202664704Y-111681862D01*
X202676435Y-111720532D01*
X202681000Y-111766888D01*
X202681000Y-112418112D01*
X202676435Y-112464468D01*
X202664704Y-112503138D01*
X202645654Y-112538777D01*
X202620017Y-112570017D01*
X202588777Y-112595654D01*
X202553138Y-112614704D01*
X202514468Y-112626435D01*
X202468112Y-112631000D01*
X201391888Y-112631000D01*
X201345532Y-112626435D01*
X201306862Y-112614704D01*
X201271223Y-112595654D01*
X201239983Y-112570017D01*
X201214346Y-112538777D01*
X201195296Y-112503138D01*
X201183565Y-112464468D01*
X201179000Y-112418112D01*
X201179000Y-111766888D01*
X201183565Y-111720532D01*
X201195296Y-111681862D01*
X201214346Y-111646223D01*
X201239983Y-111614983D01*
X201271223Y-111589346D01*
X201306862Y-111570296D01*
X201345532Y-111558565D01*
X201391888Y-111554000D01*
X202468112Y-111554000D01*
X202514468Y-111558565D01*
G37*
G36*
X159969468Y-111558565D02*
G01*
X160008138Y-111570296D01*
X160043777Y-111589346D01*
X160075017Y-111614983D01*
X160100654Y-111646223D01*
X160119704Y-111681862D01*
X160131435Y-111720532D01*
X160136000Y-111766888D01*
X160136000Y-112418112D01*
X160131435Y-112464468D01*
X160119704Y-112503138D01*
X160100654Y-112538777D01*
X160075017Y-112570017D01*
X160043777Y-112595654D01*
X160008138Y-112614704D01*
X159969468Y-112626435D01*
X159923112Y-112631000D01*
X158846888Y-112631000D01*
X158800532Y-112626435D01*
X158761862Y-112614704D01*
X158726223Y-112595654D01*
X158694983Y-112570017D01*
X158669346Y-112538777D01*
X158650296Y-112503138D01*
X158638565Y-112464468D01*
X158634000Y-112418112D01*
X158634000Y-111766888D01*
X158638565Y-111720532D01*
X158650296Y-111681862D01*
X158669346Y-111646223D01*
X158694983Y-111614983D01*
X158726223Y-111589346D01*
X158761862Y-111570296D01*
X158800532Y-111558565D01*
X158846888Y-111554000D01*
X159923112Y-111554000D01*
X159969468Y-111558565D01*
G37*
G36*
X117424468Y-111558565D02*
G01*
X117463138Y-111570296D01*
X117498777Y-111589346D01*
X117530017Y-111614983D01*
X117555654Y-111646223D01*
X117574704Y-111681862D01*
X117586435Y-111720532D01*
X117591000Y-111766888D01*
X117591000Y-112418112D01*
X117586435Y-112464468D01*
X117574704Y-112503138D01*
X117555654Y-112538777D01*
X117530017Y-112570017D01*
X117498777Y-112595654D01*
X117463138Y-112614704D01*
X117424468Y-112626435D01*
X117378112Y-112631000D01*
X116301888Y-112631000D01*
X116255532Y-112626435D01*
X116216862Y-112614704D01*
X116181223Y-112595654D01*
X116149983Y-112570017D01*
X116124346Y-112538777D01*
X116105296Y-112503138D01*
X116093565Y-112464468D01*
X116089000Y-112418112D01*
X116089000Y-111766888D01*
X116093565Y-111720532D01*
X116105296Y-111681862D01*
X116124346Y-111646223D01*
X116149983Y-111614983D01*
X116181223Y-111589346D01*
X116216862Y-111570296D01*
X116255532Y-111558565D01*
X116301888Y-111554000D01*
X117378112Y-111554000D01*
X117424468Y-111558565D01*
G37*
M02*
